<?xml version="1.0" encoding="utf-8"?>
<!-- Generator: Adobe Illustrator 16.0.0, SVG Export Plug-In . SVG Version: 6.00 Build 0)  -->
<!DOCTYPE svg PUBLIC "-//W3C//DTD SVG 1.0//EN" "http://www.w3.org/TR/2001/REC-SVG-20010904/DTD/svg10.dtd">
<svg version="1.0" id="Layer_1" xmlns="http://www.w3.org/2000/svg" xmlns:xlink="http://www.w3.org/1999/xlink" x="0px" y="0px"
	 width="612px" height="792px" viewBox="0 0 612 792" enable-background="new 0 0 612 792" xml:space="preserve">
<path fill="#DA1C5C" d="M538.159,304.132c2.173-12.964,23.536-144.252-0.177-157.778c-40.787-23.264-116.149,49.894-124.88,58.587
	c-24.849-7.989-52.554-12.459-81.776-12.459c-28.957,0-56.425,4.388-81.1,12.241h0c0,0-82.384-84.151-125.721-59.432
	c-24.948,14.23,0,158.82,0,158.82l0.013-0.01c-14.711,18.221-22.968,38.675-22.968,60.291c0,76.326,102.874,138.202,229.775,138.202
	s229.775-61.876,229.775-138.202C561.102,342.789,552.854,322.345,538.159,304.132z"/>
<g>
</g>
<g>
</g>
<g>
</g>
<g>
</g>
<g>
</g>
<g>
</g>
</svg>
