<?xml version="1.0" standalone="no"?>
 <!DOCTYPE svg PUBLIC "-//W3C//DTD SVG 1.1//EN" 
 "http://www.w3.org/Graphics/SVG/1.1/DTD/svg11.dtd"> 
<svg xmlns="http://www.w3.org/2000/svg" version="1.1" 
    width="29.7002cm" height="21.0007cm" viewBox="0 0 116930 82680 ">
<title>SVG Picture created as esp-ws2812-brd.svg date 2016/10/21 13:58:55 </title>
  <desc>Picture generated by PCBNEW </desc>
<g style="fill:#000000; fill-opacity:1;stroke:#000000; stroke-opacity:1;
stroke-linecap:round; stroke-linejoin:round; "
 transform="translate(0 0) scale(1 1)">
</g>
<g style="fill:#000000; fill-opacity:0.0; 
stroke:#000000; stroke-width:-0.000393701; stroke-opacity:1; 
stroke-linecap:round; stroke-linejoin:round;">
</g>
<g style="fill:#000000; fill-opacity:0.0; 
stroke:#000000; stroke-width:39.3701; stroke-opacity:1; 
stroke-linecap:round; stroke-linejoin:round;">
</g>
<g style="fill:#000000; fill-opacity:0.0; 
stroke:#000000; stroke-width:59.0551; stroke-opacity:1; 
stroke-linecap:round; stroke-linejoin:round;">
<rect x="69685.9" y="65357.2" width="42519.7" height="12598.4" rx="0" />
</g>
<g style="fill:#000000; fill-opacity:0.0; 
stroke:#000000; stroke-width:39.3701; stroke-opacity:1; 
stroke-linecap:round; stroke-linejoin:round;">
</g>
<g style="fill:#000000; fill-opacity:0.0; 
stroke:#000000; stroke-width:59.0551; stroke-opacity:1; 
stroke-linecap:round; stroke-linejoin:round;">
<rect x="3937.01" y="3937.01" width="109056" height="74806" rx="0" />
</g>
<g style="fill:#000000; fill-opacity:0.0; 
stroke:#000000; stroke-width:39.3701; stroke-opacity:1; 
stroke-linecap:round; stroke-linejoin:round;">
</g>
<g style="fill:#000000; fill-opacity:0.0; 
stroke:#000000; stroke-width:59.0551; stroke-opacity:1; 
stroke-linecap:round; stroke-linejoin:round;">
<rect x="4724.41" y="4724.41" width="107481" height="73231.2" rx="0" />
</g>
<g style="fill:#000000; fill-opacity:0.0; 
stroke:#000000; stroke-width:39.3701; stroke-opacity:1; 
stroke-linecap:round; stroke-linejoin:round;">
</g>
<g style="fill:#000000; fill-opacity:0.0; 
stroke:#000000; stroke-width:59.0551; stroke-opacity:1; 
stroke-linecap:round; stroke-linejoin:round;">
<path d="M23622 4724
L23622 3937
" />
</g>
<g style="fill:#000000; fill-opacity:0.0; 
stroke:#000000; stroke-width:39.3701; stroke-opacity:1; 
stroke-linecap:round; stroke-linejoin:round;">
</g>
<g style="fill:#000000; fill-opacity:0.0; 
stroke:#000000; stroke-width:59.0551; stroke-opacity:1; 
stroke-linecap:round; stroke-linejoin:round;">
<path d="M43307 4724
L43307 3937
" />
</g>
<g style="fill:#000000; fill-opacity:0.0; 
stroke:#000000; stroke-width:39.3701; stroke-opacity:1; 
stroke-linecap:round; stroke-linejoin:round;">
</g>
<g style="fill:#000000; fill-opacity:0.0; 
stroke:#000000; stroke-width:59.0551; stroke-opacity:1; 
stroke-linecap:round; stroke-linejoin:round;">
<path d="M62992 4724
L62992 3937
" />
</g>
<g style="fill:#000000; fill-opacity:0.0; 
stroke:#000000; stroke-width:39.3701; stroke-opacity:1; 
stroke-linecap:round; stroke-linejoin:round;">
</g>
<g style="fill:#000000; fill-opacity:0.0; 
stroke:#000000; stroke-width:59.0551; stroke-opacity:1; 
stroke-linecap:round; stroke-linejoin:round;">
<path d="M82677 4724
L82677 3937
" />
</g>
<g style="fill:#000000; fill-opacity:0.0; 
stroke:#000000; stroke-width:39.3701; stroke-opacity:1; 
stroke-linecap:round; stroke-linejoin:round;">
</g>
<g style="fill:#000000; fill-opacity:0.0; 
stroke:#000000; stroke-width:59.0551; stroke-opacity:1; 
stroke-linecap:round; stroke-linejoin:round;">
<path d="M102362 4724
L102362 3937
" />
</g>
<g style="fill:#000000; fill-opacity:0.0; 
stroke:#000000; stroke-width:39.3701; stroke-opacity:1; 
stroke-linecap:round; stroke-linejoin:round;">
</g>
<g style="fill:#000000; fill-opacity:0.0; 
stroke:#000000; stroke-width:59.0551; stroke-opacity:1; 
stroke-linecap:round; stroke-linejoin:round;">
<path d="M14169 4562
L13877 4562
" />
<path d="M14023 4562
L14023 4050
L13974 4123
L13925 4172
L13877 4196
" />
</g>
<g style="fill:#000000; fill-opacity:0.0; 
stroke:#000000; stroke-width:39.3701; stroke-opacity:1; 
stroke-linecap:round; stroke-linejoin:round;">
</g>
<g style="fill:#000000; fill-opacity:0.0; 
stroke:#000000; stroke-width:59.0551; stroke-opacity:1; 
stroke-linecap:round; stroke-linejoin:round;">
<path d="M33562 4099
L33586 4074
L33635 4050
L33757 4050
L33805 4074
L33830 4099
L33854 4147
L33854 4196
L33830 4269
L33537 4562
L33854 4562
" />
</g>
<g style="fill:#000000; fill-opacity:0.0; 
stroke:#000000; stroke-width:39.3701; stroke-opacity:1; 
stroke-linecap:round; stroke-linejoin:round;">
</g>
<g style="fill:#000000; fill-opacity:0.0; 
stroke:#000000; stroke-width:59.0551; stroke-opacity:1; 
stroke-linecap:round; stroke-linejoin:round;">
<path d="M53222 4050
L53539 4050
L53368 4245
L53442 4245
L53490 4269
L53515 4294
L53539 4342
L53539 4464
L53515 4513
L53490 4537
L53442 4562
L53295 4562
L53247 4537
L53222 4513
" />
</g>
<g style="fill:#000000; fill-opacity:0.0; 
stroke:#000000; stroke-width:39.3701; stroke-opacity:1; 
stroke-linecap:round; stroke-linejoin:round;">
</g>
<g style="fill:#000000; fill-opacity:0.0; 
stroke:#000000; stroke-width:59.0551; stroke-opacity:1; 
stroke-linecap:round; stroke-linejoin:round;">
<path d="M73175 4221
L73175 4562
" />
<path d="M73053 4026
L72932 4391
L73248 4391
" />
</g>
<g style="fill:#000000; fill-opacity:0.0; 
stroke:#000000; stroke-width:39.3701; stroke-opacity:1; 
stroke-linecap:round; stroke-linejoin:round;">
</g>
<g style="fill:#000000; fill-opacity:0.0; 
stroke:#000000; stroke-width:59.0551; stroke-opacity:1; 
stroke-linecap:round; stroke-linejoin:round;">
<path d="M92885 4050
L92641 4050
L92617 4294
L92641 4269
L92690 4245
L92812 4245
L92860 4269
L92885 4294
L92909 4342
L92909 4464
L92885 4513
L92860 4537
L92812 4562
L92690 4562
L92641 4537
L92617 4513
" />
</g>
<g style="fill:#000000; fill-opacity:0.0; 
stroke:#000000; stroke-width:39.3701; stroke-opacity:1; 
stroke-linecap:round; stroke-linejoin:round;">
</g>
<g style="fill:#000000; fill-opacity:0.0; 
stroke:#000000; stroke-width:59.0551; stroke-opacity:1; 
stroke-linecap:round; stroke-linejoin:round;">
<path d="M112545 4050
L112448 4050
L112399 4074
L112375 4099
L112326 4172
L112302 4269
L112302 4464
L112326 4513
L112350 4537
L112399 4562
L112497 4562
L112545 4537
L112570 4513
L112594 4464
L112594 4342
L112570 4294
L112545 4269
L112497 4245
L112399 4245
L112350 4269
L112326 4294
L112302 4342
" />
</g>
<g style="fill:#000000; fill-opacity:0.0; 
stroke:#000000; stroke-width:39.3701; stroke-opacity:1; 
stroke-linecap:round; stroke-linejoin:round;">
</g>
<g style="fill:#000000; fill-opacity:0.0; 
stroke:#000000; stroke-width:59.0551; stroke-opacity:1; 
stroke-linecap:round; stroke-linejoin:round;">
<path d="M23622 77955
L23622 78742
" />
</g>
<g style="fill:#000000; fill-opacity:0.0; 
stroke:#000000; stroke-width:39.3701; stroke-opacity:1; 
stroke-linecap:round; stroke-linejoin:round;">
</g>
<g style="fill:#000000; fill-opacity:0.0; 
stroke:#000000; stroke-width:59.0551; stroke-opacity:1; 
stroke-linecap:round; stroke-linejoin:round;">
<path d="M43307 77955
L43307 78742
" />
</g>
<g style="fill:#000000; fill-opacity:0.0; 
stroke:#000000; stroke-width:39.3701; stroke-opacity:1; 
stroke-linecap:round; stroke-linejoin:round;">
</g>
<g style="fill:#000000; fill-opacity:0.0; 
stroke:#000000; stroke-width:59.0551; stroke-opacity:1; 
stroke-linecap:round; stroke-linejoin:round;">
<path d="M62992 77955
L62992 78742
" />
</g>
<g style="fill:#000000; fill-opacity:0.0; 
stroke:#000000; stroke-width:39.3701; stroke-opacity:1; 
stroke-linecap:round; stroke-linejoin:round;">
</g>
<g style="fill:#000000; fill-opacity:0.0; 
stroke:#000000; stroke-width:59.0551; stroke-opacity:1; 
stroke-linecap:round; stroke-linejoin:round;">
<path d="M82677 77955
L82677 78742
" />
</g>
<g style="fill:#000000; fill-opacity:0.0; 
stroke:#000000; stroke-width:39.3701; stroke-opacity:1; 
stroke-linecap:round; stroke-linejoin:round;">
</g>
<g style="fill:#000000; fill-opacity:0.0; 
stroke:#000000; stroke-width:59.0551; stroke-opacity:1; 
stroke-linecap:round; stroke-linejoin:round;">
<path d="M102362 77955
L102362 78742
" />
</g>
<g style="fill:#000000; fill-opacity:0.0; 
stroke:#000000; stroke-width:39.3701; stroke-opacity:1; 
stroke-linecap:round; stroke-linejoin:round;">
</g>
<g style="fill:#000000; fill-opacity:0.0; 
stroke:#000000; stroke-width:59.0551; stroke-opacity:1; 
stroke-linecap:round; stroke-linejoin:round;">
<path d="M14169 78580
L13877 78580
" />
<path d="M14023 78580
L14023 78069
L13974 78142
L13925 78190
L13877 78215
" />
</g>
<g style="fill:#000000; fill-opacity:0.0; 
stroke:#000000; stroke-width:39.3701; stroke-opacity:1; 
stroke-linecap:round; stroke-linejoin:round;">
</g>
<g style="fill:#000000; fill-opacity:0.0; 
stroke:#000000; stroke-width:59.0551; stroke-opacity:1; 
stroke-linecap:round; stroke-linejoin:round;">
<path d="M33562 78117
L33586 78093
L33635 78069
L33757 78069
L33805 78093
L33830 78117
L33854 78166
L33854 78215
L33830 78288
L33537 78580
L33854 78580
" />
</g>
<g style="fill:#000000; fill-opacity:0.0; 
stroke:#000000; stroke-width:39.3701; stroke-opacity:1; 
stroke-linecap:round; stroke-linejoin:round;">
</g>
<g style="fill:#000000; fill-opacity:0.0; 
stroke:#000000; stroke-width:59.0551; stroke-opacity:1; 
stroke-linecap:round; stroke-linejoin:round;">
<path d="M53222 78069
L53539 78069
L53368 78263
L53442 78263
L53490 78288
L53515 78312
L53539 78361
L53539 78483
L53515 78532
L53490 78556
L53442 78580
L53295 78580
L53247 78556
L53222 78532
" />
</g>
<g style="fill:#000000; fill-opacity:0.0; 
stroke:#000000; stroke-width:39.3701; stroke-opacity:1; 
stroke-linecap:round; stroke-linejoin:round;">
</g>
<g style="fill:#000000; fill-opacity:0.0; 
stroke:#000000; stroke-width:59.0551; stroke-opacity:1; 
stroke-linecap:round; stroke-linejoin:round;">
<path d="M73175 78239
L73175 78580
" />
<path d="M73053 78044
L72932 78410
L73248 78410
" />
</g>
<g style="fill:#000000; fill-opacity:0.0; 
stroke:#000000; stroke-width:39.3701; stroke-opacity:1; 
stroke-linecap:round; stroke-linejoin:round;">
</g>
<g style="fill:#000000; fill-opacity:0.0; 
stroke:#000000; stroke-width:59.0551; stroke-opacity:1; 
stroke-linecap:round; stroke-linejoin:round;">
<path d="M92885 78069
L92641 78069
L92617 78312
L92641 78288
L92690 78263
L92812 78263
L92860 78288
L92885 78312
L92909 78361
L92909 78483
L92885 78532
L92860 78556
L92812 78580
L92690 78580
L92641 78556
L92617 78532
" />
</g>
<g style="fill:#000000; fill-opacity:0.0; 
stroke:#000000; stroke-width:39.3701; stroke-opacity:1; 
stroke-linecap:round; stroke-linejoin:round;">
</g>
<g style="fill:#000000; fill-opacity:0.0; 
stroke:#000000; stroke-width:59.0551; stroke-opacity:1; 
stroke-linecap:round; stroke-linejoin:round;">
<path d="M112545 78069
L112448 78069
L112399 78093
L112375 78117
L112326 78190
L112302 78288
L112302 78483
L112326 78532
L112350 78556
L112399 78580
L112497 78580
L112545 78556
L112570 78532
L112594 78483
L112594 78361
L112570 78312
L112545 78288
L112497 78263
L112399 78263
L112350 78288
L112326 78312
L112302 78361
" />
</g>
<g style="fill:#000000; fill-opacity:0.0; 
stroke:#000000; stroke-width:39.3701; stroke-opacity:1; 
stroke-linecap:round; stroke-linejoin:round;">
</g>
<g style="fill:#000000; fill-opacity:0.0; 
stroke:#000000; stroke-width:59.0551; stroke-opacity:1; 
stroke-linecap:round; stroke-linejoin:round;">
<path d="M3937 23622
L4724 23622
" />
</g>
<g style="fill:#000000; fill-opacity:0.0; 
stroke:#000000; stroke-width:39.3701; stroke-opacity:1; 
stroke-linecap:round; stroke-linejoin:round;">
</g>
<g style="fill:#000000; fill-opacity:0.0; 
stroke:#000000; stroke-width:59.0551; stroke-opacity:1; 
stroke-linecap:round; stroke-linejoin:round;">
<path d="M3937 43307
L4724 43307
" />
</g>
<g style="fill:#000000; fill-opacity:0.0; 
stroke:#000000; stroke-width:39.3701; stroke-opacity:1; 
stroke-linecap:round; stroke-linejoin:round;">
</g>
<g style="fill:#000000; fill-opacity:0.0; 
stroke:#000000; stroke-width:59.0551; stroke-opacity:1; 
stroke-linecap:round; stroke-linejoin:round;">
<path d="M3937 62992
L4724 62992
" />
</g>
<g style="fill:#000000; fill-opacity:0.0; 
stroke:#000000; stroke-width:39.3701; stroke-opacity:1; 
stroke-linecap:round; stroke-linejoin:round;">
</g>
<g style="fill:#000000; fill-opacity:0.0; 
stroke:#000000; stroke-width:59.0551; stroke-opacity:1; 
stroke-linecap:round; stroke-linejoin:round;">
<path d="M4208 13864
L4452 13864
" />
<path d="M4160 14011
L4330 13499
L4501 14011
" />
</g>
<g style="fill:#000000; fill-opacity:0.0; 
stroke:#000000; stroke-width:39.3701; stroke-opacity:1; 
stroke-linecap:round; stroke-linejoin:round;">
</g>
<g style="fill:#000000; fill-opacity:0.0; 
stroke:#000000; stroke-width:59.0551; stroke-opacity:1; 
stroke-linecap:round; stroke-linejoin:round;">
<path d="M4367 33428
L4440 33452
L4464 33476
L4489 33525
L4489 33598
L4464 33647
L4440 33671
L4391 33696
L4196 33696
L4196 33184
L4367 33184
L4416 33208
L4440 33233
L4464 33281
L4464 33330
L4440 33379
L4416 33403
L4367 33428
L4196 33428
" />
</g>
<g style="fill:#000000; fill-opacity:0.0; 
stroke:#000000; stroke-width:39.3701; stroke-opacity:1; 
stroke-linecap:round; stroke-linejoin:round;">
</g>
<g style="fill:#000000; fill-opacity:0.0; 
stroke:#000000; stroke-width:59.0551; stroke-opacity:1; 
stroke-linecap:round; stroke-linejoin:round;">
<path d="M4489 53332
L4464 53356
L4391 53381
L4342 53381
L4269 53356
L4221 53308
L4196 53259
L4172 53161
L4172 53088
L4196 52991
L4221 52942
L4269 52893
L4342 52869
L4391 52869
L4464 52893
L4489 52918
" />
</g>
<g style="fill:#000000; fill-opacity:0.0; 
stroke:#000000; stroke-width:39.3701; stroke-opacity:1; 
stroke-linecap:round; stroke-linejoin:round;">
</g>
<g style="fill:#000000; fill-opacity:0.0; 
stroke:#000000; stroke-width:59.0551; stroke-opacity:1; 
stroke-linecap:round; stroke-linejoin:round;">
<path d="M4196 73066
L4196 72554
L4318 72554
L4391 72578
L4440 72627
L4464 72676
L4489 72773
L4489 72846
L4464 72944
L4440 72993
L4391 73041
L4318 73066
L4196 73066
" />
</g>
<g style="fill:#000000; fill-opacity:0.0; 
stroke:#000000; stroke-width:39.3701; stroke-opacity:1; 
stroke-linecap:round; stroke-linejoin:round;">
</g>
<g style="fill:#000000; fill-opacity:0.0; 
stroke:#000000; stroke-width:59.0551; stroke-opacity:1; 
stroke-linecap:round; stroke-linejoin:round;">
<path d="M112992 23622
L112205 23622
" />
</g>
<g style="fill:#000000; fill-opacity:0.0; 
stroke:#000000; stroke-width:39.3701; stroke-opacity:1; 
stroke-linecap:round; stroke-linejoin:round;">
</g>
<g style="fill:#000000; fill-opacity:0.0; 
stroke:#000000; stroke-width:59.0551; stroke-opacity:1; 
stroke-linecap:round; stroke-linejoin:round;">
<path d="M112992 43307
L112205 43307
" />
</g>
<g style="fill:#000000; fill-opacity:0.0; 
stroke:#000000; stroke-width:39.3701; stroke-opacity:1; 
stroke-linecap:round; stroke-linejoin:round;">
</g>
<g style="fill:#000000; fill-opacity:0.0; 
stroke:#000000; stroke-width:59.0551; stroke-opacity:1; 
stroke-linecap:round; stroke-linejoin:round;">
<path d="M112992 62992
L112205 62992
" />
</g>
<g style="fill:#000000; fill-opacity:0.0; 
stroke:#000000; stroke-width:39.3701; stroke-opacity:1; 
stroke-linecap:round; stroke-linejoin:round;">
</g>
<g style="fill:#000000; fill-opacity:0.0; 
stroke:#000000; stroke-width:59.0551; stroke-opacity:1; 
stroke-linecap:round; stroke-linejoin:round;">
<path d="M112477 13864
L112721 13864
" />
<path d="M112428 14011
L112599 13499
L112769 14011
" />
</g>
<g style="fill:#000000; fill-opacity:0.0; 
stroke:#000000; stroke-width:39.3701; stroke-opacity:1; 
stroke-linecap:round; stroke-linejoin:round;">
</g>
<g style="fill:#000000; fill-opacity:0.0; 
stroke:#000000; stroke-width:59.0551; stroke-opacity:1; 
stroke-linecap:round; stroke-linejoin:round;">
<path d="M112635 33428
L112708 33452
L112733 33476
L112757 33525
L112757 33598
L112733 33647
L112708 33671
L112660 33696
L112465 33696
L112465 33184
L112635 33184
L112684 33208
L112708 33233
L112733 33281
L112733 33330
L112708 33379
L112684 33403
L112635 33428
L112465 33428
" />
</g>
<g style="fill:#000000; fill-opacity:0.0; 
stroke:#000000; stroke-width:39.3701; stroke-opacity:1; 
stroke-linecap:round; stroke-linejoin:round;">
</g>
<g style="fill:#000000; fill-opacity:0.0; 
stroke:#000000; stroke-width:59.0551; stroke-opacity:1; 
stroke-linecap:round; stroke-linejoin:round;">
<path d="M112757 53332
L112733 53356
L112660 53381
L112611 53381
L112538 53356
L112489 53308
L112465 53259
L112440 53161
L112440 53088
L112465 52991
L112489 52942
L112538 52893
L112611 52869
L112660 52869
L112733 52893
L112757 52918
" />
</g>
<g style="fill:#000000; fill-opacity:0.0; 
stroke:#000000; stroke-width:39.3701; stroke-opacity:1; 
stroke-linecap:round; stroke-linejoin:round;">
</g>
<g style="fill:#000000; fill-opacity:0.0; 
stroke:#000000; stroke-width:59.0551; stroke-opacity:1; 
stroke-linecap:round; stroke-linejoin:round;">
<path d="M112465 73066
L112465 72554
L112587 72554
L112660 72578
L112708 72627
L112733 72676
L112757 72773
L112757 72846
L112733 72944
L112708 72993
L112660 73041
L112587 73066
L112465 73066
" />
</g>
<g style="fill:#000000; fill-opacity:0.0; 
stroke:#000000; stroke-width:39.3701; stroke-opacity:1; 
stroke-linecap:round; stroke-linejoin:round;">
</g>
<g style="fill:#000000; fill-opacity:0.0; 
stroke:#000000; stroke-width:59.0551; stroke-opacity:1; 
stroke-linecap:round; stroke-linejoin:round;">
<path d="M78881 76293
L78881 75703
L79022 75703
L79106 75731
L79162 75787
L79190 75843
L79219 75956
L79219 76040
L79190 76153
L79162 76209
L79106 76265
L79022 76293
L78881 76293
" />
<path d="M79725 76293
L79725 75984
L79697 75928
L79640 75899
L79528 75899
L79472 75928
" />
<path d="M79725 76265
L79669 76293
L79528 76293
L79472 76265
L79444 76209
L79444 76153
L79472 76096
L79528 76068
L79669 76068
L79725 76040
" />
<path d="M79922 75899
L80147 75899
" />
<path d="M80006 75703
L80006 76209
L80034 76265
L80090 76293
L80147 76293
" />
<path d="M80568 76265
L80512 76293
L80400 76293
L80343 76265
L80315 76209
L80315 75984
L80343 75928
L80400 75899
L80512 75899
L80568 75928
L80597 75984
L80597 76040
L80315 76096
" />
<path d="M80850 76237
L80878 76265
L80850 76293
L80822 76265
L80850 76237
L80850 76293
" />
<path d="M80850 75928
L80878 75956
L80850 75984
L80822 75956
L80850 75928
L80850 75984
" />
</g>
<g style="fill:#000000; fill-opacity:0.0; 
stroke:#000000; stroke-width:39.3701; stroke-opacity:1; 
stroke-linecap:round; stroke-linejoin:round;">
</g>
<g style="fill:#000000; fill-opacity:0.0; 
stroke:#000000; stroke-width:59.0551; stroke-opacity:1; 
stroke-linecap:round; stroke-linejoin:round;">
<path d="M69685 76577
L112205 76577
" />
</g>
<g style="fill:#000000; fill-opacity:0.0; 
stroke:#000000; stroke-width:39.3701; stroke-opacity:1; 
stroke-linecap:round; stroke-linejoin:round;">
</g>
<g style="fill:#000000; fill-opacity:0.0; 
stroke:#000000; stroke-width:59.0551; stroke-opacity:1; 
stroke-linecap:round; stroke-linejoin:round;">
<path d="M70220 77395
L70220 76805
" />
<path d="M70557 77395
L70304 77058
" />
<path d="M70557 76805
L70220 77142
" />
<path d="M70810 77395
L70810 77002
" />
<path d="M70810 76805
L70782 76833
L70810 76861
L70838 76833
L70810 76805
L70810 76861
" />
<path d="M71429 77339
L71401 77367
L71316 77395
L71260 77395
L71176 77367
L71120 77311
L71091 77255
L71063 77142
L71063 77058
L71091 76946
L71120 76889
L71176 76833
L71260 76805
L71316 76805
L71401 76833
L71429 76861
" />
<path d="M71935 77395
L71935 77086
L71907 77030
L71851 77002
L71738 77002
L71682 77030
" />
<path d="M71935 77367
L71879 77395
L71738 77395
L71682 77367
L71654 77311
L71654 77255
L71682 77199
L71738 77171
L71879 77171
L71935 77142
" />
<path d="M72469 77395
L72469 76805
" />
<path d="M72469 77367
L72413 77395
L72301 77395
L72244 77367
L72216 77339
L72188 77283
L72188 77114
L72216 77058
L72244 77030
L72301 77002
L72413 77002
L72469 77030
" />
<path d="M73201 77086
L73397 77086
" />
<path d="M73482 77395
L73201 77395
L73201 76805
L73482 76805
" />
<path d="M73735 77339
L73763 77367
L73735 77395
L73707 77367
L73735 77339
L73735 77395
" />
<path d="M74016 77395
L74016 76805
L74157 76805
L74241 76833
L74297 76889
L74325 76946
L74354 77058
L74354 77142
L74325 77255
L74297 77311
L74241 77367
L74157 77395
L74016 77395
" />
<path d="M74607 77339
L74635 77367
L74607 77395
L74579 77367
L74607 77339
L74607 77395
" />
<path d="M74860 77227
L75141 77227
" />
<path d="M74804 77395
L75000 76805
L75197 77395
" />
<path d="M75394 77339
L75422 77367
L75394 77395
L75366 77367
L75394 77339
L75394 77395
" />
<path d="M76575 77395
L76575 76805
" />
<path d="M76631 77171
L76800 77395
" />
<path d="M76800 77002
L76575 77227
" />
<path d="M77053 77395
L77053 77002
" />
<path d="M77053 76805
L77025 76833
L77053 76861
L77081 76833
L77053 76805
L77053 76861
" />
<path d="M77588 77367
L77531 77395
L77419 77395
L77363 77367
L77334 77339
L77306 77283
L77306 77114
L77334 77058
L77363 77030
L77419 77002
L77531 77002
L77588 77030
" />
<path d="M78094 77395
L78094 77086
L78066 77030
L78009 77002
L77897 77002
L77841 77030
" />
<path d="M78094 77367
L78037 77395
L77897 77395
L77841 77367
L77813 77311
L77813 77255
L77841 77199
L77897 77171
L78037 77171
L78094 77142
" />
<path d="M78628 77395
L78628 76805
" />
<path d="M78628 77367
L78572 77395
L78459 77395
L78403 77367
L78375 77339
L78347 77283
L78347 77114
L78375 77058
L78403 77030
L78459 77002
L78572 77002
L78628 77030
" />
<path d="M79612 77002
L79612 77395
" />
<path d="M79472 76777
L79331 77199
L79697 77199
" />
<path d="M79922 77339
L79950 77367
L79922 77395
L79894 77367
L79922 77339
L79922 77395
" />
<path d="M80315 76805
L80372 76805
L80428 76833
L80456 76861
L80484 76917
L80512 77030
L80512 77171
L80484 77283
L80456 77339
L80428 77367
L80372 77395
L80315 77395
L80259 77367
L80231 77339
L80203 77283
L80175 77171
L80175 77030
L80203 76917
L80231 76861
L80259 76833
L80315 76805
" />
<path d="M80765 77339
L80793 77367
L80765 77395
L80737 77367
L80765 77339
L80765 77395
" />
<path d="M81018 76861
L81046 76833
L81103 76805
L81243 76805
L81300 76833
L81328 76861
L81356 76917
L81356 76974
L81328 77058
L80990 77395
L81356 77395
" />
<path d="M81609 77171
L82059 77171
" />
<path d="M82312 77367
L82368 77395
L82481 77395
L82537 77367
L82565 77311
L82565 77283
L82537 77227
L82481 77199
L82396 77199
L82340 77171
L82312 77114
L82312 77086
L82340 77030
L82396 77002
L82481 77002
L82537 77030
" />
<path d="M82734 77002
L82959 77002
" />
<path d="M82818 76805
L82818 77311
L82846 77367
L82903 77395
L82959 77395
" />
<path d="M83409 77395
L83409 77086
L83381 77030
L83324 77002
L83212 77002
L83156 77030
" />
<path d="M83409 77367
L83352 77395
L83212 77395
L83156 77367
L83127 77311
L83127 77255
L83156 77199
L83212 77171
L83352 77171
L83409 77142
" />
<path d="M83690 77395
L83690 76805
" />
<path d="M83690 77030
L83746 77002
L83859 77002
L83915 77030
L83943 77058
L83971 77114
L83971 77283
L83943 77339
L83915 77367
L83859 77395
L83746 77395
L83690 77367
" />
<path d="M84309 77395
L84252 77367
L84224 77311
L84224 76805
" />
<path d="M84759 77367
L84702 77395
L84590 77395
L84534 77367
L84505 77311
L84505 77086
L84534 77030
L84590 77002
L84702 77002
L84759 77030
L84787 77086
L84787 77142
L84505 77199
" />
</g>
<g style="fill:#000000; fill-opacity:0.0; 
stroke:#000000; stroke-width:39.3701; stroke-opacity:1; 
stroke-linecap:round; stroke-linejoin:round;">
</g>
<g style="fill:#000000; fill-opacity:0.0; 
stroke:#000000; stroke-width:59.0551; stroke-opacity:1; 
stroke-linecap:round; stroke-linejoin:round;">
<path d="M69685 75396
L112205 75396
" />
</g>
<g style="fill:#000000; fill-opacity:0.0; 
stroke:#000000; stroke-width:39.3701; stroke-opacity:1; 
stroke-linecap:round; stroke-linejoin:round;">
</g>
<g style="fill:#000000; fill-opacity:0.0; 
stroke:#000000; stroke-width:118.11; stroke-opacity:1; 
stroke-linecap:round; stroke-linejoin:round;">
<path d="M104022 76293
L103825 76012
" />
<path d="M103684 76293
L103684 75703
L103909 75703
L103965 75731
L103994 75759
L104022 75815
L104022 75899
L103994 75956
L103965 75984
L103909 76012
L103684 76012
" />
<path d="M104500 76265
L104444 76293
L104331 76293
L104275 76265
L104247 76209
L104247 75984
L104275 75928
L104331 75899
L104444 75899
L104500 75928
L104528 75984
L104528 76040
L104247 76096
" />
<path d="M104725 75899
L104865 76293
L105006 75899
" />
<path d="M105231 76237
L105259 76265
L105231 76293
L105203 76265
L105231 76237
L105231 76293
" />
<path d="M105231 75928
L105259 75956
L105231 75984
L105203 75956
L105231 75928
L105231 75984
" />
</g>
<g style="fill:#000000; fill-opacity:0.0; 
stroke:#000000; stroke-width:39.3701; stroke-opacity:1; 
stroke-linecap:round; stroke-linejoin:round;">
</g>
<g style="fill:#000000; fill-opacity:0.0; 
stroke:#000000; stroke-width:59.0551; stroke-opacity:1; 
stroke-linecap:round; stroke-linejoin:round;">
<path d="M70192 76265
L70276 76293
L70417 76293
L70473 76265
L70501 76237
L70529 76181
L70529 76124
L70501 76068
L70473 76040
L70417 76012
L70304 75984
L70248 75956
L70220 75928
L70192 75871
L70192 75815
L70220 75759
L70248 75731
L70304 75703
L70445 75703
L70529 75731
" />
<path d="M70782 76293
L70782 75899
" />
<path d="M70782 75703
L70754 75731
L70782 75759
L70810 75731
L70782 75703
L70782 75759
" />
<path d="M71007 75899
L71316 75899
L71007 76293
L71316 76293
" />
<path d="M71766 76265
L71710 76293
L71598 76293
L71541 76265
L71513 76209
L71513 75984
L71541 75928
L71598 75899
L71710 75899
L71766 75928
L71795 75984
L71795 76040
L71513 76096
" />
<path d="M72048 76237
L72076 76265
L72048 76293
L72019 76265
L72048 76237
L72048 76293
" />
<path d="M72048 75928
L72076 75956
L72048 75984
L72019 75956
L72048 75928
L72048 75984
" />
<path d="M72751 76124
L73032 76124
" />
<path d="M72694 76293
L72891 75703
L73088 76293
" />
<path d="M73538 75899
L73538 76293
" />
<path d="M73397 75674
L73257 76096
L73622 76096
" />
</g>
<g style="fill:#000000; fill-opacity:0.0; 
stroke:#000000; stroke-width:39.3701; stroke-opacity:1; 
stroke-linecap:round; stroke-linejoin:round;">
</g>
<g style="fill:#000000; fill-opacity:0.0; 
stroke:#000000; stroke-width:59.0551; stroke-opacity:1; 
stroke-linecap:round; stroke-linejoin:round;">
<path d="M103684 77395
L103684 76805
" />
<path d="M104219 77395
L104219 76805
" />
<path d="M104219 77367
L104162 77395
L104050 77395
L103994 77367
L103965 77339
L103937 77283
L103937 77114
L103965 77058
L103994 77030
L104050 77002
L104162 77002
L104219 77030
" />
<path d="M104500 77339
L104528 77367
L104500 77395
L104472 77367
L104500 77339
L104500 77395
" />
<path d="M104500 77030
L104528 77058
L104500 77086
L104472 77058
L104500 77030
L104500 77086
" />
<path d="M105540 77395
L105203 77395
" />
<path d="M105372 77395
L105372 76805
L105315 76889
L105259 76946
L105203 76974
" />
<path d="M106215 76777
L105709 77536
" />
<path d="M106721 77395
L106384 77395
" />
<path d="M106553 77395
L106553 76805
L106496 76889
L106440 76946
L106384 76974
" />
</g>
<g style="fill:#000000; fill-opacity:0.0; 
stroke:#000000; stroke-width:39.3701; stroke-opacity:1; 
stroke-linecap:round; stroke-linejoin:round;">
</g>
<g style="fill:#000000; fill-opacity:0.0; 
stroke:#000000; stroke-width:59.0551; stroke-opacity:1; 
stroke-linecap:round; stroke-linejoin:round;">
<path d="M69685 73821
L112205 73821
" />
</g>
<g style="fill:#000000; fill-opacity:0.0; 
stroke:#000000; stroke-width:39.3701; stroke-opacity:1; 
stroke-linecap:round; stroke-linejoin:round;">
</g>
<g style="fill:#000000; fill-opacity:0.0; 
stroke:#000000; stroke-width:157.48; stroke-opacity:1; 
stroke-linecap:round; stroke-linejoin:round;">
<path d="M70257 74099
L70707 74099
" />
<path d="M70384 74886
L70482 74099
" />
<path d="M70871 74886
L70937 74361
" />
<path d="M70970 74099
L70927 74136
L70960 74174
L71002 74136
L70970 74099
L70960 74174
" />
<path d="M71199 74361
L71499 74361
" />
<path d="M71345 74099
L71260 74774
L71288 74849
L71359 74886
L71434 74886
" />
<path d="M71809 74886
L71738 74849
L71710 74774
L71795 74099
" />
<path d="M72413 74849
L72334 74886
L72184 74886
L72113 74849
L72085 74774
L72123 74474
L72169 74399
L72249 74361
L72399 74361
L72469 74399
L72498 74474
L72488 74549
L72104 74624
" />
<path d="M72793 74811
L72826 74849
L72783 74886
L72751 74849
L72793 74811
L72783 74886
" />
<path d="M72844 74399
L72877 74436
L72835 74474
L72802 74436
L72844 74399
L72835 74474
" />
</g>
<g style="fill:#000000; fill-opacity:0.0; 
stroke:#000000; stroke-width:39.3701; stroke-opacity:1; 
stroke-linecap:round; stroke-linejoin:round;">
</g>
<g style="fill:#000000; fill-opacity:0.0; 
stroke:#000000; stroke-width:59.0551; stroke-opacity:1; 
stroke-linecap:round; stroke-linejoin:round;">
<path d="M70417 73070
L70220 73070
" />
<path d="M70220 73380
L70220 72789
L70501 72789
" />
<path d="M70726 73380
L70726 72986
" />
<path d="M70726 72789
L70698 72817
L70726 72845
L70754 72817
L70726 72789
L70726 72845
" />
<path d="M71091 73380
L71035 73352
L71007 73295
L71007 72789
" />
<path d="M71541 73352
L71485 73380
L71373 73380
L71316 73352
L71288 73295
L71288 73070
L71316 73014
L71373 72986
L71485 72986
L71541 73014
L71570 73070
L71570 73127
L71288 73183
" />
<path d="M71823 73323
L71851 73352
L71823 73380
L71795 73352
L71823 73323
L71823 73380
" />
<path d="M71823 73014
L71851 73042
L71823 73070
L71795 73042
L71823 73014
L71823 73070
" />
<path d="M72779 73352
L72723 73380
L72610 73380
L72554 73352
L72526 73295
L72526 73070
L72554 73014
L72610 72986
L72723 72986
L72779 73014
L72807 73070
L72807 73127
L72526 73183
" />
<path d="M73032 73352
L73088 73380
L73201 73380
L73257 73352
L73285 73295
L73285 73267
L73257 73211
L73201 73183
L73116 73183
L73060 73155
L73032 73099
L73032 73070
L73060 73014
L73116 72986
L73201 72986
L73257 73014
" />
<path d="M73538 72986
L73538 73577
" />
<path d="M73538 73014
L73594 72986
L73707 72986
L73763 73014
L73791 73042
L73819 73099
L73819 73267
L73791 73323
L73763 73352
L73707 73380
L73594 73380
L73538 73352
" />
<path d="M74072 73155
L74522 73155
" />
<path d="M74747 72986
L74860 73380
L74972 73099
L75085 73380
L75197 72986
" />
<path d="M75394 73352
L75450 73380
L75563 73380
L75619 73352
L75647 73295
L75647 73267
L75619 73211
L75563 73183
L75478 73183
L75422 73155
L75394 73099
L75394 73070
L75422 73014
L75478 72986
L75563 72986
L75619 73014
" />
<path d="M75872 72845
L75900 72817
L75956 72789
L76097 72789
L76153 72817
L76181 72845
L76210 72902
L76210 72958
L76181 73042
L75844 73380
L76210 73380
" />
<path d="M76547 73042
L76491 73014
L76463 72986
L76435 72930
L76435 72902
L76463 72845
L76491 72817
L76547 72789
L76660 72789
L76716 72817
L76744 72845
L76772 72902
L76772 72930
L76744 72986
L76716 73014
L76660 73042
L76547 73042
L76491 73070
L76463 73099
L76435 73155
L76435 73267
L76463 73323
L76491 73352
L76547 73380
L76660 73380
L76716 73352
L76744 73323
L76772 73267
L76772 73155
L76744 73099
L76716 73070
L76660 73042
" />
<path d="M77334 73380
L76997 73380
" />
<path d="M77166 73380
L77166 72789
L77109 72874
L77053 72930
L76997 72958
" />
<path d="M77559 72845
L77588 72817
L77644 72789
L77784 72789
L77841 72817
L77869 72845
L77897 72902
L77897 72958
L77869 73042
L77531 73380
L77897 73380
" />
<path d="M78150 73323
L78178 73352
L78150 73380
L78122 73352
L78150 73323
L78150 73380
" />
<path d="M78431 73380
L78431 72789
" />
<path d="M78487 73155
L78656 73380
" />
<path d="M78656 72986
L78431 73211
" />
<path d="M78909 73380
L78909 72986
" />
<path d="M78909 72789
L78881 72817
L78909 72845
L78937 72817
L78909 72789
L78909 72845
" />
<path d="M79444 73352
L79387 73380
L79275 73380
L79219 73352
L79190 73323
L79162 73267
L79162 73099
L79190 73042
L79219 73014
L79275 72986
L79387 72986
L79444 73014
" />
<path d="M79950 73380
L79950 73070
L79922 73014
L79865 72986
L79753 72986
L79697 73014
" />
<path d="M79950 73352
L79894 73380
L79753 73380
L79697 73352
L79669 73295
L79669 73239
L79697 73183
L79753 73155
L79894 73155
L79950 73127
" />
<path d="M80484 73380
L80484 72789
" />
<path d="M80484 73352
L80428 73380
L80315 73380
L80259 73352
L80231 73323
L80203 73267
L80203 73099
L80231 73042
L80259 73014
L80315 72986
L80428 72986
L80484 73014
" />
<path d="M80625 73436
L81075 73436
" />
<path d="M81215 72986
L81215 73577
" />
<path d="M81215 73014
L81271 72986
L81384 72986
L81440 73014
L81468 73042
L81496 73099
L81496 73267
L81468 73323
L81440 73352
L81384 73380
L81271 73380
L81215 73352
" />
<path d="M82003 73352
L81946 73380
L81834 73380
L81778 73352
L81750 73323
L81721 73267
L81721 73099
L81750 73042
L81778 73014
L81834 72986
L81946 72986
L82003 73014
" />
<path d="M82256 73380
L82256 72789
" />
<path d="M82256 73014
L82312 72986
L82424 72986
L82481 73014
L82509 73042
L82537 73099
L82537 73267
L82509 73323
L82481 73352
L82424 73380
L82312 73380
L82256 73352
" />
</g>
<g style="fill:#000000; fill-opacity:0.0; 
stroke:#000000; stroke-width:39.3701; stroke-opacity:1; 
stroke-linecap:round; stroke-linejoin:round;">
</g>
<g style="fill:#000000; fill-opacity:0.0; 
stroke:#000000; stroke-width:59.0551; stroke-opacity:1; 
stroke-linecap:round; stroke-linejoin:round;">
<path d="M69685 71459
L112205 71459
" />
</g>
<g style="fill:#000000; fill-opacity:0.0; 
stroke:#000000; stroke-width:39.3701; stroke-opacity:1; 
stroke-linecap:round; stroke-linejoin:round;">
</g>
<g style="fill:#000000; fill-opacity:0.0; 
stroke:#000000; stroke-width:59.0551; stroke-opacity:1; 
stroke-linecap:round; stroke-linejoin:round;">
<path d="M70192 72289
L70276 72317
L70417 72317
L70473 72289
L70501 72260
L70529 72204
L70529 72148
L70501 72092
L70473 72064
L70417 72036
L70304 72007
L70248 71979
L70220 71951
L70192 71895
L70192 71839
L70220 71782
L70248 71754
L70304 71726
L70445 71726
L70529 71754
" />
<path d="M70782 72317
L70782 71726
" />
<path d="M71035 72317
L71035 72007
L71007 71951
L70951 71923
L70867 71923
L70810 71951
L70782 71979
" />
<path d="M71541 72289
L71485 72317
L71373 72317
L71316 72289
L71288 72232
L71288 72007
L71316 71951
L71373 71923
L71485 71923
L71541 71951
L71570 72007
L71570 72064
L71288 72120
" />
<path d="M72048 72289
L71991 72317
L71879 72317
L71823 72289
L71795 72232
L71795 72007
L71823 71951
L71879 71923
L71991 71923
L72048 71951
L72076 72007
L72076 72064
L71795 72120
" />
<path d="M72244 71923
L72469 71923
" />
<path d="M72329 71726
L72329 72232
L72357 72289
L72413 72317
L72469 72317
" />
<path d="M72666 72260
L72694 72289
L72666 72317
L72638 72289
L72666 72260
L72666 72317
" />
<path d="M72666 71951
L72694 71979
L72666 72007
L72638 71979
L72666 71951
L72666 72007
" />
</g>
<g style="fill:#000000; fill-opacity:0.0; 
stroke:#000000; stroke-width:39.3701; stroke-opacity:1; 
stroke-linecap:round; stroke-linejoin:round;">
</g>
<g style="fill:#000000; fill-opacity:0.0; 
stroke:#000000; stroke-width:59.0551; stroke-opacity:1; 
stroke-linecap:round; stroke-linejoin:round;">
<path d="M77559 75396
L77559 76577
" />
</g>
<g style="fill:#000000; fill-opacity:0.0; 
stroke:#000000; stroke-width:39.3701; stroke-opacity:1; 
stroke-linecap:round; stroke-linejoin:round;">
</g>
<g style="fill:#000000; fill-opacity:0.0; 
stroke:#000000; stroke-width:59.0551; stroke-opacity:1; 
stroke-linecap:round; stroke-linejoin:round;">
<path d="M102756 75396
L102756 77955
" />
</g>
<g style="fill:#840000; fill-opacity:0.0; 
stroke:#840000; stroke-width:59.0551; stroke-opacity:1; 
stroke-linecap:round; stroke-linejoin:round;">
</g>
<g style="fill:#840000; fill-opacity:0.0; 
stroke:#840000; stroke-width:0; stroke-opacity:1; 
stroke-linecap:round; stroke-linejoin:round;">
</g>
<g style="fill:#840000; fill-opacity:1.0; 
stroke:#840000; stroke-width:0; stroke-opacity:1; 
stroke-linecap:round; stroke-linejoin:round;">
<polyline style="fill-rule:evenodd;"
points="32696,16358
32696,15925
33681,15925
33681,16358
32696,16358
" /> 
</g>
<g style="fill:#840000; fill-opacity:1.0; 
stroke:#840000; stroke-width:433.071; stroke-opacity:1; 
stroke-linecap:round; stroke-linejoin:round;">
</g>
<g style="fill:#840000; fill-opacity:0.0; 
stroke:#840000; stroke-width:433.071; stroke-opacity:1; 
stroke-linecap:round; stroke-linejoin:round;">
<path d="M32913 16929
L33464 16929
" />
<path d="M32913 17716
L33464 17716
" />
<path d="M32913 18503
L33464 18503
" />
<path d="M32913 19291
L33464 19291
" />
<path d="M32913 20078
L33464 20078
" />
<path d="M32913 20866
L33464 20866
" />
<path d="M32913 21653
L33464 21653
" />
<path d="M38976 21653
L39527 21653
" />
<path d="M38937 20866
L39488 20866
" />
<path d="M38976 20078
L39527 20078
" />
<path d="M38976 19291
L39527 19291
" />
<path d="M38976 18503
L39527 18503
" />
<path d="M38976 17716
L39527 17716
" />
<path d="M38976 16929
L39527 16929
" />
<path d="M38976 16141
L39527 16141
" />
</g>
<g style="fill:#840000; fill-opacity:1.0; 
stroke:#840000; stroke-width:0; stroke-opacity:1; 
stroke-linecap:round; stroke-linejoin:round;">
<circle cx="47637.8" cy="18503.9" r="334.646" /> 
</g>
<g style="fill:#840000; fill-opacity:1.0; 
stroke:#840000; stroke-width:39.3701; stroke-opacity:1; 
stroke-linecap:round; stroke-linejoin:round;">
</g>
<g style="fill:#840000; fill-opacity:1.0; 
stroke:#840000; stroke-width:0; stroke-opacity:1; 
stroke-linecap:round; stroke-linejoin:round;">
<polyline style="fill-rule:evenodd;"
points="45334,18838
45334,18169
46003,18169
46003,18838
45334,18838
" /> 
<polyline style="fill-rule:evenodd;"
points="30295,22785
30295,22490
30767,22490
30767,22785
30295,22785
" /> 
<polyline style="fill-rule:evenodd;"
points="31043,22785
31043,22490
31515,22490
31515,22785
31043,22785
" /> 
<polyline style="fill-rule:evenodd;"
points="30256,21692
30256,21220
30728,21220
30728,21692
30256,21692
" /> 
<polyline style="fill-rule:evenodd;"
points="31082,21692
31082,21220
31554,21220
31554,21692
31082,21692
" /> 
<polyline style="fill-rule:evenodd;"
points="52066,23129
51082,23129
51082,22145
52066,22145
52066,23129
" /> 
<circle cx="51574.8" cy="20669.3" r="492.126" /> 
</g>
<g style="fill:#840000; fill-opacity:1.0; 
stroke:#840000; stroke-width:39.3701; stroke-opacity:1; 
stroke-linecap:round; stroke-linejoin:round;">
</g>
<g style="fill:#840000; fill-opacity:1.0; 
stroke:#840000; stroke-width:669.291; stroke-opacity:1; 
stroke-linecap:round; stroke-linejoin:round;">
</g>
<g style="fill:#840000; fill-opacity:0.0; 
stroke:#840000; stroke-width:669.291; stroke-opacity:1; 
stroke-linecap:round; stroke-linejoin:round;">
<path d="M28740 20669
L27952 20669
" />
<path d="M28740 19685
L27952 19685
" />
<path d="M28740 18700
L27952 18700
" />
</g>
<g style="fill:#840000; fill-opacity:0.0; 
stroke:#840000; stroke-width:0; stroke-opacity:1; 
stroke-linecap:round; stroke-linejoin:round;">
</g>
<g style="fill:#840000; fill-opacity:1.0; 
stroke:#840000; stroke-width:0; stroke-opacity:1; 
stroke-linecap:round; stroke-linejoin:round;">
<polyline style="fill-rule:evenodd;"
points="45722,14757
46402,14757
46402,15557
45722,15557
45722,14757
" /> 
</g>
<g style="fill:#840000; fill-opacity:1.0; 
stroke:#840000; stroke-width:680; stroke-opacity:1; 
stroke-linecap:round; stroke-linejoin:round;">
</g>
<g style="fill:#840000; fill-opacity:0.0; 
stroke:#840000; stroke-width:680; stroke-opacity:1; 
stroke-linecap:round; stroke-linejoin:round;">
<path d="M45062 15097
L45062 15217
" />
<path d="M44062 15097
L44062 15217
" />
<path d="M43062 15097
L43062 15217
" />
<path d="M42062 15097
L42062 15217
" />
<path d="M41062 15097
L41062 15217
" />
</g>
<g style="fill:#840000; fill-opacity:0.0; 
stroke:#840000; stroke-width:0; stroke-opacity:1; 
stroke-linecap:round; stroke-linejoin:round;">
</g>
<g style="fill:#840000; fill-opacity:1.0; 
stroke:#840000; stroke-width:0; stroke-opacity:1; 
stroke-linecap:round; stroke-linejoin:round;">
<polyline style="fill-rule:evenodd;"
points="36954,24612
36274,24612
36274,23812
36954,23812
36954,24612
" /> 
</g>
<g style="fill:#840000; fill-opacity:1.0; 
stroke:#840000; stroke-width:680; stroke-opacity:1; 
stroke-linecap:round; stroke-linejoin:round;">
</g>
<g style="fill:#840000; fill-opacity:0.0; 
stroke:#840000; stroke-width:680; stroke-opacity:1; 
stroke-linecap:round; stroke-linejoin:round;">
<path d="M37614 24272
L37614 24152
" />
<path d="M38614 24272
L38614 24152
" />
<path d="M39614 24272
L39614 24152
" />
<path d="M40614 24272
L40614 24152
" />
<path d="M41614 24272
L41614 24152
" />
</g>
<g style="fill:#840000; fill-opacity:0.0; 
stroke:#840000; stroke-width:0; stroke-opacity:1; 
stroke-linecap:round; stroke-linejoin:round;">
</g>
<g style="fill:#840000; fill-opacity:1.0; 
stroke:#840000; stroke-width:0; stroke-opacity:1; 
stroke-linecap:round; stroke-linejoin:round;">
<polyline style="fill-rule:evenodd;"
points="45570,24114
45570,23129
46555,23129
46555,24114
45570,24114
" /> 
<circle cx="48031.5" cy="23622" r="492.126" /> 
</g>
<g style="fill:#840000; fill-opacity:1.0; 
stroke:#840000; stroke-width:39.3701; stroke-opacity:1; 
stroke-linecap:round; stroke-linejoin:round;">
</g>
<g style="fill:#840000; fill-opacity:1.0; 
stroke:#840000; stroke-width:591; stroke-opacity:1; 
stroke-linecap:round; stroke-linejoin:round;">
</g>
<g style="fill:#840000; fill-opacity:0.0; 
stroke:#840000; stroke-width:591; stroke-opacity:1; 
stroke-linecap:round; stroke-linejoin:round;">
<path d="M44290 22834
L43897 22834
" />
<path d="M44290 23834
L43897 23834
" />
<path d="M44290 21834
L43897 21834
" />
</g>
<g style="fill:#840000; fill-opacity:0.0; 
stroke:#840000; stroke-width:0; stroke-opacity:1; 
stroke-linecap:round; stroke-linejoin:round;">
</g>
<g style="fill:#840000; fill-opacity:1.0; 
stroke:#840000; stroke-width:0; stroke-opacity:1; 
stroke-linecap:round; stroke-linejoin:round;">
<polyline style="fill-rule:evenodd;"
points="31574,18326
31574,18681
31102,18681
31102,18326
31574,18326
" /> 
<polyline style="fill-rule:evenodd;"
points="30708,18326
30708,18681
30236,18681
30236,18326
30708,18326
" /> 
<polyline style="fill-rule:evenodd;"
points="31574,19311
31574,19665
31102,19665
31102,19311
31574,19311
" /> 
<polyline style="fill-rule:evenodd;"
points="30708,19311
30708,19665
30236,19665
30236,19311
30708,19311
" /> 
<polyline style="fill-rule:evenodd;"
points="30236,20649
30236,20295
30708,20295
30708,20649
30236,20649
" /> 
<polyline style="fill-rule:evenodd;"
points="31102,20649
31102,20295
31574,20295
31574,20649
31102,20649
" /> 
<polyline style="fill-rule:evenodd;"
points="42007,20787
42007,21141
41535,21141
41535,20787
42007,20787
" /> 
<polyline style="fill-rule:evenodd;"
points="41141,20787
41141,21141
40669,21141
40669,20787
41141,20787
" /> 
<polyline style="fill-rule:evenodd;"
points="42007,19901
42007,20255
41535,20255
41535,19901
42007,19901
" /> 
<polyline style="fill-rule:evenodd;"
points="41141,19901
41141,20255
40669,20255
40669,19901
41141,19901
" /> 
<circle cx="31905.5" cy="17641.7" r="275" /> 
</g>
<g style="fill:#840000; fill-opacity:1.0; 
stroke:#840000; stroke-width:39.3701; stroke-opacity:1; 
stroke-linecap:round; stroke-linejoin:round;">
</g>
<g style="fill:#840000; fill-opacity:1.0; 
stroke:#840000; stroke-width:0; stroke-opacity:1; 
stroke-linecap:round; stroke-linejoin:round;">
<circle cx="29905.5" cy="17641.7" r="275" /> 
</g>
<g style="fill:#840000; fill-opacity:1.0; 
stroke:#840000; stroke-width:39.3701; stroke-opacity:1; 
stroke-linecap:round; stroke-linejoin:round;">
</g>
<g style="fill:#840000; fill-opacity:1.0; 
stroke:#840000; stroke-width:0; stroke-opacity:1; 
stroke-linecap:round; stroke-linejoin:round;">
<circle cx="31905.5" cy="14641.7" r="275" /> 
</g>
<g style="fill:#840000; fill-opacity:1.0; 
stroke:#840000; stroke-width:39.3701; stroke-opacity:1; 
stroke-linecap:round; stroke-linejoin:round;">
</g>
<g style="fill:#840000; fill-opacity:1.0; 
stroke:#840000; stroke-width:0; stroke-opacity:1; 
stroke-linecap:round; stroke-linejoin:round;">
<circle cx="29905.5" cy="14641.7" r="275" /> 
</g>
<g style="fill:#840000; fill-opacity:1.0; 
stroke:#840000; stroke-width:39.3701; stroke-opacity:1; 
stroke-linecap:round; stroke-linejoin:round;">
</g>
<g style="fill:#840000; fill-opacity:1.0; 
stroke:#840000; stroke-width:0; stroke-opacity:1; 
stroke-linecap:round; stroke-linejoin:round;">
<circle cx="43429.1" cy="16716.5" r="275" /> 
</g>
<g style="fill:#840000; fill-opacity:1.0; 
stroke:#840000; stroke-width:39.3701; stroke-opacity:1; 
stroke-linecap:round; stroke-linejoin:round;">
</g>
<g style="fill:#840000; fill-opacity:1.0; 
stroke:#840000; stroke-width:0; stroke-opacity:1; 
stroke-linecap:round; stroke-linejoin:round;">
<circle cx="43429.1" cy="18716.5" r="275" /> 
</g>
<g style="fill:#840000; fill-opacity:1.0; 
stroke:#840000; stroke-width:39.3701; stroke-opacity:1; 
stroke-linecap:round; stroke-linejoin:round;">
</g>
<g style="fill:#840000; fill-opacity:1.0; 
stroke:#840000; stroke-width:0; stroke-opacity:1; 
stroke-linecap:round; stroke-linejoin:round;">
<circle cx="40429.1" cy="16716.5" r="275" /> 
</g>
<g style="fill:#840000; fill-opacity:1.0; 
stroke:#840000; stroke-width:39.3701; stroke-opacity:1; 
stroke-linecap:round; stroke-linejoin:round;">
</g>
<g style="fill:#840000; fill-opacity:1.0; 
stroke:#840000; stroke-width:0; stroke-opacity:1; 
stroke-linecap:round; stroke-linejoin:round;">
<circle cx="40429.1" cy="18716.5" r="275" /> 
</g>
<g style="fill:#840000; fill-opacity:1.0; 
stroke:#840000; stroke-width:39.3701; stroke-opacity:1; 
stroke-linecap:round; stroke-linejoin:round;">
</g>
<g style="fill:#840000; fill-opacity:1.0; 
stroke:#840000; stroke-width:0; stroke-opacity:1; 
stroke-linecap:round; stroke-linejoin:round;">
<polyline style="fill-rule:evenodd;"
points="52474,17193
53274,17193
53274,18633
52474,18633
52474,17193
" /> 
<polyline style="fill-rule:evenodd;"
points="49874,17713
50674,17713
50674,18113
49874,18113
49874,17713
" /> 
<polyline style="fill-rule:evenodd;"
points="49874,18613
50674,18613
50674,19013
49874,19013
49874,18613
" /> 
<polyline style="fill-rule:evenodd;"
points="49874,16813
50674,16813
50674,17213
49874,17213
49874,16813
" /> 
<polyline style="fill-rule:evenodd;"
points="32116,23828
32116,23651
32687,23651
32687,23828
32116,23828
" /> 
<polyline style="fill-rule:evenodd;"
points="32116,24084
32116,23907
32687,23907
32687,24084
32116,24084
" /> 
<polyline style="fill-rule:evenodd;"
points="32116,24340
32116,24163
32687,24163
32687,24340
32116,24340
" /> 
<polyline style="fill-rule:evenodd;"
points="32116,24596
32116,24419
32687,24419
32687,24596
32116,24596
" /> 
<polyline style="fill-rule:evenodd;"
points="32116,24852
32116,24675
32687,24675
32687,24852
32116,24852
" /> 
<polyline style="fill-rule:evenodd;"
points="32116,25108
32116,24931
32687,24931
32687,25108
32116,25108
" /> 
<polyline style="fill-rule:evenodd;"
points="32116,25364
32116,25187
32687,25187
32687,25364
32116,25364
" /> 
<polyline style="fill-rule:evenodd;"
points="34438,25364
34438,25187
35009,25187
35009,25364
34438,25364
" /> 
<polyline style="fill-rule:evenodd;"
points="34438,25108
34438,24931
35009,24931
35009,25108
34438,25108
" /> 
<polyline style="fill-rule:evenodd;"
points="34438,24852
34438,24675
35009,24675
35009,24852
34438,24852
" /> 
<polyline style="fill-rule:evenodd;"
points="34438,24596
34438,24419
35009,24419
35009,24596
34438,24596
" /> 
<polyline style="fill-rule:evenodd;"
points="34438,24340
34438,24163
35009,24163
35009,24340
34438,24340
" /> 
<polyline style="fill-rule:evenodd;"
points="34438,24084
34438,23907
35009,23907
35009,24084
34438,24084
" /> 
<polyline style="fill-rule:evenodd;"
points="34438,23828
34438,23651
35009,23651
35009,23828
34438,23828
" /> 
</g>
<g style="fill:#000000; fill-opacity:1.0; 
stroke:#000000; stroke-width:0; stroke-opacity:1; 
stroke-linecap:round; stroke-linejoin:round;">
</g>
<g style="fill:#008484; fill-opacity:1.0; 
stroke:#008484; stroke-width:0; stroke-opacity:1; 
stroke-linecap:round; stroke-linejoin:round;">
</g>
<g style="fill:#008484; fill-opacity:0.0; 
stroke:#008484; stroke-width:0; stroke-opacity:1; 
stroke-linecap:round; stroke-linejoin:round;">
</g>
<g style="fill:#008484; fill-opacity:0.0; 
stroke:#008484; stroke-width:59.0551; stroke-opacity:1; 
stroke-linecap:round; stroke-linejoin:round;">
<path d="M35001 18574
L35133 18574
" />
<path d="M35189 18780
L35001 18780
L35001 18386
L35189 18386
" />
<path d="M35339 18761
L35395 18780
L35489 18780
L35526 18761
L35545 18742
L35564 18705
L35564 18667
L35545 18630
L35526 18611
L35489 18592
L35414 18574
L35376 18555
L35358 18536
L35339 18499
L35339 18461
L35358 18424
L35376 18405
L35414 18386
L35508 18386
L35564 18405
" />
<path d="M35733 18780
L35733 18386
L35883 18386
L35920 18405
L35939 18424
L35958 18461
L35958 18517
L35939 18555
L35920 18574
L35883 18592
L35733 18592
" />
<path d="M36182 18555
L36145 18536
L36126 18517
L36107 18480
L36107 18461
L36126 18424
L36145 18405
L36182 18386
L36257 18386
L36295 18405
L36314 18424
L36332 18461
L36332 18480
L36314 18517
L36295 18536
L36257 18555
L36182 18555
L36145 18574
L36126 18592
L36107 18630
L36107 18705
L36126 18742
L36145 18761
L36182 18780
L36257 18780
L36295 18761
L36314 18742
L36332 18705
L36332 18630
L36314 18592
L36295 18574
L36257 18555
" />
<path d="M36482 18424
L36501 18405
L36539 18386
L36632 18386
L36670 18405
L36689 18424
L36707 18461
L36707 18499
L36689 18555
L36464 18780
L36707 18780
" />
<path d="M37045 18386
L36970 18386
L36932 18405
L36914 18424
L36876 18480
L36857 18555
L36857 18705
L36876 18742
L36895 18761
L36932 18780
L37007 18780
L37045 18761
L37064 18742
L37082 18705
L37082 18611
L37064 18574
L37045 18555
L37007 18536
L36932 18536
L36895 18555
L36876 18574
L36857 18611
" />
<path d="M37420 18386
L37345 18386
L37307 18405
L37289 18424
L37251 18480
L37232 18555
L37232 18705
L37251 18742
L37270 18761
L37307 18780
L37382 18780
L37420 18761
L37439 18742
L37457 18705
L37457 18611
L37439 18574
L37420 18555
L37382 18536
L37307 18536
L37270 18555
L37251 18574
L37232 18611
" />
<path d="M45823 25951
L45808 25936
L45778 25891
L45763 25861
L45748 25816
L45733 25741
L45733 25681
L45748 25606
L45763 25561
L45778 25531
L45808 25486
L45823 25471
" />
<path d="M45943 25711
L46182 25711
" />
<path d="M46302 25951
L46317 25936
L46347 25891
L46362 25861
L46377 25816
L46392 25741
L46392 25681
L46377 25606
L46362 25561
L46347 25531
L46317 25486
L46302 25471
" />
<path d="M47626 25711
L47866 25711
" />
<path d="M47746 25831
L47746 25591
" />
<path d="M48166 25516
L48016 25516
L48001 25666
L48016 25651
L48046 25636
L48121 25636
L48151 25651
L48166 25666
L48181 25696
L48181 25771
L48166 25801
L48151 25816
L48121 25831
L48046 25831
L48016 25816
L48001 25801
" />
<path d="M48271 25516
L48376 25831
L48481 25516
" />
<path d="M41437 25633
L41418 25663
L41418 25708
L41437 25753
L41474 25783
L41511 25798
L41586 25813
L41643 25813
L41718 25798
L41755 25783
L41793 25753
L41811 25708
L41811 25678
L41793 25633
L41774 25618
L41643 25618
L41643 25678
" />
<path d="M41811 25483
L41418 25483
L41811 25303
L41418 25303
" />
<path d="M41811 25153
L41418 25153
L41418 25078
L41437 25033
L41474 25003
L41511 24988
L41586 24973
L41643 24973
L41718 24988
L41755 25003
L41793 25033
L41811 25078
L41811 25153
" />
<path d="M40827 25776
L40434 25776
L40434 25701
L40452 25656
L40490 25626
L40527 25611
L40602 25596
L40658 25596
L40733 25611
L40771 25626
L40808 25656
L40827 25701
L40827 25776
" />
<path d="M40827 25296
L40827 25476
" />
<path d="M40827 25386
L40434 25386
L40490 25416
L40527 25446
L40546 25476
" />
<path d="M40565 25026
L40827 25026
" />
<path d="M40415 25101
L40696 25176
L40696 24981
" />
<path d="M39843 25776
L39449 25776
L39449 25701
L39468 25656
L39505 25626
L39543 25611
L39618 25596
L39674 25596
L39749 25611
L39787 25626
L39824 25656
L39843 25701
L39843 25776
" />
<path d="M39843 25296
L39843 25476
" />
<path d="M39843 25386
L39449 25386
L39505 25416
L39543 25446
L39562 25476
" />
<path d="M39449 25191
L39449 24996
L39599 25101
L39599 25056
L39618 25026
L39637 25011
L39674 24996
L39768 24996
L39805 25011
L39824 25026
L39843 25056
L39843 25146
L39824 25176
L39805 25191
" />
<path d="M38760 25776
L38367 25776
L38367 25701
L38385 25656
L38423 25626
L38460 25611
L38535 25596
L38592 25596
L38667 25611
L38704 25626
L38742 25656
L38760 25701
L38760 25776
" />
<path d="M38760 25296
L38760 25476
" />
<path d="M38760 25386
L38367 25386
L38423 25416
L38460 25446
L38479 25476
" />
<path d="M38404 25176
L38385 25161
L38367 25131
L38367 25056
L38385 25026
L38404 25011
L38442 24996
L38479 24996
L38535 25011
L38760 25191
L38760 24996
" />
<path d="M37776 25626
L37382 25626
L37382 25551
L37401 25506
L37439 25476
L37476 25461
L37551 25446
L37607 25446
L37682 25461
L37720 25476
L37757 25506
L37776 25551
L37776 25626
" />
<path d="M37382 25341
L37382 25146
L37532 25251
L37532 25206
L37551 25176
L37570 25161
L37607 25146
L37701 25146
L37739 25161
L37757 25176
L37776 25206
L37776 25296
L37757 25326
L37739 25341
" />
<path d="M36642 25798
L36642 25558
" />
<path d="M36792 25678
L36492 25678
" />
<path d="M36398 25258
L36398 25408
L36586 25423
L36567 25408
L36548 25378
L36548 25303
L36567 25273
L36586 25258
L36623 25243
L36717 25243
L36754 25258
L36773 25273
L36792 25303
L36792 25378
L36773 25408
L36754 25423
" />
<path d="M36398 25153
L36792 25048
L36398 24943
" />
</g>
<g style="fill:#008484; fill-opacity:0.0; 
stroke:#008484; stroke-width:60; stroke-opacity:1; 
stroke-linecap:round; stroke-linejoin:round;">
<path d="M33070 13622
L39370 13622
" />
<path d="M39370 13622
L39370 15748
" />
<path d="M33070 13622
L33070 15748
" />
<path d="M33070 21968
L33070 22283
" />
<path d="M33070 22283
L39370 22283
" />
<path d="M39370 22283
L39370 21968
" />
<path d="M39370 13622
L33070 15118
" />
<path d="M33070 13622
L39370 15118
" />
<path d="M33067 15118
L39366 15118
" />
</g>
<g style="fill:#008484; fill-opacity:0.0; 
stroke:#008484; stroke-width:59.0551; stroke-opacity:1; 
stroke-linecap:round; stroke-linejoin:round;">
<path d="M46683 16043
L46683 20964
" />
<path d="M46738 16044
L46738 20962
" />
<path d="M46793 16047
L46793 20960
" />
<path d="M46848 16051
L46848 20956
" />
<path d="M46903 16055
L46903 20951
" />
<path d="M46958 16062
L46958 20945
" />
<path d="M47013 16069
L47013 20938
" />
<path d="M47068 16078
L47068 20929
" />
<path d="M47124 16088
L47124 20919
" />
<path d="M47179 16100
L47179 20907
" />
<path d="M47234 16112
L47234 18298
" />
<path d="M47234 18709
L47234 20894
" />
<path d="M47289 16126
L47289 18214
" />
<path d="M47289 18792
L47289 20881
" />
<path d="M47344 16142
L47344 18159
" />
<path d="M47344 18848
L47344 20865
" />
<path d="M47399 16159
L47399 18118
" />
<path d="M47399 18888
L47399 20848
" />
<path d="M47454 16177
L47454 18089
" />
<path d="M47454 18918
L47454 20830
" />
<path d="M47509 16197
L47509 18069
" />
<path d="M47509 18938
L47509 20810
" />
<path d="M47564 16218
L47564 18057
" />
<path d="M47564 18950
L47564 20789
" />
<path d="M47620 16240
L47620 18051
" />
<path d="M47620 18956
L47620 20766
" />
<path d="M47675 16265
L47675 18052
" />
<path d="M47675 18955
L47675 20742
" />
<path d="M47730 16291
L47730 18060
" />
<path d="M47730 18947
L47730 20716
" />
<path d="M47785 16319
L47785 18075
" />
<path d="M47785 18931
L47785 20688
" />
<path d="M47840 16348
L47840 18099
" />
<path d="M47840 18908
L47840 20659
" />
<path d="M47895 16379
L47895 18131
" />
<path d="M47895 18875
L47895 20627
" />
<path d="M47950 16412
L47950 18176
" />
<path d="M47950 18831
L47950 20594
" />
<path d="M48005 16448
L48005 18240
" />
<path d="M48005 18767
L48005 20559
" />
<path d="M48061 16485
L48061 18342
" />
<path d="M48061 18664
L48061 20522
" />
<path d="M48116 16525
L48116 20482
" />
<path d="M48171 16567
L48171 20440
" />
<path d="M48226 16611
L48226 20396
" />
<path d="M48281 16658
L48281 20349
" />
<path d="M48336 16709
L48336 20298
" />
<path d="M48391 16762
L48391 20245
" />
<path d="M48446 16818
L48446 20188
" />
<path d="M48501 16879
L48501 20127
" />
<path d="M48557 16944
L48557 20062
" />
<path d="M48612 17014
L48612 19993
" />
<path d="M48667 17089
L48667 19918
" />
<path d="M48722 17172
L48722 19835
" />
<path d="M48777 17261
L48777 19746
" />
<path d="M48832 17361
L48832 19646
" />
<path d="M48887 17472
L48887 19535
" />
<path d="M48942 17601
L48942 19405
" />
<path d="M48998 17757
L48998 19250
" />
<path d="M49053 17959
L49053 19048
" />
<path d="M49108 18333
L49108 18674
" />
<circle cx="47637.8" cy="18503.9" r="452.756" /> 
<circle cx="46653.5" cy="18503.9" r="2475.39" /> 
<path d="M30767 22401
L31043 22401
" />
<path d="M31043 22874
L30767 22874
" />
<path d="M31535 21161
L30472 21161
" />
<path d="M31535 21751
L30472 21751
" />
<path d="M30944 21397
L30944 21496
" />
<path d="M30944 21496
L31003 21437
" />
<path d="M31043 21594
L31043 21318
" />
<path d="M30905 21456
L30767 21456
" />
<path d="M31043 21456
L30905 21594
" />
<path d="M30905 21594
L30905 21318
" />
<path d="M30905 21318
L31043 21456
" />
<path d="M53188 21653
L53385 21653
" />
<circle cx="51614.2" cy="20669.3" r="787.402" /> 
<circle cx="51614.2" cy="22637.8" r="787.402" /> 
<path d="M52598 23622
L52598 19685
" />
<path d="M50669 23622
L50669 19685
" />
<path d="M53188 23622
L53188 19685
" />
<path d="M53385 23622
L53385 19685
" />
<path d="M53385 19685
L49527 19685
" />
<path d="M49527 19685
L49527 23622
" />
<path d="M49527 23622
L53385 23622
" />
<path d="M28346 17716
L28346 18307
" />
<path d="M28346 17716
L26574 17716
" />
<path d="M28346 18307
L28346 17716
" />
<path d="M28346 21653
L26574 21653
" />
<path d="M27165 21653
L28346 21653
" />
<path d="M28346 21653
L28346 21062
" />
<path d="M28346 20078
L28346 20275
" />
<path d="M28346 19291
L28346 19094
" />
<path d="M45562 15657
L40562 15657
" />
<path d="M40562 15657
L40562 14657
" />
<path d="M40562 14657
L45562 14657
" />
<path d="M46673 15767
L46062 15767
" />
<path d="M45562 15657
L45562 14657
" />
<path d="M46062 14547
L46673 14547
" />
<path d="M46673 14547
L46673 15767
" />
<path d="M37114 23712
L42114 23712
" />
<path d="M42114 23712
L42114 24712
" />
<path d="M42114 24712
L37114 24712
" />
<path d="M36003 23602
L36614 23602
" />
<path d="M37114 23712
L37114 24712
" />
<path d="M36614 24822
L36003 24822
" />
<path d="M36003 24822
L36003 23602
" />
<path d="M47047 25236
L47047 25433
" />
<circle cx="48031.5" cy="23661.4" r="787.402" /> 
<circle cx="46063" cy="23661.4" r="787.402" /> 
<path d="M45078 24645
L49015 24645
" />
<path d="M45078 22716
L49015 22716
" />
<path d="M45078 25236
L49015 25236
" />
<path d="M45078 25433
L49015 25433
" />
<path d="M49015 25433
L49015 21574
" />
<path d="M49015 21574
L45078 21574
" />
<path d="M45078 21574
L45078 25433
" />
<path d="M42894 23434
L43344 23434
" />
<path d="M42894 22234
L43344 22234
" />
<path d="M43344 20734
L44794 20734
" />
<path d="M44794 20734
L44794 24934
" />
<path d="M44794 24934
L43344 24934
" />
<path d="M42894 20734
L43344 20734
" />
<path d="M43344 20734
L43344 24934
" />
<path d="M43344 24934
L42894 24934
" />
<path d="M42894 22834
L42894 24934
" />
<path d="M42894 22834
L42894 20734
" />
<path d="M30708 18238
L31102 18238
" />
<path d="M31102 18769
L30708 18769
" />
<path d="M30708 19222
L31102 19222
" />
<path d="M31102 19753
L30708 19753
" />
<path d="M31102 20738
L30708 20738
" />
<path d="M30708 20206
L31102 20206
" />
<path d="M41141 20698
L41535 20698
" />
<path d="M41535 21230
L41141 21230
" />
<path d="M41141 19812
L41535 19812
" />
<path d="M41535 20344
L41141 20344
" />
<circle cx="30905.5" cy="16141.7" r="1000" /> 
<path d="M32405 14641
L32405 17641
" />
<path d="M32405 17641
L29405 17641
" />
<path d="M29405 17641
L29405 14641
" />
<path d="M32405 14641
L29405 14641
" />
<circle cx="41929.1" cy="17716.5" r="1000" /> 
<path d="M40429 16216
L43429 16216
" />
<path d="M43429 16216
L43429 19216
" />
<path d="M43429 19216
L40429 19216
" />
<path d="M40429 16216
L40429 19216
" />
<path d="M50974 16513
L49774 16513
" />
<path d="M49774 16513
L49774 19313
" />
<path d="M49774 19313
L50974 19313
" />
<path d="M52174 16513
L52474 16513
" />
<path d="M52474 16513
L53374 17113
" />
<path d="M53374 17113
L53374 18713
" />
<path d="M53374 18713
L52474 19313
" />
<path d="M52474 19313
L52174 19313
" />
<path d="M32647 23474
L32647 23562
" />
<path d="M34478 23474
L34478 23562
" />
<path d="M34478 25541
L34478 25452
" />
<path d="M32647 25541
L32647 25452
" />
<path d="M32647 23474
L34478 23474
" />
<path d="M32647 25541
L34478 25541
" />
<path d="M32647 23562
L32116 23562
" />
<path d="M34715 14193
L34715 13800
L34940 14193
L34940 13800
" />
<path d="M35184 14193
L35146 14175
L35128 14156
L35109 14118
L35109 14006
L35128 13968
L35146 13950
L35184 13931
L35240 13931
L35278 13950
L35296 13968
L35315 14006
L35315 14118
L35296 14156
L35278 14175
L35240 14193
L35184 14193
" />
<path d="M36009 14156
L35990 14175
L35934 14193
L35896 14193
L35840 14175
L35802 14137
L35784 14100
L35765 14025
L35765 13968
L35784 13893
L35802 13856
L35840 13818
L35896 13800
L35934 13800
L35990 13818
L36009 13837
" />
<path d="M36234 14193
L36196 14175
L36177 14156
L36159 14118
L36159 14006
L36177 13968
L36196 13950
L36234 13931
L36290 13931
L36327 13950
L36346 13968
L36365 14006
L36365 14118
L36346 14156
L36327 14175
L36290 14193
L36234 14193
" />
<path d="M36534 13931
L36534 14325
" />
<path d="M36534 13950
L36571 13931
L36646 13931
L36684 13950
L36702 13968
L36721 14006
L36721 14118
L36702 14156
L36684 14175
L36646 14193
L36571 14193
L36534 14175
" />
<path d="M36890 13931
L36890 14325
" />
<path d="M36890 13950
L36927 13931
L37002 13931
L37040 13950
L37059 13968
L37077 14006
L37077 14118
L37059 14156
L37040 14175
L37002 14193
L36927 14193
L36890 14175
" />
<path d="M37396 14175
L37359 14193
L37284 14193
L37246 14175
L37227 14137
L37227 13987
L37246 13950
L37284 13931
L37359 13931
L37396 13950
L37415 13987
L37415 14025
L37227 14062
" />
<path d="M37584 14193
L37584 13931
" />
<path d="M37584 14006
L37602 13968
L37621 13950
L37659 13931
L37696 13931
" />
</g>
<g style="fill:#C2C200; fill-opacity:0.0; 
stroke:#C2C200; stroke-width:59.0551; stroke-opacity:1; 
stroke-linecap:round; stroke-linejoin:round;">
<path d="M45603 17463
L45584 17482
L45528 17500
L45491 17500
L45434 17482
L45397 17444
L45378 17407
L45359 17332
L45359 17275
L45378 17200
L45397 17163
L45434 17125
L45491 17107
L45528 17107
L45584 17125
L45603 17144
" />
<path d="M45978 17500
L45753 17500
" />
<path d="M45866 17500
L45866 17107
L45828 17163
L45791 17200
L45753 17219
" />
<path d="M29560 22778
L29541 22797
L29485 22815
L29447 22815
L29391 22797
L29354 22759
L29335 22722
L29316 22647
L29316 22590
L29335 22515
L29354 22478
L29391 22440
L29447 22422
L29485 22422
L29541 22440
L29560 22459
" />
<path d="M29710 22459
L29729 22440
L29766 22422
L29860 22422
L29897 22440
L29916 22459
L29935 22497
L29935 22534
L29916 22590
L29691 22815
L29935 22815
" />
<path d="M50276 22464
L49882 22464
L49882 22314
L49901 22276
L49920 22258
L49957 22239
L50014 22239
L50051 22258
L50070 22276
L50089 22314
L50089 22464
" />
<path d="M49882 21995
L49882 21920
L49901 21883
L49939 21845
L50014 21826
L50145 21826
L50220 21845
L50257 21883
L50276 21920
L50276 21995
L50257 22033
L50220 22070
L50145 22089
L50014 22089
L49939 22070
L49901 22033
L49882 21995
" />
<path d="M49882 21695
L50276 21601
L49995 21526
L50276 21452
L49882 21358
" />
<path d="M50070 21208
L50070 21077
" />
<path d="M50276 21020
L50276 21208
L49882 21208
L49882 21020
" />
<path d="M50276 20627
L50089 20758
" />
<path d="M50276 20852
L49882 20852
L49882 20702
L49901 20664
L49920 20645
L49957 20627
L50014 20627
L50051 20645
L50070 20664
L50089 20702
L50089 20852
" />
<path d="M29311 20791
L29705 20697
L29424 20622
L29705 20547
L29311 20453
" />
<path d="M29686 20322
L29705 20266
L29705 20172
L29686 20134
L29668 20116
L29630 20097
L29593 20097
L29555 20116
L29536 20134
L29518 20172
L29499 20247
L29480 20284
L29461 20303
L29424 20322
L29386 20322
L29349 20303
L29330 20284
L29311 20247
L29311 20153
L29330 20097
" />
<path d="M29349 19947
L29330 19928
L29311 19891
L29311 19797
L29330 19760
L29349 19741
L29386 19722
L29424 19722
L29480 19741
L29705 19966
L29705 19722
" />
<path d="M29480 19497
L29461 19535
L29443 19553
L29405 19572
L29386 19572
L29349 19553
L29330 19535
L29311 19497
L29311 19422
L29330 19385
L29349 19366
L29386 19347
L29405 19347
L29443 19366
L29461 19385
L29480 19422
L29480 19497
L29499 19535
L29518 19553
L29555 19572
L29630 19572
L29668 19553
L29686 19535
L29705 19497
L29705 19422
L29686 19385
L29668 19366
L29630 19347
L29555 19347
L29518 19366
L29499 19385
L29480 19422
" />
<path d="M29705 18972
L29705 19197
" />
<path d="M29705 19085
L29311 19085
L29368 19122
L29405 19160
L29424 19197
" />
<path d="M29349 18822
L29330 18803
L29311 18766
L29311 18672
L29330 18635
L29349 18616
L29386 18597
L29424 18597
L29480 18616
L29705 18841
L29705 18597
" />
</g>
<g style="fill:#008484; fill-opacity:0.0; 
stroke:#008484; stroke-width:59.0551; stroke-opacity:1; 
stroke-linecap:round; stroke-linejoin:round;">
</g>
<g style="fill:#008484; fill-opacity:0.0; 
stroke:#008484; stroke-width:47.2441; stroke-opacity:1; 
stroke-linecap:round; stroke-linejoin:round;">
<path d="M27244 20849
L27232 20871
L27232 20905
L27244 20939
L27266 20961
L27289 20973
L27334 20984
L27367 20984
L27412 20973
L27435 20961
L27457 20939
L27469 20905
L27469 20883
L27457 20849
L27446 20838
L27367 20838
L27367 20883
" />
<path d="M27469 20736
L27232 20736
L27469 20601
L27232 20601
" />
<path d="M27469 20489
L27232 20489
L27232 20433
L27244 20399
L27266 20376
L27289 20365
L27334 20354
L27367 20354
L27412 20365
L27435 20376
L27457 20399
L27469 20433
L27469 20489
" />
<path d="M27469 19859
L27232 19859
L27232 19803
L27244 19769
L27266 19746
L27289 19735
L27334 19724
L27367 19724
L27412 19735
L27435 19746
L27457 19769
L27469 19803
L27469 19859
" />
<path d="M27232 19578
L27232 19555
L27244 19533
L27255 19521
L27277 19510
L27322 19499
L27379 19499
L27424 19510
L27446 19521
L27457 19533
L27469 19555
L27469 19578
L27457 19600
L27446 19611
L27424 19623
L27379 19634
L27322 19634
L27277 19623
L27255 19611
L27244 19600
L27232 19578
" />
<path d="M27379 19004
L27379 18824
" />
<path d="M27469 18914
L27289 18914
" />
<path d="M27232 18599
L27232 18712
L27345 18723
L27334 18712
L27322 18689
L27322 18633
L27334 18610
L27345 18599
L27367 18588
L27424 18588
L27446 18599
L27457 18610
L27469 18633
L27469 18689
L27457 18712
L27446 18723
" />
<path d="M27232 18520
L27469 18442
L27232 18363
" />
</g>
<g style="fill:#C2C200; fill-opacity:0.0; 
stroke:#C2C200; stroke-width:47.2441; stroke-opacity:1; 
stroke-linecap:round; stroke-linejoin:round;">
</g>
<g style="fill:#C2C200; fill-opacity:0.0; 
stroke:#C2C200; stroke-width:59.0551; stroke-opacity:1; 
stroke-linecap:round; stroke-linejoin:round;">
<path d="M47215 15541
L47215 15673
" />
<path d="M47422 15673
L47028 15673
L47028 15485
" />
<path d="M47028 15391
L47028 15166
" />
<path d="M47422 15279
L47028 15279
" />
<path d="M47422 15035
L47028 15035
L47028 14941
L47047 14885
L47084 14848
L47122 14829
L47197 14810
L47253 14810
L47328 14829
L47365 14848
L47403 14885
L47422 14941
L47422 15035
" />
<path d="M47422 14641
L47028 14641
" />
<path d="M46395 22323
L46395 21930
L46545 21930
L46583 21948
L46601 21967
L46620 22005
L46620 22061
L46601 22098
L46583 22117
L46545 22136
L46395 22136
" />
<path d="M46751 21930
L46845 22323
L46920 22042
L46995 22323
L47089 21930
" />
<path d="M47239 22323
L47239 21930
L47370 22211
L47501 21930
L47501 22323
" />
<path d="M44056 21377
L44019 21358
L43982 21320
L43925 21264
L43888 21245
L43850 21245
" />
<path d="M43869 21339
L43832 21320
L43794 21283
L43775 21208
L43775 21077
L43794 21002
L43832 20964
L43869 20945
L43944 20945
L43982 20964
L44019 21002
L44038 21077
L44038 21208
L44019 21283
L43982 21320
L43944 21339
L43869 21339
" />
<path d="M44188 20983
L44206 20964
L44244 20945
L44338 20945
L44375 20964
L44394 20983
L44413 21020
L44413 21058
L44394 21114
L44169 21339
L44413 21339
" />
<path d="M32020 18682
L31889 18494
" />
<path d="M31796 18682
L31796 18288
L31946 18288
L31983 18307
L32002 18325
L32020 18363
L32020 18419
L32002 18457
L31983 18475
L31946 18494
L31796 18494
" />
<path d="M32395 18682
L32170 18682
" />
<path d="M32283 18682
L32283 18288
L32245 18344
L32208 18382
L32170 18400
" />
<path d="M32020 19666
L31889 19478
" />
<path d="M31796 19666
L31796 19272
L31946 19272
L31983 19291
L32002 19310
L32020 19347
L32020 19403
L32002 19441
L31983 19460
L31946 19478
L31796 19478
" />
<path d="M32152 19272
L32395 19272
L32264 19422
L32320 19422
L32358 19441
L32377 19460
L32395 19497
L32395 19591
L32377 19628
L32358 19647
L32320 19666
L32208 19666
L32170 19647
L32152 19628
" />
<path d="M32020 20650
L31889 20463
" />
<path d="M31796 20650
L31796 20256
L31946 20256
L31983 20275
L32002 20294
L32020 20331
L32020 20388
L32002 20425
L31983 20444
L31946 20463
L31796 20463
" />
<path d="M32170 20294
L32189 20275
L32227 20256
L32320 20256
L32358 20275
L32377 20294
L32395 20331
L32395 20369
L32377 20425
L32152 20650
L32395 20650
" />
<path d="M40434 21030
L40246 21161
" />
<path d="M40434 21255
L40040 21255
L40040 21105
L40059 21067
L40077 21048
L40115 21030
L40171 21030
L40209 21048
L40227 21067
L40246 21105
L40246 21255
" />
<path d="M40171 20692
L40434 20692
" />
<path d="M40021 20786
L40302 20880
L40302 20636
" />
<path d="M40434 20144
L40246 20275
" />
<path d="M40434 20369
L40040 20369
L40040 20219
L40059 20181
L40077 20163
L40115 20144
L40171 20144
L40209 20163
L40227 20181
L40246 20219
L40246 20369
" />
<path d="M40040 19788
L40040 19975
L40227 19994
L40209 19975
L40190 19938
L40190 19844
L40209 19806
L40227 19788
L40265 19769
L40359 19769
L40396 19788
L40415 19806
L40434 19844
L40434 19938
L40415 19975
L40396 19994
" />
<path d="M29213 16713
L29026 16844
" />
<path d="M29213 16938
L28819 16938
L28819 16788
L28838 16751
L28857 16732
L28894 16713
L28951 16713
L28988 16732
L29007 16751
L29026 16788
L29026 16938
" />
<path d="M29007 16544
L29007 16413
" />
<path d="M29213 16357
L29213 16544
L28819 16544
L28819 16357
" />
<path d="M29194 16207
L29213 16151
L29213 16057
L29194 16019
L29176 16001
L29138 15982
L29101 15982
L29063 16001
L29044 16019
L29026 16057
L29007 16132
L28988 16169
L28969 16188
L28932 16207
L28894 16207
L28857 16188
L28838 16169
L28819 16132
L28819 16038
L28838 15982
" />
<path d="M29007 15813
L29007 15682
" />
<path d="M29213 15626
L29213 15813
L28819 15813
L28819 15626
" />
<path d="M28819 15513
L28819 15288
" />
<path d="M29213 15401
L28819 15401
" />
<path d="M42486 19764
L42486 19371
L42636 19371
L42674 19389
L42693 19408
L42711 19446
L42711 19502
L42693 19539
L42674 19558
L42636 19577
L42486 19577
" />
<path d="M43086 19389
L43049 19371
L42993 19371
L42936 19389
L42899 19427
L42880 19464
L42861 19539
L42861 19595
L42880 19670
L42899 19708
L42936 19745
L42993 19764
L43030 19764
L43086 19745
L43105 19727
L43105 19595
L43030 19595
" />
<path d="M43274 19764
L43274 19371
L43405 19652
L43536 19371
L43536 19764
" />
<path d="M51659 18213
L51977 18213
L52015 18194
L52034 18175
L52052 18138
L52052 18063
L52034 18025
L52015 18007
L51977 17988
L51659 17988
" />
<path d="M52052 17594
L52052 17819
" />
<path d="M52052 17707
L51659 17707
L51715 17744
L51752 17782
L51771 17819
" />
<path d="M33263 24095
L33263 24414
L33281 24451
L33300 24470
L33338 24489
L33413 24489
L33450 24470
L33469 24451
L33488 24414
L33488 24095
" />
<path d="M33637 24095
L33881 24095
L33750 24245
L33806 24245
L33844 24264
L33862 24282
L33881 24320
L33881 24414
L33862 24451
L33844 24470
L33806 24489
L33694 24489
L33656 24470
L33637 24451
" />
</g>
<g style="fill:#000000; fill-opacity:0.0; 
stroke:#000000; stroke-width:59.0551; stroke-opacity:1; 
stroke-linecap:round; stroke-linejoin:round;">
</g>
<g style="fill:#C2C200; fill-opacity:0.0; 
stroke:#C2C200; stroke-width:59.0551; stroke-opacity:1; 
stroke-linecap:round; stroke-linejoin:round;">
</g>
<g style="fill:#C2C200; fill-opacity:0.0; 
stroke:#C2C200; stroke-width:39.3701; stroke-opacity:1; 
stroke-linecap:round; stroke-linejoin:round;">
<circle cx="27952.8" cy="24803.1" r="440.171" /> 
<circle cx="27952.8" cy="15354.3" r="440.171" /> 
<circle cx="52362.2" cy="24803.1" r="440.171" /> 
<circle cx="52362.2" cy="15354.3" r="440.171" /> 
<path d="M28346 14173
L51968 14173
" />
<path d="M26771 24409
L26771 15748
" />
<path d="M51968 25984
L28346 25984
" />
<path d="M53543 15748
L53543 24409
" />
<path d="M26771.7 24409.4 A1574.8 1574.8 0.0 0 0 28346.5 25984.3 " />
<path d="M28346.5 14173.2 A1574.8 1574.8 0.0 0 0 26771.7 15748 " />
<path d="M51968.5 25984.3 A1574.8 1574.8 0.0 0 0 53543.3 24409.4 " />
<path d="M53543.3 15748 A1574.8 1574.8 0.0 0 0 51968.5 14173.2 " />
</g> 
</svg>
