G04 #@! TF.FileFunction,Legend,Top*
%FSLAX46Y46*%
G04 Gerber Fmt 4.6, Leading zero omitted, Abs format (unit mm)*
G04 Created by KiCad (PCBNEW 4.0.2-stable) date Saturday, November 26, 2016 'pmt' 01:20:35 pm*
%MOMM*%
G01*
G04 APERTURE LIST*
%ADD10C,0.100000*%
%ADD11C,0.150000*%
%ADD12C,0.200000*%
%ADD13C,0.152400*%
G04 APERTURE END LIST*
D10*
D11*
X161814667Y-79928000D02*
X161814667Y-80261333D01*
X162148000Y-80294667D01*
X162114667Y-80261333D01*
X162081333Y-80194667D01*
X162081333Y-80028000D01*
X162114667Y-79961333D01*
X162148000Y-79928000D01*
X162214667Y-79894667D01*
X162381333Y-79894667D01*
X162448000Y-79928000D01*
X162481333Y-79961333D01*
X162514667Y-80028000D01*
X162514667Y-80194667D01*
X162481333Y-80261333D01*
X162448000Y-80294667D01*
X162048000Y-79661333D02*
X162514667Y-79494666D01*
X162048000Y-79328000D01*
X167594667Y-86012000D02*
X166894667Y-86012000D01*
X166894667Y-85845334D01*
X166928000Y-85745334D01*
X166994667Y-85678667D01*
X167061333Y-85645334D01*
X167194667Y-85612000D01*
X167294667Y-85612000D01*
X167428000Y-85645334D01*
X167494667Y-85678667D01*
X167561333Y-85745334D01*
X167594667Y-85845334D01*
X167594667Y-86012000D01*
X167594667Y-84945334D02*
X167594667Y-85345334D01*
X167594667Y-85145334D02*
X166894667Y-85145334D01*
X166994667Y-85212000D01*
X167061333Y-85278667D01*
X167094667Y-85345334D01*
X167128000Y-84345333D02*
X167594667Y-84345333D01*
X166861333Y-84512000D02*
X167361333Y-84678667D01*
X167361333Y-84245333D01*
X166928000Y-83155333D02*
X166894667Y-83221999D01*
X166894667Y-83321999D01*
X166928000Y-83421999D01*
X166994667Y-83488666D01*
X167061333Y-83521999D01*
X167194667Y-83555333D01*
X167294667Y-83555333D01*
X167428000Y-83521999D01*
X167494667Y-83488666D01*
X167561333Y-83421999D01*
X167594667Y-83321999D01*
X167594667Y-83255333D01*
X167561333Y-83155333D01*
X167528000Y-83121999D01*
X167294667Y-83121999D01*
X167294667Y-83255333D01*
X167594667Y-82821999D02*
X166894667Y-82821999D01*
X167594667Y-82421999D01*
X166894667Y-82421999D01*
X167594667Y-82088666D02*
X166894667Y-82088666D01*
X166894667Y-81922000D01*
X166928000Y-81822000D01*
X166994667Y-81755333D01*
X167061333Y-81722000D01*
X167194667Y-81688666D01*
X167294667Y-81688666D01*
X167428000Y-81722000D01*
X167494667Y-81755333D01*
X167561333Y-81822000D01*
X167594667Y-81922000D01*
X167594667Y-82088666D01*
X167300000Y-64900000D02*
X167300000Y-64366667D01*
X167566667Y-64633334D02*
X167033333Y-64633334D01*
X166866667Y-63700000D02*
X166866667Y-64033333D01*
X167200000Y-64066667D01*
X167166667Y-64033333D01*
X167133333Y-63966667D01*
X167133333Y-63800000D01*
X167166667Y-63733333D01*
X167200000Y-63700000D01*
X167266667Y-63666667D01*
X167433333Y-63666667D01*
X167500000Y-63700000D01*
X167533333Y-63733333D01*
X167566667Y-63800000D01*
X167566667Y-63966667D01*
X167533333Y-64033333D01*
X167500000Y-64066667D01*
X166866667Y-63466666D02*
X167566667Y-63233333D01*
X166866667Y-63000000D01*
X167833333Y-69533333D02*
X167800000Y-69566667D01*
X167700000Y-69633333D01*
X167633333Y-69666667D01*
X167533333Y-69700000D01*
X167366667Y-69733333D01*
X167233333Y-69733333D01*
X167066667Y-69700000D01*
X166966667Y-69666667D01*
X166900000Y-69633333D01*
X166800000Y-69566667D01*
X166766667Y-69533333D01*
X167300000Y-69266666D02*
X167300000Y-68733333D01*
X167833333Y-68466666D02*
X167800000Y-68433333D01*
X167700000Y-68366666D01*
X167633333Y-68333333D01*
X167533333Y-68299999D01*
X167366667Y-68266666D01*
X167233333Y-68266666D01*
X167066667Y-68299999D01*
X166966667Y-68333333D01*
X166900000Y-68366666D01*
X166800000Y-68433333D01*
X166766667Y-68466666D01*
X149200000Y-96166667D02*
X149200000Y-95933334D01*
X149566667Y-95833334D02*
X149566667Y-96166667D01*
X148866667Y-96166667D01*
X148866667Y-95833334D01*
X149533333Y-95566668D02*
X149566667Y-95466668D01*
X149566667Y-95300001D01*
X149533333Y-95233334D01*
X149500000Y-95200001D01*
X149433333Y-95166668D01*
X149366667Y-95166668D01*
X149300000Y-95200001D01*
X149266667Y-95233334D01*
X149233333Y-95300001D01*
X149200000Y-95433334D01*
X149166667Y-95500001D01*
X149133333Y-95533334D01*
X149066667Y-95566668D01*
X149000000Y-95566668D01*
X148933333Y-95533334D01*
X148900000Y-95500001D01*
X148866667Y-95433334D01*
X148866667Y-95266668D01*
X148900000Y-95166668D01*
X149566667Y-94866667D02*
X148866667Y-94866667D01*
X148866667Y-94600001D01*
X148900000Y-94533334D01*
X148933333Y-94500001D01*
X149000000Y-94466667D01*
X149100000Y-94466667D01*
X149166667Y-94500001D01*
X149200000Y-94533334D01*
X149233333Y-94600001D01*
X149233333Y-94866667D01*
X149166667Y-94066667D02*
X149133333Y-94133334D01*
X149100000Y-94166667D01*
X149033333Y-94200001D01*
X149000000Y-94200001D01*
X148933333Y-94166667D01*
X148900000Y-94133334D01*
X148866667Y-94066667D01*
X148866667Y-93933334D01*
X148900000Y-93866667D01*
X148933333Y-93833334D01*
X149000000Y-93800001D01*
X149033333Y-93800001D01*
X149100000Y-93833334D01*
X149133333Y-93866667D01*
X149166667Y-93933334D01*
X149166667Y-94066667D01*
X149200000Y-94133334D01*
X149233333Y-94166667D01*
X149300000Y-94200001D01*
X149433333Y-94200001D01*
X149500000Y-94166667D01*
X149533333Y-94133334D01*
X149566667Y-94066667D01*
X149566667Y-93933334D01*
X149533333Y-93866667D01*
X149500000Y-93833334D01*
X149433333Y-93800001D01*
X149300000Y-93800001D01*
X149233333Y-93833334D01*
X149200000Y-93866667D01*
X149166667Y-93933334D01*
X148933333Y-93533334D02*
X148900000Y-93500000D01*
X148866667Y-93433334D01*
X148866667Y-93266667D01*
X148900000Y-93200000D01*
X148933333Y-93166667D01*
X149000000Y-93133334D01*
X149066667Y-93133334D01*
X149166667Y-93166667D01*
X149566667Y-93566667D01*
X149566667Y-93133334D01*
X148866667Y-92533333D02*
X148866667Y-92666667D01*
X148900000Y-92733333D01*
X148933333Y-92766667D01*
X149033333Y-92833333D01*
X149166667Y-92866667D01*
X149433333Y-92866667D01*
X149500000Y-92833333D01*
X149533333Y-92800000D01*
X149566667Y-92733333D01*
X149566667Y-92600000D01*
X149533333Y-92533333D01*
X149500000Y-92500000D01*
X149433333Y-92466667D01*
X149266667Y-92466667D01*
X149200000Y-92500000D01*
X149166667Y-92533333D01*
X149133333Y-92600000D01*
X149133333Y-92733333D01*
X149166667Y-92800000D01*
X149200000Y-92833333D01*
X149266667Y-92866667D01*
X148866667Y-91866666D02*
X148866667Y-92000000D01*
X148900000Y-92066666D01*
X148933333Y-92100000D01*
X149033333Y-92166666D01*
X149166667Y-92200000D01*
X149433333Y-92200000D01*
X149500000Y-92166666D01*
X149533333Y-92133333D01*
X149566667Y-92066666D01*
X149566667Y-91933333D01*
X149533333Y-91866666D01*
X149500000Y-91833333D01*
X149433333Y-91800000D01*
X149266667Y-91800000D01*
X149200000Y-91833333D01*
X149166667Y-91866666D01*
X149133333Y-91933333D01*
X149133333Y-92066666D01*
X149166667Y-92133333D01*
X149200000Y-92166666D01*
X149266667Y-92200000D01*
X167594667Y-88552000D02*
X166894667Y-88552000D01*
X166894667Y-88385334D01*
X166928000Y-88285334D01*
X166994667Y-88218667D01*
X167061333Y-88185334D01*
X167194667Y-88152000D01*
X167294667Y-88152000D01*
X167428000Y-88185334D01*
X167494667Y-88218667D01*
X167561333Y-88285334D01*
X167594667Y-88385334D01*
X167594667Y-88552000D01*
X167594667Y-87485334D02*
X167594667Y-87885334D01*
X167594667Y-87685334D02*
X166894667Y-87685334D01*
X166994667Y-87752000D01*
X167061333Y-87818667D01*
X167094667Y-87885334D01*
X166894667Y-87252000D02*
X166894667Y-86818667D01*
X167161333Y-87052000D01*
X167161333Y-86952000D01*
X167194667Y-86885333D01*
X167228000Y-86852000D01*
X167294667Y-86818667D01*
X167461333Y-86818667D01*
X167528000Y-86852000D01*
X167561333Y-86885333D01*
X167594667Y-86952000D01*
X167594667Y-87152000D01*
X167561333Y-87218667D01*
X167528000Y-87252000D01*
X167594667Y-91092000D02*
X166894667Y-91092000D01*
X166894667Y-90925334D01*
X166928000Y-90825334D01*
X166994667Y-90758667D01*
X167061333Y-90725334D01*
X167194667Y-90692000D01*
X167294667Y-90692000D01*
X167428000Y-90725334D01*
X167494667Y-90758667D01*
X167561333Y-90825334D01*
X167594667Y-90925334D01*
X167594667Y-91092000D01*
X167594667Y-90025334D02*
X167594667Y-90425334D01*
X167594667Y-90225334D02*
X166894667Y-90225334D01*
X166994667Y-90292000D01*
X167061333Y-90358667D01*
X167094667Y-90425334D01*
X166961333Y-89758667D02*
X166928000Y-89725333D01*
X166894667Y-89658667D01*
X166894667Y-89492000D01*
X166928000Y-89425333D01*
X166961333Y-89392000D01*
X167028000Y-89358667D01*
X167094667Y-89358667D01*
X167194667Y-89392000D01*
X167594667Y-89792000D01*
X167594667Y-89358667D01*
X167594667Y-93298666D02*
X166894667Y-93298666D01*
X166894667Y-93132000D01*
X166928000Y-93032000D01*
X166994667Y-92965333D01*
X167061333Y-92932000D01*
X167194667Y-92898666D01*
X167294667Y-92898666D01*
X167428000Y-92932000D01*
X167494667Y-92965333D01*
X167561333Y-93032000D01*
X167594667Y-93132000D01*
X167594667Y-93298666D01*
X166894667Y-92665333D02*
X166894667Y-92232000D01*
X167161333Y-92465333D01*
X167161333Y-92365333D01*
X167194667Y-92298666D01*
X167228000Y-92265333D01*
X167294667Y-92232000D01*
X167461333Y-92232000D01*
X167528000Y-92265333D01*
X167561333Y-92298666D01*
X167594667Y-92365333D01*
X167594667Y-92565333D01*
X167561333Y-92632000D01*
X167528000Y-92665333D01*
X164354667Y-80320000D02*
X164354667Y-79886667D01*
X164621333Y-80120000D01*
X164621333Y-80020000D01*
X164654667Y-79953333D01*
X164688000Y-79920000D01*
X164754667Y-79886667D01*
X164921333Y-79886667D01*
X164988000Y-79920000D01*
X165021333Y-79953333D01*
X165054667Y-80020000D01*
X165054667Y-80220000D01*
X165021333Y-80286667D01*
X164988000Y-80320000D01*
X164988000Y-79586666D02*
X165021333Y-79553333D01*
X165054667Y-79586666D01*
X165021333Y-79620000D01*
X164988000Y-79586666D01*
X165054667Y-79586666D01*
X164354667Y-79320000D02*
X164354667Y-78886667D01*
X164621333Y-79120000D01*
X164621333Y-79020000D01*
X164654667Y-78953333D01*
X164688000Y-78920000D01*
X164754667Y-78886667D01*
X164921333Y-78886667D01*
X164988000Y-78920000D01*
X165021333Y-78953333D01*
X165054667Y-79020000D01*
X165054667Y-79220000D01*
X165021333Y-79286667D01*
X164988000Y-79320000D01*
X164588000Y-78653333D02*
X165054667Y-78486666D01*
X164588000Y-78320000D01*
X167328000Y-105748666D02*
X167328000Y-105215333D01*
X167594667Y-105482000D02*
X167061333Y-105482000D01*
X159308000Y-83155333D02*
X159274667Y-83221999D01*
X159274667Y-83321999D01*
X159308000Y-83421999D01*
X159374667Y-83488666D01*
X159441333Y-83521999D01*
X159574667Y-83555333D01*
X159674667Y-83555333D01*
X159808000Y-83521999D01*
X159874667Y-83488666D01*
X159941333Y-83421999D01*
X159974667Y-83321999D01*
X159974667Y-83255333D01*
X159941333Y-83155333D01*
X159908000Y-83121999D01*
X159674667Y-83121999D01*
X159674667Y-83255333D01*
X159974667Y-82821999D02*
X159274667Y-82821999D01*
X159974667Y-82421999D01*
X159274667Y-82421999D01*
X159974667Y-82088666D02*
X159274667Y-82088666D01*
X159274667Y-81922000D01*
X159308000Y-81822000D01*
X159374667Y-81755333D01*
X159441333Y-81722000D01*
X159574667Y-81688666D01*
X159674667Y-81688666D01*
X159808000Y-81722000D01*
X159874667Y-81755333D01*
X159941333Y-81822000D01*
X159974667Y-81922000D01*
X159974667Y-82088666D01*
X159974667Y-86012000D02*
X159274667Y-86012000D01*
X159274667Y-85845334D01*
X159308000Y-85745334D01*
X159374667Y-85678667D01*
X159441333Y-85645334D01*
X159574667Y-85612000D01*
X159674667Y-85612000D01*
X159808000Y-85645334D01*
X159874667Y-85678667D01*
X159941333Y-85745334D01*
X159974667Y-85845334D01*
X159974667Y-86012000D01*
X159974667Y-84945334D02*
X159974667Y-85345334D01*
X159974667Y-85145334D02*
X159274667Y-85145334D01*
X159374667Y-85212000D01*
X159441333Y-85278667D01*
X159474667Y-85345334D01*
X159508000Y-84345333D02*
X159974667Y-84345333D01*
X159241333Y-84512000D02*
X159741333Y-84678667D01*
X159741333Y-84245333D01*
X159974667Y-88552000D02*
X159274667Y-88552000D01*
X159274667Y-88385334D01*
X159308000Y-88285334D01*
X159374667Y-88218667D01*
X159441333Y-88185334D01*
X159574667Y-88152000D01*
X159674667Y-88152000D01*
X159808000Y-88185334D01*
X159874667Y-88218667D01*
X159941333Y-88285334D01*
X159974667Y-88385334D01*
X159974667Y-88552000D01*
X159974667Y-87485334D02*
X159974667Y-87885334D01*
X159974667Y-87685334D02*
X159274667Y-87685334D01*
X159374667Y-87752000D01*
X159441333Y-87818667D01*
X159474667Y-87885334D01*
X159274667Y-87252000D02*
X159274667Y-86818667D01*
X159541333Y-87052000D01*
X159541333Y-86952000D01*
X159574667Y-86885333D01*
X159608000Y-86852000D01*
X159674667Y-86818667D01*
X159841333Y-86818667D01*
X159908000Y-86852000D01*
X159941333Y-86885333D01*
X159974667Y-86952000D01*
X159974667Y-87152000D01*
X159941333Y-87218667D01*
X159908000Y-87252000D01*
X159974667Y-91092000D02*
X159274667Y-91092000D01*
X159274667Y-90925334D01*
X159308000Y-90825334D01*
X159374667Y-90758667D01*
X159441333Y-90725334D01*
X159574667Y-90692000D01*
X159674667Y-90692000D01*
X159808000Y-90725334D01*
X159874667Y-90758667D01*
X159941333Y-90825334D01*
X159974667Y-90925334D01*
X159974667Y-91092000D01*
X159974667Y-90025334D02*
X159974667Y-90425334D01*
X159974667Y-90225334D02*
X159274667Y-90225334D01*
X159374667Y-90292000D01*
X159441333Y-90358667D01*
X159474667Y-90425334D01*
X159341333Y-89758667D02*
X159308000Y-89725333D01*
X159274667Y-89658667D01*
X159274667Y-89492000D01*
X159308000Y-89425333D01*
X159341333Y-89392000D01*
X159408000Y-89358667D01*
X159474667Y-89358667D01*
X159574667Y-89392000D01*
X159974667Y-89792000D01*
X159974667Y-89358667D01*
X159974667Y-93298666D02*
X159274667Y-93298666D01*
X159274667Y-93132000D01*
X159308000Y-93032000D01*
X159374667Y-92965333D01*
X159441333Y-92932000D01*
X159574667Y-92898666D01*
X159674667Y-92898666D01*
X159808000Y-92932000D01*
X159874667Y-92965333D01*
X159941333Y-93032000D01*
X159974667Y-93132000D01*
X159974667Y-93298666D01*
X159274667Y-92665333D02*
X159274667Y-92232000D01*
X159541333Y-92465333D01*
X159541333Y-92365333D01*
X159574667Y-92298666D01*
X159608000Y-92265333D01*
X159674667Y-92232000D01*
X159841333Y-92232000D01*
X159908000Y-92265333D01*
X159941333Y-92298666D01*
X159974667Y-92365333D01*
X159974667Y-92565333D01*
X159941333Y-92632000D01*
X159908000Y-92665333D01*
X159708000Y-95588666D02*
X159708000Y-95055333D01*
X159974667Y-95322000D02*
X159441333Y-95322000D01*
X167594667Y-95838666D02*
X166894667Y-95838666D01*
X166894667Y-95672000D01*
X166928000Y-95572000D01*
X166994667Y-95505333D01*
X167061333Y-95472000D01*
X167194667Y-95438666D01*
X167294667Y-95438666D01*
X167428000Y-95472000D01*
X167494667Y-95505333D01*
X167561333Y-95572000D01*
X167594667Y-95672000D01*
X167594667Y-95838666D01*
X166894667Y-94805333D02*
X166894667Y-95138666D01*
X167228000Y-95172000D01*
X167194667Y-95138666D01*
X167161333Y-95072000D01*
X167161333Y-94905333D01*
X167194667Y-94838666D01*
X167228000Y-94805333D01*
X167294667Y-94772000D01*
X167461333Y-94772000D01*
X167528000Y-94805333D01*
X167561333Y-94838666D01*
X167594667Y-94905333D01*
X167594667Y-95072000D01*
X167561333Y-95138666D01*
X167528000Y-95172000D01*
X167594667Y-98378666D02*
X166894667Y-98378666D01*
X166894667Y-98212000D01*
X166928000Y-98112000D01*
X166994667Y-98045333D01*
X167061333Y-98012000D01*
X167194667Y-97978666D01*
X167294667Y-97978666D01*
X167428000Y-98012000D01*
X167494667Y-98045333D01*
X167561333Y-98112000D01*
X167594667Y-98212000D01*
X167594667Y-98378666D01*
X167128000Y-97378666D02*
X167594667Y-97378666D01*
X166861333Y-97545333D02*
X167361333Y-97712000D01*
X167361333Y-97278666D01*
X167594667Y-100918666D02*
X166894667Y-100918666D01*
X166894667Y-100752000D01*
X166928000Y-100652000D01*
X166994667Y-100585333D01*
X167061333Y-100552000D01*
X167194667Y-100518666D01*
X167294667Y-100518666D01*
X167428000Y-100552000D01*
X167494667Y-100585333D01*
X167561333Y-100652000D01*
X167594667Y-100752000D01*
X167594667Y-100918666D01*
X166961333Y-100252000D02*
X166928000Y-100218666D01*
X166894667Y-100152000D01*
X166894667Y-99985333D01*
X166928000Y-99918666D01*
X166961333Y-99885333D01*
X167028000Y-99852000D01*
X167094667Y-99852000D01*
X167194667Y-99885333D01*
X167594667Y-100285333D01*
X167594667Y-99852000D01*
X167394667Y-103808667D02*
X167394667Y-103475333D01*
X167594667Y-103875333D02*
X166894667Y-103642000D01*
X167594667Y-103408667D01*
X167594667Y-103175333D02*
X166894667Y-103175333D01*
X166894667Y-103008667D01*
X166928000Y-102908667D01*
X166994667Y-102842000D01*
X167061333Y-102808667D01*
X167194667Y-102775333D01*
X167294667Y-102775333D01*
X167428000Y-102808667D01*
X167494667Y-102842000D01*
X167561333Y-102908667D01*
X167594667Y-103008667D01*
X167594667Y-103175333D01*
X167528000Y-102075333D02*
X167561333Y-102108667D01*
X167594667Y-102208667D01*
X167594667Y-102275333D01*
X167561333Y-102375333D01*
X167494667Y-102442000D01*
X167428000Y-102475333D01*
X167294667Y-102508667D01*
X167194667Y-102508667D01*
X167061333Y-102475333D01*
X166994667Y-102442000D01*
X166928000Y-102375333D01*
X166894667Y-102275333D01*
X166894667Y-102208667D01*
X166928000Y-102108667D01*
X166961333Y-102075333D01*
X163480666Y-50822000D02*
X162947333Y-50822000D01*
X151288666Y-50822000D02*
X150755333Y-50822000D01*
X151022000Y-50555333D02*
X151022000Y-51088667D01*
X138192667Y-70201333D02*
X138192667Y-69801333D01*
X138892667Y-70001333D02*
X138192667Y-70001333D01*
X138192667Y-69634667D02*
X138892667Y-69168000D01*
X138192667Y-69168000D02*
X138892667Y-69634667D01*
X138892667Y-67244666D02*
X138559333Y-67478000D01*
X138892667Y-67644666D02*
X138192667Y-67644666D01*
X138192667Y-67378000D01*
X138226000Y-67311333D01*
X138259333Y-67278000D01*
X138326000Y-67244666D01*
X138426000Y-67244666D01*
X138492667Y-67278000D01*
X138526000Y-67311333D01*
X138559333Y-67378000D01*
X138559333Y-67644666D01*
X138192667Y-67011333D02*
X138892667Y-66544666D01*
X138192667Y-66544666D02*
X138892667Y-67011333D01*
X142290000Y-59787333D02*
X142256667Y-59853999D01*
X142256667Y-59953999D01*
X142290000Y-60053999D01*
X142356667Y-60120666D01*
X142423333Y-60153999D01*
X142556667Y-60187333D01*
X142656667Y-60187333D01*
X142790000Y-60153999D01*
X142856667Y-60120666D01*
X142923333Y-60053999D01*
X142956667Y-59953999D01*
X142956667Y-59887333D01*
X142923333Y-59787333D01*
X142890000Y-59753999D01*
X142656667Y-59753999D01*
X142656667Y-59887333D01*
X142956667Y-59453999D02*
X142256667Y-59453999D01*
X142956667Y-59053999D01*
X142256667Y-59053999D01*
X142956667Y-58720666D02*
X142256667Y-58720666D01*
X142256667Y-58554000D01*
X142290000Y-58454000D01*
X142356667Y-58387333D01*
X142423333Y-58354000D01*
X142556667Y-58320666D01*
X142656667Y-58320666D01*
X142790000Y-58354000D01*
X142856667Y-58387333D01*
X142923333Y-58454000D01*
X142956667Y-58554000D01*
X142956667Y-58720666D01*
D12*
X157880000Y-110308000D02*
G75*
G03X157880000Y-110308000I-254000J0D01*
G01*
X75946000Y-119626000D02*
G75*
G03X75946000Y-119626000I-254000J0D01*
G01*
D11*
X126212667Y-104290000D02*
X126146001Y-104256667D01*
X126046001Y-104256667D01*
X125946001Y-104290000D01*
X125879334Y-104356667D01*
X125846001Y-104423333D01*
X125812667Y-104556667D01*
X125812667Y-104656667D01*
X125846001Y-104790000D01*
X125879334Y-104856667D01*
X125946001Y-104923333D01*
X126046001Y-104956667D01*
X126112667Y-104956667D01*
X126212667Y-104923333D01*
X126246001Y-104890000D01*
X126246001Y-104656667D01*
X126112667Y-104656667D01*
X126546001Y-104956667D02*
X126546001Y-104256667D01*
X126946001Y-104956667D01*
X126946001Y-104256667D01*
X127279334Y-104956667D02*
X127279334Y-104256667D01*
X127446000Y-104256667D01*
X127546000Y-104290000D01*
X127612667Y-104356667D01*
X127646000Y-104423333D01*
X127679334Y-104556667D01*
X127679334Y-104656667D01*
X127646000Y-104790000D01*
X127612667Y-104856667D01*
X127546000Y-104923333D01*
X127446000Y-104956667D01*
X127279334Y-104956667D01*
X118755334Y-100892667D02*
X118522000Y-100559333D01*
X118355334Y-100892667D02*
X118355334Y-100192667D01*
X118622000Y-100192667D01*
X118688667Y-100226000D01*
X118722000Y-100259333D01*
X118755334Y-100326000D01*
X118755334Y-100426000D01*
X118722000Y-100492667D01*
X118688667Y-100526000D01*
X118622000Y-100559333D01*
X118355334Y-100559333D01*
X118988667Y-100192667D02*
X119455334Y-100892667D01*
X119455334Y-100192667D02*
X118988667Y-100892667D01*
X115798667Y-100192667D02*
X116198667Y-100192667D01*
X115998667Y-100892667D02*
X115998667Y-100192667D01*
X116365333Y-100192667D02*
X116832000Y-100892667D01*
X116832000Y-100192667D02*
X116365333Y-100892667D01*
X135178000Y-113288666D02*
X135178000Y-112755333D01*
X135444667Y-113022000D02*
X134911333Y-113022000D01*
X135178000Y-125480666D02*
X135178000Y-124947333D01*
X82191333Y-129394667D02*
X82524667Y-129394667D01*
X82124667Y-129594667D02*
X82358000Y-128894667D01*
X82591333Y-129594667D01*
X82824667Y-129594667D02*
X82824667Y-128894667D01*
X82991333Y-128894667D01*
X83091333Y-128928000D01*
X83158000Y-128994667D01*
X83191333Y-129061333D01*
X83224667Y-129194667D01*
X83224667Y-129294667D01*
X83191333Y-129428000D01*
X83158000Y-129494667D01*
X83091333Y-129561333D01*
X82991333Y-129594667D01*
X82824667Y-129594667D01*
X83924667Y-129528000D02*
X83891333Y-129561333D01*
X83791333Y-129594667D01*
X83724667Y-129594667D01*
X83624667Y-129561333D01*
X83558000Y-129494667D01*
X83524667Y-129428000D01*
X83491333Y-129294667D01*
X83491333Y-129194667D01*
X83524667Y-129061333D01*
X83558000Y-128994667D01*
X83624667Y-128928000D01*
X83724667Y-128894667D01*
X83791333Y-128894667D01*
X83891333Y-128928000D01*
X83924667Y-128961333D01*
X85081334Y-129594667D02*
X85081334Y-128894667D01*
X85248000Y-128894667D01*
X85348000Y-128928000D01*
X85414667Y-128994667D01*
X85448000Y-129061333D01*
X85481334Y-129194667D01*
X85481334Y-129294667D01*
X85448000Y-129428000D01*
X85414667Y-129494667D01*
X85348000Y-129561333D01*
X85248000Y-129594667D01*
X85081334Y-129594667D01*
X85748000Y-128961333D02*
X85781334Y-128928000D01*
X85848000Y-128894667D01*
X86014667Y-128894667D01*
X86081334Y-128928000D01*
X86114667Y-128961333D01*
X86148000Y-129028000D01*
X86148000Y-129094667D01*
X86114667Y-129194667D01*
X85714667Y-129594667D01*
X86148000Y-129594667D01*
X87621334Y-129594667D02*
X87621334Y-128894667D01*
X87788000Y-128894667D01*
X87888000Y-128928000D01*
X87954667Y-128994667D01*
X87988000Y-129061333D01*
X88021334Y-129194667D01*
X88021334Y-129294667D01*
X87988000Y-129428000D01*
X87954667Y-129494667D01*
X87888000Y-129561333D01*
X87788000Y-129594667D01*
X87621334Y-129594667D01*
X88621334Y-129128000D02*
X88621334Y-129594667D01*
X88454667Y-128861333D02*
X88288000Y-129361333D01*
X88721334Y-129361333D01*
X90161334Y-129594667D02*
X90161334Y-128894667D01*
X90328000Y-128894667D01*
X90428000Y-128928000D01*
X90494667Y-128994667D01*
X90528000Y-129061333D01*
X90561334Y-129194667D01*
X90561334Y-129294667D01*
X90528000Y-129428000D01*
X90494667Y-129494667D01*
X90428000Y-129561333D01*
X90328000Y-129594667D01*
X90161334Y-129594667D01*
X91194667Y-128894667D02*
X90861334Y-128894667D01*
X90828000Y-129228000D01*
X90861334Y-129194667D01*
X90928000Y-129161333D01*
X91094667Y-129161333D01*
X91161334Y-129194667D01*
X91194667Y-129228000D01*
X91228000Y-129294667D01*
X91228000Y-129461333D01*
X91194667Y-129528000D01*
X91161334Y-129561333D01*
X91094667Y-129594667D01*
X90928000Y-129594667D01*
X90861334Y-129561333D01*
X90828000Y-129528000D01*
X90411334Y-121708000D02*
X90944667Y-121708000D01*
X90678000Y-121974667D02*
X90678000Y-121441333D01*
X92701334Y-121974667D02*
X92701334Y-121274667D01*
X92868000Y-121274667D01*
X92968000Y-121308000D01*
X93034667Y-121374667D01*
X93068000Y-121441333D01*
X93101334Y-121574667D01*
X93101334Y-121674667D01*
X93068000Y-121808000D01*
X93034667Y-121874667D01*
X92968000Y-121941333D01*
X92868000Y-121974667D01*
X92701334Y-121974667D01*
X93334667Y-121274667D02*
X93768000Y-121274667D01*
X93534667Y-121541333D01*
X93634667Y-121541333D01*
X93701334Y-121574667D01*
X93734667Y-121608000D01*
X93768000Y-121674667D01*
X93768000Y-121841333D01*
X93734667Y-121908000D01*
X93701334Y-121941333D01*
X93634667Y-121974667D01*
X93434667Y-121974667D01*
X93368000Y-121941333D01*
X93334667Y-121908000D01*
X94908000Y-121974667D02*
X94908000Y-121274667D01*
X95074666Y-121274667D01*
X95174666Y-121308000D01*
X95241333Y-121374667D01*
X95274666Y-121441333D01*
X95308000Y-121574667D01*
X95308000Y-121674667D01*
X95274666Y-121808000D01*
X95241333Y-121874667D01*
X95174666Y-121941333D01*
X95074666Y-121974667D01*
X94908000Y-121974667D01*
X95974666Y-121974667D02*
X95574666Y-121974667D01*
X95774666Y-121974667D02*
X95774666Y-121274667D01*
X95708000Y-121374667D01*
X95641333Y-121441333D01*
X95574666Y-121474667D01*
X96241333Y-121341333D02*
X96274667Y-121308000D01*
X96341333Y-121274667D01*
X96508000Y-121274667D01*
X96574667Y-121308000D01*
X96608000Y-121341333D01*
X96641333Y-121408000D01*
X96641333Y-121474667D01*
X96608000Y-121574667D01*
X96208000Y-121974667D01*
X96641333Y-121974667D01*
X97448000Y-121974667D02*
X97448000Y-121274667D01*
X97614666Y-121274667D01*
X97714666Y-121308000D01*
X97781333Y-121374667D01*
X97814666Y-121441333D01*
X97848000Y-121574667D01*
X97848000Y-121674667D01*
X97814666Y-121808000D01*
X97781333Y-121874667D01*
X97714666Y-121941333D01*
X97614666Y-121974667D01*
X97448000Y-121974667D01*
X98514666Y-121974667D02*
X98114666Y-121974667D01*
X98314666Y-121974667D02*
X98314666Y-121274667D01*
X98248000Y-121374667D01*
X98181333Y-121441333D01*
X98114666Y-121474667D01*
X98748000Y-121274667D02*
X99181333Y-121274667D01*
X98948000Y-121541333D01*
X99048000Y-121541333D01*
X99114667Y-121574667D01*
X99148000Y-121608000D01*
X99181333Y-121674667D01*
X99181333Y-121841333D01*
X99148000Y-121908000D01*
X99114667Y-121941333D01*
X99048000Y-121974667D01*
X98848000Y-121974667D01*
X98781333Y-121941333D01*
X98748000Y-121908000D01*
X99988000Y-121974667D02*
X99988000Y-121274667D01*
X100154666Y-121274667D01*
X100254666Y-121308000D01*
X100321333Y-121374667D01*
X100354666Y-121441333D01*
X100388000Y-121574667D01*
X100388000Y-121674667D01*
X100354666Y-121808000D01*
X100321333Y-121874667D01*
X100254666Y-121941333D01*
X100154666Y-121974667D01*
X99988000Y-121974667D01*
X101054666Y-121974667D02*
X100654666Y-121974667D01*
X100854666Y-121974667D02*
X100854666Y-121274667D01*
X100788000Y-121374667D01*
X100721333Y-121441333D01*
X100654666Y-121474667D01*
X101654667Y-121508000D02*
X101654667Y-121974667D01*
X101488000Y-121241333D02*
X101321333Y-121741333D01*
X101754667Y-121741333D01*
X102844667Y-121308000D02*
X102778001Y-121274667D01*
X102678001Y-121274667D01*
X102578001Y-121308000D01*
X102511334Y-121374667D01*
X102478001Y-121441333D01*
X102444667Y-121574667D01*
X102444667Y-121674667D01*
X102478001Y-121808000D01*
X102511334Y-121874667D01*
X102578001Y-121941333D01*
X102678001Y-121974667D01*
X102744667Y-121974667D01*
X102844667Y-121941333D01*
X102878001Y-121908000D01*
X102878001Y-121674667D01*
X102744667Y-121674667D01*
X103178001Y-121974667D02*
X103178001Y-121274667D01*
X103578001Y-121974667D01*
X103578001Y-121274667D01*
X103911334Y-121974667D02*
X103911334Y-121274667D01*
X104078000Y-121274667D01*
X104178000Y-121308000D01*
X104244667Y-121374667D01*
X104278000Y-121441333D01*
X104311334Y-121574667D01*
X104311334Y-121674667D01*
X104278000Y-121808000D01*
X104244667Y-121874667D01*
X104178000Y-121941333D01*
X104078000Y-121974667D01*
X103911334Y-121974667D01*
X80251334Y-129328000D02*
X80784667Y-129328000D01*
X80518000Y-129594667D02*
X80518000Y-129061333D01*
X105680000Y-126354667D02*
X106113333Y-126354667D01*
X105880000Y-126621333D01*
X105980000Y-126621333D01*
X106046667Y-126654667D01*
X106080000Y-126688000D01*
X106113333Y-126754667D01*
X106113333Y-126921333D01*
X106080000Y-126988000D01*
X106046667Y-127021333D01*
X105980000Y-127054667D01*
X105780000Y-127054667D01*
X105713333Y-127021333D01*
X105680000Y-126988000D01*
X106413334Y-126988000D02*
X106446667Y-127021333D01*
X106413334Y-127054667D01*
X106380000Y-127021333D01*
X106413334Y-126988000D01*
X106413334Y-127054667D01*
X106680000Y-126354667D02*
X107113333Y-126354667D01*
X106880000Y-126621333D01*
X106980000Y-126621333D01*
X107046667Y-126654667D01*
X107080000Y-126688000D01*
X107113333Y-126754667D01*
X107113333Y-126921333D01*
X107080000Y-126988000D01*
X107046667Y-127021333D01*
X106980000Y-127054667D01*
X106780000Y-127054667D01*
X106713333Y-127021333D01*
X106680000Y-126988000D01*
X107346667Y-126588000D02*
X107513334Y-127054667D01*
X107680000Y-126588000D01*
X92701334Y-129594667D02*
X92701334Y-128894667D01*
X92868000Y-128894667D01*
X92968000Y-128928000D01*
X93034667Y-128994667D01*
X93068000Y-129061333D01*
X93101334Y-129194667D01*
X93101334Y-129294667D01*
X93068000Y-129428000D01*
X93034667Y-129494667D01*
X92968000Y-129561333D01*
X92868000Y-129594667D01*
X92701334Y-129594667D01*
X93334667Y-128894667D02*
X93768000Y-128894667D01*
X93534667Y-129161333D01*
X93634667Y-129161333D01*
X93701334Y-129194667D01*
X93734667Y-129228000D01*
X93768000Y-129294667D01*
X93768000Y-129461333D01*
X93734667Y-129528000D01*
X93701334Y-129561333D01*
X93634667Y-129594667D01*
X93434667Y-129594667D01*
X93368000Y-129561333D01*
X93334667Y-129528000D01*
X94908000Y-129594667D02*
X94908000Y-128894667D01*
X95074666Y-128894667D01*
X95174666Y-128928000D01*
X95241333Y-128994667D01*
X95274666Y-129061333D01*
X95308000Y-129194667D01*
X95308000Y-129294667D01*
X95274666Y-129428000D01*
X95241333Y-129494667D01*
X95174666Y-129561333D01*
X95074666Y-129594667D01*
X94908000Y-129594667D01*
X95974666Y-129594667D02*
X95574666Y-129594667D01*
X95774666Y-129594667D02*
X95774666Y-128894667D01*
X95708000Y-128994667D01*
X95641333Y-129061333D01*
X95574666Y-129094667D01*
X96241333Y-128961333D02*
X96274667Y-128928000D01*
X96341333Y-128894667D01*
X96508000Y-128894667D01*
X96574667Y-128928000D01*
X96608000Y-128961333D01*
X96641333Y-129028000D01*
X96641333Y-129094667D01*
X96608000Y-129194667D01*
X96208000Y-129594667D01*
X96641333Y-129594667D01*
X97448000Y-129594667D02*
X97448000Y-128894667D01*
X97614666Y-128894667D01*
X97714666Y-128928000D01*
X97781333Y-128994667D01*
X97814666Y-129061333D01*
X97848000Y-129194667D01*
X97848000Y-129294667D01*
X97814666Y-129428000D01*
X97781333Y-129494667D01*
X97714666Y-129561333D01*
X97614666Y-129594667D01*
X97448000Y-129594667D01*
X98514666Y-129594667D02*
X98114666Y-129594667D01*
X98314666Y-129594667D02*
X98314666Y-128894667D01*
X98248000Y-128994667D01*
X98181333Y-129061333D01*
X98114666Y-129094667D01*
X98748000Y-128894667D02*
X99181333Y-128894667D01*
X98948000Y-129161333D01*
X99048000Y-129161333D01*
X99114667Y-129194667D01*
X99148000Y-129228000D01*
X99181333Y-129294667D01*
X99181333Y-129461333D01*
X99148000Y-129528000D01*
X99114667Y-129561333D01*
X99048000Y-129594667D01*
X98848000Y-129594667D01*
X98781333Y-129561333D01*
X98748000Y-129528000D01*
X89833333Y-111200000D02*
X90066666Y-111200000D01*
X90166666Y-111566667D02*
X89833333Y-111566667D01*
X89833333Y-110866667D01*
X90166666Y-110866667D01*
X90433332Y-111533333D02*
X90533332Y-111566667D01*
X90699999Y-111566667D01*
X90766666Y-111533333D01*
X90799999Y-111500000D01*
X90833332Y-111433333D01*
X90833332Y-111366667D01*
X90799999Y-111300000D01*
X90766666Y-111266667D01*
X90699999Y-111233333D01*
X90566666Y-111200000D01*
X90499999Y-111166667D01*
X90466666Y-111133333D01*
X90433332Y-111066667D01*
X90433332Y-111000000D01*
X90466666Y-110933333D01*
X90499999Y-110900000D01*
X90566666Y-110866667D01*
X90733332Y-110866667D01*
X90833332Y-110900000D01*
X91133333Y-111566667D02*
X91133333Y-110866667D01*
X91399999Y-110866667D01*
X91466666Y-110900000D01*
X91499999Y-110933333D01*
X91533333Y-111000000D01*
X91533333Y-111100000D01*
X91499999Y-111166667D01*
X91466666Y-111200000D01*
X91399999Y-111233333D01*
X91133333Y-111233333D01*
X91933333Y-111166667D02*
X91866666Y-111133333D01*
X91833333Y-111100000D01*
X91799999Y-111033333D01*
X91799999Y-111000000D01*
X91833333Y-110933333D01*
X91866666Y-110900000D01*
X91933333Y-110866667D01*
X92066666Y-110866667D01*
X92133333Y-110900000D01*
X92166666Y-110933333D01*
X92199999Y-111000000D01*
X92199999Y-111033333D01*
X92166666Y-111100000D01*
X92133333Y-111133333D01*
X92066666Y-111166667D01*
X91933333Y-111166667D01*
X91866666Y-111200000D01*
X91833333Y-111233333D01*
X91799999Y-111300000D01*
X91799999Y-111433333D01*
X91833333Y-111500000D01*
X91866666Y-111533333D01*
X91933333Y-111566667D01*
X92066666Y-111566667D01*
X92133333Y-111533333D01*
X92166666Y-111500000D01*
X92199999Y-111433333D01*
X92199999Y-111300000D01*
X92166666Y-111233333D01*
X92133333Y-111200000D01*
X92066666Y-111166667D01*
X92466666Y-110933333D02*
X92500000Y-110900000D01*
X92566666Y-110866667D01*
X92733333Y-110866667D01*
X92800000Y-110900000D01*
X92833333Y-110933333D01*
X92866666Y-111000000D01*
X92866666Y-111066667D01*
X92833333Y-111166667D01*
X92433333Y-111566667D01*
X92866666Y-111566667D01*
X93466667Y-110866667D02*
X93333333Y-110866667D01*
X93266667Y-110900000D01*
X93233333Y-110933333D01*
X93166667Y-111033333D01*
X93133333Y-111166667D01*
X93133333Y-111433333D01*
X93166667Y-111500000D01*
X93200000Y-111533333D01*
X93266667Y-111566667D01*
X93400000Y-111566667D01*
X93466667Y-111533333D01*
X93500000Y-111500000D01*
X93533333Y-111433333D01*
X93533333Y-111266667D01*
X93500000Y-111200000D01*
X93466667Y-111166667D01*
X93400000Y-111133333D01*
X93266667Y-111133333D01*
X93200000Y-111166667D01*
X93166667Y-111200000D01*
X93133333Y-111266667D01*
X94133334Y-110866667D02*
X94000000Y-110866667D01*
X93933334Y-110900000D01*
X93900000Y-110933333D01*
X93833334Y-111033333D01*
X93800000Y-111166667D01*
X93800000Y-111433333D01*
X93833334Y-111500000D01*
X93866667Y-111533333D01*
X93933334Y-111566667D01*
X94066667Y-111566667D01*
X94133334Y-111533333D01*
X94166667Y-111500000D01*
X94200000Y-111433333D01*
X94200000Y-111266667D01*
X94166667Y-111200000D01*
X94133334Y-111166667D01*
X94066667Y-111133333D01*
X93933334Y-111133333D01*
X93866667Y-111166667D01*
X93833334Y-111200000D01*
X93800000Y-111266667D01*
X116466667Y-129833333D02*
X116433333Y-129800000D01*
X116366667Y-129700000D01*
X116333333Y-129633333D01*
X116300000Y-129533333D01*
X116266667Y-129366667D01*
X116266667Y-129233333D01*
X116300000Y-129066667D01*
X116333333Y-128966667D01*
X116366667Y-128900000D01*
X116433333Y-128800000D01*
X116466667Y-128766667D01*
X116733334Y-129300000D02*
X117266667Y-129300000D01*
X117533334Y-129833333D02*
X117566667Y-129800000D01*
X117633334Y-129700000D01*
X117666667Y-129633333D01*
X117700001Y-129533333D01*
X117733334Y-129366667D01*
X117733334Y-129233333D01*
X117700001Y-129066667D01*
X117666667Y-128966667D01*
X117633334Y-128900000D01*
X117566667Y-128800000D01*
X117533334Y-128766667D01*
X121100000Y-129300000D02*
X121633333Y-129300000D01*
X121366666Y-129566667D02*
X121366666Y-129033333D01*
X122300000Y-128866667D02*
X121966667Y-128866667D01*
X121933333Y-129200000D01*
X121966667Y-129166667D01*
X122033333Y-129133333D01*
X122200000Y-129133333D01*
X122266667Y-129166667D01*
X122300000Y-129200000D01*
X122333333Y-129266667D01*
X122333333Y-129433333D01*
X122300000Y-129500000D01*
X122266667Y-129533333D01*
X122200000Y-129566667D01*
X122033333Y-129566667D01*
X121966667Y-129533333D01*
X121933333Y-129500000D01*
X122533334Y-128866667D02*
X122766667Y-129566667D01*
X123000000Y-128866667D01*
X102844667Y-128928000D02*
X102778001Y-128894667D01*
X102678001Y-128894667D01*
X102578001Y-128928000D01*
X102511334Y-128994667D01*
X102478001Y-129061333D01*
X102444667Y-129194667D01*
X102444667Y-129294667D01*
X102478001Y-129428000D01*
X102511334Y-129494667D01*
X102578001Y-129561333D01*
X102678001Y-129594667D01*
X102744667Y-129594667D01*
X102844667Y-129561333D01*
X102878001Y-129528000D01*
X102878001Y-129294667D01*
X102744667Y-129294667D01*
X103178001Y-129594667D02*
X103178001Y-128894667D01*
X103578001Y-129594667D01*
X103578001Y-128894667D01*
X103911334Y-129594667D02*
X103911334Y-128894667D01*
X104078000Y-128894667D01*
X104178000Y-128928000D01*
X104244667Y-128994667D01*
X104278000Y-129061333D01*
X104311334Y-129194667D01*
X104311334Y-129294667D01*
X104278000Y-129428000D01*
X104244667Y-129494667D01*
X104178000Y-129561333D01*
X104078000Y-129594667D01*
X103911334Y-129594667D01*
X99988000Y-129594667D02*
X99988000Y-128894667D01*
X100154666Y-128894667D01*
X100254666Y-128928000D01*
X100321333Y-128994667D01*
X100354666Y-129061333D01*
X100388000Y-129194667D01*
X100388000Y-129294667D01*
X100354666Y-129428000D01*
X100321333Y-129494667D01*
X100254666Y-129561333D01*
X100154666Y-129594667D01*
X99988000Y-129594667D01*
X101054666Y-129594667D02*
X100654666Y-129594667D01*
X100854666Y-129594667D02*
X100854666Y-128894667D01*
X100788000Y-128994667D01*
X100721333Y-129061333D01*
X100654666Y-129094667D01*
X101654667Y-129128000D02*
X101654667Y-129594667D01*
X101488000Y-128861333D02*
X101321333Y-129361333D01*
X101754667Y-129361333D01*
X106072000Y-123814667D02*
X105738667Y-123814667D01*
X105705333Y-124148000D01*
X105738667Y-124114667D01*
X105805333Y-124081333D01*
X105972000Y-124081333D01*
X106038667Y-124114667D01*
X106072000Y-124148000D01*
X106105333Y-124214667D01*
X106105333Y-124381333D01*
X106072000Y-124448000D01*
X106038667Y-124481333D01*
X105972000Y-124514667D01*
X105805333Y-124514667D01*
X105738667Y-124481333D01*
X105705333Y-124448000D01*
X106338667Y-124048000D02*
X106505334Y-124514667D01*
X106672000Y-124048000D01*
X106072000Y-91814667D02*
X105738667Y-91814667D01*
X105705333Y-92148000D01*
X105738667Y-92114667D01*
X105805333Y-92081333D01*
X105972000Y-92081333D01*
X106038667Y-92114667D01*
X106072000Y-92148000D01*
X106105333Y-92214667D01*
X106105333Y-92381333D01*
X106072000Y-92448000D01*
X106038667Y-92481333D01*
X105972000Y-92514667D01*
X105805333Y-92514667D01*
X105738667Y-92481333D01*
X105705333Y-92448000D01*
X106338667Y-92048000D02*
X106505334Y-92514667D01*
X106672000Y-92048000D01*
X99988000Y-97594667D02*
X99988000Y-96894667D01*
X100154666Y-96894667D01*
X100254666Y-96928000D01*
X100321333Y-96994667D01*
X100354666Y-97061333D01*
X100388000Y-97194667D01*
X100388000Y-97294667D01*
X100354666Y-97428000D01*
X100321333Y-97494667D01*
X100254666Y-97561333D01*
X100154666Y-97594667D01*
X99988000Y-97594667D01*
X101054666Y-97594667D02*
X100654666Y-97594667D01*
X100854666Y-97594667D02*
X100854666Y-96894667D01*
X100788000Y-96994667D01*
X100721333Y-97061333D01*
X100654666Y-97094667D01*
X101654667Y-97128000D02*
X101654667Y-97594667D01*
X101488000Y-96861333D02*
X101321333Y-97361333D01*
X101754667Y-97361333D01*
X102844667Y-96928000D02*
X102778001Y-96894667D01*
X102678001Y-96894667D01*
X102578001Y-96928000D01*
X102511334Y-96994667D01*
X102478001Y-97061333D01*
X102444667Y-97194667D01*
X102444667Y-97294667D01*
X102478001Y-97428000D01*
X102511334Y-97494667D01*
X102578001Y-97561333D01*
X102678001Y-97594667D01*
X102744667Y-97594667D01*
X102844667Y-97561333D01*
X102878001Y-97528000D01*
X102878001Y-97294667D01*
X102744667Y-97294667D01*
X103178001Y-97594667D02*
X103178001Y-96894667D01*
X103578001Y-97594667D01*
X103578001Y-96894667D01*
X103911334Y-97594667D02*
X103911334Y-96894667D01*
X104078000Y-96894667D01*
X104178000Y-96928000D01*
X104244667Y-96994667D01*
X104278000Y-97061333D01*
X104311334Y-97194667D01*
X104311334Y-97294667D01*
X104278000Y-97428000D01*
X104244667Y-97494667D01*
X104178000Y-97561333D01*
X104078000Y-97594667D01*
X103911334Y-97594667D01*
X121100000Y-97300000D02*
X121633333Y-97300000D01*
X121366666Y-97566667D02*
X121366666Y-97033333D01*
X122300000Y-96866667D02*
X121966667Y-96866667D01*
X121933333Y-97200000D01*
X121966667Y-97166667D01*
X122033333Y-97133333D01*
X122200000Y-97133333D01*
X122266667Y-97166667D01*
X122300000Y-97200000D01*
X122333333Y-97266667D01*
X122333333Y-97433333D01*
X122300000Y-97500000D01*
X122266667Y-97533333D01*
X122200000Y-97566667D01*
X122033333Y-97566667D01*
X121966667Y-97533333D01*
X121933333Y-97500000D01*
X122533334Y-96866667D02*
X122766667Y-97566667D01*
X123000000Y-96866667D01*
X116466667Y-97833333D02*
X116433333Y-97800000D01*
X116366667Y-97700000D01*
X116333333Y-97633333D01*
X116300000Y-97533333D01*
X116266667Y-97366667D01*
X116266667Y-97233333D01*
X116300000Y-97066667D01*
X116333333Y-96966667D01*
X116366667Y-96900000D01*
X116433333Y-96800000D01*
X116466667Y-96766667D01*
X116733334Y-97300000D02*
X117266667Y-97300000D01*
X117533334Y-97833333D02*
X117566667Y-97800000D01*
X117633334Y-97700000D01*
X117666667Y-97633333D01*
X117700001Y-97533333D01*
X117733334Y-97366667D01*
X117733334Y-97233333D01*
X117700001Y-97066667D01*
X117666667Y-96966667D01*
X117633334Y-96900000D01*
X117566667Y-96800000D01*
X117533334Y-96766667D01*
X89833333Y-79200000D02*
X90066666Y-79200000D01*
X90166666Y-79566667D02*
X89833333Y-79566667D01*
X89833333Y-78866667D01*
X90166666Y-78866667D01*
X90433332Y-79533333D02*
X90533332Y-79566667D01*
X90699999Y-79566667D01*
X90766666Y-79533333D01*
X90799999Y-79500000D01*
X90833332Y-79433333D01*
X90833332Y-79366667D01*
X90799999Y-79300000D01*
X90766666Y-79266667D01*
X90699999Y-79233333D01*
X90566666Y-79200000D01*
X90499999Y-79166667D01*
X90466666Y-79133333D01*
X90433332Y-79066667D01*
X90433332Y-79000000D01*
X90466666Y-78933333D01*
X90499999Y-78900000D01*
X90566666Y-78866667D01*
X90733332Y-78866667D01*
X90833332Y-78900000D01*
X91133333Y-79566667D02*
X91133333Y-78866667D01*
X91399999Y-78866667D01*
X91466666Y-78900000D01*
X91499999Y-78933333D01*
X91533333Y-79000000D01*
X91533333Y-79100000D01*
X91499999Y-79166667D01*
X91466666Y-79200000D01*
X91399999Y-79233333D01*
X91133333Y-79233333D01*
X91933333Y-79166667D02*
X91866666Y-79133333D01*
X91833333Y-79100000D01*
X91799999Y-79033333D01*
X91799999Y-79000000D01*
X91833333Y-78933333D01*
X91866666Y-78900000D01*
X91933333Y-78866667D01*
X92066666Y-78866667D01*
X92133333Y-78900000D01*
X92166666Y-78933333D01*
X92199999Y-79000000D01*
X92199999Y-79033333D01*
X92166666Y-79100000D01*
X92133333Y-79133333D01*
X92066666Y-79166667D01*
X91933333Y-79166667D01*
X91866666Y-79200000D01*
X91833333Y-79233333D01*
X91799999Y-79300000D01*
X91799999Y-79433333D01*
X91833333Y-79500000D01*
X91866666Y-79533333D01*
X91933333Y-79566667D01*
X92066666Y-79566667D01*
X92133333Y-79533333D01*
X92166666Y-79500000D01*
X92199999Y-79433333D01*
X92199999Y-79300000D01*
X92166666Y-79233333D01*
X92133333Y-79200000D01*
X92066666Y-79166667D01*
X92466666Y-78933333D02*
X92500000Y-78900000D01*
X92566666Y-78866667D01*
X92733333Y-78866667D01*
X92800000Y-78900000D01*
X92833333Y-78933333D01*
X92866666Y-79000000D01*
X92866666Y-79066667D01*
X92833333Y-79166667D01*
X92433333Y-79566667D01*
X92866666Y-79566667D01*
X93466667Y-78866667D02*
X93333333Y-78866667D01*
X93266667Y-78900000D01*
X93233333Y-78933333D01*
X93166667Y-79033333D01*
X93133333Y-79166667D01*
X93133333Y-79433333D01*
X93166667Y-79500000D01*
X93200000Y-79533333D01*
X93266667Y-79566667D01*
X93400000Y-79566667D01*
X93466667Y-79533333D01*
X93500000Y-79500000D01*
X93533333Y-79433333D01*
X93533333Y-79266667D01*
X93500000Y-79200000D01*
X93466667Y-79166667D01*
X93400000Y-79133333D01*
X93266667Y-79133333D01*
X93200000Y-79166667D01*
X93166667Y-79200000D01*
X93133333Y-79266667D01*
X94133334Y-78866667D02*
X94000000Y-78866667D01*
X93933334Y-78900000D01*
X93900000Y-78933333D01*
X93833334Y-79033333D01*
X93800000Y-79166667D01*
X93800000Y-79433333D01*
X93833334Y-79500000D01*
X93866667Y-79533333D01*
X93933334Y-79566667D01*
X94066667Y-79566667D01*
X94133334Y-79533333D01*
X94166667Y-79500000D01*
X94200000Y-79433333D01*
X94200000Y-79266667D01*
X94166667Y-79200000D01*
X94133334Y-79166667D01*
X94066667Y-79133333D01*
X93933334Y-79133333D01*
X93866667Y-79166667D01*
X93833334Y-79200000D01*
X93800000Y-79266667D01*
X97448000Y-97594667D02*
X97448000Y-96894667D01*
X97614666Y-96894667D01*
X97714666Y-96928000D01*
X97781333Y-96994667D01*
X97814666Y-97061333D01*
X97848000Y-97194667D01*
X97848000Y-97294667D01*
X97814666Y-97428000D01*
X97781333Y-97494667D01*
X97714666Y-97561333D01*
X97614666Y-97594667D01*
X97448000Y-97594667D01*
X98514666Y-97594667D02*
X98114666Y-97594667D01*
X98314666Y-97594667D02*
X98314666Y-96894667D01*
X98248000Y-96994667D01*
X98181333Y-97061333D01*
X98114666Y-97094667D01*
X98748000Y-96894667D02*
X99181333Y-96894667D01*
X98948000Y-97161333D01*
X99048000Y-97161333D01*
X99114667Y-97194667D01*
X99148000Y-97228000D01*
X99181333Y-97294667D01*
X99181333Y-97461333D01*
X99148000Y-97528000D01*
X99114667Y-97561333D01*
X99048000Y-97594667D01*
X98848000Y-97594667D01*
X98781333Y-97561333D01*
X98748000Y-97528000D01*
X94908000Y-97594667D02*
X94908000Y-96894667D01*
X95074666Y-96894667D01*
X95174666Y-96928000D01*
X95241333Y-96994667D01*
X95274666Y-97061333D01*
X95308000Y-97194667D01*
X95308000Y-97294667D01*
X95274666Y-97428000D01*
X95241333Y-97494667D01*
X95174666Y-97561333D01*
X95074666Y-97594667D01*
X94908000Y-97594667D01*
X95974666Y-97594667D02*
X95574666Y-97594667D01*
X95774666Y-97594667D02*
X95774666Y-96894667D01*
X95708000Y-96994667D01*
X95641333Y-97061333D01*
X95574666Y-97094667D01*
X96241333Y-96961333D02*
X96274667Y-96928000D01*
X96341333Y-96894667D01*
X96508000Y-96894667D01*
X96574667Y-96928000D01*
X96608000Y-96961333D01*
X96641333Y-97028000D01*
X96641333Y-97094667D01*
X96608000Y-97194667D01*
X96208000Y-97594667D01*
X96641333Y-97594667D01*
X92701334Y-97594667D02*
X92701334Y-96894667D01*
X92868000Y-96894667D01*
X92968000Y-96928000D01*
X93034667Y-96994667D01*
X93068000Y-97061333D01*
X93101334Y-97194667D01*
X93101334Y-97294667D01*
X93068000Y-97428000D01*
X93034667Y-97494667D01*
X92968000Y-97561333D01*
X92868000Y-97594667D01*
X92701334Y-97594667D01*
X93334667Y-96894667D02*
X93768000Y-96894667D01*
X93534667Y-97161333D01*
X93634667Y-97161333D01*
X93701334Y-97194667D01*
X93734667Y-97228000D01*
X93768000Y-97294667D01*
X93768000Y-97461333D01*
X93734667Y-97528000D01*
X93701334Y-97561333D01*
X93634667Y-97594667D01*
X93434667Y-97594667D01*
X93368000Y-97561333D01*
X93334667Y-97528000D01*
X105680000Y-94354667D02*
X106113333Y-94354667D01*
X105880000Y-94621333D01*
X105980000Y-94621333D01*
X106046667Y-94654667D01*
X106080000Y-94688000D01*
X106113333Y-94754667D01*
X106113333Y-94921333D01*
X106080000Y-94988000D01*
X106046667Y-95021333D01*
X105980000Y-95054667D01*
X105780000Y-95054667D01*
X105713333Y-95021333D01*
X105680000Y-94988000D01*
X106413334Y-94988000D02*
X106446667Y-95021333D01*
X106413334Y-95054667D01*
X106380000Y-95021333D01*
X106413334Y-94988000D01*
X106413334Y-95054667D01*
X106680000Y-94354667D02*
X107113333Y-94354667D01*
X106880000Y-94621333D01*
X106980000Y-94621333D01*
X107046667Y-94654667D01*
X107080000Y-94688000D01*
X107113333Y-94754667D01*
X107113333Y-94921333D01*
X107080000Y-94988000D01*
X107046667Y-95021333D01*
X106980000Y-95054667D01*
X106780000Y-95054667D01*
X106713333Y-95021333D01*
X106680000Y-94988000D01*
X107346667Y-94588000D02*
X107513334Y-95054667D01*
X107680000Y-94588000D01*
X80251334Y-97328000D02*
X80784667Y-97328000D01*
X80518000Y-97594667D02*
X80518000Y-97061333D01*
X102844667Y-89308000D02*
X102778001Y-89274667D01*
X102678001Y-89274667D01*
X102578001Y-89308000D01*
X102511334Y-89374667D01*
X102478001Y-89441333D01*
X102444667Y-89574667D01*
X102444667Y-89674667D01*
X102478001Y-89808000D01*
X102511334Y-89874667D01*
X102578001Y-89941333D01*
X102678001Y-89974667D01*
X102744667Y-89974667D01*
X102844667Y-89941333D01*
X102878001Y-89908000D01*
X102878001Y-89674667D01*
X102744667Y-89674667D01*
X103178001Y-89974667D02*
X103178001Y-89274667D01*
X103578001Y-89974667D01*
X103578001Y-89274667D01*
X103911334Y-89974667D02*
X103911334Y-89274667D01*
X104078000Y-89274667D01*
X104178000Y-89308000D01*
X104244667Y-89374667D01*
X104278000Y-89441333D01*
X104311334Y-89574667D01*
X104311334Y-89674667D01*
X104278000Y-89808000D01*
X104244667Y-89874667D01*
X104178000Y-89941333D01*
X104078000Y-89974667D01*
X103911334Y-89974667D01*
X99988000Y-89974667D02*
X99988000Y-89274667D01*
X100154666Y-89274667D01*
X100254666Y-89308000D01*
X100321333Y-89374667D01*
X100354666Y-89441333D01*
X100388000Y-89574667D01*
X100388000Y-89674667D01*
X100354666Y-89808000D01*
X100321333Y-89874667D01*
X100254666Y-89941333D01*
X100154666Y-89974667D01*
X99988000Y-89974667D01*
X101054666Y-89974667D02*
X100654666Y-89974667D01*
X100854666Y-89974667D02*
X100854666Y-89274667D01*
X100788000Y-89374667D01*
X100721333Y-89441333D01*
X100654666Y-89474667D01*
X101654667Y-89508000D02*
X101654667Y-89974667D01*
X101488000Y-89241333D02*
X101321333Y-89741333D01*
X101754667Y-89741333D01*
X97448000Y-89974667D02*
X97448000Y-89274667D01*
X97614666Y-89274667D01*
X97714666Y-89308000D01*
X97781333Y-89374667D01*
X97814666Y-89441333D01*
X97848000Y-89574667D01*
X97848000Y-89674667D01*
X97814666Y-89808000D01*
X97781333Y-89874667D01*
X97714666Y-89941333D01*
X97614666Y-89974667D01*
X97448000Y-89974667D01*
X98514666Y-89974667D02*
X98114666Y-89974667D01*
X98314666Y-89974667D02*
X98314666Y-89274667D01*
X98248000Y-89374667D01*
X98181333Y-89441333D01*
X98114666Y-89474667D01*
X98748000Y-89274667D02*
X99181333Y-89274667D01*
X98948000Y-89541333D01*
X99048000Y-89541333D01*
X99114667Y-89574667D01*
X99148000Y-89608000D01*
X99181333Y-89674667D01*
X99181333Y-89841333D01*
X99148000Y-89908000D01*
X99114667Y-89941333D01*
X99048000Y-89974667D01*
X98848000Y-89974667D01*
X98781333Y-89941333D01*
X98748000Y-89908000D01*
X94908000Y-89974667D02*
X94908000Y-89274667D01*
X95074666Y-89274667D01*
X95174666Y-89308000D01*
X95241333Y-89374667D01*
X95274666Y-89441333D01*
X95308000Y-89574667D01*
X95308000Y-89674667D01*
X95274666Y-89808000D01*
X95241333Y-89874667D01*
X95174666Y-89941333D01*
X95074666Y-89974667D01*
X94908000Y-89974667D01*
X95974666Y-89974667D02*
X95574666Y-89974667D01*
X95774666Y-89974667D02*
X95774666Y-89274667D01*
X95708000Y-89374667D01*
X95641333Y-89441333D01*
X95574666Y-89474667D01*
X96241333Y-89341333D02*
X96274667Y-89308000D01*
X96341333Y-89274667D01*
X96508000Y-89274667D01*
X96574667Y-89308000D01*
X96608000Y-89341333D01*
X96641333Y-89408000D01*
X96641333Y-89474667D01*
X96608000Y-89574667D01*
X96208000Y-89974667D01*
X96641333Y-89974667D01*
X92701334Y-89974667D02*
X92701334Y-89274667D01*
X92868000Y-89274667D01*
X92968000Y-89308000D01*
X93034667Y-89374667D01*
X93068000Y-89441333D01*
X93101334Y-89574667D01*
X93101334Y-89674667D01*
X93068000Y-89808000D01*
X93034667Y-89874667D01*
X92968000Y-89941333D01*
X92868000Y-89974667D01*
X92701334Y-89974667D01*
X93334667Y-89274667D02*
X93768000Y-89274667D01*
X93534667Y-89541333D01*
X93634667Y-89541333D01*
X93701334Y-89574667D01*
X93734667Y-89608000D01*
X93768000Y-89674667D01*
X93768000Y-89841333D01*
X93734667Y-89908000D01*
X93701334Y-89941333D01*
X93634667Y-89974667D01*
X93434667Y-89974667D01*
X93368000Y-89941333D01*
X93334667Y-89908000D01*
X90411334Y-89708000D02*
X90944667Y-89708000D01*
X90678000Y-89974667D02*
X90678000Y-89441333D01*
X90161334Y-97594667D02*
X90161334Y-96894667D01*
X90328000Y-96894667D01*
X90428000Y-96928000D01*
X90494667Y-96994667D01*
X90528000Y-97061333D01*
X90561334Y-97194667D01*
X90561334Y-97294667D01*
X90528000Y-97428000D01*
X90494667Y-97494667D01*
X90428000Y-97561333D01*
X90328000Y-97594667D01*
X90161334Y-97594667D01*
X91194667Y-96894667D02*
X90861334Y-96894667D01*
X90828000Y-97228000D01*
X90861334Y-97194667D01*
X90928000Y-97161333D01*
X91094667Y-97161333D01*
X91161334Y-97194667D01*
X91194667Y-97228000D01*
X91228000Y-97294667D01*
X91228000Y-97461333D01*
X91194667Y-97528000D01*
X91161334Y-97561333D01*
X91094667Y-97594667D01*
X90928000Y-97594667D01*
X90861334Y-97561333D01*
X90828000Y-97528000D01*
X87621334Y-97594667D02*
X87621334Y-96894667D01*
X87788000Y-96894667D01*
X87888000Y-96928000D01*
X87954667Y-96994667D01*
X87988000Y-97061333D01*
X88021334Y-97194667D01*
X88021334Y-97294667D01*
X87988000Y-97428000D01*
X87954667Y-97494667D01*
X87888000Y-97561333D01*
X87788000Y-97594667D01*
X87621334Y-97594667D01*
X88621334Y-97128000D02*
X88621334Y-97594667D01*
X88454667Y-96861333D02*
X88288000Y-97361333D01*
X88721334Y-97361333D01*
X85081334Y-97594667D02*
X85081334Y-96894667D01*
X85248000Y-96894667D01*
X85348000Y-96928000D01*
X85414667Y-96994667D01*
X85448000Y-97061333D01*
X85481334Y-97194667D01*
X85481334Y-97294667D01*
X85448000Y-97428000D01*
X85414667Y-97494667D01*
X85348000Y-97561333D01*
X85248000Y-97594667D01*
X85081334Y-97594667D01*
X85748000Y-96961333D02*
X85781334Y-96928000D01*
X85848000Y-96894667D01*
X86014667Y-96894667D01*
X86081334Y-96928000D01*
X86114667Y-96961333D01*
X86148000Y-97028000D01*
X86148000Y-97094667D01*
X86114667Y-97194667D01*
X85714667Y-97594667D01*
X86148000Y-97594667D01*
X82191333Y-97394667D02*
X82524667Y-97394667D01*
X82124667Y-97594667D02*
X82358000Y-96894667D01*
X82591333Y-97594667D01*
X82824667Y-97594667D02*
X82824667Y-96894667D01*
X82991333Y-96894667D01*
X83091333Y-96928000D01*
X83158000Y-96994667D01*
X83191333Y-97061333D01*
X83224667Y-97194667D01*
X83224667Y-97294667D01*
X83191333Y-97428000D01*
X83158000Y-97494667D01*
X83091333Y-97561333D01*
X82991333Y-97594667D01*
X82824667Y-97594667D01*
X83924667Y-97528000D02*
X83891333Y-97561333D01*
X83791333Y-97594667D01*
X83724667Y-97594667D01*
X83624667Y-97561333D01*
X83558000Y-97494667D01*
X83524667Y-97428000D01*
X83491333Y-97294667D01*
X83491333Y-97194667D01*
X83524667Y-97061333D01*
X83558000Y-96994667D01*
X83624667Y-96928000D01*
X83724667Y-96894667D01*
X83791333Y-96894667D01*
X83891333Y-96928000D01*
X83924667Y-96961333D01*
X135178000Y-93480666D02*
X135178000Y-92947333D01*
X135178000Y-81288666D02*
X135178000Y-80755333D01*
X135444667Y-81022000D02*
X134911333Y-81022000D01*
X115798667Y-68192667D02*
X116198667Y-68192667D01*
X115998667Y-68892667D02*
X115998667Y-68192667D01*
X116365333Y-68192667D02*
X116832000Y-68892667D01*
X116832000Y-68192667D02*
X116365333Y-68892667D01*
X118755334Y-68892667D02*
X118522000Y-68559333D01*
X118355334Y-68892667D02*
X118355334Y-68192667D01*
X118622000Y-68192667D01*
X118688667Y-68226000D01*
X118722000Y-68259333D01*
X118755334Y-68326000D01*
X118755334Y-68426000D01*
X118722000Y-68492667D01*
X118688667Y-68526000D01*
X118622000Y-68559333D01*
X118355334Y-68559333D01*
X118988667Y-68192667D02*
X119455334Y-68892667D01*
X119455334Y-68192667D02*
X118988667Y-68892667D01*
X126212667Y-72290000D02*
X126146001Y-72256667D01*
X126046001Y-72256667D01*
X125946001Y-72290000D01*
X125879334Y-72356667D01*
X125846001Y-72423333D01*
X125812667Y-72556667D01*
X125812667Y-72656667D01*
X125846001Y-72790000D01*
X125879334Y-72856667D01*
X125946001Y-72923333D01*
X126046001Y-72956667D01*
X126112667Y-72956667D01*
X126212667Y-72923333D01*
X126246001Y-72890000D01*
X126246001Y-72656667D01*
X126112667Y-72656667D01*
X126546001Y-72956667D02*
X126546001Y-72256667D01*
X126946001Y-72956667D01*
X126946001Y-72256667D01*
X127279334Y-72956667D02*
X127279334Y-72256667D01*
X127446000Y-72256667D01*
X127546000Y-72290000D01*
X127612667Y-72356667D01*
X127646000Y-72423333D01*
X127679334Y-72556667D01*
X127679334Y-72656667D01*
X127646000Y-72790000D01*
X127612667Y-72856667D01*
X127546000Y-72923333D01*
X127446000Y-72956667D01*
X127279334Y-72956667D01*
D12*
X75946000Y-87626000D02*
G75*
G03X75946000Y-87626000I-254000J0D01*
G01*
X75946000Y-55626000D02*
G75*
G03X75946000Y-55626000I-254000J0D01*
G01*
D11*
X126212667Y-40290000D02*
X126146001Y-40256667D01*
X126046001Y-40256667D01*
X125946001Y-40290000D01*
X125879334Y-40356667D01*
X125846001Y-40423333D01*
X125812667Y-40556667D01*
X125812667Y-40656667D01*
X125846001Y-40790000D01*
X125879334Y-40856667D01*
X125946001Y-40923333D01*
X126046001Y-40956667D01*
X126112667Y-40956667D01*
X126212667Y-40923333D01*
X126246001Y-40890000D01*
X126246001Y-40656667D01*
X126112667Y-40656667D01*
X126546001Y-40956667D02*
X126546001Y-40256667D01*
X126946001Y-40956667D01*
X126946001Y-40256667D01*
X127279334Y-40956667D02*
X127279334Y-40256667D01*
X127446000Y-40256667D01*
X127546000Y-40290000D01*
X127612667Y-40356667D01*
X127646000Y-40423333D01*
X127679334Y-40556667D01*
X127679334Y-40656667D01*
X127646000Y-40790000D01*
X127612667Y-40856667D01*
X127546000Y-40923333D01*
X127446000Y-40956667D01*
X127279334Y-40956667D01*
X118755334Y-36892667D02*
X118522000Y-36559333D01*
X118355334Y-36892667D02*
X118355334Y-36192667D01*
X118622000Y-36192667D01*
X118688667Y-36226000D01*
X118722000Y-36259333D01*
X118755334Y-36326000D01*
X118755334Y-36426000D01*
X118722000Y-36492667D01*
X118688667Y-36526000D01*
X118622000Y-36559333D01*
X118355334Y-36559333D01*
X118988667Y-36192667D02*
X119455334Y-36892667D01*
X119455334Y-36192667D02*
X118988667Y-36892667D01*
X115798667Y-36192667D02*
X116198667Y-36192667D01*
X115998667Y-36892667D02*
X115998667Y-36192667D01*
X116365333Y-36192667D02*
X116832000Y-36892667D01*
X116832000Y-36192667D02*
X116365333Y-36892667D01*
X135178000Y-49288666D02*
X135178000Y-48755333D01*
X135444667Y-49022000D02*
X134911333Y-49022000D01*
X135178000Y-61480666D02*
X135178000Y-60947333D01*
X82191333Y-65394667D02*
X82524667Y-65394667D01*
X82124667Y-65594667D02*
X82358000Y-64894667D01*
X82591333Y-65594667D01*
X82824667Y-65594667D02*
X82824667Y-64894667D01*
X82991333Y-64894667D01*
X83091333Y-64928000D01*
X83158000Y-64994667D01*
X83191333Y-65061333D01*
X83224667Y-65194667D01*
X83224667Y-65294667D01*
X83191333Y-65428000D01*
X83158000Y-65494667D01*
X83091333Y-65561333D01*
X82991333Y-65594667D01*
X82824667Y-65594667D01*
X83924667Y-65528000D02*
X83891333Y-65561333D01*
X83791333Y-65594667D01*
X83724667Y-65594667D01*
X83624667Y-65561333D01*
X83558000Y-65494667D01*
X83524667Y-65428000D01*
X83491333Y-65294667D01*
X83491333Y-65194667D01*
X83524667Y-65061333D01*
X83558000Y-64994667D01*
X83624667Y-64928000D01*
X83724667Y-64894667D01*
X83791333Y-64894667D01*
X83891333Y-64928000D01*
X83924667Y-64961333D01*
X85081334Y-65594667D02*
X85081334Y-64894667D01*
X85248000Y-64894667D01*
X85348000Y-64928000D01*
X85414667Y-64994667D01*
X85448000Y-65061333D01*
X85481334Y-65194667D01*
X85481334Y-65294667D01*
X85448000Y-65428000D01*
X85414667Y-65494667D01*
X85348000Y-65561333D01*
X85248000Y-65594667D01*
X85081334Y-65594667D01*
X85748000Y-64961333D02*
X85781334Y-64928000D01*
X85848000Y-64894667D01*
X86014667Y-64894667D01*
X86081334Y-64928000D01*
X86114667Y-64961333D01*
X86148000Y-65028000D01*
X86148000Y-65094667D01*
X86114667Y-65194667D01*
X85714667Y-65594667D01*
X86148000Y-65594667D01*
X87621334Y-65594667D02*
X87621334Y-64894667D01*
X87788000Y-64894667D01*
X87888000Y-64928000D01*
X87954667Y-64994667D01*
X87988000Y-65061333D01*
X88021334Y-65194667D01*
X88021334Y-65294667D01*
X87988000Y-65428000D01*
X87954667Y-65494667D01*
X87888000Y-65561333D01*
X87788000Y-65594667D01*
X87621334Y-65594667D01*
X88621334Y-65128000D02*
X88621334Y-65594667D01*
X88454667Y-64861333D02*
X88288000Y-65361333D01*
X88721334Y-65361333D01*
X90161334Y-65594667D02*
X90161334Y-64894667D01*
X90328000Y-64894667D01*
X90428000Y-64928000D01*
X90494667Y-64994667D01*
X90528000Y-65061333D01*
X90561334Y-65194667D01*
X90561334Y-65294667D01*
X90528000Y-65428000D01*
X90494667Y-65494667D01*
X90428000Y-65561333D01*
X90328000Y-65594667D01*
X90161334Y-65594667D01*
X91194667Y-64894667D02*
X90861334Y-64894667D01*
X90828000Y-65228000D01*
X90861334Y-65194667D01*
X90928000Y-65161333D01*
X91094667Y-65161333D01*
X91161334Y-65194667D01*
X91194667Y-65228000D01*
X91228000Y-65294667D01*
X91228000Y-65461333D01*
X91194667Y-65528000D01*
X91161334Y-65561333D01*
X91094667Y-65594667D01*
X90928000Y-65594667D01*
X90861334Y-65561333D01*
X90828000Y-65528000D01*
X90411334Y-57708000D02*
X90944667Y-57708000D01*
X90678000Y-57974667D02*
X90678000Y-57441333D01*
X92701334Y-57974667D02*
X92701334Y-57274667D01*
X92868000Y-57274667D01*
X92968000Y-57308000D01*
X93034667Y-57374667D01*
X93068000Y-57441333D01*
X93101334Y-57574667D01*
X93101334Y-57674667D01*
X93068000Y-57808000D01*
X93034667Y-57874667D01*
X92968000Y-57941333D01*
X92868000Y-57974667D01*
X92701334Y-57974667D01*
X93334667Y-57274667D02*
X93768000Y-57274667D01*
X93534667Y-57541333D01*
X93634667Y-57541333D01*
X93701334Y-57574667D01*
X93734667Y-57608000D01*
X93768000Y-57674667D01*
X93768000Y-57841333D01*
X93734667Y-57908000D01*
X93701334Y-57941333D01*
X93634667Y-57974667D01*
X93434667Y-57974667D01*
X93368000Y-57941333D01*
X93334667Y-57908000D01*
X94908000Y-57974667D02*
X94908000Y-57274667D01*
X95074666Y-57274667D01*
X95174666Y-57308000D01*
X95241333Y-57374667D01*
X95274666Y-57441333D01*
X95308000Y-57574667D01*
X95308000Y-57674667D01*
X95274666Y-57808000D01*
X95241333Y-57874667D01*
X95174666Y-57941333D01*
X95074666Y-57974667D01*
X94908000Y-57974667D01*
X95974666Y-57974667D02*
X95574666Y-57974667D01*
X95774666Y-57974667D02*
X95774666Y-57274667D01*
X95708000Y-57374667D01*
X95641333Y-57441333D01*
X95574666Y-57474667D01*
X96241333Y-57341333D02*
X96274667Y-57308000D01*
X96341333Y-57274667D01*
X96508000Y-57274667D01*
X96574667Y-57308000D01*
X96608000Y-57341333D01*
X96641333Y-57408000D01*
X96641333Y-57474667D01*
X96608000Y-57574667D01*
X96208000Y-57974667D01*
X96641333Y-57974667D01*
X97448000Y-57974667D02*
X97448000Y-57274667D01*
X97614666Y-57274667D01*
X97714666Y-57308000D01*
X97781333Y-57374667D01*
X97814666Y-57441333D01*
X97848000Y-57574667D01*
X97848000Y-57674667D01*
X97814666Y-57808000D01*
X97781333Y-57874667D01*
X97714666Y-57941333D01*
X97614666Y-57974667D01*
X97448000Y-57974667D01*
X98514666Y-57974667D02*
X98114666Y-57974667D01*
X98314666Y-57974667D02*
X98314666Y-57274667D01*
X98248000Y-57374667D01*
X98181333Y-57441333D01*
X98114666Y-57474667D01*
X98748000Y-57274667D02*
X99181333Y-57274667D01*
X98948000Y-57541333D01*
X99048000Y-57541333D01*
X99114667Y-57574667D01*
X99148000Y-57608000D01*
X99181333Y-57674667D01*
X99181333Y-57841333D01*
X99148000Y-57908000D01*
X99114667Y-57941333D01*
X99048000Y-57974667D01*
X98848000Y-57974667D01*
X98781333Y-57941333D01*
X98748000Y-57908000D01*
X99988000Y-57974667D02*
X99988000Y-57274667D01*
X100154666Y-57274667D01*
X100254666Y-57308000D01*
X100321333Y-57374667D01*
X100354666Y-57441333D01*
X100388000Y-57574667D01*
X100388000Y-57674667D01*
X100354666Y-57808000D01*
X100321333Y-57874667D01*
X100254666Y-57941333D01*
X100154666Y-57974667D01*
X99988000Y-57974667D01*
X101054666Y-57974667D02*
X100654666Y-57974667D01*
X100854666Y-57974667D02*
X100854666Y-57274667D01*
X100788000Y-57374667D01*
X100721333Y-57441333D01*
X100654666Y-57474667D01*
X101654667Y-57508000D02*
X101654667Y-57974667D01*
X101488000Y-57241333D02*
X101321333Y-57741333D01*
X101754667Y-57741333D01*
X102844667Y-57308000D02*
X102778001Y-57274667D01*
X102678001Y-57274667D01*
X102578001Y-57308000D01*
X102511334Y-57374667D01*
X102478001Y-57441333D01*
X102444667Y-57574667D01*
X102444667Y-57674667D01*
X102478001Y-57808000D01*
X102511334Y-57874667D01*
X102578001Y-57941333D01*
X102678001Y-57974667D01*
X102744667Y-57974667D01*
X102844667Y-57941333D01*
X102878001Y-57908000D01*
X102878001Y-57674667D01*
X102744667Y-57674667D01*
X103178001Y-57974667D02*
X103178001Y-57274667D01*
X103578001Y-57974667D01*
X103578001Y-57274667D01*
X103911334Y-57974667D02*
X103911334Y-57274667D01*
X104078000Y-57274667D01*
X104178000Y-57308000D01*
X104244667Y-57374667D01*
X104278000Y-57441333D01*
X104311334Y-57574667D01*
X104311334Y-57674667D01*
X104278000Y-57808000D01*
X104244667Y-57874667D01*
X104178000Y-57941333D01*
X104078000Y-57974667D01*
X103911334Y-57974667D01*
X80251334Y-65328000D02*
X80784667Y-65328000D01*
X80518000Y-65594667D02*
X80518000Y-65061333D01*
X105680000Y-62354667D02*
X106113333Y-62354667D01*
X105880000Y-62621333D01*
X105980000Y-62621333D01*
X106046667Y-62654667D01*
X106080000Y-62688000D01*
X106113333Y-62754667D01*
X106113333Y-62921333D01*
X106080000Y-62988000D01*
X106046667Y-63021333D01*
X105980000Y-63054667D01*
X105780000Y-63054667D01*
X105713333Y-63021333D01*
X105680000Y-62988000D01*
X106413334Y-62988000D02*
X106446667Y-63021333D01*
X106413334Y-63054667D01*
X106380000Y-63021333D01*
X106413334Y-62988000D01*
X106413334Y-63054667D01*
X106680000Y-62354667D02*
X107113333Y-62354667D01*
X106880000Y-62621333D01*
X106980000Y-62621333D01*
X107046667Y-62654667D01*
X107080000Y-62688000D01*
X107113333Y-62754667D01*
X107113333Y-62921333D01*
X107080000Y-62988000D01*
X107046667Y-63021333D01*
X106980000Y-63054667D01*
X106780000Y-63054667D01*
X106713333Y-63021333D01*
X106680000Y-62988000D01*
X107346667Y-62588000D02*
X107513334Y-63054667D01*
X107680000Y-62588000D01*
X92701334Y-65594667D02*
X92701334Y-64894667D01*
X92868000Y-64894667D01*
X92968000Y-64928000D01*
X93034667Y-64994667D01*
X93068000Y-65061333D01*
X93101334Y-65194667D01*
X93101334Y-65294667D01*
X93068000Y-65428000D01*
X93034667Y-65494667D01*
X92968000Y-65561333D01*
X92868000Y-65594667D01*
X92701334Y-65594667D01*
X93334667Y-64894667D02*
X93768000Y-64894667D01*
X93534667Y-65161333D01*
X93634667Y-65161333D01*
X93701334Y-65194667D01*
X93734667Y-65228000D01*
X93768000Y-65294667D01*
X93768000Y-65461333D01*
X93734667Y-65528000D01*
X93701334Y-65561333D01*
X93634667Y-65594667D01*
X93434667Y-65594667D01*
X93368000Y-65561333D01*
X93334667Y-65528000D01*
X94908000Y-65594667D02*
X94908000Y-64894667D01*
X95074666Y-64894667D01*
X95174666Y-64928000D01*
X95241333Y-64994667D01*
X95274666Y-65061333D01*
X95308000Y-65194667D01*
X95308000Y-65294667D01*
X95274666Y-65428000D01*
X95241333Y-65494667D01*
X95174666Y-65561333D01*
X95074666Y-65594667D01*
X94908000Y-65594667D01*
X95974666Y-65594667D02*
X95574666Y-65594667D01*
X95774666Y-65594667D02*
X95774666Y-64894667D01*
X95708000Y-64994667D01*
X95641333Y-65061333D01*
X95574666Y-65094667D01*
X96241333Y-64961333D02*
X96274667Y-64928000D01*
X96341333Y-64894667D01*
X96508000Y-64894667D01*
X96574667Y-64928000D01*
X96608000Y-64961333D01*
X96641333Y-65028000D01*
X96641333Y-65094667D01*
X96608000Y-65194667D01*
X96208000Y-65594667D01*
X96641333Y-65594667D01*
X97448000Y-65594667D02*
X97448000Y-64894667D01*
X97614666Y-64894667D01*
X97714666Y-64928000D01*
X97781333Y-64994667D01*
X97814666Y-65061333D01*
X97848000Y-65194667D01*
X97848000Y-65294667D01*
X97814666Y-65428000D01*
X97781333Y-65494667D01*
X97714666Y-65561333D01*
X97614666Y-65594667D01*
X97448000Y-65594667D01*
X98514666Y-65594667D02*
X98114666Y-65594667D01*
X98314666Y-65594667D02*
X98314666Y-64894667D01*
X98248000Y-64994667D01*
X98181333Y-65061333D01*
X98114666Y-65094667D01*
X98748000Y-64894667D02*
X99181333Y-64894667D01*
X98948000Y-65161333D01*
X99048000Y-65161333D01*
X99114667Y-65194667D01*
X99148000Y-65228000D01*
X99181333Y-65294667D01*
X99181333Y-65461333D01*
X99148000Y-65528000D01*
X99114667Y-65561333D01*
X99048000Y-65594667D01*
X98848000Y-65594667D01*
X98781333Y-65561333D01*
X98748000Y-65528000D01*
X89833333Y-47200000D02*
X90066666Y-47200000D01*
X90166666Y-47566667D02*
X89833333Y-47566667D01*
X89833333Y-46866667D01*
X90166666Y-46866667D01*
X90433332Y-47533333D02*
X90533332Y-47566667D01*
X90699999Y-47566667D01*
X90766666Y-47533333D01*
X90799999Y-47500000D01*
X90833332Y-47433333D01*
X90833332Y-47366667D01*
X90799999Y-47300000D01*
X90766666Y-47266667D01*
X90699999Y-47233333D01*
X90566666Y-47200000D01*
X90499999Y-47166667D01*
X90466666Y-47133333D01*
X90433332Y-47066667D01*
X90433332Y-47000000D01*
X90466666Y-46933333D01*
X90499999Y-46900000D01*
X90566666Y-46866667D01*
X90733332Y-46866667D01*
X90833332Y-46900000D01*
X91133333Y-47566667D02*
X91133333Y-46866667D01*
X91399999Y-46866667D01*
X91466666Y-46900000D01*
X91499999Y-46933333D01*
X91533333Y-47000000D01*
X91533333Y-47100000D01*
X91499999Y-47166667D01*
X91466666Y-47200000D01*
X91399999Y-47233333D01*
X91133333Y-47233333D01*
X91933333Y-47166667D02*
X91866666Y-47133333D01*
X91833333Y-47100000D01*
X91799999Y-47033333D01*
X91799999Y-47000000D01*
X91833333Y-46933333D01*
X91866666Y-46900000D01*
X91933333Y-46866667D01*
X92066666Y-46866667D01*
X92133333Y-46900000D01*
X92166666Y-46933333D01*
X92199999Y-47000000D01*
X92199999Y-47033333D01*
X92166666Y-47100000D01*
X92133333Y-47133333D01*
X92066666Y-47166667D01*
X91933333Y-47166667D01*
X91866666Y-47200000D01*
X91833333Y-47233333D01*
X91799999Y-47300000D01*
X91799999Y-47433333D01*
X91833333Y-47500000D01*
X91866666Y-47533333D01*
X91933333Y-47566667D01*
X92066666Y-47566667D01*
X92133333Y-47533333D01*
X92166666Y-47500000D01*
X92199999Y-47433333D01*
X92199999Y-47300000D01*
X92166666Y-47233333D01*
X92133333Y-47200000D01*
X92066666Y-47166667D01*
X92466666Y-46933333D02*
X92500000Y-46900000D01*
X92566666Y-46866667D01*
X92733333Y-46866667D01*
X92800000Y-46900000D01*
X92833333Y-46933333D01*
X92866666Y-47000000D01*
X92866666Y-47066667D01*
X92833333Y-47166667D01*
X92433333Y-47566667D01*
X92866666Y-47566667D01*
X93466667Y-46866667D02*
X93333333Y-46866667D01*
X93266667Y-46900000D01*
X93233333Y-46933333D01*
X93166667Y-47033333D01*
X93133333Y-47166667D01*
X93133333Y-47433333D01*
X93166667Y-47500000D01*
X93200000Y-47533333D01*
X93266667Y-47566667D01*
X93400000Y-47566667D01*
X93466667Y-47533333D01*
X93500000Y-47500000D01*
X93533333Y-47433333D01*
X93533333Y-47266667D01*
X93500000Y-47200000D01*
X93466667Y-47166667D01*
X93400000Y-47133333D01*
X93266667Y-47133333D01*
X93200000Y-47166667D01*
X93166667Y-47200000D01*
X93133333Y-47266667D01*
X94133334Y-46866667D02*
X94000000Y-46866667D01*
X93933334Y-46900000D01*
X93900000Y-46933333D01*
X93833334Y-47033333D01*
X93800000Y-47166667D01*
X93800000Y-47433333D01*
X93833334Y-47500000D01*
X93866667Y-47533333D01*
X93933334Y-47566667D01*
X94066667Y-47566667D01*
X94133334Y-47533333D01*
X94166667Y-47500000D01*
X94200000Y-47433333D01*
X94200000Y-47266667D01*
X94166667Y-47200000D01*
X94133334Y-47166667D01*
X94066667Y-47133333D01*
X93933334Y-47133333D01*
X93866667Y-47166667D01*
X93833334Y-47200000D01*
X93800000Y-47266667D01*
X116466667Y-65833333D02*
X116433333Y-65800000D01*
X116366667Y-65700000D01*
X116333333Y-65633333D01*
X116300000Y-65533333D01*
X116266667Y-65366667D01*
X116266667Y-65233333D01*
X116300000Y-65066667D01*
X116333333Y-64966667D01*
X116366667Y-64900000D01*
X116433333Y-64800000D01*
X116466667Y-64766667D01*
X116733334Y-65300000D02*
X117266667Y-65300000D01*
X117533334Y-65833333D02*
X117566667Y-65800000D01*
X117633334Y-65700000D01*
X117666667Y-65633333D01*
X117700001Y-65533333D01*
X117733334Y-65366667D01*
X117733334Y-65233333D01*
X117700001Y-65066667D01*
X117666667Y-64966667D01*
X117633334Y-64900000D01*
X117566667Y-64800000D01*
X117533334Y-64766667D01*
X121100000Y-65300000D02*
X121633333Y-65300000D01*
X121366666Y-65566667D02*
X121366666Y-65033333D01*
X122300000Y-64866667D02*
X121966667Y-64866667D01*
X121933333Y-65200000D01*
X121966667Y-65166667D01*
X122033333Y-65133333D01*
X122200000Y-65133333D01*
X122266667Y-65166667D01*
X122300000Y-65200000D01*
X122333333Y-65266667D01*
X122333333Y-65433333D01*
X122300000Y-65500000D01*
X122266667Y-65533333D01*
X122200000Y-65566667D01*
X122033333Y-65566667D01*
X121966667Y-65533333D01*
X121933333Y-65500000D01*
X122533334Y-64866667D02*
X122766667Y-65566667D01*
X123000000Y-64866667D01*
X102844667Y-64928000D02*
X102778001Y-64894667D01*
X102678001Y-64894667D01*
X102578001Y-64928000D01*
X102511334Y-64994667D01*
X102478001Y-65061333D01*
X102444667Y-65194667D01*
X102444667Y-65294667D01*
X102478001Y-65428000D01*
X102511334Y-65494667D01*
X102578001Y-65561333D01*
X102678001Y-65594667D01*
X102744667Y-65594667D01*
X102844667Y-65561333D01*
X102878001Y-65528000D01*
X102878001Y-65294667D01*
X102744667Y-65294667D01*
X103178001Y-65594667D02*
X103178001Y-64894667D01*
X103578001Y-65594667D01*
X103578001Y-64894667D01*
X103911334Y-65594667D02*
X103911334Y-64894667D01*
X104078000Y-64894667D01*
X104178000Y-64928000D01*
X104244667Y-64994667D01*
X104278000Y-65061333D01*
X104311334Y-65194667D01*
X104311334Y-65294667D01*
X104278000Y-65428000D01*
X104244667Y-65494667D01*
X104178000Y-65561333D01*
X104078000Y-65594667D01*
X103911334Y-65594667D01*
X99988000Y-65594667D02*
X99988000Y-64894667D01*
X100154666Y-64894667D01*
X100254666Y-64928000D01*
X100321333Y-64994667D01*
X100354666Y-65061333D01*
X100388000Y-65194667D01*
X100388000Y-65294667D01*
X100354666Y-65428000D01*
X100321333Y-65494667D01*
X100254666Y-65561333D01*
X100154666Y-65594667D01*
X99988000Y-65594667D01*
X101054666Y-65594667D02*
X100654666Y-65594667D01*
X100854666Y-65594667D02*
X100854666Y-64894667D01*
X100788000Y-64994667D01*
X100721333Y-65061333D01*
X100654666Y-65094667D01*
X101654667Y-65128000D02*
X101654667Y-65594667D01*
X101488000Y-64861333D02*
X101321333Y-65361333D01*
X101754667Y-65361333D01*
X106072000Y-59814667D02*
X105738667Y-59814667D01*
X105705333Y-60148000D01*
X105738667Y-60114667D01*
X105805333Y-60081333D01*
X105972000Y-60081333D01*
X106038667Y-60114667D01*
X106072000Y-60148000D01*
X106105333Y-60214667D01*
X106105333Y-60381333D01*
X106072000Y-60448000D01*
X106038667Y-60481333D01*
X105972000Y-60514667D01*
X105805333Y-60514667D01*
X105738667Y-60481333D01*
X105705333Y-60448000D01*
X106338667Y-60048000D02*
X106505334Y-60514667D01*
X106672000Y-60048000D01*
D10*
X138000000Y-110000000D02*
G75*
G03X136000000Y-110000000I-1000000J0D01*
G01*
X136000000Y-106000000D02*
G75*
G03X138000000Y-106000000I1000000J0D01*
G01*
X138000000Y-58000000D02*
G75*
G03X136000000Y-58000000I-1000000J0D01*
G01*
X136000000Y-54000000D02*
G75*
G03X138000000Y-54000000I1000000J0D01*
G01*
X127000000Y-68000000D02*
G75*
G03X127000000Y-66000000I0J1000000D01*
G01*
X131000000Y-66000000D02*
G75*
G03X131000000Y-68000000I0J-1000000D01*
G01*
X127000000Y-100000000D02*
G75*
G03X127000000Y-98000000I0J1000000D01*
G01*
X131000000Y-98000000D02*
G75*
G03X131000000Y-100000000I0J-1000000D01*
G01*
X76000000Y-100000000D02*
G75*
G03X76000000Y-98000000I0J1000000D01*
G01*
X80000000Y-98000000D02*
G75*
G03X80000000Y-100000000I0J-1000000D01*
G01*
D11*
X166008000Y-83892000D02*
X166008000Y-106752000D01*
X166008000Y-106752000D02*
X163468000Y-106752000D01*
X163468000Y-106752000D02*
X163468000Y-83892000D01*
X166288000Y-81072000D02*
X166288000Y-82622000D01*
X166008000Y-83892000D02*
X163468000Y-83892000D01*
X163188000Y-82622000D02*
X163188000Y-81072000D01*
X163188000Y-81072000D02*
X166288000Y-81072000D01*
X157033000Y-111109000D02*
X157258000Y-111109000D01*
X157033000Y-106459000D02*
X157258000Y-106459000D01*
X162283000Y-106459000D02*
X162058000Y-106459000D01*
X162283000Y-111109000D02*
X162058000Y-111109000D01*
X157033000Y-111109000D02*
X157033000Y-106459000D01*
X162283000Y-111109000D02*
X162283000Y-106459000D01*
X157258000Y-111109000D02*
X157258000Y-112459000D01*
X143944000Y-56524000D02*
X143944000Y-59572000D01*
X143944000Y-59572000D02*
X151056000Y-59572000D01*
X151056000Y-59572000D02*
X151056000Y-56524000D01*
X143944000Y-53476000D02*
X143944000Y-52714000D01*
X143944000Y-52714000D02*
X145468000Y-50428000D01*
X145468000Y-50428000D02*
X149532000Y-50428000D01*
X149532000Y-50428000D02*
X151056000Y-52714000D01*
X151056000Y-52714000D02*
X151056000Y-53476000D01*
X145688000Y-79320000D02*
G75*
G03X145688000Y-79320000I-2540000J0D01*
G01*
X146958000Y-83130000D02*
X139338000Y-83130000D01*
X139338000Y-83130000D02*
X139338000Y-75510000D01*
X139338000Y-75510000D02*
X146958000Y-75510000D01*
X146958000Y-83130000D02*
X146958000Y-75510000D01*
X145688000Y-107514000D02*
G75*
G03X145688000Y-107514000I-2540000J0D01*
G01*
X139338000Y-103704000D02*
X146958000Y-103704000D01*
X146958000Y-103704000D02*
X146958000Y-111324000D01*
X146958000Y-111324000D02*
X139338000Y-111324000D01*
X139338000Y-103704000D02*
X139338000Y-111324000D01*
X152325000Y-81500000D02*
X152325000Y-80500000D01*
X153675000Y-80500000D02*
X153675000Y-81500000D01*
X154575000Y-81500000D02*
X154575000Y-80500000D01*
X155925000Y-80500000D02*
X155925000Y-81500000D01*
X154675000Y-107000000D02*
X154675000Y-108000000D01*
X153325000Y-108000000D02*
X153325000Y-107000000D01*
X150825000Y-108000000D02*
X150825000Y-107000000D01*
X152175000Y-107000000D02*
X152175000Y-108000000D01*
X148325000Y-108000000D02*
X148325000Y-107000000D01*
X149675000Y-107000000D02*
X149675000Y-108000000D01*
X161524000Y-77048000D02*
X161524000Y-75905000D01*
X158476000Y-77048000D02*
X158476000Y-75905000D01*
X154666000Y-75905000D02*
X154666000Y-72222000D01*
X154666000Y-72222000D02*
X165334000Y-72222000D01*
X165334000Y-72222000D02*
X165334000Y-75905000D01*
X154666000Y-77048000D02*
X154666000Y-75905000D01*
X154666000Y-75905000D02*
X165334000Y-75905000D01*
X165334000Y-75905000D02*
X165334000Y-77048000D01*
X160000000Y-77048000D02*
X165334000Y-77048000D01*
X160000000Y-77048000D02*
X154666000Y-77048000D01*
X166100000Y-66500000D02*
X166600000Y-66500000D01*
X164100000Y-64000000D02*
G75*
G03X164100000Y-64000000I-2000000J0D01*
G01*
X164100000Y-69000000D02*
G75*
G03X164100000Y-69000000I-2000000J0D01*
G01*
X164600000Y-71500000D02*
X164600000Y-61500000D01*
X159700000Y-71500000D02*
X159700000Y-61500000D01*
X166100000Y-71500000D02*
X166100000Y-61500000D01*
X166600000Y-71500000D02*
X166600000Y-61500000D01*
X166600000Y-61500000D02*
X156800000Y-61500000D01*
X156800000Y-61500000D02*
X156800000Y-71500000D01*
X156800000Y-71500000D02*
X166600000Y-71500000D01*
X163468000Y-83892000D02*
X163468000Y-96592000D01*
X163468000Y-96592000D02*
X160928000Y-96592000D01*
X160928000Y-96592000D02*
X160928000Y-83892000D01*
X163748000Y-81072000D02*
X163748000Y-82622000D01*
X163468000Y-83892000D02*
X160928000Y-83892000D01*
X160648000Y-82622000D02*
X160648000Y-81072000D01*
X160648000Y-81072000D02*
X163748000Y-81072000D01*
X141624000Y-60778000D02*
X141624000Y-73478000D01*
X141624000Y-73478000D02*
X139084000Y-73478000D01*
X139084000Y-73478000D02*
X139084000Y-60778000D01*
X141904000Y-57958000D02*
X141904000Y-59508000D01*
X141624000Y-60778000D02*
X139084000Y-60778000D01*
X138804000Y-59508000D02*
X138804000Y-57958000D01*
X138804000Y-57958000D02*
X141904000Y-57958000D01*
X147000000Y-114000000D02*
X148500000Y-114000000D01*
X147000000Y-114000000D02*
X147000000Y-118500000D01*
X148500000Y-114000000D02*
X147000000Y-114000000D01*
X157000000Y-114000000D02*
X157000000Y-118500000D01*
X157000000Y-117000000D02*
X157000000Y-114000000D01*
X157000000Y-114000000D02*
X155500000Y-114000000D01*
X153000000Y-114000000D02*
X153500000Y-114000000D01*
X151000000Y-114000000D02*
X150500000Y-114000000D01*
X157000000Y-50900000D02*
X157000000Y-50400000D01*
X156500000Y-54900000D02*
G75*
G03X156500000Y-54900000I-2000000J0D01*
G01*
X161500000Y-54900000D02*
G75*
G03X161500000Y-54900000I-2000000J0D01*
G01*
X162000000Y-52400000D02*
X152000000Y-52400000D01*
X162000000Y-57300000D02*
X152000000Y-57300000D01*
X162000000Y-50900000D02*
X152000000Y-50900000D01*
X162000000Y-50400000D02*
X152000000Y-50400000D01*
X152000000Y-50400000D02*
X152000000Y-60200000D01*
X152000000Y-60200000D02*
X162000000Y-60200000D01*
X162000000Y-60200000D02*
X162000000Y-50400000D01*
X143922000Y-112772000D02*
X143922000Y-115472000D01*
X145422000Y-112772000D02*
X145422000Y-115472000D01*
X144522000Y-114272000D02*
X144772000Y-114272000D01*
X144772000Y-114272000D02*
X144622000Y-114122000D01*
X145022000Y-114022000D02*
X144322000Y-114022000D01*
X144672000Y-114372000D02*
X144672000Y-114722000D01*
X144672000Y-114022000D02*
X145022000Y-114372000D01*
X145022000Y-114372000D02*
X144322000Y-114372000D01*
X144322000Y-114372000D02*
X144672000Y-114022000D01*
X159400000Y-100850000D02*
X159400000Y-100150000D01*
X160600000Y-100150000D02*
X160600000Y-100850000D01*
X144527783Y-71504617D02*
X153366617Y-62665783D01*
X144431616Y-71402794D02*
X153264794Y-62569616D01*
X144336864Y-71299556D02*
X153161556Y-62474864D01*
X144244940Y-71193490D02*
X153055490Y-62382940D01*
X144154430Y-71086010D02*
X152948010Y-62292430D01*
X144066749Y-70975702D02*
X152837702Y-62204749D01*
X143981189Y-70863272D02*
X152725272Y-62119189D01*
X143898458Y-70748013D02*
X152610013Y-62036458D01*
X143817140Y-70631341D02*
X152493341Y-61955140D01*
X143738651Y-70511840D02*
X152373840Y-61876651D01*
X143662991Y-70389510D02*
X147588848Y-66463653D01*
X148325653Y-65726848D02*
X152251510Y-61800991D01*
X143588745Y-70265766D02*
X147339239Y-66515272D01*
X148377272Y-65477239D02*
X152127766Y-61726745D01*
X143517327Y-70139194D02*
X147139835Y-66516686D01*
X148378686Y-65277835D02*
X152001194Y-61655327D01*
X143448738Y-70009794D02*
X146968715Y-66489816D01*
X148351816Y-65106715D02*
X151871794Y-61586738D01*
X143382977Y-69877565D02*
X146817394Y-66443147D01*
X148305147Y-64955394D02*
X151739565Y-61520977D01*
X143319337Y-69743214D02*
X146682337Y-66380215D01*
X148242215Y-64820337D02*
X151605214Y-61457337D01*
X143258526Y-69606036D02*
X146560715Y-66303847D01*
X148165847Y-64698715D02*
X151468036Y-61396526D01*
X143199836Y-69466736D02*
X146451820Y-66214752D01*
X148076752Y-64589820D02*
X151328736Y-61337836D01*
X143144682Y-69323900D02*
X146354947Y-66113635D01*
X147975635Y-64492947D02*
X151185900Y-61282682D01*
X143092356Y-69178236D02*
X146270094Y-66000498D01*
X147862498Y-64408094D02*
X151040236Y-61230356D01*
X143043566Y-69029037D02*
X146198676Y-65873926D01*
X147735926Y-64336676D02*
X150891037Y-61181566D01*
X142996896Y-68877716D02*
X146141400Y-65733212D01*
X147595212Y-64279400D02*
X150739716Y-61134896D01*
X142954470Y-68722152D02*
X146101095Y-65575527D01*
X147437527Y-64239095D02*
X150584152Y-61092470D01*
X142914872Y-68563760D02*
X146082710Y-65395922D01*
X147257922Y-64220710D02*
X150425760Y-61052872D01*
X142879517Y-68401126D02*
X146097560Y-65183083D01*
X147045083Y-64235560D02*
X150263126Y-61017517D01*
X142846990Y-68235663D02*
X146183120Y-64899533D01*
X146761533Y-64321120D02*
X150097663Y-60984990D01*
X142819413Y-68065250D02*
X149927250Y-60957413D01*
X142796078Y-67890595D02*
X149752595Y-60934078D01*
X142776279Y-67712404D02*
X149574404Y-60914279D01*
X142762137Y-67528556D02*
X149390556Y-60900137D01*
X142753652Y-67339051D02*
X149201051Y-60891652D01*
X142750116Y-67144597D02*
X149006597Y-60888116D01*
X142752945Y-66943779D02*
X148805779Y-60890945D01*
X142763551Y-66735182D02*
X148597182Y-60901551D01*
X142781229Y-66519515D02*
X148381515Y-60919229D01*
X142807392Y-66295362D02*
X148157362Y-60945392D01*
X142843454Y-66061309D02*
X147923309Y-60981454D01*
X142892245Y-65814529D02*
X147676529Y-61030245D01*
X142954470Y-65554314D02*
X147416314Y-61092470D01*
X143033666Y-65277128D02*
X147139128Y-61171666D01*
X143135489Y-64977315D02*
X146839315Y-61273489D01*
X143268425Y-64646389D02*
X146508389Y-61406425D01*
X143448031Y-64268794D02*
X146130794Y-61586031D01*
X143712489Y-63806346D02*
X145668346Y-61850489D01*
X144285245Y-63035600D02*
X144897600Y-62423245D01*
X148382466Y-65370466D02*
G75*
G03X148382466Y-65370466I-1150000J0D01*
G01*
X155287733Y-67138233D02*
G75*
G03X155287733Y-67138233I-6287500J0D01*
G01*
D13*
X84000000Y-98600000D02*
X100000000Y-98600000D01*
X100000000Y-98600000D02*
X100000000Y-104000000D01*
X84000000Y-98600000D02*
X84000000Y-104000000D01*
X84000000Y-119800000D02*
X84000000Y-120600000D01*
X84000000Y-120600000D02*
X100000000Y-120600000D01*
X100000000Y-120600000D02*
X100000000Y-119800000D01*
X100000000Y-98600000D02*
X84000000Y-102400000D01*
X84000000Y-98600000D02*
X100000000Y-102400000D01*
X83992000Y-102400000D02*
X99992000Y-102400000D01*
D11*
X114495383Y-106527783D02*
X123334217Y-115366617D01*
X114597206Y-106431616D02*
X123430384Y-115264794D01*
X114700444Y-106336864D02*
X123525136Y-115161556D01*
X114806510Y-106244940D02*
X123617060Y-115055490D01*
X114913990Y-106154430D02*
X123707570Y-114948010D01*
X115024298Y-106066749D02*
X123795251Y-114837702D01*
X115136728Y-105981189D02*
X123880811Y-114725272D01*
X115251987Y-105898458D02*
X123963542Y-114610013D01*
X115368659Y-105817140D02*
X124044860Y-114493341D01*
X115488160Y-105738651D02*
X124123349Y-114373840D01*
X115610490Y-105662991D02*
X119536347Y-109588848D01*
X120273152Y-110325653D02*
X124199009Y-114251510D01*
X115734234Y-105588745D02*
X119484728Y-109339239D01*
X120522761Y-110377272D02*
X124273255Y-114127766D01*
X115860806Y-105517327D02*
X119483314Y-109139835D01*
X120722165Y-110378686D02*
X124344673Y-114001194D01*
X115990206Y-105448738D02*
X119510184Y-108968715D01*
X120893285Y-110351816D02*
X124413262Y-113871794D01*
X116122435Y-105382977D02*
X119556853Y-108817394D01*
X121044606Y-110305147D02*
X124479023Y-113739565D01*
X116256786Y-105319337D02*
X119619785Y-108682337D01*
X121179663Y-110242215D02*
X124542663Y-113605214D01*
X116393964Y-105258526D02*
X119696153Y-108560715D01*
X121301285Y-110165847D02*
X124603474Y-113468036D01*
X116533264Y-105199836D02*
X119785248Y-108451820D01*
X121410180Y-110076752D02*
X124662164Y-113328736D01*
X116676100Y-105144682D02*
X119886365Y-108354947D01*
X121507053Y-109975635D02*
X124717318Y-113185900D01*
X116821764Y-105092356D02*
X119999502Y-108270094D01*
X121591906Y-109862498D02*
X124769644Y-113040236D01*
X116970963Y-105043566D02*
X120126074Y-108198676D01*
X121663324Y-109735926D02*
X124818434Y-112891037D01*
X117122284Y-104996896D02*
X120266788Y-108141400D01*
X121720600Y-109595212D02*
X124865104Y-112739716D01*
X117277848Y-104954470D02*
X120424473Y-108101095D01*
X121760905Y-109437527D02*
X124907530Y-112584152D01*
X117436240Y-104914872D02*
X120604078Y-108082710D01*
X121779290Y-109257922D02*
X124947128Y-112425760D01*
X117598874Y-104879517D02*
X120816917Y-108097560D01*
X121764440Y-109045083D02*
X124982483Y-112263126D01*
X117764337Y-104846990D02*
X121100467Y-108183120D01*
X121678880Y-108761533D02*
X125015010Y-112097663D01*
X117934750Y-104819413D02*
X125042587Y-111927250D01*
X118109405Y-104796078D02*
X125065922Y-111752595D01*
X118287596Y-104776279D02*
X125085721Y-111574404D01*
X118471444Y-104762137D02*
X125099863Y-111390556D01*
X118660949Y-104753652D02*
X125108348Y-111201051D01*
X118855403Y-104750116D02*
X125111884Y-111006597D01*
X119056221Y-104752945D02*
X125109055Y-110805779D01*
X119264818Y-104763551D02*
X125098449Y-110597182D01*
X119480485Y-104781229D02*
X125080771Y-110381515D01*
X119704638Y-104807392D02*
X125054608Y-110157362D01*
X119938691Y-104843454D02*
X125018546Y-109923309D01*
X120185471Y-104892245D02*
X124969755Y-109676529D01*
X120445686Y-104954470D02*
X124907530Y-109416314D01*
X120722872Y-105033666D02*
X124828334Y-109139128D01*
X121022685Y-105135489D02*
X124726511Y-108839315D01*
X121353611Y-105268425D02*
X124593575Y-108508389D01*
X121731206Y-105448031D02*
X124413969Y-108130794D01*
X122193654Y-105712489D02*
X124149511Y-107668346D01*
X122964400Y-106285245D02*
X123576755Y-106897600D01*
X121779534Y-109232466D02*
G75*
G03X121779534Y-109232466I-1150000J0D01*
G01*
X125149267Y-111000233D02*
G75*
G03X125149267Y-111000233I-6287500J0D01*
G01*
X85150000Y-121400000D02*
X85850000Y-121400000D01*
X85850000Y-122600000D02*
X85150000Y-122600000D01*
X73228000Y-105922000D02*
X70528000Y-105922000D01*
X73228000Y-107422000D02*
X70528000Y-107422000D01*
X71728000Y-106522000D02*
X71728000Y-106772000D01*
X71728000Y-106772000D02*
X71878000Y-106622000D01*
X71978000Y-107022000D02*
X71978000Y-106322000D01*
X71628000Y-106672000D02*
X71278000Y-106672000D01*
X71978000Y-106672000D02*
X71628000Y-107022000D01*
X71628000Y-107022000D02*
X71628000Y-106322000D01*
X71628000Y-106322000D02*
X71978000Y-106672000D01*
X135100000Y-119000000D02*
X135600000Y-119000000D01*
X133100000Y-116500000D02*
G75*
G03X133100000Y-116500000I-2000000J0D01*
G01*
X133100000Y-121500000D02*
G75*
G03X133100000Y-121500000I-2000000J0D01*
G01*
X133600000Y-124000000D02*
X133600000Y-114000000D01*
X128700000Y-124000000D02*
X128700000Y-114000000D01*
X135100000Y-124000000D02*
X135100000Y-114000000D01*
X135600000Y-124000000D02*
X135600000Y-114000000D01*
X135600000Y-114000000D02*
X125800000Y-114000000D01*
X125800000Y-114000000D02*
X125800000Y-124000000D01*
X125800000Y-124000000D02*
X135600000Y-124000000D01*
X72000000Y-109000000D02*
X72000000Y-110500000D01*
X72000000Y-109000000D02*
X67500000Y-109000000D01*
X72000000Y-110500000D02*
X72000000Y-109000000D01*
X72000000Y-119000000D02*
X67500000Y-119000000D01*
X69000000Y-119000000D02*
X72000000Y-119000000D01*
X72000000Y-119000000D02*
X72000000Y-117500000D01*
X72000000Y-115000000D02*
X72000000Y-115500000D01*
X72000000Y-113000000D02*
X72000000Y-112500000D01*
X125222000Y-103624000D02*
X112522000Y-103624000D01*
X112522000Y-103624000D02*
X112522000Y-101084000D01*
X112522000Y-101084000D02*
X125222000Y-101084000D01*
X128042000Y-103904000D02*
X126492000Y-103904000D01*
X125222000Y-103624000D02*
X125222000Y-101084000D01*
X126492000Y-100804000D02*
X128042000Y-100804000D01*
X128042000Y-100804000D02*
X128042000Y-103904000D01*
X102108000Y-125468000D02*
X89408000Y-125468000D01*
X89408000Y-125468000D02*
X89408000Y-122928000D01*
X89408000Y-122928000D02*
X102108000Y-122928000D01*
X104928000Y-125748000D02*
X103378000Y-125748000D01*
X102108000Y-125468000D02*
X102108000Y-122928000D01*
X103378000Y-122648000D02*
X104928000Y-122648000D01*
X104928000Y-122648000D02*
X104928000Y-125748000D01*
X119500000Y-128100000D02*
X119500000Y-128600000D01*
X124000000Y-124100000D02*
G75*
G03X124000000Y-124100000I-2000000J0D01*
G01*
X119000000Y-124100000D02*
G75*
G03X119000000Y-124100000I-2000000J0D01*
G01*
X114500000Y-126600000D02*
X124500000Y-126600000D01*
X114500000Y-121700000D02*
X124500000Y-121700000D01*
X114500000Y-128100000D02*
X124500000Y-128100000D01*
X114500000Y-128600000D02*
X124500000Y-128600000D01*
X124500000Y-128600000D02*
X124500000Y-118800000D01*
X124500000Y-118800000D02*
X114500000Y-118800000D01*
X114500000Y-118800000D02*
X114500000Y-128600000D01*
X108952000Y-123524000D02*
X110095000Y-123524000D01*
X108952000Y-120476000D02*
X110095000Y-120476000D01*
X110095000Y-116666000D02*
X113778000Y-116666000D01*
X113778000Y-116666000D02*
X113778000Y-127334000D01*
X113778000Y-127334000D02*
X110095000Y-127334000D01*
X108952000Y-116666000D02*
X110095000Y-116666000D01*
X110095000Y-116666000D02*
X110095000Y-127334000D01*
X110095000Y-127334000D02*
X108952000Y-127334000D01*
X108952000Y-122000000D02*
X108952000Y-127334000D01*
X108952000Y-122000000D02*
X108952000Y-116666000D01*
X78000000Y-110325000D02*
X79000000Y-110325000D01*
X79000000Y-111675000D02*
X78000000Y-111675000D01*
X78000000Y-112825000D02*
X79000000Y-112825000D01*
X79000000Y-114175000D02*
X78000000Y-114175000D01*
X79000000Y-116675000D02*
X78000000Y-116675000D01*
X78000000Y-115325000D02*
X79000000Y-115325000D01*
X104500000Y-116575000D02*
X105500000Y-116575000D01*
X105500000Y-117925000D02*
X104500000Y-117925000D01*
X104500000Y-114325000D02*
X105500000Y-114325000D01*
X105500000Y-115675000D02*
X104500000Y-115675000D01*
X81026000Y-105148000D02*
G75*
G03X81026000Y-105148000I-2540000J0D01*
G01*
X82296000Y-101338000D02*
X82296000Y-108958000D01*
X82296000Y-108958000D02*
X74676000Y-108958000D01*
X74676000Y-108958000D02*
X74676000Y-101338000D01*
X82296000Y-101338000D02*
X74676000Y-101338000D01*
X109220000Y-105148000D02*
G75*
G03X109220000Y-105148000I-2540000J0D01*
G01*
X102870000Y-108958000D02*
X102870000Y-101338000D01*
X102870000Y-101338000D02*
X110490000Y-101338000D01*
X110490000Y-101338000D02*
X110490000Y-108958000D01*
X102870000Y-108958000D02*
X110490000Y-108958000D01*
X129476000Y-105944000D02*
X126428000Y-105944000D01*
X126428000Y-105944000D02*
X126428000Y-113056000D01*
X126428000Y-113056000D02*
X129476000Y-113056000D01*
X132524000Y-105944000D02*
X133286000Y-105944000D01*
X133286000Y-105944000D02*
X135572000Y-107468000D01*
X135572000Y-107468000D02*
X135572000Y-111532000D01*
X135572000Y-111532000D02*
X133286000Y-113056000D01*
X133286000Y-113056000D02*
X132524000Y-113056000D01*
X74891000Y-119033000D02*
X74891000Y-119258000D01*
X79541000Y-119033000D02*
X79541000Y-119258000D01*
X79541000Y-124283000D02*
X79541000Y-124058000D01*
X74891000Y-124283000D02*
X74891000Y-124058000D01*
X74891000Y-119033000D02*
X79541000Y-119033000D01*
X74891000Y-124283000D02*
X79541000Y-124283000D01*
X74891000Y-119258000D02*
X73541000Y-119258000D01*
X102108000Y-128008000D02*
X79248000Y-128008000D01*
X79248000Y-128008000D02*
X79248000Y-125468000D01*
X79248000Y-125468000D02*
X102108000Y-125468000D01*
X104928000Y-128288000D02*
X103378000Y-128288000D01*
X102108000Y-128008000D02*
X102108000Y-125468000D01*
X103378000Y-125188000D02*
X104928000Y-125188000D01*
X104928000Y-125188000D02*
X104928000Y-128288000D01*
X102108000Y-96008000D02*
X79248000Y-96008000D01*
X79248000Y-96008000D02*
X79248000Y-93468000D01*
X79248000Y-93468000D02*
X102108000Y-93468000D01*
X104928000Y-96288000D02*
X103378000Y-96288000D01*
X102108000Y-96008000D02*
X102108000Y-93468000D01*
X103378000Y-93188000D02*
X104928000Y-93188000D01*
X104928000Y-93188000D02*
X104928000Y-96288000D01*
X74891000Y-87033000D02*
X74891000Y-87258000D01*
X79541000Y-87033000D02*
X79541000Y-87258000D01*
X79541000Y-92283000D02*
X79541000Y-92058000D01*
X74891000Y-92283000D02*
X74891000Y-92058000D01*
X74891000Y-87033000D02*
X79541000Y-87033000D01*
X74891000Y-92283000D02*
X79541000Y-92283000D01*
X74891000Y-87258000D02*
X73541000Y-87258000D01*
X129476000Y-73944000D02*
X126428000Y-73944000D01*
X126428000Y-73944000D02*
X126428000Y-81056000D01*
X126428000Y-81056000D02*
X129476000Y-81056000D01*
X132524000Y-73944000D02*
X133286000Y-73944000D01*
X133286000Y-73944000D02*
X135572000Y-75468000D01*
X135572000Y-75468000D02*
X135572000Y-79532000D01*
X135572000Y-79532000D02*
X133286000Y-81056000D01*
X133286000Y-81056000D02*
X132524000Y-81056000D01*
X109220000Y-73148000D02*
G75*
G03X109220000Y-73148000I-2540000J0D01*
G01*
X102870000Y-76958000D02*
X102870000Y-69338000D01*
X102870000Y-69338000D02*
X110490000Y-69338000D01*
X110490000Y-69338000D02*
X110490000Y-76958000D01*
X102870000Y-76958000D02*
X110490000Y-76958000D01*
X81026000Y-73148000D02*
G75*
G03X81026000Y-73148000I-2540000J0D01*
G01*
X82296000Y-69338000D02*
X82296000Y-76958000D01*
X82296000Y-76958000D02*
X74676000Y-76958000D01*
X74676000Y-76958000D02*
X74676000Y-69338000D01*
X82296000Y-69338000D02*
X74676000Y-69338000D01*
X104500000Y-82325000D02*
X105500000Y-82325000D01*
X105500000Y-83675000D02*
X104500000Y-83675000D01*
X104500000Y-84575000D02*
X105500000Y-84575000D01*
X105500000Y-85925000D02*
X104500000Y-85925000D01*
X79000000Y-84675000D02*
X78000000Y-84675000D01*
X78000000Y-83325000D02*
X79000000Y-83325000D01*
X78000000Y-80825000D02*
X79000000Y-80825000D01*
X79000000Y-82175000D02*
X78000000Y-82175000D01*
X78000000Y-78325000D02*
X79000000Y-78325000D01*
X79000000Y-79675000D02*
X78000000Y-79675000D01*
X108952000Y-91524000D02*
X110095000Y-91524000D01*
X108952000Y-88476000D02*
X110095000Y-88476000D01*
X110095000Y-84666000D02*
X113778000Y-84666000D01*
X113778000Y-84666000D02*
X113778000Y-95334000D01*
X113778000Y-95334000D02*
X110095000Y-95334000D01*
X108952000Y-84666000D02*
X110095000Y-84666000D01*
X110095000Y-84666000D02*
X110095000Y-95334000D01*
X110095000Y-95334000D02*
X108952000Y-95334000D01*
X108952000Y-90000000D02*
X108952000Y-95334000D01*
X108952000Y-90000000D02*
X108952000Y-84666000D01*
X119500000Y-96100000D02*
X119500000Y-96600000D01*
X124000000Y-92100000D02*
G75*
G03X124000000Y-92100000I-2000000J0D01*
G01*
X119000000Y-92100000D02*
G75*
G03X119000000Y-92100000I-2000000J0D01*
G01*
X114500000Y-94600000D02*
X124500000Y-94600000D01*
X114500000Y-89700000D02*
X124500000Y-89700000D01*
X114500000Y-96100000D02*
X124500000Y-96100000D01*
X114500000Y-96600000D02*
X124500000Y-96600000D01*
X124500000Y-96600000D02*
X124500000Y-86800000D01*
X124500000Y-86800000D02*
X114500000Y-86800000D01*
X114500000Y-86800000D02*
X114500000Y-96600000D01*
X102108000Y-93468000D02*
X89408000Y-93468000D01*
X89408000Y-93468000D02*
X89408000Y-90928000D01*
X89408000Y-90928000D02*
X102108000Y-90928000D01*
X104928000Y-93748000D02*
X103378000Y-93748000D01*
X102108000Y-93468000D02*
X102108000Y-90928000D01*
X103378000Y-90648000D02*
X104928000Y-90648000D01*
X104928000Y-90648000D02*
X104928000Y-93748000D01*
X125222000Y-71624000D02*
X112522000Y-71624000D01*
X112522000Y-71624000D02*
X112522000Y-69084000D01*
X112522000Y-69084000D02*
X125222000Y-69084000D01*
X128042000Y-71904000D02*
X126492000Y-71904000D01*
X125222000Y-71624000D02*
X125222000Y-69084000D01*
X126492000Y-68804000D02*
X128042000Y-68804000D01*
X128042000Y-68804000D02*
X128042000Y-71904000D01*
X72000000Y-77000000D02*
X72000000Y-78500000D01*
X72000000Y-77000000D02*
X67500000Y-77000000D01*
X72000000Y-78500000D02*
X72000000Y-77000000D01*
X72000000Y-87000000D02*
X67500000Y-87000000D01*
X69000000Y-87000000D02*
X72000000Y-87000000D01*
X72000000Y-87000000D02*
X72000000Y-85500000D01*
X72000000Y-83000000D02*
X72000000Y-83500000D01*
X72000000Y-81000000D02*
X72000000Y-80500000D01*
X135100000Y-87000000D02*
X135600000Y-87000000D01*
X133100000Y-84500000D02*
G75*
G03X133100000Y-84500000I-2000000J0D01*
G01*
X133100000Y-89500000D02*
G75*
G03X133100000Y-89500000I-2000000J0D01*
G01*
X133600000Y-92000000D02*
X133600000Y-82000000D01*
X128700000Y-92000000D02*
X128700000Y-82000000D01*
X135100000Y-92000000D02*
X135100000Y-82000000D01*
X135600000Y-92000000D02*
X135600000Y-82000000D01*
X135600000Y-82000000D02*
X125800000Y-82000000D01*
X125800000Y-82000000D02*
X125800000Y-92000000D01*
X125800000Y-92000000D02*
X135600000Y-92000000D01*
X73228000Y-73922000D02*
X70528000Y-73922000D01*
X73228000Y-75422000D02*
X70528000Y-75422000D01*
X71728000Y-74522000D02*
X71728000Y-74772000D01*
X71728000Y-74772000D02*
X71878000Y-74622000D01*
X71978000Y-75022000D02*
X71978000Y-74322000D01*
X71628000Y-74672000D02*
X71278000Y-74672000D01*
X71978000Y-74672000D02*
X71628000Y-75022000D01*
X71628000Y-75022000D02*
X71628000Y-74322000D01*
X71628000Y-74322000D02*
X71978000Y-74672000D01*
X85150000Y-89400000D02*
X85850000Y-89400000D01*
X85850000Y-90600000D02*
X85150000Y-90600000D01*
X114495383Y-74527783D02*
X123334217Y-83366617D01*
X114597206Y-74431616D02*
X123430384Y-83264794D01*
X114700444Y-74336864D02*
X123525136Y-83161556D01*
X114806510Y-74244940D02*
X123617060Y-83055490D01*
X114913990Y-74154430D02*
X123707570Y-82948010D01*
X115024298Y-74066749D02*
X123795251Y-82837702D01*
X115136728Y-73981189D02*
X123880811Y-82725272D01*
X115251987Y-73898458D02*
X123963542Y-82610013D01*
X115368659Y-73817140D02*
X124044860Y-82493341D01*
X115488160Y-73738651D02*
X124123349Y-82373840D01*
X115610490Y-73662991D02*
X119536347Y-77588848D01*
X120273152Y-78325653D02*
X124199009Y-82251510D01*
X115734234Y-73588745D02*
X119484728Y-77339239D01*
X120522761Y-78377272D02*
X124273255Y-82127766D01*
X115860806Y-73517327D02*
X119483314Y-77139835D01*
X120722165Y-78378686D02*
X124344673Y-82001194D01*
X115990206Y-73448738D02*
X119510184Y-76968715D01*
X120893285Y-78351816D02*
X124413262Y-81871794D01*
X116122435Y-73382977D02*
X119556853Y-76817394D01*
X121044606Y-78305147D02*
X124479023Y-81739565D01*
X116256786Y-73319337D02*
X119619785Y-76682337D01*
X121179663Y-78242215D02*
X124542663Y-81605214D01*
X116393964Y-73258526D02*
X119696153Y-76560715D01*
X121301285Y-78165847D02*
X124603474Y-81468036D01*
X116533264Y-73199836D02*
X119785248Y-76451820D01*
X121410180Y-78076752D02*
X124662164Y-81328736D01*
X116676100Y-73144682D02*
X119886365Y-76354947D01*
X121507053Y-77975635D02*
X124717318Y-81185900D01*
X116821764Y-73092356D02*
X119999502Y-76270094D01*
X121591906Y-77862498D02*
X124769644Y-81040236D01*
X116970963Y-73043566D02*
X120126074Y-76198676D01*
X121663324Y-77735926D02*
X124818434Y-80891037D01*
X117122284Y-72996896D02*
X120266788Y-76141400D01*
X121720600Y-77595212D02*
X124865104Y-80739716D01*
X117277848Y-72954470D02*
X120424473Y-76101095D01*
X121760905Y-77437527D02*
X124907530Y-80584152D01*
X117436240Y-72914872D02*
X120604078Y-76082710D01*
X121779290Y-77257922D02*
X124947128Y-80425760D01*
X117598874Y-72879517D02*
X120816917Y-76097560D01*
X121764440Y-77045083D02*
X124982483Y-80263126D01*
X117764337Y-72846990D02*
X121100467Y-76183120D01*
X121678880Y-76761533D02*
X125015010Y-80097663D01*
X117934750Y-72819413D02*
X125042587Y-79927250D01*
X118109405Y-72796078D02*
X125065922Y-79752595D01*
X118287596Y-72776279D02*
X125085721Y-79574404D01*
X118471444Y-72762137D02*
X125099863Y-79390556D01*
X118660949Y-72753652D02*
X125108348Y-79201051D01*
X118855403Y-72750116D02*
X125111884Y-79006597D01*
X119056221Y-72752945D02*
X125109055Y-78805779D01*
X119264818Y-72763551D02*
X125098449Y-78597182D01*
X119480485Y-72781229D02*
X125080771Y-78381515D01*
X119704638Y-72807392D02*
X125054608Y-78157362D01*
X119938691Y-72843454D02*
X125018546Y-77923309D01*
X120185471Y-72892245D02*
X124969755Y-77676529D01*
X120445686Y-72954470D02*
X124907530Y-77416314D01*
X120722872Y-73033666D02*
X124828334Y-77139128D01*
X121022685Y-73135489D02*
X124726511Y-76839315D01*
X121353611Y-73268425D02*
X124593575Y-76508389D01*
X121731206Y-73448031D02*
X124413969Y-76130794D01*
X122193654Y-73712489D02*
X124149511Y-75668346D01*
X122964400Y-74285245D02*
X123576755Y-74897600D01*
X121779534Y-77232466D02*
G75*
G03X121779534Y-77232466I-1150000J0D01*
G01*
X125149267Y-79000233D02*
G75*
G03X125149267Y-79000233I-6287500J0D01*
G01*
D13*
X84000000Y-66600000D02*
X100000000Y-66600000D01*
X100000000Y-66600000D02*
X100000000Y-72000000D01*
X84000000Y-66600000D02*
X84000000Y-72000000D01*
X84000000Y-87800000D02*
X84000000Y-88600000D01*
X84000000Y-88600000D02*
X100000000Y-88600000D01*
X100000000Y-88600000D02*
X100000000Y-87800000D01*
X100000000Y-66600000D02*
X84000000Y-70400000D01*
X84000000Y-66600000D02*
X100000000Y-70400000D01*
X83992000Y-70400000D02*
X99992000Y-70400000D01*
X84000000Y-34600000D02*
X100000000Y-34600000D01*
X100000000Y-34600000D02*
X100000000Y-40000000D01*
X84000000Y-34600000D02*
X84000000Y-40000000D01*
X84000000Y-55800000D02*
X84000000Y-56600000D01*
X84000000Y-56600000D02*
X100000000Y-56600000D01*
X100000000Y-56600000D02*
X100000000Y-55800000D01*
X100000000Y-34600000D02*
X84000000Y-38400000D01*
X84000000Y-34600000D02*
X100000000Y-38400000D01*
X83992000Y-38400000D02*
X99992000Y-38400000D01*
D11*
X114495383Y-42527783D02*
X123334217Y-51366617D01*
X114597206Y-42431616D02*
X123430384Y-51264794D01*
X114700444Y-42336864D02*
X123525136Y-51161556D01*
X114806510Y-42244940D02*
X123617060Y-51055490D01*
X114913990Y-42154430D02*
X123707570Y-50948010D01*
X115024298Y-42066749D02*
X123795251Y-50837702D01*
X115136728Y-41981189D02*
X123880811Y-50725272D01*
X115251987Y-41898458D02*
X123963542Y-50610013D01*
X115368659Y-41817140D02*
X124044860Y-50493341D01*
X115488160Y-41738651D02*
X124123349Y-50373840D01*
X115610490Y-41662991D02*
X119536347Y-45588848D01*
X120273152Y-46325653D02*
X124199009Y-50251510D01*
X115734234Y-41588745D02*
X119484728Y-45339239D01*
X120522761Y-46377272D02*
X124273255Y-50127766D01*
X115860806Y-41517327D02*
X119483314Y-45139835D01*
X120722165Y-46378686D02*
X124344673Y-50001194D01*
X115990206Y-41448738D02*
X119510184Y-44968715D01*
X120893285Y-46351816D02*
X124413262Y-49871794D01*
X116122435Y-41382977D02*
X119556853Y-44817394D01*
X121044606Y-46305147D02*
X124479023Y-49739565D01*
X116256786Y-41319337D02*
X119619785Y-44682337D01*
X121179663Y-46242215D02*
X124542663Y-49605214D01*
X116393964Y-41258526D02*
X119696153Y-44560715D01*
X121301285Y-46165847D02*
X124603474Y-49468036D01*
X116533264Y-41199836D02*
X119785248Y-44451820D01*
X121410180Y-46076752D02*
X124662164Y-49328736D01*
X116676100Y-41144682D02*
X119886365Y-44354947D01*
X121507053Y-45975635D02*
X124717318Y-49185900D01*
X116821764Y-41092356D02*
X119999502Y-44270094D01*
X121591906Y-45862498D02*
X124769644Y-49040236D01*
X116970963Y-41043566D02*
X120126074Y-44198676D01*
X121663324Y-45735926D02*
X124818434Y-48891037D01*
X117122284Y-40996896D02*
X120266788Y-44141400D01*
X121720600Y-45595212D02*
X124865104Y-48739716D01*
X117277848Y-40954470D02*
X120424473Y-44101095D01*
X121760905Y-45437527D02*
X124907530Y-48584152D01*
X117436240Y-40914872D02*
X120604078Y-44082710D01*
X121779290Y-45257922D02*
X124947128Y-48425760D01*
X117598874Y-40879517D02*
X120816917Y-44097560D01*
X121764440Y-45045083D02*
X124982483Y-48263126D01*
X117764337Y-40846990D02*
X121100467Y-44183120D01*
X121678880Y-44761533D02*
X125015010Y-48097663D01*
X117934750Y-40819413D02*
X125042587Y-47927250D01*
X118109405Y-40796078D02*
X125065922Y-47752595D01*
X118287596Y-40776279D02*
X125085721Y-47574404D01*
X118471444Y-40762137D02*
X125099863Y-47390556D01*
X118660949Y-40753652D02*
X125108348Y-47201051D01*
X118855403Y-40750116D02*
X125111884Y-47006597D01*
X119056221Y-40752945D02*
X125109055Y-46805779D01*
X119264818Y-40763551D02*
X125098449Y-46597182D01*
X119480485Y-40781229D02*
X125080771Y-46381515D01*
X119704638Y-40807392D02*
X125054608Y-46157362D01*
X119938691Y-40843454D02*
X125018546Y-45923309D01*
X120185471Y-40892245D02*
X124969755Y-45676529D01*
X120445686Y-40954470D02*
X124907530Y-45416314D01*
X120722872Y-41033666D02*
X124828334Y-45139128D01*
X121022685Y-41135489D02*
X124726511Y-44839315D01*
X121353611Y-41268425D02*
X124593575Y-44508389D01*
X121731206Y-41448031D02*
X124413969Y-44130794D01*
X122193654Y-41712489D02*
X124149511Y-43668346D01*
X122964400Y-42285245D02*
X123576755Y-42897600D01*
X121779534Y-45232466D02*
G75*
G03X121779534Y-45232466I-1150000J0D01*
G01*
X125149267Y-47000233D02*
G75*
G03X125149267Y-47000233I-6287500J0D01*
G01*
X85150000Y-57400000D02*
X85850000Y-57400000D01*
X85850000Y-58600000D02*
X85150000Y-58600000D01*
X73228000Y-41922000D02*
X70528000Y-41922000D01*
X73228000Y-43422000D02*
X70528000Y-43422000D01*
X71728000Y-42522000D02*
X71728000Y-42772000D01*
X71728000Y-42772000D02*
X71878000Y-42622000D01*
X71978000Y-43022000D02*
X71978000Y-42322000D01*
X71628000Y-42672000D02*
X71278000Y-42672000D01*
X71978000Y-42672000D02*
X71628000Y-43022000D01*
X71628000Y-43022000D02*
X71628000Y-42322000D01*
X71628000Y-42322000D02*
X71978000Y-42672000D01*
X135100000Y-55000000D02*
X135600000Y-55000000D01*
X133100000Y-52500000D02*
G75*
G03X133100000Y-52500000I-2000000J0D01*
G01*
X133100000Y-57500000D02*
G75*
G03X133100000Y-57500000I-2000000J0D01*
G01*
X133600000Y-60000000D02*
X133600000Y-50000000D01*
X128700000Y-60000000D02*
X128700000Y-50000000D01*
X135100000Y-60000000D02*
X135100000Y-50000000D01*
X135600000Y-60000000D02*
X135600000Y-50000000D01*
X135600000Y-50000000D02*
X125800000Y-50000000D01*
X125800000Y-50000000D02*
X125800000Y-60000000D01*
X125800000Y-60000000D02*
X135600000Y-60000000D01*
X72000000Y-45000000D02*
X72000000Y-46500000D01*
X72000000Y-45000000D02*
X67500000Y-45000000D01*
X72000000Y-46500000D02*
X72000000Y-45000000D01*
X72000000Y-55000000D02*
X67500000Y-55000000D01*
X69000000Y-55000000D02*
X72000000Y-55000000D01*
X72000000Y-55000000D02*
X72000000Y-53500000D01*
X72000000Y-51000000D02*
X72000000Y-51500000D01*
X72000000Y-49000000D02*
X72000000Y-48500000D01*
X125222000Y-39624000D02*
X112522000Y-39624000D01*
X112522000Y-39624000D02*
X112522000Y-37084000D01*
X112522000Y-37084000D02*
X125222000Y-37084000D01*
X128042000Y-39904000D02*
X126492000Y-39904000D01*
X125222000Y-39624000D02*
X125222000Y-37084000D01*
X126492000Y-36804000D02*
X128042000Y-36804000D01*
X128042000Y-36804000D02*
X128042000Y-39904000D01*
X102108000Y-61468000D02*
X89408000Y-61468000D01*
X89408000Y-61468000D02*
X89408000Y-58928000D01*
X89408000Y-58928000D02*
X102108000Y-58928000D01*
X104928000Y-61748000D02*
X103378000Y-61748000D01*
X102108000Y-61468000D02*
X102108000Y-58928000D01*
X103378000Y-58648000D02*
X104928000Y-58648000D01*
X104928000Y-58648000D02*
X104928000Y-61748000D01*
X119500000Y-64100000D02*
X119500000Y-64600000D01*
X124000000Y-60100000D02*
G75*
G03X124000000Y-60100000I-2000000J0D01*
G01*
X119000000Y-60100000D02*
G75*
G03X119000000Y-60100000I-2000000J0D01*
G01*
X114500000Y-62600000D02*
X124500000Y-62600000D01*
X114500000Y-57700000D02*
X124500000Y-57700000D01*
X114500000Y-64100000D02*
X124500000Y-64100000D01*
X114500000Y-64600000D02*
X124500000Y-64600000D01*
X124500000Y-64600000D02*
X124500000Y-54800000D01*
X124500000Y-54800000D02*
X114500000Y-54800000D01*
X114500000Y-54800000D02*
X114500000Y-64600000D01*
X108952000Y-59524000D02*
X110095000Y-59524000D01*
X108952000Y-56476000D02*
X110095000Y-56476000D01*
X110095000Y-52666000D02*
X113778000Y-52666000D01*
X113778000Y-52666000D02*
X113778000Y-63334000D01*
X113778000Y-63334000D02*
X110095000Y-63334000D01*
X108952000Y-52666000D02*
X110095000Y-52666000D01*
X110095000Y-52666000D02*
X110095000Y-63334000D01*
X110095000Y-63334000D02*
X108952000Y-63334000D01*
X108952000Y-58000000D02*
X108952000Y-63334000D01*
X108952000Y-58000000D02*
X108952000Y-52666000D01*
X78000000Y-46325000D02*
X79000000Y-46325000D01*
X79000000Y-47675000D02*
X78000000Y-47675000D01*
X78000000Y-48825000D02*
X79000000Y-48825000D01*
X79000000Y-50175000D02*
X78000000Y-50175000D01*
X79000000Y-52675000D02*
X78000000Y-52675000D01*
X78000000Y-51325000D02*
X79000000Y-51325000D01*
X104500000Y-52575000D02*
X105500000Y-52575000D01*
X105500000Y-53925000D02*
X104500000Y-53925000D01*
X104500000Y-50325000D02*
X105500000Y-50325000D01*
X105500000Y-51675000D02*
X104500000Y-51675000D01*
X81026000Y-41148000D02*
G75*
G03X81026000Y-41148000I-2540000J0D01*
G01*
X82296000Y-37338000D02*
X82296000Y-44958000D01*
X82296000Y-44958000D02*
X74676000Y-44958000D01*
X74676000Y-44958000D02*
X74676000Y-37338000D01*
X82296000Y-37338000D02*
X74676000Y-37338000D01*
X109220000Y-41148000D02*
G75*
G03X109220000Y-41148000I-2540000J0D01*
G01*
X102870000Y-44958000D02*
X102870000Y-37338000D01*
X102870000Y-37338000D02*
X110490000Y-37338000D01*
X110490000Y-37338000D02*
X110490000Y-44958000D01*
X102870000Y-44958000D02*
X110490000Y-44958000D01*
X129476000Y-41944000D02*
X126428000Y-41944000D01*
X126428000Y-41944000D02*
X126428000Y-49056000D01*
X126428000Y-49056000D02*
X129476000Y-49056000D01*
X132524000Y-41944000D02*
X133286000Y-41944000D01*
X133286000Y-41944000D02*
X135572000Y-43468000D01*
X135572000Y-43468000D02*
X135572000Y-47532000D01*
X135572000Y-47532000D02*
X133286000Y-49056000D01*
X133286000Y-49056000D02*
X132524000Y-49056000D01*
X74891000Y-55033000D02*
X74891000Y-55258000D01*
X79541000Y-55033000D02*
X79541000Y-55258000D01*
X79541000Y-60283000D02*
X79541000Y-60058000D01*
X74891000Y-60283000D02*
X74891000Y-60058000D01*
X74891000Y-55033000D02*
X79541000Y-55033000D01*
X74891000Y-60283000D02*
X79541000Y-60283000D01*
X74891000Y-55258000D02*
X73541000Y-55258000D01*
X102108000Y-64008000D02*
X79248000Y-64008000D01*
X79248000Y-64008000D02*
X79248000Y-61468000D01*
X79248000Y-61468000D02*
X102108000Y-61468000D01*
X104928000Y-64288000D02*
X103378000Y-64288000D01*
X102108000Y-64008000D02*
X102108000Y-61468000D01*
X103378000Y-61188000D02*
X104928000Y-61188000D01*
X104928000Y-61188000D02*
X104928000Y-64288000D01*
D10*
X76000000Y-68000000D02*
G75*
G03X76000000Y-66000000I0J1000000D01*
G01*
X80000000Y-66000000D02*
G75*
G03X80000000Y-68000000I0J-1000000D01*
G01*
D11*
X159274667Y-109317333D02*
X159841333Y-109317333D01*
X159908000Y-109284000D01*
X159941333Y-109250667D01*
X159974667Y-109184000D01*
X159974667Y-109050667D01*
X159941333Y-108984000D01*
X159908000Y-108950667D01*
X159841333Y-108917333D01*
X159274667Y-108917333D01*
X159274667Y-108650667D02*
X159274667Y-108217334D01*
X159541333Y-108450667D01*
X159541333Y-108350667D01*
X159574667Y-108284000D01*
X159608000Y-108250667D01*
X159674667Y-108217334D01*
X159841333Y-108217334D01*
X159908000Y-108250667D01*
X159941333Y-108284000D01*
X159974667Y-108350667D01*
X159974667Y-108550667D01*
X159941333Y-108617334D01*
X159908000Y-108650667D01*
X146966667Y-53854667D02*
X146966667Y-54421333D01*
X147000000Y-54488000D01*
X147033333Y-54521333D01*
X147100000Y-54554667D01*
X147233333Y-54554667D01*
X147300000Y-54521333D01*
X147333333Y-54488000D01*
X147366667Y-54421333D01*
X147366667Y-53854667D01*
X148066666Y-54554667D02*
X147666666Y-54554667D01*
X147866666Y-54554667D02*
X147866666Y-53854667D01*
X147800000Y-53954667D01*
X147733333Y-54021333D01*
X147666666Y-54054667D01*
X149306667Y-81619999D02*
X148606667Y-81619999D01*
X148606667Y-81353333D01*
X148640000Y-81286666D01*
X148673333Y-81253333D01*
X148740000Y-81219999D01*
X148840000Y-81219999D01*
X148906667Y-81253333D01*
X148940000Y-81286666D01*
X148973333Y-81353333D01*
X148973333Y-81619999D01*
X149306667Y-80519999D02*
X148973333Y-80753333D01*
X149306667Y-80919999D02*
X148606667Y-80919999D01*
X148606667Y-80653333D01*
X148640000Y-80586666D01*
X148673333Y-80553333D01*
X148740000Y-80519999D01*
X148840000Y-80519999D01*
X148906667Y-80553333D01*
X148940000Y-80586666D01*
X148973333Y-80653333D01*
X148973333Y-80919999D01*
X148606667Y-80086666D02*
X148606667Y-79953333D01*
X148640000Y-79886666D01*
X148706667Y-79819999D01*
X148840000Y-79786666D01*
X149073333Y-79786666D01*
X149206667Y-79819999D01*
X149273333Y-79886666D01*
X149306667Y-79953333D01*
X149306667Y-80086666D01*
X149273333Y-80153333D01*
X149206667Y-80219999D01*
X149073333Y-80253333D01*
X148840000Y-80253333D01*
X148706667Y-80219999D01*
X148640000Y-80153333D01*
X148606667Y-80086666D01*
X148640000Y-79120000D02*
X148606667Y-79186666D01*
X148606667Y-79286666D01*
X148640000Y-79386666D01*
X148706667Y-79453333D01*
X148773333Y-79486666D01*
X148906667Y-79520000D01*
X149006667Y-79520000D01*
X149140000Y-79486666D01*
X149206667Y-79453333D01*
X149273333Y-79386666D01*
X149306667Y-79286666D01*
X149306667Y-79220000D01*
X149273333Y-79120000D01*
X149240000Y-79086666D01*
X149006667Y-79086666D01*
X149006667Y-79220000D01*
X149306667Y-78386666D02*
X148973333Y-78620000D01*
X149306667Y-78786666D02*
X148606667Y-78786666D01*
X148606667Y-78520000D01*
X148640000Y-78453333D01*
X148673333Y-78420000D01*
X148740000Y-78386666D01*
X148840000Y-78386666D01*
X148906667Y-78420000D01*
X148940000Y-78453333D01*
X148973333Y-78520000D01*
X148973333Y-78786666D01*
X149106667Y-78120000D02*
X149106667Y-77786666D01*
X149306667Y-78186666D02*
X148606667Y-77953333D01*
X149306667Y-77720000D01*
X149306667Y-77486666D02*
X148606667Y-77486666D01*
X149106667Y-77253333D01*
X148606667Y-77020000D01*
X149306667Y-77020000D01*
X140099334Y-112656667D02*
X139866000Y-112323333D01*
X139699334Y-112656667D02*
X139699334Y-111956667D01*
X139966000Y-111956667D01*
X140032667Y-111990000D01*
X140066000Y-112023333D01*
X140099334Y-112090000D01*
X140099334Y-112190000D01*
X140066000Y-112256667D01*
X140032667Y-112290000D01*
X139966000Y-112323333D01*
X139699334Y-112323333D01*
X140399334Y-112290000D02*
X140632667Y-112290000D01*
X140732667Y-112656667D02*
X140399334Y-112656667D01*
X140399334Y-111956667D01*
X140732667Y-111956667D01*
X140999333Y-112623333D02*
X141099333Y-112656667D01*
X141266000Y-112656667D01*
X141332667Y-112623333D01*
X141366000Y-112590000D01*
X141399333Y-112523333D01*
X141399333Y-112456667D01*
X141366000Y-112390000D01*
X141332667Y-112356667D01*
X141266000Y-112323333D01*
X141132667Y-112290000D01*
X141066000Y-112256667D01*
X141032667Y-112223333D01*
X140999333Y-112156667D01*
X140999333Y-112090000D01*
X141032667Y-112023333D01*
X141066000Y-111990000D01*
X141132667Y-111956667D01*
X141299333Y-111956667D01*
X141399333Y-111990000D01*
X141699334Y-112290000D02*
X141932667Y-112290000D01*
X142032667Y-112656667D02*
X141699334Y-112656667D01*
X141699334Y-111956667D01*
X142032667Y-111956667D01*
X142232667Y-111956667D02*
X142632667Y-111956667D01*
X142432667Y-112656667D02*
X142432667Y-111956667D01*
X152883334Y-84066667D02*
X152650000Y-83733333D01*
X152483334Y-84066667D02*
X152483334Y-83366667D01*
X152750000Y-83366667D01*
X152816667Y-83400000D01*
X152850000Y-83433333D01*
X152883334Y-83500000D01*
X152883334Y-83600000D01*
X152850000Y-83666667D01*
X152816667Y-83700000D01*
X152750000Y-83733333D01*
X152483334Y-83733333D01*
X153516667Y-83366667D02*
X153183334Y-83366667D01*
X153150000Y-83700000D01*
X153183334Y-83666667D01*
X153250000Y-83633333D01*
X153416667Y-83633333D01*
X153483334Y-83666667D01*
X153516667Y-83700000D01*
X153550000Y-83766667D01*
X153550000Y-83933333D01*
X153516667Y-84000000D01*
X153483334Y-84033333D01*
X153416667Y-84066667D01*
X153250000Y-84066667D01*
X153183334Y-84033333D01*
X153150000Y-84000000D01*
X155133334Y-84066667D02*
X154900000Y-83733333D01*
X154733334Y-84066667D02*
X154733334Y-83366667D01*
X155000000Y-83366667D01*
X155066667Y-83400000D01*
X155100000Y-83433333D01*
X155133334Y-83500000D01*
X155133334Y-83600000D01*
X155100000Y-83666667D01*
X155066667Y-83700000D01*
X155000000Y-83733333D01*
X154733334Y-83733333D01*
X155733334Y-83600000D02*
X155733334Y-84066667D01*
X155566667Y-83333333D02*
X155400000Y-83833333D01*
X155833334Y-83833333D01*
X153953334Y-105036667D02*
X153720000Y-104703333D01*
X153553334Y-105036667D02*
X153553334Y-104336667D01*
X153820000Y-104336667D01*
X153886667Y-104370000D01*
X153920000Y-104403333D01*
X153953334Y-104470000D01*
X153953334Y-104570000D01*
X153920000Y-104636667D01*
X153886667Y-104670000D01*
X153820000Y-104703333D01*
X153553334Y-104703333D01*
X154220000Y-104403333D02*
X154253334Y-104370000D01*
X154320000Y-104336667D01*
X154486667Y-104336667D01*
X154553334Y-104370000D01*
X154586667Y-104403333D01*
X154620000Y-104470000D01*
X154620000Y-104536667D01*
X154586667Y-104636667D01*
X154186667Y-105036667D01*
X154620000Y-105036667D01*
X151413334Y-105036667D02*
X151180000Y-104703333D01*
X151013334Y-105036667D02*
X151013334Y-104336667D01*
X151280000Y-104336667D01*
X151346667Y-104370000D01*
X151380000Y-104403333D01*
X151413334Y-104470000D01*
X151413334Y-104570000D01*
X151380000Y-104636667D01*
X151346667Y-104670000D01*
X151280000Y-104703333D01*
X151013334Y-104703333D01*
X151646667Y-104336667D02*
X152080000Y-104336667D01*
X151846667Y-104603333D01*
X151946667Y-104603333D01*
X152013334Y-104636667D01*
X152046667Y-104670000D01*
X152080000Y-104736667D01*
X152080000Y-104903333D01*
X152046667Y-104970000D01*
X152013334Y-105003333D01*
X151946667Y-105036667D01*
X151746667Y-105036667D01*
X151680000Y-105003333D01*
X151646667Y-104970000D01*
X148873334Y-105036667D02*
X148640000Y-104703333D01*
X148473334Y-105036667D02*
X148473334Y-104336667D01*
X148740000Y-104336667D01*
X148806667Y-104370000D01*
X148840000Y-104403333D01*
X148873334Y-104470000D01*
X148873334Y-104570000D01*
X148840000Y-104636667D01*
X148806667Y-104670000D01*
X148740000Y-104703333D01*
X148473334Y-104703333D01*
X149540000Y-105036667D02*
X149140000Y-105036667D01*
X149340000Y-105036667D02*
X149340000Y-104336667D01*
X149273334Y-104436667D01*
X149206667Y-104503333D01*
X149140000Y-104536667D01*
X156133333Y-74066667D02*
X156100000Y-74133333D01*
X156033333Y-74200000D01*
X155933333Y-74300000D01*
X155900000Y-74366667D01*
X155900000Y-74433333D01*
X156066667Y-74400000D02*
X156033333Y-74466667D01*
X155966667Y-74533333D01*
X155833333Y-74566667D01*
X155600000Y-74566667D01*
X155466667Y-74533333D01*
X155400000Y-74466667D01*
X155366667Y-74400000D01*
X155366667Y-74266667D01*
X155400000Y-74200000D01*
X155466667Y-74133333D01*
X155600000Y-74100000D01*
X155833333Y-74100000D01*
X155966667Y-74133333D01*
X156033333Y-74200000D01*
X156066667Y-74266667D01*
X156066667Y-74400000D01*
X155433333Y-73833334D02*
X155400000Y-73800000D01*
X155366667Y-73733334D01*
X155366667Y-73566667D01*
X155400000Y-73500000D01*
X155433333Y-73466667D01*
X155500000Y-73433334D01*
X155566667Y-73433334D01*
X155666667Y-73466667D01*
X156066667Y-73866667D01*
X156066667Y-73433334D01*
X158566667Y-69016666D02*
X157866667Y-69016666D01*
X157866667Y-68850000D01*
X157900000Y-68750000D01*
X157966667Y-68683333D01*
X158033333Y-68650000D01*
X158166667Y-68616666D01*
X158266667Y-68616666D01*
X158400000Y-68650000D01*
X158466667Y-68683333D01*
X158533333Y-68750000D01*
X158566667Y-68850000D01*
X158566667Y-69016666D01*
X158566667Y-67950000D02*
X158566667Y-68350000D01*
X158566667Y-68150000D02*
X157866667Y-68150000D01*
X157966667Y-68216666D01*
X158033333Y-68283333D01*
X158066667Y-68350000D01*
X158100000Y-67349999D02*
X158566667Y-67349999D01*
X157833333Y-67516666D02*
X158333333Y-67683333D01*
X158333333Y-67249999D01*
X158566667Y-66449999D02*
X157866667Y-66449999D01*
X157866667Y-66183333D01*
X157900000Y-66116666D01*
X157933333Y-66083333D01*
X158000000Y-66049999D01*
X158100000Y-66049999D01*
X158166667Y-66083333D01*
X158200000Y-66116666D01*
X158233333Y-66183333D01*
X158233333Y-66449999D01*
X157866667Y-65816666D02*
X158566667Y-65649999D01*
X158066667Y-65516666D01*
X158566667Y-65383333D01*
X157866667Y-65216666D01*
X158566667Y-64949999D02*
X157866667Y-64949999D01*
X158366667Y-64716666D01*
X157866667Y-64483333D01*
X158566667Y-64483333D01*
X139670667Y-56458000D02*
X139437334Y-56458000D01*
X139437334Y-56824667D02*
X139437334Y-56124667D01*
X139770667Y-56124667D01*
X139937334Y-56124667D02*
X140337334Y-56124667D01*
X140137334Y-56824667D02*
X140137334Y-56124667D01*
X140570667Y-56824667D02*
X140570667Y-56124667D01*
X140737333Y-56124667D01*
X140837333Y-56158000D01*
X140904000Y-56224667D01*
X140937333Y-56291333D01*
X140970667Y-56424667D01*
X140970667Y-56524667D01*
X140937333Y-56658000D01*
X140904000Y-56724667D01*
X140837333Y-56791333D01*
X140737333Y-56824667D01*
X140570667Y-56824667D01*
X141270667Y-56824667D02*
X141270667Y-56124667D01*
X150033333Y-110616667D02*
X150200000Y-111316667D01*
X150333333Y-110816667D01*
X150466666Y-111316667D01*
X150633333Y-110616667D01*
X150866666Y-111283333D02*
X150966666Y-111316667D01*
X151133333Y-111316667D01*
X151200000Y-111283333D01*
X151233333Y-111250000D01*
X151266666Y-111183333D01*
X151266666Y-111116667D01*
X151233333Y-111050000D01*
X151200000Y-111016667D01*
X151133333Y-110983333D01*
X151000000Y-110950000D01*
X150933333Y-110916667D01*
X150900000Y-110883333D01*
X150866666Y-110816667D01*
X150866666Y-110750000D01*
X150900000Y-110683333D01*
X150933333Y-110650000D01*
X151000000Y-110616667D01*
X151166666Y-110616667D01*
X151266666Y-110650000D01*
X151533333Y-110683333D02*
X151566667Y-110650000D01*
X151633333Y-110616667D01*
X151800000Y-110616667D01*
X151866667Y-110650000D01*
X151900000Y-110683333D01*
X151933333Y-110750000D01*
X151933333Y-110816667D01*
X151900000Y-110916667D01*
X151500000Y-111316667D01*
X151933333Y-111316667D01*
X152333334Y-110916667D02*
X152266667Y-110883333D01*
X152233334Y-110850000D01*
X152200000Y-110783333D01*
X152200000Y-110750000D01*
X152233334Y-110683333D01*
X152266667Y-110650000D01*
X152333334Y-110616667D01*
X152466667Y-110616667D01*
X152533334Y-110650000D01*
X152566667Y-110683333D01*
X152600000Y-110750000D01*
X152600000Y-110783333D01*
X152566667Y-110850000D01*
X152533334Y-110883333D01*
X152466667Y-110916667D01*
X152333334Y-110916667D01*
X152266667Y-110950000D01*
X152233334Y-110983333D01*
X152200000Y-111050000D01*
X152200000Y-111183333D01*
X152233334Y-111250000D01*
X152266667Y-111283333D01*
X152333334Y-111316667D01*
X152466667Y-111316667D01*
X152533334Y-111283333D01*
X152566667Y-111250000D01*
X152600000Y-111183333D01*
X152600000Y-111050000D01*
X152566667Y-110983333D01*
X152533334Y-110950000D01*
X152466667Y-110916667D01*
X153266667Y-111316667D02*
X152866667Y-111316667D01*
X153066667Y-111316667D02*
X153066667Y-110616667D01*
X153000001Y-110716667D01*
X152933334Y-110783333D01*
X152866667Y-110816667D01*
X153533334Y-110683333D02*
X153566668Y-110650000D01*
X153633334Y-110616667D01*
X153800001Y-110616667D01*
X153866668Y-110650000D01*
X153900001Y-110683333D01*
X153933334Y-110750000D01*
X153933334Y-110816667D01*
X153900001Y-110916667D01*
X153500001Y-111316667D01*
X153933334Y-111316667D01*
X154044667Y-116308000D02*
X153978001Y-116274667D01*
X153878001Y-116274667D01*
X153778001Y-116308000D01*
X153711334Y-116374667D01*
X153678001Y-116441333D01*
X153644667Y-116574667D01*
X153644667Y-116674667D01*
X153678001Y-116808000D01*
X153711334Y-116874667D01*
X153778001Y-116941333D01*
X153878001Y-116974667D01*
X153944667Y-116974667D01*
X154044667Y-116941333D01*
X154078001Y-116908000D01*
X154078001Y-116674667D01*
X153944667Y-116674667D01*
X154378001Y-116974667D02*
X154378001Y-116274667D01*
X154778001Y-116974667D01*
X154778001Y-116274667D01*
X155111334Y-116974667D02*
X155111334Y-116274667D01*
X155278000Y-116274667D01*
X155378000Y-116308000D01*
X155444667Y-116374667D01*
X155478000Y-116441333D01*
X155511334Y-116574667D01*
X155511334Y-116674667D01*
X155478000Y-116808000D01*
X155444667Y-116874667D01*
X155378000Y-116941333D01*
X155278000Y-116974667D01*
X155111334Y-116974667D01*
X151521334Y-116974667D02*
X151521334Y-116274667D01*
X151688000Y-116274667D01*
X151788000Y-116308000D01*
X151854667Y-116374667D01*
X151888000Y-116441333D01*
X151921334Y-116574667D01*
X151921334Y-116674667D01*
X151888000Y-116808000D01*
X151854667Y-116874667D01*
X151788000Y-116941333D01*
X151688000Y-116974667D01*
X151521334Y-116974667D01*
X152354667Y-116274667D02*
X152421334Y-116274667D01*
X152488000Y-116308000D01*
X152521334Y-116341333D01*
X152554667Y-116408000D01*
X152588000Y-116541333D01*
X152588000Y-116708000D01*
X152554667Y-116841333D01*
X152521334Y-116908000D01*
X152488000Y-116941333D01*
X152421334Y-116974667D01*
X152354667Y-116974667D01*
X152288000Y-116941333D01*
X152254667Y-116908000D01*
X152221334Y-116841333D01*
X152188000Y-116708000D01*
X152188000Y-116541333D01*
X152221334Y-116408000D01*
X152254667Y-116341333D01*
X152288000Y-116308000D01*
X152354667Y-116274667D01*
X148598000Y-116708000D02*
X149131333Y-116708000D01*
X148864666Y-116974667D02*
X148864666Y-116441333D01*
X149798000Y-116274667D02*
X149464667Y-116274667D01*
X149431333Y-116608000D01*
X149464667Y-116574667D01*
X149531333Y-116541333D01*
X149698000Y-116541333D01*
X149764667Y-116574667D01*
X149798000Y-116608000D01*
X149831333Y-116674667D01*
X149831333Y-116841333D01*
X149798000Y-116908000D01*
X149764667Y-116941333D01*
X149698000Y-116974667D01*
X149531333Y-116974667D01*
X149464667Y-116941333D01*
X149431333Y-116908000D01*
X150031334Y-116274667D02*
X150264667Y-116974667D01*
X150498000Y-116274667D01*
X155133334Y-59066667D02*
X155133334Y-58366667D01*
X155400000Y-58366667D01*
X155466667Y-58400000D01*
X155500000Y-58433333D01*
X155533334Y-58500000D01*
X155533334Y-58600000D01*
X155500000Y-58666667D01*
X155466667Y-58700000D01*
X155400000Y-58733333D01*
X155133334Y-58733333D01*
X155966667Y-58366667D02*
X156100000Y-58366667D01*
X156166667Y-58400000D01*
X156233334Y-58466667D01*
X156266667Y-58600000D01*
X156266667Y-58833333D01*
X156233334Y-58966667D01*
X156166667Y-59033333D01*
X156100000Y-59066667D01*
X155966667Y-59066667D01*
X155900000Y-59033333D01*
X155833334Y-58966667D01*
X155800000Y-58833333D01*
X155800000Y-58600000D01*
X155833334Y-58466667D01*
X155900000Y-58400000D01*
X155966667Y-58366667D01*
X156500000Y-58366667D02*
X156666667Y-59066667D01*
X156800000Y-58566667D01*
X156933333Y-59066667D01*
X157100000Y-58366667D01*
X157366667Y-58700000D02*
X157600000Y-58700000D01*
X157700000Y-59066667D02*
X157366667Y-59066667D01*
X157366667Y-58366667D01*
X157700000Y-58366667D01*
X158400000Y-59066667D02*
X158166666Y-58733333D01*
X158000000Y-59066667D02*
X158000000Y-58366667D01*
X158266666Y-58366667D01*
X158333333Y-58400000D01*
X158366666Y-58433333D01*
X158400000Y-58500000D01*
X158400000Y-58600000D01*
X158366666Y-58666667D01*
X158333333Y-58700000D01*
X158266666Y-58733333D01*
X158000000Y-58733333D01*
X161940000Y-100772666D02*
X161973333Y-100806000D01*
X162006667Y-100906000D01*
X162006667Y-100972666D01*
X161973333Y-101072666D01*
X161906667Y-101139333D01*
X161840000Y-101172666D01*
X161706667Y-101206000D01*
X161606667Y-101206000D01*
X161473333Y-101172666D01*
X161406667Y-101139333D01*
X161340000Y-101072666D01*
X161306667Y-100972666D01*
X161306667Y-100906000D01*
X161340000Y-100806000D01*
X161373333Y-100772666D01*
X161373333Y-100506000D02*
X161340000Y-100472666D01*
X161306667Y-100406000D01*
X161306667Y-100239333D01*
X161340000Y-100172666D01*
X161373333Y-100139333D01*
X161440000Y-100106000D01*
X161506667Y-100106000D01*
X161606667Y-100139333D01*
X162006667Y-100539333D01*
X162006667Y-100106000D01*
X148387408Y-71121601D02*
X148340267Y-71121601D01*
X148245986Y-71074461D01*
X148198846Y-71027321D01*
X148151706Y-70933039D01*
X148151705Y-70838759D01*
X148175276Y-70768048D01*
X148245986Y-70650197D01*
X148316697Y-70579486D01*
X148434549Y-70508775D01*
X148505259Y-70485205D01*
X148599540Y-70485205D01*
X148693821Y-70532346D01*
X148740961Y-70579486D01*
X148788101Y-70673767D01*
X148788102Y-70720907D01*
X148811671Y-71640146D02*
X148528829Y-71357303D01*
X148670250Y-71498725D02*
X149165225Y-71003750D01*
X149047374Y-71027321D01*
X148953093Y-71027320D01*
X148882382Y-71003750D01*
X89292002Y-99916667D02*
X89292002Y-99216667D01*
X89692002Y-99916667D01*
X89692002Y-99216667D01*
X90125335Y-99916667D02*
X90058668Y-99883333D01*
X90025335Y-99850000D01*
X89992001Y-99783333D01*
X89992001Y-99583333D01*
X90025335Y-99516667D01*
X90058668Y-99483333D01*
X90125335Y-99450000D01*
X90225335Y-99450000D01*
X90292001Y-99483333D01*
X90325335Y-99516667D01*
X90358668Y-99583333D01*
X90358668Y-99783333D01*
X90325335Y-99850000D01*
X90292001Y-99883333D01*
X90225335Y-99916667D01*
X90125335Y-99916667D01*
X91592001Y-99850000D02*
X91558667Y-99883333D01*
X91458667Y-99916667D01*
X91392001Y-99916667D01*
X91292001Y-99883333D01*
X91225334Y-99816667D01*
X91192001Y-99750000D01*
X91158667Y-99616667D01*
X91158667Y-99516667D01*
X91192001Y-99383333D01*
X91225334Y-99316667D01*
X91292001Y-99250000D01*
X91392001Y-99216667D01*
X91458667Y-99216667D01*
X91558667Y-99250000D01*
X91592001Y-99283333D01*
X91992001Y-99916667D02*
X91925334Y-99883333D01*
X91892001Y-99850000D01*
X91858667Y-99783333D01*
X91858667Y-99583333D01*
X91892001Y-99516667D01*
X91925334Y-99483333D01*
X91992001Y-99450000D01*
X92092001Y-99450000D01*
X92158667Y-99483333D01*
X92192001Y-99516667D01*
X92225334Y-99583333D01*
X92225334Y-99783333D01*
X92192001Y-99850000D01*
X92158667Y-99883333D01*
X92092001Y-99916667D01*
X91992001Y-99916667D01*
X92525334Y-99450000D02*
X92525334Y-100150000D01*
X92525334Y-99483333D02*
X92592000Y-99450000D01*
X92725334Y-99450000D01*
X92792000Y-99483333D01*
X92825334Y-99516667D01*
X92858667Y-99583333D01*
X92858667Y-99783333D01*
X92825334Y-99850000D01*
X92792000Y-99883333D01*
X92725334Y-99916667D01*
X92592000Y-99916667D01*
X92525334Y-99883333D01*
X93158667Y-99450000D02*
X93158667Y-100150000D01*
X93158667Y-99483333D02*
X93225333Y-99450000D01*
X93358667Y-99450000D01*
X93425333Y-99483333D01*
X93458667Y-99516667D01*
X93492000Y-99583333D01*
X93492000Y-99783333D01*
X93458667Y-99850000D01*
X93425333Y-99883333D01*
X93358667Y-99916667D01*
X93225333Y-99916667D01*
X93158667Y-99883333D01*
X94058666Y-99883333D02*
X93992000Y-99916667D01*
X93858666Y-99916667D01*
X93792000Y-99883333D01*
X93758666Y-99816667D01*
X93758666Y-99550000D01*
X93792000Y-99483333D01*
X93858666Y-99450000D01*
X93992000Y-99450000D01*
X94058666Y-99483333D01*
X94092000Y-99550000D01*
X94092000Y-99616667D01*
X93758666Y-99683333D01*
X94392000Y-99916667D02*
X94392000Y-99450000D01*
X94392000Y-99583333D02*
X94425333Y-99516667D01*
X94458666Y-99483333D01*
X94525333Y-99450000D01*
X94592000Y-99450000D01*
X115066961Y-110905952D02*
X115066961Y-110953093D01*
X115019821Y-111047374D01*
X114972681Y-111094514D01*
X114878399Y-111141654D01*
X114784119Y-111141655D01*
X114713408Y-111118084D01*
X114595557Y-111047374D01*
X114524846Y-110976663D01*
X114454135Y-110858811D01*
X114430565Y-110788101D01*
X114430565Y-110693820D01*
X114477706Y-110599539D01*
X114524846Y-110552399D01*
X114619127Y-110505259D01*
X114666267Y-110505258D01*
X115585506Y-110481689D02*
X115302663Y-110764531D01*
X115444085Y-110623110D02*
X114949110Y-110128135D01*
X114972681Y-110245986D01*
X114972680Y-110340267D01*
X114949110Y-110410978D01*
X85227334Y-123940000D02*
X85194000Y-123973333D01*
X85094000Y-124006667D01*
X85027334Y-124006667D01*
X84927334Y-123973333D01*
X84860667Y-123906667D01*
X84827334Y-123840000D01*
X84794000Y-123706667D01*
X84794000Y-123606667D01*
X84827334Y-123473333D01*
X84860667Y-123406667D01*
X84927334Y-123340000D01*
X85027334Y-123306667D01*
X85094000Y-123306667D01*
X85194000Y-123340000D01*
X85227334Y-123373333D01*
X85494000Y-123373333D02*
X85527334Y-123340000D01*
X85594000Y-123306667D01*
X85760667Y-123306667D01*
X85827334Y-123340000D01*
X85860667Y-123373333D01*
X85894000Y-123440000D01*
X85894000Y-123506667D01*
X85860667Y-123606667D01*
X85460667Y-124006667D01*
X85894000Y-124006667D01*
X127566667Y-120366666D02*
X126866667Y-120366666D01*
X126866667Y-120100000D01*
X126900000Y-120033333D01*
X126933333Y-120000000D01*
X127000000Y-119966666D01*
X127100000Y-119966666D01*
X127166667Y-120000000D01*
X127200000Y-120033333D01*
X127233333Y-120100000D01*
X127233333Y-120366666D01*
X126866667Y-119533333D02*
X126866667Y-119400000D01*
X126900000Y-119333333D01*
X126966667Y-119266666D01*
X127100000Y-119233333D01*
X127333333Y-119233333D01*
X127466667Y-119266666D01*
X127533333Y-119333333D01*
X127566667Y-119400000D01*
X127566667Y-119533333D01*
X127533333Y-119600000D01*
X127466667Y-119666666D01*
X127333333Y-119700000D01*
X127100000Y-119700000D01*
X126966667Y-119666666D01*
X126900000Y-119600000D01*
X126866667Y-119533333D01*
X126866667Y-119000000D02*
X127566667Y-118833333D01*
X127066667Y-118700000D01*
X127566667Y-118566667D01*
X126866667Y-118400000D01*
X127200000Y-118133333D02*
X127200000Y-117900000D01*
X127566667Y-117800000D02*
X127566667Y-118133333D01*
X126866667Y-118133333D01*
X126866667Y-117800000D01*
X127566667Y-117100000D02*
X127233333Y-117333334D01*
X127566667Y-117500000D02*
X126866667Y-117500000D01*
X126866667Y-117233334D01*
X126900000Y-117166667D01*
X126933333Y-117133334D01*
X127000000Y-117100000D01*
X127100000Y-117100000D01*
X127166667Y-117133334D01*
X127200000Y-117166667D01*
X127233333Y-117233334D01*
X127233333Y-117500000D01*
X74616667Y-115966667D02*
X75316667Y-115800000D01*
X74816667Y-115666667D01*
X75316667Y-115533334D01*
X74616667Y-115366667D01*
X75283333Y-115133334D02*
X75316667Y-115033334D01*
X75316667Y-114866667D01*
X75283333Y-114800000D01*
X75250000Y-114766667D01*
X75183333Y-114733334D01*
X75116667Y-114733334D01*
X75050000Y-114766667D01*
X75016667Y-114800000D01*
X74983333Y-114866667D01*
X74950000Y-115000000D01*
X74916667Y-115066667D01*
X74883333Y-115100000D01*
X74816667Y-115133334D01*
X74750000Y-115133334D01*
X74683333Y-115100000D01*
X74650000Y-115066667D01*
X74616667Y-115000000D01*
X74616667Y-114833334D01*
X74650000Y-114733334D01*
X74683333Y-114466667D02*
X74650000Y-114433333D01*
X74616667Y-114366667D01*
X74616667Y-114200000D01*
X74650000Y-114133333D01*
X74683333Y-114100000D01*
X74750000Y-114066667D01*
X74816667Y-114066667D01*
X74916667Y-114100000D01*
X75316667Y-114500000D01*
X75316667Y-114066667D01*
X74916667Y-113666666D02*
X74883333Y-113733333D01*
X74850000Y-113766666D01*
X74783333Y-113800000D01*
X74750000Y-113800000D01*
X74683333Y-113766666D01*
X74650000Y-113733333D01*
X74616667Y-113666666D01*
X74616667Y-113533333D01*
X74650000Y-113466666D01*
X74683333Y-113433333D01*
X74750000Y-113400000D01*
X74783333Y-113400000D01*
X74850000Y-113433333D01*
X74883333Y-113466666D01*
X74916667Y-113533333D01*
X74916667Y-113666666D01*
X74950000Y-113733333D01*
X74983333Y-113766666D01*
X75050000Y-113800000D01*
X75183333Y-113800000D01*
X75250000Y-113766666D01*
X75283333Y-113733333D01*
X75316667Y-113666666D01*
X75316667Y-113533333D01*
X75283333Y-113466666D01*
X75250000Y-113433333D01*
X75183333Y-113400000D01*
X75050000Y-113400000D01*
X74983333Y-113433333D01*
X74950000Y-113466666D01*
X74916667Y-113533333D01*
X75316667Y-112733333D02*
X75316667Y-113133333D01*
X75316667Y-112933333D02*
X74616667Y-112933333D01*
X74716667Y-112999999D01*
X74783333Y-113066666D01*
X74816667Y-113133333D01*
X74683333Y-112466666D02*
X74650000Y-112433332D01*
X74616667Y-112366666D01*
X74616667Y-112199999D01*
X74650000Y-112133332D01*
X74683333Y-112099999D01*
X74750000Y-112066666D01*
X74816667Y-112066666D01*
X74916667Y-112099999D01*
X75316667Y-112499999D01*
X75316667Y-112066666D01*
X68992000Y-117111333D02*
X68958667Y-117177999D01*
X68958667Y-117277999D01*
X68992000Y-117377999D01*
X69058667Y-117444666D01*
X69125333Y-117477999D01*
X69258667Y-117511333D01*
X69358667Y-117511333D01*
X69492000Y-117477999D01*
X69558667Y-117444666D01*
X69625333Y-117377999D01*
X69658667Y-117277999D01*
X69658667Y-117211333D01*
X69625333Y-117111333D01*
X69592000Y-117077999D01*
X69358667Y-117077999D01*
X69358667Y-117211333D01*
X69658667Y-116777999D02*
X68958667Y-116777999D01*
X69658667Y-116377999D01*
X68958667Y-116377999D01*
X69658667Y-116044666D02*
X68958667Y-116044666D01*
X68958667Y-115878000D01*
X68992000Y-115778000D01*
X69058667Y-115711333D01*
X69125333Y-115678000D01*
X69258667Y-115644666D01*
X69358667Y-115644666D01*
X69492000Y-115678000D01*
X69558667Y-115711333D01*
X69625333Y-115778000D01*
X69658667Y-115878000D01*
X69658667Y-116044666D01*
X69658667Y-114554666D02*
X68958667Y-114554666D01*
X68958667Y-114388000D01*
X68992000Y-114288000D01*
X69058667Y-114221333D01*
X69125333Y-114188000D01*
X69258667Y-114154666D01*
X69358667Y-114154666D01*
X69492000Y-114188000D01*
X69558667Y-114221333D01*
X69625333Y-114288000D01*
X69658667Y-114388000D01*
X69658667Y-114554666D01*
X68958667Y-113721333D02*
X68958667Y-113654666D01*
X68992000Y-113588000D01*
X69025333Y-113554666D01*
X69092000Y-113521333D01*
X69225333Y-113488000D01*
X69392000Y-113488000D01*
X69525333Y-113521333D01*
X69592000Y-113554666D01*
X69625333Y-113588000D01*
X69658667Y-113654666D01*
X69658667Y-113721333D01*
X69625333Y-113788000D01*
X69592000Y-113821333D01*
X69525333Y-113854666D01*
X69392000Y-113888000D01*
X69225333Y-113888000D01*
X69092000Y-113854666D01*
X69025333Y-113821333D01*
X68992000Y-113788000D01*
X68958667Y-113721333D01*
X69392000Y-112398000D02*
X69392000Y-111864667D01*
X69658667Y-112131334D02*
X69125333Y-112131334D01*
X68958667Y-111198000D02*
X68958667Y-111531333D01*
X69292000Y-111564667D01*
X69258667Y-111531333D01*
X69225333Y-111464667D01*
X69225333Y-111298000D01*
X69258667Y-111231333D01*
X69292000Y-111198000D01*
X69358667Y-111164667D01*
X69525333Y-111164667D01*
X69592000Y-111198000D01*
X69625333Y-111231333D01*
X69658667Y-111298000D01*
X69658667Y-111464667D01*
X69625333Y-111531333D01*
X69592000Y-111564667D01*
X68958667Y-110964666D02*
X69658667Y-110731333D01*
X68958667Y-110498000D01*
X129442000Y-103037333D02*
X129442000Y-103270666D01*
X129808667Y-103270666D02*
X129108667Y-103270666D01*
X129108667Y-102937333D01*
X129108667Y-102770666D02*
X129108667Y-102370666D01*
X129808667Y-102570666D02*
X129108667Y-102570666D01*
X129808667Y-102137333D02*
X129108667Y-102137333D01*
X129108667Y-101970667D01*
X129142000Y-101870667D01*
X129208667Y-101804000D01*
X129275333Y-101770667D01*
X129408667Y-101737333D01*
X129508667Y-101737333D01*
X129642000Y-101770667D01*
X129708667Y-101804000D01*
X129775333Y-101870667D01*
X129808667Y-101970667D01*
X129808667Y-102137333D01*
X129808667Y-101437333D02*
X129108667Y-101437333D01*
X116983334Y-120566667D02*
X116983334Y-119866667D01*
X117150000Y-119866667D01*
X117250000Y-119900000D01*
X117316667Y-119966667D01*
X117350000Y-120033333D01*
X117383334Y-120166667D01*
X117383334Y-120266667D01*
X117350000Y-120400000D01*
X117316667Y-120466667D01*
X117250000Y-120533333D01*
X117150000Y-120566667D01*
X116983334Y-120566667D01*
X118050000Y-120566667D02*
X117650000Y-120566667D01*
X117850000Y-120566667D02*
X117850000Y-119866667D01*
X117783334Y-119966667D01*
X117716667Y-120033333D01*
X117650000Y-120066667D01*
X118650001Y-120100000D02*
X118650001Y-120566667D01*
X118483334Y-119833333D02*
X118316667Y-120333333D01*
X118750001Y-120333333D01*
X119550001Y-120566667D02*
X119550001Y-119866667D01*
X119816667Y-119866667D01*
X119883334Y-119900000D01*
X119916667Y-119933333D01*
X119950001Y-120000000D01*
X119950001Y-120100000D01*
X119916667Y-120166667D01*
X119883334Y-120200000D01*
X119816667Y-120233333D01*
X119550001Y-120233333D01*
X120183334Y-119866667D02*
X120350001Y-120566667D01*
X120483334Y-120066667D01*
X120616667Y-120566667D01*
X120783334Y-119866667D01*
X121050001Y-120566667D02*
X121050001Y-119866667D01*
X121283334Y-120366667D01*
X121516667Y-119866667D01*
X121516667Y-120566667D01*
X111933333Y-118133333D02*
X111866667Y-118100000D01*
X111800000Y-118033333D01*
X111700000Y-117933333D01*
X111633333Y-117900000D01*
X111566667Y-117900000D01*
X111600000Y-118066667D02*
X111533333Y-118033333D01*
X111466667Y-117966667D01*
X111433333Y-117833333D01*
X111433333Y-117600000D01*
X111466667Y-117466667D01*
X111533333Y-117400000D01*
X111600000Y-117366667D01*
X111733333Y-117366667D01*
X111800000Y-117400000D01*
X111866667Y-117466667D01*
X111900000Y-117600000D01*
X111900000Y-117833333D01*
X111866667Y-117966667D01*
X111800000Y-118033333D01*
X111733333Y-118066667D01*
X111600000Y-118066667D01*
X112166666Y-117433333D02*
X112200000Y-117400000D01*
X112266666Y-117366667D01*
X112433333Y-117366667D01*
X112500000Y-117400000D01*
X112533333Y-117433333D01*
X112566666Y-117500000D01*
X112566666Y-117566667D01*
X112533333Y-117666667D01*
X112133333Y-118066667D01*
X112566666Y-118066667D01*
X81596667Y-111106666D02*
X81263333Y-111340000D01*
X81596667Y-111506666D02*
X80896667Y-111506666D01*
X80896667Y-111240000D01*
X80930000Y-111173333D01*
X80963333Y-111140000D01*
X81030000Y-111106666D01*
X81130000Y-111106666D01*
X81196667Y-111140000D01*
X81230000Y-111173333D01*
X81263333Y-111240000D01*
X81263333Y-111506666D01*
X81596667Y-110440000D02*
X81596667Y-110840000D01*
X81596667Y-110640000D02*
X80896667Y-110640000D01*
X80996667Y-110706666D01*
X81063333Y-110773333D01*
X81096667Y-110840000D01*
X81596667Y-113646666D02*
X81263333Y-113880000D01*
X81596667Y-114046666D02*
X80896667Y-114046666D01*
X80896667Y-113780000D01*
X80930000Y-113713333D01*
X80963333Y-113680000D01*
X81030000Y-113646666D01*
X81130000Y-113646666D01*
X81196667Y-113680000D01*
X81230000Y-113713333D01*
X81263333Y-113780000D01*
X81263333Y-114046666D01*
X80896667Y-113413333D02*
X80896667Y-112980000D01*
X81163333Y-113213333D01*
X81163333Y-113113333D01*
X81196667Y-113046666D01*
X81230000Y-113013333D01*
X81296667Y-112980000D01*
X81463333Y-112980000D01*
X81530000Y-113013333D01*
X81563333Y-113046666D01*
X81596667Y-113113333D01*
X81596667Y-113313333D01*
X81563333Y-113380000D01*
X81530000Y-113413333D01*
X81596667Y-116186666D02*
X81263333Y-116420000D01*
X81596667Y-116586666D02*
X80896667Y-116586666D01*
X80896667Y-116320000D01*
X80930000Y-116253333D01*
X80963333Y-116220000D01*
X81030000Y-116186666D01*
X81130000Y-116186666D01*
X81196667Y-116220000D01*
X81230000Y-116253333D01*
X81263333Y-116320000D01*
X81263333Y-116586666D01*
X80963333Y-115920000D02*
X80930000Y-115886666D01*
X80896667Y-115820000D01*
X80896667Y-115653333D01*
X80930000Y-115586666D01*
X80963333Y-115553333D01*
X81030000Y-115520000D01*
X81096667Y-115520000D01*
X81196667Y-115553333D01*
X81596667Y-115953333D01*
X81596667Y-115520000D01*
X102566667Y-117366666D02*
X102233333Y-117600000D01*
X102566667Y-117766666D02*
X101866667Y-117766666D01*
X101866667Y-117500000D01*
X101900000Y-117433333D01*
X101933333Y-117400000D01*
X102000000Y-117366666D01*
X102100000Y-117366666D01*
X102166667Y-117400000D01*
X102200000Y-117433333D01*
X102233333Y-117500000D01*
X102233333Y-117766666D01*
X102100000Y-116766666D02*
X102566667Y-116766666D01*
X101833333Y-116933333D02*
X102333333Y-117100000D01*
X102333333Y-116666666D01*
X102566667Y-115116666D02*
X102233333Y-115350000D01*
X102566667Y-115516666D02*
X101866667Y-115516666D01*
X101866667Y-115250000D01*
X101900000Y-115183333D01*
X101933333Y-115150000D01*
X102000000Y-115116666D01*
X102100000Y-115116666D01*
X102166667Y-115150000D01*
X102200000Y-115183333D01*
X102233333Y-115250000D01*
X102233333Y-115516666D01*
X101866667Y-114483333D02*
X101866667Y-114816666D01*
X102200000Y-114850000D01*
X102166667Y-114816666D01*
X102133333Y-114750000D01*
X102133333Y-114583333D01*
X102166667Y-114516666D01*
X102200000Y-114483333D01*
X102266667Y-114450000D01*
X102433333Y-114450000D01*
X102500000Y-114483333D01*
X102533333Y-114516666D01*
X102566667Y-114583333D01*
X102566667Y-114750000D01*
X102533333Y-114816666D01*
X102500000Y-114850000D01*
X73976667Y-104132666D02*
X73643333Y-104366000D01*
X73976667Y-104532666D02*
X73276667Y-104532666D01*
X73276667Y-104266000D01*
X73310000Y-104199333D01*
X73343333Y-104166000D01*
X73410000Y-104132666D01*
X73510000Y-104132666D01*
X73576667Y-104166000D01*
X73610000Y-104199333D01*
X73643333Y-104266000D01*
X73643333Y-104532666D01*
X73610000Y-103832666D02*
X73610000Y-103599333D01*
X73976667Y-103499333D02*
X73976667Y-103832666D01*
X73276667Y-103832666D01*
X73276667Y-103499333D01*
X73943333Y-103232667D02*
X73976667Y-103132667D01*
X73976667Y-102966000D01*
X73943333Y-102899333D01*
X73910000Y-102866000D01*
X73843333Y-102832667D01*
X73776667Y-102832667D01*
X73710000Y-102866000D01*
X73676667Y-102899333D01*
X73643333Y-102966000D01*
X73610000Y-103099333D01*
X73576667Y-103166000D01*
X73543333Y-103199333D01*
X73476667Y-103232667D01*
X73410000Y-103232667D01*
X73343333Y-103199333D01*
X73310000Y-103166000D01*
X73276667Y-103099333D01*
X73276667Y-102932667D01*
X73310000Y-102832667D01*
X73610000Y-102532666D02*
X73610000Y-102299333D01*
X73976667Y-102199333D02*
X73976667Y-102532666D01*
X73276667Y-102532666D01*
X73276667Y-102199333D01*
X73276667Y-101999333D02*
X73276667Y-101599333D01*
X73976667Y-101799333D02*
X73276667Y-101799333D01*
X104380001Y-111306667D02*
X104380001Y-110606667D01*
X104646667Y-110606667D01*
X104713334Y-110640000D01*
X104746667Y-110673333D01*
X104780001Y-110740000D01*
X104780001Y-110840000D01*
X104746667Y-110906667D01*
X104713334Y-110940000D01*
X104646667Y-110973333D01*
X104380001Y-110973333D01*
X105480001Y-111306667D02*
X105246667Y-110973333D01*
X105080001Y-111306667D02*
X105080001Y-110606667D01*
X105346667Y-110606667D01*
X105413334Y-110640000D01*
X105446667Y-110673333D01*
X105480001Y-110740000D01*
X105480001Y-110840000D01*
X105446667Y-110906667D01*
X105413334Y-110940000D01*
X105346667Y-110973333D01*
X105080001Y-110973333D01*
X105913334Y-110606667D02*
X106046667Y-110606667D01*
X106113334Y-110640000D01*
X106180001Y-110706667D01*
X106213334Y-110840000D01*
X106213334Y-111073333D01*
X106180001Y-111206667D01*
X106113334Y-111273333D01*
X106046667Y-111306667D01*
X105913334Y-111306667D01*
X105846667Y-111273333D01*
X105780001Y-111206667D01*
X105746667Y-111073333D01*
X105746667Y-110840000D01*
X105780001Y-110706667D01*
X105846667Y-110640000D01*
X105913334Y-110606667D01*
X106880000Y-110640000D02*
X106813334Y-110606667D01*
X106713334Y-110606667D01*
X106613334Y-110640000D01*
X106546667Y-110706667D01*
X106513334Y-110773333D01*
X106480000Y-110906667D01*
X106480000Y-111006667D01*
X106513334Y-111140000D01*
X106546667Y-111206667D01*
X106613334Y-111273333D01*
X106713334Y-111306667D01*
X106780000Y-111306667D01*
X106880000Y-111273333D01*
X106913334Y-111240000D01*
X106913334Y-111006667D01*
X106780000Y-111006667D01*
X107613334Y-111306667D02*
X107380000Y-110973333D01*
X107213334Y-111306667D02*
X107213334Y-110606667D01*
X107480000Y-110606667D01*
X107546667Y-110640000D01*
X107580000Y-110673333D01*
X107613334Y-110740000D01*
X107613334Y-110840000D01*
X107580000Y-110906667D01*
X107546667Y-110940000D01*
X107480000Y-110973333D01*
X107213334Y-110973333D01*
X107880000Y-111106667D02*
X108213334Y-111106667D01*
X107813334Y-111306667D02*
X108046667Y-110606667D01*
X108280000Y-111306667D01*
X108513334Y-111306667D02*
X108513334Y-110606667D01*
X108746667Y-111106667D01*
X108980000Y-110606667D01*
X108980000Y-111306667D01*
X131378667Y-110033333D02*
X131945333Y-110033333D01*
X132012000Y-110000000D01*
X132045333Y-109966667D01*
X132078667Y-109900000D01*
X132078667Y-109766667D01*
X132045333Y-109700000D01*
X132012000Y-109666667D01*
X131945333Y-109633333D01*
X131378667Y-109633333D01*
X132078667Y-108933334D02*
X132078667Y-109333334D01*
X132078667Y-109133334D02*
X131378667Y-109133334D01*
X131478667Y-109200000D01*
X131545333Y-109266667D01*
X131578667Y-109333334D01*
X76682667Y-121274667D02*
X76682667Y-121841333D01*
X76716000Y-121908000D01*
X76749333Y-121941333D01*
X76816000Y-121974667D01*
X76949333Y-121974667D01*
X77016000Y-121941333D01*
X77049333Y-121908000D01*
X77082667Y-121841333D01*
X77082667Y-121274667D01*
X77349333Y-121274667D02*
X77782666Y-121274667D01*
X77549333Y-121541333D01*
X77649333Y-121541333D01*
X77716000Y-121574667D01*
X77749333Y-121608000D01*
X77782666Y-121674667D01*
X77782666Y-121841333D01*
X77749333Y-121908000D01*
X77716000Y-121941333D01*
X77649333Y-121974667D01*
X77449333Y-121974667D01*
X77382666Y-121941333D01*
X77349333Y-121908000D01*
X76682667Y-89274667D02*
X76682667Y-89841333D01*
X76716000Y-89908000D01*
X76749333Y-89941333D01*
X76816000Y-89974667D01*
X76949333Y-89974667D01*
X77016000Y-89941333D01*
X77049333Y-89908000D01*
X77082667Y-89841333D01*
X77082667Y-89274667D01*
X77349333Y-89274667D02*
X77782666Y-89274667D01*
X77549333Y-89541333D01*
X77649333Y-89541333D01*
X77716000Y-89574667D01*
X77749333Y-89608000D01*
X77782666Y-89674667D01*
X77782666Y-89841333D01*
X77749333Y-89908000D01*
X77716000Y-89941333D01*
X77649333Y-89974667D01*
X77449333Y-89974667D01*
X77382666Y-89941333D01*
X77349333Y-89908000D01*
X131378667Y-78033333D02*
X131945333Y-78033333D01*
X132012000Y-78000000D01*
X132045333Y-77966667D01*
X132078667Y-77900000D01*
X132078667Y-77766667D01*
X132045333Y-77700000D01*
X132012000Y-77666667D01*
X131945333Y-77633333D01*
X131378667Y-77633333D01*
X132078667Y-76933334D02*
X132078667Y-77333334D01*
X132078667Y-77133334D02*
X131378667Y-77133334D01*
X131478667Y-77200000D01*
X131545333Y-77266667D01*
X131578667Y-77333334D01*
X104380001Y-79306667D02*
X104380001Y-78606667D01*
X104646667Y-78606667D01*
X104713334Y-78640000D01*
X104746667Y-78673333D01*
X104780001Y-78740000D01*
X104780001Y-78840000D01*
X104746667Y-78906667D01*
X104713334Y-78940000D01*
X104646667Y-78973333D01*
X104380001Y-78973333D01*
X105480001Y-79306667D02*
X105246667Y-78973333D01*
X105080001Y-79306667D02*
X105080001Y-78606667D01*
X105346667Y-78606667D01*
X105413334Y-78640000D01*
X105446667Y-78673333D01*
X105480001Y-78740000D01*
X105480001Y-78840000D01*
X105446667Y-78906667D01*
X105413334Y-78940000D01*
X105346667Y-78973333D01*
X105080001Y-78973333D01*
X105913334Y-78606667D02*
X106046667Y-78606667D01*
X106113334Y-78640000D01*
X106180001Y-78706667D01*
X106213334Y-78840000D01*
X106213334Y-79073333D01*
X106180001Y-79206667D01*
X106113334Y-79273333D01*
X106046667Y-79306667D01*
X105913334Y-79306667D01*
X105846667Y-79273333D01*
X105780001Y-79206667D01*
X105746667Y-79073333D01*
X105746667Y-78840000D01*
X105780001Y-78706667D01*
X105846667Y-78640000D01*
X105913334Y-78606667D01*
X106880000Y-78640000D02*
X106813334Y-78606667D01*
X106713334Y-78606667D01*
X106613334Y-78640000D01*
X106546667Y-78706667D01*
X106513334Y-78773333D01*
X106480000Y-78906667D01*
X106480000Y-79006667D01*
X106513334Y-79140000D01*
X106546667Y-79206667D01*
X106613334Y-79273333D01*
X106713334Y-79306667D01*
X106780000Y-79306667D01*
X106880000Y-79273333D01*
X106913334Y-79240000D01*
X106913334Y-79006667D01*
X106780000Y-79006667D01*
X107613334Y-79306667D02*
X107380000Y-78973333D01*
X107213334Y-79306667D02*
X107213334Y-78606667D01*
X107480000Y-78606667D01*
X107546667Y-78640000D01*
X107580000Y-78673333D01*
X107613334Y-78740000D01*
X107613334Y-78840000D01*
X107580000Y-78906667D01*
X107546667Y-78940000D01*
X107480000Y-78973333D01*
X107213334Y-78973333D01*
X107880000Y-79106667D02*
X108213334Y-79106667D01*
X107813334Y-79306667D02*
X108046667Y-78606667D01*
X108280000Y-79306667D01*
X108513334Y-79306667D02*
X108513334Y-78606667D01*
X108746667Y-79106667D01*
X108980000Y-78606667D01*
X108980000Y-79306667D01*
X73976667Y-72132666D02*
X73643333Y-72366000D01*
X73976667Y-72532666D02*
X73276667Y-72532666D01*
X73276667Y-72266000D01*
X73310000Y-72199333D01*
X73343333Y-72166000D01*
X73410000Y-72132666D01*
X73510000Y-72132666D01*
X73576667Y-72166000D01*
X73610000Y-72199333D01*
X73643333Y-72266000D01*
X73643333Y-72532666D01*
X73610000Y-71832666D02*
X73610000Y-71599333D01*
X73976667Y-71499333D02*
X73976667Y-71832666D01*
X73276667Y-71832666D01*
X73276667Y-71499333D01*
X73943333Y-71232667D02*
X73976667Y-71132667D01*
X73976667Y-70966000D01*
X73943333Y-70899333D01*
X73910000Y-70866000D01*
X73843333Y-70832667D01*
X73776667Y-70832667D01*
X73710000Y-70866000D01*
X73676667Y-70899333D01*
X73643333Y-70966000D01*
X73610000Y-71099333D01*
X73576667Y-71166000D01*
X73543333Y-71199333D01*
X73476667Y-71232667D01*
X73410000Y-71232667D01*
X73343333Y-71199333D01*
X73310000Y-71166000D01*
X73276667Y-71099333D01*
X73276667Y-70932667D01*
X73310000Y-70832667D01*
X73610000Y-70532666D02*
X73610000Y-70299333D01*
X73976667Y-70199333D02*
X73976667Y-70532666D01*
X73276667Y-70532666D01*
X73276667Y-70199333D01*
X73276667Y-69999333D02*
X73276667Y-69599333D01*
X73976667Y-69799333D02*
X73276667Y-69799333D01*
X102566667Y-83116666D02*
X102233333Y-83350000D01*
X102566667Y-83516666D02*
X101866667Y-83516666D01*
X101866667Y-83250000D01*
X101900000Y-83183333D01*
X101933333Y-83150000D01*
X102000000Y-83116666D01*
X102100000Y-83116666D01*
X102166667Y-83150000D01*
X102200000Y-83183333D01*
X102233333Y-83250000D01*
X102233333Y-83516666D01*
X101866667Y-82483333D02*
X101866667Y-82816666D01*
X102200000Y-82850000D01*
X102166667Y-82816666D01*
X102133333Y-82750000D01*
X102133333Y-82583333D01*
X102166667Y-82516666D01*
X102200000Y-82483333D01*
X102266667Y-82450000D01*
X102433333Y-82450000D01*
X102500000Y-82483333D01*
X102533333Y-82516666D01*
X102566667Y-82583333D01*
X102566667Y-82750000D01*
X102533333Y-82816666D01*
X102500000Y-82850000D01*
X102566667Y-85366666D02*
X102233333Y-85600000D01*
X102566667Y-85766666D02*
X101866667Y-85766666D01*
X101866667Y-85500000D01*
X101900000Y-85433333D01*
X101933333Y-85400000D01*
X102000000Y-85366666D01*
X102100000Y-85366666D01*
X102166667Y-85400000D01*
X102200000Y-85433333D01*
X102233333Y-85500000D01*
X102233333Y-85766666D01*
X102100000Y-84766666D02*
X102566667Y-84766666D01*
X101833333Y-84933333D02*
X102333333Y-85100000D01*
X102333333Y-84666666D01*
X81596667Y-84186666D02*
X81263333Y-84420000D01*
X81596667Y-84586666D02*
X80896667Y-84586666D01*
X80896667Y-84320000D01*
X80930000Y-84253333D01*
X80963333Y-84220000D01*
X81030000Y-84186666D01*
X81130000Y-84186666D01*
X81196667Y-84220000D01*
X81230000Y-84253333D01*
X81263333Y-84320000D01*
X81263333Y-84586666D01*
X80963333Y-83920000D02*
X80930000Y-83886666D01*
X80896667Y-83820000D01*
X80896667Y-83653333D01*
X80930000Y-83586666D01*
X80963333Y-83553333D01*
X81030000Y-83520000D01*
X81096667Y-83520000D01*
X81196667Y-83553333D01*
X81596667Y-83953333D01*
X81596667Y-83520000D01*
X81596667Y-81646666D02*
X81263333Y-81880000D01*
X81596667Y-82046666D02*
X80896667Y-82046666D01*
X80896667Y-81780000D01*
X80930000Y-81713333D01*
X80963333Y-81680000D01*
X81030000Y-81646666D01*
X81130000Y-81646666D01*
X81196667Y-81680000D01*
X81230000Y-81713333D01*
X81263333Y-81780000D01*
X81263333Y-82046666D01*
X80896667Y-81413333D02*
X80896667Y-80980000D01*
X81163333Y-81213333D01*
X81163333Y-81113333D01*
X81196667Y-81046666D01*
X81230000Y-81013333D01*
X81296667Y-80980000D01*
X81463333Y-80980000D01*
X81530000Y-81013333D01*
X81563333Y-81046666D01*
X81596667Y-81113333D01*
X81596667Y-81313333D01*
X81563333Y-81380000D01*
X81530000Y-81413333D01*
X81596667Y-79106666D02*
X81263333Y-79340000D01*
X81596667Y-79506666D02*
X80896667Y-79506666D01*
X80896667Y-79240000D01*
X80930000Y-79173333D01*
X80963333Y-79140000D01*
X81030000Y-79106666D01*
X81130000Y-79106666D01*
X81196667Y-79140000D01*
X81230000Y-79173333D01*
X81263333Y-79240000D01*
X81263333Y-79506666D01*
X81596667Y-78440000D02*
X81596667Y-78840000D01*
X81596667Y-78640000D02*
X80896667Y-78640000D01*
X80996667Y-78706666D01*
X81063333Y-78773333D01*
X81096667Y-78840000D01*
X111933333Y-86133333D02*
X111866667Y-86100000D01*
X111800000Y-86033333D01*
X111700000Y-85933333D01*
X111633333Y-85900000D01*
X111566667Y-85900000D01*
X111600000Y-86066667D02*
X111533333Y-86033333D01*
X111466667Y-85966667D01*
X111433333Y-85833333D01*
X111433333Y-85600000D01*
X111466667Y-85466667D01*
X111533333Y-85400000D01*
X111600000Y-85366667D01*
X111733333Y-85366667D01*
X111800000Y-85400000D01*
X111866667Y-85466667D01*
X111900000Y-85600000D01*
X111900000Y-85833333D01*
X111866667Y-85966667D01*
X111800000Y-86033333D01*
X111733333Y-86066667D01*
X111600000Y-86066667D01*
X112166666Y-85433333D02*
X112200000Y-85400000D01*
X112266666Y-85366667D01*
X112433333Y-85366667D01*
X112500000Y-85400000D01*
X112533333Y-85433333D01*
X112566666Y-85500000D01*
X112566666Y-85566667D01*
X112533333Y-85666667D01*
X112133333Y-86066667D01*
X112566666Y-86066667D01*
X116983334Y-88566667D02*
X116983334Y-87866667D01*
X117150000Y-87866667D01*
X117250000Y-87900000D01*
X117316667Y-87966667D01*
X117350000Y-88033333D01*
X117383334Y-88166667D01*
X117383334Y-88266667D01*
X117350000Y-88400000D01*
X117316667Y-88466667D01*
X117250000Y-88533333D01*
X117150000Y-88566667D01*
X116983334Y-88566667D01*
X118050000Y-88566667D02*
X117650000Y-88566667D01*
X117850000Y-88566667D02*
X117850000Y-87866667D01*
X117783334Y-87966667D01*
X117716667Y-88033333D01*
X117650000Y-88066667D01*
X118650001Y-88100000D02*
X118650001Y-88566667D01*
X118483334Y-87833333D02*
X118316667Y-88333333D01*
X118750001Y-88333333D01*
X119550001Y-88566667D02*
X119550001Y-87866667D01*
X119816667Y-87866667D01*
X119883334Y-87900000D01*
X119916667Y-87933333D01*
X119950001Y-88000000D01*
X119950001Y-88100000D01*
X119916667Y-88166667D01*
X119883334Y-88200000D01*
X119816667Y-88233333D01*
X119550001Y-88233333D01*
X120183334Y-87866667D02*
X120350001Y-88566667D01*
X120483334Y-88066667D01*
X120616667Y-88566667D01*
X120783334Y-87866667D01*
X121050001Y-88566667D02*
X121050001Y-87866667D01*
X121283334Y-88366667D01*
X121516667Y-87866667D01*
X121516667Y-88566667D01*
X129442000Y-71037333D02*
X129442000Y-71270666D01*
X129808667Y-71270666D02*
X129108667Y-71270666D01*
X129108667Y-70937333D01*
X129108667Y-70770666D02*
X129108667Y-70370666D01*
X129808667Y-70570666D02*
X129108667Y-70570666D01*
X129808667Y-70137333D02*
X129108667Y-70137333D01*
X129108667Y-69970667D01*
X129142000Y-69870667D01*
X129208667Y-69804000D01*
X129275333Y-69770667D01*
X129408667Y-69737333D01*
X129508667Y-69737333D01*
X129642000Y-69770667D01*
X129708667Y-69804000D01*
X129775333Y-69870667D01*
X129808667Y-69970667D01*
X129808667Y-70137333D01*
X129808667Y-69437333D02*
X129108667Y-69437333D01*
X74616667Y-83966667D02*
X75316667Y-83800000D01*
X74816667Y-83666667D01*
X75316667Y-83533334D01*
X74616667Y-83366667D01*
X75283333Y-83133334D02*
X75316667Y-83033334D01*
X75316667Y-82866667D01*
X75283333Y-82800000D01*
X75250000Y-82766667D01*
X75183333Y-82733334D01*
X75116667Y-82733334D01*
X75050000Y-82766667D01*
X75016667Y-82800000D01*
X74983333Y-82866667D01*
X74950000Y-83000000D01*
X74916667Y-83066667D01*
X74883333Y-83100000D01*
X74816667Y-83133334D01*
X74750000Y-83133334D01*
X74683333Y-83100000D01*
X74650000Y-83066667D01*
X74616667Y-83000000D01*
X74616667Y-82833334D01*
X74650000Y-82733334D01*
X74683333Y-82466667D02*
X74650000Y-82433333D01*
X74616667Y-82366667D01*
X74616667Y-82200000D01*
X74650000Y-82133333D01*
X74683333Y-82100000D01*
X74750000Y-82066667D01*
X74816667Y-82066667D01*
X74916667Y-82100000D01*
X75316667Y-82500000D01*
X75316667Y-82066667D01*
X74916667Y-81666666D02*
X74883333Y-81733333D01*
X74850000Y-81766666D01*
X74783333Y-81800000D01*
X74750000Y-81800000D01*
X74683333Y-81766666D01*
X74650000Y-81733333D01*
X74616667Y-81666666D01*
X74616667Y-81533333D01*
X74650000Y-81466666D01*
X74683333Y-81433333D01*
X74750000Y-81400000D01*
X74783333Y-81400000D01*
X74850000Y-81433333D01*
X74883333Y-81466666D01*
X74916667Y-81533333D01*
X74916667Y-81666666D01*
X74950000Y-81733333D01*
X74983333Y-81766666D01*
X75050000Y-81800000D01*
X75183333Y-81800000D01*
X75250000Y-81766666D01*
X75283333Y-81733333D01*
X75316667Y-81666666D01*
X75316667Y-81533333D01*
X75283333Y-81466666D01*
X75250000Y-81433333D01*
X75183333Y-81400000D01*
X75050000Y-81400000D01*
X74983333Y-81433333D01*
X74950000Y-81466666D01*
X74916667Y-81533333D01*
X75316667Y-80733333D02*
X75316667Y-81133333D01*
X75316667Y-80933333D02*
X74616667Y-80933333D01*
X74716667Y-80999999D01*
X74783333Y-81066666D01*
X74816667Y-81133333D01*
X74683333Y-80466666D02*
X74650000Y-80433332D01*
X74616667Y-80366666D01*
X74616667Y-80199999D01*
X74650000Y-80133332D01*
X74683333Y-80099999D01*
X74750000Y-80066666D01*
X74816667Y-80066666D01*
X74916667Y-80099999D01*
X75316667Y-80499999D01*
X75316667Y-80066666D01*
X68992000Y-85111333D02*
X68958667Y-85177999D01*
X68958667Y-85277999D01*
X68992000Y-85377999D01*
X69058667Y-85444666D01*
X69125333Y-85477999D01*
X69258667Y-85511333D01*
X69358667Y-85511333D01*
X69492000Y-85477999D01*
X69558667Y-85444666D01*
X69625333Y-85377999D01*
X69658667Y-85277999D01*
X69658667Y-85211333D01*
X69625333Y-85111333D01*
X69592000Y-85077999D01*
X69358667Y-85077999D01*
X69358667Y-85211333D01*
X69658667Y-84777999D02*
X68958667Y-84777999D01*
X69658667Y-84377999D01*
X68958667Y-84377999D01*
X69658667Y-84044666D02*
X68958667Y-84044666D01*
X68958667Y-83878000D01*
X68992000Y-83778000D01*
X69058667Y-83711333D01*
X69125333Y-83678000D01*
X69258667Y-83644666D01*
X69358667Y-83644666D01*
X69492000Y-83678000D01*
X69558667Y-83711333D01*
X69625333Y-83778000D01*
X69658667Y-83878000D01*
X69658667Y-84044666D01*
X69658667Y-82554666D02*
X68958667Y-82554666D01*
X68958667Y-82388000D01*
X68992000Y-82288000D01*
X69058667Y-82221333D01*
X69125333Y-82188000D01*
X69258667Y-82154666D01*
X69358667Y-82154666D01*
X69492000Y-82188000D01*
X69558667Y-82221333D01*
X69625333Y-82288000D01*
X69658667Y-82388000D01*
X69658667Y-82554666D01*
X68958667Y-81721333D02*
X68958667Y-81654666D01*
X68992000Y-81588000D01*
X69025333Y-81554666D01*
X69092000Y-81521333D01*
X69225333Y-81488000D01*
X69392000Y-81488000D01*
X69525333Y-81521333D01*
X69592000Y-81554666D01*
X69625333Y-81588000D01*
X69658667Y-81654666D01*
X69658667Y-81721333D01*
X69625333Y-81788000D01*
X69592000Y-81821333D01*
X69525333Y-81854666D01*
X69392000Y-81888000D01*
X69225333Y-81888000D01*
X69092000Y-81854666D01*
X69025333Y-81821333D01*
X68992000Y-81788000D01*
X68958667Y-81721333D01*
X69392000Y-80398000D02*
X69392000Y-79864667D01*
X69658667Y-80131334D02*
X69125333Y-80131334D01*
X68958667Y-79198000D02*
X68958667Y-79531333D01*
X69292000Y-79564667D01*
X69258667Y-79531333D01*
X69225333Y-79464667D01*
X69225333Y-79298000D01*
X69258667Y-79231333D01*
X69292000Y-79198000D01*
X69358667Y-79164667D01*
X69525333Y-79164667D01*
X69592000Y-79198000D01*
X69625333Y-79231333D01*
X69658667Y-79298000D01*
X69658667Y-79464667D01*
X69625333Y-79531333D01*
X69592000Y-79564667D01*
X68958667Y-78964666D02*
X69658667Y-78731333D01*
X68958667Y-78498000D01*
X127566667Y-88366666D02*
X126866667Y-88366666D01*
X126866667Y-88100000D01*
X126900000Y-88033333D01*
X126933333Y-88000000D01*
X127000000Y-87966666D01*
X127100000Y-87966666D01*
X127166667Y-88000000D01*
X127200000Y-88033333D01*
X127233333Y-88100000D01*
X127233333Y-88366666D01*
X126866667Y-87533333D02*
X126866667Y-87400000D01*
X126900000Y-87333333D01*
X126966667Y-87266666D01*
X127100000Y-87233333D01*
X127333333Y-87233333D01*
X127466667Y-87266666D01*
X127533333Y-87333333D01*
X127566667Y-87400000D01*
X127566667Y-87533333D01*
X127533333Y-87600000D01*
X127466667Y-87666666D01*
X127333333Y-87700000D01*
X127100000Y-87700000D01*
X126966667Y-87666666D01*
X126900000Y-87600000D01*
X126866667Y-87533333D01*
X126866667Y-87000000D02*
X127566667Y-86833333D01*
X127066667Y-86700000D01*
X127566667Y-86566667D01*
X126866667Y-86400000D01*
X127200000Y-86133333D02*
X127200000Y-85900000D01*
X127566667Y-85800000D02*
X127566667Y-86133333D01*
X126866667Y-86133333D01*
X126866667Y-85800000D01*
X127566667Y-85100000D02*
X127233333Y-85333334D01*
X127566667Y-85500000D02*
X126866667Y-85500000D01*
X126866667Y-85233334D01*
X126900000Y-85166667D01*
X126933333Y-85133334D01*
X127000000Y-85100000D01*
X127100000Y-85100000D01*
X127166667Y-85133334D01*
X127200000Y-85166667D01*
X127233333Y-85233334D01*
X127233333Y-85500000D01*
X85227334Y-91940000D02*
X85194000Y-91973333D01*
X85094000Y-92006667D01*
X85027334Y-92006667D01*
X84927334Y-91973333D01*
X84860667Y-91906667D01*
X84827334Y-91840000D01*
X84794000Y-91706667D01*
X84794000Y-91606667D01*
X84827334Y-91473333D01*
X84860667Y-91406667D01*
X84927334Y-91340000D01*
X85027334Y-91306667D01*
X85094000Y-91306667D01*
X85194000Y-91340000D01*
X85227334Y-91373333D01*
X85494000Y-91373333D02*
X85527334Y-91340000D01*
X85594000Y-91306667D01*
X85760667Y-91306667D01*
X85827334Y-91340000D01*
X85860667Y-91373333D01*
X85894000Y-91440000D01*
X85894000Y-91506667D01*
X85860667Y-91606667D01*
X85460667Y-92006667D01*
X85894000Y-92006667D01*
X115066961Y-78905952D02*
X115066961Y-78953093D01*
X115019821Y-79047374D01*
X114972681Y-79094514D01*
X114878399Y-79141654D01*
X114784119Y-79141655D01*
X114713408Y-79118084D01*
X114595557Y-79047374D01*
X114524846Y-78976663D01*
X114454135Y-78858811D01*
X114430565Y-78788101D01*
X114430565Y-78693820D01*
X114477706Y-78599539D01*
X114524846Y-78552399D01*
X114619127Y-78505259D01*
X114666267Y-78505258D01*
X115585506Y-78481689D02*
X115302663Y-78764531D01*
X115444085Y-78623110D02*
X114949110Y-78128135D01*
X114972681Y-78245986D01*
X114972680Y-78340267D01*
X114949110Y-78410978D01*
X89292002Y-67916667D02*
X89292002Y-67216667D01*
X89692002Y-67916667D01*
X89692002Y-67216667D01*
X90125335Y-67916667D02*
X90058668Y-67883333D01*
X90025335Y-67850000D01*
X89992001Y-67783333D01*
X89992001Y-67583333D01*
X90025335Y-67516667D01*
X90058668Y-67483333D01*
X90125335Y-67450000D01*
X90225335Y-67450000D01*
X90292001Y-67483333D01*
X90325335Y-67516667D01*
X90358668Y-67583333D01*
X90358668Y-67783333D01*
X90325335Y-67850000D01*
X90292001Y-67883333D01*
X90225335Y-67916667D01*
X90125335Y-67916667D01*
X91592001Y-67850000D02*
X91558667Y-67883333D01*
X91458667Y-67916667D01*
X91392001Y-67916667D01*
X91292001Y-67883333D01*
X91225334Y-67816667D01*
X91192001Y-67750000D01*
X91158667Y-67616667D01*
X91158667Y-67516667D01*
X91192001Y-67383333D01*
X91225334Y-67316667D01*
X91292001Y-67250000D01*
X91392001Y-67216667D01*
X91458667Y-67216667D01*
X91558667Y-67250000D01*
X91592001Y-67283333D01*
X91992001Y-67916667D02*
X91925334Y-67883333D01*
X91892001Y-67850000D01*
X91858667Y-67783333D01*
X91858667Y-67583333D01*
X91892001Y-67516667D01*
X91925334Y-67483333D01*
X91992001Y-67450000D01*
X92092001Y-67450000D01*
X92158667Y-67483333D01*
X92192001Y-67516667D01*
X92225334Y-67583333D01*
X92225334Y-67783333D01*
X92192001Y-67850000D01*
X92158667Y-67883333D01*
X92092001Y-67916667D01*
X91992001Y-67916667D01*
X92525334Y-67450000D02*
X92525334Y-68150000D01*
X92525334Y-67483333D02*
X92592000Y-67450000D01*
X92725334Y-67450000D01*
X92792000Y-67483333D01*
X92825334Y-67516667D01*
X92858667Y-67583333D01*
X92858667Y-67783333D01*
X92825334Y-67850000D01*
X92792000Y-67883333D01*
X92725334Y-67916667D01*
X92592000Y-67916667D01*
X92525334Y-67883333D01*
X93158667Y-67450000D02*
X93158667Y-68150000D01*
X93158667Y-67483333D02*
X93225333Y-67450000D01*
X93358667Y-67450000D01*
X93425333Y-67483333D01*
X93458667Y-67516667D01*
X93492000Y-67583333D01*
X93492000Y-67783333D01*
X93458667Y-67850000D01*
X93425333Y-67883333D01*
X93358667Y-67916667D01*
X93225333Y-67916667D01*
X93158667Y-67883333D01*
X94058666Y-67883333D02*
X93992000Y-67916667D01*
X93858666Y-67916667D01*
X93792000Y-67883333D01*
X93758666Y-67816667D01*
X93758666Y-67550000D01*
X93792000Y-67483333D01*
X93858666Y-67450000D01*
X93992000Y-67450000D01*
X94058666Y-67483333D01*
X94092000Y-67550000D01*
X94092000Y-67616667D01*
X93758666Y-67683333D01*
X94392000Y-67916667D02*
X94392000Y-67450000D01*
X94392000Y-67583333D02*
X94425333Y-67516667D01*
X94458666Y-67483333D01*
X94525333Y-67450000D01*
X94592000Y-67450000D01*
X89292002Y-35916667D02*
X89292002Y-35216667D01*
X89692002Y-35916667D01*
X89692002Y-35216667D01*
X90125335Y-35916667D02*
X90058668Y-35883333D01*
X90025335Y-35850000D01*
X89992001Y-35783333D01*
X89992001Y-35583333D01*
X90025335Y-35516667D01*
X90058668Y-35483333D01*
X90125335Y-35450000D01*
X90225335Y-35450000D01*
X90292001Y-35483333D01*
X90325335Y-35516667D01*
X90358668Y-35583333D01*
X90358668Y-35783333D01*
X90325335Y-35850000D01*
X90292001Y-35883333D01*
X90225335Y-35916667D01*
X90125335Y-35916667D01*
X91592001Y-35850000D02*
X91558667Y-35883333D01*
X91458667Y-35916667D01*
X91392001Y-35916667D01*
X91292001Y-35883333D01*
X91225334Y-35816667D01*
X91192001Y-35750000D01*
X91158667Y-35616667D01*
X91158667Y-35516667D01*
X91192001Y-35383333D01*
X91225334Y-35316667D01*
X91292001Y-35250000D01*
X91392001Y-35216667D01*
X91458667Y-35216667D01*
X91558667Y-35250000D01*
X91592001Y-35283333D01*
X91992001Y-35916667D02*
X91925334Y-35883333D01*
X91892001Y-35850000D01*
X91858667Y-35783333D01*
X91858667Y-35583333D01*
X91892001Y-35516667D01*
X91925334Y-35483333D01*
X91992001Y-35450000D01*
X92092001Y-35450000D01*
X92158667Y-35483333D01*
X92192001Y-35516667D01*
X92225334Y-35583333D01*
X92225334Y-35783333D01*
X92192001Y-35850000D01*
X92158667Y-35883333D01*
X92092001Y-35916667D01*
X91992001Y-35916667D01*
X92525334Y-35450000D02*
X92525334Y-36150000D01*
X92525334Y-35483333D02*
X92592000Y-35450000D01*
X92725334Y-35450000D01*
X92792000Y-35483333D01*
X92825334Y-35516667D01*
X92858667Y-35583333D01*
X92858667Y-35783333D01*
X92825334Y-35850000D01*
X92792000Y-35883333D01*
X92725334Y-35916667D01*
X92592000Y-35916667D01*
X92525334Y-35883333D01*
X93158667Y-35450000D02*
X93158667Y-36150000D01*
X93158667Y-35483333D02*
X93225333Y-35450000D01*
X93358667Y-35450000D01*
X93425333Y-35483333D01*
X93458667Y-35516667D01*
X93492000Y-35583333D01*
X93492000Y-35783333D01*
X93458667Y-35850000D01*
X93425333Y-35883333D01*
X93358667Y-35916667D01*
X93225333Y-35916667D01*
X93158667Y-35883333D01*
X94058666Y-35883333D02*
X93992000Y-35916667D01*
X93858666Y-35916667D01*
X93792000Y-35883333D01*
X93758666Y-35816667D01*
X93758666Y-35550000D01*
X93792000Y-35483333D01*
X93858666Y-35450000D01*
X93992000Y-35450000D01*
X94058666Y-35483333D01*
X94092000Y-35550000D01*
X94092000Y-35616667D01*
X93758666Y-35683333D01*
X94392000Y-35916667D02*
X94392000Y-35450000D01*
X94392000Y-35583333D02*
X94425333Y-35516667D01*
X94458666Y-35483333D01*
X94525333Y-35450000D01*
X94592000Y-35450000D01*
X115066961Y-46905952D02*
X115066961Y-46953093D01*
X115019821Y-47047374D01*
X114972681Y-47094514D01*
X114878399Y-47141654D01*
X114784119Y-47141655D01*
X114713408Y-47118084D01*
X114595557Y-47047374D01*
X114524846Y-46976663D01*
X114454135Y-46858811D01*
X114430565Y-46788101D01*
X114430565Y-46693820D01*
X114477706Y-46599539D01*
X114524846Y-46552399D01*
X114619127Y-46505259D01*
X114666267Y-46505258D01*
X115585506Y-46481689D02*
X115302663Y-46764531D01*
X115444085Y-46623110D02*
X114949110Y-46128135D01*
X114972681Y-46245986D01*
X114972680Y-46340267D01*
X114949110Y-46410978D01*
X85227334Y-59940000D02*
X85194000Y-59973333D01*
X85094000Y-60006667D01*
X85027334Y-60006667D01*
X84927334Y-59973333D01*
X84860667Y-59906667D01*
X84827334Y-59840000D01*
X84794000Y-59706667D01*
X84794000Y-59606667D01*
X84827334Y-59473333D01*
X84860667Y-59406667D01*
X84927334Y-59340000D01*
X85027334Y-59306667D01*
X85094000Y-59306667D01*
X85194000Y-59340000D01*
X85227334Y-59373333D01*
X85494000Y-59373333D02*
X85527334Y-59340000D01*
X85594000Y-59306667D01*
X85760667Y-59306667D01*
X85827334Y-59340000D01*
X85860667Y-59373333D01*
X85894000Y-59440000D01*
X85894000Y-59506667D01*
X85860667Y-59606667D01*
X85460667Y-60006667D01*
X85894000Y-60006667D01*
X127566667Y-56366666D02*
X126866667Y-56366666D01*
X126866667Y-56100000D01*
X126900000Y-56033333D01*
X126933333Y-56000000D01*
X127000000Y-55966666D01*
X127100000Y-55966666D01*
X127166667Y-56000000D01*
X127200000Y-56033333D01*
X127233333Y-56100000D01*
X127233333Y-56366666D01*
X126866667Y-55533333D02*
X126866667Y-55400000D01*
X126900000Y-55333333D01*
X126966667Y-55266666D01*
X127100000Y-55233333D01*
X127333333Y-55233333D01*
X127466667Y-55266666D01*
X127533333Y-55333333D01*
X127566667Y-55400000D01*
X127566667Y-55533333D01*
X127533333Y-55600000D01*
X127466667Y-55666666D01*
X127333333Y-55700000D01*
X127100000Y-55700000D01*
X126966667Y-55666666D01*
X126900000Y-55600000D01*
X126866667Y-55533333D01*
X126866667Y-55000000D02*
X127566667Y-54833333D01*
X127066667Y-54700000D01*
X127566667Y-54566667D01*
X126866667Y-54400000D01*
X127200000Y-54133333D02*
X127200000Y-53900000D01*
X127566667Y-53800000D02*
X127566667Y-54133333D01*
X126866667Y-54133333D01*
X126866667Y-53800000D01*
X127566667Y-53100000D02*
X127233333Y-53333334D01*
X127566667Y-53500000D02*
X126866667Y-53500000D01*
X126866667Y-53233334D01*
X126900000Y-53166667D01*
X126933333Y-53133334D01*
X127000000Y-53100000D01*
X127100000Y-53100000D01*
X127166667Y-53133334D01*
X127200000Y-53166667D01*
X127233333Y-53233334D01*
X127233333Y-53500000D01*
X74616667Y-51966667D02*
X75316667Y-51800000D01*
X74816667Y-51666667D01*
X75316667Y-51533334D01*
X74616667Y-51366667D01*
X75283333Y-51133334D02*
X75316667Y-51033334D01*
X75316667Y-50866667D01*
X75283333Y-50800000D01*
X75250000Y-50766667D01*
X75183333Y-50733334D01*
X75116667Y-50733334D01*
X75050000Y-50766667D01*
X75016667Y-50800000D01*
X74983333Y-50866667D01*
X74950000Y-51000000D01*
X74916667Y-51066667D01*
X74883333Y-51100000D01*
X74816667Y-51133334D01*
X74750000Y-51133334D01*
X74683333Y-51100000D01*
X74650000Y-51066667D01*
X74616667Y-51000000D01*
X74616667Y-50833334D01*
X74650000Y-50733334D01*
X74683333Y-50466667D02*
X74650000Y-50433333D01*
X74616667Y-50366667D01*
X74616667Y-50200000D01*
X74650000Y-50133333D01*
X74683333Y-50100000D01*
X74750000Y-50066667D01*
X74816667Y-50066667D01*
X74916667Y-50100000D01*
X75316667Y-50500000D01*
X75316667Y-50066667D01*
X74916667Y-49666666D02*
X74883333Y-49733333D01*
X74850000Y-49766666D01*
X74783333Y-49800000D01*
X74750000Y-49800000D01*
X74683333Y-49766666D01*
X74650000Y-49733333D01*
X74616667Y-49666666D01*
X74616667Y-49533333D01*
X74650000Y-49466666D01*
X74683333Y-49433333D01*
X74750000Y-49400000D01*
X74783333Y-49400000D01*
X74850000Y-49433333D01*
X74883333Y-49466666D01*
X74916667Y-49533333D01*
X74916667Y-49666666D01*
X74950000Y-49733333D01*
X74983333Y-49766666D01*
X75050000Y-49800000D01*
X75183333Y-49800000D01*
X75250000Y-49766666D01*
X75283333Y-49733333D01*
X75316667Y-49666666D01*
X75316667Y-49533333D01*
X75283333Y-49466666D01*
X75250000Y-49433333D01*
X75183333Y-49400000D01*
X75050000Y-49400000D01*
X74983333Y-49433333D01*
X74950000Y-49466666D01*
X74916667Y-49533333D01*
X75316667Y-48733333D02*
X75316667Y-49133333D01*
X75316667Y-48933333D02*
X74616667Y-48933333D01*
X74716667Y-48999999D01*
X74783333Y-49066666D01*
X74816667Y-49133333D01*
X74683333Y-48466666D02*
X74650000Y-48433332D01*
X74616667Y-48366666D01*
X74616667Y-48199999D01*
X74650000Y-48133332D01*
X74683333Y-48099999D01*
X74750000Y-48066666D01*
X74816667Y-48066666D01*
X74916667Y-48099999D01*
X75316667Y-48499999D01*
X75316667Y-48066666D01*
X68992000Y-53111333D02*
X68958667Y-53177999D01*
X68958667Y-53277999D01*
X68992000Y-53377999D01*
X69058667Y-53444666D01*
X69125333Y-53477999D01*
X69258667Y-53511333D01*
X69358667Y-53511333D01*
X69492000Y-53477999D01*
X69558667Y-53444666D01*
X69625333Y-53377999D01*
X69658667Y-53277999D01*
X69658667Y-53211333D01*
X69625333Y-53111333D01*
X69592000Y-53077999D01*
X69358667Y-53077999D01*
X69358667Y-53211333D01*
X69658667Y-52777999D02*
X68958667Y-52777999D01*
X69658667Y-52377999D01*
X68958667Y-52377999D01*
X69658667Y-52044666D02*
X68958667Y-52044666D01*
X68958667Y-51878000D01*
X68992000Y-51778000D01*
X69058667Y-51711333D01*
X69125333Y-51678000D01*
X69258667Y-51644666D01*
X69358667Y-51644666D01*
X69492000Y-51678000D01*
X69558667Y-51711333D01*
X69625333Y-51778000D01*
X69658667Y-51878000D01*
X69658667Y-52044666D01*
X69658667Y-50554666D02*
X68958667Y-50554666D01*
X68958667Y-50388000D01*
X68992000Y-50288000D01*
X69058667Y-50221333D01*
X69125333Y-50188000D01*
X69258667Y-50154666D01*
X69358667Y-50154666D01*
X69492000Y-50188000D01*
X69558667Y-50221333D01*
X69625333Y-50288000D01*
X69658667Y-50388000D01*
X69658667Y-50554666D01*
X68958667Y-49721333D02*
X68958667Y-49654666D01*
X68992000Y-49588000D01*
X69025333Y-49554666D01*
X69092000Y-49521333D01*
X69225333Y-49488000D01*
X69392000Y-49488000D01*
X69525333Y-49521333D01*
X69592000Y-49554666D01*
X69625333Y-49588000D01*
X69658667Y-49654666D01*
X69658667Y-49721333D01*
X69625333Y-49788000D01*
X69592000Y-49821333D01*
X69525333Y-49854666D01*
X69392000Y-49888000D01*
X69225333Y-49888000D01*
X69092000Y-49854666D01*
X69025333Y-49821333D01*
X68992000Y-49788000D01*
X68958667Y-49721333D01*
X69392000Y-48398000D02*
X69392000Y-47864667D01*
X69658667Y-48131334D02*
X69125333Y-48131334D01*
X68958667Y-47198000D02*
X68958667Y-47531333D01*
X69292000Y-47564667D01*
X69258667Y-47531333D01*
X69225333Y-47464667D01*
X69225333Y-47298000D01*
X69258667Y-47231333D01*
X69292000Y-47198000D01*
X69358667Y-47164667D01*
X69525333Y-47164667D01*
X69592000Y-47198000D01*
X69625333Y-47231333D01*
X69658667Y-47298000D01*
X69658667Y-47464667D01*
X69625333Y-47531333D01*
X69592000Y-47564667D01*
X68958667Y-46964666D02*
X69658667Y-46731333D01*
X68958667Y-46498000D01*
X129442000Y-39037333D02*
X129442000Y-39270666D01*
X129808667Y-39270666D02*
X129108667Y-39270666D01*
X129108667Y-38937333D01*
X129108667Y-38770666D02*
X129108667Y-38370666D01*
X129808667Y-38570666D02*
X129108667Y-38570666D01*
X129808667Y-38137333D02*
X129108667Y-38137333D01*
X129108667Y-37970667D01*
X129142000Y-37870667D01*
X129208667Y-37804000D01*
X129275333Y-37770667D01*
X129408667Y-37737333D01*
X129508667Y-37737333D01*
X129642000Y-37770667D01*
X129708667Y-37804000D01*
X129775333Y-37870667D01*
X129808667Y-37970667D01*
X129808667Y-38137333D01*
X129808667Y-37437333D02*
X129108667Y-37437333D01*
X116983334Y-56566667D02*
X116983334Y-55866667D01*
X117150000Y-55866667D01*
X117250000Y-55900000D01*
X117316667Y-55966667D01*
X117350000Y-56033333D01*
X117383334Y-56166667D01*
X117383334Y-56266667D01*
X117350000Y-56400000D01*
X117316667Y-56466667D01*
X117250000Y-56533333D01*
X117150000Y-56566667D01*
X116983334Y-56566667D01*
X118050000Y-56566667D02*
X117650000Y-56566667D01*
X117850000Y-56566667D02*
X117850000Y-55866667D01*
X117783334Y-55966667D01*
X117716667Y-56033333D01*
X117650000Y-56066667D01*
X118650001Y-56100000D02*
X118650001Y-56566667D01*
X118483334Y-55833333D02*
X118316667Y-56333333D01*
X118750001Y-56333333D01*
X119550001Y-56566667D02*
X119550001Y-55866667D01*
X119816667Y-55866667D01*
X119883334Y-55900000D01*
X119916667Y-55933333D01*
X119950001Y-56000000D01*
X119950001Y-56100000D01*
X119916667Y-56166667D01*
X119883334Y-56200000D01*
X119816667Y-56233333D01*
X119550001Y-56233333D01*
X120183334Y-55866667D02*
X120350001Y-56566667D01*
X120483334Y-56066667D01*
X120616667Y-56566667D01*
X120783334Y-55866667D01*
X121050001Y-56566667D02*
X121050001Y-55866667D01*
X121283334Y-56366667D01*
X121516667Y-55866667D01*
X121516667Y-56566667D01*
X111933333Y-54133333D02*
X111866667Y-54100000D01*
X111800000Y-54033333D01*
X111700000Y-53933333D01*
X111633333Y-53900000D01*
X111566667Y-53900000D01*
X111600000Y-54066667D02*
X111533333Y-54033333D01*
X111466667Y-53966667D01*
X111433333Y-53833333D01*
X111433333Y-53600000D01*
X111466667Y-53466667D01*
X111533333Y-53400000D01*
X111600000Y-53366667D01*
X111733333Y-53366667D01*
X111800000Y-53400000D01*
X111866667Y-53466667D01*
X111900000Y-53600000D01*
X111900000Y-53833333D01*
X111866667Y-53966667D01*
X111800000Y-54033333D01*
X111733333Y-54066667D01*
X111600000Y-54066667D01*
X112166666Y-53433333D02*
X112200000Y-53400000D01*
X112266666Y-53366667D01*
X112433333Y-53366667D01*
X112500000Y-53400000D01*
X112533333Y-53433333D01*
X112566666Y-53500000D01*
X112566666Y-53566667D01*
X112533333Y-53666667D01*
X112133333Y-54066667D01*
X112566666Y-54066667D01*
X81596667Y-47106666D02*
X81263333Y-47340000D01*
X81596667Y-47506666D02*
X80896667Y-47506666D01*
X80896667Y-47240000D01*
X80930000Y-47173333D01*
X80963333Y-47140000D01*
X81030000Y-47106666D01*
X81130000Y-47106666D01*
X81196667Y-47140000D01*
X81230000Y-47173333D01*
X81263333Y-47240000D01*
X81263333Y-47506666D01*
X81596667Y-46440000D02*
X81596667Y-46840000D01*
X81596667Y-46640000D02*
X80896667Y-46640000D01*
X80996667Y-46706666D01*
X81063333Y-46773333D01*
X81096667Y-46840000D01*
X81596667Y-49646666D02*
X81263333Y-49880000D01*
X81596667Y-50046666D02*
X80896667Y-50046666D01*
X80896667Y-49780000D01*
X80930000Y-49713333D01*
X80963333Y-49680000D01*
X81030000Y-49646666D01*
X81130000Y-49646666D01*
X81196667Y-49680000D01*
X81230000Y-49713333D01*
X81263333Y-49780000D01*
X81263333Y-50046666D01*
X80896667Y-49413333D02*
X80896667Y-48980000D01*
X81163333Y-49213333D01*
X81163333Y-49113333D01*
X81196667Y-49046666D01*
X81230000Y-49013333D01*
X81296667Y-48980000D01*
X81463333Y-48980000D01*
X81530000Y-49013333D01*
X81563333Y-49046666D01*
X81596667Y-49113333D01*
X81596667Y-49313333D01*
X81563333Y-49380000D01*
X81530000Y-49413333D01*
X81596667Y-52186666D02*
X81263333Y-52420000D01*
X81596667Y-52586666D02*
X80896667Y-52586666D01*
X80896667Y-52320000D01*
X80930000Y-52253333D01*
X80963333Y-52220000D01*
X81030000Y-52186666D01*
X81130000Y-52186666D01*
X81196667Y-52220000D01*
X81230000Y-52253333D01*
X81263333Y-52320000D01*
X81263333Y-52586666D01*
X80963333Y-51920000D02*
X80930000Y-51886666D01*
X80896667Y-51820000D01*
X80896667Y-51653333D01*
X80930000Y-51586666D01*
X80963333Y-51553333D01*
X81030000Y-51520000D01*
X81096667Y-51520000D01*
X81196667Y-51553333D01*
X81596667Y-51953333D01*
X81596667Y-51520000D01*
X102566667Y-53366666D02*
X102233333Y-53600000D01*
X102566667Y-53766666D02*
X101866667Y-53766666D01*
X101866667Y-53500000D01*
X101900000Y-53433333D01*
X101933333Y-53400000D01*
X102000000Y-53366666D01*
X102100000Y-53366666D01*
X102166667Y-53400000D01*
X102200000Y-53433333D01*
X102233333Y-53500000D01*
X102233333Y-53766666D01*
X102100000Y-52766666D02*
X102566667Y-52766666D01*
X101833333Y-52933333D02*
X102333333Y-53100000D01*
X102333333Y-52666666D01*
X102566667Y-51116666D02*
X102233333Y-51350000D01*
X102566667Y-51516666D02*
X101866667Y-51516666D01*
X101866667Y-51250000D01*
X101900000Y-51183333D01*
X101933333Y-51150000D01*
X102000000Y-51116666D01*
X102100000Y-51116666D01*
X102166667Y-51150000D01*
X102200000Y-51183333D01*
X102233333Y-51250000D01*
X102233333Y-51516666D01*
X101866667Y-50483333D02*
X101866667Y-50816666D01*
X102200000Y-50850000D01*
X102166667Y-50816666D01*
X102133333Y-50750000D01*
X102133333Y-50583333D01*
X102166667Y-50516666D01*
X102200000Y-50483333D01*
X102266667Y-50450000D01*
X102433333Y-50450000D01*
X102500000Y-50483333D01*
X102533333Y-50516666D01*
X102566667Y-50583333D01*
X102566667Y-50750000D01*
X102533333Y-50816666D01*
X102500000Y-50850000D01*
X73976667Y-40132666D02*
X73643333Y-40366000D01*
X73976667Y-40532666D02*
X73276667Y-40532666D01*
X73276667Y-40266000D01*
X73310000Y-40199333D01*
X73343333Y-40166000D01*
X73410000Y-40132666D01*
X73510000Y-40132666D01*
X73576667Y-40166000D01*
X73610000Y-40199333D01*
X73643333Y-40266000D01*
X73643333Y-40532666D01*
X73610000Y-39832666D02*
X73610000Y-39599333D01*
X73976667Y-39499333D02*
X73976667Y-39832666D01*
X73276667Y-39832666D01*
X73276667Y-39499333D01*
X73943333Y-39232667D02*
X73976667Y-39132667D01*
X73976667Y-38966000D01*
X73943333Y-38899333D01*
X73910000Y-38866000D01*
X73843333Y-38832667D01*
X73776667Y-38832667D01*
X73710000Y-38866000D01*
X73676667Y-38899333D01*
X73643333Y-38966000D01*
X73610000Y-39099333D01*
X73576667Y-39166000D01*
X73543333Y-39199333D01*
X73476667Y-39232667D01*
X73410000Y-39232667D01*
X73343333Y-39199333D01*
X73310000Y-39166000D01*
X73276667Y-39099333D01*
X73276667Y-38932667D01*
X73310000Y-38832667D01*
X73610000Y-38532666D02*
X73610000Y-38299333D01*
X73976667Y-38199333D02*
X73976667Y-38532666D01*
X73276667Y-38532666D01*
X73276667Y-38199333D01*
X73276667Y-37999333D02*
X73276667Y-37599333D01*
X73976667Y-37799333D02*
X73276667Y-37799333D01*
X104380001Y-47306667D02*
X104380001Y-46606667D01*
X104646667Y-46606667D01*
X104713334Y-46640000D01*
X104746667Y-46673333D01*
X104780001Y-46740000D01*
X104780001Y-46840000D01*
X104746667Y-46906667D01*
X104713334Y-46940000D01*
X104646667Y-46973333D01*
X104380001Y-46973333D01*
X105480001Y-47306667D02*
X105246667Y-46973333D01*
X105080001Y-47306667D02*
X105080001Y-46606667D01*
X105346667Y-46606667D01*
X105413334Y-46640000D01*
X105446667Y-46673333D01*
X105480001Y-46740000D01*
X105480001Y-46840000D01*
X105446667Y-46906667D01*
X105413334Y-46940000D01*
X105346667Y-46973333D01*
X105080001Y-46973333D01*
X105913334Y-46606667D02*
X106046667Y-46606667D01*
X106113334Y-46640000D01*
X106180001Y-46706667D01*
X106213334Y-46840000D01*
X106213334Y-47073333D01*
X106180001Y-47206667D01*
X106113334Y-47273333D01*
X106046667Y-47306667D01*
X105913334Y-47306667D01*
X105846667Y-47273333D01*
X105780001Y-47206667D01*
X105746667Y-47073333D01*
X105746667Y-46840000D01*
X105780001Y-46706667D01*
X105846667Y-46640000D01*
X105913334Y-46606667D01*
X106880000Y-46640000D02*
X106813334Y-46606667D01*
X106713334Y-46606667D01*
X106613334Y-46640000D01*
X106546667Y-46706667D01*
X106513334Y-46773333D01*
X106480000Y-46906667D01*
X106480000Y-47006667D01*
X106513334Y-47140000D01*
X106546667Y-47206667D01*
X106613334Y-47273333D01*
X106713334Y-47306667D01*
X106780000Y-47306667D01*
X106880000Y-47273333D01*
X106913334Y-47240000D01*
X106913334Y-47006667D01*
X106780000Y-47006667D01*
X107613334Y-47306667D02*
X107380000Y-46973333D01*
X107213334Y-47306667D02*
X107213334Y-46606667D01*
X107480000Y-46606667D01*
X107546667Y-46640000D01*
X107580000Y-46673333D01*
X107613334Y-46740000D01*
X107613334Y-46840000D01*
X107580000Y-46906667D01*
X107546667Y-46940000D01*
X107480000Y-46973333D01*
X107213334Y-46973333D01*
X107880000Y-47106667D02*
X108213334Y-47106667D01*
X107813334Y-47306667D02*
X108046667Y-46606667D01*
X108280000Y-47306667D01*
X108513334Y-47306667D02*
X108513334Y-46606667D01*
X108746667Y-47106667D01*
X108980000Y-46606667D01*
X108980000Y-47306667D01*
X131378667Y-46033333D02*
X131945333Y-46033333D01*
X132012000Y-46000000D01*
X132045333Y-45966667D01*
X132078667Y-45900000D01*
X132078667Y-45766667D01*
X132045333Y-45700000D01*
X132012000Y-45666667D01*
X131945333Y-45633333D01*
X131378667Y-45633333D01*
X132078667Y-44933334D02*
X132078667Y-45333334D01*
X132078667Y-45133334D02*
X131378667Y-45133334D01*
X131478667Y-45200000D01*
X131545333Y-45266667D01*
X131578667Y-45333334D01*
X76682667Y-57274667D02*
X76682667Y-57841333D01*
X76716000Y-57908000D01*
X76749333Y-57941333D01*
X76816000Y-57974667D01*
X76949333Y-57974667D01*
X77016000Y-57941333D01*
X77049333Y-57908000D01*
X77082667Y-57841333D01*
X77082667Y-57274667D01*
X77349333Y-57274667D02*
X77782666Y-57274667D01*
X77549333Y-57541333D01*
X77649333Y-57541333D01*
X77716000Y-57574667D01*
X77749333Y-57608000D01*
X77782666Y-57674667D01*
X77782666Y-57841333D01*
X77749333Y-57908000D01*
X77716000Y-57941333D01*
X77649333Y-57974667D01*
X77449333Y-57974667D01*
X77382666Y-57941333D01*
X77349333Y-57908000D01*
M02*
