G04 #@! TF.FileFunction,Profile,NP*
%FSLAX46Y46*%
G04 Gerber Fmt 4.6, Leading zero omitted, Abs format (unit mm)*
G04 Created by KiCad (PCBNEW 4.0.2-stable) date Saturday, November 26, 2016 'pmt' 01:20:35 pm*
%MOMM*%
G01*
G04 APERTURE LIST*
%ADD10C,0.100000*%
G04 APERTURE END LIST*
D10*
X137000000Y-55000000D02*
G75*
G03X138000000Y-54000000I0J1000000D01*
G01*
X136000000Y-54000000D02*
G75*
G03X137000000Y-55000000I1000000J0D01*
G01*
X137000000Y-57000000D02*
G75*
G03X136000000Y-58000000I0J-1000000D01*
G01*
X138000000Y-58000000D02*
G75*
G03X137000000Y-57000000I-1000000J0D01*
G01*
X130000000Y-67000000D02*
G75*
G03X131000000Y-68000000I1000000J0D01*
G01*
X131000000Y-66000000D02*
G75*
G03X130000000Y-67000000I0J-1000000D01*
G01*
X128000000Y-67000000D02*
G75*
G03X127000000Y-66000000I-1000000J0D01*
G01*
X127000000Y-68000000D02*
G75*
G03X128000000Y-67000000I0J1000000D01*
G01*
X136000000Y-54000000D02*
X136000000Y-40000000D01*
X127000000Y-66000000D02*
X80000000Y-66000000D01*
X80000000Y-68000000D02*
X127000000Y-68000000D01*
X72000000Y-68000000D02*
X76000000Y-68000000D01*
X72000000Y-66000000D02*
X76000000Y-66000000D01*
X79000000Y-67000000D02*
G75*
G03X80000000Y-68000000I1000000J0D01*
G01*
X80000000Y-66000000D02*
G75*
G03X79000000Y-67000000I0J-1000000D01*
G01*
X76000000Y-68000000D02*
G75*
G03X77000000Y-67000000I0J1000000D01*
G01*
X77000000Y-67000000D02*
G75*
G03X76000000Y-66000000I-1000000J0D01*
G01*
X79000000Y-99000000D02*
G75*
G03X80000000Y-100000000I1000000J0D01*
G01*
X80000000Y-98000000D02*
G75*
G03X79000000Y-99000000I0J-1000000D01*
G01*
X77000000Y-99000000D02*
G75*
G03X76000000Y-98000000I-1000000J0D01*
G01*
X76000000Y-100000000D02*
G75*
G03X77000000Y-99000000I0J1000000D01*
G01*
X128000000Y-99000000D02*
G75*
G03X127000000Y-98000000I-1000000J0D01*
G01*
X127000000Y-100000000D02*
G75*
G03X128000000Y-99000000I0J1000000D01*
G01*
X130000000Y-99000000D02*
G75*
G03X131000000Y-100000000I1000000J0D01*
G01*
X131000000Y-98000000D02*
G75*
G03X130000000Y-99000000I0J-1000000D01*
G01*
X137000000Y-107000000D02*
G75*
G03X138000000Y-106000000I0J1000000D01*
G01*
X136000000Y-106000000D02*
G75*
G03X137000000Y-107000000I1000000J0D01*
G01*
X137000000Y-109000000D02*
G75*
G03X136000000Y-110000000I0J-1000000D01*
G01*
X138000000Y-110000000D02*
G75*
G03X137000000Y-109000000I-1000000J0D01*
G01*
X138000000Y-114000000D02*
X138000000Y-110000000D01*
X136000000Y-110000000D02*
X136000000Y-126000000D01*
X80000000Y-100000000D02*
X127000000Y-100000000D01*
X72000000Y-100000000D02*
X76000000Y-100000000D01*
X76000000Y-98000000D02*
X72000000Y-98000000D01*
X127000000Y-98000000D02*
X80000000Y-98000000D01*
X131000000Y-98000000D02*
X132000000Y-98000000D01*
X132000000Y-100000000D02*
X131000000Y-100000000D01*
X136000000Y-106000000D02*
X136000000Y-104000000D01*
X138000000Y-58000000D02*
X138000000Y-106000000D01*
X131000000Y-68000000D02*
X132000000Y-68000000D01*
X132000000Y-66000000D02*
X131000000Y-66000000D01*
X136000000Y-58000000D02*
X136000000Y-62000000D01*
X142000000Y-50000000D02*
G75*
G03X138000000Y-54000000I0J-4000000D01*
G01*
X168000000Y-54000000D02*
G75*
G03X164000000Y-50000000I-4000000J0D01*
G01*
X138000000Y-114000000D02*
G75*
G03X142000000Y-118000000I4000000J0D01*
G01*
X164000000Y-118000000D02*
G75*
G03X168000000Y-114000000I0J4000000D01*
G01*
X142000000Y-50000000D02*
X164000000Y-50000000D01*
X168000000Y-54000000D02*
X168000000Y-114000000D01*
X164000000Y-118000000D02*
X142000000Y-118000000D01*
X142118034Y-53000000D02*
G75*
G03X142118034Y-53000000I-1118034J0D01*
G01*
X166118034Y-53000000D02*
G75*
G03X166118034Y-53000000I-1118034J0D01*
G01*
X142118034Y-115000000D02*
G75*
G03X142118034Y-115000000I-1118034J0D01*
G01*
X166118034Y-115000000D02*
G75*
G03X166118034Y-115000000I-1118034J0D01*
G01*
X72118034Y-127000000D02*
G75*
G03X72118034Y-127000000I-1118034J0D01*
G01*
X72118034Y-103000000D02*
G75*
G03X72118034Y-103000000I-1118034J0D01*
G01*
X134118034Y-127000000D02*
G75*
G03X134118034Y-127000000I-1118034J0D01*
G01*
X134118034Y-103000000D02*
G75*
G03X134118034Y-103000000I-1118034J0D01*
G01*
X68000000Y-126000000D02*
X68000000Y-104000000D01*
X132000000Y-130000000D02*
X72000000Y-130000000D01*
X68000000Y-126000000D02*
G75*
G03X72000000Y-130000000I4000000J0D01*
G01*
X72000000Y-100000000D02*
G75*
G03X68000000Y-104000000I0J-4000000D01*
G01*
X132000000Y-130000000D02*
G75*
G03X136000000Y-126000000I0J4000000D01*
G01*
X136000000Y-104000000D02*
G75*
G03X132000000Y-100000000I-4000000J0D01*
G01*
X136000000Y-72000000D02*
G75*
G03X132000000Y-68000000I-4000000J0D01*
G01*
X132000000Y-98000000D02*
G75*
G03X136000000Y-94000000I0J4000000D01*
G01*
X72000000Y-68000000D02*
G75*
G03X68000000Y-72000000I0J-4000000D01*
G01*
X68000000Y-94000000D02*
G75*
G03X72000000Y-98000000I4000000J0D01*
G01*
X136000000Y-72000000D02*
X136000000Y-94000000D01*
X68000000Y-94000000D02*
X68000000Y-72000000D01*
X134118034Y-71000000D02*
G75*
G03X134118034Y-71000000I-1118034J0D01*
G01*
X134118034Y-95000000D02*
G75*
G03X134118034Y-95000000I-1118034J0D01*
G01*
X72118034Y-71000000D02*
G75*
G03X72118034Y-71000000I-1118034J0D01*
G01*
X72118034Y-95000000D02*
G75*
G03X72118034Y-95000000I-1118034J0D01*
G01*
X72118034Y-63000000D02*
G75*
G03X72118034Y-63000000I-1118034J0D01*
G01*
X72118034Y-39000000D02*
G75*
G03X72118034Y-39000000I-1118034J0D01*
G01*
X134118034Y-63000000D02*
G75*
G03X134118034Y-63000000I-1118034J0D01*
G01*
X134118034Y-39000000D02*
G75*
G03X134118034Y-39000000I-1118034J0D01*
G01*
X72000000Y-36000000D02*
X132000000Y-36000000D01*
X68000000Y-62000000D02*
X68000000Y-40000000D01*
X68000000Y-62000000D02*
G75*
G03X72000000Y-66000000I4000000J0D01*
G01*
X72000000Y-36000000D02*
G75*
G03X68000000Y-40000000I0J-4000000D01*
G01*
X132000000Y-66000000D02*
G75*
G03X136000000Y-62000000I0J4000000D01*
G01*
X136000000Y-40000000D02*
G75*
G03X132000000Y-36000000I-4000000J0D01*
G01*
M02*
