M48
INCH,TZ
T10C0.020
T11C0.016
T12C0.030
T13C0.032
T14C0.039
T15C0.040
T16C0.047
T17C0.051
%
T10
X030413Y-26083
X030413Y-26673
X030413Y-38681
X030413Y-39272
X030709Y-26083
X030709Y-26673
X030709Y-38681
X030709Y-39272
X031004Y-26083
X031004Y-26673
X031004Y-38681
X031004Y-39272
X050492Y-26083
X050492Y-26673
X050492Y-38681
X050492Y-39272
X050787Y-26083
X050787Y-26673
X050787Y-38681
X050787Y-39272
X051083Y-26083
X051083Y-26673
X051083Y-38681
X051083Y-39272
X053642Y-21752
X053642Y-22047
X053642Y-22343
X053642Y-42224
X053642Y-42520
X053642Y-42815
X054232Y-21752
X054232Y-22047
X054232Y-22343
X054232Y-42224
X054232Y-42520
X054232Y-42815
T11
X027500Y-23600
X027500Y-36198
X027500Y-48797
X028500Y-22700
X028500Y-35298
X028500Y-47897
X028600Y-23600
X028600Y-36198
X028600Y-48797
X029100Y-15600
X029100Y-28198
X029100Y-40797
X029300Y-24300
X029300Y-36898
X029300Y-49497
X029700Y-25400
X029700Y-37998
X029700Y-50597
X029800Y-22500
X029800Y-35098
X029800Y-47697
X030100Y-21900
X030100Y-23200
X030100Y-34498
X030100Y-35798
X030100Y-47097
X030100Y-48397
X030500Y-21000
X030500Y-24300
X030500Y-24800
X030500Y-33598
X030500Y-36898
X030500Y-37398
X030500Y-46197
X030500Y-49497
X030500Y-49997
X030600Y-19900
X030600Y-32498
X030600Y-45097
X030800Y-15600
X030800Y-16100
X030800Y-28198
X030800Y-28698
X030800Y-40797
X030800Y-41297
X030950Y-21850
X030950Y-34448
X030950Y-47047
X031500Y-21600
X031500Y-34198
X031500Y-46797
X032200Y-21800
X032200Y-23100
X032200Y-34398
X032200Y-35698
X032200Y-46997
X032200Y-48297
X033700Y-23400
X033700Y-35998
X033700Y-48597
X034100Y-21500
X034100Y-34098
X034100Y-46697
X034200Y-21100
X034200Y-33698
X034200Y-46297
X034400Y-20800
X034400Y-33398
X034400Y-45997
X034600Y-23400
X034600Y-35998
X034600Y-48597
X035400Y-22800
X035400Y-35398
X035400Y-47997
X035500Y-16500
X035500Y-29098
X035500Y-41697
X036000Y-20400
X036000Y-32998
X036000Y-45597
X037500Y-16500
X037500Y-29098
X037500Y-41697
X038100Y-20200
X038100Y-32798
X038100Y-45397
X040100Y-17600
X040100Y-30198
X040100Y-42797
X040200Y-16500
X040200Y-29098
X040200Y-41697
X040900Y-21500
X040900Y-34098
X040900Y-46697
X041900Y-21800
X041900Y-34398
X041900Y-46997
X042100Y-16500
X042100Y-29098
X042100Y-41697
X042500Y-20900
X042500Y-25400
X042500Y-33498
X042500Y-37998
X042500Y-46097
X042500Y-50597
X042600Y-20100
X042600Y-32698
X042600Y-45297
X043900Y-16500
X043900Y-29098
X043900Y-41697
X045200Y-20500
X045200Y-33098
X045200Y-45697
X055757Y-42428
X055757Y-44128
X056257Y-42428
X056657Y-29328
X056657Y-31128
X056657Y-33028
X056657Y-35728
X056657Y-37728
X057757Y-33128
X060057Y-42628
X060257Y-30628
X060357Y-35128
X060557Y-37228
X060657Y-28028
X060957Y-38828
X061057Y-30728
X061157Y-42728
X061257Y-39028
X061657Y-32328
X061657Y-39128
X061757Y-41728
X061957Y-31328
X061957Y-41028
X062007Y-42278
X062057Y-43128
X062657Y-43428
X062857Y-44728
X062957Y-37828
X063257Y-41028
X063357Y-43128
X063557Y-38628
X063557Y-39528
X063757Y-44628
X063757Y-45728
X064457Y-42728
X064457Y-43928
X064957Y-42728
X065557Y-30728
X065557Y-43528
T12
X027953Y-18701
X027953Y-19685
X027953Y-20669
X027953Y-31299
X027953Y-32283
X027953Y-33268
X027953Y-43898
X027953Y-44882
X027953Y-45866
X058858Y-45276
X059843Y-45276
X060827Y-45276
T13
X029900Y-14700
X029900Y-17700
X029900Y-27298
X029900Y-30298
X029900Y-39897
X029900Y-42897
X031900Y-14700
X031900Y-17700
X031900Y-27298
X031900Y-30298
X031900Y-39897
X031900Y-42897
X041000Y-14700
X041000Y-17700
X041000Y-27298
X041000Y-30298
X041000Y-39897
X041000Y-42897
X043000Y-14700
X043000Y-17700
X043000Y-27298
X043000Y-30298
X043000Y-39897
X043000Y-42897
X054857Y-30228
X054857Y-32228
X054857Y-41328
X054857Y-43328
X057857Y-30228
X057857Y-32228
X057857Y-41328
X057857Y-43328
T14
X044094Y-21835
X044094Y-22835
X044094Y-23835
X044094Y-34433
X044094Y-35433
X044094Y-36433
X044094Y-47031
X044094Y-48031
X044094Y-49031
X061992Y-29134
X062992Y-29134
X063992Y-29134
T15
X031700Y-24700
X031700Y-37298
X031700Y-49897
X032700Y-24700
X032700Y-37298
X032700Y-49897
X033700Y-24700
X033700Y-37298
X033700Y-49897
X034700Y-24700
X034700Y-37298
X034700Y-49897
X035700Y-23700
X035700Y-24700
X035700Y-36298
X035700Y-37298
X035700Y-48897
X035700Y-49897
X036700Y-23700
X036700Y-24700
X036700Y-36298
X036700Y-37298
X036700Y-48897
X036700Y-49897
X037700Y-23700
X037700Y-24700
X037700Y-36298
X037700Y-37298
X037700Y-48897
X037700Y-49897
X038700Y-23700
X038700Y-24700
X038700Y-36298
X038700Y-37298
X038700Y-48897
X038700Y-49897
X039700Y-23700
X039700Y-24700
X039700Y-36298
X039700Y-37298
X039700Y-48897
X039700Y-49897
X040700Y-23700
X040700Y-24700
X040700Y-36298
X040700Y-37298
X040700Y-48897
X040700Y-49897
X044800Y-15100
X044800Y-27698
X044800Y-40297
X045800Y-15100
X045800Y-27698
X045800Y-40297
X046800Y-15100
X046800Y-27698
X046800Y-40297
X047800Y-15100
X047800Y-27698
X047800Y-40297
X048800Y-15100
X048800Y-27698
X048800Y-40297
X049800Y-15100
X049800Y-27698
X049800Y-40297
X055257Y-23428
X055257Y-24428
X055257Y-25428
X055257Y-26428
X055257Y-27428
X055257Y-28428
X063857Y-32528
X063857Y-33528
X063857Y-34528
X063857Y-35528
X063857Y-36528
X063857Y-37528
X064857Y-32528
X064857Y-33528
X064857Y-34528
X064857Y-35528
X064857Y-36528
X064857Y-37528
X064857Y-38528
X064857Y-39528
X064857Y-40528
X064857Y-41528
T16
X046100Y-19200
X046100Y-31798
X046100Y-44397
X047492Y-17808
X047492Y-30406
X047492Y-43005
X057966Y-25736
X059357Y-27128
T17
X046063Y-23622
X046063Y-36220
X046063Y-48819
X048031Y-23622
X048031Y-36220
X048031Y-48819
X051575Y-20669
X051575Y-22638
X051575Y-33268
X051575Y-35236
X051575Y-45866
X051575Y-47835
X060827Y-21654
X062795Y-21654
X063780Y-25197
X063780Y-27165
M30

