G04 #@! TF.FileFunction,Soldermask,Top*
%FSLAX46Y46*%
G04 Gerber Fmt 4.6, Leading zero omitted, Abs format (unit mm)*
G04 Created by KiCad (PCBNEW 4.0.2-stable) date Saturday, November 26, 2016 'pmt' 01:20:35 pm*
%MOMM*%
G01*
G04 APERTURE LIST*
%ADD10C,0.100000*%
%ADD11C,0.500000*%
%ADD12R,2.032000X1.727200*%
%ADD13O,2.032000X1.727200*%
%ADD14R,0.450000X1.450000*%
%ADD15R,3.657600X2.032000*%
%ADD16R,1.016000X2.032000*%
%ADD17C,1.397000*%
%ADD18R,0.900000X1.200000*%
%ADD19O,1.501140X2.499360*%
%ADD20R,2.500000X2.500000*%
%ADD21C,2.500000*%
%ADD22O,1.700000X3.700000*%
%ADD23R,1.198880X1.198880*%
%ADD24R,0.750000X1.200000*%
%ADD25C,1.700000*%
%ADD26R,2.500000X1.100000*%
%ADD27O,2.500000X1.100000*%
%ADD28R,1.200000X0.750000*%
%ADD29O,3.700000X1.700000*%
%ADD30R,1.727200X2.032000*%
%ADD31O,1.727200X2.032000*%
%ADD32O,2.499360X1.501140*%
%ADD33R,1.200000X0.900000*%
%ADD34R,2.032000X3.657600*%
%ADD35R,2.032000X1.016000*%
%ADD36R,1.450000X0.450000*%
G04 APERTURE END LIST*
D10*
D11*
X136250000Y-108000000D03*
X137750000Y-108000000D03*
X136250000Y-107250000D03*
X136250000Y-108750000D03*
X137750000Y-108750000D03*
X137750000Y-107250000D03*
X136250000Y-56000000D03*
X137750000Y-56000000D03*
X136250000Y-55250000D03*
X136250000Y-56750000D03*
X137750000Y-56750000D03*
X137750000Y-55250000D03*
X129000000Y-66250000D03*
X129000000Y-67750000D03*
X129750000Y-66250000D03*
X128250000Y-66250000D03*
X128250000Y-67750000D03*
X129750000Y-67750000D03*
X129000000Y-98250000D03*
X129000000Y-99750000D03*
X129750000Y-98250000D03*
X128250000Y-98250000D03*
X128250000Y-99750000D03*
X129750000Y-99750000D03*
X78000000Y-98250000D03*
X78000000Y-99750000D03*
X78750000Y-98250000D03*
X77250000Y-98250000D03*
X77250000Y-99750000D03*
X78750000Y-99750000D03*
D12*
X164738000Y-82622000D03*
D13*
X164738000Y-85162000D03*
X164738000Y-87702000D03*
X164738000Y-90242000D03*
X164738000Y-92782000D03*
X164738000Y-95322000D03*
X164738000Y-97862000D03*
X164738000Y-100402000D03*
X164738000Y-102942000D03*
X164738000Y-105482000D03*
D14*
X157708000Y-111734000D03*
X158358000Y-111734000D03*
X159008000Y-111734000D03*
X159658000Y-111734000D03*
X160308000Y-111734000D03*
X160958000Y-111734000D03*
X161608000Y-111734000D03*
X161608000Y-105834000D03*
X160958000Y-105834000D03*
X160308000Y-105834000D03*
X159658000Y-105834000D03*
X159008000Y-105834000D03*
X158358000Y-105834000D03*
X157708000Y-105834000D03*
D15*
X147500000Y-51698000D03*
D16*
X147500000Y-58302000D03*
X149786000Y-58302000D03*
X145214000Y-58302000D03*
D17*
X139338000Y-81860000D03*
X139338000Y-76780000D03*
X146958000Y-81860000D03*
X146958000Y-76780000D03*
X146958000Y-104974000D03*
X146958000Y-110054000D03*
X139338000Y-104974000D03*
X139338000Y-110054000D03*
D18*
X153000000Y-79900000D03*
X153000000Y-82100000D03*
X155250000Y-79900000D03*
X155250000Y-82100000D03*
X154000000Y-108600000D03*
X154000000Y-106400000D03*
X151500000Y-106400000D03*
X151500000Y-108600000D03*
X149000000Y-106400000D03*
X149000000Y-108600000D03*
D19*
X160000000Y-74000000D03*
X162540000Y-74000000D03*
X157460000Y-74000000D03*
D20*
X162000000Y-69000000D03*
D21*
X162000000Y-64000000D03*
D12*
X162198000Y-82622000D03*
D13*
X162198000Y-85162000D03*
X162198000Y-87702000D03*
X162198000Y-90242000D03*
X162198000Y-92782000D03*
X162198000Y-95322000D03*
D12*
X140354000Y-59508000D03*
D13*
X140354000Y-62048000D03*
X140354000Y-64588000D03*
X140354000Y-67128000D03*
X140354000Y-69668000D03*
X140354000Y-72208000D03*
D22*
X154500000Y-114000000D03*
X152000000Y-114000000D03*
X149500000Y-114000000D03*
D20*
X159500000Y-55000000D03*
D21*
X154500000Y-55000000D03*
D23*
X144672000Y-115421020D03*
X144672000Y-113322980D03*
D24*
X160000000Y-101450000D03*
X160000000Y-99550000D03*
D25*
X147232466Y-65370466D03*
D10*
G36*
X151970082Y-68906000D02*
X150768000Y-70108082D01*
X149565918Y-68906000D01*
X150768000Y-67703918D01*
X151970082Y-68906000D01*
X151970082Y-68906000D01*
G37*
D26*
X84300000Y-105000000D03*
D27*
X84300000Y-107000000D03*
X84300000Y-109000000D03*
X84300000Y-111000000D03*
X84300000Y-113000000D03*
X84300000Y-115000000D03*
X84300000Y-117000000D03*
X84300000Y-119000000D03*
X99700000Y-119000000D03*
X99600000Y-117000000D03*
X99700000Y-115000000D03*
X99700000Y-113000000D03*
X99700000Y-111000000D03*
X99700000Y-109000000D03*
X99700000Y-107000000D03*
X99700000Y-105000000D03*
D25*
X120629534Y-109232466D03*
D10*
G36*
X117094000Y-113970082D02*
X115891918Y-112768000D01*
X117094000Y-111565918D01*
X118296082Y-112768000D01*
X117094000Y-113970082D01*
X117094000Y-113970082D01*
G37*
D28*
X84550000Y-122000000D03*
X86450000Y-122000000D03*
D23*
X70578980Y-106672000D03*
X72677020Y-106672000D03*
D20*
X131000000Y-121500000D03*
D21*
X131000000Y-116500000D03*
D29*
X72000000Y-116500000D03*
X72000000Y-114000000D03*
X72000000Y-111500000D03*
D30*
X126492000Y-102354000D03*
D31*
X123952000Y-102354000D03*
X121412000Y-102354000D03*
X118872000Y-102354000D03*
X116332000Y-102354000D03*
X113792000Y-102354000D03*
D30*
X103378000Y-124198000D03*
D31*
X100838000Y-124198000D03*
X98298000Y-124198000D03*
X95758000Y-124198000D03*
X93218000Y-124198000D03*
X90678000Y-124198000D03*
D20*
X117000000Y-124000000D03*
D21*
X122000000Y-124000000D03*
D32*
X112000000Y-122000000D03*
X112000000Y-124540000D03*
X112000000Y-119460000D03*
D33*
X79600000Y-111000000D03*
X77400000Y-111000000D03*
X79600000Y-113500000D03*
X77400000Y-113500000D03*
X77400000Y-116000000D03*
X79600000Y-116000000D03*
X106100000Y-117250000D03*
X103900000Y-117250000D03*
X106100000Y-115000000D03*
X103900000Y-115000000D03*
D17*
X81026000Y-108958000D03*
X75946000Y-108958000D03*
X81026000Y-101338000D03*
X75946000Y-101338000D03*
X104140000Y-101338000D03*
X109220000Y-101338000D03*
X104140000Y-108958000D03*
X109220000Y-108958000D03*
D34*
X134302000Y-109500000D03*
D35*
X127698000Y-109500000D03*
X127698000Y-111786000D03*
X127698000Y-107214000D03*
D36*
X74266000Y-119708000D03*
X74266000Y-120358000D03*
X74266000Y-121008000D03*
X74266000Y-121658000D03*
X74266000Y-122308000D03*
X74266000Y-122958000D03*
X74266000Y-123608000D03*
X80166000Y-123608000D03*
X80166000Y-122958000D03*
X80166000Y-122308000D03*
X80166000Y-121658000D03*
X80166000Y-121008000D03*
X80166000Y-120358000D03*
X80166000Y-119708000D03*
D30*
X103378000Y-126738000D03*
D31*
X100838000Y-126738000D03*
X98298000Y-126738000D03*
X95758000Y-126738000D03*
X93218000Y-126738000D03*
X90678000Y-126738000D03*
X88138000Y-126738000D03*
X85598000Y-126738000D03*
X83058000Y-126738000D03*
X80518000Y-126738000D03*
D30*
X103378000Y-94738000D03*
D31*
X100838000Y-94738000D03*
X98298000Y-94738000D03*
X95758000Y-94738000D03*
X93218000Y-94738000D03*
X90678000Y-94738000D03*
X88138000Y-94738000D03*
X85598000Y-94738000D03*
X83058000Y-94738000D03*
X80518000Y-94738000D03*
D36*
X74266000Y-87708000D03*
X74266000Y-88358000D03*
X74266000Y-89008000D03*
X74266000Y-89658000D03*
X74266000Y-90308000D03*
X74266000Y-90958000D03*
X74266000Y-91608000D03*
X80166000Y-91608000D03*
X80166000Y-90958000D03*
X80166000Y-90308000D03*
X80166000Y-89658000D03*
X80166000Y-89008000D03*
X80166000Y-88358000D03*
X80166000Y-87708000D03*
D34*
X134302000Y-77500000D03*
D35*
X127698000Y-77500000D03*
X127698000Y-79786000D03*
X127698000Y-75214000D03*
D17*
X104140000Y-69338000D03*
X109220000Y-69338000D03*
X104140000Y-76958000D03*
X109220000Y-76958000D03*
X81026000Y-76958000D03*
X75946000Y-76958000D03*
X81026000Y-69338000D03*
X75946000Y-69338000D03*
D33*
X106100000Y-83000000D03*
X103900000Y-83000000D03*
X106100000Y-85250000D03*
X103900000Y-85250000D03*
X77400000Y-84000000D03*
X79600000Y-84000000D03*
X79600000Y-81500000D03*
X77400000Y-81500000D03*
X79600000Y-79000000D03*
X77400000Y-79000000D03*
D32*
X112000000Y-90000000D03*
X112000000Y-92540000D03*
X112000000Y-87460000D03*
D20*
X117000000Y-92000000D03*
D21*
X122000000Y-92000000D03*
D30*
X103378000Y-92198000D03*
D31*
X100838000Y-92198000D03*
X98298000Y-92198000D03*
X95758000Y-92198000D03*
X93218000Y-92198000D03*
X90678000Y-92198000D03*
D30*
X126492000Y-70354000D03*
D31*
X123952000Y-70354000D03*
X121412000Y-70354000D03*
X118872000Y-70354000D03*
X116332000Y-70354000D03*
X113792000Y-70354000D03*
D29*
X72000000Y-84500000D03*
X72000000Y-82000000D03*
X72000000Y-79500000D03*
D20*
X131000000Y-89500000D03*
D21*
X131000000Y-84500000D03*
D23*
X70578980Y-74672000D03*
X72677020Y-74672000D03*
D28*
X84550000Y-90000000D03*
X86450000Y-90000000D03*
D25*
X120629534Y-77232466D03*
D10*
G36*
X117094000Y-81970082D02*
X115891918Y-80768000D01*
X117094000Y-79565918D01*
X118296082Y-80768000D01*
X117094000Y-81970082D01*
X117094000Y-81970082D01*
G37*
D26*
X84300000Y-73000000D03*
D27*
X84300000Y-75000000D03*
X84300000Y-77000000D03*
X84300000Y-79000000D03*
X84300000Y-81000000D03*
X84300000Y-83000000D03*
X84300000Y-85000000D03*
X84300000Y-87000000D03*
X99700000Y-87000000D03*
X99600000Y-85000000D03*
X99700000Y-83000000D03*
X99700000Y-81000000D03*
X99700000Y-79000000D03*
X99700000Y-77000000D03*
X99700000Y-75000000D03*
X99700000Y-73000000D03*
D26*
X84300000Y-41000000D03*
D27*
X84300000Y-43000000D03*
X84300000Y-45000000D03*
X84300000Y-47000000D03*
X84300000Y-49000000D03*
X84300000Y-51000000D03*
X84300000Y-53000000D03*
X84300000Y-55000000D03*
X99700000Y-55000000D03*
X99600000Y-53000000D03*
X99700000Y-51000000D03*
X99700000Y-49000000D03*
X99700000Y-47000000D03*
X99700000Y-45000000D03*
X99700000Y-43000000D03*
X99700000Y-41000000D03*
D25*
X120629534Y-45232466D03*
D10*
G36*
X117094000Y-49970082D02*
X115891918Y-48768000D01*
X117094000Y-47565918D01*
X118296082Y-48768000D01*
X117094000Y-49970082D01*
X117094000Y-49970082D01*
G37*
D28*
X84550000Y-58000000D03*
X86450000Y-58000000D03*
D23*
X70578980Y-42672000D03*
X72677020Y-42672000D03*
D20*
X131000000Y-57500000D03*
D21*
X131000000Y-52500000D03*
D29*
X72000000Y-52500000D03*
X72000000Y-50000000D03*
X72000000Y-47500000D03*
D30*
X126492000Y-38354000D03*
D31*
X123952000Y-38354000D03*
X121412000Y-38354000D03*
X118872000Y-38354000D03*
X116332000Y-38354000D03*
X113792000Y-38354000D03*
D30*
X103378000Y-60198000D03*
D31*
X100838000Y-60198000D03*
X98298000Y-60198000D03*
X95758000Y-60198000D03*
X93218000Y-60198000D03*
X90678000Y-60198000D03*
D20*
X117000000Y-60000000D03*
D21*
X122000000Y-60000000D03*
D32*
X112000000Y-58000000D03*
X112000000Y-60540000D03*
X112000000Y-55460000D03*
D33*
X79600000Y-47000000D03*
X77400000Y-47000000D03*
X79600000Y-49500000D03*
X77400000Y-49500000D03*
X77400000Y-52000000D03*
X79600000Y-52000000D03*
X106100000Y-53250000D03*
X103900000Y-53250000D03*
X106100000Y-51000000D03*
X103900000Y-51000000D03*
D17*
X81026000Y-44958000D03*
X75946000Y-44958000D03*
X81026000Y-37338000D03*
X75946000Y-37338000D03*
X104140000Y-37338000D03*
X109220000Y-37338000D03*
X104140000Y-44958000D03*
X109220000Y-44958000D03*
D34*
X134302000Y-45500000D03*
D35*
X127698000Y-45500000D03*
X127698000Y-47786000D03*
X127698000Y-43214000D03*
D36*
X74266000Y-55708000D03*
X74266000Y-56358000D03*
X74266000Y-57008000D03*
X74266000Y-57658000D03*
X74266000Y-58308000D03*
X74266000Y-58958000D03*
X74266000Y-59608000D03*
X80166000Y-59608000D03*
X80166000Y-58958000D03*
X80166000Y-58308000D03*
X80166000Y-57658000D03*
X80166000Y-57008000D03*
X80166000Y-56358000D03*
X80166000Y-55708000D03*
D30*
X103378000Y-62738000D03*
D31*
X100838000Y-62738000D03*
X98298000Y-62738000D03*
X95758000Y-62738000D03*
X93218000Y-62738000D03*
X90678000Y-62738000D03*
X88138000Y-62738000D03*
X85598000Y-62738000D03*
X83058000Y-62738000D03*
X80518000Y-62738000D03*
D11*
X78000000Y-66250000D03*
X78000000Y-67750000D03*
X78750000Y-66250000D03*
X77250000Y-66250000D03*
X77250000Y-67750000D03*
X78750000Y-67750000D03*
M02*
