G04 #@! TF.FileFunction,Legend,Bot*
%FSLAX46Y46*%
G04 Gerber Fmt 4.6, Leading zero omitted, Abs format (unit mm)*
G04 Created by KiCad (PCBNEW 4.0.2-stable) date Saturday, November 26, 2016 'pmt' 01:20:35 pm*
%MOMM*%
G01*
G04 APERTURE LIST*
%ADD10C,0.100000*%
%ADD11C,0.150000*%
%ADD12C,1.000000*%
%ADD13C,0.500000*%
%ADD14C,0.200000*%
G04 APERTURE END LIST*
D10*
D11*
X158966667Y-51850000D02*
X158900001Y-51883333D01*
X158800001Y-51883333D01*
X158700001Y-51850000D01*
X158633334Y-51783333D01*
X158600001Y-51716667D01*
X158566667Y-51583333D01*
X158566667Y-51483333D01*
X158600001Y-51350000D01*
X158633334Y-51283333D01*
X158700001Y-51216667D01*
X158800001Y-51183333D01*
X158866667Y-51183333D01*
X158966667Y-51216667D01*
X159000001Y-51250000D01*
X159000001Y-51483333D01*
X158866667Y-51483333D01*
X159300001Y-51183333D02*
X159300001Y-51883333D01*
X159700001Y-51183333D01*
X159700001Y-51883333D01*
X160033334Y-51183333D02*
X160033334Y-51883333D01*
X160200000Y-51883333D01*
X160300000Y-51850000D01*
X160366667Y-51783333D01*
X160400000Y-51716667D01*
X160433334Y-51583333D01*
X160433334Y-51483333D01*
X160400000Y-51350000D01*
X160366667Y-51283333D01*
X160300000Y-51216667D01*
X160200000Y-51183333D01*
X160033334Y-51183333D01*
X153600000Y-51450000D02*
X154133333Y-51450000D01*
X153866666Y-51183333D02*
X153866666Y-51716667D01*
X154800000Y-51883333D02*
X154466667Y-51883333D01*
X154433333Y-51550000D01*
X154466667Y-51583333D01*
X154533333Y-51616667D01*
X154700000Y-51616667D01*
X154766667Y-51583333D01*
X154800000Y-51550000D01*
X154833333Y-51483333D01*
X154833333Y-51316667D01*
X154800000Y-51250000D01*
X154766667Y-51216667D01*
X154700000Y-51183333D01*
X154533333Y-51183333D01*
X154466667Y-51216667D01*
X154433333Y-51250000D01*
X155033334Y-51883333D02*
X155266667Y-51183333D01*
X155500000Y-51883333D01*
D12*
X145428571Y-66297618D02*
X150428571Y-66297618D01*
X145666667Y-66297618D02*
X145428571Y-66773809D01*
X145428571Y-67726190D01*
X145666667Y-68202380D01*
X145904762Y-68440475D01*
X146380952Y-68678571D01*
X147809524Y-68678571D01*
X148285714Y-68440475D01*
X148523810Y-68202380D01*
X148761905Y-67726190D01*
X148761905Y-66773809D01*
X148523810Y-66297618D01*
X148761905Y-72964285D02*
X146142857Y-72964285D01*
X145666667Y-72726190D01*
X145428571Y-72250000D01*
X145428571Y-71297619D01*
X145666667Y-70821428D01*
X148523810Y-72964285D02*
X148761905Y-72488095D01*
X148761905Y-71297619D01*
X148523810Y-70821428D01*
X148047619Y-70583333D01*
X147571429Y-70583333D01*
X147095238Y-70821428D01*
X146857143Y-71297619D01*
X146857143Y-72488095D01*
X146619048Y-72964285D01*
X148761905Y-75345238D02*
X145428571Y-75345238D01*
X146380952Y-75345238D02*
X145904762Y-75583333D01*
X145666667Y-75821429D01*
X145428571Y-76297619D01*
X145428571Y-76773810D01*
X145428571Y-77726190D02*
X145428571Y-79630952D01*
X143761905Y-78440476D02*
X148047619Y-78440476D01*
X148523810Y-78678571D01*
X148761905Y-79154762D01*
X148761905Y-79630952D01*
X145428571Y-80821429D02*
X148761905Y-82011905D01*
X145428571Y-83202381D02*
X148761905Y-82011905D01*
X149952381Y-81535714D01*
X150190476Y-81297619D01*
X150428571Y-80821429D01*
X148523810Y-91059524D02*
X148761905Y-90583334D01*
X148761905Y-89630953D01*
X148523810Y-89154762D01*
X148285714Y-88916667D01*
X147809524Y-88678572D01*
X146380952Y-88678572D01*
X145904762Y-88916667D01*
X145666667Y-89154762D01*
X145428571Y-89630953D01*
X145428571Y-90583334D01*
X145666667Y-91059524D01*
X148761905Y-95345238D02*
X146142857Y-95345238D01*
X145666667Y-95107143D01*
X145428571Y-94630953D01*
X145428571Y-93678572D01*
X145666667Y-93202381D01*
X148523810Y-95345238D02*
X148761905Y-94869048D01*
X148761905Y-93678572D01*
X148523810Y-93202381D01*
X148047619Y-92964286D01*
X147571429Y-92964286D01*
X147095238Y-93202381D01*
X146857143Y-93678572D01*
X146857143Y-94869048D01*
X146619048Y-95345238D01*
X145428571Y-97011905D02*
X145428571Y-98916667D01*
X143761905Y-97726191D02*
X148047619Y-97726191D01*
X148523810Y-97964286D01*
X148761905Y-98440477D01*
X148761905Y-98916667D01*
D13*
X152880952Y-70166667D02*
X152761905Y-69928572D01*
X152523810Y-69809524D01*
X150380952Y-69809524D01*
X152880952Y-71119048D02*
X151214286Y-71119048D01*
X150380952Y-71119048D02*
X150500000Y-71000000D01*
X150619048Y-71119048D01*
X150500000Y-71238096D01*
X150380952Y-71119048D01*
X150619048Y-71119048D01*
X151214286Y-73380953D02*
X153238095Y-73380953D01*
X153476190Y-73261905D01*
X153595238Y-73142857D01*
X153714286Y-72904762D01*
X153714286Y-72547619D01*
X153595238Y-72309524D01*
X152761905Y-73380953D02*
X152880952Y-73142857D01*
X152880952Y-72666667D01*
X152761905Y-72428572D01*
X152642857Y-72309524D01*
X152404762Y-72190476D01*
X151690476Y-72190476D01*
X151452381Y-72309524D01*
X151333333Y-72428572D01*
X151214286Y-72666667D01*
X151214286Y-73142857D01*
X151333333Y-73380953D01*
X152880952Y-74571429D02*
X150380952Y-74571429D01*
X152880952Y-75642858D02*
X151571429Y-75642858D01*
X151333333Y-75523810D01*
X151214286Y-75285715D01*
X151214286Y-74928572D01*
X151333333Y-74690477D01*
X151452381Y-74571429D01*
X151214286Y-76476191D02*
X151214286Y-77428572D01*
X150380952Y-76833334D02*
X152523810Y-76833334D01*
X152761905Y-76952382D01*
X152880952Y-77190477D01*
X152880952Y-77428572D01*
X152761905Y-81238096D02*
X152880952Y-81000000D01*
X152880952Y-80523810D01*
X152761905Y-80285715D01*
X152642857Y-80166667D01*
X152404762Y-80047619D01*
X151690476Y-80047619D01*
X151452381Y-80166667D01*
X151333333Y-80285715D01*
X151214286Y-80523810D01*
X151214286Y-81000000D01*
X151333333Y-81238096D01*
X152880952Y-82666667D02*
X152761905Y-82428572D01*
X152642857Y-82309524D01*
X152404762Y-82190476D01*
X151690476Y-82190476D01*
X151452381Y-82309524D01*
X151333333Y-82428572D01*
X151214286Y-82666667D01*
X151214286Y-83023810D01*
X151333333Y-83261905D01*
X151452381Y-83380953D01*
X151690476Y-83500000D01*
X152404762Y-83500000D01*
X152642857Y-83380953D01*
X152761905Y-83261905D01*
X152880952Y-83023810D01*
X152880952Y-82666667D01*
X151214286Y-84571429D02*
X152880952Y-84571429D01*
X151452381Y-84571429D02*
X151333333Y-84690477D01*
X151214286Y-84928572D01*
X151214286Y-85285715D01*
X151333333Y-85523810D01*
X151571429Y-85642858D01*
X152880952Y-85642858D01*
X151214286Y-86476191D02*
X151214286Y-87428572D01*
X150380952Y-86833334D02*
X152523810Y-86833334D01*
X152761905Y-86952382D01*
X152880952Y-87190477D01*
X152880952Y-87428572D01*
X152880952Y-88261905D02*
X151214286Y-88261905D01*
X151690476Y-88261905D02*
X151452381Y-88380953D01*
X151333333Y-88500000D01*
X151214286Y-88738096D01*
X151214286Y-88976191D01*
X152880952Y-90166667D02*
X152761905Y-89928572D01*
X152642857Y-89809524D01*
X152404762Y-89690476D01*
X151690476Y-89690476D01*
X151452381Y-89809524D01*
X151333333Y-89928572D01*
X151214286Y-90166667D01*
X151214286Y-90523810D01*
X151333333Y-90761905D01*
X151452381Y-90880953D01*
X151690476Y-91000000D01*
X152404762Y-91000000D01*
X152642857Y-90880953D01*
X152761905Y-90761905D01*
X152880952Y-90523810D01*
X152880952Y-90166667D01*
X152880952Y-92428572D02*
X152761905Y-92190477D01*
X152523810Y-92071429D01*
X150380952Y-92071429D01*
X152880952Y-93738096D02*
X152761905Y-93500001D01*
X152523810Y-93380953D01*
X150380952Y-93380953D01*
X152761905Y-95642858D02*
X152880952Y-95404763D01*
X152880952Y-94928572D01*
X152761905Y-94690477D01*
X152523810Y-94571429D01*
X151571429Y-94571429D01*
X151333333Y-94690477D01*
X151214286Y-94928572D01*
X151214286Y-95404763D01*
X151333333Y-95642858D01*
X151571429Y-95761906D01*
X151809524Y-95761906D01*
X152047619Y-94571429D01*
X152880952Y-96833334D02*
X151214286Y-96833334D01*
X151690476Y-96833334D02*
X151452381Y-96952382D01*
X151333333Y-97071429D01*
X151214286Y-97309525D01*
X151214286Y-97547620D01*
D14*
X155952381Y-70309523D02*
X155952381Y-69833332D01*
X154952381Y-69833332D01*
X154952381Y-70642856D02*
X155761905Y-70642856D01*
X155857143Y-70690475D01*
X155904762Y-70738094D01*
X155952381Y-70833332D01*
X155952381Y-71023809D01*
X155904762Y-71119047D01*
X155857143Y-71166666D01*
X155761905Y-71214285D01*
X154952381Y-71214285D01*
X155952381Y-71690475D02*
X154952381Y-71690475D01*
X155952381Y-72261904D02*
X155380952Y-71833332D01*
X154952381Y-72261904D02*
X155523810Y-71690475D01*
X155428571Y-72690475D02*
X155428571Y-73023809D01*
X155952381Y-73166666D02*
X155952381Y-72690475D01*
X154952381Y-72690475D01*
X154952381Y-73166666D01*
X155857143Y-74928571D02*
X155904762Y-74880952D01*
X155952381Y-74738095D01*
X155952381Y-74642857D01*
X155904762Y-74499999D01*
X155809524Y-74404761D01*
X155714286Y-74357142D01*
X155523810Y-74309523D01*
X155380952Y-74309523D01*
X155190476Y-74357142D01*
X155095238Y-74404761D01*
X155000000Y-74499999D01*
X154952381Y-74642857D01*
X154952381Y-74738095D01*
X155000000Y-74880952D01*
X155047619Y-74928571D01*
X155476190Y-75547618D02*
X155952381Y-75547618D01*
X154952381Y-75214285D02*
X155476190Y-75547618D01*
X154952381Y-75880952D01*
X155857143Y-76785714D02*
X155904762Y-76738095D01*
X155952381Y-76595238D01*
X155952381Y-76500000D01*
X155904762Y-76357142D01*
X155809524Y-76261904D01*
X155714286Y-76214285D01*
X155523810Y-76166666D01*
X155380952Y-76166666D01*
X155190476Y-76214285D01*
X155095238Y-76261904D01*
X155000000Y-76357142D01*
X154952381Y-76500000D01*
X154952381Y-76595238D01*
X155000000Y-76738095D01*
X155047619Y-76785714D01*
X155666667Y-77166666D02*
X155666667Y-77642857D01*
X155952381Y-77071428D02*
X154952381Y-77404761D01*
X155952381Y-77738095D01*
X155476190Y-79119048D02*
X155666667Y-79119048D01*
X155666667Y-79166667D02*
X155476190Y-79166667D01*
X155428571Y-79214286D02*
X155714286Y-79214286D01*
X155666667Y-79261905D02*
X155476190Y-79261905D01*
X155476190Y-79309524D02*
X155666667Y-79309524D01*
X155619048Y-79119048D02*
X155714286Y-79214286D01*
X155619048Y-79309524D01*
X155523810Y-79119048D02*
X155428571Y-79214286D01*
X155523810Y-79309524D01*
X155476190Y-79119048D02*
X155428571Y-79214286D01*
X155476190Y-79309524D01*
X155571429Y-79357143D01*
X155666667Y-79309524D01*
X155714286Y-79214286D01*
X155666667Y-79119048D01*
X155571429Y-79071428D01*
X155476190Y-79119048D01*
X155047619Y-80785714D02*
X155000000Y-80833333D01*
X154952381Y-80928571D01*
X154952381Y-81166667D01*
X155000000Y-81261905D01*
X155047619Y-81309524D01*
X155142857Y-81357143D01*
X155238095Y-81357143D01*
X155380952Y-81309524D01*
X155952381Y-80738095D01*
X155952381Y-81357143D01*
X154952381Y-81976190D02*
X154952381Y-82071429D01*
X155000000Y-82166667D01*
X155047619Y-82214286D01*
X155142857Y-82261905D01*
X155333333Y-82309524D01*
X155571429Y-82309524D01*
X155761905Y-82261905D01*
X155857143Y-82214286D01*
X155904762Y-82166667D01*
X155952381Y-82071429D01*
X155952381Y-81976190D01*
X155904762Y-81880952D01*
X155857143Y-81833333D01*
X155761905Y-81785714D01*
X155571429Y-81738095D01*
X155333333Y-81738095D01*
X155142857Y-81785714D01*
X155047619Y-81833333D01*
X155000000Y-81880952D01*
X154952381Y-81976190D01*
X155952381Y-83261905D02*
X155952381Y-82690476D01*
X155952381Y-82976190D02*
X154952381Y-82976190D01*
X155095238Y-82880952D01*
X155190476Y-82785714D01*
X155238095Y-82690476D01*
X154952381Y-84119048D02*
X154952381Y-83928571D01*
X155000000Y-83833333D01*
X155047619Y-83785714D01*
X155190476Y-83690476D01*
X155380952Y-83642857D01*
X155761905Y-83642857D01*
X155857143Y-83690476D01*
X155904762Y-83738095D01*
X155952381Y-83833333D01*
X155952381Y-84023810D01*
X155904762Y-84119048D01*
X155857143Y-84166667D01*
X155761905Y-84214286D01*
X155523810Y-84214286D01*
X155428571Y-84166667D01*
X155380952Y-84119048D01*
X155333333Y-84023810D01*
X155333333Y-83833333D01*
X155380952Y-83738095D01*
X155428571Y-83690476D01*
X155523810Y-83642857D01*
X155571429Y-84642857D02*
X155571429Y-85404762D01*
X155952381Y-86404762D02*
X155952381Y-85833333D01*
X155952381Y-86119047D02*
X154952381Y-86119047D01*
X155095238Y-86023809D01*
X155190476Y-85928571D01*
X155238095Y-85833333D01*
X155952381Y-87357143D02*
X155952381Y-86785714D01*
X155952381Y-87071428D02*
X154952381Y-87071428D01*
X155095238Y-86976190D01*
X155190476Y-86880952D01*
X155238095Y-86785714D01*
X155571429Y-87785714D02*
X155571429Y-88547619D01*
X155047619Y-88976190D02*
X155000000Y-89023809D01*
X154952381Y-89119047D01*
X154952381Y-89357143D01*
X155000000Y-89452381D01*
X155047619Y-89500000D01*
X155142857Y-89547619D01*
X155238095Y-89547619D01*
X155380952Y-89500000D01*
X155952381Y-88928571D01*
X155952381Y-89547619D01*
X154952381Y-90404762D02*
X154952381Y-90214285D01*
X155000000Y-90119047D01*
X155047619Y-90071428D01*
X155190476Y-89976190D01*
X155380952Y-89928571D01*
X155761905Y-89928571D01*
X155857143Y-89976190D01*
X155904762Y-90023809D01*
X155952381Y-90119047D01*
X155952381Y-90309524D01*
X155904762Y-90404762D01*
X155857143Y-90452381D01*
X155761905Y-90500000D01*
X155523810Y-90500000D01*
X155428571Y-90452381D01*
X155380952Y-90404762D01*
X155333333Y-90309524D01*
X155333333Y-90119047D01*
X155380952Y-90023809D01*
X155428571Y-89976190D01*
X155523810Y-89928571D01*
X155476190Y-91976191D02*
X155666667Y-91976191D01*
X155666667Y-92023810D02*
X155476190Y-92023810D01*
X155428571Y-92071429D02*
X155714286Y-92071429D01*
X155666667Y-92119048D02*
X155476190Y-92119048D01*
X155476190Y-92166667D02*
X155666667Y-92166667D01*
X155619048Y-91976191D02*
X155714286Y-92071429D01*
X155619048Y-92166667D01*
X155523810Y-91976191D02*
X155428571Y-92071429D01*
X155523810Y-92166667D01*
X155476190Y-91976191D02*
X155428571Y-92071429D01*
X155476190Y-92166667D01*
X155571429Y-92214286D01*
X155666667Y-92166667D01*
X155714286Y-92071429D01*
X155666667Y-91976191D01*
X155571429Y-91928571D01*
X155476190Y-91976191D01*
X155952381Y-93690476D02*
X155285714Y-93690476D01*
X155476190Y-93690476D02*
X155380952Y-93738095D01*
X155333333Y-93785714D01*
X155285714Y-93880952D01*
X155285714Y-93976191D01*
X155904762Y-94690477D02*
X155952381Y-94595239D01*
X155952381Y-94404762D01*
X155904762Y-94309524D01*
X155809524Y-94261905D01*
X155428571Y-94261905D01*
X155333333Y-94309524D01*
X155285714Y-94404762D01*
X155285714Y-94595239D01*
X155333333Y-94690477D01*
X155428571Y-94738096D01*
X155523810Y-94738096D01*
X155619048Y-94261905D01*
X155285714Y-95071429D02*
X155952381Y-95309524D01*
X155285714Y-95547620D01*
X154952381Y-96595239D02*
X154952381Y-97214287D01*
X155333333Y-96880953D01*
X155333333Y-97023811D01*
X155380952Y-97119049D01*
X155428571Y-97166668D01*
X155523810Y-97214287D01*
X155761905Y-97214287D01*
X155857143Y-97166668D01*
X155904762Y-97119049D01*
X155952381Y-97023811D01*
X155952381Y-96738096D01*
X155904762Y-96642858D01*
X155857143Y-96595239D01*
X115690477Y-117952381D02*
X116166668Y-117952381D01*
X116166668Y-116952381D01*
X115357144Y-116952381D02*
X115357144Y-117761905D01*
X115309525Y-117857143D01*
X115261906Y-117904762D01*
X115166668Y-117952381D01*
X114976191Y-117952381D01*
X114880953Y-117904762D01*
X114833334Y-117857143D01*
X114785715Y-117761905D01*
X114785715Y-116952381D01*
X114309525Y-117952381D02*
X114309525Y-116952381D01*
X113738096Y-117952381D02*
X114166668Y-117380952D01*
X113738096Y-116952381D02*
X114309525Y-117523810D01*
X113309525Y-117428571D02*
X112976191Y-117428571D01*
X112833334Y-117952381D02*
X113309525Y-117952381D01*
X113309525Y-116952381D01*
X112833334Y-116952381D01*
X111071429Y-117857143D02*
X111119048Y-117904762D01*
X111261905Y-117952381D01*
X111357143Y-117952381D01*
X111500001Y-117904762D01*
X111595239Y-117809524D01*
X111642858Y-117714286D01*
X111690477Y-117523810D01*
X111690477Y-117380952D01*
X111642858Y-117190476D01*
X111595239Y-117095238D01*
X111500001Y-117000000D01*
X111357143Y-116952381D01*
X111261905Y-116952381D01*
X111119048Y-117000000D01*
X111071429Y-117047619D01*
X110452382Y-117476190D02*
X110452382Y-117952381D01*
X110785715Y-116952381D02*
X110452382Y-117476190D01*
X110119048Y-116952381D01*
X109214286Y-117857143D02*
X109261905Y-117904762D01*
X109404762Y-117952381D01*
X109500000Y-117952381D01*
X109642858Y-117904762D01*
X109738096Y-117809524D01*
X109785715Y-117714286D01*
X109833334Y-117523810D01*
X109833334Y-117380952D01*
X109785715Y-117190476D01*
X109738096Y-117095238D01*
X109642858Y-117000000D01*
X109500000Y-116952381D01*
X109404762Y-116952381D01*
X109261905Y-117000000D01*
X109214286Y-117047619D01*
X108833334Y-117666667D02*
X108357143Y-117666667D01*
X108928572Y-117952381D02*
X108595239Y-116952381D01*
X108261905Y-117952381D01*
X106880952Y-117476190D02*
X106880952Y-117666667D01*
X106833333Y-117666667D02*
X106833333Y-117476190D01*
X106785714Y-117428571D02*
X106785714Y-117714286D01*
X106738095Y-117666667D02*
X106738095Y-117476190D01*
X106690476Y-117476190D02*
X106690476Y-117666667D01*
X106880952Y-117619048D02*
X106785714Y-117714286D01*
X106690476Y-117619048D01*
X106880952Y-117523810D02*
X106785714Y-117428571D01*
X106690476Y-117523810D01*
X106880952Y-117476190D02*
X106785714Y-117428571D01*
X106690476Y-117476190D01*
X106642857Y-117571429D01*
X106690476Y-117666667D01*
X106785714Y-117714286D01*
X106880952Y-117666667D01*
X106928572Y-117571429D01*
X106880952Y-117476190D01*
X105214286Y-117047619D02*
X105166667Y-117000000D01*
X105071429Y-116952381D01*
X104833333Y-116952381D01*
X104738095Y-117000000D01*
X104690476Y-117047619D01*
X104642857Y-117142857D01*
X104642857Y-117238095D01*
X104690476Y-117380952D01*
X105261905Y-117952381D01*
X104642857Y-117952381D01*
X104023810Y-116952381D02*
X103928571Y-116952381D01*
X103833333Y-117000000D01*
X103785714Y-117047619D01*
X103738095Y-117142857D01*
X103690476Y-117333333D01*
X103690476Y-117571429D01*
X103738095Y-117761905D01*
X103785714Y-117857143D01*
X103833333Y-117904762D01*
X103928571Y-117952381D01*
X104023810Y-117952381D01*
X104119048Y-117904762D01*
X104166667Y-117857143D01*
X104214286Y-117761905D01*
X104261905Y-117571429D01*
X104261905Y-117333333D01*
X104214286Y-117142857D01*
X104166667Y-117047619D01*
X104119048Y-117000000D01*
X104023810Y-116952381D01*
X102738095Y-117952381D02*
X103309524Y-117952381D01*
X103023810Y-117952381D02*
X103023810Y-116952381D01*
X103119048Y-117095238D01*
X103214286Y-117190476D01*
X103309524Y-117238095D01*
X101880952Y-116952381D02*
X102071429Y-116952381D01*
X102166667Y-117000000D01*
X102214286Y-117047619D01*
X102309524Y-117190476D01*
X102357143Y-117380952D01*
X102357143Y-117761905D01*
X102309524Y-117857143D01*
X102261905Y-117904762D01*
X102166667Y-117952381D01*
X101976190Y-117952381D01*
X101880952Y-117904762D01*
X101833333Y-117857143D01*
X101785714Y-117761905D01*
X101785714Y-117523810D01*
X101833333Y-117428571D01*
X101880952Y-117380952D01*
X101976190Y-117333333D01*
X102166667Y-117333333D01*
X102261905Y-117380952D01*
X102309524Y-117428571D01*
X102357143Y-117523810D01*
X101357143Y-117571429D02*
X100595238Y-117571429D01*
X99595238Y-117952381D02*
X100166667Y-117952381D01*
X99880953Y-117952381D02*
X99880953Y-116952381D01*
X99976191Y-117095238D01*
X100071429Y-117190476D01*
X100166667Y-117238095D01*
X98642857Y-117952381D02*
X99214286Y-117952381D01*
X98928572Y-117952381D02*
X98928572Y-116952381D01*
X99023810Y-117095238D01*
X99119048Y-117190476D01*
X99214286Y-117238095D01*
X98214286Y-117571429D02*
X97452381Y-117571429D01*
X97023810Y-117047619D02*
X96976191Y-117000000D01*
X96880953Y-116952381D01*
X96642857Y-116952381D01*
X96547619Y-117000000D01*
X96500000Y-117047619D01*
X96452381Y-117142857D01*
X96452381Y-117238095D01*
X96500000Y-117380952D01*
X97071429Y-117952381D01*
X96452381Y-117952381D01*
X95595238Y-116952381D02*
X95785715Y-116952381D01*
X95880953Y-117000000D01*
X95928572Y-117047619D01*
X96023810Y-117190476D01*
X96071429Y-117380952D01*
X96071429Y-117761905D01*
X96023810Y-117857143D01*
X95976191Y-117904762D01*
X95880953Y-117952381D01*
X95690476Y-117952381D01*
X95595238Y-117904762D01*
X95547619Y-117857143D01*
X95500000Y-117761905D01*
X95500000Y-117523810D01*
X95547619Y-117428571D01*
X95595238Y-117380952D01*
X95690476Y-117333333D01*
X95880953Y-117333333D01*
X95976191Y-117380952D01*
X96023810Y-117428571D01*
X96071429Y-117523810D01*
X94023809Y-117476190D02*
X94023809Y-117666667D01*
X93976190Y-117666667D02*
X93976190Y-117476190D01*
X93928571Y-117428571D02*
X93928571Y-117714286D01*
X93880952Y-117666667D02*
X93880952Y-117476190D01*
X93833333Y-117476190D02*
X93833333Y-117666667D01*
X94023809Y-117619048D02*
X93928571Y-117714286D01*
X93833333Y-117619048D01*
X94023809Y-117523810D02*
X93928571Y-117428571D01*
X93833333Y-117523810D01*
X94023809Y-117476190D02*
X93928571Y-117428571D01*
X93833333Y-117476190D01*
X93785714Y-117571429D01*
X93833333Y-117666667D01*
X93928571Y-117714286D01*
X94023809Y-117666667D01*
X94071429Y-117571429D01*
X94023809Y-117476190D01*
X92309524Y-117952381D02*
X92309524Y-117285714D01*
X92309524Y-117476190D02*
X92261905Y-117380952D01*
X92214286Y-117333333D01*
X92119048Y-117285714D01*
X92023809Y-117285714D01*
X91309523Y-117904762D02*
X91404761Y-117952381D01*
X91595238Y-117952381D01*
X91690476Y-117904762D01*
X91738095Y-117809524D01*
X91738095Y-117428571D01*
X91690476Y-117333333D01*
X91595238Y-117285714D01*
X91404761Y-117285714D01*
X91309523Y-117333333D01*
X91261904Y-117428571D01*
X91261904Y-117523810D01*
X91738095Y-117619048D01*
X90928571Y-117285714D02*
X90690476Y-117952381D01*
X90452380Y-117285714D01*
X89404761Y-116952381D02*
X88785713Y-116952381D01*
X89119047Y-117333333D01*
X88976189Y-117333333D01*
X88880951Y-117380952D01*
X88833332Y-117428571D01*
X88785713Y-117523810D01*
X88785713Y-117761905D01*
X88833332Y-117857143D01*
X88880951Y-117904762D01*
X88976189Y-117952381D01*
X89261904Y-117952381D01*
X89357142Y-117904762D01*
X89404761Y-117857143D01*
D13*
X115833333Y-114880952D02*
X116071428Y-114761905D01*
X116190476Y-114523810D01*
X116190476Y-112380952D01*
X114880952Y-114880952D02*
X114880952Y-113214286D01*
X114880952Y-112380952D02*
X115000000Y-112500000D01*
X114880952Y-112619048D01*
X114761904Y-112500000D01*
X114880952Y-112380952D01*
X114880952Y-112619048D01*
X112619047Y-113214286D02*
X112619047Y-115238095D01*
X112738095Y-115476190D01*
X112857143Y-115595238D01*
X113095238Y-115714286D01*
X113452381Y-115714286D01*
X113690476Y-115595238D01*
X112619047Y-114761905D02*
X112857143Y-114880952D01*
X113333333Y-114880952D01*
X113571428Y-114761905D01*
X113690476Y-114642857D01*
X113809524Y-114404762D01*
X113809524Y-113690476D01*
X113690476Y-113452381D01*
X113571428Y-113333333D01*
X113333333Y-113214286D01*
X112857143Y-113214286D01*
X112619047Y-113333333D01*
X111428571Y-114880952D02*
X111428571Y-112380952D01*
X110357142Y-114880952D02*
X110357142Y-113571429D01*
X110476190Y-113333333D01*
X110714285Y-113214286D01*
X111071428Y-113214286D01*
X111309523Y-113333333D01*
X111428571Y-113452381D01*
X109523809Y-113214286D02*
X108571428Y-113214286D01*
X109166666Y-112380952D02*
X109166666Y-114523810D01*
X109047618Y-114761905D01*
X108809523Y-114880952D01*
X108571428Y-114880952D01*
X104761904Y-114761905D02*
X105000000Y-114880952D01*
X105476190Y-114880952D01*
X105714285Y-114761905D01*
X105833333Y-114642857D01*
X105952381Y-114404762D01*
X105952381Y-113690476D01*
X105833333Y-113452381D01*
X105714285Y-113333333D01*
X105476190Y-113214286D01*
X105000000Y-113214286D01*
X104761904Y-113333333D01*
X103333333Y-114880952D02*
X103571428Y-114761905D01*
X103690476Y-114642857D01*
X103809524Y-114404762D01*
X103809524Y-113690476D01*
X103690476Y-113452381D01*
X103571428Y-113333333D01*
X103333333Y-113214286D01*
X102976190Y-113214286D01*
X102738095Y-113333333D01*
X102619047Y-113452381D01*
X102500000Y-113690476D01*
X102500000Y-114404762D01*
X102619047Y-114642857D01*
X102738095Y-114761905D01*
X102976190Y-114880952D01*
X103333333Y-114880952D01*
X101428571Y-113214286D02*
X101428571Y-114880952D01*
X101428571Y-113452381D02*
X101309523Y-113333333D01*
X101071428Y-113214286D01*
X100714285Y-113214286D01*
X100476190Y-113333333D01*
X100357142Y-113571429D01*
X100357142Y-114880952D01*
X99523809Y-113214286D02*
X98571428Y-113214286D01*
X99166666Y-112380952D02*
X99166666Y-114523810D01*
X99047618Y-114761905D01*
X98809523Y-114880952D01*
X98571428Y-114880952D01*
X97738095Y-114880952D02*
X97738095Y-113214286D01*
X97738095Y-113690476D02*
X97619047Y-113452381D01*
X97500000Y-113333333D01*
X97261904Y-113214286D01*
X97023809Y-113214286D01*
X95833333Y-114880952D02*
X96071428Y-114761905D01*
X96190476Y-114642857D01*
X96309524Y-114404762D01*
X96309524Y-113690476D01*
X96190476Y-113452381D01*
X96071428Y-113333333D01*
X95833333Y-113214286D01*
X95476190Y-113214286D01*
X95238095Y-113333333D01*
X95119047Y-113452381D01*
X95000000Y-113690476D01*
X95000000Y-114404762D01*
X95119047Y-114642857D01*
X95238095Y-114761905D01*
X95476190Y-114880952D01*
X95833333Y-114880952D01*
X93571428Y-114880952D02*
X93809523Y-114761905D01*
X93928571Y-114523810D01*
X93928571Y-112380952D01*
X92261904Y-114880952D02*
X92499999Y-114761905D01*
X92619047Y-114523810D01*
X92619047Y-112380952D01*
X90357142Y-114761905D02*
X90595237Y-114880952D01*
X91071428Y-114880952D01*
X91309523Y-114761905D01*
X91428571Y-114523810D01*
X91428571Y-113571429D01*
X91309523Y-113333333D01*
X91071428Y-113214286D01*
X90595237Y-113214286D01*
X90357142Y-113333333D01*
X90238094Y-113571429D01*
X90238094Y-113809524D01*
X91428571Y-114047619D01*
X89166666Y-114880952D02*
X89166666Y-113214286D01*
X89166666Y-113690476D02*
X89047618Y-113452381D01*
X88928571Y-113333333D01*
X88690475Y-113214286D01*
X88452380Y-113214286D01*
D12*
X119702382Y-107428571D02*
X119702382Y-112428571D01*
X119702382Y-107666667D02*
X119226191Y-107428571D01*
X118273810Y-107428571D01*
X117797620Y-107666667D01*
X117559525Y-107904762D01*
X117321429Y-108380952D01*
X117321429Y-109809524D01*
X117559525Y-110285714D01*
X117797620Y-110523810D01*
X118273810Y-110761905D01*
X119226191Y-110761905D01*
X119702382Y-110523810D01*
X113035715Y-110761905D02*
X113035715Y-108142857D01*
X113273810Y-107666667D01*
X113750000Y-107428571D01*
X114702381Y-107428571D01*
X115178572Y-107666667D01*
X113035715Y-110523810D02*
X113511905Y-110761905D01*
X114702381Y-110761905D01*
X115178572Y-110523810D01*
X115416667Y-110047619D01*
X115416667Y-109571429D01*
X115178572Y-109095238D01*
X114702381Y-108857143D01*
X113511905Y-108857143D01*
X113035715Y-108619048D01*
X110654762Y-110761905D02*
X110654762Y-107428571D01*
X110654762Y-108380952D02*
X110416667Y-107904762D01*
X110178571Y-107666667D01*
X109702381Y-107428571D01*
X109226190Y-107428571D01*
X108273810Y-107428571D02*
X106369048Y-107428571D01*
X107559524Y-105761905D02*
X107559524Y-110047619D01*
X107321429Y-110523810D01*
X106845238Y-110761905D01*
X106369048Y-110761905D01*
X105178571Y-107428571D02*
X103988095Y-110761905D01*
X102797619Y-107428571D02*
X103988095Y-110761905D01*
X104464286Y-111952381D01*
X104702381Y-112190476D01*
X105178571Y-112428571D01*
X94940476Y-110523810D02*
X95416666Y-110761905D01*
X96369047Y-110761905D01*
X96845238Y-110523810D01*
X97083333Y-110285714D01*
X97321428Y-109809524D01*
X97321428Y-108380952D01*
X97083333Y-107904762D01*
X96845238Y-107666667D01*
X96369047Y-107428571D01*
X95416666Y-107428571D01*
X94940476Y-107666667D01*
X90654762Y-110761905D02*
X90654762Y-108142857D01*
X90892857Y-107666667D01*
X91369047Y-107428571D01*
X92321428Y-107428571D01*
X92797619Y-107666667D01*
X90654762Y-110523810D02*
X91130952Y-110761905D01*
X92321428Y-110761905D01*
X92797619Y-110523810D01*
X93035714Y-110047619D01*
X93035714Y-109571429D01*
X92797619Y-109095238D01*
X92321428Y-108857143D01*
X91130952Y-108857143D01*
X90654762Y-108619048D01*
X88988095Y-107428571D02*
X87083333Y-107428571D01*
X88273809Y-105761905D02*
X88273809Y-110047619D01*
X88035714Y-110523810D01*
X87559523Y-110761905D01*
X87083333Y-110761905D01*
D11*
X134550000Y-115600000D02*
X134550000Y-116133333D01*
X134816667Y-115866666D02*
X134283333Y-115866666D01*
X134116667Y-116800000D02*
X134116667Y-116466667D01*
X134450000Y-116433333D01*
X134416667Y-116466667D01*
X134383333Y-116533333D01*
X134383333Y-116700000D01*
X134416667Y-116766667D01*
X134450000Y-116800000D01*
X134516667Y-116833333D01*
X134683333Y-116833333D01*
X134750000Y-116800000D01*
X134783333Y-116766667D01*
X134816667Y-116700000D01*
X134816667Y-116533333D01*
X134783333Y-116466667D01*
X134750000Y-116433333D01*
X134116667Y-117033334D02*
X134816667Y-117266667D01*
X134116667Y-117500000D01*
X134150000Y-120966667D02*
X134116667Y-120900001D01*
X134116667Y-120800001D01*
X134150000Y-120700001D01*
X134216667Y-120633334D01*
X134283333Y-120600001D01*
X134416667Y-120566667D01*
X134516667Y-120566667D01*
X134650000Y-120600001D01*
X134716667Y-120633334D01*
X134783333Y-120700001D01*
X134816667Y-120800001D01*
X134816667Y-120866667D01*
X134783333Y-120966667D01*
X134750000Y-121000001D01*
X134516667Y-121000001D01*
X134516667Y-120866667D01*
X134816667Y-121300001D02*
X134116667Y-121300001D01*
X134816667Y-121700001D01*
X134116667Y-121700001D01*
X134816667Y-122033334D02*
X134116667Y-122033334D01*
X134116667Y-122200000D01*
X134150000Y-122300000D01*
X134216667Y-122366667D01*
X134283333Y-122400000D01*
X134416667Y-122433334D01*
X134516667Y-122433334D01*
X134650000Y-122400000D01*
X134716667Y-122366667D01*
X134783333Y-122300000D01*
X134816667Y-122200000D01*
X134816667Y-122033334D01*
X134150000Y-88966667D02*
X134116667Y-88900001D01*
X134116667Y-88800001D01*
X134150000Y-88700001D01*
X134216667Y-88633334D01*
X134283333Y-88600001D01*
X134416667Y-88566667D01*
X134516667Y-88566667D01*
X134650000Y-88600001D01*
X134716667Y-88633334D01*
X134783333Y-88700001D01*
X134816667Y-88800001D01*
X134816667Y-88866667D01*
X134783333Y-88966667D01*
X134750000Y-89000001D01*
X134516667Y-89000001D01*
X134516667Y-88866667D01*
X134816667Y-89300001D02*
X134116667Y-89300001D01*
X134816667Y-89700001D01*
X134116667Y-89700001D01*
X134816667Y-90033334D02*
X134116667Y-90033334D01*
X134116667Y-90200000D01*
X134150000Y-90300000D01*
X134216667Y-90366667D01*
X134283333Y-90400000D01*
X134416667Y-90433334D01*
X134516667Y-90433334D01*
X134650000Y-90400000D01*
X134716667Y-90366667D01*
X134783333Y-90300000D01*
X134816667Y-90200000D01*
X134816667Y-90033334D01*
X134550000Y-83600000D02*
X134550000Y-84133333D01*
X134816667Y-83866666D02*
X134283333Y-83866666D01*
X134116667Y-84800000D02*
X134116667Y-84466667D01*
X134450000Y-84433333D01*
X134416667Y-84466667D01*
X134383333Y-84533333D01*
X134383333Y-84700000D01*
X134416667Y-84766667D01*
X134450000Y-84800000D01*
X134516667Y-84833333D01*
X134683333Y-84833333D01*
X134750000Y-84800000D01*
X134783333Y-84766667D01*
X134816667Y-84700000D01*
X134816667Y-84533333D01*
X134783333Y-84466667D01*
X134750000Y-84433333D01*
X134116667Y-85033334D02*
X134816667Y-85266667D01*
X134116667Y-85500000D01*
D12*
X119702382Y-75428571D02*
X119702382Y-80428571D01*
X119702382Y-75666667D02*
X119226191Y-75428571D01*
X118273810Y-75428571D01*
X117797620Y-75666667D01*
X117559525Y-75904762D01*
X117321429Y-76380952D01*
X117321429Y-77809524D01*
X117559525Y-78285714D01*
X117797620Y-78523810D01*
X118273810Y-78761905D01*
X119226191Y-78761905D01*
X119702382Y-78523810D01*
X113035715Y-78761905D02*
X113035715Y-76142857D01*
X113273810Y-75666667D01*
X113750000Y-75428571D01*
X114702381Y-75428571D01*
X115178572Y-75666667D01*
X113035715Y-78523810D02*
X113511905Y-78761905D01*
X114702381Y-78761905D01*
X115178572Y-78523810D01*
X115416667Y-78047619D01*
X115416667Y-77571429D01*
X115178572Y-77095238D01*
X114702381Y-76857143D01*
X113511905Y-76857143D01*
X113035715Y-76619048D01*
X110654762Y-78761905D02*
X110654762Y-75428571D01*
X110654762Y-76380952D02*
X110416667Y-75904762D01*
X110178571Y-75666667D01*
X109702381Y-75428571D01*
X109226190Y-75428571D01*
X108273810Y-75428571D02*
X106369048Y-75428571D01*
X107559524Y-73761905D02*
X107559524Y-78047619D01*
X107321429Y-78523810D01*
X106845238Y-78761905D01*
X106369048Y-78761905D01*
X105178571Y-75428571D02*
X103988095Y-78761905D01*
X102797619Y-75428571D02*
X103988095Y-78761905D01*
X104464286Y-79952381D01*
X104702381Y-80190476D01*
X105178571Y-80428571D01*
X94940476Y-78523810D02*
X95416666Y-78761905D01*
X96369047Y-78761905D01*
X96845238Y-78523810D01*
X97083333Y-78285714D01*
X97321428Y-77809524D01*
X97321428Y-76380952D01*
X97083333Y-75904762D01*
X96845238Y-75666667D01*
X96369047Y-75428571D01*
X95416666Y-75428571D01*
X94940476Y-75666667D01*
X90654762Y-78761905D02*
X90654762Y-76142857D01*
X90892857Y-75666667D01*
X91369047Y-75428571D01*
X92321428Y-75428571D01*
X92797619Y-75666667D01*
X90654762Y-78523810D02*
X91130952Y-78761905D01*
X92321428Y-78761905D01*
X92797619Y-78523810D01*
X93035714Y-78047619D01*
X93035714Y-77571429D01*
X92797619Y-77095238D01*
X92321428Y-76857143D01*
X91130952Y-76857143D01*
X90654762Y-76619048D01*
X88988095Y-75428571D02*
X87083333Y-75428571D01*
X88273809Y-73761905D02*
X88273809Y-78047619D01*
X88035714Y-78523810D01*
X87559523Y-78761905D01*
X87083333Y-78761905D01*
D13*
X115833333Y-82880952D02*
X116071428Y-82761905D01*
X116190476Y-82523810D01*
X116190476Y-80380952D01*
X114880952Y-82880952D02*
X114880952Y-81214286D01*
X114880952Y-80380952D02*
X115000000Y-80500000D01*
X114880952Y-80619048D01*
X114761904Y-80500000D01*
X114880952Y-80380952D01*
X114880952Y-80619048D01*
X112619047Y-81214286D02*
X112619047Y-83238095D01*
X112738095Y-83476190D01*
X112857143Y-83595238D01*
X113095238Y-83714286D01*
X113452381Y-83714286D01*
X113690476Y-83595238D01*
X112619047Y-82761905D02*
X112857143Y-82880952D01*
X113333333Y-82880952D01*
X113571428Y-82761905D01*
X113690476Y-82642857D01*
X113809524Y-82404762D01*
X113809524Y-81690476D01*
X113690476Y-81452381D01*
X113571428Y-81333333D01*
X113333333Y-81214286D01*
X112857143Y-81214286D01*
X112619047Y-81333333D01*
X111428571Y-82880952D02*
X111428571Y-80380952D01*
X110357142Y-82880952D02*
X110357142Y-81571429D01*
X110476190Y-81333333D01*
X110714285Y-81214286D01*
X111071428Y-81214286D01*
X111309523Y-81333333D01*
X111428571Y-81452381D01*
X109523809Y-81214286D02*
X108571428Y-81214286D01*
X109166666Y-80380952D02*
X109166666Y-82523810D01*
X109047618Y-82761905D01*
X108809523Y-82880952D01*
X108571428Y-82880952D01*
X104761904Y-82761905D02*
X105000000Y-82880952D01*
X105476190Y-82880952D01*
X105714285Y-82761905D01*
X105833333Y-82642857D01*
X105952381Y-82404762D01*
X105952381Y-81690476D01*
X105833333Y-81452381D01*
X105714285Y-81333333D01*
X105476190Y-81214286D01*
X105000000Y-81214286D01*
X104761904Y-81333333D01*
X103333333Y-82880952D02*
X103571428Y-82761905D01*
X103690476Y-82642857D01*
X103809524Y-82404762D01*
X103809524Y-81690476D01*
X103690476Y-81452381D01*
X103571428Y-81333333D01*
X103333333Y-81214286D01*
X102976190Y-81214286D01*
X102738095Y-81333333D01*
X102619047Y-81452381D01*
X102500000Y-81690476D01*
X102500000Y-82404762D01*
X102619047Y-82642857D01*
X102738095Y-82761905D01*
X102976190Y-82880952D01*
X103333333Y-82880952D01*
X101428571Y-81214286D02*
X101428571Y-82880952D01*
X101428571Y-81452381D02*
X101309523Y-81333333D01*
X101071428Y-81214286D01*
X100714285Y-81214286D01*
X100476190Y-81333333D01*
X100357142Y-81571429D01*
X100357142Y-82880952D01*
X99523809Y-81214286D02*
X98571428Y-81214286D01*
X99166666Y-80380952D02*
X99166666Y-82523810D01*
X99047618Y-82761905D01*
X98809523Y-82880952D01*
X98571428Y-82880952D01*
X97738095Y-82880952D02*
X97738095Y-81214286D01*
X97738095Y-81690476D02*
X97619047Y-81452381D01*
X97500000Y-81333333D01*
X97261904Y-81214286D01*
X97023809Y-81214286D01*
X95833333Y-82880952D02*
X96071428Y-82761905D01*
X96190476Y-82642857D01*
X96309524Y-82404762D01*
X96309524Y-81690476D01*
X96190476Y-81452381D01*
X96071428Y-81333333D01*
X95833333Y-81214286D01*
X95476190Y-81214286D01*
X95238095Y-81333333D01*
X95119047Y-81452381D01*
X95000000Y-81690476D01*
X95000000Y-82404762D01*
X95119047Y-82642857D01*
X95238095Y-82761905D01*
X95476190Y-82880952D01*
X95833333Y-82880952D01*
X93571428Y-82880952D02*
X93809523Y-82761905D01*
X93928571Y-82523810D01*
X93928571Y-80380952D01*
X92261904Y-82880952D02*
X92499999Y-82761905D01*
X92619047Y-82523810D01*
X92619047Y-80380952D01*
X90357142Y-82761905D02*
X90595237Y-82880952D01*
X91071428Y-82880952D01*
X91309523Y-82761905D01*
X91428571Y-82523810D01*
X91428571Y-81571429D01*
X91309523Y-81333333D01*
X91071428Y-81214286D01*
X90595237Y-81214286D01*
X90357142Y-81333333D01*
X90238094Y-81571429D01*
X90238094Y-81809524D01*
X91428571Y-82047619D01*
X89166666Y-82880952D02*
X89166666Y-81214286D01*
X89166666Y-81690476D02*
X89047618Y-81452381D01*
X88928571Y-81333333D01*
X88690475Y-81214286D01*
X88452380Y-81214286D01*
D14*
X115690477Y-85952381D02*
X116166668Y-85952381D01*
X116166668Y-84952381D01*
X115357144Y-84952381D02*
X115357144Y-85761905D01*
X115309525Y-85857143D01*
X115261906Y-85904762D01*
X115166668Y-85952381D01*
X114976191Y-85952381D01*
X114880953Y-85904762D01*
X114833334Y-85857143D01*
X114785715Y-85761905D01*
X114785715Y-84952381D01*
X114309525Y-85952381D02*
X114309525Y-84952381D01*
X113738096Y-85952381D02*
X114166668Y-85380952D01*
X113738096Y-84952381D02*
X114309525Y-85523810D01*
X113309525Y-85428571D02*
X112976191Y-85428571D01*
X112833334Y-85952381D02*
X113309525Y-85952381D01*
X113309525Y-84952381D01*
X112833334Y-84952381D01*
X111071429Y-85857143D02*
X111119048Y-85904762D01*
X111261905Y-85952381D01*
X111357143Y-85952381D01*
X111500001Y-85904762D01*
X111595239Y-85809524D01*
X111642858Y-85714286D01*
X111690477Y-85523810D01*
X111690477Y-85380952D01*
X111642858Y-85190476D01*
X111595239Y-85095238D01*
X111500001Y-85000000D01*
X111357143Y-84952381D01*
X111261905Y-84952381D01*
X111119048Y-85000000D01*
X111071429Y-85047619D01*
X110452382Y-85476190D02*
X110452382Y-85952381D01*
X110785715Y-84952381D02*
X110452382Y-85476190D01*
X110119048Y-84952381D01*
X109214286Y-85857143D02*
X109261905Y-85904762D01*
X109404762Y-85952381D01*
X109500000Y-85952381D01*
X109642858Y-85904762D01*
X109738096Y-85809524D01*
X109785715Y-85714286D01*
X109833334Y-85523810D01*
X109833334Y-85380952D01*
X109785715Y-85190476D01*
X109738096Y-85095238D01*
X109642858Y-85000000D01*
X109500000Y-84952381D01*
X109404762Y-84952381D01*
X109261905Y-85000000D01*
X109214286Y-85047619D01*
X108833334Y-85666667D02*
X108357143Y-85666667D01*
X108928572Y-85952381D02*
X108595239Y-84952381D01*
X108261905Y-85952381D01*
X106880952Y-85476190D02*
X106880952Y-85666667D01*
X106833333Y-85666667D02*
X106833333Y-85476190D01*
X106785714Y-85428571D02*
X106785714Y-85714286D01*
X106738095Y-85666667D02*
X106738095Y-85476190D01*
X106690476Y-85476190D02*
X106690476Y-85666667D01*
X106880952Y-85619048D02*
X106785714Y-85714286D01*
X106690476Y-85619048D01*
X106880952Y-85523810D02*
X106785714Y-85428571D01*
X106690476Y-85523810D01*
X106880952Y-85476190D02*
X106785714Y-85428571D01*
X106690476Y-85476190D01*
X106642857Y-85571429D01*
X106690476Y-85666667D01*
X106785714Y-85714286D01*
X106880952Y-85666667D01*
X106928572Y-85571429D01*
X106880952Y-85476190D01*
X105214286Y-85047619D02*
X105166667Y-85000000D01*
X105071429Y-84952381D01*
X104833333Y-84952381D01*
X104738095Y-85000000D01*
X104690476Y-85047619D01*
X104642857Y-85142857D01*
X104642857Y-85238095D01*
X104690476Y-85380952D01*
X105261905Y-85952381D01*
X104642857Y-85952381D01*
X104023810Y-84952381D02*
X103928571Y-84952381D01*
X103833333Y-85000000D01*
X103785714Y-85047619D01*
X103738095Y-85142857D01*
X103690476Y-85333333D01*
X103690476Y-85571429D01*
X103738095Y-85761905D01*
X103785714Y-85857143D01*
X103833333Y-85904762D01*
X103928571Y-85952381D01*
X104023810Y-85952381D01*
X104119048Y-85904762D01*
X104166667Y-85857143D01*
X104214286Y-85761905D01*
X104261905Y-85571429D01*
X104261905Y-85333333D01*
X104214286Y-85142857D01*
X104166667Y-85047619D01*
X104119048Y-85000000D01*
X104023810Y-84952381D01*
X102738095Y-85952381D02*
X103309524Y-85952381D01*
X103023810Y-85952381D02*
X103023810Y-84952381D01*
X103119048Y-85095238D01*
X103214286Y-85190476D01*
X103309524Y-85238095D01*
X101880952Y-84952381D02*
X102071429Y-84952381D01*
X102166667Y-85000000D01*
X102214286Y-85047619D01*
X102309524Y-85190476D01*
X102357143Y-85380952D01*
X102357143Y-85761905D01*
X102309524Y-85857143D01*
X102261905Y-85904762D01*
X102166667Y-85952381D01*
X101976190Y-85952381D01*
X101880952Y-85904762D01*
X101833333Y-85857143D01*
X101785714Y-85761905D01*
X101785714Y-85523810D01*
X101833333Y-85428571D01*
X101880952Y-85380952D01*
X101976190Y-85333333D01*
X102166667Y-85333333D01*
X102261905Y-85380952D01*
X102309524Y-85428571D01*
X102357143Y-85523810D01*
X101357143Y-85571429D02*
X100595238Y-85571429D01*
X99595238Y-85952381D02*
X100166667Y-85952381D01*
X99880953Y-85952381D02*
X99880953Y-84952381D01*
X99976191Y-85095238D01*
X100071429Y-85190476D01*
X100166667Y-85238095D01*
X98642857Y-85952381D02*
X99214286Y-85952381D01*
X98928572Y-85952381D02*
X98928572Y-84952381D01*
X99023810Y-85095238D01*
X99119048Y-85190476D01*
X99214286Y-85238095D01*
X98214286Y-85571429D02*
X97452381Y-85571429D01*
X97023810Y-85047619D02*
X96976191Y-85000000D01*
X96880953Y-84952381D01*
X96642857Y-84952381D01*
X96547619Y-85000000D01*
X96500000Y-85047619D01*
X96452381Y-85142857D01*
X96452381Y-85238095D01*
X96500000Y-85380952D01*
X97071429Y-85952381D01*
X96452381Y-85952381D01*
X95595238Y-84952381D02*
X95785715Y-84952381D01*
X95880953Y-85000000D01*
X95928572Y-85047619D01*
X96023810Y-85190476D01*
X96071429Y-85380952D01*
X96071429Y-85761905D01*
X96023810Y-85857143D01*
X95976191Y-85904762D01*
X95880953Y-85952381D01*
X95690476Y-85952381D01*
X95595238Y-85904762D01*
X95547619Y-85857143D01*
X95500000Y-85761905D01*
X95500000Y-85523810D01*
X95547619Y-85428571D01*
X95595238Y-85380952D01*
X95690476Y-85333333D01*
X95880953Y-85333333D01*
X95976191Y-85380952D01*
X96023810Y-85428571D01*
X96071429Y-85523810D01*
X94023809Y-85476190D02*
X94023809Y-85666667D01*
X93976190Y-85666667D02*
X93976190Y-85476190D01*
X93928571Y-85428571D02*
X93928571Y-85714286D01*
X93880952Y-85666667D02*
X93880952Y-85476190D01*
X93833333Y-85476190D02*
X93833333Y-85666667D01*
X94023809Y-85619048D02*
X93928571Y-85714286D01*
X93833333Y-85619048D01*
X94023809Y-85523810D02*
X93928571Y-85428571D01*
X93833333Y-85523810D01*
X94023809Y-85476190D02*
X93928571Y-85428571D01*
X93833333Y-85476190D01*
X93785714Y-85571429D01*
X93833333Y-85666667D01*
X93928571Y-85714286D01*
X94023809Y-85666667D01*
X94071429Y-85571429D01*
X94023809Y-85476190D01*
X92309524Y-85952381D02*
X92309524Y-85285714D01*
X92309524Y-85476190D02*
X92261905Y-85380952D01*
X92214286Y-85333333D01*
X92119048Y-85285714D01*
X92023809Y-85285714D01*
X91309523Y-85904762D02*
X91404761Y-85952381D01*
X91595238Y-85952381D01*
X91690476Y-85904762D01*
X91738095Y-85809524D01*
X91738095Y-85428571D01*
X91690476Y-85333333D01*
X91595238Y-85285714D01*
X91404761Y-85285714D01*
X91309523Y-85333333D01*
X91261904Y-85428571D01*
X91261904Y-85523810D01*
X91738095Y-85619048D01*
X90928571Y-85285714D02*
X90690476Y-85952381D01*
X90452380Y-85285714D01*
X89404761Y-84952381D02*
X88785713Y-84952381D01*
X89119047Y-85333333D01*
X88976189Y-85333333D01*
X88880951Y-85380952D01*
X88833332Y-85428571D01*
X88785713Y-85523810D01*
X88785713Y-85761905D01*
X88833332Y-85857143D01*
X88880951Y-85904762D01*
X88976189Y-85952381D01*
X89261904Y-85952381D01*
X89357142Y-85904762D01*
X89404761Y-85857143D01*
X115690477Y-53952381D02*
X116166668Y-53952381D01*
X116166668Y-52952381D01*
X115357144Y-52952381D02*
X115357144Y-53761905D01*
X115309525Y-53857143D01*
X115261906Y-53904762D01*
X115166668Y-53952381D01*
X114976191Y-53952381D01*
X114880953Y-53904762D01*
X114833334Y-53857143D01*
X114785715Y-53761905D01*
X114785715Y-52952381D01*
X114309525Y-53952381D02*
X114309525Y-52952381D01*
X113738096Y-53952381D02*
X114166668Y-53380952D01*
X113738096Y-52952381D02*
X114309525Y-53523810D01*
X113309525Y-53428571D02*
X112976191Y-53428571D01*
X112833334Y-53952381D02*
X113309525Y-53952381D01*
X113309525Y-52952381D01*
X112833334Y-52952381D01*
X111071429Y-53857143D02*
X111119048Y-53904762D01*
X111261905Y-53952381D01*
X111357143Y-53952381D01*
X111500001Y-53904762D01*
X111595239Y-53809524D01*
X111642858Y-53714286D01*
X111690477Y-53523810D01*
X111690477Y-53380952D01*
X111642858Y-53190476D01*
X111595239Y-53095238D01*
X111500001Y-53000000D01*
X111357143Y-52952381D01*
X111261905Y-52952381D01*
X111119048Y-53000000D01*
X111071429Y-53047619D01*
X110452382Y-53476190D02*
X110452382Y-53952381D01*
X110785715Y-52952381D02*
X110452382Y-53476190D01*
X110119048Y-52952381D01*
X109214286Y-53857143D02*
X109261905Y-53904762D01*
X109404762Y-53952381D01*
X109500000Y-53952381D01*
X109642858Y-53904762D01*
X109738096Y-53809524D01*
X109785715Y-53714286D01*
X109833334Y-53523810D01*
X109833334Y-53380952D01*
X109785715Y-53190476D01*
X109738096Y-53095238D01*
X109642858Y-53000000D01*
X109500000Y-52952381D01*
X109404762Y-52952381D01*
X109261905Y-53000000D01*
X109214286Y-53047619D01*
X108833334Y-53666667D02*
X108357143Y-53666667D01*
X108928572Y-53952381D02*
X108595239Y-52952381D01*
X108261905Y-53952381D01*
X106880952Y-53476190D02*
X106880952Y-53666667D01*
X106833333Y-53666667D02*
X106833333Y-53476190D01*
X106785714Y-53428571D02*
X106785714Y-53714286D01*
X106738095Y-53666667D02*
X106738095Y-53476190D01*
X106690476Y-53476190D02*
X106690476Y-53666667D01*
X106880952Y-53619048D02*
X106785714Y-53714286D01*
X106690476Y-53619048D01*
X106880952Y-53523810D02*
X106785714Y-53428571D01*
X106690476Y-53523810D01*
X106880952Y-53476190D02*
X106785714Y-53428571D01*
X106690476Y-53476190D01*
X106642857Y-53571429D01*
X106690476Y-53666667D01*
X106785714Y-53714286D01*
X106880952Y-53666667D01*
X106928572Y-53571429D01*
X106880952Y-53476190D01*
X105214286Y-53047619D02*
X105166667Y-53000000D01*
X105071429Y-52952381D01*
X104833333Y-52952381D01*
X104738095Y-53000000D01*
X104690476Y-53047619D01*
X104642857Y-53142857D01*
X104642857Y-53238095D01*
X104690476Y-53380952D01*
X105261905Y-53952381D01*
X104642857Y-53952381D01*
X104023810Y-52952381D02*
X103928571Y-52952381D01*
X103833333Y-53000000D01*
X103785714Y-53047619D01*
X103738095Y-53142857D01*
X103690476Y-53333333D01*
X103690476Y-53571429D01*
X103738095Y-53761905D01*
X103785714Y-53857143D01*
X103833333Y-53904762D01*
X103928571Y-53952381D01*
X104023810Y-53952381D01*
X104119048Y-53904762D01*
X104166667Y-53857143D01*
X104214286Y-53761905D01*
X104261905Y-53571429D01*
X104261905Y-53333333D01*
X104214286Y-53142857D01*
X104166667Y-53047619D01*
X104119048Y-53000000D01*
X104023810Y-52952381D01*
X102738095Y-53952381D02*
X103309524Y-53952381D01*
X103023810Y-53952381D02*
X103023810Y-52952381D01*
X103119048Y-53095238D01*
X103214286Y-53190476D01*
X103309524Y-53238095D01*
X101880952Y-52952381D02*
X102071429Y-52952381D01*
X102166667Y-53000000D01*
X102214286Y-53047619D01*
X102309524Y-53190476D01*
X102357143Y-53380952D01*
X102357143Y-53761905D01*
X102309524Y-53857143D01*
X102261905Y-53904762D01*
X102166667Y-53952381D01*
X101976190Y-53952381D01*
X101880952Y-53904762D01*
X101833333Y-53857143D01*
X101785714Y-53761905D01*
X101785714Y-53523810D01*
X101833333Y-53428571D01*
X101880952Y-53380952D01*
X101976190Y-53333333D01*
X102166667Y-53333333D01*
X102261905Y-53380952D01*
X102309524Y-53428571D01*
X102357143Y-53523810D01*
X101357143Y-53571429D02*
X100595238Y-53571429D01*
X99595238Y-53952381D02*
X100166667Y-53952381D01*
X99880953Y-53952381D02*
X99880953Y-52952381D01*
X99976191Y-53095238D01*
X100071429Y-53190476D01*
X100166667Y-53238095D01*
X98642857Y-53952381D02*
X99214286Y-53952381D01*
X98928572Y-53952381D02*
X98928572Y-52952381D01*
X99023810Y-53095238D01*
X99119048Y-53190476D01*
X99214286Y-53238095D01*
X98214286Y-53571429D02*
X97452381Y-53571429D01*
X97023810Y-53047619D02*
X96976191Y-53000000D01*
X96880953Y-52952381D01*
X96642857Y-52952381D01*
X96547619Y-53000000D01*
X96500000Y-53047619D01*
X96452381Y-53142857D01*
X96452381Y-53238095D01*
X96500000Y-53380952D01*
X97071429Y-53952381D01*
X96452381Y-53952381D01*
X95595238Y-52952381D02*
X95785715Y-52952381D01*
X95880953Y-53000000D01*
X95928572Y-53047619D01*
X96023810Y-53190476D01*
X96071429Y-53380952D01*
X96071429Y-53761905D01*
X96023810Y-53857143D01*
X95976191Y-53904762D01*
X95880953Y-53952381D01*
X95690476Y-53952381D01*
X95595238Y-53904762D01*
X95547619Y-53857143D01*
X95500000Y-53761905D01*
X95500000Y-53523810D01*
X95547619Y-53428571D01*
X95595238Y-53380952D01*
X95690476Y-53333333D01*
X95880953Y-53333333D01*
X95976191Y-53380952D01*
X96023810Y-53428571D01*
X96071429Y-53523810D01*
X94023809Y-53476190D02*
X94023809Y-53666667D01*
X93976190Y-53666667D02*
X93976190Y-53476190D01*
X93928571Y-53428571D02*
X93928571Y-53714286D01*
X93880952Y-53666667D02*
X93880952Y-53476190D01*
X93833333Y-53476190D02*
X93833333Y-53666667D01*
X94023809Y-53619048D02*
X93928571Y-53714286D01*
X93833333Y-53619048D01*
X94023809Y-53523810D02*
X93928571Y-53428571D01*
X93833333Y-53523810D01*
X94023809Y-53476190D02*
X93928571Y-53428571D01*
X93833333Y-53476190D01*
X93785714Y-53571429D01*
X93833333Y-53666667D01*
X93928571Y-53714286D01*
X94023809Y-53666667D01*
X94071429Y-53571429D01*
X94023809Y-53476190D01*
X92309524Y-53952381D02*
X92309524Y-53285714D01*
X92309524Y-53476190D02*
X92261905Y-53380952D01*
X92214286Y-53333333D01*
X92119048Y-53285714D01*
X92023809Y-53285714D01*
X91309523Y-53904762D02*
X91404761Y-53952381D01*
X91595238Y-53952381D01*
X91690476Y-53904762D01*
X91738095Y-53809524D01*
X91738095Y-53428571D01*
X91690476Y-53333333D01*
X91595238Y-53285714D01*
X91404761Y-53285714D01*
X91309523Y-53333333D01*
X91261904Y-53428571D01*
X91261904Y-53523810D01*
X91738095Y-53619048D01*
X90928571Y-53285714D02*
X90690476Y-53952381D01*
X90452380Y-53285714D01*
X89404761Y-52952381D02*
X88785713Y-52952381D01*
X89119047Y-53333333D01*
X88976189Y-53333333D01*
X88880951Y-53380952D01*
X88833332Y-53428571D01*
X88785713Y-53523810D01*
X88785713Y-53761905D01*
X88833332Y-53857143D01*
X88880951Y-53904762D01*
X88976189Y-53952381D01*
X89261904Y-53952381D01*
X89357142Y-53904762D01*
X89404761Y-53857143D01*
D13*
X115833333Y-50880952D02*
X116071428Y-50761905D01*
X116190476Y-50523810D01*
X116190476Y-48380952D01*
X114880952Y-50880952D02*
X114880952Y-49214286D01*
X114880952Y-48380952D02*
X115000000Y-48500000D01*
X114880952Y-48619048D01*
X114761904Y-48500000D01*
X114880952Y-48380952D01*
X114880952Y-48619048D01*
X112619047Y-49214286D02*
X112619047Y-51238095D01*
X112738095Y-51476190D01*
X112857143Y-51595238D01*
X113095238Y-51714286D01*
X113452381Y-51714286D01*
X113690476Y-51595238D01*
X112619047Y-50761905D02*
X112857143Y-50880952D01*
X113333333Y-50880952D01*
X113571428Y-50761905D01*
X113690476Y-50642857D01*
X113809524Y-50404762D01*
X113809524Y-49690476D01*
X113690476Y-49452381D01*
X113571428Y-49333333D01*
X113333333Y-49214286D01*
X112857143Y-49214286D01*
X112619047Y-49333333D01*
X111428571Y-50880952D02*
X111428571Y-48380952D01*
X110357142Y-50880952D02*
X110357142Y-49571429D01*
X110476190Y-49333333D01*
X110714285Y-49214286D01*
X111071428Y-49214286D01*
X111309523Y-49333333D01*
X111428571Y-49452381D01*
X109523809Y-49214286D02*
X108571428Y-49214286D01*
X109166666Y-48380952D02*
X109166666Y-50523810D01*
X109047618Y-50761905D01*
X108809523Y-50880952D01*
X108571428Y-50880952D01*
X104761904Y-50761905D02*
X105000000Y-50880952D01*
X105476190Y-50880952D01*
X105714285Y-50761905D01*
X105833333Y-50642857D01*
X105952381Y-50404762D01*
X105952381Y-49690476D01*
X105833333Y-49452381D01*
X105714285Y-49333333D01*
X105476190Y-49214286D01*
X105000000Y-49214286D01*
X104761904Y-49333333D01*
X103333333Y-50880952D02*
X103571428Y-50761905D01*
X103690476Y-50642857D01*
X103809524Y-50404762D01*
X103809524Y-49690476D01*
X103690476Y-49452381D01*
X103571428Y-49333333D01*
X103333333Y-49214286D01*
X102976190Y-49214286D01*
X102738095Y-49333333D01*
X102619047Y-49452381D01*
X102500000Y-49690476D01*
X102500000Y-50404762D01*
X102619047Y-50642857D01*
X102738095Y-50761905D01*
X102976190Y-50880952D01*
X103333333Y-50880952D01*
X101428571Y-49214286D02*
X101428571Y-50880952D01*
X101428571Y-49452381D02*
X101309523Y-49333333D01*
X101071428Y-49214286D01*
X100714285Y-49214286D01*
X100476190Y-49333333D01*
X100357142Y-49571429D01*
X100357142Y-50880952D01*
X99523809Y-49214286D02*
X98571428Y-49214286D01*
X99166666Y-48380952D02*
X99166666Y-50523810D01*
X99047618Y-50761905D01*
X98809523Y-50880952D01*
X98571428Y-50880952D01*
X97738095Y-50880952D02*
X97738095Y-49214286D01*
X97738095Y-49690476D02*
X97619047Y-49452381D01*
X97500000Y-49333333D01*
X97261904Y-49214286D01*
X97023809Y-49214286D01*
X95833333Y-50880952D02*
X96071428Y-50761905D01*
X96190476Y-50642857D01*
X96309524Y-50404762D01*
X96309524Y-49690476D01*
X96190476Y-49452381D01*
X96071428Y-49333333D01*
X95833333Y-49214286D01*
X95476190Y-49214286D01*
X95238095Y-49333333D01*
X95119047Y-49452381D01*
X95000000Y-49690476D01*
X95000000Y-50404762D01*
X95119047Y-50642857D01*
X95238095Y-50761905D01*
X95476190Y-50880952D01*
X95833333Y-50880952D01*
X93571428Y-50880952D02*
X93809523Y-50761905D01*
X93928571Y-50523810D01*
X93928571Y-48380952D01*
X92261904Y-50880952D02*
X92499999Y-50761905D01*
X92619047Y-50523810D01*
X92619047Y-48380952D01*
X90357142Y-50761905D02*
X90595237Y-50880952D01*
X91071428Y-50880952D01*
X91309523Y-50761905D01*
X91428571Y-50523810D01*
X91428571Y-49571429D01*
X91309523Y-49333333D01*
X91071428Y-49214286D01*
X90595237Y-49214286D01*
X90357142Y-49333333D01*
X90238094Y-49571429D01*
X90238094Y-49809524D01*
X91428571Y-50047619D01*
X89166666Y-50880952D02*
X89166666Y-49214286D01*
X89166666Y-49690476D02*
X89047618Y-49452381D01*
X88928571Y-49333333D01*
X88690475Y-49214286D01*
X88452380Y-49214286D01*
D12*
X119702382Y-43428571D02*
X119702382Y-48428571D01*
X119702382Y-43666667D02*
X119226191Y-43428571D01*
X118273810Y-43428571D01*
X117797620Y-43666667D01*
X117559525Y-43904762D01*
X117321429Y-44380952D01*
X117321429Y-45809524D01*
X117559525Y-46285714D01*
X117797620Y-46523810D01*
X118273810Y-46761905D01*
X119226191Y-46761905D01*
X119702382Y-46523810D01*
X113035715Y-46761905D02*
X113035715Y-44142857D01*
X113273810Y-43666667D01*
X113750000Y-43428571D01*
X114702381Y-43428571D01*
X115178572Y-43666667D01*
X113035715Y-46523810D02*
X113511905Y-46761905D01*
X114702381Y-46761905D01*
X115178572Y-46523810D01*
X115416667Y-46047619D01*
X115416667Y-45571429D01*
X115178572Y-45095238D01*
X114702381Y-44857143D01*
X113511905Y-44857143D01*
X113035715Y-44619048D01*
X110654762Y-46761905D02*
X110654762Y-43428571D01*
X110654762Y-44380952D02*
X110416667Y-43904762D01*
X110178571Y-43666667D01*
X109702381Y-43428571D01*
X109226190Y-43428571D01*
X108273810Y-43428571D02*
X106369048Y-43428571D01*
X107559524Y-41761905D02*
X107559524Y-46047619D01*
X107321429Y-46523810D01*
X106845238Y-46761905D01*
X106369048Y-46761905D01*
X105178571Y-43428571D02*
X103988095Y-46761905D01*
X102797619Y-43428571D02*
X103988095Y-46761905D01*
X104464286Y-47952381D01*
X104702381Y-48190476D01*
X105178571Y-48428571D01*
X94940476Y-46523810D02*
X95416666Y-46761905D01*
X96369047Y-46761905D01*
X96845238Y-46523810D01*
X97083333Y-46285714D01*
X97321428Y-45809524D01*
X97321428Y-44380952D01*
X97083333Y-43904762D01*
X96845238Y-43666667D01*
X96369047Y-43428571D01*
X95416666Y-43428571D01*
X94940476Y-43666667D01*
X90654762Y-46761905D02*
X90654762Y-44142857D01*
X90892857Y-43666667D01*
X91369047Y-43428571D01*
X92321428Y-43428571D01*
X92797619Y-43666667D01*
X90654762Y-46523810D02*
X91130952Y-46761905D01*
X92321428Y-46761905D01*
X92797619Y-46523810D01*
X93035714Y-46047619D01*
X93035714Y-45571429D01*
X92797619Y-45095238D01*
X92321428Y-44857143D01*
X91130952Y-44857143D01*
X90654762Y-44619048D01*
X88988095Y-43428571D02*
X87083333Y-43428571D01*
X88273809Y-41761905D02*
X88273809Y-46047619D01*
X88035714Y-46523810D01*
X87559523Y-46761905D01*
X87083333Y-46761905D01*
D11*
X134550000Y-51600000D02*
X134550000Y-52133333D01*
X134816667Y-51866666D02*
X134283333Y-51866666D01*
X134116667Y-52800000D02*
X134116667Y-52466667D01*
X134450000Y-52433333D01*
X134416667Y-52466667D01*
X134383333Y-52533333D01*
X134383333Y-52700000D01*
X134416667Y-52766667D01*
X134450000Y-52800000D01*
X134516667Y-52833333D01*
X134683333Y-52833333D01*
X134750000Y-52800000D01*
X134783333Y-52766667D01*
X134816667Y-52700000D01*
X134816667Y-52533333D01*
X134783333Y-52466667D01*
X134750000Y-52433333D01*
X134116667Y-53033334D02*
X134816667Y-53266667D01*
X134116667Y-53500000D01*
X134150000Y-56966667D02*
X134116667Y-56900001D01*
X134116667Y-56800001D01*
X134150000Y-56700001D01*
X134216667Y-56633334D01*
X134283333Y-56600001D01*
X134416667Y-56566667D01*
X134516667Y-56566667D01*
X134650000Y-56600001D01*
X134716667Y-56633334D01*
X134783333Y-56700001D01*
X134816667Y-56800001D01*
X134816667Y-56866667D01*
X134783333Y-56966667D01*
X134750000Y-57000001D01*
X134516667Y-57000001D01*
X134516667Y-56866667D01*
X134816667Y-57300001D02*
X134116667Y-57300001D01*
X134816667Y-57700001D01*
X134116667Y-57700001D01*
X134816667Y-58033334D02*
X134116667Y-58033334D01*
X134116667Y-58200000D01*
X134150000Y-58300000D01*
X134216667Y-58366667D01*
X134283333Y-58400000D01*
X134416667Y-58433334D01*
X134516667Y-58433334D01*
X134650000Y-58400000D01*
X134716667Y-58366667D01*
X134783333Y-58300000D01*
X134816667Y-58200000D01*
X134816667Y-58033334D01*
M02*
