G04 #@! TF.FileFunction,Copper,L2,Bot,Signal*
%FSLAX46Y46*%
G04 Gerber Fmt 4.6, Leading zero omitted, Abs format (unit mm)*
G04 Created by KiCad (PCBNEW 4.0.2-stable) date Saturday, November 26, 2016 'pmt' 01:20:35 pm*
%MOMM*%
G01*
G04 APERTURE LIST*
%ADD10C,0.100000*%
%ADD11R,2.032000X1.727200*%
%ADD12O,2.032000X1.727200*%
%ADD13C,1.397000*%
%ADD14O,1.501140X2.499360*%
%ADD15R,2.500000X2.500000*%
%ADD16C,2.500000*%
%ADD17O,1.700000X3.700000*%
%ADD18C,1.700000*%
%ADD19O,3.700000X1.700000*%
%ADD20R,1.727200X2.032000*%
%ADD21O,1.727200X2.032000*%
%ADD22O,2.499360X1.501140*%
%ADD23C,0.600000*%
%ADD24C,0.250000*%
%ADD25C,2.000000*%
%ADD26C,0.800000*%
%ADD27C,0.254000*%
G04 APERTURE END LIST*
D10*
D11*
X164738000Y-82622000D03*
D12*
X164738000Y-85162000D03*
X164738000Y-87702000D03*
X164738000Y-90242000D03*
X164738000Y-92782000D03*
X164738000Y-95322000D03*
X164738000Y-97862000D03*
X164738000Y-100402000D03*
X164738000Y-102942000D03*
X164738000Y-105482000D03*
D13*
X139338000Y-81860000D03*
X139338000Y-76780000D03*
X146958000Y-81860000D03*
X146958000Y-76780000D03*
X146958000Y-104974000D03*
X146958000Y-110054000D03*
X139338000Y-104974000D03*
X139338000Y-110054000D03*
D14*
X160000000Y-74000000D03*
X162540000Y-74000000D03*
X157460000Y-74000000D03*
D15*
X162000000Y-69000000D03*
D16*
X162000000Y-64000000D03*
D11*
X162198000Y-82622000D03*
D12*
X162198000Y-85162000D03*
X162198000Y-87702000D03*
X162198000Y-90242000D03*
X162198000Y-92782000D03*
X162198000Y-95322000D03*
D11*
X140354000Y-59508000D03*
D12*
X140354000Y-62048000D03*
X140354000Y-64588000D03*
X140354000Y-67128000D03*
X140354000Y-69668000D03*
X140354000Y-72208000D03*
D17*
X154500000Y-114000000D03*
X152000000Y-114000000D03*
X149500000Y-114000000D03*
D15*
X159500000Y-55000000D03*
D16*
X154500000Y-55000000D03*
D18*
X147232466Y-65370466D03*
D10*
G36*
X151970082Y-68906000D02*
X150768000Y-70108082D01*
X149565918Y-68906000D01*
X150768000Y-67703918D01*
X151970082Y-68906000D01*
X151970082Y-68906000D01*
G37*
D18*
X120629534Y-109232466D03*
D10*
G36*
X117094000Y-113970082D02*
X115891918Y-112768000D01*
X117094000Y-111565918D01*
X118296082Y-112768000D01*
X117094000Y-113970082D01*
X117094000Y-113970082D01*
G37*
D15*
X131000000Y-121500000D03*
D16*
X131000000Y-116500000D03*
D19*
X72000000Y-116500000D03*
X72000000Y-114000000D03*
X72000000Y-111500000D03*
D20*
X126492000Y-102354000D03*
D21*
X123952000Y-102354000D03*
X121412000Y-102354000D03*
X118872000Y-102354000D03*
X116332000Y-102354000D03*
X113792000Y-102354000D03*
D20*
X103378000Y-124198000D03*
D21*
X100838000Y-124198000D03*
X98298000Y-124198000D03*
X95758000Y-124198000D03*
X93218000Y-124198000D03*
X90678000Y-124198000D03*
D15*
X117000000Y-124000000D03*
D16*
X122000000Y-124000000D03*
D22*
X112000000Y-122000000D03*
X112000000Y-124540000D03*
X112000000Y-119460000D03*
D13*
X81026000Y-108958000D03*
X75946000Y-108958000D03*
X81026000Y-101338000D03*
X75946000Y-101338000D03*
X104140000Y-101338000D03*
X109220000Y-101338000D03*
X104140000Y-108958000D03*
X109220000Y-108958000D03*
D20*
X103378000Y-126738000D03*
D21*
X100838000Y-126738000D03*
X98298000Y-126738000D03*
X95758000Y-126738000D03*
X93218000Y-126738000D03*
X90678000Y-126738000D03*
X88138000Y-126738000D03*
X85598000Y-126738000D03*
X83058000Y-126738000D03*
X80518000Y-126738000D03*
D20*
X103378000Y-94738000D03*
D21*
X100838000Y-94738000D03*
X98298000Y-94738000D03*
X95758000Y-94738000D03*
X93218000Y-94738000D03*
X90678000Y-94738000D03*
X88138000Y-94738000D03*
X85598000Y-94738000D03*
X83058000Y-94738000D03*
X80518000Y-94738000D03*
D13*
X104140000Y-69338000D03*
X109220000Y-69338000D03*
X104140000Y-76958000D03*
X109220000Y-76958000D03*
X81026000Y-76958000D03*
X75946000Y-76958000D03*
X81026000Y-69338000D03*
X75946000Y-69338000D03*
D22*
X112000000Y-90000000D03*
X112000000Y-92540000D03*
X112000000Y-87460000D03*
D15*
X117000000Y-92000000D03*
D16*
X122000000Y-92000000D03*
D20*
X103378000Y-92198000D03*
D21*
X100838000Y-92198000D03*
X98298000Y-92198000D03*
X95758000Y-92198000D03*
X93218000Y-92198000D03*
X90678000Y-92198000D03*
D20*
X126492000Y-70354000D03*
D21*
X123952000Y-70354000D03*
X121412000Y-70354000D03*
X118872000Y-70354000D03*
X116332000Y-70354000D03*
X113792000Y-70354000D03*
D19*
X72000000Y-84500000D03*
X72000000Y-82000000D03*
X72000000Y-79500000D03*
D15*
X131000000Y-89500000D03*
D16*
X131000000Y-84500000D03*
D18*
X120629534Y-77232466D03*
D10*
G36*
X117094000Y-81970082D02*
X115891918Y-80768000D01*
X117094000Y-79565918D01*
X118296082Y-80768000D01*
X117094000Y-81970082D01*
X117094000Y-81970082D01*
G37*
D18*
X120629534Y-45232466D03*
D10*
G36*
X117094000Y-49970082D02*
X115891918Y-48768000D01*
X117094000Y-47565918D01*
X118296082Y-48768000D01*
X117094000Y-49970082D01*
X117094000Y-49970082D01*
G37*
D15*
X131000000Y-57500000D03*
D16*
X131000000Y-52500000D03*
D19*
X72000000Y-52500000D03*
X72000000Y-50000000D03*
X72000000Y-47500000D03*
D20*
X126492000Y-38354000D03*
D21*
X123952000Y-38354000D03*
X121412000Y-38354000D03*
X118872000Y-38354000D03*
X116332000Y-38354000D03*
X113792000Y-38354000D03*
D20*
X103378000Y-60198000D03*
D21*
X100838000Y-60198000D03*
X98298000Y-60198000D03*
X95758000Y-60198000D03*
X93218000Y-60198000D03*
X90678000Y-60198000D03*
D15*
X117000000Y-60000000D03*
D16*
X122000000Y-60000000D03*
D22*
X112000000Y-58000000D03*
X112000000Y-60540000D03*
X112000000Y-55460000D03*
D13*
X81026000Y-44958000D03*
X75946000Y-44958000D03*
X81026000Y-37338000D03*
X75946000Y-37338000D03*
X104140000Y-37338000D03*
X109220000Y-37338000D03*
X104140000Y-44958000D03*
X109220000Y-44958000D03*
D20*
X103378000Y-62738000D03*
D21*
X100838000Y-62738000D03*
X98298000Y-62738000D03*
X95758000Y-62738000D03*
X93218000Y-62738000D03*
X90678000Y-62738000D03*
X88138000Y-62738000D03*
X85598000Y-62738000D03*
X83058000Y-62738000D03*
X80518000Y-62738000D03*
D23*
X160674000Y-104212000D03*
X161436000Y-100402000D03*
X157499000Y-107387000D03*
X155086000Y-78050000D03*
X143910000Y-74494000D03*
X143910000Y-79066000D03*
X143910000Y-83892000D03*
X143910000Y-90750000D03*
X143910000Y-95830000D03*
X142894000Y-107768000D03*
X141624000Y-107768000D03*
X141624000Y-112086000D03*
X161944000Y-116150000D03*
X161944000Y-113356000D03*
X163722000Y-111578000D03*
X164992000Y-108530000D03*
X163722000Y-108530000D03*
X160928000Y-109546000D03*
X153308000Y-89226000D03*
X96774000Y-115308000D03*
X76454000Y-122928000D03*
X77470000Y-125722000D03*
X77470000Y-126992000D03*
X74422000Y-125722000D03*
X72644000Y-123944000D03*
X69850000Y-123944000D03*
X73914000Y-103624000D03*
X78232000Y-103624000D03*
X78232000Y-104894000D03*
X90170000Y-105910000D03*
X95250000Y-105910000D03*
X102108000Y-105910000D03*
X106934000Y-105910000D03*
X111506000Y-105910000D03*
X107950000Y-117086000D03*
X78613000Y-119499000D03*
X85598000Y-123436000D03*
X81788000Y-122674000D03*
X81788000Y-90674000D03*
X85598000Y-91436000D03*
X78613000Y-87499000D03*
X107950000Y-85086000D03*
X111506000Y-73910000D03*
X106934000Y-73910000D03*
X102108000Y-73910000D03*
X95250000Y-73910000D03*
X90170000Y-73910000D03*
X78232000Y-72894000D03*
X78232000Y-71624000D03*
X73914000Y-71624000D03*
X69850000Y-91944000D03*
X72644000Y-91944000D03*
X74422000Y-93722000D03*
X77470000Y-94992000D03*
X77470000Y-93722000D03*
X76454000Y-90928000D03*
X96774000Y-83308000D03*
X96774000Y-51308000D03*
X76454000Y-58928000D03*
X77470000Y-61722000D03*
X77470000Y-62992000D03*
X74422000Y-61722000D03*
X72644000Y-59944000D03*
X69850000Y-59944000D03*
X73914000Y-39624000D03*
X78232000Y-39624000D03*
X78232000Y-40894000D03*
X90170000Y-41910000D03*
X95250000Y-41910000D03*
X102108000Y-41910000D03*
X106934000Y-41910000D03*
X111506000Y-41910000D03*
X107950000Y-53086000D03*
X78613000Y-55499000D03*
X85598000Y-59436000D03*
X81788000Y-58674000D03*
X153816000Y-94560000D03*
X156864000Y-105990000D03*
X80010000Y-118864000D03*
X91440000Y-115816000D03*
X91440000Y-83816000D03*
X80010000Y-86864000D03*
X80010000Y-54864000D03*
X91440000Y-51816000D03*
X154070000Y-71192000D03*
X156610000Y-99386000D03*
X153054000Y-77796000D03*
X152546000Y-108276000D03*
X77724000Y-114546000D03*
X108204000Y-115054000D03*
X86614000Y-118610000D03*
X114808000Y-116070000D03*
X114808000Y-84070000D03*
X86614000Y-86610000D03*
X108204000Y-83054000D03*
X77724000Y-82546000D03*
X77724000Y-50546000D03*
X108204000Y-51054000D03*
X86614000Y-54610000D03*
X114808000Y-52070000D03*
X159150000Y-110308000D03*
X75692000Y-121150000D03*
X75692000Y-89150000D03*
X75692000Y-57150000D03*
X166516000Y-78050000D03*
X166516000Y-110562000D03*
X75438000Y-128516000D03*
X107950000Y-128516000D03*
X107950000Y-96516000D03*
X75438000Y-96516000D03*
X75438000Y-64516000D03*
X107950000Y-64516000D03*
X157626000Y-109546000D03*
X76454000Y-119626000D03*
X76454000Y-87626000D03*
X76454000Y-55626000D03*
X159658000Y-113610000D03*
X72390000Y-121658000D03*
X72390000Y-89658000D03*
X72390000Y-57658000D03*
X146704000Y-84146000D03*
X101854000Y-108704000D03*
X101854000Y-76704000D03*
X101854000Y-44704000D03*
X157372000Y-104212000D03*
X81788000Y-119372000D03*
X81788000Y-87372000D03*
X81788000Y-55372000D03*
X154832000Y-98624000D03*
X156610000Y-82114000D03*
X103886000Y-118610000D03*
X87376000Y-116832000D03*
X87376000Y-84832000D03*
X103886000Y-86610000D03*
X103886000Y-54610000D03*
X87376000Y-52832000D03*
X157372000Y-79574000D03*
X155340000Y-108530000D03*
X155594000Y-99132000D03*
X86868000Y-117594000D03*
X77470000Y-117340000D03*
X106426000Y-119372000D03*
X106426000Y-87372000D03*
X77470000Y-85340000D03*
X86868000Y-85594000D03*
X86868000Y-53594000D03*
X77470000Y-53340000D03*
X106426000Y-55372000D03*
X159912000Y-96084000D03*
X161436000Y-98116000D03*
X87884000Y-123436000D03*
X89916000Y-121912000D03*
X89916000Y-89912000D03*
X87884000Y-91436000D03*
X87884000Y-59436000D03*
X89916000Y-57912000D03*
D24*
X155000000Y-115000000D02*
X154500000Y-115000000D01*
X155000000Y-115000000D02*
X154500000Y-115000000D01*
X155000000Y-115000000D02*
X154500000Y-115000000D01*
X155000000Y-115000000D02*
X154500000Y-115000000D01*
X157372000Y-108403000D02*
X156610000Y-110308000D01*
X156610000Y-110308000D02*
X156610000Y-113356000D01*
X157499000Y-107387000D02*
X157372000Y-108403000D01*
X144651534Y-65370466D02*
X143910000Y-66112000D01*
X143910000Y-66112000D02*
X143910000Y-74494000D01*
X143910000Y-79066000D02*
X144926000Y-80082000D01*
X144926000Y-80082000D02*
X145180000Y-80082000D01*
X145180000Y-80082000D02*
X146958000Y-81860000D01*
X147232466Y-65370466D02*
X144651534Y-65370466D01*
X143910000Y-83892000D02*
X143910000Y-90750000D01*
X143910000Y-95830000D02*
X142894000Y-96846000D01*
X142894000Y-96846000D02*
X142894000Y-107768000D01*
X141624000Y-107768000D02*
X141624000Y-112086000D01*
X161944000Y-116150000D02*
X161944000Y-113356000D01*
X163722000Y-111578000D02*
X164992000Y-110308000D01*
X164992000Y-110308000D02*
X164992000Y-108530000D01*
X163722000Y-108530000D02*
X162706000Y-109546000D01*
X162706000Y-109546000D02*
X160928000Y-109546000D01*
X76454000Y-124706000D02*
X76454000Y-122928000D01*
X77470000Y-125722000D02*
X76454000Y-124706000D01*
X75692000Y-126992000D02*
X77470000Y-126992000D01*
X74422000Y-125722000D02*
X75692000Y-126992000D01*
X69850000Y-123944000D02*
X72644000Y-123944000D01*
X78232000Y-103624000D02*
X73914000Y-103624000D01*
X89154000Y-104894000D02*
X78232000Y-104894000D01*
X90170000Y-105910000D02*
X89154000Y-104894000D01*
X102108000Y-105910000D02*
X95250000Y-105910000D01*
X120629534Y-109232466D02*
X120629534Y-106651534D01*
X105918000Y-107180000D02*
X104140000Y-108958000D01*
X105918000Y-106926000D02*
X105918000Y-107180000D01*
X106934000Y-105910000D02*
X105918000Y-106926000D01*
X119888000Y-105910000D02*
X111506000Y-105910000D01*
X120629534Y-106651534D02*
X119888000Y-105910000D01*
X78613000Y-119499000D02*
X77597000Y-119372000D01*
X75692000Y-118610000D02*
X72644000Y-118610000D01*
X77597000Y-119372000D02*
X75692000Y-118610000D01*
X71000000Y-117000000D02*
X71000000Y-116500000D01*
X71000000Y-117000000D02*
X71000000Y-116500000D01*
X71000000Y-117000000D02*
X71000000Y-116500000D01*
X71000000Y-117000000D02*
X71000000Y-116500000D01*
X71000000Y-85000000D02*
X71000000Y-84500000D01*
X71000000Y-85000000D02*
X71000000Y-84500000D01*
X71000000Y-85000000D02*
X71000000Y-84500000D01*
X71000000Y-85000000D02*
X71000000Y-84500000D01*
X77597000Y-87372000D02*
X75692000Y-86610000D01*
X75692000Y-86610000D02*
X72644000Y-86610000D01*
X78613000Y-87499000D02*
X77597000Y-87372000D01*
X120629534Y-74651534D02*
X119888000Y-73910000D01*
X119888000Y-73910000D02*
X111506000Y-73910000D01*
X106934000Y-73910000D02*
X105918000Y-74926000D01*
X105918000Y-74926000D02*
X105918000Y-75180000D01*
X105918000Y-75180000D02*
X104140000Y-76958000D01*
X120629534Y-77232466D02*
X120629534Y-74651534D01*
X102108000Y-73910000D02*
X95250000Y-73910000D01*
X90170000Y-73910000D02*
X89154000Y-72894000D01*
X89154000Y-72894000D02*
X78232000Y-72894000D01*
X78232000Y-71624000D02*
X73914000Y-71624000D01*
X69850000Y-91944000D02*
X72644000Y-91944000D01*
X74422000Y-93722000D02*
X75692000Y-94992000D01*
X75692000Y-94992000D02*
X77470000Y-94992000D01*
X77470000Y-93722000D02*
X76454000Y-92706000D01*
X76454000Y-92706000D02*
X76454000Y-90928000D01*
X76454000Y-60706000D02*
X76454000Y-58928000D01*
X77470000Y-61722000D02*
X76454000Y-60706000D01*
X75692000Y-62992000D02*
X77470000Y-62992000D01*
X74422000Y-61722000D02*
X75692000Y-62992000D01*
X69850000Y-59944000D02*
X72644000Y-59944000D01*
X78232000Y-39624000D02*
X73914000Y-39624000D01*
X89154000Y-40894000D02*
X78232000Y-40894000D01*
X90170000Y-41910000D02*
X89154000Y-40894000D01*
X102108000Y-41910000D02*
X95250000Y-41910000D01*
X120629534Y-45232466D02*
X120629534Y-42651534D01*
X105918000Y-43180000D02*
X104140000Y-44958000D01*
X105918000Y-42926000D02*
X105918000Y-43180000D01*
X106934000Y-41910000D02*
X105918000Y-42926000D01*
X119888000Y-41910000D02*
X111506000Y-41910000D01*
X120629534Y-42651534D02*
X119888000Y-41910000D01*
X78613000Y-55499000D02*
X77597000Y-55372000D01*
X75692000Y-54610000D02*
X72644000Y-54610000D01*
X77597000Y-55372000D02*
X75692000Y-54610000D01*
X71000000Y-53000000D02*
X71000000Y-52500000D01*
X71000000Y-53000000D02*
X71000000Y-52500000D01*
X71000000Y-53000000D02*
X71000000Y-52500000D01*
X71000000Y-53000000D02*
X71000000Y-52500000D01*
D25*
X150768000Y-68906000D02*
X149498000Y-81352000D01*
X149499766Y-111070000D02*
X149500000Y-115000000D01*
X149498785Y-94560045D02*
X149499766Y-111070000D01*
X149498000Y-81352000D02*
X149498785Y-94560045D01*
X154500000Y-55000000D02*
X150768000Y-68906000D01*
X158134000Y-60016000D02*
X162000000Y-64000000D01*
X154500000Y-55000000D02*
X158134000Y-60016000D01*
D26*
X153815955Y-94560045D02*
X149498785Y-94560045D01*
X153816000Y-94560000D02*
X153815955Y-94560045D01*
D24*
X155594000Y-111070000D02*
X149499766Y-111070000D01*
X156610000Y-108530000D02*
X155594000Y-111070000D01*
X156610000Y-106752000D02*
X156610000Y-108530000D01*
X156864000Y-105990000D02*
X156610000Y-106752000D01*
X80010000Y-118864000D02*
X79248000Y-118610000D01*
X79248000Y-118610000D02*
X77470000Y-118610000D01*
X77470000Y-118610000D02*
X74930000Y-117594000D01*
X74930000Y-117594000D02*
X74930000Y-111499766D01*
D26*
X91440000Y-115816000D02*
X91439955Y-115815955D01*
X91439955Y-115815955D02*
X91439955Y-111498785D01*
D25*
X131000000Y-116500000D02*
X125984000Y-120134000D01*
X125984000Y-120134000D02*
X122000000Y-124000000D01*
X131000000Y-116500000D02*
X117094000Y-112768000D01*
X104648000Y-111498000D02*
X91439955Y-111498785D01*
X91439955Y-111498785D02*
X74930000Y-111499766D01*
X74930000Y-111499766D02*
X71000000Y-111500000D01*
X117094000Y-112768000D02*
X104648000Y-111498000D01*
X117094000Y-80768000D02*
X104648000Y-79498000D01*
X74930000Y-79499766D02*
X71000000Y-79500000D01*
X91439955Y-79498785D02*
X74930000Y-79499766D01*
X104648000Y-79498000D02*
X91439955Y-79498785D01*
X131000000Y-84500000D02*
X117094000Y-80768000D01*
X125984000Y-88134000D02*
X122000000Y-92000000D01*
X131000000Y-84500000D02*
X125984000Y-88134000D01*
D26*
X91439955Y-83815955D02*
X91439955Y-79498785D01*
X91440000Y-83816000D02*
X91439955Y-83815955D01*
D24*
X74930000Y-85594000D02*
X74930000Y-79499766D01*
X77470000Y-86610000D02*
X74930000Y-85594000D01*
X79248000Y-86610000D02*
X77470000Y-86610000D01*
X80010000Y-86864000D02*
X79248000Y-86610000D01*
X80010000Y-54864000D02*
X79248000Y-54610000D01*
X79248000Y-54610000D02*
X77470000Y-54610000D01*
X77470000Y-54610000D02*
X74930000Y-53594000D01*
X74930000Y-53594000D02*
X74930000Y-47499766D01*
D26*
X91440000Y-51816000D02*
X91439955Y-51815955D01*
X91439955Y-51815955D02*
X91439955Y-47498785D01*
D25*
X131000000Y-52500000D02*
X125984000Y-56134000D01*
X125984000Y-56134000D02*
X122000000Y-60000000D01*
X131000000Y-52500000D02*
X117094000Y-48768000D01*
X104648000Y-47498000D02*
X91439955Y-47498785D01*
X91439955Y-47498785D02*
X74930000Y-47499766D01*
X74930000Y-47499766D02*
X71000000Y-47500000D01*
X117094000Y-48768000D02*
X104648000Y-47498000D01*
D26*
X154070000Y-71192000D02*
X155594000Y-75510000D01*
X158642000Y-86432000D02*
X156610000Y-88464000D01*
X158642000Y-79066000D02*
X158642000Y-86432000D01*
X155594000Y-75510000D02*
X158642000Y-79066000D01*
X156610000Y-88464000D02*
X156610000Y-99386000D01*
D24*
X153054000Y-77796000D02*
X155340000Y-75510000D01*
X155340000Y-75510000D02*
X155594000Y-75510000D01*
X152546000Y-108276000D02*
X153816000Y-109546000D01*
X153816000Y-109546000D02*
X155594000Y-109546000D01*
X155594000Y-109546000D02*
X156102000Y-108530000D01*
X156610000Y-101926000D02*
X156610000Y-99386000D01*
X156102000Y-103704000D02*
X156610000Y-101926000D01*
X156102000Y-107260000D02*
X156102000Y-103704000D01*
X156102000Y-108530000D02*
X156102000Y-107260000D01*
X77470000Y-118102000D02*
X78740000Y-118102000D01*
X78740000Y-118102000D02*
X82296000Y-118102000D01*
X82296000Y-118102000D02*
X84074000Y-118610000D01*
X84074000Y-118610000D02*
X86614000Y-118610000D01*
X76454000Y-117594000D02*
X77470000Y-118102000D01*
X76454000Y-115816000D02*
X76454000Y-117594000D01*
X77724000Y-114546000D02*
X76454000Y-115816000D01*
X110490000Y-117340000D02*
X110490000Y-117594000D01*
X108204000Y-115054000D02*
X110490000Y-117340000D01*
D26*
X97536000Y-118610000D02*
X86614000Y-118610000D01*
X110490000Y-117594000D02*
X106934000Y-120642000D01*
X106934000Y-120642000D02*
X99568000Y-120642000D01*
X99568000Y-120642000D02*
X97536000Y-118610000D01*
X114808000Y-116070000D02*
X110490000Y-117594000D01*
X114808000Y-84070000D02*
X110490000Y-85594000D01*
X99568000Y-88642000D02*
X97536000Y-86610000D01*
X106934000Y-88642000D02*
X99568000Y-88642000D01*
X110490000Y-85594000D02*
X106934000Y-88642000D01*
X97536000Y-86610000D02*
X86614000Y-86610000D01*
D24*
X108204000Y-83054000D02*
X110490000Y-85340000D01*
X110490000Y-85340000D02*
X110490000Y-85594000D01*
X77724000Y-82546000D02*
X76454000Y-83816000D01*
X76454000Y-83816000D02*
X76454000Y-85594000D01*
X76454000Y-85594000D02*
X77470000Y-86102000D01*
X84074000Y-86610000D02*
X86614000Y-86610000D01*
X82296000Y-86102000D02*
X84074000Y-86610000D01*
X78740000Y-86102000D02*
X82296000Y-86102000D01*
X77470000Y-86102000D02*
X78740000Y-86102000D01*
X77470000Y-54102000D02*
X78740000Y-54102000D01*
X78740000Y-54102000D02*
X82296000Y-54102000D01*
X82296000Y-54102000D02*
X84074000Y-54610000D01*
X84074000Y-54610000D02*
X86614000Y-54610000D01*
X76454000Y-53594000D02*
X77470000Y-54102000D01*
X76454000Y-51816000D02*
X76454000Y-53594000D01*
X77724000Y-50546000D02*
X76454000Y-51816000D01*
X110490000Y-53340000D02*
X110490000Y-53594000D01*
X108204000Y-51054000D02*
X110490000Y-53340000D01*
D26*
X97536000Y-54610000D02*
X86614000Y-54610000D01*
X110490000Y-53594000D02*
X106934000Y-56642000D01*
X106934000Y-56642000D02*
X99568000Y-56642000D01*
X99568000Y-56642000D02*
X97536000Y-54610000D01*
X114808000Y-52070000D02*
X110490000Y-53594000D01*
D24*
X161944000Y-92782000D02*
X161436000Y-92782000D01*
X159150000Y-95068000D02*
X159150000Y-110308000D01*
X161436000Y-92782000D02*
X159150000Y-95068000D01*
X93218000Y-123436000D02*
X90932000Y-121150000D01*
X90932000Y-121150000D02*
X75692000Y-121150000D01*
X93218000Y-123944000D02*
X93218000Y-123436000D01*
X93218000Y-91944000D02*
X93218000Y-91436000D01*
X90932000Y-89150000D02*
X75692000Y-89150000D01*
X93218000Y-91436000D02*
X90932000Y-89150000D01*
X93218000Y-59436000D02*
X90932000Y-57150000D01*
X90932000Y-57150000D02*
X75692000Y-57150000D01*
X93218000Y-59944000D02*
X93218000Y-59436000D01*
X166516000Y-92782000D02*
X166516000Y-110562000D01*
X166516000Y-78050000D02*
X166516000Y-92782000D01*
X164738000Y-92782000D02*
X166516000Y-92782000D01*
X93218000Y-126738000D02*
X93218000Y-128516000D01*
X107950000Y-128516000D02*
X93218000Y-128516000D01*
X93218000Y-128516000D02*
X75438000Y-128516000D01*
X93218000Y-96516000D02*
X75438000Y-96516000D01*
X107950000Y-96516000D02*
X93218000Y-96516000D01*
X93218000Y-94738000D02*
X93218000Y-96516000D01*
X93218000Y-62738000D02*
X93218000Y-64516000D01*
X107950000Y-64516000D02*
X93218000Y-64516000D01*
X93218000Y-64516000D02*
X75438000Y-64516000D01*
X158134000Y-107641000D02*
X157626000Y-109546000D01*
X158134000Y-90750000D02*
X158134000Y-107641000D01*
X161182000Y-87702000D02*
X158134000Y-90750000D01*
X161944000Y-87702000D02*
X161182000Y-87702000D01*
X98298000Y-123944000D02*
X98298000Y-123182000D01*
X98298000Y-123182000D02*
X95250000Y-120134000D01*
X95250000Y-120134000D02*
X78359000Y-120134000D01*
X78359000Y-120134000D02*
X76454000Y-119626000D01*
X78359000Y-88134000D02*
X76454000Y-87626000D01*
X95250000Y-88134000D02*
X78359000Y-88134000D01*
X98298000Y-91182000D02*
X95250000Y-88134000D01*
X98298000Y-91944000D02*
X98298000Y-91182000D01*
X98298000Y-59944000D02*
X98298000Y-59182000D01*
X98298000Y-59182000D02*
X95250000Y-56134000D01*
X95250000Y-56134000D02*
X78359000Y-56134000D01*
X78359000Y-56134000D02*
X76454000Y-55626000D01*
X158388000Y-109800000D02*
X158388000Y-112340000D01*
X158642000Y-107514000D02*
X158388000Y-109800000D01*
X158642000Y-93544000D02*
X158642000Y-107514000D01*
X158388000Y-112340000D02*
X159658000Y-113610000D01*
X161944000Y-90242000D02*
X158642000Y-93544000D01*
X95758000Y-123944000D02*
X92456000Y-120642000D01*
X73660000Y-120388000D02*
X72390000Y-121658000D01*
X92456000Y-120642000D02*
X78486000Y-120642000D01*
X78486000Y-120642000D02*
X76200000Y-120388000D01*
X76200000Y-120388000D02*
X73660000Y-120388000D01*
X76200000Y-88388000D02*
X73660000Y-88388000D01*
X78486000Y-88642000D02*
X76200000Y-88388000D01*
X92456000Y-88642000D02*
X78486000Y-88642000D01*
X73660000Y-88388000D02*
X72390000Y-89658000D01*
X95758000Y-91944000D02*
X92456000Y-88642000D01*
X95758000Y-59944000D02*
X92456000Y-56642000D01*
X73660000Y-56388000D02*
X72390000Y-57658000D01*
X92456000Y-56642000D02*
X78486000Y-56642000D01*
X78486000Y-56642000D02*
X76200000Y-56388000D01*
X76200000Y-56388000D02*
X73660000Y-56388000D01*
X146958000Y-76780000D02*
X139338000Y-76780000D01*
X146704000Y-84146000D02*
X139338000Y-76780000D01*
X101854000Y-108704000D02*
X109220000Y-101338000D01*
X109220000Y-108958000D02*
X109220000Y-101338000D01*
X109220000Y-76958000D02*
X109220000Y-69338000D01*
X101854000Y-76704000D02*
X109220000Y-69338000D01*
X101854000Y-44704000D02*
X109220000Y-37338000D01*
X109220000Y-44958000D02*
X109220000Y-37338000D01*
X159912000Y-76628000D02*
X162540000Y-74000000D01*
X159912000Y-84146000D02*
X159912000Y-76628000D01*
X160928000Y-85162000D02*
X159912000Y-84146000D01*
X161944000Y-85162000D02*
X160928000Y-85162000D01*
X157372000Y-104212000D02*
X157626000Y-101926000D01*
X157626000Y-101926000D02*
X157626000Y-89480000D01*
X157626000Y-89480000D02*
X161944000Y-85162000D01*
X96520000Y-119626000D02*
X100838000Y-123944000D01*
X84074000Y-119626000D02*
X96520000Y-119626000D01*
X81788000Y-119372000D02*
X84074000Y-119626000D01*
X100838000Y-123944000D02*
X100838000Y-122928000D01*
X100838000Y-122928000D02*
X101854000Y-121912000D01*
X101854000Y-121912000D02*
X109372000Y-121912000D01*
X109372000Y-121912000D02*
X112000000Y-124540000D01*
X109372000Y-89912000D02*
X112000000Y-92540000D01*
X101854000Y-89912000D02*
X109372000Y-89912000D01*
X100838000Y-90928000D02*
X101854000Y-89912000D01*
X100838000Y-91944000D02*
X100838000Y-90928000D01*
X81788000Y-87372000D02*
X84074000Y-87626000D01*
X84074000Y-87626000D02*
X96520000Y-87626000D01*
X96520000Y-87626000D02*
X100838000Y-91944000D01*
X96520000Y-55626000D02*
X100838000Y-59944000D01*
X84074000Y-55626000D02*
X96520000Y-55626000D01*
X81788000Y-55372000D02*
X84074000Y-55626000D01*
X100838000Y-59944000D02*
X100838000Y-58928000D01*
X100838000Y-58928000D02*
X101854000Y-57912000D01*
X101854000Y-57912000D02*
X109372000Y-57912000D01*
X109372000Y-57912000D02*
X112000000Y-60540000D01*
X154832000Y-98624000D02*
X154832000Y-91766000D01*
X154832000Y-91766000D02*
X154832000Y-86686000D01*
X156610000Y-84908000D02*
X156610000Y-82114000D01*
X154832000Y-86686000D02*
X156610000Y-84908000D01*
X99314000Y-116832000D02*
X101092000Y-118610000D01*
X101092000Y-118610000D02*
X103886000Y-118610000D01*
X94234000Y-116832000D02*
X99314000Y-116832000D01*
X87376000Y-116832000D02*
X94234000Y-116832000D01*
X87376000Y-84832000D02*
X94234000Y-84832000D01*
X94234000Y-84832000D02*
X99314000Y-84832000D01*
X101092000Y-86610000D02*
X103886000Y-86610000D01*
X99314000Y-84832000D02*
X101092000Y-86610000D01*
X99314000Y-52832000D02*
X101092000Y-54610000D01*
X101092000Y-54610000D02*
X103886000Y-54610000D01*
X94234000Y-52832000D02*
X99314000Y-52832000D01*
X87376000Y-52832000D02*
X94234000Y-52832000D01*
X157372000Y-82368000D02*
X157372000Y-79574000D01*
X157372000Y-85162000D02*
X157372000Y-82368000D01*
X155594000Y-86940000D02*
X157372000Y-85162000D01*
X155594000Y-98624000D02*
X155594000Y-86940000D01*
X155594000Y-99132000D02*
X155594000Y-98624000D01*
X155594000Y-104974000D02*
X155340000Y-108530000D01*
X155594000Y-99132000D02*
X155594000Y-104974000D01*
X155594000Y-99132000D02*
X155594000Y-98624000D01*
X86868000Y-117594000D02*
X87376000Y-117594000D01*
X86868000Y-117594000D02*
X81026000Y-117594000D01*
X81026000Y-117594000D02*
X77470000Y-117340000D01*
X86868000Y-117594000D02*
X87376000Y-117594000D01*
X87376000Y-117594000D02*
X99060000Y-117594000D01*
X99060000Y-117594000D02*
X100838000Y-119372000D01*
X100838000Y-119372000D02*
X103632000Y-119372000D01*
X103632000Y-119372000D02*
X106426000Y-119372000D01*
X103632000Y-87372000D02*
X106426000Y-87372000D01*
X100838000Y-87372000D02*
X103632000Y-87372000D01*
X99060000Y-85594000D02*
X100838000Y-87372000D01*
X87376000Y-85594000D02*
X99060000Y-85594000D01*
X86868000Y-85594000D02*
X87376000Y-85594000D01*
X81026000Y-85594000D02*
X77470000Y-85340000D01*
X86868000Y-85594000D02*
X81026000Y-85594000D01*
X86868000Y-85594000D02*
X87376000Y-85594000D01*
X86868000Y-53594000D02*
X87376000Y-53594000D01*
X86868000Y-53594000D02*
X81026000Y-53594000D01*
X81026000Y-53594000D02*
X77470000Y-53340000D01*
X86868000Y-53594000D02*
X87376000Y-53594000D01*
X87376000Y-53594000D02*
X99060000Y-53594000D01*
X99060000Y-53594000D02*
X100838000Y-55372000D01*
X100838000Y-55372000D02*
X103632000Y-55372000D01*
X103632000Y-55372000D02*
X106426000Y-55372000D01*
X159912000Y-96084000D02*
X161436000Y-97608000D01*
X161436000Y-97608000D02*
X161436000Y-98116000D01*
X88392000Y-123436000D02*
X87884000Y-123436000D01*
X89916000Y-121912000D02*
X88392000Y-123436000D01*
X89916000Y-89912000D02*
X88392000Y-91436000D01*
X88392000Y-91436000D02*
X87884000Y-91436000D01*
X88392000Y-59436000D02*
X87884000Y-59436000D01*
X89916000Y-57912000D02*
X88392000Y-59436000D01*
D27*
G36*
X113218511Y-36784729D02*
X112732330Y-37109585D01*
X112407474Y-37595766D01*
X112293400Y-38169255D01*
X112293400Y-38538745D01*
X112407474Y-39112234D01*
X112732330Y-39598415D01*
X113218511Y-39923271D01*
X113792000Y-40037345D01*
X114365489Y-39923271D01*
X114851670Y-39598415D01*
X115062000Y-39283634D01*
X115272330Y-39598415D01*
X115758511Y-39923271D01*
X116332000Y-40037345D01*
X116905489Y-39923271D01*
X117391670Y-39598415D01*
X117602000Y-39283634D01*
X117812330Y-39598415D01*
X118298511Y-39923271D01*
X118872000Y-40037345D01*
X119445489Y-39923271D01*
X119931670Y-39598415D01*
X120142000Y-39283634D01*
X120352330Y-39598415D01*
X120838511Y-39923271D01*
X121412000Y-40037345D01*
X121985489Y-39923271D01*
X122471670Y-39598415D01*
X122682000Y-39283634D01*
X122892330Y-39598415D01*
X123378511Y-39923271D01*
X123952000Y-40037345D01*
X124525489Y-39923271D01*
X124782940Y-39751248D01*
X124842527Y-39895104D01*
X125103297Y-40155873D01*
X125444008Y-40297000D01*
X126133250Y-40297000D01*
X126365000Y-40065250D01*
X126365000Y-38481000D01*
X126619000Y-38481000D01*
X126619000Y-40065250D01*
X126850750Y-40297000D01*
X127539992Y-40297000D01*
X127880703Y-40155873D01*
X128141473Y-39895104D01*
X128282600Y-39554392D01*
X128282600Y-39000000D01*
X131196966Y-39000000D01*
X131334214Y-39689991D01*
X131725062Y-40274938D01*
X132310009Y-40665786D01*
X133000000Y-40803034D01*
X133689991Y-40665786D01*
X134274938Y-40274938D01*
X134665786Y-39689991D01*
X134803034Y-39000000D01*
X134665786Y-38310009D01*
X134274938Y-37725062D01*
X133689991Y-37334214D01*
X133000000Y-37196966D01*
X132310009Y-37334214D01*
X131725062Y-37725062D01*
X131334214Y-38310009D01*
X131196966Y-39000000D01*
X128282600Y-39000000D01*
X128282600Y-38712750D01*
X128050850Y-38481000D01*
X126619000Y-38481000D01*
X126365000Y-38481000D01*
X126345000Y-38481000D01*
X126345000Y-38227000D01*
X126365000Y-38227000D01*
X126365000Y-38207000D01*
X126619000Y-38207000D01*
X126619000Y-38227000D01*
X128050850Y-38227000D01*
X128282600Y-37995250D01*
X128282600Y-37153608D01*
X128141473Y-36812896D01*
X128013577Y-36685000D01*
X131932533Y-36685000D01*
X133263459Y-36949738D01*
X134334568Y-37665429D01*
X135050262Y-38736540D01*
X135315000Y-40067467D01*
X135315000Y-61932533D01*
X135050262Y-63263460D01*
X134334568Y-64334571D01*
X133263459Y-65050262D01*
X131932533Y-65315000D01*
X108464705Y-65315000D01*
X108478943Y-65309117D01*
X108742192Y-65046327D01*
X108884838Y-64702799D01*
X108885162Y-64330833D01*
X108743117Y-63987057D01*
X108480327Y-63723808D01*
X108136799Y-63581162D01*
X107764833Y-63580838D01*
X107421057Y-63722883D01*
X107387882Y-63756000D01*
X105168600Y-63756000D01*
X105168600Y-63096750D01*
X105071850Y-63000000D01*
X131196966Y-63000000D01*
X131334214Y-63689991D01*
X131725062Y-64274938D01*
X132310009Y-64665786D01*
X133000000Y-64803034D01*
X133689991Y-64665786D01*
X134274938Y-64274938D01*
X134665786Y-63689991D01*
X134803034Y-63000000D01*
X134665786Y-62310009D01*
X134274938Y-61725062D01*
X133689991Y-61334214D01*
X133000000Y-61196966D01*
X132310009Y-61334214D01*
X131725062Y-61725062D01*
X131334214Y-62310009D01*
X131196966Y-63000000D01*
X105071850Y-63000000D01*
X104936850Y-62865000D01*
X103505000Y-62865000D01*
X103505000Y-62885000D01*
X103251000Y-62885000D01*
X103251000Y-62865000D01*
X103231000Y-62865000D01*
X103231000Y-62611000D01*
X103251000Y-62611000D01*
X103251000Y-60325000D01*
X103505000Y-60325000D01*
X103505000Y-62611000D01*
X104936850Y-62611000D01*
X105168600Y-62379250D01*
X105168600Y-61537608D01*
X105139768Y-61468000D01*
X105168600Y-61398392D01*
X105168600Y-60556750D01*
X104936850Y-60325000D01*
X103505000Y-60325000D01*
X103251000Y-60325000D01*
X103231000Y-60325000D01*
X103231000Y-60071000D01*
X103251000Y-60071000D01*
X103251000Y-60051000D01*
X103505000Y-60051000D01*
X103505000Y-60071000D01*
X104936850Y-60071000D01*
X105168600Y-59839250D01*
X105168600Y-58997608D01*
X105033729Y-58672000D01*
X109057198Y-58672000D01*
X110268420Y-59883222D01*
X110183867Y-60009765D01*
X110078397Y-60540000D01*
X110183867Y-61070235D01*
X110484221Y-61519746D01*
X110933732Y-61820100D01*
X111463967Y-61925570D01*
X112536033Y-61925570D01*
X113066268Y-61820100D01*
X113515779Y-61519746D01*
X113816133Y-61070235D01*
X113921603Y-60540000D01*
X113816133Y-60009765D01*
X113515779Y-59560254D01*
X113081384Y-59270000D01*
X113515779Y-58979746D01*
X113669290Y-58750000D01*
X115102560Y-58750000D01*
X115102560Y-61250000D01*
X115146838Y-61485317D01*
X115285910Y-61701441D01*
X115498110Y-61846431D01*
X115750000Y-61897440D01*
X118250000Y-61897440D01*
X118485317Y-61853162D01*
X118701441Y-61714090D01*
X118846431Y-61501890D01*
X118897440Y-61250000D01*
X118897440Y-58750000D01*
X118853162Y-58514683D01*
X118714090Y-58298559D01*
X118501890Y-58153569D01*
X118250000Y-58102560D01*
X115750000Y-58102560D01*
X115514683Y-58146838D01*
X115298559Y-58285910D01*
X115153569Y-58498110D01*
X115102560Y-58750000D01*
X113669290Y-58750000D01*
X113816133Y-58530235D01*
X113921603Y-58000000D01*
X113816133Y-57469765D01*
X113515779Y-57020254D01*
X113336247Y-56900294D01*
X113775134Y-56556419D01*
X114097584Y-55984646D01*
X114131404Y-55847113D01*
X113939341Y-55587000D01*
X112127000Y-55587000D01*
X112127000Y-55607000D01*
X111873000Y-55607000D01*
X111873000Y-55587000D01*
X111853000Y-55587000D01*
X111853000Y-55333000D01*
X111873000Y-55333000D01*
X111873000Y-55313000D01*
X112127000Y-55313000D01*
X112127000Y-55333000D01*
X113939341Y-55333000D01*
X114131404Y-55072887D01*
X114097584Y-54935354D01*
X113775134Y-54363581D01*
X113258421Y-53958728D01*
X112871808Y-53850934D01*
X115152469Y-53045995D01*
X115499744Y-52839879D01*
X115741709Y-52516557D01*
X115841524Y-52125249D01*
X115783995Y-51725531D01*
X115577879Y-51378256D01*
X115254557Y-51136291D01*
X114863249Y-51036476D01*
X114463531Y-51094005D01*
X110660909Y-52436107D01*
X109139122Y-50914320D01*
X109139162Y-50868833D01*
X108997117Y-50525057D01*
X108734327Y-50261808D01*
X108390799Y-50119162D01*
X108018833Y-50118838D01*
X107675057Y-50260883D01*
X107411808Y-50523673D01*
X107269162Y-50867201D01*
X107268838Y-51239167D01*
X107410883Y-51582943D01*
X107673673Y-51846192D01*
X108017201Y-51988838D01*
X108064077Y-51988879D01*
X109314012Y-53238814D01*
X107277512Y-54984385D01*
X107219117Y-54843057D01*
X106956327Y-54579808D01*
X106612799Y-54437162D01*
X106240833Y-54436838D01*
X105897057Y-54578883D01*
X105863882Y-54612000D01*
X104820999Y-54612000D01*
X104821162Y-54424833D01*
X104679117Y-54081057D01*
X104416327Y-53817808D01*
X104072799Y-53675162D01*
X103700833Y-53674838D01*
X103357057Y-53816883D01*
X103323882Y-53850000D01*
X101406802Y-53850000D01*
X99851401Y-52294599D01*
X99604839Y-52129852D01*
X99314000Y-52072000D01*
X92424079Y-52072000D01*
X92475001Y-51816000D01*
X92474955Y-51815769D01*
X92474955Y-49133723D01*
X104564844Y-49133005D01*
X116565903Y-50357603D01*
X116636191Y-50427891D01*
X116833894Y-50562976D01*
X117085056Y-50617460D01*
X117337627Y-50569936D01*
X117384534Y-50538828D01*
X127261440Y-53189526D01*
X125024758Y-54809961D01*
X124944512Y-54896535D01*
X124845387Y-54960635D01*
X121571633Y-58137425D01*
X120933628Y-58401043D01*
X120402907Y-58930839D01*
X120115328Y-59623405D01*
X120114674Y-60373305D01*
X120401043Y-61066372D01*
X120930839Y-61597093D01*
X121623405Y-61884672D01*
X122373305Y-61885326D01*
X123066372Y-61598957D01*
X123597093Y-61069161D01*
X123834036Y-60498539D01*
X126554398Y-57858750D01*
X128823000Y-57858750D01*
X128823000Y-58934392D01*
X128964127Y-59275104D01*
X129224897Y-59535873D01*
X129565608Y-59677000D01*
X130641250Y-59677000D01*
X130873000Y-59445250D01*
X130873000Y-57627000D01*
X131127000Y-57627000D01*
X131127000Y-59445250D01*
X131358750Y-59677000D01*
X132434392Y-59677000D01*
X132775103Y-59535873D01*
X133035873Y-59275104D01*
X133177000Y-58934392D01*
X133177000Y-57858750D01*
X132945250Y-57627000D01*
X131127000Y-57627000D01*
X130873000Y-57627000D01*
X129054750Y-57627000D01*
X128823000Y-57858750D01*
X126554398Y-57858750D01*
X127038339Y-57389143D01*
X128823000Y-56096189D01*
X128823000Y-57141250D01*
X129054750Y-57373000D01*
X130873000Y-57373000D01*
X130873000Y-55554750D01*
X131127000Y-55554750D01*
X131127000Y-57373000D01*
X132945250Y-57373000D01*
X133177000Y-57141250D01*
X133177000Y-56065608D01*
X133035873Y-55724896D01*
X132775103Y-55464127D01*
X132434392Y-55323000D01*
X131358750Y-55323000D01*
X131127000Y-55554750D01*
X130873000Y-55554750D01*
X130641250Y-55323000D01*
X129890230Y-55323000D01*
X131184726Y-54385162D01*
X131373305Y-54385326D01*
X132066372Y-54098957D01*
X132597093Y-53569161D01*
X132884672Y-52876595D01*
X132885326Y-52126695D01*
X132598957Y-51433628D01*
X132069161Y-50902907D01*
X131376595Y-50615328D01*
X130626695Y-50614674D01*
X130491293Y-50670621D01*
X117674684Y-47230984D01*
X117551809Y-47108109D01*
X117354106Y-46973024D01*
X117102944Y-46918540D01*
X116850373Y-46966064D01*
X116675805Y-47081837D01*
X105280677Y-45919069D01*
X105233845Y-45872237D01*
X105551527Y-45826553D01*
X105776461Y-45220272D01*
X105752260Y-44574061D01*
X105551527Y-44089447D01*
X105233843Y-44043763D01*
X104319605Y-44958000D01*
X104333748Y-44972142D01*
X104154142Y-45151748D01*
X104140000Y-45137605D01*
X104125858Y-45151748D01*
X103946252Y-44972142D01*
X103960395Y-44958000D01*
X103946252Y-44943858D01*
X104125858Y-44764252D01*
X104140000Y-44778395D01*
X105054237Y-43864157D01*
X105008553Y-43546473D01*
X104402272Y-43321539D01*
X104307722Y-43325080D01*
X108460000Y-39172802D01*
X108460000Y-43832464D01*
X108090173Y-44201647D01*
X107886732Y-44691587D01*
X107886269Y-45222086D01*
X108088854Y-45712380D01*
X108463647Y-46087827D01*
X108953587Y-46291268D01*
X109484086Y-46291731D01*
X109974380Y-46089146D01*
X110349827Y-45714353D01*
X110380437Y-45640635D01*
X118864297Y-45640635D01*
X119154867Y-46285092D01*
X119669942Y-46769296D01*
X120221365Y-46997703D01*
X120502534Y-46807417D01*
X120502534Y-45359466D01*
X120756534Y-45359466D01*
X120756534Y-46807417D01*
X121037703Y-46997703D01*
X121682160Y-46707133D01*
X122166364Y-46192058D01*
X122394771Y-45640635D01*
X122204485Y-45359466D01*
X120756534Y-45359466D01*
X120502534Y-45359466D01*
X119054583Y-45359466D01*
X118864297Y-45640635D01*
X110380437Y-45640635D01*
X110553268Y-45224413D01*
X110553617Y-44824297D01*
X118864297Y-44824297D01*
X119054583Y-45105466D01*
X120502534Y-45105466D01*
X120502534Y-43657515D01*
X120756534Y-43657515D01*
X120756534Y-45105466D01*
X122204485Y-45105466D01*
X122394771Y-44824297D01*
X122104201Y-44179840D01*
X121589126Y-43695636D01*
X121037703Y-43467229D01*
X120756534Y-43657515D01*
X120502534Y-43657515D01*
X120221365Y-43467229D01*
X119576908Y-43757799D01*
X119092704Y-44272874D01*
X118864297Y-44824297D01*
X110553617Y-44824297D01*
X110553731Y-44693914D01*
X110351146Y-44203620D01*
X109980000Y-43831826D01*
X109980000Y-38463536D01*
X110349827Y-38094353D01*
X110553268Y-37604413D01*
X110553731Y-37073914D01*
X110393035Y-36685000D01*
X113719883Y-36685000D01*
X113218511Y-36784729D01*
X113218511Y-36784729D01*
G37*
X113218511Y-36784729D02*
X112732330Y-37109585D01*
X112407474Y-37595766D01*
X112293400Y-38169255D01*
X112293400Y-38538745D01*
X112407474Y-39112234D01*
X112732330Y-39598415D01*
X113218511Y-39923271D01*
X113792000Y-40037345D01*
X114365489Y-39923271D01*
X114851670Y-39598415D01*
X115062000Y-39283634D01*
X115272330Y-39598415D01*
X115758511Y-39923271D01*
X116332000Y-40037345D01*
X116905489Y-39923271D01*
X117391670Y-39598415D01*
X117602000Y-39283634D01*
X117812330Y-39598415D01*
X118298511Y-39923271D01*
X118872000Y-40037345D01*
X119445489Y-39923271D01*
X119931670Y-39598415D01*
X120142000Y-39283634D01*
X120352330Y-39598415D01*
X120838511Y-39923271D01*
X121412000Y-40037345D01*
X121985489Y-39923271D01*
X122471670Y-39598415D01*
X122682000Y-39283634D01*
X122892330Y-39598415D01*
X123378511Y-39923271D01*
X123952000Y-40037345D01*
X124525489Y-39923271D01*
X124782940Y-39751248D01*
X124842527Y-39895104D01*
X125103297Y-40155873D01*
X125444008Y-40297000D01*
X126133250Y-40297000D01*
X126365000Y-40065250D01*
X126365000Y-38481000D01*
X126619000Y-38481000D01*
X126619000Y-40065250D01*
X126850750Y-40297000D01*
X127539992Y-40297000D01*
X127880703Y-40155873D01*
X128141473Y-39895104D01*
X128282600Y-39554392D01*
X128282600Y-39000000D01*
X131196966Y-39000000D01*
X131334214Y-39689991D01*
X131725062Y-40274938D01*
X132310009Y-40665786D01*
X133000000Y-40803034D01*
X133689991Y-40665786D01*
X134274938Y-40274938D01*
X134665786Y-39689991D01*
X134803034Y-39000000D01*
X134665786Y-38310009D01*
X134274938Y-37725062D01*
X133689991Y-37334214D01*
X133000000Y-37196966D01*
X132310009Y-37334214D01*
X131725062Y-37725062D01*
X131334214Y-38310009D01*
X131196966Y-39000000D01*
X128282600Y-39000000D01*
X128282600Y-38712750D01*
X128050850Y-38481000D01*
X126619000Y-38481000D01*
X126365000Y-38481000D01*
X126345000Y-38481000D01*
X126345000Y-38227000D01*
X126365000Y-38227000D01*
X126365000Y-38207000D01*
X126619000Y-38207000D01*
X126619000Y-38227000D01*
X128050850Y-38227000D01*
X128282600Y-37995250D01*
X128282600Y-37153608D01*
X128141473Y-36812896D01*
X128013577Y-36685000D01*
X131932533Y-36685000D01*
X133263459Y-36949738D01*
X134334568Y-37665429D01*
X135050262Y-38736540D01*
X135315000Y-40067467D01*
X135315000Y-61932533D01*
X135050262Y-63263460D01*
X134334568Y-64334571D01*
X133263459Y-65050262D01*
X131932533Y-65315000D01*
X108464705Y-65315000D01*
X108478943Y-65309117D01*
X108742192Y-65046327D01*
X108884838Y-64702799D01*
X108885162Y-64330833D01*
X108743117Y-63987057D01*
X108480327Y-63723808D01*
X108136799Y-63581162D01*
X107764833Y-63580838D01*
X107421057Y-63722883D01*
X107387882Y-63756000D01*
X105168600Y-63756000D01*
X105168600Y-63096750D01*
X105071850Y-63000000D01*
X131196966Y-63000000D01*
X131334214Y-63689991D01*
X131725062Y-64274938D01*
X132310009Y-64665786D01*
X133000000Y-64803034D01*
X133689991Y-64665786D01*
X134274938Y-64274938D01*
X134665786Y-63689991D01*
X134803034Y-63000000D01*
X134665786Y-62310009D01*
X134274938Y-61725062D01*
X133689991Y-61334214D01*
X133000000Y-61196966D01*
X132310009Y-61334214D01*
X131725062Y-61725062D01*
X131334214Y-62310009D01*
X131196966Y-63000000D01*
X105071850Y-63000000D01*
X104936850Y-62865000D01*
X103505000Y-62865000D01*
X103505000Y-62885000D01*
X103251000Y-62885000D01*
X103251000Y-62865000D01*
X103231000Y-62865000D01*
X103231000Y-62611000D01*
X103251000Y-62611000D01*
X103251000Y-60325000D01*
X103505000Y-60325000D01*
X103505000Y-62611000D01*
X104936850Y-62611000D01*
X105168600Y-62379250D01*
X105168600Y-61537608D01*
X105139768Y-61468000D01*
X105168600Y-61398392D01*
X105168600Y-60556750D01*
X104936850Y-60325000D01*
X103505000Y-60325000D01*
X103251000Y-60325000D01*
X103231000Y-60325000D01*
X103231000Y-60071000D01*
X103251000Y-60071000D01*
X103251000Y-60051000D01*
X103505000Y-60051000D01*
X103505000Y-60071000D01*
X104936850Y-60071000D01*
X105168600Y-59839250D01*
X105168600Y-58997608D01*
X105033729Y-58672000D01*
X109057198Y-58672000D01*
X110268420Y-59883222D01*
X110183867Y-60009765D01*
X110078397Y-60540000D01*
X110183867Y-61070235D01*
X110484221Y-61519746D01*
X110933732Y-61820100D01*
X111463967Y-61925570D01*
X112536033Y-61925570D01*
X113066268Y-61820100D01*
X113515779Y-61519746D01*
X113816133Y-61070235D01*
X113921603Y-60540000D01*
X113816133Y-60009765D01*
X113515779Y-59560254D01*
X113081384Y-59270000D01*
X113515779Y-58979746D01*
X113669290Y-58750000D01*
X115102560Y-58750000D01*
X115102560Y-61250000D01*
X115146838Y-61485317D01*
X115285910Y-61701441D01*
X115498110Y-61846431D01*
X115750000Y-61897440D01*
X118250000Y-61897440D01*
X118485317Y-61853162D01*
X118701441Y-61714090D01*
X118846431Y-61501890D01*
X118897440Y-61250000D01*
X118897440Y-58750000D01*
X118853162Y-58514683D01*
X118714090Y-58298559D01*
X118501890Y-58153569D01*
X118250000Y-58102560D01*
X115750000Y-58102560D01*
X115514683Y-58146838D01*
X115298559Y-58285910D01*
X115153569Y-58498110D01*
X115102560Y-58750000D01*
X113669290Y-58750000D01*
X113816133Y-58530235D01*
X113921603Y-58000000D01*
X113816133Y-57469765D01*
X113515779Y-57020254D01*
X113336247Y-56900294D01*
X113775134Y-56556419D01*
X114097584Y-55984646D01*
X114131404Y-55847113D01*
X113939341Y-55587000D01*
X112127000Y-55587000D01*
X112127000Y-55607000D01*
X111873000Y-55607000D01*
X111873000Y-55587000D01*
X111853000Y-55587000D01*
X111853000Y-55333000D01*
X111873000Y-55333000D01*
X111873000Y-55313000D01*
X112127000Y-55313000D01*
X112127000Y-55333000D01*
X113939341Y-55333000D01*
X114131404Y-55072887D01*
X114097584Y-54935354D01*
X113775134Y-54363581D01*
X113258421Y-53958728D01*
X112871808Y-53850934D01*
X115152469Y-53045995D01*
X115499744Y-52839879D01*
X115741709Y-52516557D01*
X115841524Y-52125249D01*
X115783995Y-51725531D01*
X115577879Y-51378256D01*
X115254557Y-51136291D01*
X114863249Y-51036476D01*
X114463531Y-51094005D01*
X110660909Y-52436107D01*
X109139122Y-50914320D01*
X109139162Y-50868833D01*
X108997117Y-50525057D01*
X108734327Y-50261808D01*
X108390799Y-50119162D01*
X108018833Y-50118838D01*
X107675057Y-50260883D01*
X107411808Y-50523673D01*
X107269162Y-50867201D01*
X107268838Y-51239167D01*
X107410883Y-51582943D01*
X107673673Y-51846192D01*
X108017201Y-51988838D01*
X108064077Y-51988879D01*
X109314012Y-53238814D01*
X107277512Y-54984385D01*
X107219117Y-54843057D01*
X106956327Y-54579808D01*
X106612799Y-54437162D01*
X106240833Y-54436838D01*
X105897057Y-54578883D01*
X105863882Y-54612000D01*
X104820999Y-54612000D01*
X104821162Y-54424833D01*
X104679117Y-54081057D01*
X104416327Y-53817808D01*
X104072799Y-53675162D01*
X103700833Y-53674838D01*
X103357057Y-53816883D01*
X103323882Y-53850000D01*
X101406802Y-53850000D01*
X99851401Y-52294599D01*
X99604839Y-52129852D01*
X99314000Y-52072000D01*
X92424079Y-52072000D01*
X92475001Y-51816000D01*
X92474955Y-51815769D01*
X92474955Y-49133723D01*
X104564844Y-49133005D01*
X116565903Y-50357603D01*
X116636191Y-50427891D01*
X116833894Y-50562976D01*
X117085056Y-50617460D01*
X117337627Y-50569936D01*
X117384534Y-50538828D01*
X127261440Y-53189526D01*
X125024758Y-54809961D01*
X124944512Y-54896535D01*
X124845387Y-54960635D01*
X121571633Y-58137425D01*
X120933628Y-58401043D01*
X120402907Y-58930839D01*
X120115328Y-59623405D01*
X120114674Y-60373305D01*
X120401043Y-61066372D01*
X120930839Y-61597093D01*
X121623405Y-61884672D01*
X122373305Y-61885326D01*
X123066372Y-61598957D01*
X123597093Y-61069161D01*
X123834036Y-60498539D01*
X126554398Y-57858750D01*
X128823000Y-57858750D01*
X128823000Y-58934392D01*
X128964127Y-59275104D01*
X129224897Y-59535873D01*
X129565608Y-59677000D01*
X130641250Y-59677000D01*
X130873000Y-59445250D01*
X130873000Y-57627000D01*
X131127000Y-57627000D01*
X131127000Y-59445250D01*
X131358750Y-59677000D01*
X132434392Y-59677000D01*
X132775103Y-59535873D01*
X133035873Y-59275104D01*
X133177000Y-58934392D01*
X133177000Y-57858750D01*
X132945250Y-57627000D01*
X131127000Y-57627000D01*
X130873000Y-57627000D01*
X129054750Y-57627000D01*
X128823000Y-57858750D01*
X126554398Y-57858750D01*
X127038339Y-57389143D01*
X128823000Y-56096189D01*
X128823000Y-57141250D01*
X129054750Y-57373000D01*
X130873000Y-57373000D01*
X130873000Y-55554750D01*
X131127000Y-55554750D01*
X131127000Y-57373000D01*
X132945250Y-57373000D01*
X133177000Y-57141250D01*
X133177000Y-56065608D01*
X133035873Y-55724896D01*
X132775103Y-55464127D01*
X132434392Y-55323000D01*
X131358750Y-55323000D01*
X131127000Y-55554750D01*
X130873000Y-55554750D01*
X130641250Y-55323000D01*
X129890230Y-55323000D01*
X131184726Y-54385162D01*
X131373305Y-54385326D01*
X132066372Y-54098957D01*
X132597093Y-53569161D01*
X132884672Y-52876595D01*
X132885326Y-52126695D01*
X132598957Y-51433628D01*
X132069161Y-50902907D01*
X131376595Y-50615328D01*
X130626695Y-50614674D01*
X130491293Y-50670621D01*
X117674684Y-47230984D01*
X117551809Y-47108109D01*
X117354106Y-46973024D01*
X117102944Y-46918540D01*
X116850373Y-46966064D01*
X116675805Y-47081837D01*
X105280677Y-45919069D01*
X105233845Y-45872237D01*
X105551527Y-45826553D01*
X105776461Y-45220272D01*
X105752260Y-44574061D01*
X105551527Y-44089447D01*
X105233843Y-44043763D01*
X104319605Y-44958000D01*
X104333748Y-44972142D01*
X104154142Y-45151748D01*
X104140000Y-45137605D01*
X104125858Y-45151748D01*
X103946252Y-44972142D01*
X103960395Y-44958000D01*
X103946252Y-44943858D01*
X104125858Y-44764252D01*
X104140000Y-44778395D01*
X105054237Y-43864157D01*
X105008553Y-43546473D01*
X104402272Y-43321539D01*
X104307722Y-43325080D01*
X108460000Y-39172802D01*
X108460000Y-43832464D01*
X108090173Y-44201647D01*
X107886732Y-44691587D01*
X107886269Y-45222086D01*
X108088854Y-45712380D01*
X108463647Y-46087827D01*
X108953587Y-46291268D01*
X109484086Y-46291731D01*
X109974380Y-46089146D01*
X110349827Y-45714353D01*
X110380437Y-45640635D01*
X118864297Y-45640635D01*
X119154867Y-46285092D01*
X119669942Y-46769296D01*
X120221365Y-46997703D01*
X120502534Y-46807417D01*
X120502534Y-45359466D01*
X120756534Y-45359466D01*
X120756534Y-46807417D01*
X121037703Y-46997703D01*
X121682160Y-46707133D01*
X122166364Y-46192058D01*
X122394771Y-45640635D01*
X122204485Y-45359466D01*
X120756534Y-45359466D01*
X120502534Y-45359466D01*
X119054583Y-45359466D01*
X118864297Y-45640635D01*
X110380437Y-45640635D01*
X110553268Y-45224413D01*
X110553617Y-44824297D01*
X118864297Y-44824297D01*
X119054583Y-45105466D01*
X120502534Y-45105466D01*
X120502534Y-43657515D01*
X120756534Y-43657515D01*
X120756534Y-45105466D01*
X122204485Y-45105466D01*
X122394771Y-44824297D01*
X122104201Y-44179840D01*
X121589126Y-43695636D01*
X121037703Y-43467229D01*
X120756534Y-43657515D01*
X120502534Y-43657515D01*
X120221365Y-43467229D01*
X119576908Y-43757799D01*
X119092704Y-44272874D01*
X118864297Y-44824297D01*
X110553617Y-44824297D01*
X110553731Y-44693914D01*
X110351146Y-44203620D01*
X109980000Y-43831826D01*
X109980000Y-38463536D01*
X110349827Y-38094353D01*
X110553268Y-37604413D01*
X110553731Y-37073914D01*
X110393035Y-36685000D01*
X113719883Y-36685000D01*
X113218511Y-36784729D01*
G36*
X74612732Y-37071587D02*
X74612269Y-37602086D01*
X74814854Y-38092380D01*
X75189647Y-38467827D01*
X75679587Y-38671268D01*
X76210086Y-38671731D01*
X76700380Y-38469146D01*
X76737748Y-38431843D01*
X80111763Y-38431843D01*
X80157447Y-38749527D01*
X80763728Y-38974461D01*
X81409939Y-38950260D01*
X81894553Y-38749527D01*
X81940237Y-38431843D01*
X81026000Y-37517605D01*
X80111763Y-38431843D01*
X76737748Y-38431843D01*
X77075827Y-38094353D01*
X77279268Y-37604413D01*
X77279731Y-37073914D01*
X77119035Y-36685000D01*
X79534502Y-36685000D01*
X79389539Y-37075728D01*
X79413740Y-37721939D01*
X79614473Y-38206553D01*
X79932157Y-38252237D01*
X80846395Y-37338000D01*
X80832252Y-37323858D01*
X81011858Y-37144252D01*
X81026000Y-37158395D01*
X81040142Y-37144252D01*
X81219748Y-37323858D01*
X81205605Y-37338000D01*
X82119843Y-38252237D01*
X82437527Y-38206553D01*
X82662461Y-37600272D01*
X82638260Y-36954061D01*
X82526812Y-36685000D01*
X83873000Y-36685000D01*
X83873000Y-39000000D01*
X83881685Y-39046159D01*
X83908965Y-39088553D01*
X83950590Y-39116994D01*
X84000000Y-39127000D01*
X100000000Y-39127000D01*
X100046159Y-39118315D01*
X100088553Y-39091035D01*
X100116994Y-39049410D01*
X100127000Y-39000000D01*
X100127000Y-38431843D01*
X103225763Y-38431843D01*
X103271447Y-38749527D01*
X103877728Y-38974461D01*
X104523939Y-38950260D01*
X105008553Y-38749527D01*
X105054237Y-38431843D01*
X104140000Y-37517605D01*
X103225763Y-38431843D01*
X100127000Y-38431843D01*
X100127000Y-36685000D01*
X102648502Y-36685000D01*
X102503539Y-37075728D01*
X102527740Y-37721939D01*
X102728473Y-38206553D01*
X103046157Y-38252237D01*
X103960395Y-37338000D01*
X103946252Y-37323858D01*
X104125858Y-37144252D01*
X104140000Y-37158395D01*
X104154142Y-37144252D01*
X104333748Y-37323858D01*
X104319605Y-37338000D01*
X105233843Y-38252237D01*
X105551527Y-38206553D01*
X105776461Y-37600272D01*
X105752260Y-36954061D01*
X105640812Y-36685000D01*
X108047257Y-36685000D01*
X107886732Y-37071587D01*
X107886274Y-37596924D01*
X101714320Y-43768878D01*
X101668833Y-43768838D01*
X101325057Y-43910883D01*
X101061808Y-44173673D01*
X100919162Y-44517201D01*
X100918838Y-44889167D01*
X101060883Y-45232943D01*
X101323673Y-45496192D01*
X101667201Y-45638838D01*
X102039167Y-45639162D01*
X102382943Y-45497117D01*
X102530856Y-45349462D01*
X102728473Y-45826553D01*
X102982612Y-45863099D01*
X91439858Y-45863785D01*
X82174789Y-45864336D01*
X82437527Y-45826553D01*
X82662461Y-45220272D01*
X82638260Y-44574061D01*
X82437527Y-44089447D01*
X82119843Y-44043763D01*
X81205605Y-44958000D01*
X81219748Y-44972142D01*
X81040142Y-45151748D01*
X81026000Y-45137605D01*
X81011858Y-45151748D01*
X80832252Y-44972142D01*
X80846395Y-44958000D01*
X79932157Y-44043763D01*
X79614473Y-44089447D01*
X79389539Y-44695728D01*
X79413740Y-45341939D01*
X79614473Y-45826553D01*
X79878159Y-45864472D01*
X76925270Y-45864647D01*
X77075827Y-45714353D01*
X77279268Y-45224413D01*
X77279731Y-44693914D01*
X77077146Y-44203620D01*
X76738275Y-43864157D01*
X80111763Y-43864157D01*
X81026000Y-44778395D01*
X81940237Y-43864157D01*
X81894553Y-43546473D01*
X81288272Y-43321539D01*
X80642061Y-43345740D01*
X80157447Y-43546473D01*
X80111763Y-43864157D01*
X76738275Y-43864157D01*
X76702353Y-43828173D01*
X76212413Y-43624732D01*
X75681914Y-43624269D01*
X75191620Y-43826854D01*
X74816173Y-44201647D01*
X74612732Y-44691587D01*
X74612269Y-45222086D01*
X74814854Y-45712380D01*
X74966972Y-45864764D01*
X74929903Y-45864766D01*
X70999903Y-45865000D01*
X70374223Y-45989494D01*
X69843811Y-46343949D01*
X69489420Y-46874403D01*
X69365000Y-47500097D01*
X69489494Y-48125777D01*
X69843949Y-48656189D01*
X70092441Y-48822204D01*
X69901262Y-48949946D01*
X69579355Y-49431715D01*
X69466316Y-50000000D01*
X69579355Y-50568285D01*
X69901262Y-51050054D01*
X69964175Y-51092091D01*
X69653669Y-51333274D01*
X69309666Y-51937304D01*
X69269233Y-52097290D01*
X69459978Y-52373000D01*
X71873000Y-52373000D01*
X71873000Y-52353000D01*
X72127000Y-52353000D01*
X72127000Y-52373000D01*
X72147000Y-52373000D01*
X72147000Y-52627000D01*
X72127000Y-52627000D01*
X72127000Y-54277000D01*
X73127000Y-54277000D01*
X73797361Y-54093133D01*
X74206128Y-53775627D01*
X74227852Y-53884839D01*
X74230473Y-53888761D01*
X74231450Y-53893379D01*
X74312745Y-54011891D01*
X74392599Y-54131401D01*
X74396524Y-54134024D01*
X74399192Y-54137913D01*
X74519649Y-54216293D01*
X74639161Y-54296148D01*
X74643788Y-54297068D01*
X74647743Y-54299642D01*
X75952499Y-54821544D01*
X75925057Y-54832883D01*
X75661808Y-55095673D01*
X75519162Y-55439201D01*
X75518998Y-55628000D01*
X73660000Y-55628000D01*
X73369160Y-55685852D01*
X73122599Y-55850599D01*
X72250320Y-56722878D01*
X72204833Y-56722838D01*
X71861057Y-56864883D01*
X71597808Y-57127673D01*
X71455162Y-57471201D01*
X71454838Y-57843167D01*
X71596883Y-58186943D01*
X71859673Y-58450192D01*
X72203201Y-58592838D01*
X72575167Y-58593162D01*
X72918943Y-58451117D01*
X73182192Y-58188327D01*
X73324838Y-57844799D01*
X73324879Y-57797923D01*
X73974802Y-57148000D01*
X74757001Y-57148000D01*
X74756838Y-57335167D01*
X74898883Y-57678943D01*
X75161673Y-57942192D01*
X75505201Y-58084838D01*
X75877167Y-58085162D01*
X76220943Y-57943117D01*
X76254118Y-57910000D01*
X88843198Y-57910000D01*
X88198860Y-58554338D01*
X88070799Y-58501162D01*
X87698833Y-58500838D01*
X87355057Y-58642883D01*
X87091808Y-58905673D01*
X86949162Y-59249201D01*
X86948838Y-59621167D01*
X87090883Y-59964943D01*
X87353673Y-60228192D01*
X87697201Y-60370838D01*
X88069167Y-60371162D01*
X88412943Y-60229117D01*
X88459585Y-60182556D01*
X88682839Y-60138148D01*
X88929401Y-59973401D01*
X89251371Y-59651431D01*
X89179400Y-60013255D01*
X89179400Y-60382745D01*
X89293474Y-60956234D01*
X89618330Y-61442415D01*
X89656621Y-61468000D01*
X89618330Y-61493585D01*
X89408000Y-61808366D01*
X89197670Y-61493585D01*
X88711489Y-61168729D01*
X88138000Y-61054655D01*
X87564511Y-61168729D01*
X87078330Y-61493585D01*
X86868000Y-61808366D01*
X86657670Y-61493585D01*
X86171489Y-61168729D01*
X85598000Y-61054655D01*
X85024511Y-61168729D01*
X84538330Y-61493585D01*
X84328000Y-61808366D01*
X84117670Y-61493585D01*
X83631489Y-61168729D01*
X83058000Y-61054655D01*
X82484511Y-61168729D01*
X81998330Y-61493585D01*
X81788000Y-61808366D01*
X81577670Y-61493585D01*
X81091489Y-61168729D01*
X80518000Y-61054655D01*
X79944511Y-61168729D01*
X79458330Y-61493585D01*
X79133474Y-61979766D01*
X79019400Y-62553255D01*
X79019400Y-62922745D01*
X79133474Y-63496234D01*
X79307044Y-63756000D01*
X76000463Y-63756000D01*
X75968327Y-63723808D01*
X75624799Y-63581162D01*
X75252833Y-63580838D01*
X74909057Y-63722883D01*
X74645808Y-63985673D01*
X74503162Y-64329201D01*
X74502838Y-64701167D01*
X74644883Y-65044943D01*
X74907673Y-65308192D01*
X74924068Y-65315000D01*
X72067467Y-65315000D01*
X70736540Y-65050262D01*
X69665429Y-64334568D01*
X68949738Y-63263459D01*
X68897333Y-63000000D01*
X69196966Y-63000000D01*
X69334214Y-63689991D01*
X69725062Y-64274938D01*
X70310009Y-64665786D01*
X71000000Y-64803034D01*
X71689991Y-64665786D01*
X72274938Y-64274938D01*
X72665786Y-63689991D01*
X72803034Y-63000000D01*
X72665786Y-62310009D01*
X72274938Y-61725062D01*
X71689991Y-61334214D01*
X71000000Y-61196966D01*
X70310009Y-61334214D01*
X69725062Y-61725062D01*
X69334214Y-62310009D01*
X69196966Y-63000000D01*
X68897333Y-63000000D01*
X68685000Y-61932533D01*
X68685000Y-52902710D01*
X69269233Y-52902710D01*
X69309666Y-53062696D01*
X69653669Y-53666726D01*
X70202639Y-54093133D01*
X70873000Y-54277000D01*
X71873000Y-54277000D01*
X71873000Y-52627000D01*
X69459978Y-52627000D01*
X69269233Y-52902710D01*
X68685000Y-52902710D01*
X68685000Y-40067467D01*
X68897332Y-39000000D01*
X69196966Y-39000000D01*
X69334214Y-39689991D01*
X69725062Y-40274938D01*
X70310009Y-40665786D01*
X71000000Y-40803034D01*
X71689991Y-40665786D01*
X72274938Y-40274938D01*
X72665786Y-39689991D01*
X72803034Y-39000000D01*
X72665786Y-38310009D01*
X72274938Y-37725062D01*
X71689991Y-37334214D01*
X71000000Y-37196966D01*
X70310009Y-37334214D01*
X69725062Y-37725062D01*
X69334214Y-38310009D01*
X69196966Y-39000000D01*
X68897332Y-39000000D01*
X68949738Y-38736541D01*
X69665429Y-37665432D01*
X70736540Y-36949738D01*
X72067467Y-36685000D01*
X74773257Y-36685000D01*
X74612732Y-37071587D01*
X74612732Y-37071587D01*
G37*
X74612732Y-37071587D02*
X74612269Y-37602086D01*
X74814854Y-38092380D01*
X75189647Y-38467827D01*
X75679587Y-38671268D01*
X76210086Y-38671731D01*
X76700380Y-38469146D01*
X76737748Y-38431843D01*
X80111763Y-38431843D01*
X80157447Y-38749527D01*
X80763728Y-38974461D01*
X81409939Y-38950260D01*
X81894553Y-38749527D01*
X81940237Y-38431843D01*
X81026000Y-37517605D01*
X80111763Y-38431843D01*
X76737748Y-38431843D01*
X77075827Y-38094353D01*
X77279268Y-37604413D01*
X77279731Y-37073914D01*
X77119035Y-36685000D01*
X79534502Y-36685000D01*
X79389539Y-37075728D01*
X79413740Y-37721939D01*
X79614473Y-38206553D01*
X79932157Y-38252237D01*
X80846395Y-37338000D01*
X80832252Y-37323858D01*
X81011858Y-37144252D01*
X81026000Y-37158395D01*
X81040142Y-37144252D01*
X81219748Y-37323858D01*
X81205605Y-37338000D01*
X82119843Y-38252237D01*
X82437527Y-38206553D01*
X82662461Y-37600272D01*
X82638260Y-36954061D01*
X82526812Y-36685000D01*
X83873000Y-36685000D01*
X83873000Y-39000000D01*
X83881685Y-39046159D01*
X83908965Y-39088553D01*
X83950590Y-39116994D01*
X84000000Y-39127000D01*
X100000000Y-39127000D01*
X100046159Y-39118315D01*
X100088553Y-39091035D01*
X100116994Y-39049410D01*
X100127000Y-39000000D01*
X100127000Y-38431843D01*
X103225763Y-38431843D01*
X103271447Y-38749527D01*
X103877728Y-38974461D01*
X104523939Y-38950260D01*
X105008553Y-38749527D01*
X105054237Y-38431843D01*
X104140000Y-37517605D01*
X103225763Y-38431843D01*
X100127000Y-38431843D01*
X100127000Y-36685000D01*
X102648502Y-36685000D01*
X102503539Y-37075728D01*
X102527740Y-37721939D01*
X102728473Y-38206553D01*
X103046157Y-38252237D01*
X103960395Y-37338000D01*
X103946252Y-37323858D01*
X104125858Y-37144252D01*
X104140000Y-37158395D01*
X104154142Y-37144252D01*
X104333748Y-37323858D01*
X104319605Y-37338000D01*
X105233843Y-38252237D01*
X105551527Y-38206553D01*
X105776461Y-37600272D01*
X105752260Y-36954061D01*
X105640812Y-36685000D01*
X108047257Y-36685000D01*
X107886732Y-37071587D01*
X107886274Y-37596924D01*
X101714320Y-43768878D01*
X101668833Y-43768838D01*
X101325057Y-43910883D01*
X101061808Y-44173673D01*
X100919162Y-44517201D01*
X100918838Y-44889167D01*
X101060883Y-45232943D01*
X101323673Y-45496192D01*
X101667201Y-45638838D01*
X102039167Y-45639162D01*
X102382943Y-45497117D01*
X102530856Y-45349462D01*
X102728473Y-45826553D01*
X102982612Y-45863099D01*
X91439858Y-45863785D01*
X82174789Y-45864336D01*
X82437527Y-45826553D01*
X82662461Y-45220272D01*
X82638260Y-44574061D01*
X82437527Y-44089447D01*
X82119843Y-44043763D01*
X81205605Y-44958000D01*
X81219748Y-44972142D01*
X81040142Y-45151748D01*
X81026000Y-45137605D01*
X81011858Y-45151748D01*
X80832252Y-44972142D01*
X80846395Y-44958000D01*
X79932157Y-44043763D01*
X79614473Y-44089447D01*
X79389539Y-44695728D01*
X79413740Y-45341939D01*
X79614473Y-45826553D01*
X79878159Y-45864472D01*
X76925270Y-45864647D01*
X77075827Y-45714353D01*
X77279268Y-45224413D01*
X77279731Y-44693914D01*
X77077146Y-44203620D01*
X76738275Y-43864157D01*
X80111763Y-43864157D01*
X81026000Y-44778395D01*
X81940237Y-43864157D01*
X81894553Y-43546473D01*
X81288272Y-43321539D01*
X80642061Y-43345740D01*
X80157447Y-43546473D01*
X80111763Y-43864157D01*
X76738275Y-43864157D01*
X76702353Y-43828173D01*
X76212413Y-43624732D01*
X75681914Y-43624269D01*
X75191620Y-43826854D01*
X74816173Y-44201647D01*
X74612732Y-44691587D01*
X74612269Y-45222086D01*
X74814854Y-45712380D01*
X74966972Y-45864764D01*
X74929903Y-45864766D01*
X70999903Y-45865000D01*
X70374223Y-45989494D01*
X69843811Y-46343949D01*
X69489420Y-46874403D01*
X69365000Y-47500097D01*
X69489494Y-48125777D01*
X69843949Y-48656189D01*
X70092441Y-48822204D01*
X69901262Y-48949946D01*
X69579355Y-49431715D01*
X69466316Y-50000000D01*
X69579355Y-50568285D01*
X69901262Y-51050054D01*
X69964175Y-51092091D01*
X69653669Y-51333274D01*
X69309666Y-51937304D01*
X69269233Y-52097290D01*
X69459978Y-52373000D01*
X71873000Y-52373000D01*
X71873000Y-52353000D01*
X72127000Y-52353000D01*
X72127000Y-52373000D01*
X72147000Y-52373000D01*
X72147000Y-52627000D01*
X72127000Y-52627000D01*
X72127000Y-54277000D01*
X73127000Y-54277000D01*
X73797361Y-54093133D01*
X74206128Y-53775627D01*
X74227852Y-53884839D01*
X74230473Y-53888761D01*
X74231450Y-53893379D01*
X74312745Y-54011891D01*
X74392599Y-54131401D01*
X74396524Y-54134024D01*
X74399192Y-54137913D01*
X74519649Y-54216293D01*
X74639161Y-54296148D01*
X74643788Y-54297068D01*
X74647743Y-54299642D01*
X75952499Y-54821544D01*
X75925057Y-54832883D01*
X75661808Y-55095673D01*
X75519162Y-55439201D01*
X75518998Y-55628000D01*
X73660000Y-55628000D01*
X73369160Y-55685852D01*
X73122599Y-55850599D01*
X72250320Y-56722878D01*
X72204833Y-56722838D01*
X71861057Y-56864883D01*
X71597808Y-57127673D01*
X71455162Y-57471201D01*
X71454838Y-57843167D01*
X71596883Y-58186943D01*
X71859673Y-58450192D01*
X72203201Y-58592838D01*
X72575167Y-58593162D01*
X72918943Y-58451117D01*
X73182192Y-58188327D01*
X73324838Y-57844799D01*
X73324879Y-57797923D01*
X73974802Y-57148000D01*
X74757001Y-57148000D01*
X74756838Y-57335167D01*
X74898883Y-57678943D01*
X75161673Y-57942192D01*
X75505201Y-58084838D01*
X75877167Y-58085162D01*
X76220943Y-57943117D01*
X76254118Y-57910000D01*
X88843198Y-57910000D01*
X88198860Y-58554338D01*
X88070799Y-58501162D01*
X87698833Y-58500838D01*
X87355057Y-58642883D01*
X87091808Y-58905673D01*
X86949162Y-59249201D01*
X86948838Y-59621167D01*
X87090883Y-59964943D01*
X87353673Y-60228192D01*
X87697201Y-60370838D01*
X88069167Y-60371162D01*
X88412943Y-60229117D01*
X88459585Y-60182556D01*
X88682839Y-60138148D01*
X88929401Y-59973401D01*
X89251371Y-59651431D01*
X89179400Y-60013255D01*
X89179400Y-60382745D01*
X89293474Y-60956234D01*
X89618330Y-61442415D01*
X89656621Y-61468000D01*
X89618330Y-61493585D01*
X89408000Y-61808366D01*
X89197670Y-61493585D01*
X88711489Y-61168729D01*
X88138000Y-61054655D01*
X87564511Y-61168729D01*
X87078330Y-61493585D01*
X86868000Y-61808366D01*
X86657670Y-61493585D01*
X86171489Y-61168729D01*
X85598000Y-61054655D01*
X85024511Y-61168729D01*
X84538330Y-61493585D01*
X84328000Y-61808366D01*
X84117670Y-61493585D01*
X83631489Y-61168729D01*
X83058000Y-61054655D01*
X82484511Y-61168729D01*
X81998330Y-61493585D01*
X81788000Y-61808366D01*
X81577670Y-61493585D01*
X81091489Y-61168729D01*
X80518000Y-61054655D01*
X79944511Y-61168729D01*
X79458330Y-61493585D01*
X79133474Y-61979766D01*
X79019400Y-62553255D01*
X79019400Y-62922745D01*
X79133474Y-63496234D01*
X79307044Y-63756000D01*
X76000463Y-63756000D01*
X75968327Y-63723808D01*
X75624799Y-63581162D01*
X75252833Y-63580838D01*
X74909057Y-63722883D01*
X74645808Y-63985673D01*
X74503162Y-64329201D01*
X74502838Y-64701167D01*
X74644883Y-65044943D01*
X74907673Y-65308192D01*
X74924068Y-65315000D01*
X72067467Y-65315000D01*
X70736540Y-65050262D01*
X69665429Y-64334568D01*
X68949738Y-63263459D01*
X68897333Y-63000000D01*
X69196966Y-63000000D01*
X69334214Y-63689991D01*
X69725062Y-64274938D01*
X70310009Y-64665786D01*
X71000000Y-64803034D01*
X71689991Y-64665786D01*
X72274938Y-64274938D01*
X72665786Y-63689991D01*
X72803034Y-63000000D01*
X72665786Y-62310009D01*
X72274938Y-61725062D01*
X71689991Y-61334214D01*
X71000000Y-61196966D01*
X70310009Y-61334214D01*
X69725062Y-61725062D01*
X69334214Y-62310009D01*
X69196966Y-63000000D01*
X68897333Y-63000000D01*
X68685000Y-61932533D01*
X68685000Y-52902710D01*
X69269233Y-52902710D01*
X69309666Y-53062696D01*
X69653669Y-53666726D01*
X70202639Y-54093133D01*
X70873000Y-54277000D01*
X71873000Y-54277000D01*
X71873000Y-52627000D01*
X69459978Y-52627000D01*
X69269233Y-52902710D01*
X68685000Y-52902710D01*
X68685000Y-40067467D01*
X68897332Y-39000000D01*
X69196966Y-39000000D01*
X69334214Y-39689991D01*
X69725062Y-40274938D01*
X70310009Y-40665786D01*
X71000000Y-40803034D01*
X71689991Y-40665786D01*
X72274938Y-40274938D01*
X72665786Y-39689991D01*
X72803034Y-39000000D01*
X72665786Y-38310009D01*
X72274938Y-37725062D01*
X71689991Y-37334214D01*
X71000000Y-37196966D01*
X70310009Y-37334214D01*
X69725062Y-37725062D01*
X69334214Y-38310009D01*
X69196966Y-39000000D01*
X68897332Y-39000000D01*
X68949738Y-38736541D01*
X69665429Y-37665432D01*
X70736540Y-36949738D01*
X72067467Y-36685000D01*
X74773257Y-36685000D01*
X74612732Y-37071587D01*
G36*
X113218511Y-68784729D02*
X112732330Y-69109585D01*
X112407474Y-69595766D01*
X112293400Y-70169255D01*
X112293400Y-70538745D01*
X112407474Y-71112234D01*
X112732330Y-71598415D01*
X113218511Y-71923271D01*
X113792000Y-72037345D01*
X114365489Y-71923271D01*
X114851670Y-71598415D01*
X115062000Y-71283634D01*
X115272330Y-71598415D01*
X115758511Y-71923271D01*
X116332000Y-72037345D01*
X116905489Y-71923271D01*
X117391670Y-71598415D01*
X117602000Y-71283634D01*
X117812330Y-71598415D01*
X118298511Y-71923271D01*
X118872000Y-72037345D01*
X119445489Y-71923271D01*
X119931670Y-71598415D01*
X120142000Y-71283634D01*
X120352330Y-71598415D01*
X120838511Y-71923271D01*
X121412000Y-72037345D01*
X121985489Y-71923271D01*
X122471670Y-71598415D01*
X122682000Y-71283634D01*
X122892330Y-71598415D01*
X123378511Y-71923271D01*
X123952000Y-72037345D01*
X124525489Y-71923271D01*
X124782940Y-71751248D01*
X124842527Y-71895104D01*
X125103297Y-72155873D01*
X125444008Y-72297000D01*
X126133250Y-72297000D01*
X126365000Y-72065250D01*
X126365000Y-70481000D01*
X126619000Y-70481000D01*
X126619000Y-72065250D01*
X126850750Y-72297000D01*
X127539992Y-72297000D01*
X127880703Y-72155873D01*
X128141473Y-71895104D01*
X128282600Y-71554392D01*
X128282600Y-71000000D01*
X131196966Y-71000000D01*
X131334214Y-71689991D01*
X131725062Y-72274938D01*
X132310009Y-72665786D01*
X133000000Y-72803034D01*
X133689991Y-72665786D01*
X134274938Y-72274938D01*
X134665786Y-71689991D01*
X134803034Y-71000000D01*
X134665786Y-70310009D01*
X134274938Y-69725062D01*
X133689991Y-69334214D01*
X133000000Y-69196966D01*
X132310009Y-69334214D01*
X131725062Y-69725062D01*
X131334214Y-70310009D01*
X131196966Y-71000000D01*
X128282600Y-71000000D01*
X128282600Y-70712750D01*
X128050850Y-70481000D01*
X126619000Y-70481000D01*
X126365000Y-70481000D01*
X126345000Y-70481000D01*
X126345000Y-70227000D01*
X126365000Y-70227000D01*
X126365000Y-70207000D01*
X126619000Y-70207000D01*
X126619000Y-70227000D01*
X128050850Y-70227000D01*
X128282600Y-69995250D01*
X128282600Y-69153608D01*
X128141473Y-68812896D01*
X128013577Y-68685000D01*
X131932533Y-68685000D01*
X133263459Y-68949738D01*
X134334568Y-69665429D01*
X135050262Y-70736540D01*
X135315000Y-72067467D01*
X135315000Y-93932533D01*
X135050262Y-95263460D01*
X134334568Y-96334571D01*
X133263459Y-97050262D01*
X131932533Y-97315000D01*
X108464705Y-97315000D01*
X108478943Y-97309117D01*
X108742192Y-97046327D01*
X108884838Y-96702799D01*
X108885162Y-96330833D01*
X108743117Y-95987057D01*
X108480327Y-95723808D01*
X108136799Y-95581162D01*
X107764833Y-95580838D01*
X107421057Y-95722883D01*
X107387882Y-95756000D01*
X105168600Y-95756000D01*
X105168600Y-95096750D01*
X105071850Y-95000000D01*
X131196966Y-95000000D01*
X131334214Y-95689991D01*
X131725062Y-96274938D01*
X132310009Y-96665786D01*
X133000000Y-96803034D01*
X133689991Y-96665786D01*
X134274938Y-96274938D01*
X134665786Y-95689991D01*
X134803034Y-95000000D01*
X134665786Y-94310009D01*
X134274938Y-93725062D01*
X133689991Y-93334214D01*
X133000000Y-93196966D01*
X132310009Y-93334214D01*
X131725062Y-93725062D01*
X131334214Y-94310009D01*
X131196966Y-95000000D01*
X105071850Y-95000000D01*
X104936850Y-94865000D01*
X103505000Y-94865000D01*
X103505000Y-94885000D01*
X103251000Y-94885000D01*
X103251000Y-94865000D01*
X103231000Y-94865000D01*
X103231000Y-94611000D01*
X103251000Y-94611000D01*
X103251000Y-92325000D01*
X103505000Y-92325000D01*
X103505000Y-94611000D01*
X104936850Y-94611000D01*
X105168600Y-94379250D01*
X105168600Y-93537608D01*
X105139768Y-93468000D01*
X105168600Y-93398392D01*
X105168600Y-92556750D01*
X104936850Y-92325000D01*
X103505000Y-92325000D01*
X103251000Y-92325000D01*
X103231000Y-92325000D01*
X103231000Y-92071000D01*
X103251000Y-92071000D01*
X103251000Y-92051000D01*
X103505000Y-92051000D01*
X103505000Y-92071000D01*
X104936850Y-92071000D01*
X105168600Y-91839250D01*
X105168600Y-90997608D01*
X105033729Y-90672000D01*
X109057198Y-90672000D01*
X110268420Y-91883222D01*
X110183867Y-92009765D01*
X110078397Y-92540000D01*
X110183867Y-93070235D01*
X110484221Y-93519746D01*
X110933732Y-93820100D01*
X111463967Y-93925570D01*
X112536033Y-93925570D01*
X113066268Y-93820100D01*
X113515779Y-93519746D01*
X113816133Y-93070235D01*
X113921603Y-92540000D01*
X113816133Y-92009765D01*
X113515779Y-91560254D01*
X113081384Y-91270000D01*
X113515779Y-90979746D01*
X113669290Y-90750000D01*
X115102560Y-90750000D01*
X115102560Y-93250000D01*
X115146838Y-93485317D01*
X115285910Y-93701441D01*
X115498110Y-93846431D01*
X115750000Y-93897440D01*
X118250000Y-93897440D01*
X118485317Y-93853162D01*
X118701441Y-93714090D01*
X118846431Y-93501890D01*
X118897440Y-93250000D01*
X118897440Y-90750000D01*
X118853162Y-90514683D01*
X118714090Y-90298559D01*
X118501890Y-90153569D01*
X118250000Y-90102560D01*
X115750000Y-90102560D01*
X115514683Y-90146838D01*
X115298559Y-90285910D01*
X115153569Y-90498110D01*
X115102560Y-90750000D01*
X113669290Y-90750000D01*
X113816133Y-90530235D01*
X113921603Y-90000000D01*
X113816133Y-89469765D01*
X113515779Y-89020254D01*
X113336247Y-88900294D01*
X113775134Y-88556419D01*
X114097584Y-87984646D01*
X114131404Y-87847113D01*
X113939341Y-87587000D01*
X112127000Y-87587000D01*
X112127000Y-87607000D01*
X111873000Y-87607000D01*
X111873000Y-87587000D01*
X111853000Y-87587000D01*
X111853000Y-87333000D01*
X111873000Y-87333000D01*
X111873000Y-87313000D01*
X112127000Y-87313000D01*
X112127000Y-87333000D01*
X113939341Y-87333000D01*
X114131404Y-87072887D01*
X114097584Y-86935354D01*
X113775134Y-86363581D01*
X113258421Y-85958728D01*
X112871808Y-85850934D01*
X115152469Y-85045995D01*
X115499744Y-84839879D01*
X115741709Y-84516557D01*
X115841524Y-84125249D01*
X115783995Y-83725531D01*
X115577879Y-83378256D01*
X115254557Y-83136291D01*
X114863249Y-83036476D01*
X114463531Y-83094005D01*
X110660909Y-84436107D01*
X109139122Y-82914320D01*
X109139162Y-82868833D01*
X108997117Y-82525057D01*
X108734327Y-82261808D01*
X108390799Y-82119162D01*
X108018833Y-82118838D01*
X107675057Y-82260883D01*
X107411808Y-82523673D01*
X107269162Y-82867201D01*
X107268838Y-83239167D01*
X107410883Y-83582943D01*
X107673673Y-83846192D01*
X108017201Y-83988838D01*
X108064077Y-83988879D01*
X109314012Y-85238814D01*
X107277512Y-86984385D01*
X107219117Y-86843057D01*
X106956327Y-86579808D01*
X106612799Y-86437162D01*
X106240833Y-86436838D01*
X105897057Y-86578883D01*
X105863882Y-86612000D01*
X104820999Y-86612000D01*
X104821162Y-86424833D01*
X104679117Y-86081057D01*
X104416327Y-85817808D01*
X104072799Y-85675162D01*
X103700833Y-85674838D01*
X103357057Y-85816883D01*
X103323882Y-85850000D01*
X101406802Y-85850000D01*
X99851401Y-84294599D01*
X99604839Y-84129852D01*
X99314000Y-84072000D01*
X92424079Y-84072000D01*
X92475001Y-83816000D01*
X92474955Y-83815769D01*
X92474955Y-81133723D01*
X104564844Y-81133005D01*
X116565903Y-82357603D01*
X116636191Y-82427891D01*
X116833894Y-82562976D01*
X117085056Y-82617460D01*
X117337627Y-82569936D01*
X117384534Y-82538828D01*
X127261440Y-85189526D01*
X125024758Y-86809961D01*
X124944512Y-86896535D01*
X124845387Y-86960635D01*
X121571633Y-90137425D01*
X120933628Y-90401043D01*
X120402907Y-90930839D01*
X120115328Y-91623405D01*
X120114674Y-92373305D01*
X120401043Y-93066372D01*
X120930839Y-93597093D01*
X121623405Y-93884672D01*
X122373305Y-93885326D01*
X123066372Y-93598957D01*
X123597093Y-93069161D01*
X123834036Y-92498539D01*
X126554398Y-89858750D01*
X128823000Y-89858750D01*
X128823000Y-90934392D01*
X128964127Y-91275104D01*
X129224897Y-91535873D01*
X129565608Y-91677000D01*
X130641250Y-91677000D01*
X130873000Y-91445250D01*
X130873000Y-89627000D01*
X131127000Y-89627000D01*
X131127000Y-91445250D01*
X131358750Y-91677000D01*
X132434392Y-91677000D01*
X132775103Y-91535873D01*
X133035873Y-91275104D01*
X133177000Y-90934392D01*
X133177000Y-89858750D01*
X132945250Y-89627000D01*
X131127000Y-89627000D01*
X130873000Y-89627000D01*
X129054750Y-89627000D01*
X128823000Y-89858750D01*
X126554398Y-89858750D01*
X127038339Y-89389143D01*
X128823000Y-88096189D01*
X128823000Y-89141250D01*
X129054750Y-89373000D01*
X130873000Y-89373000D01*
X130873000Y-87554750D01*
X131127000Y-87554750D01*
X131127000Y-89373000D01*
X132945250Y-89373000D01*
X133177000Y-89141250D01*
X133177000Y-88065608D01*
X133035873Y-87724896D01*
X132775103Y-87464127D01*
X132434392Y-87323000D01*
X131358750Y-87323000D01*
X131127000Y-87554750D01*
X130873000Y-87554750D01*
X130641250Y-87323000D01*
X129890230Y-87323000D01*
X131184726Y-86385162D01*
X131373305Y-86385326D01*
X132066372Y-86098957D01*
X132597093Y-85569161D01*
X132884672Y-84876595D01*
X132885326Y-84126695D01*
X132598957Y-83433628D01*
X132069161Y-82902907D01*
X131376595Y-82615328D01*
X130626695Y-82614674D01*
X130491293Y-82670621D01*
X117674684Y-79230984D01*
X117551809Y-79108109D01*
X117354106Y-78973024D01*
X117102944Y-78918540D01*
X116850373Y-78966064D01*
X116675805Y-79081837D01*
X105280677Y-77919069D01*
X105233845Y-77872237D01*
X105551527Y-77826553D01*
X105776461Y-77220272D01*
X105752260Y-76574061D01*
X105551527Y-76089447D01*
X105233843Y-76043763D01*
X104319605Y-76958000D01*
X104333748Y-76972142D01*
X104154142Y-77151748D01*
X104140000Y-77137605D01*
X104125858Y-77151748D01*
X103946252Y-76972142D01*
X103960395Y-76958000D01*
X103946252Y-76943858D01*
X104125858Y-76764252D01*
X104140000Y-76778395D01*
X105054237Y-75864157D01*
X105008553Y-75546473D01*
X104402272Y-75321539D01*
X104307722Y-75325080D01*
X108460000Y-71172802D01*
X108460000Y-75832464D01*
X108090173Y-76201647D01*
X107886732Y-76691587D01*
X107886269Y-77222086D01*
X108088854Y-77712380D01*
X108463647Y-78087827D01*
X108953587Y-78291268D01*
X109484086Y-78291731D01*
X109974380Y-78089146D01*
X110349827Y-77714353D01*
X110380437Y-77640635D01*
X118864297Y-77640635D01*
X119154867Y-78285092D01*
X119669942Y-78769296D01*
X120221365Y-78997703D01*
X120502534Y-78807417D01*
X120502534Y-77359466D01*
X120756534Y-77359466D01*
X120756534Y-78807417D01*
X121037703Y-78997703D01*
X121682160Y-78707133D01*
X122166364Y-78192058D01*
X122394771Y-77640635D01*
X122204485Y-77359466D01*
X120756534Y-77359466D01*
X120502534Y-77359466D01*
X119054583Y-77359466D01*
X118864297Y-77640635D01*
X110380437Y-77640635D01*
X110553268Y-77224413D01*
X110553617Y-76824297D01*
X118864297Y-76824297D01*
X119054583Y-77105466D01*
X120502534Y-77105466D01*
X120502534Y-75657515D01*
X120756534Y-75657515D01*
X120756534Y-77105466D01*
X122204485Y-77105466D01*
X122394771Y-76824297D01*
X122104201Y-76179840D01*
X121589126Y-75695636D01*
X121037703Y-75467229D01*
X120756534Y-75657515D01*
X120502534Y-75657515D01*
X120221365Y-75467229D01*
X119576908Y-75757799D01*
X119092704Y-76272874D01*
X118864297Y-76824297D01*
X110553617Y-76824297D01*
X110553731Y-76693914D01*
X110351146Y-76203620D01*
X109980000Y-75831826D01*
X109980000Y-70463536D01*
X110349827Y-70094353D01*
X110553268Y-69604413D01*
X110553731Y-69073914D01*
X110393035Y-68685000D01*
X113719883Y-68685000D01*
X113218511Y-68784729D01*
X113218511Y-68784729D01*
G37*
X113218511Y-68784729D02*
X112732330Y-69109585D01*
X112407474Y-69595766D01*
X112293400Y-70169255D01*
X112293400Y-70538745D01*
X112407474Y-71112234D01*
X112732330Y-71598415D01*
X113218511Y-71923271D01*
X113792000Y-72037345D01*
X114365489Y-71923271D01*
X114851670Y-71598415D01*
X115062000Y-71283634D01*
X115272330Y-71598415D01*
X115758511Y-71923271D01*
X116332000Y-72037345D01*
X116905489Y-71923271D01*
X117391670Y-71598415D01*
X117602000Y-71283634D01*
X117812330Y-71598415D01*
X118298511Y-71923271D01*
X118872000Y-72037345D01*
X119445489Y-71923271D01*
X119931670Y-71598415D01*
X120142000Y-71283634D01*
X120352330Y-71598415D01*
X120838511Y-71923271D01*
X121412000Y-72037345D01*
X121985489Y-71923271D01*
X122471670Y-71598415D01*
X122682000Y-71283634D01*
X122892330Y-71598415D01*
X123378511Y-71923271D01*
X123952000Y-72037345D01*
X124525489Y-71923271D01*
X124782940Y-71751248D01*
X124842527Y-71895104D01*
X125103297Y-72155873D01*
X125444008Y-72297000D01*
X126133250Y-72297000D01*
X126365000Y-72065250D01*
X126365000Y-70481000D01*
X126619000Y-70481000D01*
X126619000Y-72065250D01*
X126850750Y-72297000D01*
X127539992Y-72297000D01*
X127880703Y-72155873D01*
X128141473Y-71895104D01*
X128282600Y-71554392D01*
X128282600Y-71000000D01*
X131196966Y-71000000D01*
X131334214Y-71689991D01*
X131725062Y-72274938D01*
X132310009Y-72665786D01*
X133000000Y-72803034D01*
X133689991Y-72665786D01*
X134274938Y-72274938D01*
X134665786Y-71689991D01*
X134803034Y-71000000D01*
X134665786Y-70310009D01*
X134274938Y-69725062D01*
X133689991Y-69334214D01*
X133000000Y-69196966D01*
X132310009Y-69334214D01*
X131725062Y-69725062D01*
X131334214Y-70310009D01*
X131196966Y-71000000D01*
X128282600Y-71000000D01*
X128282600Y-70712750D01*
X128050850Y-70481000D01*
X126619000Y-70481000D01*
X126365000Y-70481000D01*
X126345000Y-70481000D01*
X126345000Y-70227000D01*
X126365000Y-70227000D01*
X126365000Y-70207000D01*
X126619000Y-70207000D01*
X126619000Y-70227000D01*
X128050850Y-70227000D01*
X128282600Y-69995250D01*
X128282600Y-69153608D01*
X128141473Y-68812896D01*
X128013577Y-68685000D01*
X131932533Y-68685000D01*
X133263459Y-68949738D01*
X134334568Y-69665429D01*
X135050262Y-70736540D01*
X135315000Y-72067467D01*
X135315000Y-93932533D01*
X135050262Y-95263460D01*
X134334568Y-96334571D01*
X133263459Y-97050262D01*
X131932533Y-97315000D01*
X108464705Y-97315000D01*
X108478943Y-97309117D01*
X108742192Y-97046327D01*
X108884838Y-96702799D01*
X108885162Y-96330833D01*
X108743117Y-95987057D01*
X108480327Y-95723808D01*
X108136799Y-95581162D01*
X107764833Y-95580838D01*
X107421057Y-95722883D01*
X107387882Y-95756000D01*
X105168600Y-95756000D01*
X105168600Y-95096750D01*
X105071850Y-95000000D01*
X131196966Y-95000000D01*
X131334214Y-95689991D01*
X131725062Y-96274938D01*
X132310009Y-96665786D01*
X133000000Y-96803034D01*
X133689991Y-96665786D01*
X134274938Y-96274938D01*
X134665786Y-95689991D01*
X134803034Y-95000000D01*
X134665786Y-94310009D01*
X134274938Y-93725062D01*
X133689991Y-93334214D01*
X133000000Y-93196966D01*
X132310009Y-93334214D01*
X131725062Y-93725062D01*
X131334214Y-94310009D01*
X131196966Y-95000000D01*
X105071850Y-95000000D01*
X104936850Y-94865000D01*
X103505000Y-94865000D01*
X103505000Y-94885000D01*
X103251000Y-94885000D01*
X103251000Y-94865000D01*
X103231000Y-94865000D01*
X103231000Y-94611000D01*
X103251000Y-94611000D01*
X103251000Y-92325000D01*
X103505000Y-92325000D01*
X103505000Y-94611000D01*
X104936850Y-94611000D01*
X105168600Y-94379250D01*
X105168600Y-93537608D01*
X105139768Y-93468000D01*
X105168600Y-93398392D01*
X105168600Y-92556750D01*
X104936850Y-92325000D01*
X103505000Y-92325000D01*
X103251000Y-92325000D01*
X103231000Y-92325000D01*
X103231000Y-92071000D01*
X103251000Y-92071000D01*
X103251000Y-92051000D01*
X103505000Y-92051000D01*
X103505000Y-92071000D01*
X104936850Y-92071000D01*
X105168600Y-91839250D01*
X105168600Y-90997608D01*
X105033729Y-90672000D01*
X109057198Y-90672000D01*
X110268420Y-91883222D01*
X110183867Y-92009765D01*
X110078397Y-92540000D01*
X110183867Y-93070235D01*
X110484221Y-93519746D01*
X110933732Y-93820100D01*
X111463967Y-93925570D01*
X112536033Y-93925570D01*
X113066268Y-93820100D01*
X113515779Y-93519746D01*
X113816133Y-93070235D01*
X113921603Y-92540000D01*
X113816133Y-92009765D01*
X113515779Y-91560254D01*
X113081384Y-91270000D01*
X113515779Y-90979746D01*
X113669290Y-90750000D01*
X115102560Y-90750000D01*
X115102560Y-93250000D01*
X115146838Y-93485317D01*
X115285910Y-93701441D01*
X115498110Y-93846431D01*
X115750000Y-93897440D01*
X118250000Y-93897440D01*
X118485317Y-93853162D01*
X118701441Y-93714090D01*
X118846431Y-93501890D01*
X118897440Y-93250000D01*
X118897440Y-90750000D01*
X118853162Y-90514683D01*
X118714090Y-90298559D01*
X118501890Y-90153569D01*
X118250000Y-90102560D01*
X115750000Y-90102560D01*
X115514683Y-90146838D01*
X115298559Y-90285910D01*
X115153569Y-90498110D01*
X115102560Y-90750000D01*
X113669290Y-90750000D01*
X113816133Y-90530235D01*
X113921603Y-90000000D01*
X113816133Y-89469765D01*
X113515779Y-89020254D01*
X113336247Y-88900294D01*
X113775134Y-88556419D01*
X114097584Y-87984646D01*
X114131404Y-87847113D01*
X113939341Y-87587000D01*
X112127000Y-87587000D01*
X112127000Y-87607000D01*
X111873000Y-87607000D01*
X111873000Y-87587000D01*
X111853000Y-87587000D01*
X111853000Y-87333000D01*
X111873000Y-87333000D01*
X111873000Y-87313000D01*
X112127000Y-87313000D01*
X112127000Y-87333000D01*
X113939341Y-87333000D01*
X114131404Y-87072887D01*
X114097584Y-86935354D01*
X113775134Y-86363581D01*
X113258421Y-85958728D01*
X112871808Y-85850934D01*
X115152469Y-85045995D01*
X115499744Y-84839879D01*
X115741709Y-84516557D01*
X115841524Y-84125249D01*
X115783995Y-83725531D01*
X115577879Y-83378256D01*
X115254557Y-83136291D01*
X114863249Y-83036476D01*
X114463531Y-83094005D01*
X110660909Y-84436107D01*
X109139122Y-82914320D01*
X109139162Y-82868833D01*
X108997117Y-82525057D01*
X108734327Y-82261808D01*
X108390799Y-82119162D01*
X108018833Y-82118838D01*
X107675057Y-82260883D01*
X107411808Y-82523673D01*
X107269162Y-82867201D01*
X107268838Y-83239167D01*
X107410883Y-83582943D01*
X107673673Y-83846192D01*
X108017201Y-83988838D01*
X108064077Y-83988879D01*
X109314012Y-85238814D01*
X107277512Y-86984385D01*
X107219117Y-86843057D01*
X106956327Y-86579808D01*
X106612799Y-86437162D01*
X106240833Y-86436838D01*
X105897057Y-86578883D01*
X105863882Y-86612000D01*
X104820999Y-86612000D01*
X104821162Y-86424833D01*
X104679117Y-86081057D01*
X104416327Y-85817808D01*
X104072799Y-85675162D01*
X103700833Y-85674838D01*
X103357057Y-85816883D01*
X103323882Y-85850000D01*
X101406802Y-85850000D01*
X99851401Y-84294599D01*
X99604839Y-84129852D01*
X99314000Y-84072000D01*
X92424079Y-84072000D01*
X92475001Y-83816000D01*
X92474955Y-83815769D01*
X92474955Y-81133723D01*
X104564844Y-81133005D01*
X116565903Y-82357603D01*
X116636191Y-82427891D01*
X116833894Y-82562976D01*
X117085056Y-82617460D01*
X117337627Y-82569936D01*
X117384534Y-82538828D01*
X127261440Y-85189526D01*
X125024758Y-86809961D01*
X124944512Y-86896535D01*
X124845387Y-86960635D01*
X121571633Y-90137425D01*
X120933628Y-90401043D01*
X120402907Y-90930839D01*
X120115328Y-91623405D01*
X120114674Y-92373305D01*
X120401043Y-93066372D01*
X120930839Y-93597093D01*
X121623405Y-93884672D01*
X122373305Y-93885326D01*
X123066372Y-93598957D01*
X123597093Y-93069161D01*
X123834036Y-92498539D01*
X126554398Y-89858750D01*
X128823000Y-89858750D01*
X128823000Y-90934392D01*
X128964127Y-91275104D01*
X129224897Y-91535873D01*
X129565608Y-91677000D01*
X130641250Y-91677000D01*
X130873000Y-91445250D01*
X130873000Y-89627000D01*
X131127000Y-89627000D01*
X131127000Y-91445250D01*
X131358750Y-91677000D01*
X132434392Y-91677000D01*
X132775103Y-91535873D01*
X133035873Y-91275104D01*
X133177000Y-90934392D01*
X133177000Y-89858750D01*
X132945250Y-89627000D01*
X131127000Y-89627000D01*
X130873000Y-89627000D01*
X129054750Y-89627000D01*
X128823000Y-89858750D01*
X126554398Y-89858750D01*
X127038339Y-89389143D01*
X128823000Y-88096189D01*
X128823000Y-89141250D01*
X129054750Y-89373000D01*
X130873000Y-89373000D01*
X130873000Y-87554750D01*
X131127000Y-87554750D01*
X131127000Y-89373000D01*
X132945250Y-89373000D01*
X133177000Y-89141250D01*
X133177000Y-88065608D01*
X133035873Y-87724896D01*
X132775103Y-87464127D01*
X132434392Y-87323000D01*
X131358750Y-87323000D01*
X131127000Y-87554750D01*
X130873000Y-87554750D01*
X130641250Y-87323000D01*
X129890230Y-87323000D01*
X131184726Y-86385162D01*
X131373305Y-86385326D01*
X132066372Y-86098957D01*
X132597093Y-85569161D01*
X132884672Y-84876595D01*
X132885326Y-84126695D01*
X132598957Y-83433628D01*
X132069161Y-82902907D01*
X131376595Y-82615328D01*
X130626695Y-82614674D01*
X130491293Y-82670621D01*
X117674684Y-79230984D01*
X117551809Y-79108109D01*
X117354106Y-78973024D01*
X117102944Y-78918540D01*
X116850373Y-78966064D01*
X116675805Y-79081837D01*
X105280677Y-77919069D01*
X105233845Y-77872237D01*
X105551527Y-77826553D01*
X105776461Y-77220272D01*
X105752260Y-76574061D01*
X105551527Y-76089447D01*
X105233843Y-76043763D01*
X104319605Y-76958000D01*
X104333748Y-76972142D01*
X104154142Y-77151748D01*
X104140000Y-77137605D01*
X104125858Y-77151748D01*
X103946252Y-76972142D01*
X103960395Y-76958000D01*
X103946252Y-76943858D01*
X104125858Y-76764252D01*
X104140000Y-76778395D01*
X105054237Y-75864157D01*
X105008553Y-75546473D01*
X104402272Y-75321539D01*
X104307722Y-75325080D01*
X108460000Y-71172802D01*
X108460000Y-75832464D01*
X108090173Y-76201647D01*
X107886732Y-76691587D01*
X107886269Y-77222086D01*
X108088854Y-77712380D01*
X108463647Y-78087827D01*
X108953587Y-78291268D01*
X109484086Y-78291731D01*
X109974380Y-78089146D01*
X110349827Y-77714353D01*
X110380437Y-77640635D01*
X118864297Y-77640635D01*
X119154867Y-78285092D01*
X119669942Y-78769296D01*
X120221365Y-78997703D01*
X120502534Y-78807417D01*
X120502534Y-77359466D01*
X120756534Y-77359466D01*
X120756534Y-78807417D01*
X121037703Y-78997703D01*
X121682160Y-78707133D01*
X122166364Y-78192058D01*
X122394771Y-77640635D01*
X122204485Y-77359466D01*
X120756534Y-77359466D01*
X120502534Y-77359466D01*
X119054583Y-77359466D01*
X118864297Y-77640635D01*
X110380437Y-77640635D01*
X110553268Y-77224413D01*
X110553617Y-76824297D01*
X118864297Y-76824297D01*
X119054583Y-77105466D01*
X120502534Y-77105466D01*
X120502534Y-75657515D01*
X120756534Y-75657515D01*
X120756534Y-77105466D01*
X122204485Y-77105466D01*
X122394771Y-76824297D01*
X122104201Y-76179840D01*
X121589126Y-75695636D01*
X121037703Y-75467229D01*
X120756534Y-75657515D01*
X120502534Y-75657515D01*
X120221365Y-75467229D01*
X119576908Y-75757799D01*
X119092704Y-76272874D01*
X118864297Y-76824297D01*
X110553617Y-76824297D01*
X110553731Y-76693914D01*
X110351146Y-76203620D01*
X109980000Y-75831826D01*
X109980000Y-70463536D01*
X110349827Y-70094353D01*
X110553268Y-69604413D01*
X110553731Y-69073914D01*
X110393035Y-68685000D01*
X113719883Y-68685000D01*
X113218511Y-68784729D01*
G36*
X74612732Y-69071587D02*
X74612269Y-69602086D01*
X74814854Y-70092380D01*
X75189647Y-70467827D01*
X75679587Y-70671268D01*
X76210086Y-70671731D01*
X76700380Y-70469146D01*
X76737748Y-70431843D01*
X80111763Y-70431843D01*
X80157447Y-70749527D01*
X80763728Y-70974461D01*
X81409939Y-70950260D01*
X81894553Y-70749527D01*
X81940237Y-70431843D01*
X81026000Y-69517605D01*
X80111763Y-70431843D01*
X76737748Y-70431843D01*
X77075827Y-70094353D01*
X77279268Y-69604413D01*
X77279731Y-69073914D01*
X77119035Y-68685000D01*
X79534502Y-68685000D01*
X79389539Y-69075728D01*
X79413740Y-69721939D01*
X79614473Y-70206553D01*
X79932157Y-70252237D01*
X80846395Y-69338000D01*
X80832252Y-69323858D01*
X81011858Y-69144252D01*
X81026000Y-69158395D01*
X81040142Y-69144252D01*
X81219748Y-69323858D01*
X81205605Y-69338000D01*
X82119843Y-70252237D01*
X82437527Y-70206553D01*
X82662461Y-69600272D01*
X82638260Y-68954061D01*
X82526812Y-68685000D01*
X83873000Y-68685000D01*
X83873000Y-71000000D01*
X83881685Y-71046159D01*
X83908965Y-71088553D01*
X83950590Y-71116994D01*
X84000000Y-71127000D01*
X100000000Y-71127000D01*
X100046159Y-71118315D01*
X100088553Y-71091035D01*
X100116994Y-71049410D01*
X100127000Y-71000000D01*
X100127000Y-70431843D01*
X103225763Y-70431843D01*
X103271447Y-70749527D01*
X103877728Y-70974461D01*
X104523939Y-70950260D01*
X105008553Y-70749527D01*
X105054237Y-70431843D01*
X104140000Y-69517605D01*
X103225763Y-70431843D01*
X100127000Y-70431843D01*
X100127000Y-68685000D01*
X102648502Y-68685000D01*
X102503539Y-69075728D01*
X102527740Y-69721939D01*
X102728473Y-70206553D01*
X103046157Y-70252237D01*
X103960395Y-69338000D01*
X103946252Y-69323858D01*
X104125858Y-69144252D01*
X104140000Y-69158395D01*
X104154142Y-69144252D01*
X104333748Y-69323858D01*
X104319605Y-69338000D01*
X105233843Y-70252237D01*
X105551527Y-70206553D01*
X105776461Y-69600272D01*
X105752260Y-68954061D01*
X105640812Y-68685000D01*
X108047257Y-68685000D01*
X107886732Y-69071587D01*
X107886274Y-69596924D01*
X101714320Y-75768878D01*
X101668833Y-75768838D01*
X101325057Y-75910883D01*
X101061808Y-76173673D01*
X100919162Y-76517201D01*
X100918838Y-76889167D01*
X101060883Y-77232943D01*
X101323673Y-77496192D01*
X101667201Y-77638838D01*
X102039167Y-77639162D01*
X102382943Y-77497117D01*
X102530856Y-77349462D01*
X102728473Y-77826553D01*
X102982612Y-77863099D01*
X91439858Y-77863785D01*
X82174789Y-77864336D01*
X82437527Y-77826553D01*
X82662461Y-77220272D01*
X82638260Y-76574061D01*
X82437527Y-76089447D01*
X82119843Y-76043763D01*
X81205605Y-76958000D01*
X81219748Y-76972142D01*
X81040142Y-77151748D01*
X81026000Y-77137605D01*
X81011858Y-77151748D01*
X80832252Y-76972142D01*
X80846395Y-76958000D01*
X79932157Y-76043763D01*
X79614473Y-76089447D01*
X79389539Y-76695728D01*
X79413740Y-77341939D01*
X79614473Y-77826553D01*
X79878159Y-77864472D01*
X76925270Y-77864647D01*
X77075827Y-77714353D01*
X77279268Y-77224413D01*
X77279731Y-76693914D01*
X77077146Y-76203620D01*
X76738275Y-75864157D01*
X80111763Y-75864157D01*
X81026000Y-76778395D01*
X81940237Y-75864157D01*
X81894553Y-75546473D01*
X81288272Y-75321539D01*
X80642061Y-75345740D01*
X80157447Y-75546473D01*
X80111763Y-75864157D01*
X76738275Y-75864157D01*
X76702353Y-75828173D01*
X76212413Y-75624732D01*
X75681914Y-75624269D01*
X75191620Y-75826854D01*
X74816173Y-76201647D01*
X74612732Y-76691587D01*
X74612269Y-77222086D01*
X74814854Y-77712380D01*
X74966972Y-77864764D01*
X74929903Y-77864766D01*
X70999903Y-77865000D01*
X70374223Y-77989494D01*
X69843811Y-78343949D01*
X69489420Y-78874403D01*
X69365000Y-79500097D01*
X69489494Y-80125777D01*
X69843949Y-80656189D01*
X70092441Y-80822204D01*
X69901262Y-80949946D01*
X69579355Y-81431715D01*
X69466316Y-82000000D01*
X69579355Y-82568285D01*
X69901262Y-83050054D01*
X69964175Y-83092091D01*
X69653669Y-83333274D01*
X69309666Y-83937304D01*
X69269233Y-84097290D01*
X69459978Y-84373000D01*
X71873000Y-84373000D01*
X71873000Y-84353000D01*
X72127000Y-84353000D01*
X72127000Y-84373000D01*
X72147000Y-84373000D01*
X72147000Y-84627000D01*
X72127000Y-84627000D01*
X72127000Y-86277000D01*
X73127000Y-86277000D01*
X73797361Y-86093133D01*
X74206128Y-85775627D01*
X74227852Y-85884839D01*
X74230473Y-85888761D01*
X74231450Y-85893379D01*
X74312745Y-86011891D01*
X74392599Y-86131401D01*
X74396524Y-86134024D01*
X74399192Y-86137913D01*
X74519649Y-86216293D01*
X74639161Y-86296148D01*
X74643788Y-86297068D01*
X74647743Y-86299642D01*
X75952499Y-86821544D01*
X75925057Y-86832883D01*
X75661808Y-87095673D01*
X75519162Y-87439201D01*
X75518998Y-87628000D01*
X73660000Y-87628000D01*
X73369160Y-87685852D01*
X73122599Y-87850599D01*
X72250320Y-88722878D01*
X72204833Y-88722838D01*
X71861057Y-88864883D01*
X71597808Y-89127673D01*
X71455162Y-89471201D01*
X71454838Y-89843167D01*
X71596883Y-90186943D01*
X71859673Y-90450192D01*
X72203201Y-90592838D01*
X72575167Y-90593162D01*
X72918943Y-90451117D01*
X73182192Y-90188327D01*
X73324838Y-89844799D01*
X73324879Y-89797923D01*
X73974802Y-89148000D01*
X74757001Y-89148000D01*
X74756838Y-89335167D01*
X74898883Y-89678943D01*
X75161673Y-89942192D01*
X75505201Y-90084838D01*
X75877167Y-90085162D01*
X76220943Y-89943117D01*
X76254118Y-89910000D01*
X88843198Y-89910000D01*
X88198860Y-90554338D01*
X88070799Y-90501162D01*
X87698833Y-90500838D01*
X87355057Y-90642883D01*
X87091808Y-90905673D01*
X86949162Y-91249201D01*
X86948838Y-91621167D01*
X87090883Y-91964943D01*
X87353673Y-92228192D01*
X87697201Y-92370838D01*
X88069167Y-92371162D01*
X88412943Y-92229117D01*
X88459585Y-92182556D01*
X88682839Y-92138148D01*
X88929401Y-91973401D01*
X89251371Y-91651431D01*
X89179400Y-92013255D01*
X89179400Y-92382745D01*
X89293474Y-92956234D01*
X89618330Y-93442415D01*
X89656621Y-93468000D01*
X89618330Y-93493585D01*
X89408000Y-93808366D01*
X89197670Y-93493585D01*
X88711489Y-93168729D01*
X88138000Y-93054655D01*
X87564511Y-93168729D01*
X87078330Y-93493585D01*
X86868000Y-93808366D01*
X86657670Y-93493585D01*
X86171489Y-93168729D01*
X85598000Y-93054655D01*
X85024511Y-93168729D01*
X84538330Y-93493585D01*
X84328000Y-93808366D01*
X84117670Y-93493585D01*
X83631489Y-93168729D01*
X83058000Y-93054655D01*
X82484511Y-93168729D01*
X81998330Y-93493585D01*
X81788000Y-93808366D01*
X81577670Y-93493585D01*
X81091489Y-93168729D01*
X80518000Y-93054655D01*
X79944511Y-93168729D01*
X79458330Y-93493585D01*
X79133474Y-93979766D01*
X79019400Y-94553255D01*
X79019400Y-94922745D01*
X79133474Y-95496234D01*
X79307044Y-95756000D01*
X76000463Y-95756000D01*
X75968327Y-95723808D01*
X75624799Y-95581162D01*
X75252833Y-95580838D01*
X74909057Y-95722883D01*
X74645808Y-95985673D01*
X74503162Y-96329201D01*
X74502838Y-96701167D01*
X74644883Y-97044943D01*
X74907673Y-97308192D01*
X74924068Y-97315000D01*
X72067467Y-97315000D01*
X70736540Y-97050262D01*
X69665429Y-96334568D01*
X68949738Y-95263459D01*
X68897333Y-95000000D01*
X69196966Y-95000000D01*
X69334214Y-95689991D01*
X69725062Y-96274938D01*
X70310009Y-96665786D01*
X71000000Y-96803034D01*
X71689991Y-96665786D01*
X72274938Y-96274938D01*
X72665786Y-95689991D01*
X72803034Y-95000000D01*
X72665786Y-94310009D01*
X72274938Y-93725062D01*
X71689991Y-93334214D01*
X71000000Y-93196966D01*
X70310009Y-93334214D01*
X69725062Y-93725062D01*
X69334214Y-94310009D01*
X69196966Y-95000000D01*
X68897333Y-95000000D01*
X68685000Y-93932533D01*
X68685000Y-84902710D01*
X69269233Y-84902710D01*
X69309666Y-85062696D01*
X69653669Y-85666726D01*
X70202639Y-86093133D01*
X70873000Y-86277000D01*
X71873000Y-86277000D01*
X71873000Y-84627000D01*
X69459978Y-84627000D01*
X69269233Y-84902710D01*
X68685000Y-84902710D01*
X68685000Y-72067467D01*
X68897332Y-71000000D01*
X69196966Y-71000000D01*
X69334214Y-71689991D01*
X69725062Y-72274938D01*
X70310009Y-72665786D01*
X71000000Y-72803034D01*
X71689991Y-72665786D01*
X72274938Y-72274938D01*
X72665786Y-71689991D01*
X72803034Y-71000000D01*
X72665786Y-70310009D01*
X72274938Y-69725062D01*
X71689991Y-69334214D01*
X71000000Y-69196966D01*
X70310009Y-69334214D01*
X69725062Y-69725062D01*
X69334214Y-70310009D01*
X69196966Y-71000000D01*
X68897332Y-71000000D01*
X68949738Y-70736541D01*
X69665429Y-69665432D01*
X70736540Y-68949738D01*
X72067467Y-68685000D01*
X74773257Y-68685000D01*
X74612732Y-69071587D01*
X74612732Y-69071587D01*
G37*
X74612732Y-69071587D02*
X74612269Y-69602086D01*
X74814854Y-70092380D01*
X75189647Y-70467827D01*
X75679587Y-70671268D01*
X76210086Y-70671731D01*
X76700380Y-70469146D01*
X76737748Y-70431843D01*
X80111763Y-70431843D01*
X80157447Y-70749527D01*
X80763728Y-70974461D01*
X81409939Y-70950260D01*
X81894553Y-70749527D01*
X81940237Y-70431843D01*
X81026000Y-69517605D01*
X80111763Y-70431843D01*
X76737748Y-70431843D01*
X77075827Y-70094353D01*
X77279268Y-69604413D01*
X77279731Y-69073914D01*
X77119035Y-68685000D01*
X79534502Y-68685000D01*
X79389539Y-69075728D01*
X79413740Y-69721939D01*
X79614473Y-70206553D01*
X79932157Y-70252237D01*
X80846395Y-69338000D01*
X80832252Y-69323858D01*
X81011858Y-69144252D01*
X81026000Y-69158395D01*
X81040142Y-69144252D01*
X81219748Y-69323858D01*
X81205605Y-69338000D01*
X82119843Y-70252237D01*
X82437527Y-70206553D01*
X82662461Y-69600272D01*
X82638260Y-68954061D01*
X82526812Y-68685000D01*
X83873000Y-68685000D01*
X83873000Y-71000000D01*
X83881685Y-71046159D01*
X83908965Y-71088553D01*
X83950590Y-71116994D01*
X84000000Y-71127000D01*
X100000000Y-71127000D01*
X100046159Y-71118315D01*
X100088553Y-71091035D01*
X100116994Y-71049410D01*
X100127000Y-71000000D01*
X100127000Y-70431843D01*
X103225763Y-70431843D01*
X103271447Y-70749527D01*
X103877728Y-70974461D01*
X104523939Y-70950260D01*
X105008553Y-70749527D01*
X105054237Y-70431843D01*
X104140000Y-69517605D01*
X103225763Y-70431843D01*
X100127000Y-70431843D01*
X100127000Y-68685000D01*
X102648502Y-68685000D01*
X102503539Y-69075728D01*
X102527740Y-69721939D01*
X102728473Y-70206553D01*
X103046157Y-70252237D01*
X103960395Y-69338000D01*
X103946252Y-69323858D01*
X104125858Y-69144252D01*
X104140000Y-69158395D01*
X104154142Y-69144252D01*
X104333748Y-69323858D01*
X104319605Y-69338000D01*
X105233843Y-70252237D01*
X105551527Y-70206553D01*
X105776461Y-69600272D01*
X105752260Y-68954061D01*
X105640812Y-68685000D01*
X108047257Y-68685000D01*
X107886732Y-69071587D01*
X107886274Y-69596924D01*
X101714320Y-75768878D01*
X101668833Y-75768838D01*
X101325057Y-75910883D01*
X101061808Y-76173673D01*
X100919162Y-76517201D01*
X100918838Y-76889167D01*
X101060883Y-77232943D01*
X101323673Y-77496192D01*
X101667201Y-77638838D01*
X102039167Y-77639162D01*
X102382943Y-77497117D01*
X102530856Y-77349462D01*
X102728473Y-77826553D01*
X102982612Y-77863099D01*
X91439858Y-77863785D01*
X82174789Y-77864336D01*
X82437527Y-77826553D01*
X82662461Y-77220272D01*
X82638260Y-76574061D01*
X82437527Y-76089447D01*
X82119843Y-76043763D01*
X81205605Y-76958000D01*
X81219748Y-76972142D01*
X81040142Y-77151748D01*
X81026000Y-77137605D01*
X81011858Y-77151748D01*
X80832252Y-76972142D01*
X80846395Y-76958000D01*
X79932157Y-76043763D01*
X79614473Y-76089447D01*
X79389539Y-76695728D01*
X79413740Y-77341939D01*
X79614473Y-77826553D01*
X79878159Y-77864472D01*
X76925270Y-77864647D01*
X77075827Y-77714353D01*
X77279268Y-77224413D01*
X77279731Y-76693914D01*
X77077146Y-76203620D01*
X76738275Y-75864157D01*
X80111763Y-75864157D01*
X81026000Y-76778395D01*
X81940237Y-75864157D01*
X81894553Y-75546473D01*
X81288272Y-75321539D01*
X80642061Y-75345740D01*
X80157447Y-75546473D01*
X80111763Y-75864157D01*
X76738275Y-75864157D01*
X76702353Y-75828173D01*
X76212413Y-75624732D01*
X75681914Y-75624269D01*
X75191620Y-75826854D01*
X74816173Y-76201647D01*
X74612732Y-76691587D01*
X74612269Y-77222086D01*
X74814854Y-77712380D01*
X74966972Y-77864764D01*
X74929903Y-77864766D01*
X70999903Y-77865000D01*
X70374223Y-77989494D01*
X69843811Y-78343949D01*
X69489420Y-78874403D01*
X69365000Y-79500097D01*
X69489494Y-80125777D01*
X69843949Y-80656189D01*
X70092441Y-80822204D01*
X69901262Y-80949946D01*
X69579355Y-81431715D01*
X69466316Y-82000000D01*
X69579355Y-82568285D01*
X69901262Y-83050054D01*
X69964175Y-83092091D01*
X69653669Y-83333274D01*
X69309666Y-83937304D01*
X69269233Y-84097290D01*
X69459978Y-84373000D01*
X71873000Y-84373000D01*
X71873000Y-84353000D01*
X72127000Y-84353000D01*
X72127000Y-84373000D01*
X72147000Y-84373000D01*
X72147000Y-84627000D01*
X72127000Y-84627000D01*
X72127000Y-86277000D01*
X73127000Y-86277000D01*
X73797361Y-86093133D01*
X74206128Y-85775627D01*
X74227852Y-85884839D01*
X74230473Y-85888761D01*
X74231450Y-85893379D01*
X74312745Y-86011891D01*
X74392599Y-86131401D01*
X74396524Y-86134024D01*
X74399192Y-86137913D01*
X74519649Y-86216293D01*
X74639161Y-86296148D01*
X74643788Y-86297068D01*
X74647743Y-86299642D01*
X75952499Y-86821544D01*
X75925057Y-86832883D01*
X75661808Y-87095673D01*
X75519162Y-87439201D01*
X75518998Y-87628000D01*
X73660000Y-87628000D01*
X73369160Y-87685852D01*
X73122599Y-87850599D01*
X72250320Y-88722878D01*
X72204833Y-88722838D01*
X71861057Y-88864883D01*
X71597808Y-89127673D01*
X71455162Y-89471201D01*
X71454838Y-89843167D01*
X71596883Y-90186943D01*
X71859673Y-90450192D01*
X72203201Y-90592838D01*
X72575167Y-90593162D01*
X72918943Y-90451117D01*
X73182192Y-90188327D01*
X73324838Y-89844799D01*
X73324879Y-89797923D01*
X73974802Y-89148000D01*
X74757001Y-89148000D01*
X74756838Y-89335167D01*
X74898883Y-89678943D01*
X75161673Y-89942192D01*
X75505201Y-90084838D01*
X75877167Y-90085162D01*
X76220943Y-89943117D01*
X76254118Y-89910000D01*
X88843198Y-89910000D01*
X88198860Y-90554338D01*
X88070799Y-90501162D01*
X87698833Y-90500838D01*
X87355057Y-90642883D01*
X87091808Y-90905673D01*
X86949162Y-91249201D01*
X86948838Y-91621167D01*
X87090883Y-91964943D01*
X87353673Y-92228192D01*
X87697201Y-92370838D01*
X88069167Y-92371162D01*
X88412943Y-92229117D01*
X88459585Y-92182556D01*
X88682839Y-92138148D01*
X88929401Y-91973401D01*
X89251371Y-91651431D01*
X89179400Y-92013255D01*
X89179400Y-92382745D01*
X89293474Y-92956234D01*
X89618330Y-93442415D01*
X89656621Y-93468000D01*
X89618330Y-93493585D01*
X89408000Y-93808366D01*
X89197670Y-93493585D01*
X88711489Y-93168729D01*
X88138000Y-93054655D01*
X87564511Y-93168729D01*
X87078330Y-93493585D01*
X86868000Y-93808366D01*
X86657670Y-93493585D01*
X86171489Y-93168729D01*
X85598000Y-93054655D01*
X85024511Y-93168729D01*
X84538330Y-93493585D01*
X84328000Y-93808366D01*
X84117670Y-93493585D01*
X83631489Y-93168729D01*
X83058000Y-93054655D01*
X82484511Y-93168729D01*
X81998330Y-93493585D01*
X81788000Y-93808366D01*
X81577670Y-93493585D01*
X81091489Y-93168729D01*
X80518000Y-93054655D01*
X79944511Y-93168729D01*
X79458330Y-93493585D01*
X79133474Y-93979766D01*
X79019400Y-94553255D01*
X79019400Y-94922745D01*
X79133474Y-95496234D01*
X79307044Y-95756000D01*
X76000463Y-95756000D01*
X75968327Y-95723808D01*
X75624799Y-95581162D01*
X75252833Y-95580838D01*
X74909057Y-95722883D01*
X74645808Y-95985673D01*
X74503162Y-96329201D01*
X74502838Y-96701167D01*
X74644883Y-97044943D01*
X74907673Y-97308192D01*
X74924068Y-97315000D01*
X72067467Y-97315000D01*
X70736540Y-97050262D01*
X69665429Y-96334568D01*
X68949738Y-95263459D01*
X68897333Y-95000000D01*
X69196966Y-95000000D01*
X69334214Y-95689991D01*
X69725062Y-96274938D01*
X70310009Y-96665786D01*
X71000000Y-96803034D01*
X71689991Y-96665786D01*
X72274938Y-96274938D01*
X72665786Y-95689991D01*
X72803034Y-95000000D01*
X72665786Y-94310009D01*
X72274938Y-93725062D01*
X71689991Y-93334214D01*
X71000000Y-93196966D01*
X70310009Y-93334214D01*
X69725062Y-93725062D01*
X69334214Y-94310009D01*
X69196966Y-95000000D01*
X68897333Y-95000000D01*
X68685000Y-93932533D01*
X68685000Y-84902710D01*
X69269233Y-84902710D01*
X69309666Y-85062696D01*
X69653669Y-85666726D01*
X70202639Y-86093133D01*
X70873000Y-86277000D01*
X71873000Y-86277000D01*
X71873000Y-84627000D01*
X69459978Y-84627000D01*
X69269233Y-84902710D01*
X68685000Y-84902710D01*
X68685000Y-72067467D01*
X68897332Y-71000000D01*
X69196966Y-71000000D01*
X69334214Y-71689991D01*
X69725062Y-72274938D01*
X70310009Y-72665786D01*
X71000000Y-72803034D01*
X71689991Y-72665786D01*
X72274938Y-72274938D01*
X72665786Y-71689991D01*
X72803034Y-71000000D01*
X72665786Y-70310009D01*
X72274938Y-69725062D01*
X71689991Y-69334214D01*
X71000000Y-69196966D01*
X70310009Y-69334214D01*
X69725062Y-69725062D01*
X69334214Y-70310009D01*
X69196966Y-71000000D01*
X68897332Y-71000000D01*
X68949738Y-70736541D01*
X69665429Y-69665432D01*
X70736540Y-68949738D01*
X72067467Y-68685000D01*
X74773257Y-68685000D01*
X74612732Y-69071587D01*
G36*
X113218511Y-100784729D02*
X112732330Y-101109585D01*
X112407474Y-101595766D01*
X112293400Y-102169255D01*
X112293400Y-102538745D01*
X112407474Y-103112234D01*
X112732330Y-103598415D01*
X113218511Y-103923271D01*
X113792000Y-104037345D01*
X114365489Y-103923271D01*
X114851670Y-103598415D01*
X115062000Y-103283634D01*
X115272330Y-103598415D01*
X115758511Y-103923271D01*
X116332000Y-104037345D01*
X116905489Y-103923271D01*
X117391670Y-103598415D01*
X117602000Y-103283634D01*
X117812330Y-103598415D01*
X118298511Y-103923271D01*
X118872000Y-104037345D01*
X119445489Y-103923271D01*
X119931670Y-103598415D01*
X120142000Y-103283634D01*
X120352330Y-103598415D01*
X120838511Y-103923271D01*
X121412000Y-104037345D01*
X121985489Y-103923271D01*
X122471670Y-103598415D01*
X122682000Y-103283634D01*
X122892330Y-103598415D01*
X123378511Y-103923271D01*
X123952000Y-104037345D01*
X124525489Y-103923271D01*
X124782940Y-103751248D01*
X124842527Y-103895104D01*
X125103297Y-104155873D01*
X125444008Y-104297000D01*
X126133250Y-104297000D01*
X126365000Y-104065250D01*
X126365000Y-102481000D01*
X126619000Y-102481000D01*
X126619000Y-104065250D01*
X126850750Y-104297000D01*
X127539992Y-104297000D01*
X127880703Y-104155873D01*
X128141473Y-103895104D01*
X128282600Y-103554392D01*
X128282600Y-103000000D01*
X131196966Y-103000000D01*
X131334214Y-103689991D01*
X131725062Y-104274938D01*
X132310009Y-104665786D01*
X133000000Y-104803034D01*
X133689991Y-104665786D01*
X134274938Y-104274938D01*
X134665786Y-103689991D01*
X134803034Y-103000000D01*
X134665786Y-102310009D01*
X134274938Y-101725062D01*
X133689991Y-101334214D01*
X133000000Y-101196966D01*
X132310009Y-101334214D01*
X131725062Y-101725062D01*
X131334214Y-102310009D01*
X131196966Y-103000000D01*
X128282600Y-103000000D01*
X128282600Y-102712750D01*
X128050850Y-102481000D01*
X126619000Y-102481000D01*
X126365000Y-102481000D01*
X126345000Y-102481000D01*
X126345000Y-102227000D01*
X126365000Y-102227000D01*
X126365000Y-102207000D01*
X126619000Y-102207000D01*
X126619000Y-102227000D01*
X128050850Y-102227000D01*
X128282600Y-101995250D01*
X128282600Y-101153608D01*
X128141473Y-100812896D01*
X128013577Y-100685000D01*
X131932533Y-100685000D01*
X133263459Y-100949738D01*
X134334568Y-101665429D01*
X135050262Y-102736540D01*
X135315000Y-104067467D01*
X135315000Y-125932533D01*
X135050262Y-127263460D01*
X134334568Y-128334571D01*
X133263459Y-129050262D01*
X131932533Y-129315000D01*
X108464705Y-129315000D01*
X108478943Y-129309117D01*
X108742192Y-129046327D01*
X108884838Y-128702799D01*
X108885162Y-128330833D01*
X108743117Y-127987057D01*
X108480327Y-127723808D01*
X108136799Y-127581162D01*
X107764833Y-127580838D01*
X107421057Y-127722883D01*
X107387882Y-127756000D01*
X105168600Y-127756000D01*
X105168600Y-127096750D01*
X105071850Y-127000000D01*
X131196966Y-127000000D01*
X131334214Y-127689991D01*
X131725062Y-128274938D01*
X132310009Y-128665786D01*
X133000000Y-128803034D01*
X133689991Y-128665786D01*
X134274938Y-128274938D01*
X134665786Y-127689991D01*
X134803034Y-127000000D01*
X134665786Y-126310009D01*
X134274938Y-125725062D01*
X133689991Y-125334214D01*
X133000000Y-125196966D01*
X132310009Y-125334214D01*
X131725062Y-125725062D01*
X131334214Y-126310009D01*
X131196966Y-127000000D01*
X105071850Y-127000000D01*
X104936850Y-126865000D01*
X103505000Y-126865000D01*
X103505000Y-126885000D01*
X103251000Y-126885000D01*
X103251000Y-126865000D01*
X103231000Y-126865000D01*
X103231000Y-126611000D01*
X103251000Y-126611000D01*
X103251000Y-124325000D01*
X103505000Y-124325000D01*
X103505000Y-126611000D01*
X104936850Y-126611000D01*
X105168600Y-126379250D01*
X105168600Y-125537608D01*
X105139768Y-125468000D01*
X105168600Y-125398392D01*
X105168600Y-124556750D01*
X104936850Y-124325000D01*
X103505000Y-124325000D01*
X103251000Y-124325000D01*
X103231000Y-124325000D01*
X103231000Y-124071000D01*
X103251000Y-124071000D01*
X103251000Y-124051000D01*
X103505000Y-124051000D01*
X103505000Y-124071000D01*
X104936850Y-124071000D01*
X105168600Y-123839250D01*
X105168600Y-122997608D01*
X105033729Y-122672000D01*
X109057198Y-122672000D01*
X110268420Y-123883222D01*
X110183867Y-124009765D01*
X110078397Y-124540000D01*
X110183867Y-125070235D01*
X110484221Y-125519746D01*
X110933732Y-125820100D01*
X111463967Y-125925570D01*
X112536033Y-125925570D01*
X113066268Y-125820100D01*
X113515779Y-125519746D01*
X113816133Y-125070235D01*
X113921603Y-124540000D01*
X113816133Y-124009765D01*
X113515779Y-123560254D01*
X113081384Y-123270000D01*
X113515779Y-122979746D01*
X113669290Y-122750000D01*
X115102560Y-122750000D01*
X115102560Y-125250000D01*
X115146838Y-125485317D01*
X115285910Y-125701441D01*
X115498110Y-125846431D01*
X115750000Y-125897440D01*
X118250000Y-125897440D01*
X118485317Y-125853162D01*
X118701441Y-125714090D01*
X118846431Y-125501890D01*
X118897440Y-125250000D01*
X118897440Y-122750000D01*
X118853162Y-122514683D01*
X118714090Y-122298559D01*
X118501890Y-122153569D01*
X118250000Y-122102560D01*
X115750000Y-122102560D01*
X115514683Y-122146838D01*
X115298559Y-122285910D01*
X115153569Y-122498110D01*
X115102560Y-122750000D01*
X113669290Y-122750000D01*
X113816133Y-122530235D01*
X113921603Y-122000000D01*
X113816133Y-121469765D01*
X113515779Y-121020254D01*
X113336247Y-120900294D01*
X113775134Y-120556419D01*
X114097584Y-119984646D01*
X114131404Y-119847113D01*
X113939341Y-119587000D01*
X112127000Y-119587000D01*
X112127000Y-119607000D01*
X111873000Y-119607000D01*
X111873000Y-119587000D01*
X111853000Y-119587000D01*
X111853000Y-119333000D01*
X111873000Y-119333000D01*
X111873000Y-119313000D01*
X112127000Y-119313000D01*
X112127000Y-119333000D01*
X113939341Y-119333000D01*
X114131404Y-119072887D01*
X114097584Y-118935354D01*
X113775134Y-118363581D01*
X113258421Y-117958728D01*
X112871808Y-117850934D01*
X115152469Y-117045995D01*
X115499744Y-116839879D01*
X115741709Y-116516557D01*
X115841524Y-116125249D01*
X115783995Y-115725531D01*
X115577879Y-115378256D01*
X115254557Y-115136291D01*
X114863249Y-115036476D01*
X114463531Y-115094005D01*
X110660909Y-116436107D01*
X109139122Y-114914320D01*
X109139162Y-114868833D01*
X108997117Y-114525057D01*
X108734327Y-114261808D01*
X108390799Y-114119162D01*
X108018833Y-114118838D01*
X107675057Y-114260883D01*
X107411808Y-114523673D01*
X107269162Y-114867201D01*
X107268838Y-115239167D01*
X107410883Y-115582943D01*
X107673673Y-115846192D01*
X108017201Y-115988838D01*
X108064077Y-115988879D01*
X109314012Y-117238814D01*
X107277512Y-118984385D01*
X107219117Y-118843057D01*
X106956327Y-118579808D01*
X106612799Y-118437162D01*
X106240833Y-118436838D01*
X105897057Y-118578883D01*
X105863882Y-118612000D01*
X104820999Y-118612000D01*
X104821162Y-118424833D01*
X104679117Y-118081057D01*
X104416327Y-117817808D01*
X104072799Y-117675162D01*
X103700833Y-117674838D01*
X103357057Y-117816883D01*
X103323882Y-117850000D01*
X101406802Y-117850000D01*
X99851401Y-116294599D01*
X99604839Y-116129852D01*
X99314000Y-116072000D01*
X92424079Y-116072000D01*
X92475001Y-115816000D01*
X92474955Y-115815769D01*
X92474955Y-113133723D01*
X104564844Y-113133005D01*
X116565903Y-114357603D01*
X116636191Y-114427891D01*
X116833894Y-114562976D01*
X117085056Y-114617460D01*
X117337627Y-114569936D01*
X117384534Y-114538828D01*
X127261440Y-117189526D01*
X125024758Y-118809961D01*
X124944512Y-118896535D01*
X124845387Y-118960635D01*
X121571633Y-122137425D01*
X120933628Y-122401043D01*
X120402907Y-122930839D01*
X120115328Y-123623405D01*
X120114674Y-124373305D01*
X120401043Y-125066372D01*
X120930839Y-125597093D01*
X121623405Y-125884672D01*
X122373305Y-125885326D01*
X123066372Y-125598957D01*
X123597093Y-125069161D01*
X123834036Y-124498539D01*
X126554398Y-121858750D01*
X128823000Y-121858750D01*
X128823000Y-122934392D01*
X128964127Y-123275104D01*
X129224897Y-123535873D01*
X129565608Y-123677000D01*
X130641250Y-123677000D01*
X130873000Y-123445250D01*
X130873000Y-121627000D01*
X131127000Y-121627000D01*
X131127000Y-123445250D01*
X131358750Y-123677000D01*
X132434392Y-123677000D01*
X132775103Y-123535873D01*
X133035873Y-123275104D01*
X133177000Y-122934392D01*
X133177000Y-121858750D01*
X132945250Y-121627000D01*
X131127000Y-121627000D01*
X130873000Y-121627000D01*
X129054750Y-121627000D01*
X128823000Y-121858750D01*
X126554398Y-121858750D01*
X127038339Y-121389143D01*
X128823000Y-120096189D01*
X128823000Y-121141250D01*
X129054750Y-121373000D01*
X130873000Y-121373000D01*
X130873000Y-119554750D01*
X131127000Y-119554750D01*
X131127000Y-121373000D01*
X132945250Y-121373000D01*
X133177000Y-121141250D01*
X133177000Y-120065608D01*
X133035873Y-119724896D01*
X132775103Y-119464127D01*
X132434392Y-119323000D01*
X131358750Y-119323000D01*
X131127000Y-119554750D01*
X130873000Y-119554750D01*
X130641250Y-119323000D01*
X129890230Y-119323000D01*
X131184726Y-118385162D01*
X131373305Y-118385326D01*
X132066372Y-118098957D01*
X132597093Y-117569161D01*
X132884672Y-116876595D01*
X132885326Y-116126695D01*
X132598957Y-115433628D01*
X132069161Y-114902907D01*
X131376595Y-114615328D01*
X130626695Y-114614674D01*
X130491293Y-114670621D01*
X117674684Y-111230984D01*
X117551809Y-111108109D01*
X117354106Y-110973024D01*
X117102944Y-110918540D01*
X116850373Y-110966064D01*
X116675805Y-111081837D01*
X105280677Y-109919069D01*
X105233845Y-109872237D01*
X105551527Y-109826553D01*
X105776461Y-109220272D01*
X105752260Y-108574061D01*
X105551527Y-108089447D01*
X105233843Y-108043763D01*
X104319605Y-108958000D01*
X104333748Y-108972142D01*
X104154142Y-109151748D01*
X104140000Y-109137605D01*
X104125858Y-109151748D01*
X103946252Y-108972142D01*
X103960395Y-108958000D01*
X103946252Y-108943858D01*
X104125858Y-108764252D01*
X104140000Y-108778395D01*
X105054237Y-107864157D01*
X105008553Y-107546473D01*
X104402272Y-107321539D01*
X104307722Y-107325080D01*
X108460000Y-103172802D01*
X108460000Y-107832464D01*
X108090173Y-108201647D01*
X107886732Y-108691587D01*
X107886269Y-109222086D01*
X108088854Y-109712380D01*
X108463647Y-110087827D01*
X108953587Y-110291268D01*
X109484086Y-110291731D01*
X109974380Y-110089146D01*
X110349827Y-109714353D01*
X110380437Y-109640635D01*
X118864297Y-109640635D01*
X119154867Y-110285092D01*
X119669942Y-110769296D01*
X120221365Y-110997703D01*
X120502534Y-110807417D01*
X120502534Y-109359466D01*
X120756534Y-109359466D01*
X120756534Y-110807417D01*
X121037703Y-110997703D01*
X121682160Y-110707133D01*
X122166364Y-110192058D01*
X122394771Y-109640635D01*
X122204485Y-109359466D01*
X120756534Y-109359466D01*
X120502534Y-109359466D01*
X119054583Y-109359466D01*
X118864297Y-109640635D01*
X110380437Y-109640635D01*
X110553268Y-109224413D01*
X110553617Y-108824297D01*
X118864297Y-108824297D01*
X119054583Y-109105466D01*
X120502534Y-109105466D01*
X120502534Y-107657515D01*
X120756534Y-107657515D01*
X120756534Y-109105466D01*
X122204485Y-109105466D01*
X122394771Y-108824297D01*
X122104201Y-108179840D01*
X121589126Y-107695636D01*
X121037703Y-107467229D01*
X120756534Y-107657515D01*
X120502534Y-107657515D01*
X120221365Y-107467229D01*
X119576908Y-107757799D01*
X119092704Y-108272874D01*
X118864297Y-108824297D01*
X110553617Y-108824297D01*
X110553731Y-108693914D01*
X110351146Y-108203620D01*
X109980000Y-107831826D01*
X109980000Y-102463536D01*
X110349827Y-102094353D01*
X110553268Y-101604413D01*
X110553731Y-101073914D01*
X110393035Y-100685000D01*
X113719883Y-100685000D01*
X113218511Y-100784729D01*
X113218511Y-100784729D01*
G37*
X113218511Y-100784729D02*
X112732330Y-101109585D01*
X112407474Y-101595766D01*
X112293400Y-102169255D01*
X112293400Y-102538745D01*
X112407474Y-103112234D01*
X112732330Y-103598415D01*
X113218511Y-103923271D01*
X113792000Y-104037345D01*
X114365489Y-103923271D01*
X114851670Y-103598415D01*
X115062000Y-103283634D01*
X115272330Y-103598415D01*
X115758511Y-103923271D01*
X116332000Y-104037345D01*
X116905489Y-103923271D01*
X117391670Y-103598415D01*
X117602000Y-103283634D01*
X117812330Y-103598415D01*
X118298511Y-103923271D01*
X118872000Y-104037345D01*
X119445489Y-103923271D01*
X119931670Y-103598415D01*
X120142000Y-103283634D01*
X120352330Y-103598415D01*
X120838511Y-103923271D01*
X121412000Y-104037345D01*
X121985489Y-103923271D01*
X122471670Y-103598415D01*
X122682000Y-103283634D01*
X122892330Y-103598415D01*
X123378511Y-103923271D01*
X123952000Y-104037345D01*
X124525489Y-103923271D01*
X124782940Y-103751248D01*
X124842527Y-103895104D01*
X125103297Y-104155873D01*
X125444008Y-104297000D01*
X126133250Y-104297000D01*
X126365000Y-104065250D01*
X126365000Y-102481000D01*
X126619000Y-102481000D01*
X126619000Y-104065250D01*
X126850750Y-104297000D01*
X127539992Y-104297000D01*
X127880703Y-104155873D01*
X128141473Y-103895104D01*
X128282600Y-103554392D01*
X128282600Y-103000000D01*
X131196966Y-103000000D01*
X131334214Y-103689991D01*
X131725062Y-104274938D01*
X132310009Y-104665786D01*
X133000000Y-104803034D01*
X133689991Y-104665786D01*
X134274938Y-104274938D01*
X134665786Y-103689991D01*
X134803034Y-103000000D01*
X134665786Y-102310009D01*
X134274938Y-101725062D01*
X133689991Y-101334214D01*
X133000000Y-101196966D01*
X132310009Y-101334214D01*
X131725062Y-101725062D01*
X131334214Y-102310009D01*
X131196966Y-103000000D01*
X128282600Y-103000000D01*
X128282600Y-102712750D01*
X128050850Y-102481000D01*
X126619000Y-102481000D01*
X126365000Y-102481000D01*
X126345000Y-102481000D01*
X126345000Y-102227000D01*
X126365000Y-102227000D01*
X126365000Y-102207000D01*
X126619000Y-102207000D01*
X126619000Y-102227000D01*
X128050850Y-102227000D01*
X128282600Y-101995250D01*
X128282600Y-101153608D01*
X128141473Y-100812896D01*
X128013577Y-100685000D01*
X131932533Y-100685000D01*
X133263459Y-100949738D01*
X134334568Y-101665429D01*
X135050262Y-102736540D01*
X135315000Y-104067467D01*
X135315000Y-125932533D01*
X135050262Y-127263460D01*
X134334568Y-128334571D01*
X133263459Y-129050262D01*
X131932533Y-129315000D01*
X108464705Y-129315000D01*
X108478943Y-129309117D01*
X108742192Y-129046327D01*
X108884838Y-128702799D01*
X108885162Y-128330833D01*
X108743117Y-127987057D01*
X108480327Y-127723808D01*
X108136799Y-127581162D01*
X107764833Y-127580838D01*
X107421057Y-127722883D01*
X107387882Y-127756000D01*
X105168600Y-127756000D01*
X105168600Y-127096750D01*
X105071850Y-127000000D01*
X131196966Y-127000000D01*
X131334214Y-127689991D01*
X131725062Y-128274938D01*
X132310009Y-128665786D01*
X133000000Y-128803034D01*
X133689991Y-128665786D01*
X134274938Y-128274938D01*
X134665786Y-127689991D01*
X134803034Y-127000000D01*
X134665786Y-126310009D01*
X134274938Y-125725062D01*
X133689991Y-125334214D01*
X133000000Y-125196966D01*
X132310009Y-125334214D01*
X131725062Y-125725062D01*
X131334214Y-126310009D01*
X131196966Y-127000000D01*
X105071850Y-127000000D01*
X104936850Y-126865000D01*
X103505000Y-126865000D01*
X103505000Y-126885000D01*
X103251000Y-126885000D01*
X103251000Y-126865000D01*
X103231000Y-126865000D01*
X103231000Y-126611000D01*
X103251000Y-126611000D01*
X103251000Y-124325000D01*
X103505000Y-124325000D01*
X103505000Y-126611000D01*
X104936850Y-126611000D01*
X105168600Y-126379250D01*
X105168600Y-125537608D01*
X105139768Y-125468000D01*
X105168600Y-125398392D01*
X105168600Y-124556750D01*
X104936850Y-124325000D01*
X103505000Y-124325000D01*
X103251000Y-124325000D01*
X103231000Y-124325000D01*
X103231000Y-124071000D01*
X103251000Y-124071000D01*
X103251000Y-124051000D01*
X103505000Y-124051000D01*
X103505000Y-124071000D01*
X104936850Y-124071000D01*
X105168600Y-123839250D01*
X105168600Y-122997608D01*
X105033729Y-122672000D01*
X109057198Y-122672000D01*
X110268420Y-123883222D01*
X110183867Y-124009765D01*
X110078397Y-124540000D01*
X110183867Y-125070235D01*
X110484221Y-125519746D01*
X110933732Y-125820100D01*
X111463967Y-125925570D01*
X112536033Y-125925570D01*
X113066268Y-125820100D01*
X113515779Y-125519746D01*
X113816133Y-125070235D01*
X113921603Y-124540000D01*
X113816133Y-124009765D01*
X113515779Y-123560254D01*
X113081384Y-123270000D01*
X113515779Y-122979746D01*
X113669290Y-122750000D01*
X115102560Y-122750000D01*
X115102560Y-125250000D01*
X115146838Y-125485317D01*
X115285910Y-125701441D01*
X115498110Y-125846431D01*
X115750000Y-125897440D01*
X118250000Y-125897440D01*
X118485317Y-125853162D01*
X118701441Y-125714090D01*
X118846431Y-125501890D01*
X118897440Y-125250000D01*
X118897440Y-122750000D01*
X118853162Y-122514683D01*
X118714090Y-122298559D01*
X118501890Y-122153569D01*
X118250000Y-122102560D01*
X115750000Y-122102560D01*
X115514683Y-122146838D01*
X115298559Y-122285910D01*
X115153569Y-122498110D01*
X115102560Y-122750000D01*
X113669290Y-122750000D01*
X113816133Y-122530235D01*
X113921603Y-122000000D01*
X113816133Y-121469765D01*
X113515779Y-121020254D01*
X113336247Y-120900294D01*
X113775134Y-120556419D01*
X114097584Y-119984646D01*
X114131404Y-119847113D01*
X113939341Y-119587000D01*
X112127000Y-119587000D01*
X112127000Y-119607000D01*
X111873000Y-119607000D01*
X111873000Y-119587000D01*
X111853000Y-119587000D01*
X111853000Y-119333000D01*
X111873000Y-119333000D01*
X111873000Y-119313000D01*
X112127000Y-119313000D01*
X112127000Y-119333000D01*
X113939341Y-119333000D01*
X114131404Y-119072887D01*
X114097584Y-118935354D01*
X113775134Y-118363581D01*
X113258421Y-117958728D01*
X112871808Y-117850934D01*
X115152469Y-117045995D01*
X115499744Y-116839879D01*
X115741709Y-116516557D01*
X115841524Y-116125249D01*
X115783995Y-115725531D01*
X115577879Y-115378256D01*
X115254557Y-115136291D01*
X114863249Y-115036476D01*
X114463531Y-115094005D01*
X110660909Y-116436107D01*
X109139122Y-114914320D01*
X109139162Y-114868833D01*
X108997117Y-114525057D01*
X108734327Y-114261808D01*
X108390799Y-114119162D01*
X108018833Y-114118838D01*
X107675057Y-114260883D01*
X107411808Y-114523673D01*
X107269162Y-114867201D01*
X107268838Y-115239167D01*
X107410883Y-115582943D01*
X107673673Y-115846192D01*
X108017201Y-115988838D01*
X108064077Y-115988879D01*
X109314012Y-117238814D01*
X107277512Y-118984385D01*
X107219117Y-118843057D01*
X106956327Y-118579808D01*
X106612799Y-118437162D01*
X106240833Y-118436838D01*
X105897057Y-118578883D01*
X105863882Y-118612000D01*
X104820999Y-118612000D01*
X104821162Y-118424833D01*
X104679117Y-118081057D01*
X104416327Y-117817808D01*
X104072799Y-117675162D01*
X103700833Y-117674838D01*
X103357057Y-117816883D01*
X103323882Y-117850000D01*
X101406802Y-117850000D01*
X99851401Y-116294599D01*
X99604839Y-116129852D01*
X99314000Y-116072000D01*
X92424079Y-116072000D01*
X92475001Y-115816000D01*
X92474955Y-115815769D01*
X92474955Y-113133723D01*
X104564844Y-113133005D01*
X116565903Y-114357603D01*
X116636191Y-114427891D01*
X116833894Y-114562976D01*
X117085056Y-114617460D01*
X117337627Y-114569936D01*
X117384534Y-114538828D01*
X127261440Y-117189526D01*
X125024758Y-118809961D01*
X124944512Y-118896535D01*
X124845387Y-118960635D01*
X121571633Y-122137425D01*
X120933628Y-122401043D01*
X120402907Y-122930839D01*
X120115328Y-123623405D01*
X120114674Y-124373305D01*
X120401043Y-125066372D01*
X120930839Y-125597093D01*
X121623405Y-125884672D01*
X122373305Y-125885326D01*
X123066372Y-125598957D01*
X123597093Y-125069161D01*
X123834036Y-124498539D01*
X126554398Y-121858750D01*
X128823000Y-121858750D01*
X128823000Y-122934392D01*
X128964127Y-123275104D01*
X129224897Y-123535873D01*
X129565608Y-123677000D01*
X130641250Y-123677000D01*
X130873000Y-123445250D01*
X130873000Y-121627000D01*
X131127000Y-121627000D01*
X131127000Y-123445250D01*
X131358750Y-123677000D01*
X132434392Y-123677000D01*
X132775103Y-123535873D01*
X133035873Y-123275104D01*
X133177000Y-122934392D01*
X133177000Y-121858750D01*
X132945250Y-121627000D01*
X131127000Y-121627000D01*
X130873000Y-121627000D01*
X129054750Y-121627000D01*
X128823000Y-121858750D01*
X126554398Y-121858750D01*
X127038339Y-121389143D01*
X128823000Y-120096189D01*
X128823000Y-121141250D01*
X129054750Y-121373000D01*
X130873000Y-121373000D01*
X130873000Y-119554750D01*
X131127000Y-119554750D01*
X131127000Y-121373000D01*
X132945250Y-121373000D01*
X133177000Y-121141250D01*
X133177000Y-120065608D01*
X133035873Y-119724896D01*
X132775103Y-119464127D01*
X132434392Y-119323000D01*
X131358750Y-119323000D01*
X131127000Y-119554750D01*
X130873000Y-119554750D01*
X130641250Y-119323000D01*
X129890230Y-119323000D01*
X131184726Y-118385162D01*
X131373305Y-118385326D01*
X132066372Y-118098957D01*
X132597093Y-117569161D01*
X132884672Y-116876595D01*
X132885326Y-116126695D01*
X132598957Y-115433628D01*
X132069161Y-114902907D01*
X131376595Y-114615328D01*
X130626695Y-114614674D01*
X130491293Y-114670621D01*
X117674684Y-111230984D01*
X117551809Y-111108109D01*
X117354106Y-110973024D01*
X117102944Y-110918540D01*
X116850373Y-110966064D01*
X116675805Y-111081837D01*
X105280677Y-109919069D01*
X105233845Y-109872237D01*
X105551527Y-109826553D01*
X105776461Y-109220272D01*
X105752260Y-108574061D01*
X105551527Y-108089447D01*
X105233843Y-108043763D01*
X104319605Y-108958000D01*
X104333748Y-108972142D01*
X104154142Y-109151748D01*
X104140000Y-109137605D01*
X104125858Y-109151748D01*
X103946252Y-108972142D01*
X103960395Y-108958000D01*
X103946252Y-108943858D01*
X104125858Y-108764252D01*
X104140000Y-108778395D01*
X105054237Y-107864157D01*
X105008553Y-107546473D01*
X104402272Y-107321539D01*
X104307722Y-107325080D01*
X108460000Y-103172802D01*
X108460000Y-107832464D01*
X108090173Y-108201647D01*
X107886732Y-108691587D01*
X107886269Y-109222086D01*
X108088854Y-109712380D01*
X108463647Y-110087827D01*
X108953587Y-110291268D01*
X109484086Y-110291731D01*
X109974380Y-110089146D01*
X110349827Y-109714353D01*
X110380437Y-109640635D01*
X118864297Y-109640635D01*
X119154867Y-110285092D01*
X119669942Y-110769296D01*
X120221365Y-110997703D01*
X120502534Y-110807417D01*
X120502534Y-109359466D01*
X120756534Y-109359466D01*
X120756534Y-110807417D01*
X121037703Y-110997703D01*
X121682160Y-110707133D01*
X122166364Y-110192058D01*
X122394771Y-109640635D01*
X122204485Y-109359466D01*
X120756534Y-109359466D01*
X120502534Y-109359466D01*
X119054583Y-109359466D01*
X118864297Y-109640635D01*
X110380437Y-109640635D01*
X110553268Y-109224413D01*
X110553617Y-108824297D01*
X118864297Y-108824297D01*
X119054583Y-109105466D01*
X120502534Y-109105466D01*
X120502534Y-107657515D01*
X120756534Y-107657515D01*
X120756534Y-109105466D01*
X122204485Y-109105466D01*
X122394771Y-108824297D01*
X122104201Y-108179840D01*
X121589126Y-107695636D01*
X121037703Y-107467229D01*
X120756534Y-107657515D01*
X120502534Y-107657515D01*
X120221365Y-107467229D01*
X119576908Y-107757799D01*
X119092704Y-108272874D01*
X118864297Y-108824297D01*
X110553617Y-108824297D01*
X110553731Y-108693914D01*
X110351146Y-108203620D01*
X109980000Y-107831826D01*
X109980000Y-102463536D01*
X110349827Y-102094353D01*
X110553268Y-101604413D01*
X110553731Y-101073914D01*
X110393035Y-100685000D01*
X113719883Y-100685000D01*
X113218511Y-100784729D01*
G36*
X74612732Y-101071587D02*
X74612269Y-101602086D01*
X74814854Y-102092380D01*
X75189647Y-102467827D01*
X75679587Y-102671268D01*
X76210086Y-102671731D01*
X76700380Y-102469146D01*
X76737748Y-102431843D01*
X80111763Y-102431843D01*
X80157447Y-102749527D01*
X80763728Y-102974461D01*
X81409939Y-102950260D01*
X81894553Y-102749527D01*
X81940237Y-102431843D01*
X81026000Y-101517605D01*
X80111763Y-102431843D01*
X76737748Y-102431843D01*
X77075827Y-102094353D01*
X77279268Y-101604413D01*
X77279731Y-101073914D01*
X77119035Y-100685000D01*
X79534502Y-100685000D01*
X79389539Y-101075728D01*
X79413740Y-101721939D01*
X79614473Y-102206553D01*
X79932157Y-102252237D01*
X80846395Y-101338000D01*
X80832252Y-101323858D01*
X81011858Y-101144252D01*
X81026000Y-101158395D01*
X81040142Y-101144252D01*
X81219748Y-101323858D01*
X81205605Y-101338000D01*
X82119843Y-102252237D01*
X82437527Y-102206553D01*
X82662461Y-101600272D01*
X82638260Y-100954061D01*
X82526812Y-100685000D01*
X83873000Y-100685000D01*
X83873000Y-103000000D01*
X83881685Y-103046159D01*
X83908965Y-103088553D01*
X83950590Y-103116994D01*
X84000000Y-103127000D01*
X100000000Y-103127000D01*
X100046159Y-103118315D01*
X100088553Y-103091035D01*
X100116994Y-103049410D01*
X100127000Y-103000000D01*
X100127000Y-102431843D01*
X103225763Y-102431843D01*
X103271447Y-102749527D01*
X103877728Y-102974461D01*
X104523939Y-102950260D01*
X105008553Y-102749527D01*
X105054237Y-102431843D01*
X104140000Y-101517605D01*
X103225763Y-102431843D01*
X100127000Y-102431843D01*
X100127000Y-100685000D01*
X102648502Y-100685000D01*
X102503539Y-101075728D01*
X102527740Y-101721939D01*
X102728473Y-102206553D01*
X103046157Y-102252237D01*
X103960395Y-101338000D01*
X103946252Y-101323858D01*
X104125858Y-101144252D01*
X104140000Y-101158395D01*
X104154142Y-101144252D01*
X104333748Y-101323858D01*
X104319605Y-101338000D01*
X105233843Y-102252237D01*
X105551527Y-102206553D01*
X105776461Y-101600272D01*
X105752260Y-100954061D01*
X105640812Y-100685000D01*
X108047257Y-100685000D01*
X107886732Y-101071587D01*
X107886274Y-101596924D01*
X101714320Y-107768878D01*
X101668833Y-107768838D01*
X101325057Y-107910883D01*
X101061808Y-108173673D01*
X100919162Y-108517201D01*
X100918838Y-108889167D01*
X101060883Y-109232943D01*
X101323673Y-109496192D01*
X101667201Y-109638838D01*
X102039167Y-109639162D01*
X102382943Y-109497117D01*
X102530856Y-109349462D01*
X102728473Y-109826553D01*
X102982612Y-109863099D01*
X91439858Y-109863785D01*
X82174789Y-109864336D01*
X82437527Y-109826553D01*
X82662461Y-109220272D01*
X82638260Y-108574061D01*
X82437527Y-108089447D01*
X82119843Y-108043763D01*
X81205605Y-108958000D01*
X81219748Y-108972142D01*
X81040142Y-109151748D01*
X81026000Y-109137605D01*
X81011858Y-109151748D01*
X80832252Y-108972142D01*
X80846395Y-108958000D01*
X79932157Y-108043763D01*
X79614473Y-108089447D01*
X79389539Y-108695728D01*
X79413740Y-109341939D01*
X79614473Y-109826553D01*
X79878159Y-109864472D01*
X76925270Y-109864647D01*
X77075827Y-109714353D01*
X77279268Y-109224413D01*
X77279731Y-108693914D01*
X77077146Y-108203620D01*
X76738275Y-107864157D01*
X80111763Y-107864157D01*
X81026000Y-108778395D01*
X81940237Y-107864157D01*
X81894553Y-107546473D01*
X81288272Y-107321539D01*
X80642061Y-107345740D01*
X80157447Y-107546473D01*
X80111763Y-107864157D01*
X76738275Y-107864157D01*
X76702353Y-107828173D01*
X76212413Y-107624732D01*
X75681914Y-107624269D01*
X75191620Y-107826854D01*
X74816173Y-108201647D01*
X74612732Y-108691587D01*
X74612269Y-109222086D01*
X74814854Y-109712380D01*
X74966972Y-109864764D01*
X74929903Y-109864766D01*
X70999903Y-109865000D01*
X70374223Y-109989494D01*
X69843811Y-110343949D01*
X69489420Y-110874403D01*
X69365000Y-111500097D01*
X69489494Y-112125777D01*
X69843949Y-112656189D01*
X70092441Y-112822204D01*
X69901262Y-112949946D01*
X69579355Y-113431715D01*
X69466316Y-114000000D01*
X69579355Y-114568285D01*
X69901262Y-115050054D01*
X69964175Y-115092091D01*
X69653669Y-115333274D01*
X69309666Y-115937304D01*
X69269233Y-116097290D01*
X69459978Y-116373000D01*
X71873000Y-116373000D01*
X71873000Y-116353000D01*
X72127000Y-116353000D01*
X72127000Y-116373000D01*
X72147000Y-116373000D01*
X72147000Y-116627000D01*
X72127000Y-116627000D01*
X72127000Y-118277000D01*
X73127000Y-118277000D01*
X73797361Y-118093133D01*
X74206128Y-117775627D01*
X74227852Y-117884839D01*
X74230473Y-117888761D01*
X74231450Y-117893379D01*
X74312745Y-118011891D01*
X74392599Y-118131401D01*
X74396524Y-118134024D01*
X74399192Y-118137913D01*
X74519649Y-118216293D01*
X74639161Y-118296148D01*
X74643788Y-118297068D01*
X74647743Y-118299642D01*
X75952499Y-118821544D01*
X75925057Y-118832883D01*
X75661808Y-119095673D01*
X75519162Y-119439201D01*
X75518998Y-119628000D01*
X73660000Y-119628000D01*
X73369160Y-119685852D01*
X73122599Y-119850599D01*
X72250320Y-120722878D01*
X72204833Y-120722838D01*
X71861057Y-120864883D01*
X71597808Y-121127673D01*
X71455162Y-121471201D01*
X71454838Y-121843167D01*
X71596883Y-122186943D01*
X71859673Y-122450192D01*
X72203201Y-122592838D01*
X72575167Y-122593162D01*
X72918943Y-122451117D01*
X73182192Y-122188327D01*
X73324838Y-121844799D01*
X73324879Y-121797923D01*
X73974802Y-121148000D01*
X74757001Y-121148000D01*
X74756838Y-121335167D01*
X74898883Y-121678943D01*
X75161673Y-121942192D01*
X75505201Y-122084838D01*
X75877167Y-122085162D01*
X76220943Y-121943117D01*
X76254118Y-121910000D01*
X88843198Y-121910000D01*
X88198860Y-122554338D01*
X88070799Y-122501162D01*
X87698833Y-122500838D01*
X87355057Y-122642883D01*
X87091808Y-122905673D01*
X86949162Y-123249201D01*
X86948838Y-123621167D01*
X87090883Y-123964943D01*
X87353673Y-124228192D01*
X87697201Y-124370838D01*
X88069167Y-124371162D01*
X88412943Y-124229117D01*
X88459585Y-124182556D01*
X88682839Y-124138148D01*
X88929401Y-123973401D01*
X89251371Y-123651431D01*
X89179400Y-124013255D01*
X89179400Y-124382745D01*
X89293474Y-124956234D01*
X89618330Y-125442415D01*
X89656621Y-125468000D01*
X89618330Y-125493585D01*
X89408000Y-125808366D01*
X89197670Y-125493585D01*
X88711489Y-125168729D01*
X88138000Y-125054655D01*
X87564511Y-125168729D01*
X87078330Y-125493585D01*
X86868000Y-125808366D01*
X86657670Y-125493585D01*
X86171489Y-125168729D01*
X85598000Y-125054655D01*
X85024511Y-125168729D01*
X84538330Y-125493585D01*
X84328000Y-125808366D01*
X84117670Y-125493585D01*
X83631489Y-125168729D01*
X83058000Y-125054655D01*
X82484511Y-125168729D01*
X81998330Y-125493585D01*
X81788000Y-125808366D01*
X81577670Y-125493585D01*
X81091489Y-125168729D01*
X80518000Y-125054655D01*
X79944511Y-125168729D01*
X79458330Y-125493585D01*
X79133474Y-125979766D01*
X79019400Y-126553255D01*
X79019400Y-126922745D01*
X79133474Y-127496234D01*
X79307044Y-127756000D01*
X76000463Y-127756000D01*
X75968327Y-127723808D01*
X75624799Y-127581162D01*
X75252833Y-127580838D01*
X74909057Y-127722883D01*
X74645808Y-127985673D01*
X74503162Y-128329201D01*
X74502838Y-128701167D01*
X74644883Y-129044943D01*
X74907673Y-129308192D01*
X74924068Y-129315000D01*
X72067467Y-129315000D01*
X70736540Y-129050262D01*
X69665429Y-128334568D01*
X68949738Y-127263459D01*
X68897333Y-127000000D01*
X69196966Y-127000000D01*
X69334214Y-127689991D01*
X69725062Y-128274938D01*
X70310009Y-128665786D01*
X71000000Y-128803034D01*
X71689991Y-128665786D01*
X72274938Y-128274938D01*
X72665786Y-127689991D01*
X72803034Y-127000000D01*
X72665786Y-126310009D01*
X72274938Y-125725062D01*
X71689991Y-125334214D01*
X71000000Y-125196966D01*
X70310009Y-125334214D01*
X69725062Y-125725062D01*
X69334214Y-126310009D01*
X69196966Y-127000000D01*
X68897333Y-127000000D01*
X68685000Y-125932533D01*
X68685000Y-116902710D01*
X69269233Y-116902710D01*
X69309666Y-117062696D01*
X69653669Y-117666726D01*
X70202639Y-118093133D01*
X70873000Y-118277000D01*
X71873000Y-118277000D01*
X71873000Y-116627000D01*
X69459978Y-116627000D01*
X69269233Y-116902710D01*
X68685000Y-116902710D01*
X68685000Y-104067467D01*
X68897332Y-103000000D01*
X69196966Y-103000000D01*
X69334214Y-103689991D01*
X69725062Y-104274938D01*
X70310009Y-104665786D01*
X71000000Y-104803034D01*
X71689991Y-104665786D01*
X72274938Y-104274938D01*
X72665786Y-103689991D01*
X72803034Y-103000000D01*
X72665786Y-102310009D01*
X72274938Y-101725062D01*
X71689991Y-101334214D01*
X71000000Y-101196966D01*
X70310009Y-101334214D01*
X69725062Y-101725062D01*
X69334214Y-102310009D01*
X69196966Y-103000000D01*
X68897332Y-103000000D01*
X68949738Y-102736541D01*
X69665429Y-101665432D01*
X70736540Y-100949738D01*
X72067467Y-100685000D01*
X74773257Y-100685000D01*
X74612732Y-101071587D01*
X74612732Y-101071587D01*
G37*
X74612732Y-101071587D02*
X74612269Y-101602086D01*
X74814854Y-102092380D01*
X75189647Y-102467827D01*
X75679587Y-102671268D01*
X76210086Y-102671731D01*
X76700380Y-102469146D01*
X76737748Y-102431843D01*
X80111763Y-102431843D01*
X80157447Y-102749527D01*
X80763728Y-102974461D01*
X81409939Y-102950260D01*
X81894553Y-102749527D01*
X81940237Y-102431843D01*
X81026000Y-101517605D01*
X80111763Y-102431843D01*
X76737748Y-102431843D01*
X77075827Y-102094353D01*
X77279268Y-101604413D01*
X77279731Y-101073914D01*
X77119035Y-100685000D01*
X79534502Y-100685000D01*
X79389539Y-101075728D01*
X79413740Y-101721939D01*
X79614473Y-102206553D01*
X79932157Y-102252237D01*
X80846395Y-101338000D01*
X80832252Y-101323858D01*
X81011858Y-101144252D01*
X81026000Y-101158395D01*
X81040142Y-101144252D01*
X81219748Y-101323858D01*
X81205605Y-101338000D01*
X82119843Y-102252237D01*
X82437527Y-102206553D01*
X82662461Y-101600272D01*
X82638260Y-100954061D01*
X82526812Y-100685000D01*
X83873000Y-100685000D01*
X83873000Y-103000000D01*
X83881685Y-103046159D01*
X83908965Y-103088553D01*
X83950590Y-103116994D01*
X84000000Y-103127000D01*
X100000000Y-103127000D01*
X100046159Y-103118315D01*
X100088553Y-103091035D01*
X100116994Y-103049410D01*
X100127000Y-103000000D01*
X100127000Y-102431843D01*
X103225763Y-102431843D01*
X103271447Y-102749527D01*
X103877728Y-102974461D01*
X104523939Y-102950260D01*
X105008553Y-102749527D01*
X105054237Y-102431843D01*
X104140000Y-101517605D01*
X103225763Y-102431843D01*
X100127000Y-102431843D01*
X100127000Y-100685000D01*
X102648502Y-100685000D01*
X102503539Y-101075728D01*
X102527740Y-101721939D01*
X102728473Y-102206553D01*
X103046157Y-102252237D01*
X103960395Y-101338000D01*
X103946252Y-101323858D01*
X104125858Y-101144252D01*
X104140000Y-101158395D01*
X104154142Y-101144252D01*
X104333748Y-101323858D01*
X104319605Y-101338000D01*
X105233843Y-102252237D01*
X105551527Y-102206553D01*
X105776461Y-101600272D01*
X105752260Y-100954061D01*
X105640812Y-100685000D01*
X108047257Y-100685000D01*
X107886732Y-101071587D01*
X107886274Y-101596924D01*
X101714320Y-107768878D01*
X101668833Y-107768838D01*
X101325057Y-107910883D01*
X101061808Y-108173673D01*
X100919162Y-108517201D01*
X100918838Y-108889167D01*
X101060883Y-109232943D01*
X101323673Y-109496192D01*
X101667201Y-109638838D01*
X102039167Y-109639162D01*
X102382943Y-109497117D01*
X102530856Y-109349462D01*
X102728473Y-109826553D01*
X102982612Y-109863099D01*
X91439858Y-109863785D01*
X82174789Y-109864336D01*
X82437527Y-109826553D01*
X82662461Y-109220272D01*
X82638260Y-108574061D01*
X82437527Y-108089447D01*
X82119843Y-108043763D01*
X81205605Y-108958000D01*
X81219748Y-108972142D01*
X81040142Y-109151748D01*
X81026000Y-109137605D01*
X81011858Y-109151748D01*
X80832252Y-108972142D01*
X80846395Y-108958000D01*
X79932157Y-108043763D01*
X79614473Y-108089447D01*
X79389539Y-108695728D01*
X79413740Y-109341939D01*
X79614473Y-109826553D01*
X79878159Y-109864472D01*
X76925270Y-109864647D01*
X77075827Y-109714353D01*
X77279268Y-109224413D01*
X77279731Y-108693914D01*
X77077146Y-108203620D01*
X76738275Y-107864157D01*
X80111763Y-107864157D01*
X81026000Y-108778395D01*
X81940237Y-107864157D01*
X81894553Y-107546473D01*
X81288272Y-107321539D01*
X80642061Y-107345740D01*
X80157447Y-107546473D01*
X80111763Y-107864157D01*
X76738275Y-107864157D01*
X76702353Y-107828173D01*
X76212413Y-107624732D01*
X75681914Y-107624269D01*
X75191620Y-107826854D01*
X74816173Y-108201647D01*
X74612732Y-108691587D01*
X74612269Y-109222086D01*
X74814854Y-109712380D01*
X74966972Y-109864764D01*
X74929903Y-109864766D01*
X70999903Y-109865000D01*
X70374223Y-109989494D01*
X69843811Y-110343949D01*
X69489420Y-110874403D01*
X69365000Y-111500097D01*
X69489494Y-112125777D01*
X69843949Y-112656189D01*
X70092441Y-112822204D01*
X69901262Y-112949946D01*
X69579355Y-113431715D01*
X69466316Y-114000000D01*
X69579355Y-114568285D01*
X69901262Y-115050054D01*
X69964175Y-115092091D01*
X69653669Y-115333274D01*
X69309666Y-115937304D01*
X69269233Y-116097290D01*
X69459978Y-116373000D01*
X71873000Y-116373000D01*
X71873000Y-116353000D01*
X72127000Y-116353000D01*
X72127000Y-116373000D01*
X72147000Y-116373000D01*
X72147000Y-116627000D01*
X72127000Y-116627000D01*
X72127000Y-118277000D01*
X73127000Y-118277000D01*
X73797361Y-118093133D01*
X74206128Y-117775627D01*
X74227852Y-117884839D01*
X74230473Y-117888761D01*
X74231450Y-117893379D01*
X74312745Y-118011891D01*
X74392599Y-118131401D01*
X74396524Y-118134024D01*
X74399192Y-118137913D01*
X74519649Y-118216293D01*
X74639161Y-118296148D01*
X74643788Y-118297068D01*
X74647743Y-118299642D01*
X75952499Y-118821544D01*
X75925057Y-118832883D01*
X75661808Y-119095673D01*
X75519162Y-119439201D01*
X75518998Y-119628000D01*
X73660000Y-119628000D01*
X73369160Y-119685852D01*
X73122599Y-119850599D01*
X72250320Y-120722878D01*
X72204833Y-120722838D01*
X71861057Y-120864883D01*
X71597808Y-121127673D01*
X71455162Y-121471201D01*
X71454838Y-121843167D01*
X71596883Y-122186943D01*
X71859673Y-122450192D01*
X72203201Y-122592838D01*
X72575167Y-122593162D01*
X72918943Y-122451117D01*
X73182192Y-122188327D01*
X73324838Y-121844799D01*
X73324879Y-121797923D01*
X73974802Y-121148000D01*
X74757001Y-121148000D01*
X74756838Y-121335167D01*
X74898883Y-121678943D01*
X75161673Y-121942192D01*
X75505201Y-122084838D01*
X75877167Y-122085162D01*
X76220943Y-121943117D01*
X76254118Y-121910000D01*
X88843198Y-121910000D01*
X88198860Y-122554338D01*
X88070799Y-122501162D01*
X87698833Y-122500838D01*
X87355057Y-122642883D01*
X87091808Y-122905673D01*
X86949162Y-123249201D01*
X86948838Y-123621167D01*
X87090883Y-123964943D01*
X87353673Y-124228192D01*
X87697201Y-124370838D01*
X88069167Y-124371162D01*
X88412943Y-124229117D01*
X88459585Y-124182556D01*
X88682839Y-124138148D01*
X88929401Y-123973401D01*
X89251371Y-123651431D01*
X89179400Y-124013255D01*
X89179400Y-124382745D01*
X89293474Y-124956234D01*
X89618330Y-125442415D01*
X89656621Y-125468000D01*
X89618330Y-125493585D01*
X89408000Y-125808366D01*
X89197670Y-125493585D01*
X88711489Y-125168729D01*
X88138000Y-125054655D01*
X87564511Y-125168729D01*
X87078330Y-125493585D01*
X86868000Y-125808366D01*
X86657670Y-125493585D01*
X86171489Y-125168729D01*
X85598000Y-125054655D01*
X85024511Y-125168729D01*
X84538330Y-125493585D01*
X84328000Y-125808366D01*
X84117670Y-125493585D01*
X83631489Y-125168729D01*
X83058000Y-125054655D01*
X82484511Y-125168729D01*
X81998330Y-125493585D01*
X81788000Y-125808366D01*
X81577670Y-125493585D01*
X81091489Y-125168729D01*
X80518000Y-125054655D01*
X79944511Y-125168729D01*
X79458330Y-125493585D01*
X79133474Y-125979766D01*
X79019400Y-126553255D01*
X79019400Y-126922745D01*
X79133474Y-127496234D01*
X79307044Y-127756000D01*
X76000463Y-127756000D01*
X75968327Y-127723808D01*
X75624799Y-127581162D01*
X75252833Y-127580838D01*
X74909057Y-127722883D01*
X74645808Y-127985673D01*
X74503162Y-128329201D01*
X74502838Y-128701167D01*
X74644883Y-129044943D01*
X74907673Y-129308192D01*
X74924068Y-129315000D01*
X72067467Y-129315000D01*
X70736540Y-129050262D01*
X69665429Y-128334568D01*
X68949738Y-127263459D01*
X68897333Y-127000000D01*
X69196966Y-127000000D01*
X69334214Y-127689991D01*
X69725062Y-128274938D01*
X70310009Y-128665786D01*
X71000000Y-128803034D01*
X71689991Y-128665786D01*
X72274938Y-128274938D01*
X72665786Y-127689991D01*
X72803034Y-127000000D01*
X72665786Y-126310009D01*
X72274938Y-125725062D01*
X71689991Y-125334214D01*
X71000000Y-125196966D01*
X70310009Y-125334214D01*
X69725062Y-125725062D01*
X69334214Y-126310009D01*
X69196966Y-127000000D01*
X68897333Y-127000000D01*
X68685000Y-125932533D01*
X68685000Y-116902710D01*
X69269233Y-116902710D01*
X69309666Y-117062696D01*
X69653669Y-117666726D01*
X70202639Y-118093133D01*
X70873000Y-118277000D01*
X71873000Y-118277000D01*
X71873000Y-116627000D01*
X69459978Y-116627000D01*
X69269233Y-116902710D01*
X68685000Y-116902710D01*
X68685000Y-104067467D01*
X68897332Y-103000000D01*
X69196966Y-103000000D01*
X69334214Y-103689991D01*
X69725062Y-104274938D01*
X70310009Y-104665786D01*
X71000000Y-104803034D01*
X71689991Y-104665786D01*
X72274938Y-104274938D01*
X72665786Y-103689991D01*
X72803034Y-103000000D01*
X72665786Y-102310009D01*
X72274938Y-101725062D01*
X71689991Y-101334214D01*
X71000000Y-101196966D01*
X70310009Y-101334214D01*
X69725062Y-101725062D01*
X69334214Y-102310009D01*
X69196966Y-103000000D01*
X68897332Y-103000000D01*
X68949738Y-102736541D01*
X69665429Y-101665432D01*
X70736540Y-100949738D01*
X72067467Y-100685000D01*
X74773257Y-100685000D01*
X74612732Y-101071587D01*
G36*
X138784729Y-72781489D02*
X139109585Y-73267670D01*
X139595766Y-73592526D01*
X140169255Y-73706600D01*
X140538745Y-73706600D01*
X141112234Y-73592526D01*
X141598415Y-73267670D01*
X141923271Y-72781489D01*
X142037345Y-72208000D01*
X141923271Y-71634511D01*
X141598415Y-71148330D01*
X141283634Y-70938000D01*
X141598415Y-70727670D01*
X141923271Y-70241489D01*
X142037345Y-69668000D01*
X141923271Y-69094511D01*
X141598415Y-68608330D01*
X141283634Y-68398000D01*
X141598415Y-68187670D01*
X141923271Y-67701489D01*
X142037345Y-67128000D01*
X141923271Y-66554511D01*
X141598415Y-66068330D01*
X141283634Y-65858000D01*
X141598415Y-65647670D01*
X141923271Y-65161489D01*
X142037345Y-64588000D01*
X141923271Y-64014511D01*
X141598415Y-63528330D01*
X141283634Y-63318000D01*
X141598415Y-63107670D01*
X141923271Y-62621489D01*
X142037345Y-62048000D01*
X141923271Y-61474511D01*
X141751248Y-61217060D01*
X141895104Y-61157473D01*
X142155873Y-60896703D01*
X142297000Y-60555992D01*
X142297000Y-59866750D01*
X142065250Y-59635000D01*
X140481000Y-59635000D01*
X140481000Y-59381000D01*
X142065250Y-59381000D01*
X142297000Y-59149250D01*
X142297000Y-58460008D01*
X142155873Y-58119297D01*
X141895104Y-57858527D01*
X141554392Y-57717400D01*
X141000000Y-57717400D01*
X141000000Y-54803034D01*
X141689991Y-54665786D01*
X142274938Y-54274938D01*
X142665786Y-53689991D01*
X142803034Y-53000000D01*
X142665786Y-52310009D01*
X142274938Y-51725062D01*
X141689991Y-51334214D01*
X141000000Y-51196966D01*
X140310009Y-51334214D01*
X139725062Y-51725062D01*
X139334214Y-52310009D01*
X139196966Y-53000000D01*
X139334214Y-53689991D01*
X139725062Y-54274938D01*
X140310009Y-54665786D01*
X141000000Y-54803034D01*
X141000000Y-57717400D01*
X140712750Y-57717400D01*
X140481000Y-57949150D01*
X140481000Y-59381000D01*
X140481000Y-59635000D01*
X140481000Y-59655000D01*
X140227000Y-59655000D01*
X140227000Y-59635000D01*
X140207000Y-59635000D01*
X140207000Y-59381000D01*
X140227000Y-59381000D01*
X140227000Y-57949150D01*
X139995250Y-57717400D01*
X139153608Y-57717400D01*
X138812896Y-57858527D01*
X138685000Y-57986423D01*
X138685000Y-54067467D01*
X138949738Y-52736541D01*
X139665429Y-51665432D01*
X140736540Y-50949738D01*
X142067467Y-50685000D01*
X163932533Y-50685000D01*
X165263460Y-50949738D01*
X166334571Y-51665432D01*
X167050262Y-52736541D01*
X167315000Y-54067467D01*
X167315000Y-77535295D01*
X167309117Y-77521057D01*
X167046327Y-77257808D01*
X166702799Y-77115162D01*
X166330833Y-77114838D01*
X165987057Y-77256883D01*
X165723808Y-77519673D01*
X165581162Y-77863201D01*
X165580838Y-78235167D01*
X165722883Y-78578943D01*
X165756000Y-78612118D01*
X165756000Y-80831400D01*
X165096750Y-80831400D01*
X165000000Y-80928150D01*
X165000000Y-54803034D01*
X165689991Y-54665786D01*
X166274938Y-54274938D01*
X166665786Y-53689991D01*
X166803034Y-53000000D01*
X166665786Y-52310009D01*
X166274938Y-51725062D01*
X165689991Y-51334214D01*
X165000000Y-51196966D01*
X164310009Y-51334214D01*
X163725062Y-51725062D01*
X163334214Y-52310009D01*
X163196966Y-53000000D01*
X163334214Y-53689991D01*
X163725062Y-54274938D01*
X164310009Y-54665786D01*
X165000000Y-54803034D01*
X165000000Y-80928150D01*
X164865000Y-81063150D01*
X164865000Y-82495000D01*
X164885000Y-82495000D01*
X164885000Y-82749000D01*
X164865000Y-82749000D01*
X164865000Y-82769000D01*
X164611000Y-82769000D01*
X164611000Y-82749000D01*
X162325000Y-82749000D01*
X162325000Y-82495000D01*
X164611000Y-82495000D01*
X164611000Y-81063150D01*
X164379250Y-80831400D01*
X163537608Y-80831400D01*
X163468000Y-80860232D01*
X163398392Y-80831400D01*
X162556750Y-80831400D01*
X162325000Y-81063150D01*
X162325000Y-82495000D01*
X162325000Y-82749000D01*
X162325000Y-82769000D01*
X162071000Y-82769000D01*
X162071000Y-82749000D01*
X162051000Y-82749000D01*
X162051000Y-82495000D01*
X162071000Y-82495000D01*
X162071000Y-81063150D01*
X161839250Y-80831400D01*
X160997608Y-80831400D01*
X160672000Y-80966271D01*
X160672000Y-76942802D01*
X161883222Y-75731580D01*
X162009765Y-75816133D01*
X162540000Y-75921603D01*
X163070235Y-75816133D01*
X163519746Y-75515779D01*
X163820100Y-75066268D01*
X163925570Y-74536033D01*
X163925570Y-73463967D01*
X163820100Y-72933732D01*
X163519746Y-72484221D01*
X163070235Y-72183867D01*
X162540000Y-72078397D01*
X162009765Y-72183867D01*
X161560254Y-72484221D01*
X161270000Y-72918616D01*
X160979746Y-72484221D01*
X160750000Y-72330710D01*
X160750000Y-70897440D01*
X163250000Y-70897440D01*
X163485317Y-70853162D01*
X163701441Y-70714090D01*
X163846431Y-70501890D01*
X163897440Y-70250000D01*
X163897440Y-67750000D01*
X163853162Y-67514683D01*
X163714090Y-67298559D01*
X163501890Y-67153569D01*
X163250000Y-67102560D01*
X160750000Y-67102560D01*
X160514683Y-67146838D01*
X160298559Y-67285910D01*
X160153569Y-67498110D01*
X160102560Y-67750000D01*
X160102560Y-70250000D01*
X160146838Y-70485317D01*
X160285910Y-70701441D01*
X160498110Y-70846431D01*
X160750000Y-70897440D01*
X160750000Y-72330710D01*
X160530235Y-72183867D01*
X160000000Y-72078397D01*
X159469765Y-72183867D01*
X159020254Y-72484221D01*
X158900294Y-72663753D01*
X158556419Y-72224866D01*
X157984646Y-71902416D01*
X157847113Y-71868596D01*
X157587000Y-72060659D01*
X157587000Y-73873000D01*
X157607000Y-73873000D01*
X157607000Y-74127000D01*
X157587000Y-74127000D01*
X157587000Y-74147000D01*
X157333000Y-74147000D01*
X157333000Y-74127000D01*
X157313000Y-74127000D01*
X157313000Y-73873000D01*
X157333000Y-73873000D01*
X157333000Y-72060659D01*
X157072887Y-71868596D01*
X156935354Y-71902416D01*
X156363581Y-72224866D01*
X155958728Y-72741579D01*
X155850934Y-73128192D01*
X155045995Y-70847531D01*
X154839879Y-70500256D01*
X154516557Y-70258291D01*
X154125249Y-70158476D01*
X153725531Y-70216005D01*
X153378256Y-70422121D01*
X153136291Y-70745443D01*
X153036476Y-71136751D01*
X153094005Y-71536469D01*
X154436107Y-75339091D01*
X152914320Y-76860878D01*
X152868833Y-76860838D01*
X152525057Y-77002883D01*
X152261808Y-77265673D01*
X152119162Y-77609201D01*
X152118838Y-77981167D01*
X152260883Y-78324943D01*
X152523673Y-78588192D01*
X152867201Y-78730838D01*
X153239167Y-78731162D01*
X153582943Y-78589117D01*
X153846192Y-78326327D01*
X153988838Y-77982799D01*
X153988879Y-77935923D01*
X155238814Y-76685988D01*
X156984385Y-78722488D01*
X156843057Y-78780883D01*
X156579808Y-79043673D01*
X156437162Y-79387201D01*
X156436838Y-79759167D01*
X156578883Y-80102943D01*
X156612000Y-80136118D01*
X156612000Y-81179001D01*
X156424833Y-81178838D01*
X156081057Y-81320883D01*
X155817808Y-81583673D01*
X155675162Y-81927201D01*
X155674838Y-82299167D01*
X155816883Y-82642943D01*
X155850000Y-82676118D01*
X155850000Y-84593198D01*
X154294599Y-86148599D01*
X154129852Y-86395161D01*
X154072000Y-86686000D01*
X154072000Y-93575921D01*
X153816000Y-93524999D01*
X153815769Y-93525045D01*
X151133723Y-93525045D01*
X151133005Y-81435156D01*
X152357603Y-69434097D01*
X152427891Y-69363809D01*
X152562976Y-69166106D01*
X152617460Y-68914944D01*
X152569936Y-68662373D01*
X152538828Y-68615466D01*
X155189526Y-58738560D01*
X156809961Y-60975242D01*
X156896535Y-61055488D01*
X156960635Y-61154613D01*
X160137425Y-64428367D01*
X160401043Y-65066372D01*
X160930839Y-65597093D01*
X161623405Y-65884672D01*
X162373305Y-65885326D01*
X163066372Y-65598957D01*
X163597093Y-65069161D01*
X163884672Y-64376595D01*
X163885326Y-63626695D01*
X163598957Y-62933628D01*
X163069161Y-62402907D01*
X162498539Y-62165964D01*
X159858750Y-59445602D01*
X159858750Y-57177000D01*
X160934392Y-57177000D01*
X161275104Y-57035873D01*
X161535873Y-56775103D01*
X161677000Y-56434392D01*
X161677000Y-55358750D01*
X161445250Y-55127000D01*
X159627000Y-55127000D01*
X159627000Y-54873000D01*
X161445250Y-54873000D01*
X161677000Y-54641250D01*
X161677000Y-53565608D01*
X161535873Y-53224897D01*
X161275104Y-52964127D01*
X160934392Y-52823000D01*
X159858750Y-52823000D01*
X159627000Y-53054750D01*
X159627000Y-54873000D01*
X159627000Y-55127000D01*
X159627000Y-56945250D01*
X159858750Y-57177000D01*
X159858750Y-59445602D01*
X159389143Y-58961661D01*
X158096189Y-57177000D01*
X159141250Y-57177000D01*
X159373000Y-56945250D01*
X159373000Y-55127000D01*
X157554750Y-55127000D01*
X157554750Y-54873000D01*
X159373000Y-54873000D01*
X159373000Y-53054750D01*
X159141250Y-52823000D01*
X158065608Y-52823000D01*
X157724896Y-52964127D01*
X157464127Y-53224897D01*
X157323000Y-53565608D01*
X157323000Y-54641250D01*
X157554750Y-54873000D01*
X157554750Y-55127000D01*
X157323000Y-55358750D01*
X157323000Y-56109770D01*
X156385162Y-54815274D01*
X156385326Y-54626695D01*
X156098957Y-53933628D01*
X155569161Y-53402907D01*
X154876595Y-53115328D01*
X154126695Y-53114674D01*
X153433628Y-53401043D01*
X152902907Y-53930839D01*
X152615328Y-54623405D01*
X152614674Y-55373305D01*
X152670621Y-55508707D01*
X149230984Y-68325316D01*
X149108109Y-68448191D01*
X148973024Y-68645894D01*
X148918540Y-68897056D01*
X148966064Y-69149627D01*
X149081837Y-69324195D01*
X147919069Y-80719323D01*
X147872237Y-80766155D01*
X147826553Y-80448473D01*
X147220272Y-80223539D01*
X146574061Y-80247740D01*
X146089447Y-80448473D01*
X146043763Y-80766157D01*
X146958000Y-81680395D01*
X146972142Y-81666252D01*
X147151748Y-81845858D01*
X147137605Y-81860000D01*
X147151748Y-81874142D01*
X146972142Y-82053748D01*
X146958000Y-82039605D01*
X146943858Y-82053748D01*
X146764252Y-81874142D01*
X146778395Y-81860000D01*
X145864157Y-80945763D01*
X145546473Y-80991447D01*
X145321539Y-81597728D01*
X145325080Y-81692278D01*
X141172802Y-77540000D01*
X145832464Y-77540000D01*
X146201647Y-77909827D01*
X146691587Y-78113268D01*
X147222086Y-78113731D01*
X147712380Y-77911146D01*
X148087827Y-77536353D01*
X148291268Y-77046413D01*
X148291731Y-76515914D01*
X148089146Y-76025620D01*
X147714353Y-75650173D01*
X147640635Y-75619563D01*
X147640635Y-67135703D01*
X148285092Y-66845133D01*
X148769296Y-66330058D01*
X148997703Y-65778635D01*
X148807417Y-65497466D01*
X147359466Y-65497466D01*
X147359466Y-65243466D01*
X148807417Y-65243466D01*
X148997703Y-64962297D01*
X148707133Y-64317840D01*
X148192058Y-63833636D01*
X147640635Y-63605229D01*
X147359466Y-63795515D01*
X147359466Y-65243466D01*
X147359466Y-65497466D01*
X147359466Y-66945417D01*
X147640635Y-67135703D01*
X147640635Y-75619563D01*
X147224413Y-75446732D01*
X146824297Y-75446383D01*
X146824297Y-67135703D01*
X147105466Y-66945417D01*
X147105466Y-65497466D01*
X145657515Y-65497466D01*
X145657515Y-65243466D01*
X147105466Y-65243466D01*
X147105466Y-63795515D01*
X146824297Y-63605229D01*
X146179840Y-63895799D01*
X145695636Y-64410874D01*
X145467229Y-64962297D01*
X145657515Y-65243466D01*
X145657515Y-65497466D01*
X145467229Y-65778635D01*
X145757799Y-66423092D01*
X146272874Y-66907296D01*
X146824297Y-67135703D01*
X146824297Y-75446383D01*
X146693914Y-75446269D01*
X146203620Y-75648854D01*
X145831826Y-76020000D01*
X140463536Y-76020000D01*
X140094353Y-75650173D01*
X139604413Y-75446732D01*
X139073914Y-75446269D01*
X138685000Y-75606965D01*
X138685000Y-72280117D01*
X138784729Y-72781489D01*
X138784729Y-72781489D01*
G37*
X138784729Y-72781489D02*
X139109585Y-73267670D01*
X139595766Y-73592526D01*
X140169255Y-73706600D01*
X140538745Y-73706600D01*
X141112234Y-73592526D01*
X141598415Y-73267670D01*
X141923271Y-72781489D01*
X142037345Y-72208000D01*
X141923271Y-71634511D01*
X141598415Y-71148330D01*
X141283634Y-70938000D01*
X141598415Y-70727670D01*
X141923271Y-70241489D01*
X142037345Y-69668000D01*
X141923271Y-69094511D01*
X141598415Y-68608330D01*
X141283634Y-68398000D01*
X141598415Y-68187670D01*
X141923271Y-67701489D01*
X142037345Y-67128000D01*
X141923271Y-66554511D01*
X141598415Y-66068330D01*
X141283634Y-65858000D01*
X141598415Y-65647670D01*
X141923271Y-65161489D01*
X142037345Y-64588000D01*
X141923271Y-64014511D01*
X141598415Y-63528330D01*
X141283634Y-63318000D01*
X141598415Y-63107670D01*
X141923271Y-62621489D01*
X142037345Y-62048000D01*
X141923271Y-61474511D01*
X141751248Y-61217060D01*
X141895104Y-61157473D01*
X142155873Y-60896703D01*
X142297000Y-60555992D01*
X142297000Y-59866750D01*
X142065250Y-59635000D01*
X140481000Y-59635000D01*
X140481000Y-59381000D01*
X142065250Y-59381000D01*
X142297000Y-59149250D01*
X142297000Y-58460008D01*
X142155873Y-58119297D01*
X141895104Y-57858527D01*
X141554392Y-57717400D01*
X141000000Y-57717400D01*
X141000000Y-54803034D01*
X141689991Y-54665786D01*
X142274938Y-54274938D01*
X142665786Y-53689991D01*
X142803034Y-53000000D01*
X142665786Y-52310009D01*
X142274938Y-51725062D01*
X141689991Y-51334214D01*
X141000000Y-51196966D01*
X140310009Y-51334214D01*
X139725062Y-51725062D01*
X139334214Y-52310009D01*
X139196966Y-53000000D01*
X139334214Y-53689991D01*
X139725062Y-54274938D01*
X140310009Y-54665786D01*
X141000000Y-54803034D01*
X141000000Y-57717400D01*
X140712750Y-57717400D01*
X140481000Y-57949150D01*
X140481000Y-59381000D01*
X140481000Y-59635000D01*
X140481000Y-59655000D01*
X140227000Y-59655000D01*
X140227000Y-59635000D01*
X140207000Y-59635000D01*
X140207000Y-59381000D01*
X140227000Y-59381000D01*
X140227000Y-57949150D01*
X139995250Y-57717400D01*
X139153608Y-57717400D01*
X138812896Y-57858527D01*
X138685000Y-57986423D01*
X138685000Y-54067467D01*
X138949738Y-52736541D01*
X139665429Y-51665432D01*
X140736540Y-50949738D01*
X142067467Y-50685000D01*
X163932533Y-50685000D01*
X165263460Y-50949738D01*
X166334571Y-51665432D01*
X167050262Y-52736541D01*
X167315000Y-54067467D01*
X167315000Y-77535295D01*
X167309117Y-77521057D01*
X167046327Y-77257808D01*
X166702799Y-77115162D01*
X166330833Y-77114838D01*
X165987057Y-77256883D01*
X165723808Y-77519673D01*
X165581162Y-77863201D01*
X165580838Y-78235167D01*
X165722883Y-78578943D01*
X165756000Y-78612118D01*
X165756000Y-80831400D01*
X165096750Y-80831400D01*
X165000000Y-80928150D01*
X165000000Y-54803034D01*
X165689991Y-54665786D01*
X166274938Y-54274938D01*
X166665786Y-53689991D01*
X166803034Y-53000000D01*
X166665786Y-52310009D01*
X166274938Y-51725062D01*
X165689991Y-51334214D01*
X165000000Y-51196966D01*
X164310009Y-51334214D01*
X163725062Y-51725062D01*
X163334214Y-52310009D01*
X163196966Y-53000000D01*
X163334214Y-53689991D01*
X163725062Y-54274938D01*
X164310009Y-54665786D01*
X165000000Y-54803034D01*
X165000000Y-80928150D01*
X164865000Y-81063150D01*
X164865000Y-82495000D01*
X164885000Y-82495000D01*
X164885000Y-82749000D01*
X164865000Y-82749000D01*
X164865000Y-82769000D01*
X164611000Y-82769000D01*
X164611000Y-82749000D01*
X162325000Y-82749000D01*
X162325000Y-82495000D01*
X164611000Y-82495000D01*
X164611000Y-81063150D01*
X164379250Y-80831400D01*
X163537608Y-80831400D01*
X163468000Y-80860232D01*
X163398392Y-80831400D01*
X162556750Y-80831400D01*
X162325000Y-81063150D01*
X162325000Y-82495000D01*
X162325000Y-82749000D01*
X162325000Y-82769000D01*
X162071000Y-82769000D01*
X162071000Y-82749000D01*
X162051000Y-82749000D01*
X162051000Y-82495000D01*
X162071000Y-82495000D01*
X162071000Y-81063150D01*
X161839250Y-80831400D01*
X160997608Y-80831400D01*
X160672000Y-80966271D01*
X160672000Y-76942802D01*
X161883222Y-75731580D01*
X162009765Y-75816133D01*
X162540000Y-75921603D01*
X163070235Y-75816133D01*
X163519746Y-75515779D01*
X163820100Y-75066268D01*
X163925570Y-74536033D01*
X163925570Y-73463967D01*
X163820100Y-72933732D01*
X163519746Y-72484221D01*
X163070235Y-72183867D01*
X162540000Y-72078397D01*
X162009765Y-72183867D01*
X161560254Y-72484221D01*
X161270000Y-72918616D01*
X160979746Y-72484221D01*
X160750000Y-72330710D01*
X160750000Y-70897440D01*
X163250000Y-70897440D01*
X163485317Y-70853162D01*
X163701441Y-70714090D01*
X163846431Y-70501890D01*
X163897440Y-70250000D01*
X163897440Y-67750000D01*
X163853162Y-67514683D01*
X163714090Y-67298559D01*
X163501890Y-67153569D01*
X163250000Y-67102560D01*
X160750000Y-67102560D01*
X160514683Y-67146838D01*
X160298559Y-67285910D01*
X160153569Y-67498110D01*
X160102560Y-67750000D01*
X160102560Y-70250000D01*
X160146838Y-70485317D01*
X160285910Y-70701441D01*
X160498110Y-70846431D01*
X160750000Y-70897440D01*
X160750000Y-72330710D01*
X160530235Y-72183867D01*
X160000000Y-72078397D01*
X159469765Y-72183867D01*
X159020254Y-72484221D01*
X158900294Y-72663753D01*
X158556419Y-72224866D01*
X157984646Y-71902416D01*
X157847113Y-71868596D01*
X157587000Y-72060659D01*
X157587000Y-73873000D01*
X157607000Y-73873000D01*
X157607000Y-74127000D01*
X157587000Y-74127000D01*
X157587000Y-74147000D01*
X157333000Y-74147000D01*
X157333000Y-74127000D01*
X157313000Y-74127000D01*
X157313000Y-73873000D01*
X157333000Y-73873000D01*
X157333000Y-72060659D01*
X157072887Y-71868596D01*
X156935354Y-71902416D01*
X156363581Y-72224866D01*
X155958728Y-72741579D01*
X155850934Y-73128192D01*
X155045995Y-70847531D01*
X154839879Y-70500256D01*
X154516557Y-70258291D01*
X154125249Y-70158476D01*
X153725531Y-70216005D01*
X153378256Y-70422121D01*
X153136291Y-70745443D01*
X153036476Y-71136751D01*
X153094005Y-71536469D01*
X154436107Y-75339091D01*
X152914320Y-76860878D01*
X152868833Y-76860838D01*
X152525057Y-77002883D01*
X152261808Y-77265673D01*
X152119162Y-77609201D01*
X152118838Y-77981167D01*
X152260883Y-78324943D01*
X152523673Y-78588192D01*
X152867201Y-78730838D01*
X153239167Y-78731162D01*
X153582943Y-78589117D01*
X153846192Y-78326327D01*
X153988838Y-77982799D01*
X153988879Y-77935923D01*
X155238814Y-76685988D01*
X156984385Y-78722488D01*
X156843057Y-78780883D01*
X156579808Y-79043673D01*
X156437162Y-79387201D01*
X156436838Y-79759167D01*
X156578883Y-80102943D01*
X156612000Y-80136118D01*
X156612000Y-81179001D01*
X156424833Y-81178838D01*
X156081057Y-81320883D01*
X155817808Y-81583673D01*
X155675162Y-81927201D01*
X155674838Y-82299167D01*
X155816883Y-82642943D01*
X155850000Y-82676118D01*
X155850000Y-84593198D01*
X154294599Y-86148599D01*
X154129852Y-86395161D01*
X154072000Y-86686000D01*
X154072000Y-93575921D01*
X153816000Y-93524999D01*
X153815769Y-93525045D01*
X151133723Y-93525045D01*
X151133005Y-81435156D01*
X152357603Y-69434097D01*
X152427891Y-69363809D01*
X152562976Y-69166106D01*
X152617460Y-68914944D01*
X152569936Y-68662373D01*
X152538828Y-68615466D01*
X155189526Y-58738560D01*
X156809961Y-60975242D01*
X156896535Y-61055488D01*
X156960635Y-61154613D01*
X160137425Y-64428367D01*
X160401043Y-65066372D01*
X160930839Y-65597093D01*
X161623405Y-65884672D01*
X162373305Y-65885326D01*
X163066372Y-65598957D01*
X163597093Y-65069161D01*
X163884672Y-64376595D01*
X163885326Y-63626695D01*
X163598957Y-62933628D01*
X163069161Y-62402907D01*
X162498539Y-62165964D01*
X159858750Y-59445602D01*
X159858750Y-57177000D01*
X160934392Y-57177000D01*
X161275104Y-57035873D01*
X161535873Y-56775103D01*
X161677000Y-56434392D01*
X161677000Y-55358750D01*
X161445250Y-55127000D01*
X159627000Y-55127000D01*
X159627000Y-54873000D01*
X161445250Y-54873000D01*
X161677000Y-54641250D01*
X161677000Y-53565608D01*
X161535873Y-53224897D01*
X161275104Y-52964127D01*
X160934392Y-52823000D01*
X159858750Y-52823000D01*
X159627000Y-53054750D01*
X159627000Y-54873000D01*
X159627000Y-55127000D01*
X159627000Y-56945250D01*
X159858750Y-57177000D01*
X159858750Y-59445602D01*
X159389143Y-58961661D01*
X158096189Y-57177000D01*
X159141250Y-57177000D01*
X159373000Y-56945250D01*
X159373000Y-55127000D01*
X157554750Y-55127000D01*
X157554750Y-54873000D01*
X159373000Y-54873000D01*
X159373000Y-53054750D01*
X159141250Y-52823000D01*
X158065608Y-52823000D01*
X157724896Y-52964127D01*
X157464127Y-53224897D01*
X157323000Y-53565608D01*
X157323000Y-54641250D01*
X157554750Y-54873000D01*
X157554750Y-55127000D01*
X157323000Y-55358750D01*
X157323000Y-56109770D01*
X156385162Y-54815274D01*
X156385326Y-54626695D01*
X156098957Y-53933628D01*
X155569161Y-53402907D01*
X154876595Y-53115328D01*
X154126695Y-53114674D01*
X153433628Y-53401043D01*
X152902907Y-53930839D01*
X152615328Y-54623405D01*
X152614674Y-55373305D01*
X152670621Y-55508707D01*
X149230984Y-68325316D01*
X149108109Y-68448191D01*
X148973024Y-68645894D01*
X148918540Y-68897056D01*
X148966064Y-69149627D01*
X149081837Y-69324195D01*
X147919069Y-80719323D01*
X147872237Y-80766155D01*
X147826553Y-80448473D01*
X147220272Y-80223539D01*
X146574061Y-80247740D01*
X146089447Y-80448473D01*
X146043763Y-80766157D01*
X146958000Y-81680395D01*
X146972142Y-81666252D01*
X147151748Y-81845858D01*
X147137605Y-81860000D01*
X147151748Y-81874142D01*
X146972142Y-82053748D01*
X146958000Y-82039605D01*
X146943858Y-82053748D01*
X146764252Y-81874142D01*
X146778395Y-81860000D01*
X145864157Y-80945763D01*
X145546473Y-80991447D01*
X145321539Y-81597728D01*
X145325080Y-81692278D01*
X141172802Y-77540000D01*
X145832464Y-77540000D01*
X146201647Y-77909827D01*
X146691587Y-78113268D01*
X147222086Y-78113731D01*
X147712380Y-77911146D01*
X148087827Y-77536353D01*
X148291268Y-77046413D01*
X148291731Y-76515914D01*
X148089146Y-76025620D01*
X147714353Y-75650173D01*
X147640635Y-75619563D01*
X147640635Y-67135703D01*
X148285092Y-66845133D01*
X148769296Y-66330058D01*
X148997703Y-65778635D01*
X148807417Y-65497466D01*
X147359466Y-65497466D01*
X147359466Y-65243466D01*
X148807417Y-65243466D01*
X148997703Y-64962297D01*
X148707133Y-64317840D01*
X148192058Y-63833636D01*
X147640635Y-63605229D01*
X147359466Y-63795515D01*
X147359466Y-65243466D01*
X147359466Y-65497466D01*
X147359466Y-66945417D01*
X147640635Y-67135703D01*
X147640635Y-75619563D01*
X147224413Y-75446732D01*
X146824297Y-75446383D01*
X146824297Y-67135703D01*
X147105466Y-66945417D01*
X147105466Y-65497466D01*
X145657515Y-65497466D01*
X145657515Y-65243466D01*
X147105466Y-65243466D01*
X147105466Y-63795515D01*
X146824297Y-63605229D01*
X146179840Y-63895799D01*
X145695636Y-64410874D01*
X145467229Y-64962297D01*
X145657515Y-65243466D01*
X145657515Y-65497466D01*
X145467229Y-65778635D01*
X145757799Y-66423092D01*
X146272874Y-66907296D01*
X146824297Y-67135703D01*
X146824297Y-75446383D01*
X146693914Y-75446269D01*
X146203620Y-75648854D01*
X145831826Y-76020000D01*
X140463536Y-76020000D01*
X140094353Y-75650173D01*
X139604413Y-75446732D01*
X139073914Y-75446269D01*
X138685000Y-75606965D01*
X138685000Y-72280117D01*
X138784729Y-72781489D01*
G36*
X139071587Y-111387268D02*
X139602086Y-111387731D01*
X140092380Y-111185146D01*
X140467827Y-110810353D01*
X140671268Y-110320413D01*
X140671731Y-109789914D01*
X140469146Y-109299620D01*
X140431843Y-109262252D01*
X140431843Y-105888237D01*
X140749527Y-105842553D01*
X140974461Y-105236272D01*
X140950260Y-104590061D01*
X140749527Y-104105447D01*
X140431843Y-104059763D01*
X139517605Y-104974000D01*
X140431843Y-105888237D01*
X140431843Y-109262252D01*
X140094353Y-108924173D01*
X139604413Y-108720732D01*
X139073914Y-108720269D01*
X138685000Y-108880965D01*
X138685000Y-106465498D01*
X139075728Y-106610461D01*
X139721939Y-106586260D01*
X140206553Y-106385527D01*
X140252237Y-106067843D01*
X139338000Y-105153605D01*
X139323858Y-105167748D01*
X139144252Y-104988142D01*
X139158395Y-104974000D01*
X139144252Y-104959858D01*
X139323858Y-104780252D01*
X139338000Y-104794395D01*
X140252237Y-103880157D01*
X140206553Y-103562473D01*
X139600272Y-103337539D01*
X138954061Y-103361740D01*
X138685000Y-103473188D01*
X138685000Y-102127000D01*
X141000000Y-102127000D01*
X141046159Y-102118315D01*
X141088553Y-102091035D01*
X141116994Y-102049410D01*
X141127000Y-102000000D01*
X141127000Y-86000000D01*
X141118315Y-85953841D01*
X141091035Y-85911447D01*
X141049410Y-85883006D01*
X141000000Y-85873000D01*
X140431843Y-85873000D01*
X140431843Y-82774237D01*
X140749527Y-82728553D01*
X140974461Y-82122272D01*
X140950260Y-81476061D01*
X140749527Y-80991447D01*
X140431843Y-80945763D01*
X139517605Y-81860000D01*
X140431843Y-82774237D01*
X140431843Y-85873000D01*
X138685000Y-85873000D01*
X138685000Y-83351498D01*
X139075728Y-83496461D01*
X139721939Y-83472260D01*
X140206553Y-83271527D01*
X140252237Y-82953843D01*
X139338000Y-82039605D01*
X139323858Y-82053748D01*
X139144252Y-81874142D01*
X139158395Y-81860000D01*
X139144252Y-81845858D01*
X139323858Y-81666252D01*
X139338000Y-81680395D01*
X140252237Y-80766157D01*
X140206553Y-80448473D01*
X139600272Y-80223539D01*
X138954061Y-80247740D01*
X138685000Y-80359188D01*
X138685000Y-77952743D01*
X139071587Y-78113268D01*
X139596924Y-78113726D01*
X145768878Y-84285680D01*
X145768838Y-84331167D01*
X145910883Y-84674943D01*
X146173673Y-84938192D01*
X146517201Y-85080838D01*
X146889167Y-85081162D01*
X147232943Y-84939117D01*
X147496192Y-84676327D01*
X147638838Y-84332799D01*
X147639162Y-83960833D01*
X147497117Y-83617057D01*
X147349462Y-83469144D01*
X147826553Y-83271527D01*
X147863099Y-83017388D01*
X147863785Y-94560142D01*
X147864336Y-103825211D01*
X147826553Y-103562473D01*
X147220272Y-103337539D01*
X146574061Y-103361740D01*
X146089447Y-103562473D01*
X146043763Y-103880157D01*
X146958000Y-104794395D01*
X146972142Y-104780252D01*
X147151748Y-104959858D01*
X147137605Y-104974000D01*
X147151748Y-104988142D01*
X146972142Y-105167748D01*
X146958000Y-105153605D01*
X146043763Y-106067843D01*
X146089447Y-106385527D01*
X146695728Y-106610461D01*
X147341939Y-106586260D01*
X147826553Y-106385527D01*
X147864472Y-106121841D01*
X147864647Y-109074730D01*
X147714353Y-108924173D01*
X147224413Y-108720732D01*
X146693914Y-108720269D01*
X146203620Y-108922854D01*
X145864157Y-109261725D01*
X145864157Y-105888237D01*
X146778395Y-104974000D01*
X145864157Y-104059763D01*
X145546473Y-104105447D01*
X145321539Y-104711728D01*
X145345740Y-105357939D01*
X145546473Y-105842553D01*
X145864157Y-105888237D01*
X145864157Y-109261725D01*
X145828173Y-109297647D01*
X145624732Y-109787587D01*
X145624269Y-110318086D01*
X145826854Y-110808380D01*
X146201647Y-111183827D01*
X146691587Y-111387268D01*
X147222086Y-111387731D01*
X147712380Y-111185146D01*
X147864764Y-111033028D01*
X147864766Y-111070097D01*
X147865000Y-115000097D01*
X147989494Y-115625777D01*
X148343949Y-116156189D01*
X148874403Y-116510580D01*
X149500097Y-116635000D01*
X150125777Y-116510506D01*
X150656189Y-116156051D01*
X150822204Y-115907559D01*
X150949946Y-116098738D01*
X151431715Y-116420645D01*
X152000000Y-116533684D01*
X152568285Y-116420645D01*
X153050054Y-116098738D01*
X153092091Y-116035825D01*
X153333274Y-116346331D01*
X153937304Y-116690334D01*
X154097290Y-116730767D01*
X154373000Y-116540022D01*
X154373000Y-114127000D01*
X154353000Y-114127000D01*
X154353000Y-113873000D01*
X154373000Y-113873000D01*
X154373000Y-113853000D01*
X154627000Y-113853000D01*
X154627000Y-113873000D01*
X156277000Y-113873000D01*
X156277000Y-112873000D01*
X156093133Y-112202639D01*
X155775627Y-111793872D01*
X155884839Y-111772148D01*
X155888761Y-111769527D01*
X155893379Y-111768550D01*
X156011891Y-111687255D01*
X156131401Y-111607401D01*
X156134024Y-111603476D01*
X156137913Y-111600808D01*
X156216293Y-111480351D01*
X156296148Y-111360839D01*
X156297068Y-111356212D01*
X156299642Y-111352257D01*
X156821544Y-110047501D01*
X156832883Y-110074943D01*
X157095673Y-110338192D01*
X157439201Y-110480838D01*
X157628000Y-110481002D01*
X157628000Y-112340000D01*
X157685852Y-112630840D01*
X157850599Y-112877401D01*
X158722878Y-113749680D01*
X158722838Y-113795167D01*
X158864883Y-114138943D01*
X159127673Y-114402192D01*
X159471201Y-114544838D01*
X159843167Y-114545162D01*
X160186943Y-114403117D01*
X160450192Y-114140327D01*
X160592838Y-113796799D01*
X160593162Y-113424833D01*
X160451117Y-113081057D01*
X160188327Y-112817808D01*
X159844799Y-112675162D01*
X159797923Y-112675121D01*
X159148000Y-112025198D01*
X159148000Y-111242999D01*
X159335167Y-111243162D01*
X159678943Y-111101117D01*
X159942192Y-110838327D01*
X160084838Y-110494799D01*
X160085162Y-110122833D01*
X159943117Y-109779057D01*
X159910000Y-109745882D01*
X159910000Y-97156802D01*
X160554338Y-97801140D01*
X160501162Y-97929201D01*
X160500838Y-98301167D01*
X160642883Y-98644943D01*
X160905673Y-98908192D01*
X161249201Y-99050838D01*
X161621167Y-99051162D01*
X161964943Y-98909117D01*
X162228192Y-98646327D01*
X162370838Y-98302799D01*
X162371162Y-97930833D01*
X162229117Y-97587057D01*
X162182556Y-97540415D01*
X162138148Y-97317161D01*
X161973401Y-97070599D01*
X161651431Y-96748629D01*
X162013255Y-96820600D01*
X162382745Y-96820600D01*
X162956234Y-96706526D01*
X163442415Y-96381670D01*
X163468000Y-96343379D01*
X163493585Y-96381670D01*
X163808366Y-96592000D01*
X163493585Y-96802330D01*
X163168729Y-97288511D01*
X163054655Y-97862000D01*
X163168729Y-98435489D01*
X163493585Y-98921670D01*
X163808366Y-99132000D01*
X163493585Y-99342330D01*
X163168729Y-99828511D01*
X163054655Y-100402000D01*
X163168729Y-100975489D01*
X163493585Y-101461670D01*
X163808366Y-101672000D01*
X163493585Y-101882330D01*
X163168729Y-102368511D01*
X163054655Y-102942000D01*
X163168729Y-103515489D01*
X163493585Y-104001670D01*
X163808366Y-104212000D01*
X163493585Y-104422330D01*
X163168729Y-104908511D01*
X163054655Y-105482000D01*
X163168729Y-106055489D01*
X163493585Y-106541670D01*
X163979766Y-106866526D01*
X164553255Y-106980600D01*
X164922745Y-106980600D01*
X165496234Y-106866526D01*
X165756000Y-106692956D01*
X165756000Y-109999537D01*
X165723808Y-110031673D01*
X165581162Y-110375201D01*
X165580838Y-110747167D01*
X165722883Y-111090943D01*
X165985673Y-111354192D01*
X166329201Y-111496838D01*
X166701167Y-111497162D01*
X167044943Y-111355117D01*
X167308192Y-111092327D01*
X167315000Y-111075932D01*
X167315000Y-113932533D01*
X167050262Y-115263460D01*
X166334568Y-116334571D01*
X165263459Y-117050262D01*
X165000000Y-117102667D01*
X165000000Y-116803034D01*
X165689991Y-116665786D01*
X166274938Y-116274938D01*
X166665786Y-115689991D01*
X166803034Y-115000000D01*
X166665786Y-114310009D01*
X166274938Y-113725062D01*
X165689991Y-113334214D01*
X165000000Y-113196966D01*
X164310009Y-113334214D01*
X163725062Y-113725062D01*
X163334214Y-114310009D01*
X163196966Y-115000000D01*
X163334214Y-115689991D01*
X163725062Y-116274938D01*
X164310009Y-116665786D01*
X165000000Y-116803034D01*
X165000000Y-117102667D01*
X163932533Y-117315000D01*
X154902710Y-117315000D01*
X154902710Y-116730767D01*
X155062696Y-116690334D01*
X155666726Y-116346331D01*
X156093133Y-115797361D01*
X156277000Y-115127000D01*
X156277000Y-114127000D01*
X154627000Y-114127000D01*
X154627000Y-116540022D01*
X154902710Y-116730767D01*
X154902710Y-117315000D01*
X142067467Y-117315000D01*
X141000000Y-117102668D01*
X141000000Y-116803034D01*
X141689991Y-116665786D01*
X142274938Y-116274938D01*
X142665786Y-115689991D01*
X142803034Y-115000000D01*
X142665786Y-114310009D01*
X142274938Y-113725062D01*
X141689991Y-113334214D01*
X141000000Y-113196966D01*
X140310009Y-113334214D01*
X139725062Y-113725062D01*
X139334214Y-114310009D01*
X139196966Y-115000000D01*
X139334214Y-115689991D01*
X139725062Y-116274938D01*
X140310009Y-116665786D01*
X141000000Y-116803034D01*
X141000000Y-117102668D01*
X140736541Y-117050262D01*
X139665432Y-116334571D01*
X138949738Y-115263460D01*
X138685000Y-113932533D01*
X138685000Y-111226743D01*
X139071587Y-111387268D01*
X139071587Y-111387268D01*
G37*
X139071587Y-111387268D02*
X139602086Y-111387731D01*
X140092380Y-111185146D01*
X140467827Y-110810353D01*
X140671268Y-110320413D01*
X140671731Y-109789914D01*
X140469146Y-109299620D01*
X140431843Y-109262252D01*
X140431843Y-105888237D01*
X140749527Y-105842553D01*
X140974461Y-105236272D01*
X140950260Y-104590061D01*
X140749527Y-104105447D01*
X140431843Y-104059763D01*
X139517605Y-104974000D01*
X140431843Y-105888237D01*
X140431843Y-109262252D01*
X140094353Y-108924173D01*
X139604413Y-108720732D01*
X139073914Y-108720269D01*
X138685000Y-108880965D01*
X138685000Y-106465498D01*
X139075728Y-106610461D01*
X139721939Y-106586260D01*
X140206553Y-106385527D01*
X140252237Y-106067843D01*
X139338000Y-105153605D01*
X139323858Y-105167748D01*
X139144252Y-104988142D01*
X139158395Y-104974000D01*
X139144252Y-104959858D01*
X139323858Y-104780252D01*
X139338000Y-104794395D01*
X140252237Y-103880157D01*
X140206553Y-103562473D01*
X139600272Y-103337539D01*
X138954061Y-103361740D01*
X138685000Y-103473188D01*
X138685000Y-102127000D01*
X141000000Y-102127000D01*
X141046159Y-102118315D01*
X141088553Y-102091035D01*
X141116994Y-102049410D01*
X141127000Y-102000000D01*
X141127000Y-86000000D01*
X141118315Y-85953841D01*
X141091035Y-85911447D01*
X141049410Y-85883006D01*
X141000000Y-85873000D01*
X140431843Y-85873000D01*
X140431843Y-82774237D01*
X140749527Y-82728553D01*
X140974461Y-82122272D01*
X140950260Y-81476061D01*
X140749527Y-80991447D01*
X140431843Y-80945763D01*
X139517605Y-81860000D01*
X140431843Y-82774237D01*
X140431843Y-85873000D01*
X138685000Y-85873000D01*
X138685000Y-83351498D01*
X139075728Y-83496461D01*
X139721939Y-83472260D01*
X140206553Y-83271527D01*
X140252237Y-82953843D01*
X139338000Y-82039605D01*
X139323858Y-82053748D01*
X139144252Y-81874142D01*
X139158395Y-81860000D01*
X139144252Y-81845858D01*
X139323858Y-81666252D01*
X139338000Y-81680395D01*
X140252237Y-80766157D01*
X140206553Y-80448473D01*
X139600272Y-80223539D01*
X138954061Y-80247740D01*
X138685000Y-80359188D01*
X138685000Y-77952743D01*
X139071587Y-78113268D01*
X139596924Y-78113726D01*
X145768878Y-84285680D01*
X145768838Y-84331167D01*
X145910883Y-84674943D01*
X146173673Y-84938192D01*
X146517201Y-85080838D01*
X146889167Y-85081162D01*
X147232943Y-84939117D01*
X147496192Y-84676327D01*
X147638838Y-84332799D01*
X147639162Y-83960833D01*
X147497117Y-83617057D01*
X147349462Y-83469144D01*
X147826553Y-83271527D01*
X147863099Y-83017388D01*
X147863785Y-94560142D01*
X147864336Y-103825211D01*
X147826553Y-103562473D01*
X147220272Y-103337539D01*
X146574061Y-103361740D01*
X146089447Y-103562473D01*
X146043763Y-103880157D01*
X146958000Y-104794395D01*
X146972142Y-104780252D01*
X147151748Y-104959858D01*
X147137605Y-104974000D01*
X147151748Y-104988142D01*
X146972142Y-105167748D01*
X146958000Y-105153605D01*
X146043763Y-106067843D01*
X146089447Y-106385527D01*
X146695728Y-106610461D01*
X147341939Y-106586260D01*
X147826553Y-106385527D01*
X147864472Y-106121841D01*
X147864647Y-109074730D01*
X147714353Y-108924173D01*
X147224413Y-108720732D01*
X146693914Y-108720269D01*
X146203620Y-108922854D01*
X145864157Y-109261725D01*
X145864157Y-105888237D01*
X146778395Y-104974000D01*
X145864157Y-104059763D01*
X145546473Y-104105447D01*
X145321539Y-104711728D01*
X145345740Y-105357939D01*
X145546473Y-105842553D01*
X145864157Y-105888237D01*
X145864157Y-109261725D01*
X145828173Y-109297647D01*
X145624732Y-109787587D01*
X145624269Y-110318086D01*
X145826854Y-110808380D01*
X146201647Y-111183827D01*
X146691587Y-111387268D01*
X147222086Y-111387731D01*
X147712380Y-111185146D01*
X147864764Y-111033028D01*
X147864766Y-111070097D01*
X147865000Y-115000097D01*
X147989494Y-115625777D01*
X148343949Y-116156189D01*
X148874403Y-116510580D01*
X149500097Y-116635000D01*
X150125777Y-116510506D01*
X150656189Y-116156051D01*
X150822204Y-115907559D01*
X150949946Y-116098738D01*
X151431715Y-116420645D01*
X152000000Y-116533684D01*
X152568285Y-116420645D01*
X153050054Y-116098738D01*
X153092091Y-116035825D01*
X153333274Y-116346331D01*
X153937304Y-116690334D01*
X154097290Y-116730767D01*
X154373000Y-116540022D01*
X154373000Y-114127000D01*
X154353000Y-114127000D01*
X154353000Y-113873000D01*
X154373000Y-113873000D01*
X154373000Y-113853000D01*
X154627000Y-113853000D01*
X154627000Y-113873000D01*
X156277000Y-113873000D01*
X156277000Y-112873000D01*
X156093133Y-112202639D01*
X155775627Y-111793872D01*
X155884839Y-111772148D01*
X155888761Y-111769527D01*
X155893379Y-111768550D01*
X156011891Y-111687255D01*
X156131401Y-111607401D01*
X156134024Y-111603476D01*
X156137913Y-111600808D01*
X156216293Y-111480351D01*
X156296148Y-111360839D01*
X156297068Y-111356212D01*
X156299642Y-111352257D01*
X156821544Y-110047501D01*
X156832883Y-110074943D01*
X157095673Y-110338192D01*
X157439201Y-110480838D01*
X157628000Y-110481002D01*
X157628000Y-112340000D01*
X157685852Y-112630840D01*
X157850599Y-112877401D01*
X158722878Y-113749680D01*
X158722838Y-113795167D01*
X158864883Y-114138943D01*
X159127673Y-114402192D01*
X159471201Y-114544838D01*
X159843167Y-114545162D01*
X160186943Y-114403117D01*
X160450192Y-114140327D01*
X160592838Y-113796799D01*
X160593162Y-113424833D01*
X160451117Y-113081057D01*
X160188327Y-112817808D01*
X159844799Y-112675162D01*
X159797923Y-112675121D01*
X159148000Y-112025198D01*
X159148000Y-111242999D01*
X159335167Y-111243162D01*
X159678943Y-111101117D01*
X159942192Y-110838327D01*
X160084838Y-110494799D01*
X160085162Y-110122833D01*
X159943117Y-109779057D01*
X159910000Y-109745882D01*
X159910000Y-97156802D01*
X160554338Y-97801140D01*
X160501162Y-97929201D01*
X160500838Y-98301167D01*
X160642883Y-98644943D01*
X160905673Y-98908192D01*
X161249201Y-99050838D01*
X161621167Y-99051162D01*
X161964943Y-98909117D01*
X162228192Y-98646327D01*
X162370838Y-98302799D01*
X162371162Y-97930833D01*
X162229117Y-97587057D01*
X162182556Y-97540415D01*
X162138148Y-97317161D01*
X161973401Y-97070599D01*
X161651431Y-96748629D01*
X162013255Y-96820600D01*
X162382745Y-96820600D01*
X162956234Y-96706526D01*
X163442415Y-96381670D01*
X163468000Y-96343379D01*
X163493585Y-96381670D01*
X163808366Y-96592000D01*
X163493585Y-96802330D01*
X163168729Y-97288511D01*
X163054655Y-97862000D01*
X163168729Y-98435489D01*
X163493585Y-98921670D01*
X163808366Y-99132000D01*
X163493585Y-99342330D01*
X163168729Y-99828511D01*
X163054655Y-100402000D01*
X163168729Y-100975489D01*
X163493585Y-101461670D01*
X163808366Y-101672000D01*
X163493585Y-101882330D01*
X163168729Y-102368511D01*
X163054655Y-102942000D01*
X163168729Y-103515489D01*
X163493585Y-104001670D01*
X163808366Y-104212000D01*
X163493585Y-104422330D01*
X163168729Y-104908511D01*
X163054655Y-105482000D01*
X163168729Y-106055489D01*
X163493585Y-106541670D01*
X163979766Y-106866526D01*
X164553255Y-106980600D01*
X164922745Y-106980600D01*
X165496234Y-106866526D01*
X165756000Y-106692956D01*
X165756000Y-109999537D01*
X165723808Y-110031673D01*
X165581162Y-110375201D01*
X165580838Y-110747167D01*
X165722883Y-111090943D01*
X165985673Y-111354192D01*
X166329201Y-111496838D01*
X166701167Y-111497162D01*
X167044943Y-111355117D01*
X167308192Y-111092327D01*
X167315000Y-111075932D01*
X167315000Y-113932533D01*
X167050262Y-115263460D01*
X166334568Y-116334571D01*
X165263459Y-117050262D01*
X165000000Y-117102667D01*
X165000000Y-116803034D01*
X165689991Y-116665786D01*
X166274938Y-116274938D01*
X166665786Y-115689991D01*
X166803034Y-115000000D01*
X166665786Y-114310009D01*
X166274938Y-113725062D01*
X165689991Y-113334214D01*
X165000000Y-113196966D01*
X164310009Y-113334214D01*
X163725062Y-113725062D01*
X163334214Y-114310009D01*
X163196966Y-115000000D01*
X163334214Y-115689991D01*
X163725062Y-116274938D01*
X164310009Y-116665786D01*
X165000000Y-116803034D01*
X165000000Y-117102667D01*
X163932533Y-117315000D01*
X154902710Y-117315000D01*
X154902710Y-116730767D01*
X155062696Y-116690334D01*
X155666726Y-116346331D01*
X156093133Y-115797361D01*
X156277000Y-115127000D01*
X156277000Y-114127000D01*
X154627000Y-114127000D01*
X154627000Y-116540022D01*
X154902710Y-116730767D01*
X154902710Y-117315000D01*
X142067467Y-117315000D01*
X141000000Y-117102668D01*
X141000000Y-116803034D01*
X141689991Y-116665786D01*
X142274938Y-116274938D01*
X142665786Y-115689991D01*
X142803034Y-115000000D01*
X142665786Y-114310009D01*
X142274938Y-113725062D01*
X141689991Y-113334214D01*
X141000000Y-113196966D01*
X140310009Y-113334214D01*
X139725062Y-113725062D01*
X139334214Y-114310009D01*
X139196966Y-115000000D01*
X139334214Y-115689991D01*
X139725062Y-116274938D01*
X140310009Y-116665786D01*
X141000000Y-116803034D01*
X141000000Y-117102668D01*
X140736541Y-117050262D01*
X139665432Y-116334571D01*
X138949738Y-115263460D01*
X138685000Y-113932533D01*
X138685000Y-111226743D01*
X139071587Y-111387268D01*
M02*
