G04 #@! TF.FileFunction,Profile,NP*
%FSLAX46Y46*%
G04 Gerber Fmt 4.6, Leading zero omitted, Abs format (unit mm)*
G04 Created by KiCad (PCBNEW 4.0.7) date Tuesday, December 26, 2017 'AMt' 07:42:27 AM*
%MOMM*%
%LPD*%
G01*
G04 APERTURE LIST*
%ADD10C,0.100000*%
%ADD11C,0.381000*%
G04 APERTURE END LIST*
D10*
D11*
X44968060Y-16703520D02*
X44970600Y-16685740D01*
X44970600Y-16685740D02*
X44980760Y-16634940D01*
X44980760Y-16634940D02*
X44993460Y-16548580D01*
X44993460Y-16548580D02*
X45011240Y-16444440D01*
X45011240Y-16444440D02*
X45031560Y-16325060D01*
X45031560Y-16325060D02*
X45051880Y-16190440D01*
X45051880Y-16190440D02*
X45074740Y-16040580D01*
X45074740Y-16040580D02*
X45100140Y-15875480D01*
X45100140Y-15875480D02*
X45128080Y-15700220D01*
X45128080Y-15700220D02*
X45158560Y-15507180D01*
X45158560Y-15507180D02*
X45189040Y-15303980D01*
X45189040Y-15303980D02*
X45219520Y-15090620D01*
X45219520Y-15090620D02*
X45252540Y-14862020D01*
X45252540Y-14862020D02*
X45288100Y-14625800D01*
X45288100Y-14625800D02*
X45323660Y-14376880D01*
X45323660Y-14376880D02*
X45359220Y-14120340D01*
X45359220Y-14120340D02*
X45394780Y-13851100D01*
X45394780Y-13851100D02*
X45432880Y-13576780D01*
X45432880Y-13576780D02*
X45468440Y-13292300D01*
X45468440Y-13292300D02*
X45506540Y-13000200D01*
X45506540Y-13000200D02*
X45544640Y-12700480D01*
X45544640Y-12700480D02*
X45580200Y-12393140D01*
X45580200Y-12393140D02*
X45618300Y-12083260D01*
X45618300Y-12083260D02*
X45653860Y-11765760D01*
X45653860Y-11765760D02*
X45691960Y-11443180D01*
X45691960Y-11443180D02*
X45724980Y-11115520D01*
X45724980Y-11115520D02*
X45760540Y-10785320D01*
X45760540Y-10785320D02*
X45793560Y-10452580D01*
X45793560Y-10452580D02*
X45826580Y-10114760D01*
X45826580Y-10114760D02*
X45857060Y-9776940D01*
X45857060Y-9776940D02*
X45887540Y-9436580D01*
X45887540Y-9436580D02*
X45915480Y-9093680D01*
X45915480Y-9093680D02*
X45940880Y-8750780D01*
X45940880Y-8750780D02*
X45963740Y-8407880D01*
X45963740Y-8407880D02*
X45986600Y-8067520D01*
X45986600Y-8067520D02*
X46006920Y-7727160D01*
X46006920Y-7727160D02*
X46024700Y-7386800D01*
X46024700Y-7386800D02*
X46037400Y-7048980D01*
X46037400Y-7048980D02*
X46050100Y-6716240D01*
X46050100Y-6716240D02*
X46060260Y-6383500D01*
X46060260Y-6383500D02*
X46067880Y-6058380D01*
X46067880Y-6058380D02*
X46070420Y-5733260D01*
X46070420Y-5733260D02*
X46070420Y-5415760D01*
X46070420Y-5415760D02*
X46067880Y-5103340D01*
X46067880Y-5103340D02*
X46060260Y-4796000D01*
X46060260Y-4796000D02*
X46050100Y-4496280D01*
X46050100Y-4496280D02*
X46034860Y-4204180D01*
X46034860Y-4204180D02*
X46017080Y-3917160D01*
X46017080Y-3917160D02*
X45994220Y-3640300D01*
X45994220Y-3640300D02*
X45968820Y-3371060D01*
X45968820Y-3371060D02*
X45935800Y-3111980D01*
X45935800Y-3111980D02*
X45900240Y-2863060D01*
X45900240Y-2863060D02*
X45859600Y-2621760D01*
X45859600Y-2621760D02*
X45816420Y-2395700D01*
X45816420Y-2395700D02*
X45765620Y-2177260D01*
X45765620Y-2177260D02*
X45709740Y-1971520D01*
X45709740Y-1971520D02*
X45648780Y-1781020D01*
X45648780Y-1781020D02*
X45582740Y-1600680D01*
X45582740Y-1600680D02*
X45509080Y-1435580D01*
X45509080Y-1435580D02*
X45430340Y-1283180D01*
X45430340Y-1283180D02*
X45346520Y-1146020D01*
X45346520Y-1146020D02*
X45257620Y-1024100D01*
X45257620Y-1024100D02*
X45161100Y-917420D01*
X45161100Y-917420D02*
X45059500Y-828520D01*
X45059500Y-828520D02*
X44978220Y-772640D01*
X44978220Y-772640D02*
X44950280Y-754860D01*
X44950280Y-754860D02*
X44902020Y-729460D01*
X44902020Y-729460D02*
X44754700Y-653260D01*
X44754700Y-653260D02*
X44554040Y-564360D01*
X44554040Y-564360D02*
X44348300Y-488160D01*
X44348300Y-488160D02*
X44137480Y-424660D01*
X44137480Y-424660D02*
X43924120Y-376400D01*
X43924120Y-376400D02*
X43705680Y-338300D01*
X43705680Y-338300D02*
X43484700Y-312900D01*
X43484700Y-312900D02*
X43261180Y-300200D01*
X43261180Y-300200D02*
X43032580Y-297660D01*
X43032580Y-297660D02*
X42801440Y-305280D01*
X42801440Y-305280D02*
X42565220Y-325600D01*
X42565220Y-325600D02*
X42329000Y-353540D01*
X42329000Y-353540D02*
X42090240Y-391640D01*
X42090240Y-391640D02*
X41848940Y-442440D01*
X41848940Y-442440D02*
X41607640Y-498320D01*
X41607640Y-498320D02*
X41361260Y-564360D01*
X41361260Y-564360D02*
X41117420Y-640560D01*
X41117420Y-640560D02*
X40868500Y-721840D01*
X40868500Y-721840D02*
X40622120Y-813280D01*
X40622120Y-813280D02*
X40373200Y-909800D01*
X40373200Y-909800D02*
X40124280Y-1013940D01*
X40124280Y-1013940D02*
X39875360Y-1125700D01*
X39875360Y-1125700D02*
X39626440Y-1242540D01*
X39626440Y-1242540D02*
X39377520Y-1364460D01*
X39377520Y-1364460D02*
X39128600Y-1491460D01*
X39128600Y-1491460D02*
X38879680Y-1626080D01*
X38879680Y-1626080D02*
X38633300Y-1763240D01*
X38633300Y-1763240D02*
X38389460Y-1902940D01*
X38389460Y-1902940D02*
X38145620Y-2050260D01*
X38145620Y-2050260D02*
X37901780Y-2197580D01*
X37901780Y-2197580D02*
X37663020Y-2349980D01*
X37663020Y-2349980D02*
X37424260Y-2504920D01*
X37424260Y-2504920D02*
X37188040Y-2662400D01*
X37188040Y-2662400D02*
X36954360Y-2822420D01*
X36954360Y-2822420D02*
X36723220Y-2982440D01*
X36723220Y-2982440D02*
X36497160Y-3145000D01*
X36497160Y-3145000D02*
X36271100Y-3307560D01*
X36271100Y-3307560D02*
X36050120Y-3470120D01*
X36050120Y-3470120D02*
X35834220Y-3635220D01*
X35834220Y-3635220D02*
X35620860Y-3797780D01*
X35620860Y-3797780D02*
X35412580Y-3960340D01*
X35412580Y-3960340D02*
X35209380Y-4122900D01*
X35209380Y-4122900D02*
X35008720Y-4282920D01*
X35008720Y-4282920D02*
X34815680Y-4440400D01*
X34815680Y-4440400D02*
X34625180Y-4597880D01*
X34625180Y-4597880D02*
X34442300Y-4752820D01*
X34442300Y-4752820D02*
X34264500Y-4902680D01*
X34264500Y-4902680D02*
X34091780Y-5050000D01*
X34091780Y-5050000D02*
X33926680Y-5194780D01*
X33926680Y-5194780D02*
X33766660Y-5337020D01*
X33766660Y-5337020D02*
X33611720Y-5471640D01*
X33611720Y-5471640D02*
X33466940Y-5603720D01*
X33466940Y-5603720D02*
X33327240Y-5730720D01*
X33327240Y-5730720D02*
X33195160Y-5850100D01*
X33195160Y-5850100D02*
X33070700Y-5966940D01*
X33070700Y-5966940D02*
X32953860Y-6073620D01*
X32953860Y-6073620D02*
X32844640Y-6177760D01*
X32844640Y-6177760D02*
X32745580Y-6271740D01*
X32745580Y-6271740D02*
X32651600Y-6360640D01*
X32651600Y-6360640D02*
X32567780Y-6441920D01*
X32567780Y-6441920D02*
X32494120Y-6513040D01*
X32494120Y-6513040D02*
X32428080Y-6576540D01*
X32428080Y-6576540D02*
X32372200Y-6632420D01*
X32372200Y-6632420D02*
X32339180Y-6665440D01*
X32339180Y-6665440D02*
X32326480Y-6678140D01*
X32326480Y-6678140D02*
X32090260Y-6601940D01*
X32090260Y-6601940D02*
X31371440Y-6391120D01*
X31371440Y-6391120D02*
X30391000Y-6139660D01*
X30391000Y-6139660D02*
X29387700Y-5923760D01*
X29387700Y-5923760D02*
X28359000Y-5745960D01*
X28359000Y-5745960D02*
X27312520Y-5603720D01*
X27312520Y-5603720D02*
X26245720Y-5502120D01*
X26245720Y-5502120D02*
X25161140Y-5438620D01*
X25161140Y-5438620D02*
X24335640Y-5418300D01*
X24335640Y-5418300D02*
X24061320Y-5418300D01*
X24061320Y-5418300D02*
X23789540Y-5418300D01*
X23789540Y-5418300D02*
X22971660Y-5438620D01*
X22971660Y-5438620D02*
X21894700Y-5499580D01*
X21894700Y-5499580D02*
X20838060Y-5601180D01*
X20838060Y-5601180D02*
X19799200Y-5738340D01*
X19799200Y-5738340D02*
X18780660Y-5916140D01*
X18780660Y-5916140D02*
X17784980Y-6126960D01*
X17784980Y-6126960D02*
X16812160Y-6375880D01*
X16812160Y-6375880D02*
X16098420Y-6581620D01*
X16098420Y-6581620D02*
X15862200Y-6655280D01*
X15862200Y-6655280D02*
X15862200Y-6655280D01*
X15862200Y-6655280D02*
X15857120Y-6650200D01*
X15857120Y-6650200D02*
X15839340Y-6632420D01*
X15839340Y-6632420D02*
X15808860Y-6601940D01*
X15808860Y-6601940D02*
X15768220Y-6561300D01*
X15768220Y-6561300D02*
X15717420Y-6510500D01*
X15717420Y-6510500D02*
X15653920Y-6447000D01*
X15653920Y-6447000D02*
X15580260Y-6375880D01*
X15580260Y-6375880D02*
X15496440Y-6294600D01*
X15496440Y-6294600D02*
X15402460Y-6205700D01*
X15402460Y-6205700D02*
X15300860Y-6106640D01*
X15300860Y-6106640D02*
X15186560Y-5999960D01*
X15186560Y-5999960D02*
X15064640Y-5888200D01*
X15064640Y-5888200D02*
X14935100Y-5766280D01*
X14935100Y-5766280D02*
X14795400Y-5639280D01*
X14795400Y-5639280D02*
X14648080Y-5504660D01*
X14648080Y-5504660D02*
X14493140Y-5364960D01*
X14493140Y-5364960D02*
X14330580Y-5220180D01*
X14330580Y-5220180D02*
X14160400Y-5070320D01*
X14160400Y-5070320D02*
X13982600Y-4917920D01*
X13982600Y-4917920D02*
X13797180Y-4760440D01*
X13797180Y-4760440D02*
X13606680Y-4597880D01*
X13606680Y-4597880D02*
X13408560Y-4432780D01*
X13408560Y-4432780D02*
X13205360Y-4265140D01*
X13205360Y-4265140D02*
X12997080Y-4094960D01*
X12997080Y-4094960D02*
X12783720Y-3924780D01*
X12783720Y-3924780D02*
X12562740Y-3752060D01*
X12562740Y-3752060D02*
X12339220Y-3579340D01*
X12339220Y-3579340D02*
X12108080Y-3404080D01*
X12108080Y-3404080D02*
X11874400Y-3231360D01*
X11874400Y-3231360D02*
X11638180Y-3058640D01*
X11638180Y-3058640D02*
X11396880Y-2885920D01*
X11396880Y-2885920D02*
X11150500Y-2715740D01*
X11150500Y-2715740D02*
X10904120Y-2545560D01*
X10904120Y-2545560D02*
X10652660Y-2377920D01*
X10652660Y-2377920D02*
X10398660Y-2215360D01*
X10398660Y-2215360D02*
X10142120Y-2055340D01*
X10142120Y-2055340D02*
X9885580Y-1897860D01*
X9885580Y-1897860D02*
X9623960Y-1742920D01*
X9623960Y-1742920D02*
X9362340Y-1595600D01*
X9362340Y-1595600D02*
X9100720Y-1450820D01*
X9100720Y-1450820D02*
X8836560Y-1313660D01*
X8836560Y-1313660D02*
X8572400Y-1179040D01*
X8572400Y-1179040D02*
X8308240Y-1054580D01*
X8308240Y-1054580D02*
X8044080Y-935200D01*
X8044080Y-935200D02*
X7779920Y-823440D01*
X7779920Y-823440D02*
X7515760Y-716760D01*
X7515760Y-716760D02*
X7251600Y-620240D01*
X7251600Y-620240D02*
X6987440Y-533880D01*
X6987440Y-533880D02*
X6728360Y-455140D01*
X6728360Y-455140D02*
X6466740Y-384020D01*
X6466740Y-384020D02*
X6210200Y-325600D01*
X6210200Y-325600D02*
X5953660Y-274800D01*
X5953660Y-274800D02*
X5702200Y-236700D01*
X5702200Y-236700D02*
X5450740Y-208760D01*
X5450740Y-208760D02*
X5201820Y-193520D01*
X5201820Y-193520D02*
X4957980Y-188440D01*
X4957980Y-188440D02*
X4716680Y-198600D01*
X4716680Y-198600D02*
X4480460Y-218920D01*
X4480460Y-218920D02*
X4246780Y-254480D01*
X4246780Y-254480D02*
X4020720Y-305280D01*
X4020720Y-305280D02*
X3794660Y-368780D01*
X3794660Y-368780D02*
X3576220Y-444980D01*
X3576220Y-444980D02*
X3362860Y-538960D01*
X3362860Y-538960D02*
X3205380Y-620240D01*
X3205380Y-620240D02*
X3154580Y-648180D01*
X3154580Y-648180D02*
X3124100Y-665960D01*
X3124100Y-665960D02*
X3040280Y-724380D01*
X3040280Y-724380D02*
X2933600Y-820900D01*
X2933600Y-820900D02*
X2832000Y-935200D01*
X2832000Y-935200D02*
X2738020Y-1064740D01*
X2738020Y-1064740D02*
X2651660Y-1214600D01*
X2651660Y-1214600D02*
X2572920Y-1377160D01*
X2572920Y-1377160D02*
X2499260Y-1557500D01*
X2499260Y-1557500D02*
X2430680Y-1750540D01*
X2430680Y-1750540D02*
X2369720Y-1958820D01*
X2369720Y-1958820D02*
X2313840Y-2182340D01*
X2313840Y-2182340D02*
X2263040Y-2416020D01*
X2263040Y-2416020D02*
X2217320Y-2664940D01*
X2217320Y-2664940D02*
X2179220Y-2924020D01*
X2179220Y-2924020D02*
X2143660Y-3193260D01*
X2143660Y-3193260D02*
X2115720Y-3472660D01*
X2115720Y-3472660D02*
X2090320Y-3764760D01*
X2090320Y-3764760D02*
X2070000Y-4061940D01*
X2070000Y-4061940D02*
X2054760Y-4371820D01*
X2054760Y-4371820D02*
X2044600Y-4686780D01*
X2044600Y-4686780D02*
X2036980Y-5009360D01*
X2036980Y-5009360D02*
X2034440Y-5339560D01*
X2034440Y-5339560D02*
X2034440Y-5674840D01*
X2034440Y-5674840D02*
X2039520Y-6015200D01*
X2039520Y-6015200D02*
X2047140Y-6360640D01*
X2047140Y-6360640D02*
X2057300Y-6708620D01*
X2057300Y-6708620D02*
X2072540Y-7061680D01*
X2072540Y-7061680D02*
X2087780Y-7417280D01*
X2087780Y-7417280D02*
X2108100Y-7775420D01*
X2108100Y-7775420D02*
X2128420Y-8133560D01*
X2128420Y-8133560D02*
X2153820Y-8494240D01*
X2153820Y-8494240D02*
X2181760Y-8854920D01*
X2181760Y-8854920D02*
X2209700Y-9215600D01*
X2209700Y-9215600D02*
X2240180Y-9573740D01*
X2240180Y-9573740D02*
X2270660Y-9929340D01*
X2270660Y-9929340D02*
X2306220Y-10284940D01*
X2306220Y-10284940D02*
X2339240Y-10638000D01*
X2339240Y-10638000D02*
X2377340Y-10985980D01*
X2377340Y-10985980D02*
X2412900Y-11328880D01*
X2412900Y-11328880D02*
X2451000Y-11669240D01*
X2451000Y-11669240D02*
X2489100Y-12001980D01*
X2489100Y-12001980D02*
X2529740Y-12329640D01*
X2529740Y-12329640D02*
X2567840Y-12649680D01*
X2567840Y-12649680D02*
X2608480Y-12964640D01*
X2608480Y-12964640D02*
X2646580Y-13269440D01*
X2646580Y-13269440D02*
X2687220Y-13564080D01*
X2687220Y-13564080D02*
X2725320Y-13851100D01*
X2725320Y-13851100D02*
X2763420Y-14130500D01*
X2763420Y-14130500D02*
X2798980Y-14397200D01*
X2798980Y-14397200D02*
X2837080Y-14651200D01*
X2837080Y-14651200D02*
X2872640Y-14895040D01*
X2872640Y-14895040D02*
X2905660Y-15126180D01*
X2905660Y-15126180D02*
X2938680Y-15344620D01*
X2938680Y-15344620D02*
X2969160Y-15547820D01*
X2969160Y-15547820D02*
X2999640Y-15738320D01*
X2999640Y-15738320D02*
X3025040Y-15913580D01*
X3025040Y-15913580D02*
X3050440Y-16071060D01*
X3050440Y-16071060D02*
X3073300Y-16213300D01*
X3073300Y-16213300D02*
X3093620Y-16340300D01*
X3093620Y-16340300D02*
X3111400Y-16446980D01*
X3111400Y-16446980D02*
X3126640Y-16538420D01*
X3126640Y-16538420D02*
X3139340Y-16609540D01*
X3139340Y-16609540D02*
X3146960Y-16660340D01*
X3146960Y-16660340D02*
X3152040Y-16690820D01*
X3152040Y-16690820D02*
X3154580Y-16703520D01*
X3154580Y-16703520D02*
X3154580Y-16703520D01*
X3154580Y-16703520D02*
X3157120Y-16700980D01*
X3157120Y-16700980D02*
X3086000Y-16787340D01*
X3086000Y-16787340D02*
X2885340Y-17048960D01*
X2885340Y-17048960D02*
X2628800Y-17402020D01*
X2628800Y-17402020D02*
X2390040Y-17760160D01*
X2390040Y-17760160D02*
X2166520Y-18123380D01*
X2166520Y-18123380D02*
X1958240Y-18491680D01*
X1958240Y-18491680D02*
X1767740Y-18862520D01*
X1767740Y-18862520D02*
X1595020Y-19238440D01*
X1595020Y-19238440D02*
X1437540Y-19619440D01*
X1437540Y-19619440D02*
X1297840Y-20005520D01*
X1297840Y-20005520D02*
X1175920Y-20391600D01*
X1175920Y-20391600D02*
X1074320Y-20785300D01*
X1074320Y-20785300D02*
X987960Y-21181540D01*
X987960Y-21181540D02*
X921920Y-21580320D01*
X921920Y-21580320D02*
X873660Y-21981640D01*
X873660Y-21981640D02*
X843180Y-22388040D01*
X843180Y-22388040D02*
X835560Y-22692840D01*
X835560Y-22692840D02*
X835560Y-22794440D01*
X835560Y-22794440D02*
X835560Y-22885880D01*
X835560Y-22885880D02*
X843180Y-23155120D01*
X843180Y-23155120D02*
X863500Y-23515800D01*
X863500Y-23515800D02*
X901600Y-23871400D01*
X901600Y-23871400D02*
X954940Y-24224460D01*
X954940Y-24224460D02*
X1020980Y-24574980D01*
X1020980Y-24574980D02*
X1102260Y-24922960D01*
X1102260Y-24922960D02*
X1196240Y-25268400D01*
X1196240Y-25268400D02*
X1305460Y-25611300D01*
X1305460Y-25611300D02*
X1429920Y-25951660D01*
X1429920Y-25951660D02*
X1564540Y-26286940D01*
X1564540Y-26286940D02*
X1714400Y-26619680D01*
X1714400Y-26619680D02*
X1879500Y-26949880D01*
X1879500Y-26949880D02*
X2054760Y-27275000D01*
X2054760Y-27275000D02*
X2242720Y-27600120D01*
X2242720Y-27600120D02*
X2445920Y-27917620D01*
X2445920Y-27917620D02*
X2659280Y-28232580D01*
X2659280Y-28232580D02*
X2885340Y-28545000D01*
X2885340Y-28545000D02*
X3124100Y-28852340D01*
X3124100Y-28852340D02*
X3375560Y-29154600D01*
X3375560Y-29154600D02*
X3637180Y-29454320D01*
X3637180Y-29454320D02*
X3911500Y-29748960D01*
X3911500Y-29748960D02*
X4195980Y-30038520D01*
X4195980Y-30038520D02*
X4493160Y-30325540D01*
X4493160Y-30325540D02*
X4800500Y-30607480D01*
X4800500Y-30607480D02*
X5120540Y-30881800D01*
X5120540Y-30881800D02*
X5448200Y-31153580D01*
X5448200Y-31153580D02*
X5788560Y-31420280D01*
X5788560Y-31420280D02*
X6139080Y-31681900D01*
X6139080Y-31681900D02*
X6497220Y-31938440D01*
X6497220Y-31938440D02*
X6868060Y-32187360D01*
X6868060Y-32187360D02*
X7249060Y-32433740D01*
X7249060Y-32433740D02*
X7637680Y-32672500D01*
X7637680Y-32672500D02*
X8036460Y-32908720D01*
X8036460Y-32908720D02*
X8442860Y-33137320D01*
X8442860Y-33137320D02*
X8861960Y-33358300D01*
X8861960Y-33358300D02*
X9286140Y-33574200D01*
X9286140Y-33574200D02*
X9720480Y-33785020D01*
X9720480Y-33785020D02*
X10164980Y-33990760D01*
X10164980Y-33990760D02*
X10614560Y-34188880D01*
X10614560Y-34188880D02*
X11074300Y-34379380D01*
X11074300Y-34379380D02*
X11541660Y-34564800D01*
X11541660Y-34564800D02*
X12016640Y-34742600D01*
X12016640Y-34742600D02*
X12499240Y-34915320D01*
X12499240Y-34915320D02*
X12989460Y-35080420D01*
X12989460Y-35080420D02*
X13487300Y-35237900D01*
X13487300Y-35237900D02*
X13990220Y-35387760D01*
X13990220Y-35387760D02*
X14503300Y-35532540D01*
X14503300Y-35532540D02*
X15018920Y-35667160D01*
X15018920Y-35667160D02*
X15544700Y-35796700D01*
X15544700Y-35796700D02*
X16075560Y-35918620D01*
X16075560Y-35918620D02*
X16611500Y-36030380D01*
X16611500Y-36030380D02*
X17155060Y-36137060D01*
X17155060Y-36137060D02*
X17701160Y-36236120D01*
X17701160Y-36236120D02*
X18257420Y-36325020D01*
X18257420Y-36325020D02*
X18816220Y-36408840D01*
X18816220Y-36408840D02*
X19380100Y-36482500D01*
X19380100Y-36482500D02*
X19949060Y-36548540D01*
X19949060Y-36548540D02*
X20523100Y-36604420D01*
X20523100Y-36604420D02*
X21102220Y-36652680D01*
X21102220Y-36652680D02*
X21686420Y-36693320D01*
X21686420Y-36693320D02*
X22273160Y-36723800D01*
X22273160Y-36723800D02*
X22864980Y-36746660D01*
X22864980Y-36746660D02*
X23461880Y-36761900D01*
X23461880Y-36761900D02*
X23911460Y-36764440D01*
X23911460Y-36764440D02*
X24061320Y-36764440D01*
X24061320Y-36764440D02*
X24211180Y-36764440D01*
X24211180Y-36764440D02*
X24660760Y-36761900D01*
X24660760Y-36761900D02*
X25255120Y-36746660D01*
X25255120Y-36746660D02*
X25846940Y-36723800D01*
X25846940Y-36723800D02*
X26436220Y-36693320D01*
X26436220Y-36693320D02*
X27017880Y-36652680D01*
X27017880Y-36652680D02*
X27597000Y-36604420D01*
X27597000Y-36604420D02*
X28173580Y-36548540D01*
X28173580Y-36548540D02*
X28742540Y-36482500D01*
X28742540Y-36482500D02*
X29306420Y-36408840D01*
X29306420Y-36408840D02*
X29865220Y-36325020D01*
X29865220Y-36325020D02*
X30418940Y-36236120D01*
X30418940Y-36236120D02*
X30967580Y-36137060D01*
X30967580Y-36137060D02*
X31511140Y-36030380D01*
X31511140Y-36030380D02*
X32047080Y-35918620D01*
X32047080Y-35918620D02*
X32577940Y-35796700D01*
X32577940Y-35796700D02*
X33101180Y-35667160D01*
X33101180Y-35667160D02*
X33619340Y-35532540D01*
X33619340Y-35532540D02*
X34129880Y-35387760D01*
X34129880Y-35387760D02*
X34635340Y-35237900D01*
X34635340Y-35237900D02*
X35130640Y-35080420D01*
X35130640Y-35080420D02*
X35620860Y-34915320D01*
X35620860Y-34915320D02*
X36103460Y-34742600D01*
X36103460Y-34742600D02*
X36578440Y-34564800D01*
X36578440Y-34564800D02*
X37045800Y-34379380D01*
X37045800Y-34379380D02*
X37505540Y-34188880D01*
X37505540Y-34188880D02*
X37957660Y-33990760D01*
X37957660Y-33990760D02*
X38399620Y-33785020D01*
X38399620Y-33785020D02*
X38833960Y-33574200D01*
X38833960Y-33574200D02*
X39260680Y-33358300D01*
X39260680Y-33358300D02*
X39677240Y-33137320D01*
X39677240Y-33137320D02*
X40086180Y-32908720D01*
X40086180Y-32908720D02*
X40484960Y-32672500D01*
X40484960Y-32672500D02*
X40873580Y-32433740D01*
X40873580Y-32433740D02*
X41254580Y-32187360D01*
X41254580Y-32187360D02*
X41622880Y-31938440D01*
X41622880Y-31938440D02*
X41983560Y-31681900D01*
X41983560Y-31681900D02*
X42334080Y-31420280D01*
X42334080Y-31420280D02*
X42671900Y-31153580D01*
X42671900Y-31153580D02*
X43002100Y-30881800D01*
X43002100Y-30881800D02*
X43319600Y-30607480D01*
X43319600Y-30607480D02*
X43626940Y-30325540D01*
X43626940Y-30325540D02*
X43924120Y-30038520D01*
X43924120Y-30038520D02*
X44211140Y-29748960D01*
X44211140Y-29748960D02*
X44482920Y-29454320D01*
X44482920Y-29454320D02*
X44747080Y-29154600D01*
X44747080Y-29154600D02*
X44996000Y-28852340D01*
X44996000Y-28852340D02*
X45234760Y-28545000D01*
X45234760Y-28545000D02*
X45460820Y-28232580D01*
X45460820Y-28232580D02*
X45676720Y-27917620D01*
X45676720Y-27917620D02*
X45877380Y-27600120D01*
X45877380Y-27600120D02*
X46067880Y-27275000D01*
X46067880Y-27275000D02*
X46243140Y-26949880D01*
X46243140Y-26949880D02*
X46405700Y-26619680D01*
X46405700Y-26619680D02*
X46555560Y-26286940D01*
X46555560Y-26286940D02*
X46692720Y-25951660D01*
X46692720Y-25951660D02*
X46814640Y-25611300D01*
X46814640Y-25611300D02*
X46923860Y-25268400D01*
X46923860Y-25268400D02*
X47020380Y-24922960D01*
X47020380Y-24922960D02*
X47101660Y-24574980D01*
X47101660Y-24574980D02*
X47167700Y-24224460D01*
X47167700Y-24224460D02*
X47218500Y-23871400D01*
X47218500Y-23871400D02*
X47256600Y-23515800D01*
X47256600Y-23515800D02*
X47279460Y-23155120D01*
X47279460Y-23155120D02*
X47287080Y-22885880D01*
X47287080Y-22885880D02*
X47287080Y-22794440D01*
X47287080Y-22794440D02*
X47287080Y-22692840D01*
X47287080Y-22692840D02*
X47276920Y-22388040D01*
X47276920Y-22388040D02*
X47248980Y-21981640D01*
X47248980Y-21981640D02*
X47200720Y-21580320D01*
X47200720Y-21580320D02*
X47134680Y-21181540D01*
X47134680Y-21181540D02*
X47048320Y-20785300D01*
X47048320Y-20785300D02*
X46944180Y-20394140D01*
X46944180Y-20394140D02*
X46824800Y-20005520D01*
X46824800Y-20005520D02*
X46685100Y-19621980D01*
X46685100Y-19621980D02*
X46527620Y-19240980D01*
X46527620Y-19240980D02*
X46354900Y-18865060D01*
X46354900Y-18865060D02*
X46164400Y-18494220D01*
X46164400Y-18494220D02*
X45956120Y-18125920D01*
X45956120Y-18125920D02*
X45732600Y-17762700D01*
X45732600Y-17762700D02*
X45493840Y-17404560D01*
X45493840Y-17404560D02*
X45239840Y-17051500D01*
X45239840Y-17051500D02*
X45036640Y-16789880D01*
X45036640Y-16789880D02*
X44968060Y-16703520D01*
M02*
