<?xml version="1.0" standalone="no"?>
 <!DOCTYPE svg PUBLIC "-//W3C//DTD SVG 1.1//EN" 
 "http://www.w3.org/Graphics/SVG/1.1/DTD/svg11.dtd"> 
<svg xmlns="http://www.w3.org/2000/svg" version="1.1" 
    width="29.7002cm" height="21.0007cm" viewBox="0 0 116930 82680 ">
<title>SVG Picture created as partycat-F.Mask.svg date 2018/11/30 18:21:59 </title>
  <desc>Picture generated by PCBNEW </desc>
<g style="fill:#000000; fill-opacity:1;stroke:#000000; stroke-opacity:1;
stroke-linecap:round; stroke-linejoin:round; "
 transform="translate(0 0) scale(1 1)">
</g>
<g style="fill:#000000; fill-opacity:0.0; 
stroke:#000000; stroke-width:-0.000393701; stroke-opacity:1; 
stroke-linecap:round; stroke-linejoin:round;">
</g>
<g style="fill:#000000; fill-opacity:1.0; 
stroke:#000000; stroke-width:0; stroke-opacity:1; 
stroke-linecap:round; stroke-linejoin:round;">
<polyline style="fill-rule:evenodd;"
points="48196,37605
48248,37620
48274,37628
48299,37642
48346,37667
48409,37718
48461,37781
48499,37853
48507,37879
48523,37931
48529,37992
48529,38820
48523,38881
48507,38932
48499,38958
48461,39030
48409,39093
48346,39145
48274,39183
48248,39191
48196,39207
48115,39215
48034,39207
47982,39191
47956,39183
47884,39145
47822,39093
47770,39030
47731,38958
47724,38932
47708,38881
47702,38820
47702,37992
47708,37931
47731,37853
47731,37853
47745,37828
47770,37781
47822,37718
47884,37667
47956,37628
47982,37620
48034,37605
48115,37597
48196,37605
" /> 
<polyline style="fill-rule:evenodd;"
points="49181,37605
49232,37620
49258,37628
49283,37642
49330,37667
49393,37718
49445,37781
49483,37853
49491,37879
49507,37931
49513,37992
49513,38820
49507,38881
49491,38932
49483,38958
49445,39030
49393,39093
49330,39145
49258,39183
49232,39191
49181,39207
49100,39215
49018,39207
48967,39191
48941,39183
48869,39145
48806,39093
48754,39030
48716,38958
48708,38932
48692,38881
48686,38820
48686,37992
48692,37931
48716,37853
48716,37853
48729,37828
48754,37781
48806,37718
48869,37667
48941,37628
48967,37620
49018,37605
49100,37597
49181,37605
" /> 
<polyline style="fill-rule:evenodd;"
points="50165,37605
50217,37620
50243,37628
50268,37642
50315,37667
50377,37718
50429,37781
50468,37853
50475,37879
50491,37931
50497,37992
50497,38820
50491,38881
50475,38932
50468,38958
50429,39030
50377,39093
50315,39145
50243,39183
50217,39191
50165,39207
50084,39215
50003,39207
49951,39191
49925,39183
49853,39145
49790,39093
49738,39030
49700,38958
49692,38932
49676,38881
49670,38820
49670,37992
49676,37931
49700,37853
49700,37853
49713,37828
49738,37781
49790,37718
49853,37667
49925,37628
49951,37620
50003,37605
50084,37597
50165,37605
" /> 
<polyline style="fill-rule:evenodd;"
points="45981,39055
45351,39055
45351,38544
45981,38544
45981,39055
" /> 
<polyline style="fill-rule:evenodd;"
points="46848,39055
46218,39055
46218,38544
46848,38544
46848,39055
" /> 
<polyline style="fill-rule:evenodd;"
points="53148,38955
52518,38955
52518,38444
53148,38444
53148,38955
" /> 
<polyline style="fill-rule:evenodd;"
points="52281,38955
51651,38955
51651,38444
52281,38444
52281,38955
" /> 
<polyline style="fill-rule:evenodd;"
points="44636,38849
44163,38849
44163,38337
44636,38337
44636,38849
" /> 
<polyline style="fill-rule:evenodd;"
points="45981,38255
45351,38255
45351,37744
45981,37744
45981,38255
" /> 
<polyline style="fill-rule:evenodd;"
points="46848,38255
46218,38255
46218,37744
46848,37744
46848,38255
" /> 
<polyline style="fill-rule:evenodd;"
points="44262,38062
43789,38062
43789,37550
44262,37550
44262,38062
" /> 
<polyline style="fill-rule:evenodd;"
points="45010,38062
44537,38062
44537,37550
45010,37550
45010,38062
" /> 
<polyline style="fill-rule:evenodd;"
points="54432,37579
53487,37579
53487,36831
54432,36831
54432,37579
" /> 
<polyline style="fill-rule:evenodd;"
points="53148,37320
52381,37320
52381,36651
53148,36651
53148,37320
" /> 
<polyline style="fill-rule:evenodd;"
points="50018,37320
49251,37320
49251,36651
50018,36651
50018,37320
" /> 
<polyline style="fill-rule:evenodd;"
points="46848,37320
46081,37320
46081,36651
46848,36651
46848,37320
" /> 
<polyline style="fill-rule:evenodd;"
points="43718,37320
42951,37320
42951,36651
43718,36651
43718,37320
" /> 
<polyline style="fill-rule:evenodd;"
points="48848,37155
48218,37155
48218,36644
48848,36644
48848,37155
" /> 
<polyline style="fill-rule:evenodd;"
points="47981,37155
47351,37155
47351,36644
47981,36644
47981,37155
" /> 
<polyline style="fill-rule:evenodd;"
points="56912,37126
55967,37126
55967,35473
56912,35473
56912,37126
" /> 
<polyline style="fill-rule:evenodd;"
points="54432,36674
53487,36674
53487,35925
54432,35925
54432,36674
" /> 
<polyline style="fill-rule:evenodd;"
points="42042,35587
42121,35611
42193,35650
42257,35702
42309,35766
42348,35838
42372,35917
42380,36000
42372,36082
42348,36161
42309,36233
42257,36297
42193,36349
42121,36388
42042,36412
41980,36418
41819,36418
41757,36412
41678,36388
41606,36349
41542,36297
41490,36233
41451,36161
41427,36082
41419,36000
41427,35917
41451,35838
41490,35766
41542,35702
41606,35650
41678,35611
41757,35587
41819,35581
41980,35581
42042,35587
" /> 
<polyline style="fill-rule:evenodd;"
points="48848,36155
48218,36155
48218,35644
48848,35644
48848,36155
" /> 
<polyline style="fill-rule:evenodd;"
points="47981,36155
47351,36155
47351,35644
47981,35644
47981,36155
" /> 
<polyline style="fill-rule:evenodd;"
points="54432,35768
53487,35768
53487,35020
54432,35020
54432,35768
" /> 
<polyline style="fill-rule:evenodd;"
points="50018,35548
49251,35548
49251,34879
50018,34879
50018,35548
" /> 
<polyline style="fill-rule:evenodd;"
points="53148,35548
52381,35548
52381,34879
53148,34879
53148,35548
" /> 
<polyline style="fill-rule:evenodd;"
points="43718,35548
42951,35548
42951,34879
43718,34879
43718,35548
" /> 
<polyline style="fill-rule:evenodd;"
points="46848,35548
46081,35548
46081,34879
46848,34879
46848,35548
" /> 
<polyline style="fill-rule:evenodd;"
points="42042,34587
42121,34611
42193,34650
42257,34702
42309,34766
42348,34838
42372,34917
42380,35000
42372,35082
42348,35161
42309,35233
42257,35297
42193,35349
42121,35388
42042,35412
41980,35418
41819,35418
41757,35412
41678,35388
41606,35349
41542,35297
41490,35233
41451,35161
41427,35082
41419,35000
41427,34917
41451,34838
41490,34766
41542,34702
41606,34650
41678,34611
41757,34587
41819,34581
41980,34581
42042,34587
" /> 
<polyline style="fill-rule:evenodd;"
points="48688,35226
48059,35226
48059,34773
48688,34773
48688,35226
" /> 
<polyline style="fill-rule:evenodd;"
points="47940,35226
47311,35226
47311,34773
47940,34773
47940,35226
" /> 
<polyline style="fill-rule:evenodd;"
points="42042,33587
42121,33611
42193,33650
42257,33702
42309,33766
42348,33838
42372,33917
42380,34000
42372,34082
42348,34161
42309,34233
42257,34297
42193,34349
42121,34388
42042,34412
41980,34418
41819,34418
41757,34412
41678,34388
41606,34349
41542,34297
41490,34233
41451,34161
41427,34082
41419,34000
41427,33917
41451,33838
41490,33766
41542,33702
41606,33650
41678,33611
41757,33587
41819,33581
41980,33581
42042,33587
" /> 
<polyline style="fill-rule:evenodd;"
points="51578,34118
50621,34118
50621,33281
51578,33281
51578,34118
" /> 
<polyline style="fill-rule:evenodd;"
points="43857,33520
43913,33537
43964,33565
44009,33602
44046,33646
44074,33698
44091,33753
44096,33811
44091,33869
44074,33925
44046,33976
44009,34021
43964,34058
43913,34085
43857,34102
43814,34107
43234,34107
43190,34102
43135,34085
43083,34058
43039,34021
43002,33976
42974,33925
42957,33869
42952,33811
42957,33753
42974,33698
43002,33646
43039,33602
43083,33565
43135,33537
43190,33520
43234,33516
43814,33516
43857,33520
" /> 
<polyline style="fill-rule:evenodd;"
points="49920,33520
49976,33537
50027,33565
50072,33602
50109,33646
50137,33698
50153,33753
50159,33811
50153,33869
50137,33925
50109,33976
50072,34021
50027,34058
49976,34085
49920,34102
49877,34107
49297,34107
49253,34102
49198,34085
49146,34058
49102,34021
49065,33976
49037,33925
49020,33869
49015,33811
49020,33753
49037,33698
49065,33646
49102,33602
49146,33565
49198,33537
49253,33520
49297,33516
49877,33516
49920,33520
" /> 
<polyline style="fill-rule:evenodd;"
points="54493,33793
53706,33793
53706,33006
54493,33006
54493,33793
" /> 
<polyline style="fill-rule:evenodd;"
points="55153,33012
55199,33021
55270,33051
55335,33094
55390,33149
55433,33213
55462,33285
55477,33361
55477,33438
55462,33514
55433,33586
55390,33650
55335,33705
55270,33748
55199,33778
55153,33787
55123,33793
55045,33793
55015,33787
54969,33778
54897,33748
54833,33705
54778,33650
54735,33586
54705,33514
54690,33438
54690,33361
54705,33285
54735,33213
54778,33149
54833,33094
54897,33051
54969,33021
55015,33012
55045,33006
55123,33006
55153,33012
" /> 
<polyline style="fill-rule:evenodd;"
points="42042,32587
42121,32611
42193,32650
42257,32702
42309,32766
42348,32838
42372,32917
42380,33000
42372,33082
42348,33161
42309,33233
42257,33297
42193,33349
42121,33388
42042,33412
41980,33418
41819,33418
41757,33412
41678,33388
41606,33349
41542,33297
41490,33233
41451,33161
41427,33082
41419,33000
41427,32917
41451,32838
41490,32766
41542,32702
41606,32650
41678,32611
41757,32587
41819,32581
41980,32581
42042,32587
" /> 
<polyline style="fill-rule:evenodd;"
points="43857,32733
43913,32750
43964,32777
44009,32814
44046,32859
44074,32910
44091,32966
44096,33024
44091,33082
44074,33137
44046,33189
44009,33234
43964,33271
43913,33298
43857,33315
43814,33319
43234,33319
43190,33315
43135,33298
43083,33271
43039,33234
43002,33189
42974,33137
42957,33082
42952,33024
42957,32966
42974,32910
43002,32859
43039,32814
43083,32777
43135,32750
43190,32733
43234,32729
43814,32729
43857,32733
" /> 
<polyline style="fill-rule:evenodd;"
points="49881,32733
49937,32750
49988,32777
50033,32814
50070,32859
50097,32910
50114,32966
50120,33024
50114,33082
50097,33137
50070,33189
50033,33234
49988,33271
49937,33298
49881,33315
49838,33319
49257,33319
49214,33315
49158,33298
49107,33271
49062,33234
49025,33189
48998,33137
48981,33082
48975,33024
48981,32966
48998,32910
49025,32859
49062,32814
49107,32777
49158,32750
49214,32733
49257,32729
49838,32729
49881,32733
" /> 
<polyline style="fill-rule:evenodd;"
points="51242,32287
51321,32311
51393,32350
51457,32402
51509,32466
51548,32538
51572,32617
51580,32700
51572,32782
51548,32861
51509,32933
51457,32997
51393,33049
51321,33088
51242,33112
51180,33118
51019,33118
50957,33112
50878,33088
50806,33049
50742,32997
50690,32933
50651,32861
50627,32782
50619,32700
50627,32617
50651,32538
50690,32466
50742,32402
50806,32350
50878,32311
50957,32287
51019,32281
51180,32281
51242,32287
" /> 
<polyline style="fill-rule:evenodd;"
points="54151,32751
53048,32751
53048,31648
54151,31648
54151,32751
" /> 
<polyline style="fill-rule:evenodd;"
points="55676,31659
55729,31670
55829,31711
55873,31740
55919,31771
55996,31848
55996,31848
56056,31938
56098,32039
56100,32049
56119,32145
56119,32254
56111,32297
56098,32360
56074,32418
56062,32446
56056,32461
56012,32528
55996,32551
55919,32628
55919,32628
55829,32688
55729,32729
55712,32733
55622,32751
55514,32751
55424,32733
55407,32729
55307,32688
55217,32628
55217,32628
55140,32551
55124,32528
55080,32461
55074,32446
55062,32418
55038,32360
55025,32297
55017,32254
55017,32145
55036,32049
55038,32039
55080,31938
55140,31848
55140,31848
55217,31771
55263,31740
55307,31711
55407,31670
55460,31659
55514,31648
55622,31648
55676,31659
" /> 
<polyline style="fill-rule:evenodd;"
points="43857,31946
43913,31962
43964,31990
44009,32027
44046,32072
44074,32123
44091,32179
44096,32237
44091,32294
44074,32350
44046,32401
44009,32446
43964,32483
43913,32511
43857,32528
43814,32532
43234,32532
43190,32528
43135,32511
43083,32483
43039,32446
43002,32401
42974,32350
42957,32294
42952,32237
42957,32179
42974,32123
43002,32072
43039,32027
43083,31990
43135,31962
43190,31946
43234,31941
43814,31941
43857,31946
" /> 
<polyline style="fill-rule:evenodd;"
points="49920,31946
49976,31962
50027,31990
50072,32027
50109,32072
50137,32123
50153,32179
50159,32237
50153,32294
50137,32350
50109,32401
50072,32446
50027,32483
49976,32511
49920,32528
49877,32532
49297,32532
49253,32528
49198,32511
49146,32483
49102,32446
49065,32401
49037,32350
49020,32294
49015,32237
49020,32179
49037,32123
49065,32072
49102,32027
49146,31990
49198,31962
49253,31946
49297,31941
49877,31941
49920,31946
" /> 
<polyline style="fill-rule:evenodd;"
points="42042,31587
42121,31611
42193,31650
42257,31702
42309,31766
42348,31838
42372,31917
42380,32000
42372,32082
42348,32161
42309,32233
42257,32297
42193,32349
42121,32388
42042,32412
41980,32418
41819,32418
41757,32412
41678,32388
41606,32349
41542,32297
41490,32233
41451,32161
41427,32082
41419,32000
41427,31917
41451,31838
41490,31766
41542,31702
41606,31650
41678,31611
41757,31587
41819,31581
41980,31581
42042,31587
" /> 
<polyline style="fill-rule:evenodd;"
points="51242,31287
51321,31311
51393,31350
51457,31402
51509,31466
51548,31538
51572,31617
51580,31700
51572,31782
51548,31861
51509,31933
51457,31997
51393,32049
51321,32088
51242,32112
51180,32118
51019,32118
50957,32112
50878,32088
50806,32049
50742,31997
50690,31933
50651,31861
50627,31782
50619,31700
50627,31617
50651,31538
50690,31466
50742,31402
50806,31350
50878,31311
50957,31287
51019,31281
51180,31281
51242,31287
" /> 
<polyline style="fill-rule:evenodd;"
points="49920,31158
49976,31175
50027,31202
50072,31239
50109,31284
50137,31336
50153,31391
50159,31449
50153,31507
50137,31563
50109,31614
50072,31659
50027,31696
49976,31723
49920,31740
49877,31744
49297,31744
49253,31740
49198,31723
49146,31696
49102,31659
49065,31614
49037,31563
49020,31507
49015,31449
49020,31391
49037,31336
49065,31284
49102,31239
49146,31202
49198,31175
49253,31158
49297,31154
49877,31154
49920,31158
" /> 
<polyline style="fill-rule:evenodd;"
points="43857,31158
43913,31175
43964,31202
44009,31239
44046,31284
44074,31336
44091,31391
44096,31449
44091,31507
44074,31563
44046,31614
44009,31659
43964,31696
43913,31723
43857,31740
43814,31744
43234,31744
43190,31740
43135,31723
43083,31696
43039,31659
43002,31614
42974,31563
42957,31507
42952,31449
42957,31391
42974,31336
43002,31284
43039,31239
43083,31202
43135,31175
43190,31158
43234,31154
43814,31154
43857,31158
" /> 
<polyline style="fill-rule:evenodd;"
points="42042,30587
42121,30611
42193,30650
42257,30702
42309,30766
42348,30838
42372,30917
42380,31000
42372,31082
42348,31161
42309,31233
42257,31297
42193,31349
42121,31388
42042,31412
41980,31418
41819,31418
41757,31412
41678,31388
41606,31349
41542,31297
41490,31233
41451,31161
41427,31082
41419,31000
41427,30917
41451,30838
41490,30766
41542,30702
41606,30650
41678,30611
41757,30587
41819,30581
41980,30581
42042,30587
" /> 
<polyline style="fill-rule:evenodd;"
points="51242,30287
51321,30311
51393,30350
51457,30402
51509,30466
51548,30538
51572,30617
51580,30700
51572,30782
51548,30861
51509,30933
51457,30997
51393,31049
51321,31088
51242,31112
51180,31118
51019,31118
50957,31112
50878,31088
50806,31049
50742,30997
50690,30933
50651,30861
50627,30782
50619,30700
50627,30617
50651,30538
50690,30466
50742,30402
50806,30350
50878,30311
50957,30287
51019,30281
51180,30281
51242,30287
" /> 
<polyline style="fill-rule:evenodd;"
points="43857,30371
43913,30388
43964,30415
44009,30452
44046,30497
44074,30548
44091,30604
44096,30662
44091,30720
44074,30775
44046,30827
44009,30872
43964,30908
43913,30936
43857,30953
43814,30957
43234,30957
43190,30953
43135,30936
43083,30908
43039,30872
43002,30827
42974,30775
42957,30720
42952,30662
42957,30604
42974,30548
43002,30497
43039,30452
43083,30415
43135,30388
43190,30371
43234,30366
43814,30366
43857,30371
" /> 
<polyline style="fill-rule:evenodd;"
points="49920,30371
49976,30388
50027,30415
50072,30452
50109,30497
50137,30548
50153,30604
50159,30662
50153,30720
50137,30775
50109,30827
50072,30872
50027,30908
49976,30936
49920,30953
49877,30957
49297,30957
49253,30953
49198,30936
49146,30908
49102,30872
49065,30827
49037,30775
49020,30720
49015,30662
49020,30604
49037,30548
49065,30497
49102,30452
49146,30415
49198,30388
49253,30371
49297,30366
49877,30366
49920,30371
" /> 
<polyline style="fill-rule:evenodd;"
points="42042,29587
42121,29611
42193,29650
42257,29702
42309,29766
42348,29838
42372,29917
42380,30000
42372,30082
42348,30161
42309,30233
42257,30297
42193,30349
42121,30388
42042,30412
41980,30418
41819,30418
41757,30412
41678,30388
41606,30349
41542,30297
41490,30233
41451,30161
41427,30082
41419,30000
41427,29917
41451,29838
41490,29766
41542,29702
41606,29650
41678,29611
41757,29587
41819,29581
41980,29581
42042,29587
" /> 
<polyline style="fill-rule:evenodd;"
points="49920,29583
49976,29600
50027,29628
50072,29665
50109,29709
50137,29761
50153,29816
50159,29874
50153,29932
50137,29988
50109,30039
50072,30084
50027,30121
49976,30148
49920,30165
49877,30170
49297,30170
49253,30165
49198,30148
49146,30121
49102,30084
49065,30039
49037,29988
49020,29932
49015,29874
49020,29816
49037,29761
49065,29709
49102,29665
49146,29628
49198,29600
49253,29583
49297,29579
49877,29579
49920,29583
" /> 
<polyline style="fill-rule:evenodd;"
points="43857,29583
43913,29600
43964,29628
44009,29665
44046,29709
44074,29761
44091,29816
44096,29874
44091,29932
44074,29988
44046,30039
44009,30084
43964,30121
43913,30148
43857,30165
43814,30170
43234,30170
43190,30165
43135,30148
43083,30121
43039,30084
43002,30039
42974,29988
42957,29932
42952,29874
42957,29816
42974,29761
43002,29709
43039,29665
43083,29628
43135,29600
43190,29583
43234,29579
43814,29579
43857,29583
" /> 
<polyline style="fill-rule:evenodd;"
points="51242,29287
51321,29311
51393,29350
51457,29402
51509,29466
51548,29538
51572,29617
51580,29700
51572,29782
51548,29861
51509,29933
51457,29997
51393,30049
51321,30088
51242,30112
51180,30118
51019,30118
50957,30112
50878,30088
50806,30049
50742,29997
50690,29933
50651,29861
50627,29782
50619,29700
50627,29617
50651,29538
50690,29466
50742,29402
50806,29350
50878,29311
50957,29287
51019,29281
51180,29281
51242,29287
" /> 
<polyline style="fill-rule:evenodd;"
points="53448,29955
52818,29955
52818,29444
53448,29444
53448,29955
" /> 
<polyline style="fill-rule:evenodd;"
points="52581,29955
51951,29955
51951,29444
52581,29444
52581,29955
" /> 
<polyline style="fill-rule:evenodd;"
points="42042,28587
42121,28611
42193,28650
42257,28702
42309,28766
42348,28838
42372,28917
42380,29000
42372,29082
42348,29161
42309,29233
42257,29297
42193,29349
42121,29388
42042,29412
41980,29418
41819,29418
41757,29412
41678,29388
41606,29349
41542,29297
41490,29233
41451,29161
41427,29082
41419,29000
41427,28917
41451,28838
41490,28766
41542,28702
41606,28650
41678,28611
41757,28587
41819,28581
41980,28581
42042,28587
" /> 
<polyline style="fill-rule:evenodd;"
points="49920,28796
49976,28813
50027,28840
50072,28877
50109,28922
50137,28973
50153,29029
50159,29087
50153,29145
50137,29200
50109,29252
50072,29297
50027,29334
49976,29361
49920,29378
49877,29382
49297,29382
49253,29378
49198,29361
49146,29334
49102,29297
49065,29252
49037,29200
49020,29145
49015,29087
49020,29029
49037,28973
49065,28922
49102,28877
49146,28840
49198,28813
49253,28796
49297,28792
49877,28792
49920,28796
" /> 
<polyline style="fill-rule:evenodd;"
points="43857,28796
43913,28813
43964,28840
44009,28877
44046,28922
44074,28973
44091,29029
44096,29087
44091,29145
44074,29200
44046,29252
44009,29297
43964,29334
43913,29361
43857,29378
43814,29382
43234,29382
43190,29378
43135,29361
43083,29334
43039,29297
43002,29252
42974,29200
42957,29145
42952,29087
42957,29029
42974,28973
43002,28922
43039,28877
43083,28840
43135,28813
43190,28796
43234,28792
43814,28792
43857,28796
" /> 
<polyline style="fill-rule:evenodd;"
points="51242,28287
51321,28311
51393,28350
51457,28402
51509,28466
51548,28538
51572,28617
51580,28700
51572,28782
51548,28861
51509,28933
51457,28997
51393,29049
51321,29088
51242,29112
51180,29118
51019,29118
50957,29112
50878,29088
50806,29049
50742,28997
50690,28933
50651,28861
50627,28782
50619,28700
50627,28617
50651,28538
50690,28466
50742,28402
50806,28350
50878,28311
50957,28287
51019,28281
51180,28281
51242,28287
" /> 
<polyline style="fill-rule:evenodd;"
points="53427,29114
52798,29114
52798,28485
53427,28485
53427,29114
" /> 
<polyline style="fill-rule:evenodd;"
points="52601,29114
51972,29114
51972,28485
52601,28485
52601,29114
" /> 
<polyline style="fill-rule:evenodd;"
points="44095,28595
42953,28595
42953,28004
44095,28004
44095,28595
" /> 
<polyline style="fill-rule:evenodd;"
points="49920,28008
49976,28025
50027,28053
50072,28090
50109,28135
50137,28186
50153,28242
50159,28300
50153,28357
50137,28413
50109,28464
50072,28509
50027,28546
49976,28574
49920,28591
49877,28595
49297,28595
49253,28591
49198,28574
49146,28546
49102,28509
49065,28464
49037,28413
49020,28357
49015,28300
49020,28242
49037,28186
49065,28135
49102,28090
49146,28053
49198,28025
49253,28008
49297,28004
49877,28004
49920,28008
" /> 
<polyline style="fill-rule:evenodd;"
points="42042,27587
42121,27611
42193,27650
42257,27702
42309,27766
42348,27838
42372,27917
42380,28000
42372,28082
42348,28161
42309,28233
42257,28297
42193,28349
42121,28388
42042,28412
41980,28418
41819,28418
41757,28412
41678,28388
41606,28349
41542,28297
41490,28233
41451,28161
41427,28082
41419,28000
41427,27917
41451,27838
41490,27766
41542,27702
41606,27650
41678,27611
41757,27587
41819,27581
41980,27581
42042,27587
" /> 
<polyline style="fill-rule:evenodd;"
points="57270,28170
56129,28170
56129,27029
57270,27029
57270,28170
" /> 
<polyline style="fill-rule:evenodd;"
points="54898,27051
55001,27094
55095,27156
55174,27236
55237,27329
55280,27433
55302,27543
55302,27656
55280,27766
55237,27870
55174,27963
55095,28043
55001,28105
54898,28148
54787,28170
54675,28170
54564,28148
54461,28105
54367,28043
54288,27963
54225,27870
54182,27766
54160,27656
54160,27543
54182,27433
54225,27329
54288,27236
54367,27156
54461,27094
54564,27051
54675,27029
54787,27029
54898,27051
" /> 
<polyline style="fill-rule:evenodd;"
points="42378,27418
41421,27418
41421,26581
42378,26581
42378,27418
" /> 
</g> 
</svg>
