M48
;DRILL file {KiCad 4.0.2-stable} date Tuesday, November 01, 2016 'pmt' 12:33:58 pm
;FORMAT={-:-/ absolute / inch / decimal}
FMAT,2
INCH,TZ
T1C0.016
T2C0.030
T3C0.032
T4C0.039
T5C0.040
T6C0.047
T7C0.051
%
G90
G05
M72
T1
X3.1693Y-2.372
X3.1693Y-2.4606
X3.189Y-2.1457
X3.189Y-2.2638
X3.2382Y-2.1654
X3.3071Y-2.4705
X3.3465Y-2.4705
X3.3858Y-2.1161
X3.3858Y-2.4016
X3.3957Y-2.4705
X3.4252Y-2.126
X3.4252Y-2.2047
X3.4646Y-2.313
X3.5335Y-1.624
X3.5335Y-2.0472
X3.5335Y-2.2244
X3.5433Y-2.4114
X3.5433Y-2.4803
X3.5728Y-1.7323
X3.6417Y-1.8406
X3.7008Y-1.6732
X3.7008Y-2.1063
X3.7205Y-2.5591
X3.7697Y-2.1654
X3.8091Y-1.939
X3.8386Y-2.5
X4.065Y-2.5295
X4.1634Y-2.3228
T2
X2.7953Y-1.8701
X2.7953Y-1.9685
X2.7953Y-2.0669
T3
X2.9906Y-1.4642
X2.9906Y-1.7642
X3.1906Y-1.4642
X3.1906Y-1.7642
X4.0429Y-1.6717
X4.0429Y-1.8717
X4.3429Y-1.6717
X4.3429Y-1.8717
T4
X4.4094Y-2.1835
X4.4094Y-2.2835
X4.4094Y-2.3835
T5
X3.6614Y-2.4213
X3.7614Y-2.4213
X3.8614Y-2.4213
X3.9614Y-2.4213
X4.0614Y-2.4213
X4.1063Y-1.5157
X4.1614Y-2.4213
X4.2063Y-1.5157
X4.3063Y-1.5157
X4.4063Y-1.5157
X4.5063Y-1.5157
X4.6063Y-1.5157
T6
X4.5669Y-1.8504
X4.7638Y-1.8504
T7
X4.6063Y-2.3622
X4.8031Y-2.3622
X5.1575Y-2.0669
X5.1575Y-2.2638
T0
M30
