G04 #@! TF.FileFunction,Soldermask,Top*
%FSLAX46Y46*%
G04 Gerber Fmt 4.6, Leading zero omitted, Abs format (unit mm)*
G04 Created by KiCad (PCBNEW 4.0.2-stable) date Tuesday, November 01, 2016 'pmt' 12:33:55 pm*
%MOMM*%
G01*
G04 APERTURE LIST*
%ADD10C,0.100000*%
%ADD11R,2.500000X1.100000*%
%ADD12O,2.500000X1.100000*%
%ADD13C,1.700000*%
%ADD14R,1.700000X1.700000*%
%ADD15R,1.200000X0.750000*%
%ADD16R,1.198880X1.198880*%
%ADD17R,2.500000X2.500000*%
%ADD18C,2.500000*%
%ADD19O,3.700000X1.700000*%
%ADD20R,1.727200X2.032000*%
%ADD21O,1.727200X2.032000*%
%ADD22O,2.499360X1.501140*%
%ADD23R,1.200000X0.900000*%
%ADD24C,1.397000*%
%ADD25R,2.032000X3.657600*%
%ADD26R,2.032000X1.016000*%
%ADD27R,1.450000X0.450000*%
G04 APERTURE END LIST*
D10*
D11*
X84300000Y-41000000D03*
D12*
X84300000Y-43000000D03*
X84300000Y-45000000D03*
X84300000Y-47000000D03*
X84300000Y-49000000D03*
X84300000Y-51000000D03*
X84300000Y-53000000D03*
X84300000Y-55000000D03*
X99700000Y-55000000D03*
X99600000Y-53000000D03*
X99700000Y-51000000D03*
X99700000Y-49000000D03*
X99700000Y-47000000D03*
X99700000Y-45000000D03*
X99700000Y-43000000D03*
X99700000Y-41000000D03*
D13*
X121000000Y-47000000D03*
D14*
X116000000Y-47000000D03*
D15*
X77550000Y-57500000D03*
X79450000Y-57500000D03*
D16*
X77450980Y-54500000D03*
X79549020Y-54500000D03*
D17*
X131000000Y-57500000D03*
D18*
X131000000Y-52500000D03*
D19*
X72000000Y-52500000D03*
X72000000Y-50000000D03*
X72000000Y-47500000D03*
D20*
X117000000Y-38500000D03*
D21*
X114460000Y-38500000D03*
X111920000Y-38500000D03*
X109380000Y-38500000D03*
X106840000Y-38500000D03*
X104300000Y-38500000D03*
D20*
X93000000Y-61500000D03*
D21*
X95540000Y-61500000D03*
X98080000Y-61500000D03*
X100620000Y-61500000D03*
X103160000Y-61500000D03*
X105700000Y-61500000D03*
D17*
X117000000Y-60000000D03*
D18*
X122000000Y-60000000D03*
D22*
X112000000Y-58000000D03*
X112000000Y-60540000D03*
X112000000Y-55460000D03*
D23*
X79600000Y-47000000D03*
X77400000Y-47000000D03*
X79600000Y-49500000D03*
X77400000Y-49500000D03*
X77400000Y-52000000D03*
X79600000Y-52000000D03*
X106100000Y-53250000D03*
X103900000Y-53250000D03*
X106100000Y-51000000D03*
X103900000Y-51000000D03*
D24*
X81040000Y-44810000D03*
X75960000Y-44810000D03*
X81040000Y-37190000D03*
X75960000Y-37190000D03*
X110310000Y-42460000D03*
X110310000Y-47540000D03*
X102690000Y-42460000D03*
X102690000Y-47540000D03*
D25*
X134302000Y-45500000D03*
D26*
X127698000Y-45500000D03*
X127698000Y-47786000D03*
X127698000Y-43214000D03*
D27*
X82300000Y-60300000D03*
X82300000Y-60950000D03*
X82300000Y-61600000D03*
X82300000Y-62250000D03*
X82300000Y-62900000D03*
X82300000Y-63550000D03*
X82300000Y-64200000D03*
X88200000Y-64200000D03*
X88200000Y-63550000D03*
X88200000Y-62900000D03*
X88200000Y-62250000D03*
X88200000Y-61600000D03*
X88200000Y-60950000D03*
X88200000Y-60300000D03*
M02*
