G04 #@! TF.FileFunction,Copper,L1,Top,Signal*
%FSLAX46Y46*%
G04 Gerber Fmt 4.6, Leading zero omitted, Abs format (unit mm)*
G04 Created by KiCad (PCBNEW 4.0.2-stable) date Tuesday, November 01, 2016 'pmt' 12:33:55 pm*
%MOMM*%
G01*
G04 APERTURE LIST*
%ADD10C,0.100000*%
%ADD11R,2.500000X1.100000*%
%ADD12O,2.500000X1.100000*%
%ADD13C,1.700000*%
%ADD14R,1.700000X1.700000*%
%ADD15R,1.200000X0.750000*%
%ADD16R,1.198880X1.198880*%
%ADD17R,2.500000X2.500000*%
%ADD18C,2.500000*%
%ADD19O,3.700000X1.700000*%
%ADD20R,1.727200X2.032000*%
%ADD21O,1.727200X2.032000*%
%ADD22O,2.499360X1.501140*%
%ADD23R,1.200000X0.900000*%
%ADD24C,1.397000*%
%ADD25R,2.032000X3.657600*%
%ADD26R,2.032000X1.016000*%
%ADD27R,1.450000X0.450000*%
%ADD28C,0.600000*%
%ADD29C,0.250000*%
%ADD30C,2.000000*%
%ADD31C,0.254000*%
G04 APERTURE END LIST*
D10*
D11*
X84300000Y-41000000D03*
D12*
X84300000Y-43000000D03*
X84300000Y-45000000D03*
X84300000Y-47000000D03*
X84300000Y-49000000D03*
X84300000Y-51000000D03*
X84300000Y-53000000D03*
X84300000Y-55000000D03*
X99700000Y-55000000D03*
X99600000Y-53000000D03*
X99700000Y-51000000D03*
X99700000Y-49000000D03*
X99700000Y-47000000D03*
X99700000Y-45000000D03*
X99700000Y-43000000D03*
X99700000Y-41000000D03*
D13*
X121000000Y-47000000D03*
D14*
X116000000Y-47000000D03*
D15*
X77550000Y-57500000D03*
X79450000Y-57500000D03*
D16*
X77450980Y-54500000D03*
X79549020Y-54500000D03*
D17*
X131000000Y-57500000D03*
D18*
X131000000Y-52500000D03*
D19*
X72000000Y-52500000D03*
X72000000Y-50000000D03*
X72000000Y-47500000D03*
D20*
X117000000Y-38500000D03*
D21*
X114460000Y-38500000D03*
X111920000Y-38500000D03*
X109380000Y-38500000D03*
X106840000Y-38500000D03*
X104300000Y-38500000D03*
D20*
X93000000Y-61500000D03*
D21*
X95540000Y-61500000D03*
X98080000Y-61500000D03*
X100620000Y-61500000D03*
X103160000Y-61500000D03*
X105700000Y-61500000D03*
D17*
X117000000Y-60000000D03*
D18*
X122000000Y-60000000D03*
D22*
X112000000Y-58000000D03*
X112000000Y-60540000D03*
X112000000Y-55460000D03*
D23*
X79600000Y-47000000D03*
X77400000Y-47000000D03*
X79600000Y-49500000D03*
X77400000Y-49500000D03*
X77400000Y-52000000D03*
X79600000Y-52000000D03*
X106100000Y-53250000D03*
X103900000Y-53250000D03*
X106100000Y-51000000D03*
X103900000Y-51000000D03*
D24*
X81040000Y-44810000D03*
X75960000Y-44810000D03*
X81040000Y-37190000D03*
X75960000Y-37190000D03*
X110310000Y-42460000D03*
X110310000Y-47540000D03*
X102690000Y-42460000D03*
X102690000Y-47540000D03*
D25*
X134302000Y-45500000D03*
D26*
X127698000Y-45500000D03*
X127698000Y-47786000D03*
X127698000Y-43214000D03*
D27*
X82300000Y-60300000D03*
X82300000Y-60950000D03*
X82300000Y-61600000D03*
X82300000Y-62250000D03*
X82300000Y-62900000D03*
X82300000Y-63550000D03*
X82300000Y-64200000D03*
X88200000Y-64200000D03*
X88200000Y-63550000D03*
X88200000Y-62900000D03*
X88200000Y-62250000D03*
X88200000Y-61600000D03*
X88200000Y-60950000D03*
X88200000Y-60300000D03*
D28*
X95750000Y-55000000D03*
X89750000Y-56500000D03*
X88000000Y-58750000D03*
X81000000Y-57500000D03*
X81000000Y-54500000D03*
X90000000Y-61250000D03*
X90000000Y-63000000D03*
X80500000Y-62500000D03*
X80500000Y-60250000D03*
X103250000Y-64250000D03*
X96750000Y-49250000D03*
X89750000Y-41250000D03*
X94000000Y-42500000D03*
X90750000Y-44000000D03*
X92500000Y-46750000D03*
X89750000Y-52000000D03*
X94000000Y-53500000D03*
X105750000Y-59000000D03*
X87000000Y-56000000D03*
X86250000Y-62750000D03*
X94500000Y-65000000D03*
X97500000Y-63500000D03*
X86000000Y-61000000D03*
X87000000Y-54000000D03*
X84000000Y-62750000D03*
X82250000Y-55000000D03*
X85000000Y-62750000D03*
X86000000Y-53750000D03*
D29*
X95750000Y-55000000D02*
X99000000Y-55000000D01*
X89750000Y-57000000D02*
X89750000Y-56500000D01*
X88000000Y-58750000D02*
X89750000Y-57000000D01*
X79549020Y-54500000D02*
X81000000Y-54500000D01*
X81000000Y-57500000D02*
X79450000Y-57500000D01*
X88200000Y-60950000D02*
X89700000Y-60950000D01*
X89700000Y-60950000D02*
X90000000Y-61250000D01*
X88200000Y-62900000D02*
X89900000Y-62900000D01*
X89900000Y-62900000D02*
X90000000Y-63000000D01*
X82300000Y-64200000D02*
X80950000Y-64200000D01*
X80500000Y-63750000D02*
X80500000Y-62500000D01*
X80950000Y-64200000D02*
X80500000Y-63750000D01*
X82300000Y-60300000D02*
X80550000Y-60300000D01*
X80750000Y-62250000D02*
X82300000Y-62250000D01*
X80500000Y-62500000D02*
X80750000Y-62250000D01*
X80550000Y-60300000D02*
X80500000Y-60250000D01*
X82300000Y-60300000D02*
X82250000Y-60300000D01*
X82250000Y-60300000D02*
X79450000Y-57500000D01*
X131000000Y-60250000D02*
X131000000Y-57500000D01*
X127000000Y-64250000D02*
X131000000Y-60250000D01*
X103250000Y-64250000D02*
X127000000Y-64250000D01*
X99000000Y-55000000D02*
X96750000Y-55000000D01*
X96750000Y-55000000D02*
X96750000Y-49250000D01*
X81040000Y-37190000D02*
X81440000Y-37190000D01*
X81440000Y-37190000D02*
X83750000Y-39500000D01*
X83750000Y-39500000D02*
X88000000Y-39500000D01*
X88000000Y-39500000D02*
X89750000Y-41250000D01*
X94000000Y-42500000D02*
X92500000Y-44000000D01*
X92500000Y-44000000D02*
X90750000Y-44000000D01*
X92500000Y-46750000D02*
X89750000Y-49500000D01*
X89750000Y-49500000D02*
X89750000Y-52000000D01*
X79549020Y-54500000D02*
X79549020Y-54549020D01*
X80810000Y-37460000D02*
X81460000Y-37460000D01*
X88200000Y-60300000D02*
X90800000Y-60300000D01*
X90800000Y-60300000D02*
X92000000Y-61500000D01*
X92000000Y-61500000D02*
X93000000Y-61500000D01*
X93000000Y-61500000D02*
X92000000Y-61500000D01*
X90500000Y-57000000D02*
X94000000Y-53500000D01*
X90500000Y-60000000D02*
X90500000Y-57000000D01*
X92000000Y-61500000D02*
X90500000Y-60000000D01*
X131000000Y-52500000D02*
X131000000Y-51088000D01*
X131000000Y-51088000D02*
X127698000Y-47786000D01*
X85000000Y-55000000D02*
X86000000Y-55000000D01*
X107750000Y-52650000D02*
X106100000Y-51000000D01*
X107750000Y-57000000D02*
X107750000Y-52650000D01*
X105750000Y-59000000D02*
X107750000Y-57000000D01*
X86000000Y-55000000D02*
X87000000Y-56000000D01*
X77400000Y-49500000D02*
X76750000Y-49500000D01*
X75750000Y-55700000D02*
X77550000Y-57500000D01*
X75750000Y-50500000D02*
X75750000Y-55700000D01*
X76750000Y-49500000D02*
X75750000Y-50500000D01*
X77550000Y-57500000D02*
X77550000Y-56950000D01*
X77550000Y-56950000D02*
X78500000Y-56000000D01*
X78500000Y-56000000D02*
X84000000Y-56000000D01*
X84000000Y-56000000D02*
X85000000Y-55000000D01*
X77400000Y-49500000D02*
X77400000Y-49600000D01*
X77400000Y-47000000D02*
X77400000Y-49500000D01*
X106100000Y-51000000D02*
X120000000Y-51000000D01*
X125500000Y-45500000D02*
X127698000Y-45500000D01*
X120000000Y-51000000D02*
X125500000Y-45500000D01*
X77450980Y-54500000D02*
X77450980Y-52050980D01*
X77450980Y-52050980D02*
X77400000Y-52000000D01*
X82300000Y-61600000D02*
X85100000Y-61600000D01*
X85100000Y-61600000D02*
X86250000Y-62750000D01*
X71000000Y-50000000D02*
X74250000Y-50000000D01*
X76850000Y-61600000D02*
X82300000Y-61600000D01*
X74750000Y-59500000D02*
X76850000Y-61600000D01*
X74750000Y-50500000D02*
X74750000Y-59500000D01*
X74250000Y-50000000D02*
X74750000Y-50500000D01*
X99000000Y-43000000D02*
X98000000Y-43000000D01*
X83800000Y-60950000D02*
X82300000Y-60950000D01*
X91000000Y-53750000D02*
X83800000Y-60950000D01*
X91000000Y-50000000D02*
X91000000Y-53750000D01*
X98000000Y-43000000D02*
X91000000Y-50000000D01*
X99000000Y-43000000D02*
X100000000Y-43000000D01*
X100000000Y-43000000D02*
X102000000Y-41000000D01*
X102000000Y-41000000D02*
X106880000Y-41000000D01*
X106880000Y-41000000D02*
X109380000Y-38500000D01*
X99000000Y-41000000D02*
X103000000Y-37000000D01*
X105340000Y-37000000D02*
X106840000Y-38500000D01*
X103000000Y-37000000D02*
X105340000Y-37000000D01*
X82300000Y-63550000D02*
X84550000Y-63550000D01*
X86000000Y-65000000D02*
X94500000Y-65000000D01*
X84550000Y-63550000D02*
X86000000Y-65000000D01*
X98000000Y-61500000D02*
X98080000Y-61500000D01*
X88200000Y-64200000D02*
X97920000Y-64200000D01*
X97920000Y-64200000D02*
X100620000Y-61500000D01*
X88200000Y-62250000D02*
X91000000Y-62250000D01*
X92250000Y-63500000D02*
X97500000Y-63500000D01*
X91000000Y-62250000D02*
X92250000Y-63500000D01*
X103160000Y-61500000D02*
X103250000Y-61500000D01*
X103250000Y-61500000D02*
X105250000Y-63500000D01*
X109040000Y-63500000D02*
X112000000Y-60540000D01*
X105250000Y-63500000D02*
X109040000Y-63500000D01*
D30*
X112000000Y-58000000D02*
X115000000Y-58000000D01*
X115000000Y-58000000D02*
X117000000Y-60000000D01*
D29*
X75960000Y-37190000D02*
X77690000Y-37190000D01*
X77690000Y-37190000D02*
X81500000Y-41000000D01*
X81500000Y-41000000D02*
X85000000Y-41000000D01*
X75960000Y-44810000D02*
X75960000Y-37190000D01*
X79600000Y-47000000D02*
X79600000Y-42900000D01*
X79600000Y-42900000D02*
X81500000Y-41000000D01*
X81500000Y-41000000D02*
X85000000Y-41000000D01*
X85000000Y-41000000D02*
X83500000Y-41000000D01*
X79600000Y-49500000D02*
X79600000Y-49400000D01*
X79600000Y-49400000D02*
X82000000Y-47000000D01*
X82000000Y-47000000D02*
X82000000Y-46500000D01*
X82000000Y-46500000D02*
X83500000Y-45000000D01*
X83500000Y-45000000D02*
X85000000Y-45000000D01*
X85000000Y-45000000D02*
X83100000Y-45000000D01*
X79600000Y-52000000D02*
X80000000Y-52000000D01*
X80000000Y-52000000D02*
X82000000Y-50000000D01*
X82000000Y-50000000D02*
X82000000Y-48500000D01*
X82000000Y-48500000D02*
X83500000Y-47000000D01*
X83500000Y-47000000D02*
X85000000Y-47000000D01*
X99000000Y-53000000D02*
X103650000Y-53000000D01*
X103650000Y-53000000D02*
X103900000Y-53250000D01*
X99000000Y-53000000D02*
X99900000Y-53000000D01*
X103900000Y-51000000D02*
X103900000Y-48750000D01*
X103900000Y-48750000D02*
X102690000Y-47540000D01*
X102690000Y-47540000D02*
X110310000Y-47540000D01*
X99000000Y-49000000D02*
X101230000Y-49000000D01*
X101230000Y-49000000D02*
X102690000Y-47540000D01*
X85000000Y-49000000D02*
X85500000Y-49000000D01*
X85500000Y-49000000D02*
X87000000Y-50500000D01*
X86600000Y-61600000D02*
X88200000Y-61600000D01*
X86000000Y-61000000D02*
X86600000Y-61600000D01*
X87000000Y-50500000D02*
X87000000Y-54000000D01*
X85000000Y-51000000D02*
X83750000Y-51000000D01*
X83750000Y-51000000D02*
X82250000Y-52500000D01*
X83850000Y-62900000D02*
X82300000Y-62900000D01*
X84000000Y-62750000D02*
X83850000Y-62900000D01*
X82250000Y-52500000D02*
X82250000Y-55000000D01*
X85000000Y-51000000D02*
X84000000Y-51000000D01*
X85000000Y-53000000D02*
X85250000Y-53000000D01*
X85250000Y-53000000D02*
X86000000Y-53750000D01*
X85800000Y-63550000D02*
X88200000Y-63550000D01*
X85000000Y-62750000D02*
X85800000Y-63550000D01*
X85500000Y-53000000D02*
X85000000Y-53000000D01*
D31*
G36*
X133263459Y-36949738D02*
X134334568Y-37665429D01*
X135050262Y-38736540D01*
X135315000Y-40067467D01*
X135315000Y-43023760D01*
X133286000Y-43023760D01*
X133050683Y-43068038D01*
X132834559Y-43207110D01*
X132689569Y-43419310D01*
X132638560Y-43671200D01*
X132638560Y-47328800D01*
X132682838Y-47564117D01*
X132821910Y-47780241D01*
X133034110Y-47925231D01*
X133286000Y-47976240D01*
X135315000Y-47976240D01*
X135315000Y-61932533D01*
X135050262Y-63263460D01*
X134334568Y-64334571D01*
X133263459Y-65050262D01*
X131932533Y-65315000D01*
X95381604Y-65315000D01*
X95434838Y-65186799D01*
X95435036Y-64960000D01*
X97920000Y-64960000D01*
X98210839Y-64902148D01*
X98457401Y-64737401D01*
X100112421Y-63082381D01*
X100620000Y-63183345D01*
X101193489Y-63069271D01*
X101679670Y-62744415D01*
X101890000Y-62429634D01*
X102100330Y-62744415D01*
X102586511Y-63069271D01*
X103160000Y-63183345D01*
X103733489Y-63069271D01*
X103740071Y-63064873D01*
X104712599Y-64037401D01*
X104959161Y-64202148D01*
X105250000Y-64260000D01*
X109040000Y-64260000D01*
X109330839Y-64202148D01*
X109577401Y-64037401D01*
X110614802Y-63000000D01*
X131196966Y-63000000D01*
X131334214Y-63689991D01*
X131725062Y-64274938D01*
X132310009Y-64665786D01*
X133000000Y-64803034D01*
X133689991Y-64665786D01*
X134274938Y-64274938D01*
X134665786Y-63689991D01*
X134803034Y-63000000D01*
X134665786Y-62310009D01*
X134274938Y-61725062D01*
X133689991Y-61334214D01*
X133000000Y-61196966D01*
X132310009Y-61334214D01*
X131725062Y-61725062D01*
X131334214Y-62310009D01*
X131196966Y-63000000D01*
X110614802Y-63000000D01*
X111689232Y-61925570D01*
X112536033Y-61925570D01*
X113066268Y-61820100D01*
X113515779Y-61519746D01*
X113816133Y-61070235D01*
X113921603Y-60540000D01*
X113816133Y-60009765D01*
X113565723Y-59635000D01*
X114322760Y-59635000D01*
X115102560Y-60414799D01*
X115102560Y-61250000D01*
X115146838Y-61485317D01*
X115285910Y-61701441D01*
X115498110Y-61846431D01*
X115750000Y-61897440D01*
X118250000Y-61897440D01*
X118485317Y-61853162D01*
X118701441Y-61714090D01*
X118846431Y-61501890D01*
X118897440Y-61250000D01*
X118897440Y-60373305D01*
X120114674Y-60373305D01*
X120401043Y-61066372D01*
X120930839Y-61597093D01*
X121623405Y-61884672D01*
X122373305Y-61885326D01*
X123066372Y-61598957D01*
X123597093Y-61069161D01*
X123884672Y-60376595D01*
X123885326Y-59626695D01*
X123598957Y-58933628D01*
X123069161Y-58402907D01*
X122376595Y-58115328D01*
X121626695Y-58114674D01*
X120933628Y-58401043D01*
X120402907Y-58930839D01*
X120115328Y-59623405D01*
X120114674Y-60373305D01*
X118897440Y-60373305D01*
X118897440Y-58750000D01*
X118853162Y-58514683D01*
X118714090Y-58298559D01*
X118501890Y-58153569D01*
X118250000Y-58102560D01*
X117414799Y-58102560D01*
X117170990Y-57858750D01*
X128823000Y-57858750D01*
X128823000Y-58934392D01*
X128964127Y-59275104D01*
X129224897Y-59535873D01*
X129565608Y-59677000D01*
X130641250Y-59677000D01*
X130873000Y-59445250D01*
X130873000Y-57627000D01*
X131127000Y-57627000D01*
X131127000Y-59445250D01*
X131358750Y-59677000D01*
X132434392Y-59677000D01*
X132775103Y-59535873D01*
X133035873Y-59275104D01*
X133177000Y-58934392D01*
X133177000Y-57858750D01*
X132945250Y-57627000D01*
X131127000Y-57627000D01*
X130873000Y-57627000D01*
X129054750Y-57627000D01*
X128823000Y-57858750D01*
X117170990Y-57858750D01*
X116156120Y-56843880D01*
X115625688Y-56489457D01*
X115000000Y-56364999D01*
X114999995Y-56365000D01*
X113883084Y-56365000D01*
X114051925Y-56065608D01*
X128823000Y-56065608D01*
X128823000Y-57141250D01*
X129054750Y-57373000D01*
X130873000Y-57373000D01*
X130873000Y-55554750D01*
X131127000Y-55554750D01*
X131127000Y-57373000D01*
X132945250Y-57373000D01*
X133177000Y-57141250D01*
X133177000Y-56065608D01*
X133035873Y-55724896D01*
X132775103Y-55464127D01*
X132434392Y-55323000D01*
X131358750Y-55323000D01*
X131127000Y-55554750D01*
X130873000Y-55554750D01*
X130641250Y-55323000D01*
X129565608Y-55323000D01*
X129224897Y-55464127D01*
X128964127Y-55724896D01*
X128823000Y-56065608D01*
X114051925Y-56065608D01*
X114097584Y-55984646D01*
X114131404Y-55847113D01*
X113939341Y-55587000D01*
X112127000Y-55587000D01*
X112127000Y-55607000D01*
X111873000Y-55607000D01*
X111873000Y-55587000D01*
X110060659Y-55587000D01*
X109868596Y-55847113D01*
X109902416Y-55984646D01*
X110224866Y-56556419D01*
X110663753Y-56900294D01*
X110484221Y-57020254D01*
X110183867Y-57469765D01*
X110078397Y-58000000D01*
X110183867Y-58530235D01*
X110484221Y-58979746D01*
X110918616Y-59270000D01*
X110484221Y-59560254D01*
X110183867Y-60009765D01*
X110078397Y-60540000D01*
X110183867Y-61070235D01*
X110268420Y-61196778D01*
X108725198Y-62740000D01*
X107085165Y-62740000D01*
X107240775Y-62566799D01*
X107473416Y-61907565D01*
X107259749Y-61627000D01*
X105827000Y-61627000D01*
X105827000Y-61647000D01*
X105573000Y-61647000D01*
X105573000Y-61627000D01*
X105553000Y-61627000D01*
X105553000Y-61373000D01*
X105573000Y-61373000D01*
X105573000Y-61353000D01*
X105827000Y-61353000D01*
X105827000Y-61373000D01*
X107259749Y-61373000D01*
X107473416Y-61092435D01*
X107240775Y-60433201D01*
X106773565Y-59913176D01*
X106357858Y-59714339D01*
X106542192Y-59530327D01*
X106684838Y-59186799D01*
X106684879Y-59139923D01*
X108287401Y-57537401D01*
X108452148Y-57290839D01*
X108510000Y-57000000D01*
X108510000Y-55072887D01*
X109868596Y-55072887D01*
X110060659Y-55333000D01*
X111873000Y-55333000D01*
X111873000Y-53782430D01*
X112127000Y-53782430D01*
X112127000Y-55333000D01*
X113939341Y-55333000D01*
X114131404Y-55072887D01*
X114097584Y-54935354D01*
X113775134Y-54363581D01*
X113258421Y-53958728D01*
X112626110Y-53782430D01*
X112127000Y-53782430D01*
X111873000Y-53782430D01*
X111373890Y-53782430D01*
X110741579Y-53958728D01*
X110224866Y-54363581D01*
X109902416Y-54935354D01*
X109868596Y-55072887D01*
X108510000Y-55072887D01*
X108510000Y-52650000D01*
X108489416Y-52546520D01*
X108452148Y-52359160D01*
X108287401Y-52112599D01*
X107934802Y-51760000D01*
X120000000Y-51760000D01*
X120290839Y-51702148D01*
X120537401Y-51537401D01*
X125814802Y-46260000D01*
X126089573Y-46260000D01*
X126217910Y-46459441D01*
X126430110Y-46604431D01*
X126618314Y-46642543D01*
X126446683Y-46674838D01*
X126230559Y-46813910D01*
X126085569Y-47026110D01*
X126034560Y-47278000D01*
X126034560Y-48294000D01*
X126078838Y-48529317D01*
X126217910Y-48745441D01*
X126430110Y-48890431D01*
X126682000Y-48941440D01*
X127778638Y-48941440D01*
X129835849Y-50998651D01*
X129402907Y-51430839D01*
X129115328Y-52123405D01*
X129114674Y-52873305D01*
X129401043Y-53566372D01*
X129930839Y-54097093D01*
X130623405Y-54384672D01*
X131373305Y-54385326D01*
X132066372Y-54098957D01*
X132597093Y-53569161D01*
X132884672Y-52876595D01*
X132885326Y-52126695D01*
X132598957Y-51433628D01*
X132069161Y-50902907D01*
X131659008Y-50732596D01*
X131537401Y-50550599D01*
X129347860Y-48361058D01*
X129361440Y-48294000D01*
X129361440Y-47278000D01*
X129317162Y-47042683D01*
X129178090Y-46826559D01*
X128965890Y-46681569D01*
X128777686Y-46643457D01*
X128949317Y-46611162D01*
X129165441Y-46472090D01*
X129310431Y-46259890D01*
X129361440Y-46008000D01*
X129361440Y-44992000D01*
X129317162Y-44756683D01*
X129178090Y-44540559D01*
X129171335Y-44535943D01*
X129239103Y-44507873D01*
X129499873Y-44247104D01*
X129641000Y-43906392D01*
X129641000Y-43572750D01*
X129409250Y-43341000D01*
X127825000Y-43341000D01*
X127825000Y-43361000D01*
X127571000Y-43361000D01*
X127571000Y-43341000D01*
X125986750Y-43341000D01*
X125755000Y-43572750D01*
X125755000Y-43906392D01*
X125896127Y-44247104D01*
X126156897Y-44507873D01*
X126224981Y-44536074D01*
X126085644Y-44740000D01*
X125500000Y-44740000D01*
X125209161Y-44797852D01*
X124962599Y-44962599D01*
X122782262Y-47142936D01*
X122765237Y-46591831D01*
X122536830Y-46040408D01*
X122203461Y-45976144D01*
X121179605Y-47000000D01*
X121193748Y-47014143D01*
X121014143Y-47193748D01*
X121000000Y-47179605D01*
X119976144Y-48203461D01*
X120040408Y-48536830D01*
X120701572Y-48787066D01*
X121152049Y-48773149D01*
X119685198Y-50240000D01*
X107255105Y-50240000D01*
X107164090Y-50098559D01*
X106951890Y-49953569D01*
X106700000Y-49902560D01*
X105500000Y-49902560D01*
X105264683Y-49946838D01*
X105048559Y-50085910D01*
X105000866Y-50155711D01*
X104964090Y-50098559D01*
X104751890Y-49953569D01*
X104660000Y-49934961D01*
X104660000Y-48750000D01*
X104602148Y-48459161D01*
X104602148Y-48459160D01*
X104495801Y-48300000D01*
X109184464Y-48300000D01*
X109553647Y-48669827D01*
X110043587Y-48873268D01*
X110574086Y-48873731D01*
X111064380Y-48671146D01*
X111439827Y-48296353D01*
X111643268Y-47806413D01*
X111643731Y-47275914D01*
X111441146Y-46785620D01*
X111066353Y-46410173D01*
X110576413Y-46206732D01*
X110045914Y-46206269D01*
X109555620Y-46408854D01*
X109183826Y-46780000D01*
X103815536Y-46780000D01*
X103446353Y-46410173D01*
X102956413Y-46206732D01*
X102425914Y-46206269D01*
X101935620Y-46408854D01*
X101575792Y-46768055D01*
X101531726Y-46546520D01*
X101274851Y-46162078D01*
X101256775Y-46150000D01*
X114502560Y-46150000D01*
X114502560Y-47850000D01*
X114546838Y-48085317D01*
X114685910Y-48301441D01*
X114898110Y-48446431D01*
X115150000Y-48497440D01*
X116850000Y-48497440D01*
X117085317Y-48453162D01*
X117301441Y-48314090D01*
X117446431Y-48101890D01*
X117497440Y-47850000D01*
X117497440Y-46701572D01*
X119212934Y-46701572D01*
X119234763Y-47408169D01*
X119463170Y-47959592D01*
X119796539Y-48023856D01*
X120820395Y-47000000D01*
X119796539Y-45976144D01*
X119463170Y-46040408D01*
X119212934Y-46701572D01*
X117497440Y-46701572D01*
X117497440Y-46150000D01*
X117453162Y-45914683D01*
X117377139Y-45796539D01*
X119976144Y-45796539D01*
X121000000Y-46820395D01*
X122023856Y-45796539D01*
X121959592Y-45463170D01*
X121298428Y-45212934D01*
X120591831Y-45234763D01*
X120040408Y-45463170D01*
X119976144Y-45796539D01*
X117377139Y-45796539D01*
X117314090Y-45698559D01*
X117101890Y-45553569D01*
X116850000Y-45502560D01*
X115150000Y-45502560D01*
X114914683Y-45546838D01*
X114698559Y-45685910D01*
X114553569Y-45898110D01*
X114502560Y-46150000D01*
X101256775Y-46150000D01*
X101032283Y-46000000D01*
X101274851Y-45837922D01*
X101531726Y-45453480D01*
X101621929Y-45000000D01*
X101531726Y-44546520D01*
X101274851Y-44162078D01*
X101032283Y-44000000D01*
X101274851Y-43837922D01*
X101464665Y-43553843D01*
X101775763Y-43553843D01*
X101821447Y-43871527D01*
X102427728Y-44096461D01*
X103073939Y-44072260D01*
X103558553Y-43871527D01*
X103604237Y-43553843D01*
X109395763Y-43553843D01*
X109441447Y-43871527D01*
X110047728Y-44096461D01*
X110693939Y-44072260D01*
X111178553Y-43871527D01*
X111224237Y-43553843D01*
X110310000Y-42639605D01*
X109395763Y-43553843D01*
X103604237Y-43553843D01*
X102690000Y-42639605D01*
X101775763Y-43553843D01*
X101464665Y-43553843D01*
X101531726Y-43453480D01*
X101548842Y-43367433D01*
X101596157Y-43374237D01*
X102510395Y-42460000D01*
X102496252Y-42445858D01*
X102675858Y-42266252D01*
X102690000Y-42280395D01*
X102704142Y-42266252D01*
X102883748Y-42445858D01*
X102869605Y-42460000D01*
X103783843Y-43374237D01*
X104101527Y-43328553D01*
X104326461Y-42722272D01*
X104306817Y-42197728D01*
X108673539Y-42197728D01*
X108697740Y-42843939D01*
X108898473Y-43328553D01*
X109216157Y-43374237D01*
X110130395Y-42460000D01*
X110489605Y-42460000D01*
X111403843Y-43374237D01*
X111721527Y-43328553D01*
X111946461Y-42722272D01*
X111938947Y-42521608D01*
X125755000Y-42521608D01*
X125755000Y-42855250D01*
X125986750Y-43087000D01*
X127571000Y-43087000D01*
X127571000Y-42010750D01*
X127825000Y-42010750D01*
X127825000Y-43087000D01*
X129409250Y-43087000D01*
X129641000Y-42855250D01*
X129641000Y-42521608D01*
X129499873Y-42180896D01*
X129239103Y-41920127D01*
X128898392Y-41779000D01*
X128056750Y-41779000D01*
X127825000Y-42010750D01*
X127571000Y-42010750D01*
X127339250Y-41779000D01*
X126497608Y-41779000D01*
X126156897Y-41920127D01*
X125896127Y-42180896D01*
X125755000Y-42521608D01*
X111938947Y-42521608D01*
X111922260Y-42076061D01*
X111721527Y-41591447D01*
X111403843Y-41545763D01*
X110489605Y-42460000D01*
X110130395Y-42460000D01*
X109216157Y-41545763D01*
X108898473Y-41591447D01*
X108673539Y-42197728D01*
X104306817Y-42197728D01*
X104302260Y-42076061D01*
X104171344Y-41760000D01*
X106880000Y-41760000D01*
X107170839Y-41702148D01*
X107417401Y-41537401D01*
X107588645Y-41366157D01*
X109395763Y-41366157D01*
X110310000Y-42280395D01*
X111224237Y-41366157D01*
X111178553Y-41048473D01*
X110572272Y-40823539D01*
X109926061Y-40847740D01*
X109441447Y-41048473D01*
X109395763Y-41366157D01*
X107588645Y-41366157D01*
X108872421Y-40082381D01*
X109380000Y-40183345D01*
X109953489Y-40069271D01*
X110439670Y-39744415D01*
X110650000Y-39429634D01*
X110860330Y-39744415D01*
X111346511Y-40069271D01*
X111920000Y-40183345D01*
X112493489Y-40069271D01*
X112979670Y-39744415D01*
X113190000Y-39429634D01*
X113400330Y-39744415D01*
X113886511Y-40069271D01*
X114460000Y-40183345D01*
X115033489Y-40069271D01*
X115290940Y-39897248D01*
X115350527Y-40041104D01*
X115611297Y-40301873D01*
X115952008Y-40443000D01*
X116641250Y-40443000D01*
X116873000Y-40211250D01*
X116873000Y-38627000D01*
X117127000Y-38627000D01*
X117127000Y-40211250D01*
X117358750Y-40443000D01*
X118047992Y-40443000D01*
X118388703Y-40301873D01*
X118649473Y-40041104D01*
X118790600Y-39700392D01*
X118790600Y-39000000D01*
X131196966Y-39000000D01*
X131334214Y-39689991D01*
X131725062Y-40274938D01*
X132310009Y-40665786D01*
X133000000Y-40803034D01*
X133689991Y-40665786D01*
X134274938Y-40274938D01*
X134665786Y-39689991D01*
X134803034Y-39000000D01*
X134665786Y-38310009D01*
X134274938Y-37725062D01*
X133689991Y-37334214D01*
X133000000Y-37196966D01*
X132310009Y-37334214D01*
X131725062Y-37725062D01*
X131334214Y-38310009D01*
X131196966Y-39000000D01*
X118790600Y-39000000D01*
X118790600Y-38858750D01*
X118558850Y-38627000D01*
X117127000Y-38627000D01*
X116873000Y-38627000D01*
X116853000Y-38627000D01*
X116853000Y-38373000D01*
X116873000Y-38373000D01*
X116873000Y-38353000D01*
X117127000Y-38353000D01*
X117127000Y-38373000D01*
X118558850Y-38373000D01*
X118790600Y-38141250D01*
X118790600Y-37299608D01*
X118649473Y-36958896D01*
X118388703Y-36698127D01*
X118357012Y-36685000D01*
X131932533Y-36685000D01*
X133263459Y-36949738D01*
X133263459Y-36949738D01*
G37*
X133263459Y-36949738D02*
X134334568Y-37665429D01*
X135050262Y-38736540D01*
X135315000Y-40067467D01*
X135315000Y-43023760D01*
X133286000Y-43023760D01*
X133050683Y-43068038D01*
X132834559Y-43207110D01*
X132689569Y-43419310D01*
X132638560Y-43671200D01*
X132638560Y-47328800D01*
X132682838Y-47564117D01*
X132821910Y-47780241D01*
X133034110Y-47925231D01*
X133286000Y-47976240D01*
X135315000Y-47976240D01*
X135315000Y-61932533D01*
X135050262Y-63263460D01*
X134334568Y-64334571D01*
X133263459Y-65050262D01*
X131932533Y-65315000D01*
X95381604Y-65315000D01*
X95434838Y-65186799D01*
X95435036Y-64960000D01*
X97920000Y-64960000D01*
X98210839Y-64902148D01*
X98457401Y-64737401D01*
X100112421Y-63082381D01*
X100620000Y-63183345D01*
X101193489Y-63069271D01*
X101679670Y-62744415D01*
X101890000Y-62429634D01*
X102100330Y-62744415D01*
X102586511Y-63069271D01*
X103160000Y-63183345D01*
X103733489Y-63069271D01*
X103740071Y-63064873D01*
X104712599Y-64037401D01*
X104959161Y-64202148D01*
X105250000Y-64260000D01*
X109040000Y-64260000D01*
X109330839Y-64202148D01*
X109577401Y-64037401D01*
X110614802Y-63000000D01*
X131196966Y-63000000D01*
X131334214Y-63689991D01*
X131725062Y-64274938D01*
X132310009Y-64665786D01*
X133000000Y-64803034D01*
X133689991Y-64665786D01*
X134274938Y-64274938D01*
X134665786Y-63689991D01*
X134803034Y-63000000D01*
X134665786Y-62310009D01*
X134274938Y-61725062D01*
X133689991Y-61334214D01*
X133000000Y-61196966D01*
X132310009Y-61334214D01*
X131725062Y-61725062D01*
X131334214Y-62310009D01*
X131196966Y-63000000D01*
X110614802Y-63000000D01*
X111689232Y-61925570D01*
X112536033Y-61925570D01*
X113066268Y-61820100D01*
X113515779Y-61519746D01*
X113816133Y-61070235D01*
X113921603Y-60540000D01*
X113816133Y-60009765D01*
X113565723Y-59635000D01*
X114322760Y-59635000D01*
X115102560Y-60414799D01*
X115102560Y-61250000D01*
X115146838Y-61485317D01*
X115285910Y-61701441D01*
X115498110Y-61846431D01*
X115750000Y-61897440D01*
X118250000Y-61897440D01*
X118485317Y-61853162D01*
X118701441Y-61714090D01*
X118846431Y-61501890D01*
X118897440Y-61250000D01*
X118897440Y-60373305D01*
X120114674Y-60373305D01*
X120401043Y-61066372D01*
X120930839Y-61597093D01*
X121623405Y-61884672D01*
X122373305Y-61885326D01*
X123066372Y-61598957D01*
X123597093Y-61069161D01*
X123884672Y-60376595D01*
X123885326Y-59626695D01*
X123598957Y-58933628D01*
X123069161Y-58402907D01*
X122376595Y-58115328D01*
X121626695Y-58114674D01*
X120933628Y-58401043D01*
X120402907Y-58930839D01*
X120115328Y-59623405D01*
X120114674Y-60373305D01*
X118897440Y-60373305D01*
X118897440Y-58750000D01*
X118853162Y-58514683D01*
X118714090Y-58298559D01*
X118501890Y-58153569D01*
X118250000Y-58102560D01*
X117414799Y-58102560D01*
X117170990Y-57858750D01*
X128823000Y-57858750D01*
X128823000Y-58934392D01*
X128964127Y-59275104D01*
X129224897Y-59535873D01*
X129565608Y-59677000D01*
X130641250Y-59677000D01*
X130873000Y-59445250D01*
X130873000Y-57627000D01*
X131127000Y-57627000D01*
X131127000Y-59445250D01*
X131358750Y-59677000D01*
X132434392Y-59677000D01*
X132775103Y-59535873D01*
X133035873Y-59275104D01*
X133177000Y-58934392D01*
X133177000Y-57858750D01*
X132945250Y-57627000D01*
X131127000Y-57627000D01*
X130873000Y-57627000D01*
X129054750Y-57627000D01*
X128823000Y-57858750D01*
X117170990Y-57858750D01*
X116156120Y-56843880D01*
X115625688Y-56489457D01*
X115000000Y-56364999D01*
X114999995Y-56365000D01*
X113883084Y-56365000D01*
X114051925Y-56065608D01*
X128823000Y-56065608D01*
X128823000Y-57141250D01*
X129054750Y-57373000D01*
X130873000Y-57373000D01*
X130873000Y-55554750D01*
X131127000Y-55554750D01*
X131127000Y-57373000D01*
X132945250Y-57373000D01*
X133177000Y-57141250D01*
X133177000Y-56065608D01*
X133035873Y-55724896D01*
X132775103Y-55464127D01*
X132434392Y-55323000D01*
X131358750Y-55323000D01*
X131127000Y-55554750D01*
X130873000Y-55554750D01*
X130641250Y-55323000D01*
X129565608Y-55323000D01*
X129224897Y-55464127D01*
X128964127Y-55724896D01*
X128823000Y-56065608D01*
X114051925Y-56065608D01*
X114097584Y-55984646D01*
X114131404Y-55847113D01*
X113939341Y-55587000D01*
X112127000Y-55587000D01*
X112127000Y-55607000D01*
X111873000Y-55607000D01*
X111873000Y-55587000D01*
X110060659Y-55587000D01*
X109868596Y-55847113D01*
X109902416Y-55984646D01*
X110224866Y-56556419D01*
X110663753Y-56900294D01*
X110484221Y-57020254D01*
X110183867Y-57469765D01*
X110078397Y-58000000D01*
X110183867Y-58530235D01*
X110484221Y-58979746D01*
X110918616Y-59270000D01*
X110484221Y-59560254D01*
X110183867Y-60009765D01*
X110078397Y-60540000D01*
X110183867Y-61070235D01*
X110268420Y-61196778D01*
X108725198Y-62740000D01*
X107085165Y-62740000D01*
X107240775Y-62566799D01*
X107473416Y-61907565D01*
X107259749Y-61627000D01*
X105827000Y-61627000D01*
X105827000Y-61647000D01*
X105573000Y-61647000D01*
X105573000Y-61627000D01*
X105553000Y-61627000D01*
X105553000Y-61373000D01*
X105573000Y-61373000D01*
X105573000Y-61353000D01*
X105827000Y-61353000D01*
X105827000Y-61373000D01*
X107259749Y-61373000D01*
X107473416Y-61092435D01*
X107240775Y-60433201D01*
X106773565Y-59913176D01*
X106357858Y-59714339D01*
X106542192Y-59530327D01*
X106684838Y-59186799D01*
X106684879Y-59139923D01*
X108287401Y-57537401D01*
X108452148Y-57290839D01*
X108510000Y-57000000D01*
X108510000Y-55072887D01*
X109868596Y-55072887D01*
X110060659Y-55333000D01*
X111873000Y-55333000D01*
X111873000Y-53782430D01*
X112127000Y-53782430D01*
X112127000Y-55333000D01*
X113939341Y-55333000D01*
X114131404Y-55072887D01*
X114097584Y-54935354D01*
X113775134Y-54363581D01*
X113258421Y-53958728D01*
X112626110Y-53782430D01*
X112127000Y-53782430D01*
X111873000Y-53782430D01*
X111373890Y-53782430D01*
X110741579Y-53958728D01*
X110224866Y-54363581D01*
X109902416Y-54935354D01*
X109868596Y-55072887D01*
X108510000Y-55072887D01*
X108510000Y-52650000D01*
X108489416Y-52546520D01*
X108452148Y-52359160D01*
X108287401Y-52112599D01*
X107934802Y-51760000D01*
X120000000Y-51760000D01*
X120290839Y-51702148D01*
X120537401Y-51537401D01*
X125814802Y-46260000D01*
X126089573Y-46260000D01*
X126217910Y-46459441D01*
X126430110Y-46604431D01*
X126618314Y-46642543D01*
X126446683Y-46674838D01*
X126230559Y-46813910D01*
X126085569Y-47026110D01*
X126034560Y-47278000D01*
X126034560Y-48294000D01*
X126078838Y-48529317D01*
X126217910Y-48745441D01*
X126430110Y-48890431D01*
X126682000Y-48941440D01*
X127778638Y-48941440D01*
X129835849Y-50998651D01*
X129402907Y-51430839D01*
X129115328Y-52123405D01*
X129114674Y-52873305D01*
X129401043Y-53566372D01*
X129930839Y-54097093D01*
X130623405Y-54384672D01*
X131373305Y-54385326D01*
X132066372Y-54098957D01*
X132597093Y-53569161D01*
X132884672Y-52876595D01*
X132885326Y-52126695D01*
X132598957Y-51433628D01*
X132069161Y-50902907D01*
X131659008Y-50732596D01*
X131537401Y-50550599D01*
X129347860Y-48361058D01*
X129361440Y-48294000D01*
X129361440Y-47278000D01*
X129317162Y-47042683D01*
X129178090Y-46826559D01*
X128965890Y-46681569D01*
X128777686Y-46643457D01*
X128949317Y-46611162D01*
X129165441Y-46472090D01*
X129310431Y-46259890D01*
X129361440Y-46008000D01*
X129361440Y-44992000D01*
X129317162Y-44756683D01*
X129178090Y-44540559D01*
X129171335Y-44535943D01*
X129239103Y-44507873D01*
X129499873Y-44247104D01*
X129641000Y-43906392D01*
X129641000Y-43572750D01*
X129409250Y-43341000D01*
X127825000Y-43341000D01*
X127825000Y-43361000D01*
X127571000Y-43361000D01*
X127571000Y-43341000D01*
X125986750Y-43341000D01*
X125755000Y-43572750D01*
X125755000Y-43906392D01*
X125896127Y-44247104D01*
X126156897Y-44507873D01*
X126224981Y-44536074D01*
X126085644Y-44740000D01*
X125500000Y-44740000D01*
X125209161Y-44797852D01*
X124962599Y-44962599D01*
X122782262Y-47142936D01*
X122765237Y-46591831D01*
X122536830Y-46040408D01*
X122203461Y-45976144D01*
X121179605Y-47000000D01*
X121193748Y-47014143D01*
X121014143Y-47193748D01*
X121000000Y-47179605D01*
X119976144Y-48203461D01*
X120040408Y-48536830D01*
X120701572Y-48787066D01*
X121152049Y-48773149D01*
X119685198Y-50240000D01*
X107255105Y-50240000D01*
X107164090Y-50098559D01*
X106951890Y-49953569D01*
X106700000Y-49902560D01*
X105500000Y-49902560D01*
X105264683Y-49946838D01*
X105048559Y-50085910D01*
X105000866Y-50155711D01*
X104964090Y-50098559D01*
X104751890Y-49953569D01*
X104660000Y-49934961D01*
X104660000Y-48750000D01*
X104602148Y-48459161D01*
X104602148Y-48459160D01*
X104495801Y-48300000D01*
X109184464Y-48300000D01*
X109553647Y-48669827D01*
X110043587Y-48873268D01*
X110574086Y-48873731D01*
X111064380Y-48671146D01*
X111439827Y-48296353D01*
X111643268Y-47806413D01*
X111643731Y-47275914D01*
X111441146Y-46785620D01*
X111066353Y-46410173D01*
X110576413Y-46206732D01*
X110045914Y-46206269D01*
X109555620Y-46408854D01*
X109183826Y-46780000D01*
X103815536Y-46780000D01*
X103446353Y-46410173D01*
X102956413Y-46206732D01*
X102425914Y-46206269D01*
X101935620Y-46408854D01*
X101575792Y-46768055D01*
X101531726Y-46546520D01*
X101274851Y-46162078D01*
X101256775Y-46150000D01*
X114502560Y-46150000D01*
X114502560Y-47850000D01*
X114546838Y-48085317D01*
X114685910Y-48301441D01*
X114898110Y-48446431D01*
X115150000Y-48497440D01*
X116850000Y-48497440D01*
X117085317Y-48453162D01*
X117301441Y-48314090D01*
X117446431Y-48101890D01*
X117497440Y-47850000D01*
X117497440Y-46701572D01*
X119212934Y-46701572D01*
X119234763Y-47408169D01*
X119463170Y-47959592D01*
X119796539Y-48023856D01*
X120820395Y-47000000D01*
X119796539Y-45976144D01*
X119463170Y-46040408D01*
X119212934Y-46701572D01*
X117497440Y-46701572D01*
X117497440Y-46150000D01*
X117453162Y-45914683D01*
X117377139Y-45796539D01*
X119976144Y-45796539D01*
X121000000Y-46820395D01*
X122023856Y-45796539D01*
X121959592Y-45463170D01*
X121298428Y-45212934D01*
X120591831Y-45234763D01*
X120040408Y-45463170D01*
X119976144Y-45796539D01*
X117377139Y-45796539D01*
X117314090Y-45698559D01*
X117101890Y-45553569D01*
X116850000Y-45502560D01*
X115150000Y-45502560D01*
X114914683Y-45546838D01*
X114698559Y-45685910D01*
X114553569Y-45898110D01*
X114502560Y-46150000D01*
X101256775Y-46150000D01*
X101032283Y-46000000D01*
X101274851Y-45837922D01*
X101531726Y-45453480D01*
X101621929Y-45000000D01*
X101531726Y-44546520D01*
X101274851Y-44162078D01*
X101032283Y-44000000D01*
X101274851Y-43837922D01*
X101464665Y-43553843D01*
X101775763Y-43553843D01*
X101821447Y-43871527D01*
X102427728Y-44096461D01*
X103073939Y-44072260D01*
X103558553Y-43871527D01*
X103604237Y-43553843D01*
X109395763Y-43553843D01*
X109441447Y-43871527D01*
X110047728Y-44096461D01*
X110693939Y-44072260D01*
X111178553Y-43871527D01*
X111224237Y-43553843D01*
X110310000Y-42639605D01*
X109395763Y-43553843D01*
X103604237Y-43553843D01*
X102690000Y-42639605D01*
X101775763Y-43553843D01*
X101464665Y-43553843D01*
X101531726Y-43453480D01*
X101548842Y-43367433D01*
X101596157Y-43374237D01*
X102510395Y-42460000D01*
X102496252Y-42445858D01*
X102675858Y-42266252D01*
X102690000Y-42280395D01*
X102704142Y-42266252D01*
X102883748Y-42445858D01*
X102869605Y-42460000D01*
X103783843Y-43374237D01*
X104101527Y-43328553D01*
X104326461Y-42722272D01*
X104306817Y-42197728D01*
X108673539Y-42197728D01*
X108697740Y-42843939D01*
X108898473Y-43328553D01*
X109216157Y-43374237D01*
X110130395Y-42460000D01*
X110489605Y-42460000D01*
X111403843Y-43374237D01*
X111721527Y-43328553D01*
X111946461Y-42722272D01*
X111938947Y-42521608D01*
X125755000Y-42521608D01*
X125755000Y-42855250D01*
X125986750Y-43087000D01*
X127571000Y-43087000D01*
X127571000Y-42010750D01*
X127825000Y-42010750D01*
X127825000Y-43087000D01*
X129409250Y-43087000D01*
X129641000Y-42855250D01*
X129641000Y-42521608D01*
X129499873Y-42180896D01*
X129239103Y-41920127D01*
X128898392Y-41779000D01*
X128056750Y-41779000D01*
X127825000Y-42010750D01*
X127571000Y-42010750D01*
X127339250Y-41779000D01*
X126497608Y-41779000D01*
X126156897Y-41920127D01*
X125896127Y-42180896D01*
X125755000Y-42521608D01*
X111938947Y-42521608D01*
X111922260Y-42076061D01*
X111721527Y-41591447D01*
X111403843Y-41545763D01*
X110489605Y-42460000D01*
X110130395Y-42460000D01*
X109216157Y-41545763D01*
X108898473Y-41591447D01*
X108673539Y-42197728D01*
X104306817Y-42197728D01*
X104302260Y-42076061D01*
X104171344Y-41760000D01*
X106880000Y-41760000D01*
X107170839Y-41702148D01*
X107417401Y-41537401D01*
X107588645Y-41366157D01*
X109395763Y-41366157D01*
X110310000Y-42280395D01*
X111224237Y-41366157D01*
X111178553Y-41048473D01*
X110572272Y-40823539D01*
X109926061Y-40847740D01*
X109441447Y-41048473D01*
X109395763Y-41366157D01*
X107588645Y-41366157D01*
X108872421Y-40082381D01*
X109380000Y-40183345D01*
X109953489Y-40069271D01*
X110439670Y-39744415D01*
X110650000Y-39429634D01*
X110860330Y-39744415D01*
X111346511Y-40069271D01*
X111920000Y-40183345D01*
X112493489Y-40069271D01*
X112979670Y-39744415D01*
X113190000Y-39429634D01*
X113400330Y-39744415D01*
X113886511Y-40069271D01*
X114460000Y-40183345D01*
X115033489Y-40069271D01*
X115290940Y-39897248D01*
X115350527Y-40041104D01*
X115611297Y-40301873D01*
X115952008Y-40443000D01*
X116641250Y-40443000D01*
X116873000Y-40211250D01*
X116873000Y-38627000D01*
X117127000Y-38627000D01*
X117127000Y-40211250D01*
X117358750Y-40443000D01*
X118047992Y-40443000D01*
X118388703Y-40301873D01*
X118649473Y-40041104D01*
X118790600Y-39700392D01*
X118790600Y-39000000D01*
X131196966Y-39000000D01*
X131334214Y-39689991D01*
X131725062Y-40274938D01*
X132310009Y-40665786D01*
X133000000Y-40803034D01*
X133689991Y-40665786D01*
X134274938Y-40274938D01*
X134665786Y-39689991D01*
X134803034Y-39000000D01*
X134665786Y-38310009D01*
X134274938Y-37725062D01*
X133689991Y-37334214D01*
X133000000Y-37196966D01*
X132310009Y-37334214D01*
X131725062Y-37725062D01*
X131334214Y-38310009D01*
X131196966Y-39000000D01*
X118790600Y-39000000D01*
X118790600Y-38858750D01*
X118558850Y-38627000D01*
X117127000Y-38627000D01*
X116873000Y-38627000D01*
X116853000Y-38627000D01*
X116853000Y-38373000D01*
X116873000Y-38373000D01*
X116873000Y-38353000D01*
X117127000Y-38353000D01*
X117127000Y-38373000D01*
X118558850Y-38373000D01*
X118790600Y-38141250D01*
X118790600Y-37299608D01*
X118649473Y-36958896D01*
X118388703Y-36698127D01*
X118357012Y-36685000D01*
X131932533Y-36685000D01*
X133263459Y-36949738D01*
G36*
X74626732Y-36923587D02*
X74626269Y-37454086D01*
X74828854Y-37944380D01*
X75200000Y-38316174D01*
X75200000Y-43684464D01*
X74830173Y-44053647D01*
X74626732Y-44543587D01*
X74626269Y-45074086D01*
X74828854Y-45564380D01*
X75203647Y-45939827D01*
X75693587Y-46143268D01*
X76224086Y-46143731D01*
X76342475Y-46094814D01*
X76203569Y-46298110D01*
X76152560Y-46550000D01*
X76152560Y-47450000D01*
X76196838Y-47685317D01*
X76335910Y-47901441D01*
X76548110Y-48046431D01*
X76640000Y-48065039D01*
X76640000Y-48432666D01*
X76564683Y-48446838D01*
X76348559Y-48585910D01*
X76203569Y-48798110D01*
X76159508Y-49015690D01*
X75250000Y-49925198D01*
X74787401Y-49462599D01*
X74540839Y-49297852D01*
X74299067Y-49249760D01*
X74098738Y-48949946D01*
X73799497Y-48750000D01*
X74098738Y-48550054D01*
X74420645Y-48068285D01*
X74533684Y-47500000D01*
X74420645Y-46931715D01*
X74098738Y-46449946D01*
X73616969Y-46128039D01*
X73048684Y-46015000D01*
X70951316Y-46015000D01*
X70383031Y-46128039D01*
X69901262Y-46449946D01*
X69579355Y-46931715D01*
X69466316Y-47500000D01*
X69579355Y-48068285D01*
X69901262Y-48550054D01*
X70200503Y-48750000D01*
X69901262Y-48949946D01*
X69579355Y-49431715D01*
X69466316Y-50000000D01*
X69579355Y-50568285D01*
X69901262Y-51050054D01*
X69964175Y-51092091D01*
X69653669Y-51333274D01*
X69309666Y-51937304D01*
X69269233Y-52097290D01*
X69459978Y-52373000D01*
X71873000Y-52373000D01*
X71873000Y-52353000D01*
X72127000Y-52353000D01*
X72127000Y-52373000D01*
X72147000Y-52373000D01*
X72147000Y-52627000D01*
X72127000Y-52627000D01*
X72127000Y-54277000D01*
X73127000Y-54277000D01*
X73797361Y-54093133D01*
X73990000Y-53943503D01*
X73990000Y-59500000D01*
X74047852Y-59790839D01*
X74212599Y-60037401D01*
X76312599Y-62137401D01*
X76559160Y-62302148D01*
X76607414Y-62311746D01*
X76850000Y-62360000D01*
X80648000Y-62360000D01*
X80648000Y-62377002D01*
X80865248Y-62377002D01*
X80648000Y-62594250D01*
X80648000Y-62659392D01*
X80789127Y-63000103D01*
X80930697Y-63141674D01*
X80947067Y-63228671D01*
X80930997Y-63308026D01*
X80789127Y-63449897D01*
X80648000Y-63790608D01*
X80648000Y-63855750D01*
X80879750Y-64087500D01*
X81021504Y-64087500D01*
X81110910Y-64226441D01*
X81236862Y-64312500D01*
X80879750Y-64312500D01*
X80648000Y-64544250D01*
X80648000Y-64609392D01*
X80789127Y-64950103D01*
X81049896Y-65210873D01*
X81301282Y-65315000D01*
X72067467Y-65315000D01*
X70736540Y-65050262D01*
X69665429Y-64334568D01*
X68949738Y-63263459D01*
X68897333Y-63000000D01*
X69196966Y-63000000D01*
X69334214Y-63689991D01*
X69725062Y-64274938D01*
X70310009Y-64665786D01*
X71000000Y-64803034D01*
X71689991Y-64665786D01*
X72274938Y-64274938D01*
X72665786Y-63689991D01*
X72803034Y-63000000D01*
X72665786Y-62310009D01*
X72274938Y-61725062D01*
X71689991Y-61334214D01*
X71000000Y-61196966D01*
X70310009Y-61334214D01*
X69725062Y-61725062D01*
X69334214Y-62310009D01*
X69196966Y-63000000D01*
X68897333Y-63000000D01*
X68685000Y-61932533D01*
X68685000Y-52902710D01*
X69269233Y-52902710D01*
X69309666Y-53062696D01*
X69653669Y-53666726D01*
X70202639Y-54093133D01*
X70873000Y-54277000D01*
X71873000Y-54277000D01*
X71873000Y-52627000D01*
X69459978Y-52627000D01*
X69269233Y-52902710D01*
X68685000Y-52902710D01*
X68685000Y-40067467D01*
X68897332Y-39000000D01*
X69196966Y-39000000D01*
X69334214Y-39689991D01*
X69725062Y-40274938D01*
X70310009Y-40665786D01*
X71000000Y-40803034D01*
X71689991Y-40665786D01*
X72274938Y-40274938D01*
X72665786Y-39689991D01*
X72803034Y-39000000D01*
X72665786Y-38310009D01*
X72274938Y-37725062D01*
X71689991Y-37334214D01*
X71000000Y-37196966D01*
X70310009Y-37334214D01*
X69725062Y-37725062D01*
X69334214Y-38310009D01*
X69196966Y-39000000D01*
X68897332Y-39000000D01*
X68949738Y-38736541D01*
X69665429Y-37665432D01*
X70736540Y-36949738D01*
X72067467Y-36685000D01*
X74725802Y-36685000D01*
X74626732Y-36923587D01*
X74626732Y-36923587D01*
G37*
X74626732Y-36923587D02*
X74626269Y-37454086D01*
X74828854Y-37944380D01*
X75200000Y-38316174D01*
X75200000Y-43684464D01*
X74830173Y-44053647D01*
X74626732Y-44543587D01*
X74626269Y-45074086D01*
X74828854Y-45564380D01*
X75203647Y-45939827D01*
X75693587Y-46143268D01*
X76224086Y-46143731D01*
X76342475Y-46094814D01*
X76203569Y-46298110D01*
X76152560Y-46550000D01*
X76152560Y-47450000D01*
X76196838Y-47685317D01*
X76335910Y-47901441D01*
X76548110Y-48046431D01*
X76640000Y-48065039D01*
X76640000Y-48432666D01*
X76564683Y-48446838D01*
X76348559Y-48585910D01*
X76203569Y-48798110D01*
X76159508Y-49015690D01*
X75250000Y-49925198D01*
X74787401Y-49462599D01*
X74540839Y-49297852D01*
X74299067Y-49249760D01*
X74098738Y-48949946D01*
X73799497Y-48750000D01*
X74098738Y-48550054D01*
X74420645Y-48068285D01*
X74533684Y-47500000D01*
X74420645Y-46931715D01*
X74098738Y-46449946D01*
X73616969Y-46128039D01*
X73048684Y-46015000D01*
X70951316Y-46015000D01*
X70383031Y-46128039D01*
X69901262Y-46449946D01*
X69579355Y-46931715D01*
X69466316Y-47500000D01*
X69579355Y-48068285D01*
X69901262Y-48550054D01*
X70200503Y-48750000D01*
X69901262Y-48949946D01*
X69579355Y-49431715D01*
X69466316Y-50000000D01*
X69579355Y-50568285D01*
X69901262Y-51050054D01*
X69964175Y-51092091D01*
X69653669Y-51333274D01*
X69309666Y-51937304D01*
X69269233Y-52097290D01*
X69459978Y-52373000D01*
X71873000Y-52373000D01*
X71873000Y-52353000D01*
X72127000Y-52353000D01*
X72127000Y-52373000D01*
X72147000Y-52373000D01*
X72147000Y-52627000D01*
X72127000Y-52627000D01*
X72127000Y-54277000D01*
X73127000Y-54277000D01*
X73797361Y-54093133D01*
X73990000Y-53943503D01*
X73990000Y-59500000D01*
X74047852Y-59790839D01*
X74212599Y-60037401D01*
X76312599Y-62137401D01*
X76559160Y-62302148D01*
X76607414Y-62311746D01*
X76850000Y-62360000D01*
X80648000Y-62360000D01*
X80648000Y-62377002D01*
X80865248Y-62377002D01*
X80648000Y-62594250D01*
X80648000Y-62659392D01*
X80789127Y-63000103D01*
X80930697Y-63141674D01*
X80947067Y-63228671D01*
X80930997Y-63308026D01*
X80789127Y-63449897D01*
X80648000Y-63790608D01*
X80648000Y-63855750D01*
X80879750Y-64087500D01*
X81021504Y-64087500D01*
X81110910Y-64226441D01*
X81236862Y-64312500D01*
X80879750Y-64312500D01*
X80648000Y-64544250D01*
X80648000Y-64609392D01*
X80789127Y-64950103D01*
X81049896Y-65210873D01*
X81301282Y-65315000D01*
X72067467Y-65315000D01*
X70736540Y-65050262D01*
X69665429Y-64334568D01*
X68949738Y-63263459D01*
X68897333Y-63000000D01*
X69196966Y-63000000D01*
X69334214Y-63689991D01*
X69725062Y-64274938D01*
X70310009Y-64665786D01*
X71000000Y-64803034D01*
X71689991Y-64665786D01*
X72274938Y-64274938D01*
X72665786Y-63689991D01*
X72803034Y-63000000D01*
X72665786Y-62310009D01*
X72274938Y-61725062D01*
X71689991Y-61334214D01*
X71000000Y-61196966D01*
X70310009Y-61334214D01*
X69725062Y-61725062D01*
X69334214Y-62310009D01*
X69196966Y-63000000D01*
X68897333Y-63000000D01*
X68685000Y-61932533D01*
X68685000Y-52902710D01*
X69269233Y-52902710D01*
X69309666Y-53062696D01*
X69653669Y-53666726D01*
X70202639Y-54093133D01*
X70873000Y-54277000D01*
X71873000Y-54277000D01*
X71873000Y-52627000D01*
X69459978Y-52627000D01*
X69269233Y-52902710D01*
X68685000Y-52902710D01*
X68685000Y-40067467D01*
X68897332Y-39000000D01*
X69196966Y-39000000D01*
X69334214Y-39689991D01*
X69725062Y-40274938D01*
X70310009Y-40665786D01*
X71000000Y-40803034D01*
X71689991Y-40665786D01*
X72274938Y-40274938D01*
X72665786Y-39689991D01*
X72803034Y-39000000D01*
X72665786Y-38310009D01*
X72274938Y-37725062D01*
X71689991Y-37334214D01*
X71000000Y-37196966D01*
X70310009Y-37334214D01*
X69725062Y-37725062D01*
X69334214Y-38310009D01*
X69196966Y-39000000D01*
X68897332Y-39000000D01*
X68949738Y-38736541D01*
X69665429Y-37665432D01*
X70736540Y-36949738D01*
X72067467Y-36685000D01*
X74725802Y-36685000D01*
X74626732Y-36923587D01*
G36*
X90915198Y-61490000D02*
X89797900Y-61490000D01*
X89852000Y-61359392D01*
X89852000Y-61294250D01*
X89634752Y-61077002D01*
X89852000Y-61077002D01*
X89852000Y-61060000D01*
X90485198Y-61060000D01*
X90915198Y-61490000D01*
X90915198Y-61490000D01*
G37*
X90915198Y-61490000D02*
X89797900Y-61490000D01*
X89852000Y-61359392D01*
X89852000Y-61294250D01*
X89634752Y-61077002D01*
X89852000Y-61077002D01*
X89852000Y-61060000D01*
X90485198Y-61060000D01*
X90915198Y-61490000D01*
G36*
X86064878Y-56139680D02*
X86064838Y-56185167D01*
X86206883Y-56528943D01*
X86469673Y-56792192D01*
X86761732Y-56913466D01*
X83902967Y-59772231D01*
X83810873Y-59549897D01*
X83550104Y-59289127D01*
X83209392Y-59148000D01*
X82658750Y-59148000D01*
X82427000Y-59379750D01*
X82427000Y-60077560D01*
X82173000Y-60077560D01*
X82173000Y-59379750D01*
X81941250Y-59148000D01*
X81390608Y-59148000D01*
X81049896Y-59289127D01*
X80789127Y-59549897D01*
X80648000Y-59890608D01*
X80648000Y-59955750D01*
X80879750Y-60187500D01*
X81237641Y-60187500D01*
X81123559Y-60260910D01*
X81019982Y-60412500D01*
X80879750Y-60412500D01*
X80648000Y-60644250D01*
X80648000Y-60709392D01*
X80702100Y-60840000D01*
X77164802Y-60840000D01*
X75510000Y-59185198D01*
X75510000Y-56534802D01*
X76302560Y-57327362D01*
X76302560Y-57875000D01*
X76346838Y-58110317D01*
X76485910Y-58326441D01*
X76698110Y-58471431D01*
X76950000Y-58522440D01*
X78150000Y-58522440D01*
X78180689Y-58516665D01*
X78324896Y-58660873D01*
X78665608Y-58802000D01*
X79091250Y-58802000D01*
X79323000Y-58570250D01*
X79323000Y-57627000D01*
X79577000Y-57627000D01*
X79577000Y-58570250D01*
X79808750Y-58802000D01*
X80234392Y-58802000D01*
X80575104Y-58660873D01*
X80835873Y-58400103D01*
X80977000Y-58059392D01*
X80977000Y-57858750D01*
X80745250Y-57627000D01*
X79577000Y-57627000D01*
X79323000Y-57627000D01*
X79303000Y-57627000D01*
X79303000Y-57373000D01*
X79323000Y-57373000D01*
X79323000Y-57353000D01*
X79577000Y-57353000D01*
X79577000Y-57373000D01*
X80745250Y-57373000D01*
X80977000Y-57141250D01*
X80977000Y-56940608D01*
X80902190Y-56760000D01*
X84000000Y-56760000D01*
X84290839Y-56702148D01*
X84537401Y-56537401D01*
X84889802Y-56185000D01*
X85036929Y-56185000D01*
X85490409Y-56094797D01*
X85807873Y-55882675D01*
X86064878Y-56139680D01*
X86064878Y-56139680D01*
G37*
X86064878Y-56139680D02*
X86064838Y-56185167D01*
X86206883Y-56528943D01*
X86469673Y-56792192D01*
X86761732Y-56913466D01*
X83902967Y-59772231D01*
X83810873Y-59549897D01*
X83550104Y-59289127D01*
X83209392Y-59148000D01*
X82658750Y-59148000D01*
X82427000Y-59379750D01*
X82427000Y-60077560D01*
X82173000Y-60077560D01*
X82173000Y-59379750D01*
X81941250Y-59148000D01*
X81390608Y-59148000D01*
X81049896Y-59289127D01*
X80789127Y-59549897D01*
X80648000Y-59890608D01*
X80648000Y-59955750D01*
X80879750Y-60187500D01*
X81237641Y-60187500D01*
X81123559Y-60260910D01*
X81019982Y-60412500D01*
X80879750Y-60412500D01*
X80648000Y-60644250D01*
X80648000Y-60709392D01*
X80702100Y-60840000D01*
X77164802Y-60840000D01*
X75510000Y-59185198D01*
X75510000Y-56534802D01*
X76302560Y-57327362D01*
X76302560Y-57875000D01*
X76346838Y-58110317D01*
X76485910Y-58326441D01*
X76698110Y-58471431D01*
X76950000Y-58522440D01*
X78150000Y-58522440D01*
X78180689Y-58516665D01*
X78324896Y-58660873D01*
X78665608Y-58802000D01*
X79091250Y-58802000D01*
X79323000Y-58570250D01*
X79323000Y-57627000D01*
X79577000Y-57627000D01*
X79577000Y-58570250D01*
X79808750Y-58802000D01*
X80234392Y-58802000D01*
X80575104Y-58660873D01*
X80835873Y-58400103D01*
X80977000Y-58059392D01*
X80977000Y-57858750D01*
X80745250Y-57627000D01*
X79577000Y-57627000D01*
X79323000Y-57627000D01*
X79303000Y-57627000D01*
X79303000Y-57373000D01*
X79323000Y-57373000D01*
X79323000Y-57353000D01*
X79577000Y-57353000D01*
X79577000Y-57373000D01*
X80745250Y-57373000D01*
X80977000Y-57141250D01*
X80977000Y-56940608D01*
X80902190Y-56760000D01*
X84000000Y-56760000D01*
X84290839Y-56702148D01*
X84537401Y-56537401D01*
X84889802Y-56185000D01*
X85036929Y-56185000D01*
X85490409Y-56094797D01*
X85807873Y-55882675D01*
X86064878Y-56139680D01*
G36*
X98367717Y-44000000D02*
X98125149Y-44162078D01*
X97868274Y-44546520D01*
X97778071Y-45000000D01*
X97868274Y-45453480D01*
X98125149Y-45837922D01*
X98367717Y-46000000D01*
X98125149Y-46162078D01*
X97868274Y-46546520D01*
X97778071Y-47000000D01*
X97868274Y-47453480D01*
X98125149Y-47837922D01*
X98367717Y-48000000D01*
X98125149Y-48162078D01*
X97868274Y-48546520D01*
X97778071Y-49000000D01*
X97868274Y-49453480D01*
X98125149Y-49837922D01*
X98367717Y-50000000D01*
X98125149Y-50162078D01*
X97868274Y-50546520D01*
X97778071Y-51000000D01*
X97868274Y-51453480D01*
X98125149Y-51837922D01*
X98317717Y-51966591D01*
X98025149Y-52162078D01*
X97768274Y-52546520D01*
X97678071Y-53000000D01*
X97768274Y-53453480D01*
X98025149Y-53837922D01*
X98079623Y-53874320D01*
X97865801Y-54045406D01*
X97586829Y-54552109D01*
X97566454Y-54644366D01*
X97761243Y-54873000D01*
X99573000Y-54873000D01*
X99573000Y-54853000D01*
X99827000Y-54853000D01*
X99827000Y-54873000D01*
X101638757Y-54873000D01*
X101833546Y-54644366D01*
X101813171Y-54552109D01*
X101534199Y-54045406D01*
X101209701Y-53785764D01*
X101226917Y-53760000D01*
X102663850Y-53760000D01*
X102696838Y-53935317D01*
X102835910Y-54151441D01*
X103048110Y-54296431D01*
X103300000Y-54347440D01*
X104500000Y-54347440D01*
X104735317Y-54303162D01*
X104769920Y-54280896D01*
X104974896Y-54485873D01*
X105315608Y-54627000D01*
X105741250Y-54627000D01*
X105973000Y-54395250D01*
X105973000Y-53377000D01*
X105953000Y-53377000D01*
X105953000Y-53123000D01*
X105973000Y-53123000D01*
X105973000Y-53103000D01*
X106227000Y-53103000D01*
X106227000Y-53123000D01*
X106247000Y-53123000D01*
X106247000Y-53377000D01*
X106227000Y-53377000D01*
X106227000Y-54395250D01*
X106458750Y-54627000D01*
X106884392Y-54627000D01*
X106990000Y-54583256D01*
X106990000Y-56685198D01*
X105610320Y-58064878D01*
X105564833Y-58064838D01*
X105221057Y-58206883D01*
X104957808Y-58469673D01*
X104815162Y-58813201D01*
X104814838Y-59185167D01*
X104956883Y-59528943D01*
X105109699Y-59682026D01*
X104626435Y-59913176D01*
X104261951Y-60318863D01*
X104219670Y-60255585D01*
X103733489Y-59930729D01*
X103160000Y-59816655D01*
X102586511Y-59930729D01*
X102100330Y-60255585D01*
X101890000Y-60570366D01*
X101679670Y-60255585D01*
X101193489Y-59930729D01*
X100620000Y-59816655D01*
X100046511Y-59930729D01*
X99560330Y-60255585D01*
X99350000Y-60570366D01*
X99139670Y-60255585D01*
X98653489Y-59930729D01*
X98080000Y-59816655D01*
X97506511Y-59930729D01*
X97020330Y-60255585D01*
X96810000Y-60570366D01*
X96599670Y-60255585D01*
X96113489Y-59930729D01*
X95540000Y-59816655D01*
X94966511Y-59930729D01*
X94480330Y-60255585D01*
X94470757Y-60269913D01*
X94466762Y-60248683D01*
X94327690Y-60032559D01*
X94115490Y-59887569D01*
X93863600Y-59836560D01*
X92136400Y-59836560D01*
X91901083Y-59880838D01*
X91684959Y-60019910D01*
X91648326Y-60073524D01*
X91260000Y-59685198D01*
X91260000Y-57314802D01*
X93219168Y-55355634D01*
X97566454Y-55355634D01*
X97586829Y-55447891D01*
X97865801Y-55954594D01*
X98317444Y-56315969D01*
X98873000Y-56477000D01*
X99573000Y-56477000D01*
X99573000Y-55127000D01*
X99827000Y-55127000D01*
X99827000Y-56477000D01*
X100527000Y-56477000D01*
X101082556Y-56315969D01*
X101534199Y-55954594D01*
X101813171Y-55447891D01*
X101833546Y-55355634D01*
X101638757Y-55127000D01*
X99827000Y-55127000D01*
X99573000Y-55127000D01*
X97761243Y-55127000D01*
X97566454Y-55355634D01*
X93219168Y-55355634D01*
X94139680Y-54435122D01*
X94185167Y-54435162D01*
X94528943Y-54293117D01*
X94792192Y-54030327D01*
X94934838Y-53686799D01*
X94935162Y-53314833D01*
X94793117Y-52971057D01*
X94530327Y-52707808D01*
X94186799Y-52565162D01*
X93814833Y-52564838D01*
X93471057Y-52706883D01*
X93207808Y-52969673D01*
X93065162Y-53313201D01*
X93065121Y-53360077D01*
X89962599Y-56462599D01*
X89797852Y-56709161D01*
X89740000Y-57000000D01*
X89740000Y-59540000D01*
X89266797Y-59540000D01*
X89176890Y-59478569D01*
X88925000Y-59427560D01*
X87475000Y-59427560D01*
X87239683Y-59471838D01*
X87023559Y-59610910D01*
X86878569Y-59823110D01*
X86830997Y-60058026D01*
X86689127Y-60199897D01*
X86640242Y-60317915D01*
X86530327Y-60207808D01*
X86186799Y-60065162D01*
X85814833Y-60064838D01*
X85721329Y-60103473D01*
X91537401Y-54287401D01*
X91702148Y-54040839D01*
X91760000Y-53750000D01*
X91760000Y-50314802D01*
X98192127Y-43882675D01*
X98367717Y-44000000D01*
X98367717Y-44000000D01*
G37*
X98367717Y-44000000D02*
X98125149Y-44162078D01*
X97868274Y-44546520D01*
X97778071Y-45000000D01*
X97868274Y-45453480D01*
X98125149Y-45837922D01*
X98367717Y-46000000D01*
X98125149Y-46162078D01*
X97868274Y-46546520D01*
X97778071Y-47000000D01*
X97868274Y-47453480D01*
X98125149Y-47837922D01*
X98367717Y-48000000D01*
X98125149Y-48162078D01*
X97868274Y-48546520D01*
X97778071Y-49000000D01*
X97868274Y-49453480D01*
X98125149Y-49837922D01*
X98367717Y-50000000D01*
X98125149Y-50162078D01*
X97868274Y-50546520D01*
X97778071Y-51000000D01*
X97868274Y-51453480D01*
X98125149Y-51837922D01*
X98317717Y-51966591D01*
X98025149Y-52162078D01*
X97768274Y-52546520D01*
X97678071Y-53000000D01*
X97768274Y-53453480D01*
X98025149Y-53837922D01*
X98079623Y-53874320D01*
X97865801Y-54045406D01*
X97586829Y-54552109D01*
X97566454Y-54644366D01*
X97761243Y-54873000D01*
X99573000Y-54873000D01*
X99573000Y-54853000D01*
X99827000Y-54853000D01*
X99827000Y-54873000D01*
X101638757Y-54873000D01*
X101833546Y-54644366D01*
X101813171Y-54552109D01*
X101534199Y-54045406D01*
X101209701Y-53785764D01*
X101226917Y-53760000D01*
X102663850Y-53760000D01*
X102696838Y-53935317D01*
X102835910Y-54151441D01*
X103048110Y-54296431D01*
X103300000Y-54347440D01*
X104500000Y-54347440D01*
X104735317Y-54303162D01*
X104769920Y-54280896D01*
X104974896Y-54485873D01*
X105315608Y-54627000D01*
X105741250Y-54627000D01*
X105973000Y-54395250D01*
X105973000Y-53377000D01*
X105953000Y-53377000D01*
X105953000Y-53123000D01*
X105973000Y-53123000D01*
X105973000Y-53103000D01*
X106227000Y-53103000D01*
X106227000Y-53123000D01*
X106247000Y-53123000D01*
X106247000Y-53377000D01*
X106227000Y-53377000D01*
X106227000Y-54395250D01*
X106458750Y-54627000D01*
X106884392Y-54627000D01*
X106990000Y-54583256D01*
X106990000Y-56685198D01*
X105610320Y-58064878D01*
X105564833Y-58064838D01*
X105221057Y-58206883D01*
X104957808Y-58469673D01*
X104815162Y-58813201D01*
X104814838Y-59185167D01*
X104956883Y-59528943D01*
X105109699Y-59682026D01*
X104626435Y-59913176D01*
X104261951Y-60318863D01*
X104219670Y-60255585D01*
X103733489Y-59930729D01*
X103160000Y-59816655D01*
X102586511Y-59930729D01*
X102100330Y-60255585D01*
X101890000Y-60570366D01*
X101679670Y-60255585D01*
X101193489Y-59930729D01*
X100620000Y-59816655D01*
X100046511Y-59930729D01*
X99560330Y-60255585D01*
X99350000Y-60570366D01*
X99139670Y-60255585D01*
X98653489Y-59930729D01*
X98080000Y-59816655D01*
X97506511Y-59930729D01*
X97020330Y-60255585D01*
X96810000Y-60570366D01*
X96599670Y-60255585D01*
X96113489Y-59930729D01*
X95540000Y-59816655D01*
X94966511Y-59930729D01*
X94480330Y-60255585D01*
X94470757Y-60269913D01*
X94466762Y-60248683D01*
X94327690Y-60032559D01*
X94115490Y-59887569D01*
X93863600Y-59836560D01*
X92136400Y-59836560D01*
X91901083Y-59880838D01*
X91684959Y-60019910D01*
X91648326Y-60073524D01*
X91260000Y-59685198D01*
X91260000Y-57314802D01*
X93219168Y-55355634D01*
X97566454Y-55355634D01*
X97586829Y-55447891D01*
X97865801Y-55954594D01*
X98317444Y-56315969D01*
X98873000Y-56477000D01*
X99573000Y-56477000D01*
X99573000Y-55127000D01*
X99827000Y-55127000D01*
X99827000Y-56477000D01*
X100527000Y-56477000D01*
X101082556Y-56315969D01*
X101534199Y-55954594D01*
X101813171Y-55447891D01*
X101833546Y-55355634D01*
X101638757Y-55127000D01*
X99827000Y-55127000D01*
X99573000Y-55127000D01*
X97761243Y-55127000D01*
X97566454Y-55355634D01*
X93219168Y-55355634D01*
X94139680Y-54435122D01*
X94185167Y-54435162D01*
X94528943Y-54293117D01*
X94792192Y-54030327D01*
X94934838Y-53686799D01*
X94935162Y-53314833D01*
X94793117Y-52971057D01*
X94530327Y-52707808D01*
X94186799Y-52565162D01*
X93814833Y-52564838D01*
X93471057Y-52706883D01*
X93207808Y-52969673D01*
X93065162Y-53313201D01*
X93065121Y-53360077D01*
X89962599Y-56462599D01*
X89797852Y-56709161D01*
X89740000Y-57000000D01*
X89740000Y-59540000D01*
X89266797Y-59540000D01*
X89176890Y-59478569D01*
X88925000Y-59427560D01*
X87475000Y-59427560D01*
X87239683Y-59471838D01*
X87023559Y-59610910D01*
X86878569Y-59823110D01*
X86830997Y-60058026D01*
X86689127Y-60199897D01*
X86640242Y-60317915D01*
X86530327Y-60207808D01*
X86186799Y-60065162D01*
X85814833Y-60064838D01*
X85721329Y-60103473D01*
X91537401Y-54287401D01*
X91702148Y-54040839D01*
X91760000Y-53750000D01*
X91760000Y-50314802D01*
X98192127Y-43882675D01*
X98367717Y-44000000D01*
G36*
X83873000Y-39000000D02*
X83881685Y-39046159D01*
X83908965Y-39088553D01*
X83950590Y-39116994D01*
X84000000Y-39127000D01*
X99798198Y-39127000D01*
X99110198Y-39815000D01*
X98963071Y-39815000D01*
X98509591Y-39905203D01*
X98125149Y-40162078D01*
X97868274Y-40546520D01*
X97778071Y-41000000D01*
X97868274Y-41453480D01*
X98125149Y-41837922D01*
X98367717Y-42000000D01*
X98125149Y-42162078D01*
X98073083Y-42240000D01*
X98000000Y-42240000D01*
X97709161Y-42297852D01*
X97462599Y-42462599D01*
X90462599Y-49462599D01*
X90297852Y-49709161D01*
X90240000Y-50000000D01*
X90240000Y-53435198D01*
X87913293Y-55761905D01*
X87793117Y-55471057D01*
X87530327Y-55207808D01*
X87186799Y-55065162D01*
X87139923Y-55065121D01*
X87009811Y-54935009D01*
X87185167Y-54935162D01*
X87528943Y-54793117D01*
X87792192Y-54530327D01*
X87934838Y-54186799D01*
X87935162Y-53814833D01*
X87793117Y-53471057D01*
X87760000Y-53437882D01*
X87760000Y-50500000D01*
X87723138Y-50314683D01*
X87702148Y-50209160D01*
X87537401Y-49962599D01*
X86134309Y-48559507D01*
X86131726Y-48546520D01*
X85874851Y-48162078D01*
X85632283Y-48000000D01*
X85874851Y-47837922D01*
X86131726Y-47453480D01*
X86221929Y-47000000D01*
X86131726Y-46546520D01*
X85874851Y-46162078D01*
X85632283Y-46000000D01*
X85874851Y-45837922D01*
X86131726Y-45453480D01*
X86221929Y-45000000D01*
X86131726Y-44546520D01*
X85874851Y-44162078D01*
X85632283Y-44000000D01*
X85874851Y-43837922D01*
X86131726Y-43453480D01*
X86221929Y-43000000D01*
X86131726Y-42546520D01*
X85874851Y-42162078D01*
X85824129Y-42128187D01*
X86001441Y-42014090D01*
X86146431Y-41801890D01*
X86197440Y-41550000D01*
X86197440Y-40450000D01*
X86153162Y-40214683D01*
X86014090Y-39998559D01*
X85801890Y-39853569D01*
X85550000Y-39802560D01*
X83050000Y-39802560D01*
X82814683Y-39846838D01*
X82598559Y-39985910D01*
X82453569Y-40198110D01*
X82445086Y-40240000D01*
X81814802Y-40240000D01*
X80179209Y-38604407D01*
X80777728Y-38826461D01*
X81423939Y-38802260D01*
X81908553Y-38601527D01*
X81954237Y-38283843D01*
X81040000Y-37369605D01*
X81025858Y-37383748D01*
X80846252Y-37204142D01*
X80860395Y-37190000D01*
X80846252Y-37175858D01*
X81025858Y-36996253D01*
X81040000Y-37010395D01*
X81054143Y-36996253D01*
X81233748Y-37175858D01*
X81219605Y-37190000D01*
X82133843Y-38104237D01*
X82451527Y-38058553D01*
X82676461Y-37452272D01*
X82652260Y-36806061D01*
X82602115Y-36685000D01*
X83873000Y-36685000D01*
X83873000Y-39000000D01*
X83873000Y-39000000D01*
G37*
X83873000Y-39000000D02*
X83881685Y-39046159D01*
X83908965Y-39088553D01*
X83950590Y-39116994D01*
X84000000Y-39127000D01*
X99798198Y-39127000D01*
X99110198Y-39815000D01*
X98963071Y-39815000D01*
X98509591Y-39905203D01*
X98125149Y-40162078D01*
X97868274Y-40546520D01*
X97778071Y-41000000D01*
X97868274Y-41453480D01*
X98125149Y-41837922D01*
X98367717Y-42000000D01*
X98125149Y-42162078D01*
X98073083Y-42240000D01*
X98000000Y-42240000D01*
X97709161Y-42297852D01*
X97462599Y-42462599D01*
X90462599Y-49462599D01*
X90297852Y-49709161D01*
X90240000Y-50000000D01*
X90240000Y-53435198D01*
X87913293Y-55761905D01*
X87793117Y-55471057D01*
X87530327Y-55207808D01*
X87186799Y-55065162D01*
X87139923Y-55065121D01*
X87009811Y-54935009D01*
X87185167Y-54935162D01*
X87528943Y-54793117D01*
X87792192Y-54530327D01*
X87934838Y-54186799D01*
X87935162Y-53814833D01*
X87793117Y-53471057D01*
X87760000Y-53437882D01*
X87760000Y-50500000D01*
X87723138Y-50314683D01*
X87702148Y-50209160D01*
X87537401Y-49962599D01*
X86134309Y-48559507D01*
X86131726Y-48546520D01*
X85874851Y-48162078D01*
X85632283Y-48000000D01*
X85874851Y-47837922D01*
X86131726Y-47453480D01*
X86221929Y-47000000D01*
X86131726Y-46546520D01*
X85874851Y-46162078D01*
X85632283Y-46000000D01*
X85874851Y-45837922D01*
X86131726Y-45453480D01*
X86221929Y-45000000D01*
X86131726Y-44546520D01*
X85874851Y-44162078D01*
X85632283Y-44000000D01*
X85874851Y-43837922D01*
X86131726Y-43453480D01*
X86221929Y-43000000D01*
X86131726Y-42546520D01*
X85874851Y-42162078D01*
X85824129Y-42128187D01*
X86001441Y-42014090D01*
X86146431Y-41801890D01*
X86197440Y-41550000D01*
X86197440Y-40450000D01*
X86153162Y-40214683D01*
X86014090Y-39998559D01*
X85801890Y-39853569D01*
X85550000Y-39802560D01*
X83050000Y-39802560D01*
X82814683Y-39846838D01*
X82598559Y-39985910D01*
X82453569Y-40198110D01*
X82445086Y-40240000D01*
X81814802Y-40240000D01*
X80179209Y-38604407D01*
X80777728Y-38826461D01*
X81423939Y-38802260D01*
X81908553Y-38601527D01*
X81954237Y-38283843D01*
X81040000Y-37369605D01*
X81025858Y-37383748D01*
X80846252Y-37204142D01*
X80860395Y-37190000D01*
X80846252Y-37175858D01*
X81025858Y-36996253D01*
X81040000Y-37010395D01*
X81054143Y-36996253D01*
X81233748Y-37175858D01*
X81219605Y-37190000D01*
X82133843Y-38104237D01*
X82451527Y-38058553D01*
X82676461Y-37452272D01*
X82652260Y-36806061D01*
X82602115Y-36685000D01*
X83873000Y-36685000D01*
X83873000Y-39000000D01*
G36*
X82378071Y-51000000D02*
X82427368Y-51247830D01*
X81712599Y-51962599D01*
X81547852Y-52209161D01*
X81490000Y-52500000D01*
X81490000Y-54437537D01*
X81457808Y-54469673D01*
X81315162Y-54813201D01*
X81314838Y-55185167D01*
X81337494Y-55240000D01*
X81075460Y-55240000D01*
X81075460Y-54858750D01*
X80843710Y-54627000D01*
X79676020Y-54627000D01*
X79676020Y-54647000D01*
X79422020Y-54647000D01*
X79422020Y-54627000D01*
X79402020Y-54627000D01*
X79402020Y-54373000D01*
X79422020Y-54373000D01*
X79422020Y-54353000D01*
X79676020Y-54353000D01*
X79676020Y-54373000D01*
X80843710Y-54373000D01*
X81075460Y-54141250D01*
X81075460Y-53716168D01*
X80934333Y-53375457D01*
X80673564Y-53114687D01*
X80470450Y-53030555D01*
X80651441Y-52914090D01*
X80796431Y-52701890D01*
X80847440Y-52450000D01*
X80847440Y-52227362D01*
X82453374Y-50621428D01*
X82378071Y-51000000D01*
X82378071Y-51000000D01*
G37*
X82378071Y-51000000D02*
X82427368Y-51247830D01*
X81712599Y-51962599D01*
X81547852Y-52209161D01*
X81490000Y-52500000D01*
X81490000Y-54437537D01*
X81457808Y-54469673D01*
X81315162Y-54813201D01*
X81314838Y-55185167D01*
X81337494Y-55240000D01*
X81075460Y-55240000D01*
X81075460Y-54858750D01*
X80843710Y-54627000D01*
X79676020Y-54627000D01*
X79676020Y-54647000D01*
X79422020Y-54647000D01*
X79422020Y-54627000D01*
X79402020Y-54627000D01*
X79402020Y-54373000D01*
X79422020Y-54373000D01*
X79422020Y-54353000D01*
X79676020Y-54353000D01*
X79676020Y-54373000D01*
X80843710Y-54373000D01*
X81075460Y-54141250D01*
X81075460Y-53716168D01*
X80934333Y-53375457D01*
X80673564Y-53114687D01*
X80470450Y-53030555D01*
X80651441Y-52914090D01*
X80796431Y-52701890D01*
X80847440Y-52450000D01*
X80847440Y-52227362D01*
X82453374Y-50621428D01*
X82378071Y-51000000D01*
G36*
X82446838Y-41785317D02*
X82585910Y-42001441D01*
X82773615Y-42129694D01*
X82725149Y-42162078D01*
X82468274Y-42546520D01*
X82378071Y-43000000D01*
X82468274Y-43453480D01*
X82725149Y-43837922D01*
X82967717Y-44000000D01*
X82725149Y-44162078D01*
X82612653Y-44330441D01*
X82451527Y-43941447D01*
X82133843Y-43895763D01*
X81219605Y-44810000D01*
X81233748Y-44824142D01*
X81054142Y-45003748D01*
X81040000Y-44989605D01*
X81025858Y-45003748D01*
X80846252Y-44824142D01*
X80860395Y-44810000D01*
X80846252Y-44795858D01*
X81025858Y-44616252D01*
X81040000Y-44630395D01*
X81954237Y-43716157D01*
X81908553Y-43398473D01*
X81302272Y-43173539D01*
X80656061Y-43197740D01*
X80360000Y-43320372D01*
X80360000Y-43214802D01*
X81814802Y-41760000D01*
X82442074Y-41760000D01*
X82446838Y-41785317D01*
X82446838Y-41785317D01*
G37*
X82446838Y-41785317D02*
X82585910Y-42001441D01*
X82773615Y-42129694D01*
X82725149Y-42162078D01*
X82468274Y-42546520D01*
X82378071Y-43000000D01*
X82468274Y-43453480D01*
X82725149Y-43837922D01*
X82967717Y-44000000D01*
X82725149Y-44162078D01*
X82612653Y-44330441D01*
X82451527Y-43941447D01*
X82133843Y-43895763D01*
X81219605Y-44810000D01*
X81233748Y-44824142D01*
X81054142Y-45003748D01*
X81040000Y-44989605D01*
X81025858Y-45003748D01*
X80846252Y-44824142D01*
X80860395Y-44810000D01*
X80846252Y-44795858D01*
X81025858Y-44616252D01*
X81040000Y-44630395D01*
X81954237Y-43716157D01*
X81908553Y-43398473D01*
X81302272Y-43173539D01*
X80656061Y-43197740D01*
X80360000Y-43320372D01*
X80360000Y-43214802D01*
X81814802Y-41760000D01*
X82442074Y-41760000D01*
X82446838Y-41785317D01*
M02*
