G04 #@! TF.FileFunction,Legend,Bot*
%FSLAX46Y46*%
G04 Gerber Fmt 4.6, Leading zero omitted, Abs format (unit mm)*
G04 Created by KiCad (PCBNEW 4.0.2-stable) date Tuesday, November 01, 2016 'pmt' 12:33:55 pm*
%MOMM*%
G01*
G04 APERTURE LIST*
%ADD10C,0.100000*%
%ADD11C,0.200000*%
%ADD12C,0.500000*%
%ADD13C,1.000000*%
%ADD14C,0.150000*%
G04 APERTURE END LIST*
D10*
D11*
X115690477Y-53952381D02*
X116166668Y-53952381D01*
X116166668Y-52952381D01*
X115357144Y-52952381D02*
X115357144Y-53761905D01*
X115309525Y-53857143D01*
X115261906Y-53904762D01*
X115166668Y-53952381D01*
X114976191Y-53952381D01*
X114880953Y-53904762D01*
X114833334Y-53857143D01*
X114785715Y-53761905D01*
X114785715Y-52952381D01*
X114309525Y-53952381D02*
X114309525Y-52952381D01*
X113738096Y-53952381D02*
X114166668Y-53380952D01*
X113738096Y-52952381D02*
X114309525Y-53523810D01*
X113309525Y-53428571D02*
X112976191Y-53428571D01*
X112833334Y-53952381D02*
X113309525Y-53952381D01*
X113309525Y-52952381D01*
X112833334Y-52952381D01*
X111071429Y-53857143D02*
X111119048Y-53904762D01*
X111261905Y-53952381D01*
X111357143Y-53952381D01*
X111500001Y-53904762D01*
X111595239Y-53809524D01*
X111642858Y-53714286D01*
X111690477Y-53523810D01*
X111690477Y-53380952D01*
X111642858Y-53190476D01*
X111595239Y-53095238D01*
X111500001Y-53000000D01*
X111357143Y-52952381D01*
X111261905Y-52952381D01*
X111119048Y-53000000D01*
X111071429Y-53047619D01*
X110452382Y-53476190D02*
X110452382Y-53952381D01*
X110785715Y-52952381D02*
X110452382Y-53476190D01*
X110119048Y-52952381D01*
X109214286Y-53857143D02*
X109261905Y-53904762D01*
X109404762Y-53952381D01*
X109500000Y-53952381D01*
X109642858Y-53904762D01*
X109738096Y-53809524D01*
X109785715Y-53714286D01*
X109833334Y-53523810D01*
X109833334Y-53380952D01*
X109785715Y-53190476D01*
X109738096Y-53095238D01*
X109642858Y-53000000D01*
X109500000Y-52952381D01*
X109404762Y-52952381D01*
X109261905Y-53000000D01*
X109214286Y-53047619D01*
X108833334Y-53666667D02*
X108357143Y-53666667D01*
X108928572Y-53952381D02*
X108595239Y-52952381D01*
X108261905Y-53952381D01*
X106880952Y-53476190D02*
X106880952Y-53666667D01*
X106833333Y-53666667D02*
X106833333Y-53476190D01*
X106785714Y-53428571D02*
X106785714Y-53714286D01*
X106738095Y-53666667D02*
X106738095Y-53476190D01*
X106690476Y-53476190D02*
X106690476Y-53666667D01*
X106880952Y-53619048D02*
X106785714Y-53714286D01*
X106690476Y-53619048D01*
X106880952Y-53523810D02*
X106785714Y-53428571D01*
X106690476Y-53523810D01*
X106880952Y-53476190D02*
X106785714Y-53428571D01*
X106690476Y-53476190D01*
X106642857Y-53571429D01*
X106690476Y-53666667D01*
X106785714Y-53714286D01*
X106880952Y-53666667D01*
X106928572Y-53571429D01*
X106880952Y-53476190D01*
X105214286Y-53047619D02*
X105166667Y-53000000D01*
X105071429Y-52952381D01*
X104833333Y-52952381D01*
X104738095Y-53000000D01*
X104690476Y-53047619D01*
X104642857Y-53142857D01*
X104642857Y-53238095D01*
X104690476Y-53380952D01*
X105261905Y-53952381D01*
X104642857Y-53952381D01*
X104023810Y-52952381D02*
X103928571Y-52952381D01*
X103833333Y-53000000D01*
X103785714Y-53047619D01*
X103738095Y-53142857D01*
X103690476Y-53333333D01*
X103690476Y-53571429D01*
X103738095Y-53761905D01*
X103785714Y-53857143D01*
X103833333Y-53904762D01*
X103928571Y-53952381D01*
X104023810Y-53952381D01*
X104119048Y-53904762D01*
X104166667Y-53857143D01*
X104214286Y-53761905D01*
X104261905Y-53571429D01*
X104261905Y-53333333D01*
X104214286Y-53142857D01*
X104166667Y-53047619D01*
X104119048Y-53000000D01*
X104023810Y-52952381D01*
X102738095Y-53952381D02*
X103309524Y-53952381D01*
X103023810Y-53952381D02*
X103023810Y-52952381D01*
X103119048Y-53095238D01*
X103214286Y-53190476D01*
X103309524Y-53238095D01*
X101880952Y-52952381D02*
X102071429Y-52952381D01*
X102166667Y-53000000D01*
X102214286Y-53047619D01*
X102309524Y-53190476D01*
X102357143Y-53380952D01*
X102357143Y-53761905D01*
X102309524Y-53857143D01*
X102261905Y-53904762D01*
X102166667Y-53952381D01*
X101976190Y-53952381D01*
X101880952Y-53904762D01*
X101833333Y-53857143D01*
X101785714Y-53761905D01*
X101785714Y-53523810D01*
X101833333Y-53428571D01*
X101880952Y-53380952D01*
X101976190Y-53333333D01*
X102166667Y-53333333D01*
X102261905Y-53380952D01*
X102309524Y-53428571D01*
X102357143Y-53523810D01*
X101357143Y-53571429D02*
X100595238Y-53571429D01*
X99928572Y-52952381D02*
X99833333Y-52952381D01*
X99738095Y-53000000D01*
X99690476Y-53047619D01*
X99642857Y-53142857D01*
X99595238Y-53333333D01*
X99595238Y-53571429D01*
X99642857Y-53761905D01*
X99690476Y-53857143D01*
X99738095Y-53904762D01*
X99833333Y-53952381D01*
X99928572Y-53952381D01*
X100023810Y-53904762D01*
X100071429Y-53857143D01*
X100119048Y-53761905D01*
X100166667Y-53571429D01*
X100166667Y-53333333D01*
X100119048Y-53142857D01*
X100071429Y-53047619D01*
X100023810Y-53000000D01*
X99928572Y-52952381D01*
X99023810Y-53380952D02*
X99119048Y-53333333D01*
X99166667Y-53285714D01*
X99214286Y-53190476D01*
X99214286Y-53142857D01*
X99166667Y-53047619D01*
X99119048Y-53000000D01*
X99023810Y-52952381D01*
X98833333Y-52952381D01*
X98738095Y-53000000D01*
X98690476Y-53047619D01*
X98642857Y-53142857D01*
X98642857Y-53190476D01*
X98690476Y-53285714D01*
X98738095Y-53333333D01*
X98833333Y-53380952D01*
X99023810Y-53380952D01*
X99119048Y-53428571D01*
X99166667Y-53476190D01*
X99214286Y-53571429D01*
X99214286Y-53761905D01*
X99166667Y-53857143D01*
X99119048Y-53904762D01*
X99023810Y-53952381D01*
X98833333Y-53952381D01*
X98738095Y-53904762D01*
X98690476Y-53857143D01*
X98642857Y-53761905D01*
X98642857Y-53571429D01*
X98690476Y-53476190D01*
X98738095Y-53428571D01*
X98833333Y-53380952D01*
X98214286Y-53571429D02*
X97452381Y-53571429D01*
X97023810Y-53047619D02*
X96976191Y-53000000D01*
X96880953Y-52952381D01*
X96642857Y-52952381D01*
X96547619Y-53000000D01*
X96500000Y-53047619D01*
X96452381Y-53142857D01*
X96452381Y-53238095D01*
X96500000Y-53380952D01*
X97071429Y-53952381D01*
X96452381Y-53952381D01*
X95595238Y-52952381D02*
X95785715Y-52952381D01*
X95880953Y-53000000D01*
X95928572Y-53047619D01*
X96023810Y-53190476D01*
X96071429Y-53380952D01*
X96071429Y-53761905D01*
X96023810Y-53857143D01*
X95976191Y-53904762D01*
X95880953Y-53952381D01*
X95690476Y-53952381D01*
X95595238Y-53904762D01*
X95547619Y-53857143D01*
X95500000Y-53761905D01*
X95500000Y-53523810D01*
X95547619Y-53428571D01*
X95595238Y-53380952D01*
X95690476Y-53333333D01*
X95880953Y-53333333D01*
X95976191Y-53380952D01*
X96023810Y-53428571D01*
X96071429Y-53523810D01*
X94023809Y-53476190D02*
X94023809Y-53666667D01*
X93976190Y-53666667D02*
X93976190Y-53476190D01*
X93928571Y-53428571D02*
X93928571Y-53714286D01*
X93880952Y-53666667D02*
X93880952Y-53476190D01*
X93833333Y-53476190D02*
X93833333Y-53666667D01*
X94023809Y-53619048D02*
X93928571Y-53714286D01*
X93833333Y-53619048D01*
X94023809Y-53523810D02*
X93928571Y-53428571D01*
X93833333Y-53523810D01*
X94023809Y-53476190D02*
X93928571Y-53428571D01*
X93833333Y-53476190D01*
X93785714Y-53571429D01*
X93833333Y-53666667D01*
X93928571Y-53714286D01*
X94023809Y-53666667D01*
X94071429Y-53571429D01*
X94023809Y-53476190D01*
X92309524Y-53952381D02*
X92309524Y-53285714D01*
X92309524Y-53476190D02*
X92261905Y-53380952D01*
X92214286Y-53333333D01*
X92119048Y-53285714D01*
X92023809Y-53285714D01*
X91309523Y-53904762D02*
X91404761Y-53952381D01*
X91595238Y-53952381D01*
X91690476Y-53904762D01*
X91738095Y-53809524D01*
X91738095Y-53428571D01*
X91690476Y-53333333D01*
X91595238Y-53285714D01*
X91404761Y-53285714D01*
X91309523Y-53333333D01*
X91261904Y-53428571D01*
X91261904Y-53523810D01*
X91738095Y-53619048D01*
X90928571Y-53285714D02*
X90690476Y-53952381D01*
X90452380Y-53285714D01*
X89357142Y-53047619D02*
X89309523Y-53000000D01*
X89214285Y-52952381D01*
X88976189Y-52952381D01*
X88880951Y-53000000D01*
X88833332Y-53047619D01*
X88785713Y-53142857D01*
X88785713Y-53238095D01*
X88833332Y-53380952D01*
X89404761Y-53952381D01*
X88785713Y-53952381D01*
D12*
X115833333Y-50880952D02*
X116071428Y-50761905D01*
X116190476Y-50523810D01*
X116190476Y-48380952D01*
X114880952Y-50880952D02*
X114880952Y-49214286D01*
X114880952Y-48380952D02*
X115000000Y-48500000D01*
X114880952Y-48619048D01*
X114761904Y-48500000D01*
X114880952Y-48380952D01*
X114880952Y-48619048D01*
X112619047Y-49214286D02*
X112619047Y-51238095D01*
X112738095Y-51476190D01*
X112857143Y-51595238D01*
X113095238Y-51714286D01*
X113452381Y-51714286D01*
X113690476Y-51595238D01*
X112619047Y-50761905D02*
X112857143Y-50880952D01*
X113333333Y-50880952D01*
X113571428Y-50761905D01*
X113690476Y-50642857D01*
X113809524Y-50404762D01*
X113809524Y-49690476D01*
X113690476Y-49452381D01*
X113571428Y-49333333D01*
X113333333Y-49214286D01*
X112857143Y-49214286D01*
X112619047Y-49333333D01*
X111428571Y-50880952D02*
X111428571Y-48380952D01*
X110357142Y-50880952D02*
X110357142Y-49571429D01*
X110476190Y-49333333D01*
X110714285Y-49214286D01*
X111071428Y-49214286D01*
X111309523Y-49333333D01*
X111428571Y-49452381D01*
X109523809Y-49214286D02*
X108571428Y-49214286D01*
X109166666Y-48380952D02*
X109166666Y-50523810D01*
X109047618Y-50761905D01*
X108809523Y-50880952D01*
X108571428Y-50880952D01*
X104761904Y-50761905D02*
X105000000Y-50880952D01*
X105476190Y-50880952D01*
X105714285Y-50761905D01*
X105833333Y-50642857D01*
X105952381Y-50404762D01*
X105952381Y-49690476D01*
X105833333Y-49452381D01*
X105714285Y-49333333D01*
X105476190Y-49214286D01*
X105000000Y-49214286D01*
X104761904Y-49333333D01*
X103333333Y-50880952D02*
X103571428Y-50761905D01*
X103690476Y-50642857D01*
X103809524Y-50404762D01*
X103809524Y-49690476D01*
X103690476Y-49452381D01*
X103571428Y-49333333D01*
X103333333Y-49214286D01*
X102976190Y-49214286D01*
X102738095Y-49333333D01*
X102619047Y-49452381D01*
X102500000Y-49690476D01*
X102500000Y-50404762D01*
X102619047Y-50642857D01*
X102738095Y-50761905D01*
X102976190Y-50880952D01*
X103333333Y-50880952D01*
X101428571Y-49214286D02*
X101428571Y-50880952D01*
X101428571Y-49452381D02*
X101309523Y-49333333D01*
X101071428Y-49214286D01*
X100714285Y-49214286D01*
X100476190Y-49333333D01*
X100357142Y-49571429D01*
X100357142Y-50880952D01*
X99523809Y-49214286D02*
X98571428Y-49214286D01*
X99166666Y-48380952D02*
X99166666Y-50523810D01*
X99047618Y-50761905D01*
X98809523Y-50880952D01*
X98571428Y-50880952D01*
X97738095Y-50880952D02*
X97738095Y-49214286D01*
X97738095Y-49690476D02*
X97619047Y-49452381D01*
X97500000Y-49333333D01*
X97261904Y-49214286D01*
X97023809Y-49214286D01*
X95833333Y-50880952D02*
X96071428Y-50761905D01*
X96190476Y-50642857D01*
X96309524Y-50404762D01*
X96309524Y-49690476D01*
X96190476Y-49452381D01*
X96071428Y-49333333D01*
X95833333Y-49214286D01*
X95476190Y-49214286D01*
X95238095Y-49333333D01*
X95119047Y-49452381D01*
X95000000Y-49690476D01*
X95000000Y-50404762D01*
X95119047Y-50642857D01*
X95238095Y-50761905D01*
X95476190Y-50880952D01*
X95833333Y-50880952D01*
X93571428Y-50880952D02*
X93809523Y-50761905D01*
X93928571Y-50523810D01*
X93928571Y-48380952D01*
X92261904Y-50880952D02*
X92499999Y-50761905D01*
X92619047Y-50523810D01*
X92619047Y-48380952D01*
X90357142Y-50761905D02*
X90595237Y-50880952D01*
X91071428Y-50880952D01*
X91309523Y-50761905D01*
X91428571Y-50523810D01*
X91428571Y-49571429D01*
X91309523Y-49333333D01*
X91071428Y-49214286D01*
X90595237Y-49214286D01*
X90357142Y-49333333D01*
X90238094Y-49571429D01*
X90238094Y-49809524D01*
X91428571Y-50047619D01*
X89166666Y-50880952D02*
X89166666Y-49214286D01*
X89166666Y-49690476D02*
X89047618Y-49452381D01*
X88928571Y-49333333D01*
X88690475Y-49214286D01*
X88452380Y-49214286D01*
D13*
X119702382Y-43428571D02*
X119702382Y-48428571D01*
X119702382Y-43666667D02*
X119226191Y-43428571D01*
X118273810Y-43428571D01*
X117797620Y-43666667D01*
X117559525Y-43904762D01*
X117321429Y-44380952D01*
X117321429Y-45809524D01*
X117559525Y-46285714D01*
X117797620Y-46523810D01*
X118273810Y-46761905D01*
X119226191Y-46761905D01*
X119702382Y-46523810D01*
X113035715Y-46761905D02*
X113035715Y-44142857D01*
X113273810Y-43666667D01*
X113750000Y-43428571D01*
X114702381Y-43428571D01*
X115178572Y-43666667D01*
X113035715Y-46523810D02*
X113511905Y-46761905D01*
X114702381Y-46761905D01*
X115178572Y-46523810D01*
X115416667Y-46047619D01*
X115416667Y-45571429D01*
X115178572Y-45095238D01*
X114702381Y-44857143D01*
X113511905Y-44857143D01*
X113035715Y-44619048D01*
X110654762Y-46761905D02*
X110654762Y-43428571D01*
X110654762Y-44380952D02*
X110416667Y-43904762D01*
X110178571Y-43666667D01*
X109702381Y-43428571D01*
X109226190Y-43428571D01*
X108273810Y-43428571D02*
X106369048Y-43428571D01*
X107559524Y-41761905D02*
X107559524Y-46047619D01*
X107321429Y-46523810D01*
X106845238Y-46761905D01*
X106369048Y-46761905D01*
X105178571Y-43428571D02*
X103988095Y-46761905D01*
X102797619Y-43428571D02*
X103988095Y-46761905D01*
X104464286Y-47952381D01*
X104702381Y-48190476D01*
X105178571Y-48428571D01*
X94940476Y-46523810D02*
X95416666Y-46761905D01*
X96369047Y-46761905D01*
X96845238Y-46523810D01*
X97083333Y-46285714D01*
X97321428Y-45809524D01*
X97321428Y-44380952D01*
X97083333Y-43904762D01*
X96845238Y-43666667D01*
X96369047Y-43428571D01*
X95416666Y-43428571D01*
X94940476Y-43666667D01*
X90654762Y-46761905D02*
X90654762Y-44142857D01*
X90892857Y-43666667D01*
X91369047Y-43428571D01*
X92321428Y-43428571D01*
X92797619Y-43666667D01*
X90654762Y-46523810D02*
X91130952Y-46761905D01*
X92321428Y-46761905D01*
X92797619Y-46523810D01*
X93035714Y-46047619D01*
X93035714Y-45571429D01*
X92797619Y-45095238D01*
X92321428Y-44857143D01*
X91130952Y-44857143D01*
X90654762Y-44619048D01*
X88988095Y-43428571D02*
X87083333Y-43428571D01*
X88273809Y-41761905D02*
X88273809Y-46047619D01*
X88035714Y-46523810D01*
X87559523Y-46761905D01*
X87083333Y-46761905D01*
D14*
X134571429Y-51214286D02*
X134571429Y-51976191D01*
X134952381Y-51595239D02*
X134190476Y-51595239D01*
X133952381Y-52928572D02*
X133952381Y-52452381D01*
X134428571Y-52404762D01*
X134380952Y-52452381D01*
X134333333Y-52547619D01*
X134333333Y-52785715D01*
X134380952Y-52880953D01*
X134428571Y-52928572D01*
X134523810Y-52976191D01*
X134761905Y-52976191D01*
X134857143Y-52928572D01*
X134904762Y-52880953D01*
X134952381Y-52785715D01*
X134952381Y-52547619D01*
X134904762Y-52452381D01*
X134857143Y-52404762D01*
X133952381Y-53261905D02*
X134952381Y-53595238D01*
X133952381Y-53928572D01*
X134000000Y-56738096D02*
X133952381Y-56642858D01*
X133952381Y-56500001D01*
X134000000Y-56357143D01*
X134095238Y-56261905D01*
X134190476Y-56214286D01*
X134380952Y-56166667D01*
X134523810Y-56166667D01*
X134714286Y-56214286D01*
X134809524Y-56261905D01*
X134904762Y-56357143D01*
X134952381Y-56500001D01*
X134952381Y-56595239D01*
X134904762Y-56738096D01*
X134857143Y-56785715D01*
X134523810Y-56785715D01*
X134523810Y-56595239D01*
X134952381Y-57214286D02*
X133952381Y-57214286D01*
X134952381Y-57785715D01*
X133952381Y-57785715D01*
X134952381Y-58261905D02*
X133952381Y-58261905D01*
X133952381Y-58500000D01*
X134000000Y-58642858D01*
X134095238Y-58738096D01*
X134190476Y-58785715D01*
X134380952Y-58833334D01*
X134523810Y-58833334D01*
X134714286Y-58785715D01*
X134809524Y-58738096D01*
X134904762Y-58642858D01*
X134952381Y-58500000D01*
X134952381Y-58261905D01*
M02*
