M48
;DRILL file {KiCad 4.0.7} date Tuesday, December 26, 2017 'AMt' 07:42:29 AM
;FORMAT={-:-/ absolute / inch / decimal}
FMAT,2
INCH,TZ
T1C0.016
T2C0.030
T3C0.031
T4C0.040
T5C0.047
T6C0.051
%
G90
G05
M72
T1
X0.1515Y-0.8988
X0.2815Y-0.3988
X0.2815Y-1.1488
X0.3215Y-0.1688
X0.4515Y-0.6888
X0.4615Y-0.2088
X0.4615Y-0.3588
X0.4615Y-0.5688
X0.5115Y-0.5088
X0.5115Y-1.1088
X0.5415Y-0.4888
X0.5915Y-0.9788
X0.5915Y-1.2088
X0.6815Y-1.0988
X0.7215Y-0.3588
X0.7215Y-0.4488
X0.7715Y-0.6388
X0.8015Y-0.8388
X0.811Y-0.5386
X0.8415Y-0.6788
X0.8615Y-0.5988
X0.8915Y-0.7988
X1.0115Y-0.8688
X1.0715Y-1.0288
X1.2115Y-0.3688
X1.2115Y-0.5688
X1.3115Y-1.2388
X1.4415Y-1.2688
X1.4815Y-0.9888
X1.5615Y-1.1688
T2
X0.8431Y-1.3288
X0.9415Y-1.3288
X1.0399Y-1.3288
T3
X1.4415Y-0.7888
X1.5399Y-0.7888
T4
X0.2215Y-0.1488
X0.2215Y-0.2488
X0.2215Y-0.3488
X0.2215Y-0.4488
X0.2215Y-0.5488
X0.2215Y-0.6488
X0.2215Y-0.7488
X0.2215Y-0.8488
X0.2215Y-0.9488
X0.2215Y-1.0488
X1.1415Y-0.3188
X1.1415Y-0.4188
X1.1415Y-0.5188
X1.1415Y-0.6188
X1.1415Y-0.7188
X1.1415Y-0.8188
T5
X1.3915Y-0.6688
X1.5883Y-0.6688
T6
X1.5046Y-0.2088
X1.7015Y-0.2088
T0
M30
