  0
SECTION
  2
HEADER
  9
$ANGBASE
  50
0.0
  9
$ANGDIR
  70
  1
  9
$MEASUREMENT
  70
0
  0
ENDSEC
  0
SECTION
  2
TABLES
  0
TABLE
  2
LTYPE
  70
4
  0
LTYPE
  5
40F
  2
CONTINUOUS
  70
0
  3
Solid line
  72
65
  73
0
  40
0.0
  0
LTYPE
  5
410
  2
DASHDOT
 70
0
  3
Dash Dot ____ _ ____ _
 72
65
 73
4
 40
2.0
 49
1.25
 49
-0.25
 49
0.25
 49
-0.25
  0
LTYPE
  5
411
  2
DASHED
 70
0
  3
Dashed __ __ __ __ __
 72
65
 73
2
 40
0.75
 49
0.5
 49
-0.25
  0
LTYPE
  5
43B
  2
DOTTED
 70
0
  3
Dotted .  .  .  .
 72
65
 73
2
 40
0.2
 49
0.0
 49
-0.2
  0
ENDTAB
  0
TABLE
  2
STYLE
  70
4
  0
STYLE
  2
KICAD
  70
0
  40
0
  41
1
  42
1
  50
0
  71
0
  3
isocp.shx
  0
STYLE
  2
KICADB
  70
0
  40
0
  41
1
  42
1
  50
0
  71
0
  3
isocp.shx
  0
STYLE
  2
KICADI
  70
0
  40
0
  41
1
  42
1
  50
15
  71
0
  3
isocp.shx
  0
STYLE
  2
KICADBI
  70
0
  40
0
  41
1
  42
1
  50
15
  71
0
  3
isocp.shx
  0
ENDTAB
  0
TABLE
  2
LAYER
  70
30
  0
LAYER
  2
BLACK
  70
0
  62
7
  6
CONTINUOUS
  0
LAYER
  2
GRAY1
  70
0
  62
251
  6
CONTINUOUS
  0
LAYER
  2
GRAY2
  70
0
  62
8
  6
CONTINUOUS
  0
LAYER
  2
GRAY3
  70
0
  62
9
  6
CONTINUOUS
  0
LAYER
  2
WHITE
  70
0
  62
7
  6
CONTINUOUS
  0
LAYER
  2
LYELLOW
  70
0
  62
51
  6
CONTINUOUS
  0
LAYER
  2
BLUE1
  70
0
  62
178
  6
CONTINUOUS
  0
LAYER
  2
GREEN1
  70
0
  62
98
  6
CONTINUOUS
  0
LAYER
  2
CYAN1
  70
0
  62
138
  6
CONTINUOUS
  0
LAYER
  2
RED1
  70
0
  62
18
  6
CONTINUOUS
  0
LAYER
  2
MAGENTA1
  70
0
  62
228
  6
CONTINUOUS
  0
LAYER
  2
BROWN1
  70
0
  62
58
  6
CONTINUOUS
  0
LAYER
  2
BLUE2
  70
0
  62
5
  6
CONTINUOUS
  0
LAYER
  2
GREEN2
  70
0
  62
3
  6
CONTINUOUS
  0
LAYER
  2
CYAN2
  70
0
  62
4
  6
CONTINUOUS
  0
LAYER
  2
RED2
  70
0
  62
1
  6
CONTINUOUS
  0
LAYER
  2
MAGENTA2
  70
0
  62
6
  6
CONTINUOUS
  0
LAYER
  2
BROWN2
  70
0
  62
54
  6
CONTINUOUS
  0
LAYER
  2
BLUE3
  70
0
  62
171
  6
CONTINUOUS
  0
LAYER
  2
GREEN3
  70
0
  62
91
  6
CONTINUOUS
  0
LAYER
  2
CYAN3
  70
0
  62
131
  6
CONTINUOUS
  0
LAYER
  2
RED3
  70
0
  62
11
  6
CONTINUOUS
  0
LAYER
  2
MAGENTA3
  70
0
  62
221
  6
CONTINUOUS
  0
LAYER
  2
YELLOW3
  70
0
  62
2
  6
CONTINUOUS
  0
LAYER
  2
BLUE4
  70
0
  62
5
  6
CONTINUOUS
  0
LAYER
  2
GREEN4
  70
0
  62
3
  6
CONTINUOUS
  0
LAYER
  2
CYAN4
  70
0
  62
4
  6
CONTINUOUS
  0
LAYER
  2
RED4
  70
0
  62
1
  6
CONTINUOUS
  0
LAYER
  2
MAGENTA4
  70
0
  62
6
  6
CONTINUOUS
  0
LAYER
  2
YELLOW4
  70
0
  62
2
  6
CONTINUOUS
  0
ENDTAB
  0
ENDSEC
  0
SECTION
  2
ENTITIES
0
LINE
8
BLACK
6
CONTINUOUS
10
15.794
20
-34.202
11
14.594
21
-34.202
0
LINE
8
BLACK
6
CONTINUOUS
10
14.594
20
-34.202
11
14.594
21
-33.302
0
LINE
8
BLACK
6
CONTINUOUS
10
14.594
20
-33.302
11
15.794
21
-33.302
0
LINE
8
BLACK
6
CONTINUOUS
10
15.794
20
-33.302
11
15.794
21
-34.202
0
LINE
8
BLACK
6
CONTINUOUS
10
17.994
20
-34.202
11
16.794
21
-34.202
0
LINE
8
BLACK
6
CONTINUOUS
10
16.794
20
-34.202
11
16.794
21
-33.302
0
LINE
8
BLACK
6
CONTINUOUS
10
16.794
20
-33.302
11
17.994
21
-33.302
0
LINE
8
BLACK
6
CONTINUOUS
10
17.994
20
-33.302
11
17.994
21
-34.202
0
LINE
8
BLACK
6
CONTINUOUS
10
31.796
20
-33.948
11
30.596
21
-33.948
0
LINE
8
BLACK
6
CONTINUOUS
10
30.596
20
-33.948
11
30.596
21
-33.048
0
LINE
8
BLACK
6
CONTINUOUS
10
30.596
20
-33.048
11
31.796
21
-33.048
0
LINE
8
BLACK
6
CONTINUOUS
10
31.796
20
-33.048
11
31.796
21
-33.948
0
LINE
8
BLACK
6
CONTINUOUS
10
33.996
20
-33.948
11
32.796
21
-33.948
0
LINE
8
BLACK
6
CONTINUOUS
10
32.796
20
-33.948
11
32.796
21
-33.048
0
LINE
8
BLACK
6
CONTINUOUS
10
32.796
20
-33.048
11
33.996
21
-33.048
0
LINE
8
BLACK
6
CONTINUOUS
10
33.996
20
-33.048
11
33.996
21
-33.948
0
LINE
8
BLACK
6
CONTINUOUS
10
12.376
20
-33.678
11
11.576
21
-33.678
0
LINE
8
BLACK
6
CONTINUOUS
10
11.576
20
-33.678
11
11.576
21
-32.778
0
LINE
8
BLACK
6
CONTINUOUS
10
11.576
20
-32.778
11
12.376
21
-32.778
0
LINE
8
BLACK
6
CONTINUOUS
10
12.376
20
-32.778
11
12.376
21
-33.678
0
LINE
8
BLACK
6
CONTINUOUS
10
15.794
20
-32.17
11
14.594
21
-32.17
0
LINE
8
BLACK
6
CONTINUOUS
10
14.594
20
-32.17
11
14.594
21
-31.27
0
LINE
8
BLACK
6
CONTINUOUS
10
14.594
20
-31.27
11
15.794
21
-31.27
0
LINE
8
BLACK
6
CONTINUOUS
10
15.794
20
-31.27
11
15.794
21
-32.17
0
LINE
8
BLACK
6
CONTINUOUS
10
17.994
20
-32.17
11
16.794
21
-32.17
0
LINE
8
BLACK
6
CONTINUOUS
10
16.794
20
-32.17
11
16.794
21
-31.27
0
LINE
8
BLACK
6
CONTINUOUS
10
16.794
20
-31.27
11
17.994
21
-31.27
0
LINE
8
BLACK
6
CONTINUOUS
10
17.994
20
-31.27
11
17.994
21
-32.17
0
LINE
8
BLACK
6
CONTINUOUS
10
13.326
20
-31.678
11
12.526
21
-31.678
0
LINE
8
BLACK
6
CONTINUOUS
10
12.526
20
-31.678
11
12.526
21
-30.778
0
LINE
8
BLACK
6
CONTINUOUS
10
12.526
20
-30.778
11
13.326
21
-30.778
0
LINE
8
BLACK
6
CONTINUOUS
10
13.326
20
-30.778
11
13.326
21
-31.678
0
LINE
8
BLACK
6
CONTINUOUS
10
11.426
20
-31.678
11
10.626
21
-31.678
0
LINE
8
BLACK
6
CONTINUOUS
10
10.626
20
-31.678
11
10.626
21
-30.778
0
LINE
8
BLACK
6
CONTINUOUS
10
10.626
20
-30.778
11
11.426
21
-30.778
0
LINE
8
BLACK
6
CONTINUOUS
10
11.426
20
-30.778
11
11.426
21
-31.678
0
LINE
8
BLACK
6
CONTINUOUS
10
37.258
20
-30.452
11
35.258
21
-30.452
0
LINE
8
BLACK
6
CONTINUOUS
10
35.258
20
-30.452
11
35.258
21
-28.952
0
LINE
8
BLACK
6
CONTINUOUS
10
35.258
20
-28.952
11
37.258
21
-28.952
0
LINE
8
BLACK
6
CONTINUOUS
10
37.258
20
-28.952
11
37.258
21
-30.452
0
LINE
8
BLACK
6
CONTINUOUS
10
17.996
20
-29.794
11
16.446
21
-29.794
0
LINE
8
BLACK
6
CONTINUOUS
10
16.446
20
-29.794
11
16.446
21
-28.494
0
LINE
8
BLACK
6
CONTINUOUS
10
16.446
20
-28.494
11
17.996
21
-28.494
0
LINE
8
BLACK
6
CONTINUOUS
10
17.996
20
-28.494
11
17.996
21
-29.794
0
LINE
8
BLACK
6
CONTINUOUS
10
10.046
20
-29.794
11
8.496
21
-29.794
0
LINE
8
BLACK
6
CONTINUOUS
10
8.496
20
-29.794
11
8.496
21
-28.494
0
LINE
8
BLACK
6
CONTINUOUS
10
8.496
20
-28.494
11
10.046
21
-28.494
0
LINE
8
BLACK
6
CONTINUOUS
10
10.046
20
-28.494
11
10.046
21
-29.794
0
LINE
8
BLACK
6
CONTINUOUS
10
26.048
20
-29.794
11
24.498
21
-29.794
0
LINE
8
BLACK
6
CONTINUOUS
10
24.498
20
-29.794
11
24.498
21
-28.494
0
LINE
8
BLACK
6
CONTINUOUS
10
24.498
20
-28.494
11
26.048
21
-28.494
0
LINE
8
BLACK
6
CONTINUOUS
10
26.048
20
-28.494
11
26.048
21
-29.794
0
LINE
8
BLACK
6
CONTINUOUS
10
33.998
20
-29.794
11
32.448
21
-29.794
0
LINE
8
BLACK
6
CONTINUOUS
10
32.448
20
-29.794
11
32.448
21
-28.494
0
LINE
8
BLACK
6
CONTINUOUS
10
32.448
20
-28.494
11
33.998
21
-28.494
0
LINE
8
BLACK
6
CONTINUOUS
10
33.998
20
-28.494
11
33.998
21
-29.794
0
LINE
8
BLACK
6
CONTINUOUS
10
20.874
20
-29.376
11
19.674
21
-29.376
0
LINE
8
BLACK
6
CONTINUOUS
10
19.674
20
-29.376
11
19.674
21
-28.476
0
LINE
8
BLACK
6
CONTINUOUS
10
19.674
20
-28.476
11
20.874
21
-28.476
0
LINE
8
BLACK
6
CONTINUOUS
10
20.874
20
-28.476
11
20.874
21
-29.376
0
LINE
8
BLACK
6
CONTINUOUS
10
23.074
20
-29.376
11
21.874
21
-29.376
0
LINE
8
BLACK
6
CONTINUOUS
10
21.874
20
-29.376
11
21.874
21
-28.476
0
LINE
8
BLACK
6
CONTINUOUS
10
21.874
20
-28.476
11
23.074
21
-28.476
0
LINE
8
BLACK
6
CONTINUOUS
10
23.074
20
-28.476
11
23.074
21
-29.376
0
LINE
8
BLACK
6
CONTINUOUS
10
43.558
20
-29.302
11
41.558
21
-29.302
0
LINE
8
BLACK
6
CONTINUOUS
10
41.558
20
-29.302
11
41.558
21
-25.502
0
LINE
8
BLACK
6
CONTINUOUS
10
41.558
20
-25.502
11
43.558
21
-25.502
0
LINE
8
BLACK
6
CONTINUOUS
10
43.558
20
-25.502
11
43.558
21
-29.302
0
LINE
8
BLACK
6
CONTINUOUS
10
37.258
20
-28.152
11
35.258
21
-28.152
0
LINE
8
BLACK
6
CONTINUOUS
10
35.258
20
-28.152
11
35.258
21
-26.652
0
LINE
8
BLACK
6
CONTINUOUS
10
35.258
20
-26.652
11
37.258
21
-26.652
0
LINE
8
BLACK
6
CONTINUOUS
10
37.258
20
-26.652
11
37.258
21
-28.152
0
LINE
8
BLACK
6
CONTINUOUS
10
20.874
20
-26.836
11
19.674
21
-26.836
0
LINE
8
BLACK
6
CONTINUOUS
10
19.674
20
-26.836
11
19.674
21
-25.936
0
LINE
8
BLACK
6
CONTINUOUS
10
19.674
20
-25.936
11
20.874
21
-25.936
0
LINE
8
BLACK
6
CONTINUOUS
10
20.874
20
-25.936
11
20.874
21
-26.836
0
LINE
8
BLACK
6
CONTINUOUS
10
23.074
20
-26.836
11
21.874
21
-26.836
0
LINE
8
BLACK
6
CONTINUOUS
10
21.874
20
-26.836
11
21.874
21
-25.936
0
LINE
8
BLACK
6
CONTINUOUS
10
21.874
20
-25.936
11
23.074
21
-25.936
0
LINE
8
BLACK
6
CONTINUOUS
10
23.074
20
-25.936
11
23.074
21
-26.836
0
LINE
8
BLACK
6
CONTINUOUS
10
37.258
20
-25.852
11
35.258
21
-25.852
0
LINE
8
BLACK
6
CONTINUOUS
10
35.258
20
-25.852
11
35.258
21
-24.352
0
LINE
8
BLACK
6
CONTINUOUS
10
35.258
20
-24.352
11
37.258
21
-24.352
0
LINE
8
BLACK
6
CONTINUOUS
10
37.258
20
-24.352
11
37.258
21
-25.852
0
LINE
8
BLACK
6
CONTINUOUS
10
33.998
20
-25.294
11
32.448
21
-25.294
0
LINE
8
BLACK
6
CONTINUOUS
10
32.448
20
-25.294
11
32.448
21
-23.994
0
LINE
8
BLACK
6
CONTINUOUS
10
32.448
20
-23.994
11
33.998
21
-23.994
0
LINE
8
BLACK
6
CONTINUOUS
10
33.998
20
-23.994
11
33.998
21
-25.294
0
LINE
8
BLACK
6
CONTINUOUS
10
26.048
20
-25.294
11
24.498
21
-25.294
0
LINE
8
BLACK
6
CONTINUOUS
10
24.498
20
-25.294
11
24.498
21
-23.994
0
LINE
8
BLACK
6
CONTINUOUS
10
24.498
20
-23.994
11
26.048
21
-23.994
0
LINE
8
BLACK
6
CONTINUOUS
10
26.048
20
-23.994
11
26.048
21
-25.294
0
LINE
8
BLACK
6
CONTINUOUS
10
17.996
20
-25.294
11
16.446
21
-25.294
0
LINE
8
BLACK
6
CONTINUOUS
10
16.446
20
-25.294
11
16.446
21
-23.994
0
LINE
8
BLACK
6
CONTINUOUS
10
16.446
20
-23.994
11
17.996
21
-23.994
0
LINE
8
BLACK
6
CONTINUOUS
10
17.996
20
-23.994
11
17.996
21
-25.294
0
LINE
8
BLACK
6
CONTINUOUS
10
10.046
20
-25.294
11
8.496
21
-25.294
0
LINE
8
BLACK
6
CONTINUOUS
10
8.496
20
-25.294
11
8.496
21
-23.994
0
LINE
8
BLACK
6
CONTINUOUS
10
8.496
20
-23.994
11
10.046
21
-23.994
0
LINE
8
BLACK
6
CONTINUOUS
10
10.046
20
-23.994
11
10.046
21
-25.294
0
LINE
8
BLACK
6
CONTINUOUS
10
20.77
20
-24.475
11
19.57
21
-24.475
0
LINE
8
BLACK
6
CONTINUOUS
10
19.57
20
-24.475
11
19.57
21
-23.725
0
LINE
8
BLACK
6
CONTINUOUS
10
19.57
20
-23.725
11
20.77
21
-23.725
0
LINE
8
BLACK
6
CONTINUOUS
10
20.77
20
-23.725
11
20.77
21
-24.475
0
LINE
8
BLACK
6
CONTINUOUS
10
22.67
20
-24.475
11
21.47
21
-24.475
0
LINE
8
BLACK
6
CONTINUOUS
10
21.47
20
-24.475
11
21.47
21
-23.725
0
LINE
8
BLACK
6
CONTINUOUS
10
21.47
20
-23.725
11
22.67
21
-23.725
0
LINE
8
BLACK
6
CONTINUOUS
10
22.67
20
-23.725
11
22.67
21
-24.475
0
LINE
8
BLACK
6
CONTINUOUS
10
10.643
20
-20.5572
11
10.811
21
-20.6542
0
LINE
8
BLACK
6
CONTINUOUS
10
10.811
20
-20.6542
11
10.9357
21
-20.8028
0
LINE
8
BLACK
6
CONTINUOUS
10
10.9357
20
-20.8028
11
11.002
21
-20.985
0
LINE
8
BLACK
6
CONTINUOUS
10
11.002
20
-20.985
11
11.002
21
-21.179
0
LINE
8
BLACK
6
CONTINUOUS
10
11.002
20
-21.179
11
10.9357
21
-21.3612
0
LINE
8
BLACK
6
CONTINUOUS
10
10.9357
20
-21.3612
11
10.811
21
-21.5098
0
LINE
8
BLACK
6
CONTINUOUS
10
10.811
20
-21.5098
11
10.643
21
-21.6068
0
LINE
8
BLACK
6
CONTINUOUS
10
10.643
20
-21.6068
11
10.5001
21
-21.632
0
LINE
8
BLACK
6
CONTINUOUS
10
10.5001
20
-21.632
11
9.00389
21
-21.632
0
LINE
8
BLACK
6
CONTINUOUS
10
9.00389
20
-21.632
11
8.86099
21
-21.6068
0
LINE
8
BLACK
6
CONTINUOUS
10
8.86099
20
-21.6068
11
8.69301
21
-21.5098
0
LINE
8
BLACK
6
CONTINUOUS
10
8.69301
20
-21.5098
11
8.56834
21
-21.3612
0
LINE
8
BLACK
6
CONTINUOUS
10
8.56834
20
-21.3612
11
8.502
21
-21.179
0
LINE
8
BLACK
6
CONTINUOUS
10
8.502
20
-21.179
11
8.502
21
-20.985
0
LINE
8
BLACK
6
CONTINUOUS
10
8.502
20
-20.985
11
8.56834
21
-20.8028
0
LINE
8
BLACK
6
CONTINUOUS
10
8.56834
20
-20.8028
11
8.69301
21
-20.6542
0
LINE
8
BLACK
6
CONTINUOUS
10
8.69301
20
-20.6542
11
8.86099
21
-20.5572
0
LINE
8
BLACK
6
CONTINUOUS
10
8.86099
20
-20.5572
11
9.00389
21
-20.532
0
LINE
8
BLACK
6
CONTINUOUS
10
9.00389
20
-20.532
11
10.5001
21
-20.532
0
LINE
8
BLACK
6
CONTINUOUS
10
10.5001
20
-20.532
11
10.643
21
-20.5572
0
LINE
8
BLACK
6
CONTINUOUS
10
26.043
20
-20.5572
11
26.211
21
-20.6542
0
LINE
8
BLACK
6
CONTINUOUS
10
26.211
20
-20.6542
11
26.3357
21
-20.8028
0
LINE
8
BLACK
6
CONTINUOUS
10
26.3357
20
-20.8028
11
26.402
21
-20.985
0
LINE
8
BLACK
6
CONTINUOUS
10
26.402
20
-20.985
11
26.402
21
-21.179
0
LINE
8
BLACK
6
CONTINUOUS
10
26.402
20
-21.179
11
26.3357
21
-21.3612
0
LINE
8
BLACK
6
CONTINUOUS
10
26.3357
20
-21.3612
11
26.211
21
-21.5098
0
LINE
8
BLACK
6
CONTINUOUS
10
26.211
20
-21.5098
11
26.043
21
-21.6068
0
LINE
8
BLACK
6
CONTINUOUS
10
26.043
20
-21.6068
11
25.9001
21
-21.632
0
LINE
8
BLACK
6
CONTINUOUS
10
25.9001
20
-21.632
11
24.4039
21
-21.632
0
LINE
8
BLACK
6
CONTINUOUS
10
24.4039
20
-21.632
11
24.261
21
-21.6068
0
LINE
8
BLACK
6
CONTINUOUS
10
24.261
20
-21.6068
11
24.093
21
-21.5098
0
LINE
8
BLACK
6
CONTINUOUS
10
24.093
20
-21.5098
11
23.9683
21
-21.3612
0
LINE
8
BLACK
6
CONTINUOUS
10
23.9683
20
-21.3612
11
23.902
21
-21.179
0
LINE
8
BLACK
6
CONTINUOUS
10
23.902
20
-21.179
11
23.902
21
-20.985
0
LINE
8
BLACK
6
CONTINUOUS
10
23.902
20
-20.985
11
23.9683
21
-20.8028
0
LINE
8
BLACK
6
CONTINUOUS
10
23.9683
20
-20.8028
11
24.093
21
-20.6542
0
LINE
8
BLACK
6
CONTINUOUS
10
24.093
20
-20.6542
11
24.261
21
-20.5572
0
LINE
8
BLACK
6
CONTINUOUS
10
24.261
20
-20.5572
11
24.4039
21
-20.532
0
LINE
8
BLACK
6
CONTINUOUS
10
24.4039
20
-20.532
11
25.9001
21
-20.532
0
LINE
8
BLACK
6
CONTINUOUS
10
25.9001
20
-20.532
11
26.043
21
-20.5572
0
LINE
8
BLACK
6
CONTINUOUS
10
10.643
20
-18.5572
11
10.811
21
-18.6542
0
LINE
8
BLACK
6
CONTINUOUS
10
10.811
20
-18.6542
11
10.9357
21
-18.8028
0
LINE
8
BLACK
6
CONTINUOUS
10
10.9357
20
-18.8028
11
11.002
21
-18.985
0
LINE
8
BLACK
6
CONTINUOUS
10
11.002
20
-18.985
11
11.002
21
-19.179
0
LINE
8
BLACK
6
CONTINUOUS
10
11.002
20
-19.179
11
10.9357
21
-19.3612
0
LINE
8
BLACK
6
CONTINUOUS
10
10.9357
20
-19.3612
11
10.811
21
-19.5098
0
LINE
8
BLACK
6
CONTINUOUS
10
10.811
20
-19.5098
11
10.643
21
-19.6068
0
LINE
8
BLACK
6
CONTINUOUS
10
10.643
20
-19.6068
11
10.5001
21
-19.632
0
LINE
8
BLACK
6
CONTINUOUS
10
10.5001
20
-19.632
11
9.00389
21
-19.632
0
LINE
8
BLACK
6
CONTINUOUS
10
9.00389
20
-19.632
11
8.86099
21
-19.6068
0
LINE
8
BLACK
6
CONTINUOUS
10
8.86099
20
-19.6068
11
8.69301
21
-19.5098
0
LINE
8
BLACK
6
CONTINUOUS
10
8.69301
20
-19.5098
11
8.56834
21
-19.3612
0
LINE
8
BLACK
6
CONTINUOUS
10
8.56834
20
-19.3612
11
8.502
21
-19.179
0
LINE
8
BLACK
6
CONTINUOUS
10
8.502
20
-19.179
11
8.502
21
-18.985
0
LINE
8
BLACK
6
CONTINUOUS
10
8.502
20
-18.985
11
8.56834
21
-18.8028
0
LINE
8
BLACK
6
CONTINUOUS
10
8.56834
20
-18.8028
11
8.69301
21
-18.6542
0
LINE
8
BLACK
6
CONTINUOUS
10
8.69301
20
-18.6542
11
8.86099
21
-18.5572
0
LINE
8
BLACK
6
CONTINUOUS
10
8.86099
20
-18.5572
11
9.00389
21
-18.532
0
LINE
8
BLACK
6
CONTINUOUS
10
9.00389
20
-18.532
11
10.5001
21
-18.532
0
LINE
8
BLACK
6
CONTINUOUS
10
10.5001
20
-18.532
11
10.643
21
-18.5572
0
LINE
8
BLACK
6
CONTINUOUS
10
25.943
20
-18.5572
11
26.111
21
-18.6542
0
LINE
8
BLACK
6
CONTINUOUS
10
26.111
20
-18.6542
11
26.2357
21
-18.8028
0
LINE
8
BLACK
6
CONTINUOUS
10
26.2357
20
-18.8028
11
26.302
21
-18.985
0
LINE
8
BLACK
6
CONTINUOUS
10
26.302
20
-18.985
11
26.302
21
-19.179
0
LINE
8
BLACK
6
CONTINUOUS
10
26.302
20
-19.179
11
26.2357
21
-19.3612
0
LINE
8
BLACK
6
CONTINUOUS
10
26.2357
20
-19.3612
11
26.111
21
-19.5098
0
LINE
8
BLACK
6
CONTINUOUS
10
26.111
20
-19.5098
11
25.943
21
-19.6068
0
LINE
8
BLACK
6
CONTINUOUS
10
25.943
20
-19.6068
11
25.8001
21
-19.632
0
LINE
8
BLACK
6
CONTINUOUS
10
25.8001
20
-19.632
11
24.3039
21
-19.632
0
LINE
8
BLACK
6
CONTINUOUS
10
24.3039
20
-19.632
11
24.161
21
-19.6068
0
LINE
8
BLACK
6
CONTINUOUS
10
24.161
20
-19.6068
11
23.993
21
-19.5098
0
LINE
8
BLACK
6
CONTINUOUS
10
23.993
20
-19.5098
11
23.8683
21
-19.3612
0
LINE
8
BLACK
6
CONTINUOUS
10
23.8683
20
-19.3612
11
23.802
21
-19.179
0
LINE
8
BLACK
6
CONTINUOUS
10
23.802
20
-19.179
11
23.802
21
-18.985
0
LINE
8
BLACK
6
CONTINUOUS
10
23.802
20
-18.985
11
23.8683
21
-18.8028
0
LINE
8
BLACK
6
CONTINUOUS
10
23.8683
20
-18.8028
11
23.993
21
-18.6542
0
LINE
8
BLACK
6
CONTINUOUS
10
23.993
20
-18.6542
11
24.161
21
-18.5572
0
LINE
8
BLACK
6
CONTINUOUS
10
24.161
20
-18.5572
11
24.3039
21
-18.532
0
LINE
8
BLACK
6
CONTINUOUS
10
24.3039
20
-18.532
11
25.8001
21
-18.532
0
LINE
8
BLACK
6
CONTINUOUS
10
25.8001
20
-18.532
11
25.943
21
-18.5572
0
LINE
8
BLACK
6
CONTINUOUS
10
10.643
20
-16.5572
11
10.811
21
-16.6542
0
LINE
8
BLACK
6
CONTINUOUS
10
10.811
20
-16.6542
11
10.9357
21
-16.8028
0
LINE
8
BLACK
6
CONTINUOUS
10
10.9357
20
-16.8028
11
11.002
21
-16.985
0
LINE
8
BLACK
6
CONTINUOUS
10
11.002
20
-16.985
11
11.002
21
-17.179
0
LINE
8
BLACK
6
CONTINUOUS
10
11.002
20
-17.179
11
10.9357
21
-17.3612
0
LINE
8
BLACK
6
CONTINUOUS
10
10.9357
20
-17.3612
11
10.811
21
-17.5098
0
LINE
8
BLACK
6
CONTINUOUS
10
10.811
20
-17.5098
11
10.643
21
-17.6068
0
LINE
8
BLACK
6
CONTINUOUS
10
10.643
20
-17.6068
11
10.5001
21
-17.632
0
LINE
8
BLACK
6
CONTINUOUS
10
10.5001
20
-17.632
11
9.00389
21
-17.632
0
LINE
8
BLACK
6
CONTINUOUS
10
9.00389
20
-17.632
11
8.86099
21
-17.6068
0
LINE
8
BLACK
6
CONTINUOUS
10
8.86099
20
-17.6068
11
8.69301
21
-17.5098
0
LINE
8
BLACK
6
CONTINUOUS
10
8.69301
20
-17.5098
11
8.56834
21
-17.3612
0
LINE
8
BLACK
6
CONTINUOUS
10
8.56834
20
-17.3612
11
8.502
21
-17.179
0
LINE
8
BLACK
6
CONTINUOUS
10
8.502
20
-17.179
11
8.502
21
-16.985
0
LINE
8
BLACK
6
CONTINUOUS
10
8.502
20
-16.985
11
8.56834
21
-16.8028
0
LINE
8
BLACK
6
CONTINUOUS
10
8.56834
20
-16.8028
11
8.69301
21
-16.6542
0
LINE
8
BLACK
6
CONTINUOUS
10
8.69301
20
-16.6542
11
8.86099
21
-16.5572
0
LINE
8
BLACK
6
CONTINUOUS
10
8.86099
20
-16.5572
11
9.00389
21
-16.532
0
LINE
8
BLACK
6
CONTINUOUS
10
9.00389
20
-16.532
11
10.5001
21
-16.532
0
LINE
8
BLACK
6
CONTINUOUS
10
10.5001
20
-16.532
11
10.643
21
-16.5572
0
LINE
8
BLACK
6
CONTINUOUS
10
26.043
20
-16.5572
11
26.211
21
-16.6542
0
LINE
8
BLACK
6
CONTINUOUS
10
26.211
20
-16.6542
11
26.3357
21
-16.8028
0
LINE
8
BLACK
6
CONTINUOUS
10
26.3357
20
-16.8028
11
26.402
21
-16.985
0
LINE
8
BLACK
6
CONTINUOUS
10
26.402
20
-16.985
11
26.402
21
-17.179
0
LINE
8
BLACK
6
CONTINUOUS
10
26.402
20
-17.179
11
26.3357
21
-17.3612
0
LINE
8
BLACK
6
CONTINUOUS
10
26.3357
20
-17.3612
11
26.211
21
-17.5098
0
LINE
8
BLACK
6
CONTINUOUS
10
26.211
20
-17.5098
11
26.043
21
-17.6068
0
LINE
8
BLACK
6
CONTINUOUS
10
26.043
20
-17.6068
11
25.9001
21
-17.632
0
LINE
8
BLACK
6
CONTINUOUS
10
25.9001
20
-17.632
11
24.4039
21
-17.632
0
LINE
8
BLACK
6
CONTINUOUS
10
24.4039
20
-17.632
11
24.261
21
-17.6068
0
LINE
8
BLACK
6
CONTINUOUS
10
24.261
20
-17.6068
11
24.093
21
-17.5098
0
LINE
8
BLACK
6
CONTINUOUS
10
24.093
20
-17.5098
11
23.9683
21
-17.3612
0
LINE
8
BLACK
6
CONTINUOUS
10
23.9683
20
-17.3612
11
23.902
21
-17.179
0
LINE
8
BLACK
6
CONTINUOUS
10
23.902
20
-17.179
11
23.902
21
-16.985
0
LINE
8
BLACK
6
CONTINUOUS
10
23.902
20
-16.985
11
23.9683
21
-16.8028
0
LINE
8
BLACK
6
CONTINUOUS
10
23.9683
20
-16.8028
11
24.093
21
-16.6542
0
LINE
8
BLACK
6
CONTINUOUS
10
24.093
20
-16.6542
11
24.261
21
-16.5572
0
LINE
8
BLACK
6
CONTINUOUS
10
24.261
20
-16.5572
11
24.4039
21
-16.532
0
LINE
8
BLACK
6
CONTINUOUS
10
24.4039
20
-16.532
11
25.9001
21
-16.532
0
LINE
8
BLACK
6
CONTINUOUS
10
25.9001
20
-16.532
11
26.043
21
-16.5572
0
LINE
8
BLACK
6
CONTINUOUS
10
10.643
20
-14.5572
11
10.811
21
-14.6542
0
LINE
8
BLACK
6
CONTINUOUS
10
10.811
20
-14.6542
11
10.9357
21
-14.8028
0
LINE
8
BLACK
6
CONTINUOUS
10
10.9357
20
-14.8028
11
11.002
21
-14.985
0
LINE
8
BLACK
6
CONTINUOUS
10
11.002
20
-14.985
11
11.002
21
-15.179
0
LINE
8
BLACK
6
CONTINUOUS
10
11.002
20
-15.179
11
10.9357
21
-15.3612
0
LINE
8
BLACK
6
CONTINUOUS
10
10.9357
20
-15.3612
11
10.811
21
-15.5098
0
LINE
8
BLACK
6
CONTINUOUS
10
10.811
20
-15.5098
11
10.643
21
-15.6068
0
LINE
8
BLACK
6
CONTINUOUS
10
10.643
20
-15.6068
11
10.5001
21
-15.632
0
LINE
8
BLACK
6
CONTINUOUS
10
10.5001
20
-15.632
11
9.00389
21
-15.632
0
LINE
8
BLACK
6
CONTINUOUS
10
9.00389
20
-15.632
11
8.86099
21
-15.6068
0
LINE
8
BLACK
6
CONTINUOUS
10
8.86099
20
-15.6068
11
8.69301
21
-15.5098
0
LINE
8
BLACK
6
CONTINUOUS
10
8.69301
20
-15.5098
11
8.56834
21
-15.3612
0
LINE
8
BLACK
6
CONTINUOUS
10
8.56834
20
-15.3612
11
8.502
21
-15.179
0
LINE
8
BLACK
6
CONTINUOUS
10
8.502
20
-15.179
11
8.502
21
-14.985
0
LINE
8
BLACK
6
CONTINUOUS
10
8.502
20
-14.985
11
8.56834
21
-14.8028
0
LINE
8
BLACK
6
CONTINUOUS
10
8.56834
20
-14.8028
11
8.69301
21
-14.6542
0
LINE
8
BLACK
6
CONTINUOUS
10
8.69301
20
-14.6542
11
8.86099
21
-14.5572
0
LINE
8
BLACK
6
CONTINUOUS
10
8.86099
20
-14.5572
11
9.00389
21
-14.532
0
LINE
8
BLACK
6
CONTINUOUS
10
9.00389
20
-14.532
11
10.5001
21
-14.532
0
LINE
8
BLACK
6
CONTINUOUS
10
10.5001
20
-14.532
11
10.643
21
-14.5572
0
LINE
8
BLACK
6
CONTINUOUS
10
26.043
20
-14.5572
11
26.211
21
-14.6542
0
LINE
8
BLACK
6
CONTINUOUS
10
26.211
20
-14.6542
11
26.3357
21
-14.8028
0
LINE
8
BLACK
6
CONTINUOUS
10
26.3357
20
-14.8028
11
26.402
21
-14.985
0
LINE
8
BLACK
6
CONTINUOUS
10
26.402
20
-14.985
11
26.402
21
-15.179
0
LINE
8
BLACK
6
CONTINUOUS
10
26.402
20
-15.179
11
26.3357
21
-15.3612
0
LINE
8
BLACK
6
CONTINUOUS
10
26.3357
20
-15.3612
11
26.211
21
-15.5098
0
LINE
8
BLACK
6
CONTINUOUS
10
26.211
20
-15.5098
11
26.043
21
-15.6068
0
LINE
8
BLACK
6
CONTINUOUS
10
26.043
20
-15.6068
11
25.9001
21
-15.632
0
LINE
8
BLACK
6
CONTINUOUS
10
25.9001
20
-15.632
11
24.4039
21
-15.632
0
LINE
8
BLACK
6
CONTINUOUS
10
24.4039
20
-15.632
11
24.261
21
-15.6068
0
LINE
8
BLACK
6
CONTINUOUS
10
24.261
20
-15.6068
11
24.093
21
-15.5098
0
LINE
8
BLACK
6
CONTINUOUS
10
24.093
20
-15.5098
11
23.9683
21
-15.3612
0
LINE
8
BLACK
6
CONTINUOUS
10
23.9683
20
-15.3612
11
23.902
21
-15.179
0
LINE
8
BLACK
6
CONTINUOUS
10
23.902
20
-15.179
11
23.902
21
-14.985
0
LINE
8
BLACK
6
CONTINUOUS
10
23.902
20
-14.985
11
23.9683
21
-14.8028
0
LINE
8
BLACK
6
CONTINUOUS
10
23.9683
20
-14.8028
11
24.093
21
-14.6542
0
LINE
8
BLACK
6
CONTINUOUS
10
24.093
20
-14.6542
11
24.261
21
-14.5572
0
LINE
8
BLACK
6
CONTINUOUS
10
24.261
20
-14.5572
11
24.4039
21
-14.532
0
LINE
8
BLACK
6
CONTINUOUS
10
24.4039
20
-14.532
11
25.9001
21
-14.532
0
LINE
8
BLACK
6
CONTINUOUS
10
25.9001
20
-14.532
11
26.043
21
-14.5572
0
LINE
8
BLACK
6
CONTINUOUS
10
10.643
20
-12.5572
11
10.811
21
-12.6542
0
LINE
8
BLACK
6
CONTINUOUS
10
10.811
20
-12.6542
11
10.9357
21
-12.8028
0
LINE
8
BLACK
6
CONTINUOUS
10
10.9357
20
-12.8028
11
11.002
21
-12.985
0
LINE
8
BLACK
6
CONTINUOUS
10
11.002
20
-12.985
11
11.002
21
-13.179
0
LINE
8
BLACK
6
CONTINUOUS
10
11.002
20
-13.179
11
10.9357
21
-13.3612
0
LINE
8
BLACK
6
CONTINUOUS
10
10.9357
20
-13.3612
11
10.811
21
-13.5098
0
LINE
8
BLACK
6
CONTINUOUS
10
10.811
20
-13.5098
11
10.643
21
-13.6068
0
LINE
8
BLACK
6
CONTINUOUS
10
10.643
20
-13.6068
11
10.5001
21
-13.632
0
LINE
8
BLACK
6
CONTINUOUS
10
10.5001
20
-13.632
11
9.00389
21
-13.632
0
LINE
8
BLACK
6
CONTINUOUS
10
9.00389
20
-13.632
11
8.86099
21
-13.6068
0
LINE
8
BLACK
6
CONTINUOUS
10
8.86099
20
-13.6068
11
8.69301
21
-13.5098
0
LINE
8
BLACK
6
CONTINUOUS
10
8.69301
20
-13.5098
11
8.56834
21
-13.3612
0
LINE
8
BLACK
6
CONTINUOUS
10
8.56834
20
-13.3612
11
8.502
21
-13.179
0
LINE
8
BLACK
6
CONTINUOUS
10
8.502
20
-13.179
11
8.502
21
-12.985
0
LINE
8
BLACK
6
CONTINUOUS
10
8.502
20
-12.985
11
8.56834
21
-12.8028
0
LINE
8
BLACK
6
CONTINUOUS
10
8.56834
20
-12.8028
11
8.69301
21
-12.6542
0
LINE
8
BLACK
6
CONTINUOUS
10
8.69301
20
-12.6542
11
8.86099
21
-12.5572
0
LINE
8
BLACK
6
CONTINUOUS
10
8.86099
20
-12.5572
11
9.00389
21
-12.532
0
LINE
8
BLACK
6
CONTINUOUS
10
9.00389
20
-12.532
11
10.5001
21
-12.532
0
LINE
8
BLACK
6
CONTINUOUS
10
10.5001
20
-12.532
11
10.643
21
-12.5572
0
LINE
8
BLACK
6
CONTINUOUS
10
26.043
20
-12.5572
11
26.211
21
-12.6542
0
LINE
8
BLACK
6
CONTINUOUS
10
26.211
20
-12.6542
11
26.3357
21
-12.8028
0
LINE
8
BLACK
6
CONTINUOUS
10
26.3357
20
-12.8028
11
26.402
21
-12.985
0
LINE
8
BLACK
6
CONTINUOUS
10
26.402
20
-12.985
11
26.402
21
-13.179
0
LINE
8
BLACK
6
CONTINUOUS
10
26.402
20
-13.179
11
26.3357
21
-13.3612
0
LINE
8
BLACK
6
CONTINUOUS
10
26.3357
20
-13.3612
11
26.211
21
-13.5098
0
LINE
8
BLACK
6
CONTINUOUS
10
26.211
20
-13.5098
11
26.043
21
-13.6068
0
LINE
8
BLACK
6
CONTINUOUS
10
26.043
20
-13.6068
11
25.9001
21
-13.632
0
LINE
8
BLACK
6
CONTINUOUS
10
25.9001
20
-13.632
11
24.4039
21
-13.632
0
LINE
8
BLACK
6
CONTINUOUS
10
24.4039
20
-13.632
11
24.261
21
-13.6068
0
LINE
8
BLACK
6
CONTINUOUS
10
24.261
20
-13.6068
11
24.093
21
-13.5098
0
LINE
8
BLACK
6
CONTINUOUS
10
24.093
20
-13.5098
11
23.9683
21
-13.3612
0
LINE
8
BLACK
6
CONTINUOUS
10
23.9683
20
-13.3612
11
23.902
21
-13.179
0
LINE
8
BLACK
6
CONTINUOUS
10
23.902
20
-13.179
11
23.902
21
-12.985
0
LINE
8
BLACK
6
CONTINUOUS
10
23.902
20
-12.985
11
23.9683
21
-12.8028
0
LINE
8
BLACK
6
CONTINUOUS
10
23.9683
20
-12.8028
11
24.093
21
-12.6542
0
LINE
8
BLACK
6
CONTINUOUS
10
24.093
20
-12.6542
11
24.261
21
-12.5572
0
LINE
8
BLACK
6
CONTINUOUS
10
24.261
20
-12.5572
11
24.4039
21
-12.532
0
LINE
8
BLACK
6
CONTINUOUS
10
24.4039
20
-12.532
11
25.9001
21
-12.532
0
LINE
8
BLACK
6
CONTINUOUS
10
25.9001
20
-12.532
11
26.043
21
-12.5572
0
LINE
8
BLACK
6
CONTINUOUS
10
10.643
20
-10.5572
11
10.811
21
-10.6542
0
LINE
8
BLACK
6
CONTINUOUS
10
10.811
20
-10.6542
11
10.9357
21
-10.8028
0
LINE
8
BLACK
6
CONTINUOUS
10
10.9357
20
-10.8028
11
11.002
21
-10.985
0
LINE
8
BLACK
6
CONTINUOUS
10
11.002
20
-10.985
11
11.002
21
-11.179
0
LINE
8
BLACK
6
CONTINUOUS
10
11.002
20
-11.179
11
10.9357
21
-11.3612
0
LINE
8
BLACK
6
CONTINUOUS
10
10.9357
20
-11.3612
11
10.811
21
-11.5098
0
LINE
8
BLACK
6
CONTINUOUS
10
10.811
20
-11.5098
11
10.643
21
-11.6068
0
LINE
8
BLACK
6
CONTINUOUS
10
10.643
20
-11.6068
11
10.5001
21
-11.632
0
LINE
8
BLACK
6
CONTINUOUS
10
10.5001
20
-11.632
11
9.00389
21
-11.632
0
LINE
8
BLACK
6
CONTINUOUS
10
9.00389
20
-11.632
11
8.86099
21
-11.6068
0
LINE
8
BLACK
6
CONTINUOUS
10
8.86099
20
-11.6068
11
8.69301
21
-11.5098
0
LINE
8
BLACK
6
CONTINUOUS
10
8.69301
20
-11.5098
11
8.56834
21
-11.3612
0
LINE
8
BLACK
6
CONTINUOUS
10
8.56834
20
-11.3612
11
8.502
21
-11.179
0
LINE
8
BLACK
6
CONTINUOUS
10
8.502
20
-11.179
11
8.502
21
-10.985
0
LINE
8
BLACK
6
CONTINUOUS
10
8.502
20
-10.985
11
8.56834
21
-10.8028
0
LINE
8
BLACK
6
CONTINUOUS
10
8.56834
20
-10.8028
11
8.69301
21
-10.6542
0
LINE
8
BLACK
6
CONTINUOUS
10
8.69301
20
-10.6542
11
8.86099
21
-10.5572
0
LINE
8
BLACK
6
CONTINUOUS
10
8.86099
20
-10.5572
11
9.00389
21
-10.532
0
LINE
8
BLACK
6
CONTINUOUS
10
9.00389
20
-10.532
11
10.5001
21
-10.532
0
LINE
8
BLACK
6
CONTINUOUS
10
10.5001
20
-10.532
11
10.643
21
-10.5572
0
LINE
8
BLACK
6
CONTINUOUS
10
26.043
20
-10.5572
11
26.211
21
-10.6542
0
LINE
8
BLACK
6
CONTINUOUS
10
26.211
20
-10.6542
11
26.3357
21
-10.8028
0
LINE
8
BLACK
6
CONTINUOUS
10
26.3357
20
-10.8028
11
26.402
21
-10.985
0
LINE
8
BLACK
6
CONTINUOUS
10
26.402
20
-10.985
11
26.402
21
-11.179
0
LINE
8
BLACK
6
CONTINUOUS
10
26.402
20
-11.179
11
26.3357
21
-11.3612
0
LINE
8
BLACK
6
CONTINUOUS
10
26.3357
20
-11.3612
11
26.211
21
-11.5098
0
LINE
8
BLACK
6
CONTINUOUS
10
26.211
20
-11.5098
11
26.043
21
-11.6068
0
LINE
8
BLACK
6
CONTINUOUS
10
26.043
20
-11.6068
11
25.9001
21
-11.632
0
LINE
8
BLACK
6
CONTINUOUS
10
25.9001
20
-11.632
11
24.4039
21
-11.632
0
LINE
8
BLACK
6
CONTINUOUS
10
24.4039
20
-11.632
11
24.261
21
-11.6068
0
LINE
8
BLACK
6
CONTINUOUS
10
24.261
20
-11.6068
11
24.093
21
-11.5098
0
LINE
8
BLACK
6
CONTINUOUS
10
24.093
20
-11.5098
11
23.9683
21
-11.3612
0
LINE
8
BLACK
6
CONTINUOUS
10
23.9683
20
-11.3612
11
23.902
21
-11.179
0
LINE
8
BLACK
6
CONTINUOUS
10
23.902
20
-11.179
11
23.902
21
-10.985
0
LINE
8
BLACK
6
CONTINUOUS
10
23.902
20
-10.985
11
23.9683
21
-10.8028
0
LINE
8
BLACK
6
CONTINUOUS
10
23.9683
20
-10.8028
11
24.093
21
-10.6542
0
LINE
8
BLACK
6
CONTINUOUS
10
24.093
20
-10.6542
11
24.261
21
-10.5572
0
LINE
8
BLACK
6
CONTINUOUS
10
24.261
20
-10.5572
11
24.4039
21
-10.532
0
LINE
8
BLACK
6
CONTINUOUS
10
24.4039
20
-10.532
11
25.9001
21
-10.532
0
LINE
8
BLACK
6
CONTINUOUS
10
25.9001
20
-10.532
11
26.043
21
-10.5572
0
LINE
8
BLACK
6
CONTINUOUS
10
32.558
20
-11.088
11
31.358
21
-11.088
0
LINE
8
BLACK
6
CONTINUOUS
10
31.358
20
-11.088
11
31.358
21
-10.188
0
LINE
8
BLACK
6
CONTINUOUS
10
31.358
20
-10.188
11
32.558
21
-10.188
0
LINE
8
BLACK
6
CONTINUOUS
10
32.558
20
-10.188
11
32.558
21
-11.088
0
LINE
8
BLACK
6
CONTINUOUS
10
34.758
20
-11.088
11
33.558
21
-11.088
0
LINE
8
BLACK
6
CONTINUOUS
10
33.558
20
-11.088
11
33.558
21
-10.188
0
LINE
8
BLACK
6
CONTINUOUS
10
33.558
20
-10.188
11
34.758
21
-10.188
0
LINE
8
BLACK
6
CONTINUOUS
10
34.758
20
-10.188
11
34.758
21
-11.088
0
LINE
8
BLACK
6
CONTINUOUS
10
10.643
20
-8.5572
11
10.811
21
-8.65418
0
LINE
8
BLACK
6
CONTINUOUS
10
10.811
20
-8.65418
11
10.9357
21
-8.80276
0
LINE
8
BLACK
6
CONTINUOUS
10
10.9357
20
-8.80276
11
11.002
21
-8.98502
0
LINE
8
BLACK
6
CONTINUOUS
10
11.002
20
-8.98502
11
11.002
21
-9.17898
0
LINE
8
BLACK
6
CONTINUOUS
10
11.002
20
-9.17898
11
10.9357
21
-9.36124
0
LINE
8
BLACK
6
CONTINUOUS
10
10.9357
20
-9.36124
11
10.811
21
-9.50982
0
LINE
8
BLACK
6
CONTINUOUS
10
10.811
20
-9.50982
11
10.643
21
-9.6068
0
LINE
8
BLACK
6
CONTINUOUS
10
10.643
20
-9.6068
11
10.5001
21
-9.632
0
LINE
8
BLACK
6
CONTINUOUS
10
10.5001
20
-9.632
11
9.00389
21
-9.632
0
LINE
8
BLACK
6
CONTINUOUS
10
9.00389
20
-9.632
11
8.86099
21
-9.6068
0
LINE
8
BLACK
6
CONTINUOUS
10
8.86099
20
-9.6068
11
8.69301
21
-9.50982
0
LINE
8
BLACK
6
CONTINUOUS
10
8.69301
20
-9.50982
11
8.56834
21
-9.36124
0
LINE
8
BLACK
6
CONTINUOUS
10
8.56834
20
-9.36124
11
8.502
21
-9.17898
0
LINE
8
BLACK
6
CONTINUOUS
10
8.502
20
-9.17898
11
8.502
21
-8.98502
0
LINE
8
BLACK
6
CONTINUOUS
10
8.502
20
-8.98502
11
8.56834
21
-8.80276
0
LINE
8
BLACK
6
CONTINUOUS
10
8.56834
20
-8.80276
11
8.69301
21
-8.65418
0
LINE
8
BLACK
6
CONTINUOUS
10
8.69301
20
-8.65418
11
8.86099
21
-8.5572
0
LINE
8
BLACK
6
CONTINUOUS
10
8.86099
20
-8.5572
11
9.00389
21
-8.532
0
LINE
8
BLACK
6
CONTINUOUS
10
9.00389
20
-8.532
11
10.5001
21
-8.532
0
LINE
8
BLACK
6
CONTINUOUS
10
10.5001
20
-8.532
11
10.643
21
-8.5572
0
LINE
8
BLACK
6
CONTINUOUS
10
26.043
20
-8.5572
11
26.211
21
-8.65418
0
LINE
8
BLACK
6
CONTINUOUS
10
26.211
20
-8.65418
11
26.3357
21
-8.80276
0
LINE
8
BLACK
6
CONTINUOUS
10
26.3357
20
-8.80276
11
26.402
21
-8.98502
0
LINE
8
BLACK
6
CONTINUOUS
10
26.402
20
-8.98502
11
26.402
21
-9.17898
0
LINE
8
BLACK
6
CONTINUOUS
10
26.402
20
-9.17898
11
26.3357
21
-9.36124
0
LINE
8
BLACK
6
CONTINUOUS
10
26.3357
20
-9.36124
11
26.211
21
-9.50982
0
LINE
8
BLACK
6
CONTINUOUS
10
26.211
20
-9.50982
11
26.043
21
-9.6068
0
LINE
8
BLACK
6
CONTINUOUS
10
26.043
20
-9.6068
11
25.9001
21
-9.632
0
LINE
8
BLACK
6
CONTINUOUS
10
25.9001
20
-9.632
11
24.4039
21
-9.632
0
LINE
8
BLACK
6
CONTINUOUS
10
24.4039
20
-9.632
11
24.261
21
-9.6068
0
LINE
8
BLACK
6
CONTINUOUS
10
24.261
20
-9.6068
11
24.093
21
-9.50982
0
LINE
8
BLACK
6
CONTINUOUS
10
24.093
20
-9.50982
11
23.9683
21
-9.36124
0
LINE
8
BLACK
6
CONTINUOUS
10
23.9683
20
-9.36124
11
23.902
21
-9.17898
0
LINE
8
BLACK
6
CONTINUOUS
10
23.902
20
-9.17898
11
23.902
21
-8.98502
0
LINE
8
BLACK
6
CONTINUOUS
10
23.902
20
-8.98502
11
23.9683
21
-8.80276
0
LINE
8
BLACK
6
CONTINUOUS
10
23.9683
20
-8.80276
11
24.093
21
-8.65418
0
LINE
8
BLACK
6
CONTINUOUS
10
24.093
20
-8.65418
11
24.261
21
-8.5572
0
LINE
8
BLACK
6
CONTINUOUS
10
24.261
20
-8.5572
11
24.4039
21
-8.532
0
LINE
8
BLACK
6
CONTINUOUS
10
24.4039
20
-8.532
11
25.9001
21
-8.532
0
LINE
8
BLACK
6
CONTINUOUS
10
25.9001
20
-8.532
11
26.043
21
-8.5572
0
LINE
8
BLACK
6
CONTINUOUS
10
32.6084
20
-8.95144
11
31.4095
21
-8.95144
0
LINE
8
BLACK
6
CONTINUOUS
10
31.4095
20
-8.95144
11
31.4095
21
-7.75256
0
LINE
8
BLACK
6
CONTINUOUS
10
31.4095
20
-7.75256
11
32.6084
21
-7.75256
0
LINE
8
BLACK
6
CONTINUOUS
10
32.6084
20
-7.75256
11
32.6084
21
-8.95144
0
LINE
8
BLACK
6
CONTINUOUS
10
34.7065
20
-8.95144
11
33.5076
21
-8.95144
0
LINE
8
BLACK
6
CONTINUOUS
10
33.5076
20
-8.95144
11
33.5076
21
-7.75256
0
LINE
8
BLACK
6
CONTINUOUS
10
33.5076
20
-7.75256
11
34.7065
21
-7.75256
0
LINE
8
BLACK
6
CONTINUOUS
10
34.7065
20
-7.75256
11
34.7065
21
-8.95144
0
LINE
8
BLACK
6
CONTINUOUS
10
11.002
20
-7.632
11
8.502
21
-7.632
0
LINE
8
BLACK
6
CONTINUOUS
10
8.502
20
-7.632
11
8.502
21
-6.532
0
LINE
8
BLACK
6
CONTINUOUS
10
8.502
20
-6.532
11
11.002
21
-6.532
0
LINE
8
BLACK
6
CONTINUOUS
10
11.002
20
-6.532
11
11.002
21
-7.632
0
LINE
8
BLACK
6
CONTINUOUS
10
26.043
20
-6.5572
11
26.211
21
-6.65418
0
LINE
8
BLACK
6
CONTINUOUS
10
26.211
20
-6.65418
11
26.3357
21
-6.80276
0
LINE
8
BLACK
6
CONTINUOUS
10
26.3357
20
-6.80276
11
26.402
21
-6.98502
0
LINE
8
BLACK
6
CONTINUOUS
10
26.402
20
-6.98502
11
26.402
21
-7.17898
0
LINE
8
BLACK
6
CONTINUOUS
10
26.402
20
-7.17898
11
26.3357
21
-7.36124
0
LINE
8
BLACK
6
CONTINUOUS
10
26.3357
20
-7.36124
11
26.211
21
-7.50982
0
LINE
8
BLACK
6
CONTINUOUS
10
26.211
20
-7.50982
11
26.043
21
-7.6068
0
LINE
8
BLACK
6
CONTINUOUS
10
26.043
20
-7.6068
11
25.9001
21
-7.632
0
LINE
8
BLACK
6
CONTINUOUS
10
25.9001
20
-7.632
11
24.4039
21
-7.632
0
LINE
8
BLACK
6
CONTINUOUS
10
24.4039
20
-7.632
11
24.261
21
-7.6068
0
LINE
8
BLACK
6
CONTINUOUS
10
24.261
20
-7.6068
11
24.093
21
-7.50982
0
LINE
8
BLACK
6
CONTINUOUS
10
24.093
20
-7.50982
11
23.9683
21
-7.36124
0
LINE
8
BLACK
6
CONTINUOUS
10
23.9683
20
-7.36124
11
23.902
21
-7.17898
0
LINE
8
BLACK
6
CONTINUOUS
10
23.902
20
-7.17898
11
23.902
21
-6.98502
0
LINE
8
BLACK
6
CONTINUOUS
10
23.902
20
-6.98502
11
23.9683
21
-6.80276
0
LINE
8
BLACK
6
CONTINUOUS
10
23.9683
20
-6.80276
11
24.093
21
-6.65418
0
LINE
8
BLACK
6
CONTINUOUS
10
24.093
20
-6.65418
11
24.261
21
-6.5572
0
LINE
8
BLACK
6
CONTINUOUS
10
24.261
20
-6.5572
11
24.4039
21
-6.532
0
LINE
8
BLACK
6
CONTINUOUS
10
24.4039
20
-6.532
11
25.9001
21
-6.532
0
LINE
8
BLACK
6
CONTINUOUS
10
25.9001
20
-6.532
11
26.043
21
-6.5572
  0
ENDSEC
  0
EOF
