G04 #@! TF.FileFunction,Copper,L1,Top,Signal*
%FSLAX46Y46*%
G04 Gerber Fmt 4.6, Leading zero omitted, Abs format (unit mm)*
G04 Created by KiCad (PCBNEW 4.0.7) date Tuesday, December 26, 2017 'AMt' 07:42:27 AM*
%MOMM*%
%LPD*%
G01*
G04 APERTURE LIST*
%ADD10C,0.100000*%
%ADD11R,2.400000X2.400000*%
%ADD12C,2.400000*%
%ADD13R,1.200000X0.750000*%
%ADD14R,1.600000X1.600000*%
%ADD15C,1.600000*%
%ADD16R,1.198880X1.198880*%
%ADD17R,2.500000X2.500000*%
%ADD18C,2.500000*%
%ADD19O,1.700000X3.700000*%
%ADD20R,2.032000X1.727200*%
%ADD21O,2.032000X1.727200*%
%ADD22R,0.800000X0.900000*%
%ADD23R,1.200000X0.900000*%
%ADD24R,1.550000X1.300000*%
%ADD25R,2.000000X3.800000*%
%ADD26R,2.000000X1.500000*%
%ADD27R,2.500000X1.100000*%
%ADD28O,2.500000X1.100000*%
%ADD29C,0.600000*%
%ADD30C,0.250000*%
%ADD31C,2.500000*%
%ADD32C,0.254000*%
G04 APERTURE END LIST*
D10*
D11*
X35344000Y-16988000D03*
D12*
X40344000Y-16988000D03*
D13*
X20170000Y-24100000D03*
X22070000Y-24100000D03*
D14*
X36614000Y-20036000D03*
D15*
X39114000Y-20036000D03*
D16*
X34107020Y-8352000D03*
X32008980Y-8352000D03*
D17*
X43218000Y-5304000D03*
D18*
X38218000Y-5304000D03*
D19*
X26414000Y-32752000D03*
X23914000Y-32752000D03*
X21414000Y-32752000D03*
D20*
X28994000Y-20798000D03*
D21*
X28994000Y-18258000D03*
X28994000Y-15718000D03*
X28994000Y-13178000D03*
X28994000Y-10638000D03*
X28994000Y-8098000D03*
D20*
X5626000Y-3780000D03*
D21*
X5626000Y-6320000D03*
X5626000Y-8860000D03*
X5626000Y-11400000D03*
X5626000Y-13940000D03*
X5626000Y-16480000D03*
X5626000Y-19020000D03*
X5626000Y-21560000D03*
X5626000Y-24100000D03*
X5626000Y-26640000D03*
D22*
X12926000Y-31228000D03*
X11026000Y-31228000D03*
X11976000Y-33228000D03*
D23*
X15194000Y-31720000D03*
X17394000Y-31720000D03*
X34158000Y-10638000D03*
X31958000Y-10638000D03*
X31196000Y-33498000D03*
X33396000Y-33498000D03*
X20274000Y-26386000D03*
X22474000Y-26386000D03*
X20274000Y-28926000D03*
X22474000Y-28926000D03*
X15194000Y-33752000D03*
X17394000Y-33752000D03*
D24*
X17221000Y-24644000D03*
X17221000Y-29144000D03*
X9271000Y-29144000D03*
X9271000Y-24644000D03*
X33223000Y-24644000D03*
X33223000Y-29144000D03*
X25273000Y-29144000D03*
X25273000Y-24644000D03*
D25*
X42558000Y-27402000D03*
D26*
X36258000Y-27402000D03*
X36258000Y-29702000D03*
X36258000Y-25102000D03*
D27*
X9752000Y-7082000D03*
D28*
X9752000Y-9082000D03*
X9752000Y-11082000D03*
X9752000Y-13082000D03*
X9752000Y-15082000D03*
X9752000Y-17082000D03*
X9752000Y-19082000D03*
X9752000Y-21082000D03*
X25152000Y-21082000D03*
X25052000Y-19082000D03*
X25152000Y-17082000D03*
X25152000Y-15082000D03*
X25152000Y-13082000D03*
X25152000Y-11082000D03*
X25152000Y-9082000D03*
X25152000Y-7082000D03*
D29*
X30772000Y-9368000D03*
X18326000Y-11400000D03*
X18326000Y-9114000D03*
X11722000Y-5304000D03*
X8166000Y-4288000D03*
X7150000Y-29180000D03*
X37630000Y-25116000D03*
X39662000Y-29688000D03*
X36614000Y-32228000D03*
X33312000Y-31466000D03*
X17310000Y-27910000D03*
X20358000Y-21306000D03*
X25692000Y-22068000D03*
X20599743Y-13681233D03*
X3848000Y-22830000D03*
X12992000Y-28164000D03*
X12992000Y-12924000D03*
X13754000Y-12416000D03*
X11468000Y-17496000D03*
X21882000Y-15210000D03*
X19596000Y-16226000D03*
X21374000Y-17242000D03*
X7150000Y-10130000D03*
X11722000Y-9114000D03*
X15024000Y-24862000D03*
X15024000Y-30704000D03*
X30772000Y-14448000D03*
X11722000Y-14448000D03*
X22644000Y-20290000D03*
X27216000Y-26132000D03*
D30*
X17394000Y-33752000D02*
X21414000Y-33752000D01*
X36614000Y-20036000D02*
X36614000Y-21306000D01*
X38646000Y-27314000D02*
X36258000Y-29702000D01*
X38646000Y-23338000D02*
X38646000Y-27314000D01*
X36614000Y-21306000D02*
X38646000Y-23338000D01*
D31*
X35344000Y-16988000D02*
X35344000Y-18766000D01*
X35344000Y-18766000D02*
X36614000Y-20036000D01*
X38218000Y-5304000D02*
X38218000Y-11574000D01*
X35344000Y-14448000D02*
X35344000Y-16988000D01*
X38218000Y-11574000D02*
X35344000Y-14448000D01*
D30*
X30772000Y-9368000D02*
X31788000Y-8352000D01*
X18326000Y-9114000D02*
X18326000Y-11400000D01*
X9182000Y-5304000D02*
X11722000Y-5304000D01*
X8166000Y-4288000D02*
X9182000Y-5304000D01*
X31788000Y-8352000D02*
X32008980Y-8352000D01*
X9271000Y-29144000D02*
X7186000Y-29144000D01*
X7186000Y-29144000D02*
X7150000Y-29180000D01*
X20274000Y-26386000D02*
X20274000Y-25896000D01*
X20274000Y-25896000D02*
X22070000Y-24100000D01*
X33223000Y-29144000D02*
X33223000Y-31377000D01*
X37616000Y-25102000D02*
X36258000Y-25102000D01*
X37630000Y-25116000D02*
X37616000Y-25102000D01*
X39154000Y-29688000D02*
X39662000Y-29688000D01*
X36614000Y-32228000D02*
X39154000Y-29688000D01*
X33223000Y-31377000D02*
X33312000Y-31466000D01*
X22070000Y-24100000D02*
X22070000Y-23018000D01*
X17221000Y-27999000D02*
X17221000Y-29144000D01*
X17310000Y-27910000D02*
X17221000Y-27999000D01*
X22070000Y-23018000D02*
X20358000Y-21306000D01*
X24452000Y-21082000D02*
X24706000Y-21082000D01*
X24706000Y-21082000D02*
X25692000Y-22068000D01*
X5626000Y-26640000D02*
X18876000Y-26640000D01*
X18876000Y-26640000D02*
X18834000Y-26640000D01*
X18834000Y-26640000D02*
X18876000Y-26640000D01*
X20170000Y-24100000D02*
X20170000Y-23658000D01*
X17594000Y-21082000D02*
X10452000Y-21082000D01*
X20170000Y-23658000D02*
X17594000Y-21082000D01*
X20170000Y-24100000D02*
X18876000Y-25394000D01*
X18876000Y-25394000D02*
X18876000Y-26640000D01*
X18876000Y-26640000D02*
X18876000Y-30238000D01*
X18876000Y-30238000D02*
X18876000Y-25394000D01*
X20274000Y-28926000D02*
X20274000Y-30196000D01*
X20274000Y-30196000D02*
X20358000Y-30196000D01*
X36258000Y-27402000D02*
X33566000Y-27402000D01*
X18918000Y-30196000D02*
X18876000Y-30238000D01*
X18876000Y-30238000D02*
X17394000Y-31720000D01*
X23406000Y-30196000D02*
X20358000Y-30196000D01*
X20358000Y-30196000D02*
X18918000Y-30196000D01*
X23660000Y-29942000D02*
X23406000Y-30196000D01*
X23660000Y-28672000D02*
X23660000Y-29942000D01*
X26962000Y-25370000D02*
X23660000Y-28672000D01*
X31534000Y-25370000D02*
X26962000Y-25370000D01*
X33566000Y-27402000D02*
X31534000Y-25370000D01*
X36258000Y-27402000D02*
X35852000Y-27402000D01*
X35852000Y-27402000D02*
X34582000Y-28672000D01*
X34582000Y-28672000D02*
X34582000Y-32312000D01*
X34582000Y-32312000D02*
X33396000Y-33498000D01*
X34158000Y-10638000D02*
X34158000Y-8402980D01*
X34158000Y-8402980D02*
X34107020Y-8352000D01*
X15194000Y-33752000D02*
X15194000Y-33922000D01*
X15194000Y-33922000D02*
X16548000Y-35276000D01*
X22390000Y-35276000D02*
X23914000Y-33752000D01*
X16548000Y-35276000D02*
X22390000Y-35276000D01*
X11976000Y-33228000D02*
X14670000Y-33228000D01*
X14670000Y-33228000D02*
X15194000Y-33752000D01*
X22377743Y-9109233D02*
X24420000Y-9114000D01*
X20599743Y-13681233D02*
X22377743Y-9109233D01*
X12926000Y-31228000D02*
X12926000Y-28230000D01*
X3848000Y-14956000D02*
X4864000Y-13940000D01*
X3848000Y-22830000D02*
X3848000Y-14956000D01*
X12926000Y-28230000D02*
X12992000Y-28164000D01*
X4864000Y-13940000D02*
X5626000Y-13940000D01*
X24420000Y-9114000D02*
X25660000Y-9082000D01*
X25660000Y-9082000D02*
X27216000Y-10638000D01*
X27216000Y-10638000D02*
X27216000Y-11400000D01*
X27216000Y-11400000D02*
X28994000Y-13178000D01*
X24452000Y-7082000D02*
X25438000Y-7082000D01*
X25438000Y-7082000D02*
X28994000Y-10638000D01*
X10452000Y-15082000D02*
X12612000Y-15082000D01*
X12992000Y-14702000D02*
X12992000Y-12924000D01*
X12612000Y-15082000D02*
X12992000Y-14702000D01*
X10452000Y-19082000D02*
X12676000Y-19082000D01*
X13754000Y-18004000D02*
X13754000Y-12416000D01*
X12676000Y-19082000D02*
X13754000Y-18004000D01*
X10452000Y-17082000D02*
X11054000Y-17082000D01*
X11054000Y-17082000D02*
X11468000Y-17496000D01*
X21882000Y-15210000D02*
X24010000Y-13082000D01*
X24010000Y-13082000D02*
X24452000Y-13082000D01*
X23470000Y-11082000D02*
X24452000Y-11082000D01*
X22136000Y-12416000D02*
X23470000Y-11082000D01*
X22136000Y-13686000D02*
X22136000Y-12416000D01*
X19596000Y-16226000D02*
X22136000Y-13686000D01*
X24452000Y-17082000D02*
X21534000Y-17082000D01*
X21534000Y-17082000D02*
X21374000Y-17242000D01*
X5626000Y-24100000D02*
X6388000Y-24100000D01*
X6388000Y-24100000D02*
X7150000Y-23338000D01*
X7150000Y-23338000D02*
X7150000Y-10130000D01*
X11722000Y-9114000D02*
X11690000Y-9082000D01*
X11690000Y-9082000D02*
X10452000Y-9082000D01*
X15194000Y-31720000D02*
X15194000Y-30874000D01*
X15242000Y-24644000D02*
X17221000Y-24644000D01*
X15024000Y-24862000D02*
X15242000Y-24644000D01*
X15194000Y-30874000D02*
X15024000Y-30704000D01*
X9271000Y-24644000D02*
X9271000Y-24189000D01*
X9271000Y-24189000D02*
X7912000Y-22830000D01*
X7912000Y-7844000D02*
X8674000Y-7082000D01*
X7912000Y-22830000D02*
X7912000Y-7844000D01*
X8674000Y-7082000D02*
X10452000Y-7082000D01*
X9271000Y-24644000D02*
X17221000Y-24644000D01*
X10452000Y-13082000D02*
X11626000Y-14352000D01*
X31958000Y-13262000D02*
X31958000Y-10638000D01*
X30772000Y-14448000D02*
X31958000Y-13262000D01*
X11626000Y-14352000D02*
X11722000Y-14448000D01*
X31196000Y-33498000D02*
X31196000Y-30112000D01*
X13436000Y-11082000D02*
X10452000Y-11082000D01*
X22644000Y-20290000D02*
X13436000Y-11082000D01*
X31196000Y-30112000D02*
X27216000Y-26132000D01*
X22474000Y-26386000D02*
X22474000Y-26048000D01*
X22474000Y-26048000D02*
X23406000Y-25116000D01*
X23406000Y-25116000D02*
X23406000Y-20128000D01*
X23406000Y-20128000D02*
X24452000Y-19082000D01*
X22474000Y-28926000D02*
X22474000Y-28842000D01*
X22474000Y-28842000D02*
X25273000Y-26043000D01*
X25273000Y-26043000D02*
X25273000Y-24644000D01*
X25273000Y-24644000D02*
X33223000Y-24644000D01*
X25273000Y-24644000D02*
X25273000Y-24519000D01*
X25273000Y-24519000D02*
X26962000Y-22830000D01*
X26962000Y-22830000D02*
X26962000Y-15972000D01*
X26962000Y-15972000D02*
X26072000Y-15082000D01*
X26072000Y-15082000D02*
X24452000Y-15082000D01*
D32*
G36*
X26685673Y-26924192D02*
X27029201Y-27066838D01*
X27076077Y-27066879D01*
X30436000Y-30426802D01*
X30436000Y-32430666D01*
X30360683Y-32444838D01*
X30144559Y-32583910D01*
X29999569Y-32796110D01*
X29948560Y-33048000D01*
X29948560Y-33948000D01*
X29992838Y-34183317D01*
X30131910Y-34399441D01*
X30344110Y-34544431D01*
X30596000Y-34595440D01*
X31796000Y-34595440D01*
X32031317Y-34551162D01*
X32247441Y-34412090D01*
X32295134Y-34342289D01*
X32331910Y-34399441D01*
X32544110Y-34544431D01*
X32796000Y-34595440D01*
X33898091Y-34595440D01*
X33402927Y-34735860D01*
X32898146Y-34867004D01*
X32386350Y-34993710D01*
X31870444Y-35112196D01*
X31347467Y-35221254D01*
X30814740Y-35325809D01*
X30280132Y-35422334D01*
X29738569Y-35509282D01*
X29191738Y-35591307D01*
X28641470Y-35663189D01*
X28086141Y-35727647D01*
X27522885Y-35782235D01*
X26954767Y-35829578D01*
X26386152Y-35869306D01*
X25809696Y-35899123D01*
X25228614Y-35921568D01*
X24647844Y-35936460D01*
X24208817Y-35938940D01*
X23913823Y-35938940D01*
X23474736Y-35936459D01*
X22891461Y-35921567D01*
X22772401Y-35916968D01*
X22927401Y-35813401D01*
X23531251Y-35209551D01*
X23914000Y-35285684D01*
X24482285Y-35172645D01*
X24964054Y-34850738D01*
X25285961Y-34368969D01*
X25399000Y-33800684D01*
X25399000Y-31703316D01*
X25285961Y-31135031D01*
X24971237Y-30664013D01*
X25146000Y-30489250D01*
X25146000Y-29271000D01*
X25400000Y-29271000D01*
X25400000Y-30489250D01*
X25631750Y-30721000D01*
X26232392Y-30721000D01*
X26573104Y-30579873D01*
X26833873Y-30319103D01*
X26975000Y-29978392D01*
X26975000Y-29502750D01*
X26743250Y-29271000D01*
X25400000Y-29271000D01*
X25146000Y-29271000D01*
X25126000Y-29271000D01*
X25126000Y-29017000D01*
X25146000Y-29017000D01*
X25146000Y-28997000D01*
X25400000Y-28997000D01*
X25400000Y-29017000D01*
X26743250Y-29017000D01*
X26975000Y-28785250D01*
X26975000Y-28309608D01*
X26833873Y-27968897D01*
X26573104Y-27708127D01*
X26232392Y-27567000D01*
X25839802Y-27567000D01*
X26584230Y-26822572D01*
X26685673Y-26924192D01*
X26685673Y-26924192D01*
G37*
X26685673Y-26924192D02*
X27029201Y-27066838D01*
X27076077Y-27066879D01*
X30436000Y-30426802D01*
X30436000Y-32430666D01*
X30360683Y-32444838D01*
X30144559Y-32583910D01*
X29999569Y-32796110D01*
X29948560Y-33048000D01*
X29948560Y-33948000D01*
X29992838Y-34183317D01*
X30131910Y-34399441D01*
X30344110Y-34544431D01*
X30596000Y-34595440D01*
X31796000Y-34595440D01*
X32031317Y-34551162D01*
X32247441Y-34412090D01*
X32295134Y-34342289D01*
X32331910Y-34399441D01*
X32544110Y-34544431D01*
X32796000Y-34595440D01*
X33898091Y-34595440D01*
X33402927Y-34735860D01*
X32898146Y-34867004D01*
X32386350Y-34993710D01*
X31870444Y-35112196D01*
X31347467Y-35221254D01*
X30814740Y-35325809D01*
X30280132Y-35422334D01*
X29738569Y-35509282D01*
X29191738Y-35591307D01*
X28641470Y-35663189D01*
X28086141Y-35727647D01*
X27522885Y-35782235D01*
X26954767Y-35829578D01*
X26386152Y-35869306D01*
X25809696Y-35899123D01*
X25228614Y-35921568D01*
X24647844Y-35936460D01*
X24208817Y-35938940D01*
X23913823Y-35938940D01*
X23474736Y-35936459D01*
X22891461Y-35921567D01*
X22772401Y-35916968D01*
X22927401Y-35813401D01*
X23531251Y-35209551D01*
X23914000Y-35285684D01*
X24482285Y-35172645D01*
X24964054Y-34850738D01*
X25285961Y-34368969D01*
X25399000Y-33800684D01*
X25399000Y-31703316D01*
X25285961Y-31135031D01*
X24971237Y-30664013D01*
X25146000Y-30489250D01*
X25146000Y-29271000D01*
X25400000Y-29271000D01*
X25400000Y-30489250D01*
X25631750Y-30721000D01*
X26232392Y-30721000D01*
X26573104Y-30579873D01*
X26833873Y-30319103D01*
X26975000Y-29978392D01*
X26975000Y-29502750D01*
X26743250Y-29271000D01*
X25400000Y-29271000D01*
X25146000Y-29271000D01*
X25126000Y-29271000D01*
X25126000Y-29017000D01*
X25146000Y-29017000D01*
X25146000Y-28997000D01*
X25400000Y-28997000D01*
X25400000Y-29017000D01*
X26743250Y-29017000D01*
X26975000Y-28785250D01*
X26975000Y-28309608D01*
X26833873Y-27968897D01*
X26573104Y-27708127D01*
X26232392Y-27567000D01*
X25839802Y-27567000D01*
X26584230Y-26822572D01*
X26685673Y-26924192D01*
G36*
X43233159Y-1125440D02*
X43414105Y-1135721D01*
X43587519Y-1155653D01*
X43762042Y-1186093D01*
X43927121Y-1223432D01*
X44085646Y-1271181D01*
X44243195Y-1329533D01*
X44397555Y-1397920D01*
X44520191Y-1461352D01*
X44531588Y-1467351D01*
X44552148Y-1481486D01*
X44581265Y-1506962D01*
X44616267Y-1545649D01*
X44659685Y-1605193D01*
X44710523Y-1688383D01*
X44764842Y-1793517D01*
X44817321Y-1911143D01*
X44867757Y-2048872D01*
X44917915Y-2205614D01*
X44965006Y-2378994D01*
X45008658Y-2566700D01*
X45047071Y-2767803D01*
X45084493Y-2989995D01*
X45117710Y-3222513D01*
X45148237Y-3462033D01*
X45171920Y-3713075D01*
X45193680Y-3976617D01*
X45210691Y-4251213D01*
X45225330Y-4531793D01*
X45235108Y-4820244D01*
X45242463Y-5116885D01*
X45244920Y-5419150D01*
X45244920Y-5730011D01*
X45242455Y-6045520D01*
X45235055Y-6361243D01*
X45225081Y-6687892D01*
X45212501Y-7017495D01*
X45212539Y-7017733D01*
X45212483Y-7017968D01*
X45200010Y-7349739D01*
X45182706Y-7681002D01*
X45162746Y-8015334D01*
X45140096Y-8352561D01*
X45140123Y-8352766D01*
X45140068Y-8352969D01*
X45117412Y-8692814D01*
X45092452Y-9029770D01*
X45065041Y-9366175D01*
X45034850Y-9703309D01*
X45004704Y-10037430D01*
X44972006Y-10371958D01*
X44939414Y-10700390D01*
X44904226Y-11027131D01*
X44904482Y-11029996D01*
X44903640Y-11032749D01*
X44871330Y-11353362D01*
X44834058Y-11668933D01*
X44834258Y-11671462D01*
X44833489Y-11673879D01*
X44798417Y-11987019D01*
X44760870Y-12292403D01*
X44761092Y-12295400D01*
X44760171Y-12298261D01*
X44725148Y-12600955D01*
X44687793Y-12894816D01*
X44649874Y-13185531D01*
X44650024Y-13187775D01*
X44649315Y-13189909D01*
X44614453Y-13468807D01*
X44577129Y-13737537D01*
X44577293Y-13740346D01*
X44576387Y-13743011D01*
X44541170Y-14009650D01*
X44506202Y-14261922D01*
X44471336Y-14505984D01*
X44436238Y-14739136D01*
X44436356Y-14741640D01*
X44435519Y-14744006D01*
X44402499Y-14972606D01*
X44402534Y-14973261D01*
X44402317Y-14973877D01*
X44372253Y-15184325D01*
X44342661Y-15381605D01*
X44312874Y-15570260D01*
X44284934Y-15745520D01*
X44285022Y-15747807D01*
X44284239Y-15749957D01*
X44258839Y-15915057D01*
X44258862Y-15915593D01*
X44258680Y-15916096D01*
X44235820Y-16065956D01*
X44235850Y-16066612D01*
X44235626Y-16067232D01*
X44216457Y-16194226D01*
X44197515Y-16305511D01*
X44179735Y-16409651D01*
X44179999Y-16419342D01*
X44176744Y-16428475D01*
X44167130Y-16493853D01*
X44161131Y-16523846D01*
X44161107Y-16547079D01*
X44153397Y-16568996D01*
X44150857Y-16586777D01*
X44151488Y-16598360D01*
X44147942Y-16609408D01*
X44160230Y-16758751D01*
X44160872Y-16770531D01*
X44160793Y-16845940D01*
X44165619Y-16857626D01*
X44168386Y-16908393D01*
X44173404Y-16918856D01*
X44174355Y-16930418D01*
X44242860Y-17063693D01*
X44307660Y-17198820D01*
X44316298Y-17206565D01*
X44321602Y-17216884D01*
X44387412Y-17299755D01*
X44578595Y-17545904D01*
X44815136Y-17874697D01*
X45037416Y-18208115D01*
X45245081Y-18545572D01*
X45437690Y-18886160D01*
X45612343Y-19226151D01*
X45770828Y-19571089D01*
X45915482Y-19921058D01*
X46041906Y-20268149D01*
X46150486Y-20621614D01*
X46245762Y-20979480D01*
X46323678Y-21336975D01*
X46383316Y-21697098D01*
X46426869Y-22059276D01*
X46452364Y-22430107D01*
X46461580Y-22706601D01*
X46461580Y-22874186D01*
X46454698Y-23117333D01*
X46433887Y-23445694D01*
X46399288Y-23768616D01*
X46353164Y-24089176D01*
X46293736Y-24404602D01*
X46220552Y-24717922D01*
X46132802Y-25031975D01*
X46032535Y-25346765D01*
X45921753Y-25656034D01*
X45796974Y-25961050D01*
X45658822Y-26267794D01*
X45509260Y-26571591D01*
X45348206Y-26870357D01*
X45172140Y-27170843D01*
X44987137Y-27463569D01*
X44785867Y-27757186D01*
X44574226Y-28049680D01*
X44351297Y-28336641D01*
X44205440Y-28513753D01*
X44205440Y-25502000D01*
X44161162Y-25266683D01*
X44022090Y-25050559D01*
X43809890Y-24905569D01*
X43558000Y-24854560D01*
X41558000Y-24854560D01*
X41322683Y-24898838D01*
X41106559Y-25037910D01*
X40961569Y-25250110D01*
X40910560Y-25502000D01*
X40910560Y-29302000D01*
X40954838Y-29537317D01*
X41093910Y-29753441D01*
X41306110Y-29898431D01*
X41558000Y-29949440D01*
X42815770Y-29949440D01*
X42770629Y-29990851D01*
X42469874Y-30250704D01*
X42153817Y-30510842D01*
X41831359Y-30765415D01*
X41497372Y-31014696D01*
X41152450Y-31260028D01*
X40799285Y-31498718D01*
X40433315Y-31735379D01*
X40058535Y-31965637D01*
X39674369Y-32193200D01*
X39282348Y-32412342D01*
X38880902Y-32625304D01*
X38467337Y-32834549D01*
X38045195Y-33039448D01*
X37617803Y-33238407D01*
X37181826Y-33429453D01*
X36735536Y-33614380D01*
X36281498Y-33794514D01*
X35819662Y-33967393D01*
X35350021Y-34135476D01*
X34873782Y-34295867D01*
X34392947Y-34448748D01*
X34388360Y-34450108D01*
X34447441Y-34412090D01*
X34592431Y-34199890D01*
X34643440Y-33948000D01*
X34643440Y-33325362D01*
X35119401Y-32849401D01*
X35284148Y-32602840D01*
X35342000Y-32312000D01*
X35342000Y-31099440D01*
X37258000Y-31099440D01*
X37493317Y-31055162D01*
X37709441Y-30916090D01*
X37854431Y-30703890D01*
X37905440Y-30452000D01*
X37905440Y-29129362D01*
X39183401Y-27851401D01*
X39348148Y-27604839D01*
X39406000Y-27314000D01*
X39406000Y-23338000D01*
X39348148Y-23047161D01*
X39183401Y-22800599D01*
X37829883Y-21447081D01*
X37946896Y-21368896D01*
X37952233Y-21360909D01*
X37960466Y-21369142D01*
X38126313Y-21203295D01*
X38184449Y-21531483D01*
X38827503Y-21773370D01*
X39514174Y-21750758D01*
X40043551Y-21531483D01*
X40101687Y-21203293D01*
X39114000Y-20215605D01*
X39099858Y-20229748D01*
X38920252Y-20050142D01*
X38934395Y-20036000D01*
X39293605Y-20036000D01*
X40281293Y-21023687D01*
X40609483Y-20965551D01*
X40851370Y-20322497D01*
X40828758Y-19635826D01*
X40609483Y-19106449D01*
X40281293Y-19048313D01*
X39293605Y-20036000D01*
X38934395Y-20036000D01*
X38920252Y-20021858D01*
X39099858Y-19842252D01*
X39114000Y-19856395D01*
X40101687Y-18868707D01*
X40043551Y-18540517D01*
X39400497Y-18298630D01*
X38713826Y-18321242D01*
X38184449Y-18540517D01*
X38126313Y-18868705D01*
X37960466Y-18702858D01*
X37952233Y-18711091D01*
X37946896Y-18703104D01*
X37229000Y-17985208D01*
X37229000Y-15228792D01*
X39550896Y-12906896D01*
X39959513Y-12295358D01*
X40103000Y-11574000D01*
X40103000Y-5304000D01*
X40103326Y-4930695D01*
X39816957Y-4237628D01*
X39287161Y-3706907D01*
X38594595Y-3419328D01*
X37844695Y-3418674D01*
X37151628Y-3705043D01*
X36620907Y-4234839D01*
X36333328Y-4927405D01*
X36332674Y-5677305D01*
X36333000Y-5678094D01*
X36333000Y-10793208D01*
X34011104Y-13115104D01*
X33602487Y-13726641D01*
X33466328Y-14411161D01*
X33459000Y-14448000D01*
X33459000Y-18766000D01*
X33602487Y-19487359D01*
X34011104Y-20098896D01*
X35281104Y-21368896D01*
X35892641Y-21777513D01*
X36054023Y-21809614D01*
X36076599Y-21843401D01*
X37886000Y-23652802D01*
X37886000Y-23669023D01*
X37783104Y-23566127D01*
X37442392Y-23425000D01*
X36616750Y-23425000D01*
X36385000Y-23656750D01*
X36385000Y-24975000D01*
X36405000Y-24975000D01*
X36405000Y-25229000D01*
X36385000Y-25229000D01*
X36385000Y-25249000D01*
X36131000Y-25249000D01*
X36131000Y-25229000D01*
X36111000Y-25229000D01*
X36111000Y-24975000D01*
X36131000Y-24975000D01*
X36131000Y-23656750D01*
X35899250Y-23425000D01*
X35073608Y-23425000D01*
X34732896Y-23566127D01*
X34577348Y-23721675D01*
X34462090Y-23542559D01*
X34249890Y-23397569D01*
X33998000Y-23346560D01*
X32448000Y-23346560D01*
X32212683Y-23390838D01*
X31996559Y-23529910D01*
X31851569Y-23742110D01*
X31822836Y-23884000D01*
X26982802Y-23884000D01*
X27499401Y-23367401D01*
X27664148Y-23120839D01*
X27722000Y-22830000D01*
X27722000Y-22558939D01*
X27793608Y-22588600D01*
X28635250Y-22588600D01*
X28867000Y-22356850D01*
X28867000Y-20925000D01*
X29121000Y-20925000D01*
X29121000Y-22356850D01*
X29352750Y-22588600D01*
X30194392Y-22588600D01*
X30535104Y-22447473D01*
X30795873Y-22186703D01*
X30937000Y-21845992D01*
X30937000Y-21156750D01*
X30705250Y-20925000D01*
X29121000Y-20925000D01*
X28867000Y-20925000D01*
X28847000Y-20925000D01*
X28847000Y-20671000D01*
X28867000Y-20671000D01*
X28867000Y-20651000D01*
X29121000Y-20651000D01*
X29121000Y-20671000D01*
X30705250Y-20671000D01*
X30937000Y-20439250D01*
X30937000Y-19750008D01*
X30795873Y-19409297D01*
X30535104Y-19148527D01*
X30391248Y-19088940D01*
X30563271Y-18831489D01*
X30677345Y-18258000D01*
X30563271Y-17684511D01*
X30238415Y-17198330D01*
X29923634Y-16988000D01*
X30238415Y-16777670D01*
X30563271Y-16291489D01*
X30677345Y-15718000D01*
X30610682Y-15382860D01*
X30957167Y-15383162D01*
X31300943Y-15241117D01*
X31564192Y-14978327D01*
X31706838Y-14634799D01*
X31706879Y-14587923D01*
X32495401Y-13799401D01*
X32660148Y-13552840D01*
X32718000Y-13262000D01*
X32718000Y-11705334D01*
X32793317Y-11691162D01*
X33009441Y-11552090D01*
X33057134Y-11482289D01*
X33093910Y-11539441D01*
X33306110Y-11684431D01*
X33558000Y-11735440D01*
X34758000Y-11735440D01*
X34993317Y-11691162D01*
X35209441Y-11552090D01*
X35354431Y-11339890D01*
X35405440Y-11088000D01*
X35405440Y-10188000D01*
X35361162Y-9952683D01*
X35222090Y-9736559D01*
X35009890Y-9591569D01*
X34918000Y-9572961D01*
X34918000Y-9559076D01*
X34941777Y-9554602D01*
X35157901Y-9415530D01*
X35302891Y-9203330D01*
X35353900Y-8951440D01*
X35353900Y-7752560D01*
X35309622Y-7517243D01*
X35170550Y-7301119D01*
X34958350Y-7156129D01*
X34706460Y-7105120D01*
X33507580Y-7105120D01*
X33309271Y-7142434D01*
X33172369Y-7005532D01*
X33222597Y-6956827D01*
X33312864Y-6871439D01*
X33313219Y-6870938D01*
X33313739Y-6870610D01*
X33412799Y-6776630D01*
X33413408Y-6775769D01*
X33414297Y-6775205D01*
X33517047Y-6677234D01*
X33627310Y-6576560D01*
X33630762Y-6571870D01*
X33635702Y-6568790D01*
X33754490Y-6457275D01*
X33880771Y-6343137D01*
X33881494Y-6342164D01*
X33882531Y-6341541D01*
X34022231Y-6214541D01*
X34022668Y-6213950D01*
X34023296Y-6213571D01*
X34160678Y-6088241D01*
X34308082Y-5960167D01*
X34310993Y-5956409D01*
X34315092Y-5954006D01*
X34473086Y-5813568D01*
X34631810Y-5674379D01*
X34798288Y-5532383D01*
X34974311Y-5384021D01*
X34974981Y-5383182D01*
X34975917Y-5382663D01*
X35154985Y-5230954D01*
X35339589Y-5078347D01*
X35526978Y-4925477D01*
X35724069Y-4768304D01*
X35724490Y-4767806D01*
X35725066Y-4767507D01*
X35924381Y-4608055D01*
X36124968Y-4451499D01*
X36334509Y-4291849D01*
X36335003Y-4291290D01*
X36335670Y-4290962D01*
X36545448Y-4130544D01*
X36756621Y-3975197D01*
X36979107Y-3815207D01*
X37199159Y-3656968D01*
X37422409Y-3502409D01*
X37650166Y-3346444D01*
X37877916Y-3194610D01*
X38109869Y-3044088D01*
X38337372Y-2898874D01*
X38572499Y-2756818D01*
X38808133Y-2614456D01*
X39039260Y-2482039D01*
X39276843Y-2349777D01*
X39512601Y-2222276D01*
X39746659Y-2102859D01*
X39983400Y-1986903D01*
X40219844Y-1875919D01*
X40452694Y-1771374D01*
X40681803Y-1675524D01*
X40914937Y-1585125D01*
X41140337Y-1501471D01*
X41368699Y-1426904D01*
X41591334Y-1357331D01*
X41807664Y-1299345D01*
X42027100Y-1248528D01*
X42240409Y-1203621D01*
X42442575Y-1171360D01*
X42649073Y-1146936D01*
X42850451Y-1129613D01*
X43041605Y-1123311D01*
X43233159Y-1125440D01*
X43233159Y-1125440D01*
G37*
X43233159Y-1125440D02*
X43414105Y-1135721D01*
X43587519Y-1155653D01*
X43762042Y-1186093D01*
X43927121Y-1223432D01*
X44085646Y-1271181D01*
X44243195Y-1329533D01*
X44397555Y-1397920D01*
X44520191Y-1461352D01*
X44531588Y-1467351D01*
X44552148Y-1481486D01*
X44581265Y-1506962D01*
X44616267Y-1545649D01*
X44659685Y-1605193D01*
X44710523Y-1688383D01*
X44764842Y-1793517D01*
X44817321Y-1911143D01*
X44867757Y-2048872D01*
X44917915Y-2205614D01*
X44965006Y-2378994D01*
X45008658Y-2566700D01*
X45047071Y-2767803D01*
X45084493Y-2989995D01*
X45117710Y-3222513D01*
X45148237Y-3462033D01*
X45171920Y-3713075D01*
X45193680Y-3976617D01*
X45210691Y-4251213D01*
X45225330Y-4531793D01*
X45235108Y-4820244D01*
X45242463Y-5116885D01*
X45244920Y-5419150D01*
X45244920Y-5730011D01*
X45242455Y-6045520D01*
X45235055Y-6361243D01*
X45225081Y-6687892D01*
X45212501Y-7017495D01*
X45212539Y-7017733D01*
X45212483Y-7017968D01*
X45200010Y-7349739D01*
X45182706Y-7681002D01*
X45162746Y-8015334D01*
X45140096Y-8352561D01*
X45140123Y-8352766D01*
X45140068Y-8352969D01*
X45117412Y-8692814D01*
X45092452Y-9029770D01*
X45065041Y-9366175D01*
X45034850Y-9703309D01*
X45004704Y-10037430D01*
X44972006Y-10371958D01*
X44939414Y-10700390D01*
X44904226Y-11027131D01*
X44904482Y-11029996D01*
X44903640Y-11032749D01*
X44871330Y-11353362D01*
X44834058Y-11668933D01*
X44834258Y-11671462D01*
X44833489Y-11673879D01*
X44798417Y-11987019D01*
X44760870Y-12292403D01*
X44761092Y-12295400D01*
X44760171Y-12298261D01*
X44725148Y-12600955D01*
X44687793Y-12894816D01*
X44649874Y-13185531D01*
X44650024Y-13187775D01*
X44649315Y-13189909D01*
X44614453Y-13468807D01*
X44577129Y-13737537D01*
X44577293Y-13740346D01*
X44576387Y-13743011D01*
X44541170Y-14009650D01*
X44506202Y-14261922D01*
X44471336Y-14505984D01*
X44436238Y-14739136D01*
X44436356Y-14741640D01*
X44435519Y-14744006D01*
X44402499Y-14972606D01*
X44402534Y-14973261D01*
X44402317Y-14973877D01*
X44372253Y-15184325D01*
X44342661Y-15381605D01*
X44312874Y-15570260D01*
X44284934Y-15745520D01*
X44285022Y-15747807D01*
X44284239Y-15749957D01*
X44258839Y-15915057D01*
X44258862Y-15915593D01*
X44258680Y-15916096D01*
X44235820Y-16065956D01*
X44235850Y-16066612D01*
X44235626Y-16067232D01*
X44216457Y-16194226D01*
X44197515Y-16305511D01*
X44179735Y-16409651D01*
X44179999Y-16419342D01*
X44176744Y-16428475D01*
X44167130Y-16493853D01*
X44161131Y-16523846D01*
X44161107Y-16547079D01*
X44153397Y-16568996D01*
X44150857Y-16586777D01*
X44151488Y-16598360D01*
X44147942Y-16609408D01*
X44160230Y-16758751D01*
X44160872Y-16770531D01*
X44160793Y-16845940D01*
X44165619Y-16857626D01*
X44168386Y-16908393D01*
X44173404Y-16918856D01*
X44174355Y-16930418D01*
X44242860Y-17063693D01*
X44307660Y-17198820D01*
X44316298Y-17206565D01*
X44321602Y-17216884D01*
X44387412Y-17299755D01*
X44578595Y-17545904D01*
X44815136Y-17874697D01*
X45037416Y-18208115D01*
X45245081Y-18545572D01*
X45437690Y-18886160D01*
X45612343Y-19226151D01*
X45770828Y-19571089D01*
X45915482Y-19921058D01*
X46041906Y-20268149D01*
X46150486Y-20621614D01*
X46245762Y-20979480D01*
X46323678Y-21336975D01*
X46383316Y-21697098D01*
X46426869Y-22059276D01*
X46452364Y-22430107D01*
X46461580Y-22706601D01*
X46461580Y-22874186D01*
X46454698Y-23117333D01*
X46433887Y-23445694D01*
X46399288Y-23768616D01*
X46353164Y-24089176D01*
X46293736Y-24404602D01*
X46220552Y-24717922D01*
X46132802Y-25031975D01*
X46032535Y-25346765D01*
X45921753Y-25656034D01*
X45796974Y-25961050D01*
X45658822Y-26267794D01*
X45509260Y-26571591D01*
X45348206Y-26870357D01*
X45172140Y-27170843D01*
X44987137Y-27463569D01*
X44785867Y-27757186D01*
X44574226Y-28049680D01*
X44351297Y-28336641D01*
X44205440Y-28513753D01*
X44205440Y-25502000D01*
X44161162Y-25266683D01*
X44022090Y-25050559D01*
X43809890Y-24905569D01*
X43558000Y-24854560D01*
X41558000Y-24854560D01*
X41322683Y-24898838D01*
X41106559Y-25037910D01*
X40961569Y-25250110D01*
X40910560Y-25502000D01*
X40910560Y-29302000D01*
X40954838Y-29537317D01*
X41093910Y-29753441D01*
X41306110Y-29898431D01*
X41558000Y-29949440D01*
X42815770Y-29949440D01*
X42770629Y-29990851D01*
X42469874Y-30250704D01*
X42153817Y-30510842D01*
X41831359Y-30765415D01*
X41497372Y-31014696D01*
X41152450Y-31260028D01*
X40799285Y-31498718D01*
X40433315Y-31735379D01*
X40058535Y-31965637D01*
X39674369Y-32193200D01*
X39282348Y-32412342D01*
X38880902Y-32625304D01*
X38467337Y-32834549D01*
X38045195Y-33039448D01*
X37617803Y-33238407D01*
X37181826Y-33429453D01*
X36735536Y-33614380D01*
X36281498Y-33794514D01*
X35819662Y-33967393D01*
X35350021Y-34135476D01*
X34873782Y-34295867D01*
X34392947Y-34448748D01*
X34388360Y-34450108D01*
X34447441Y-34412090D01*
X34592431Y-34199890D01*
X34643440Y-33948000D01*
X34643440Y-33325362D01*
X35119401Y-32849401D01*
X35284148Y-32602840D01*
X35342000Y-32312000D01*
X35342000Y-31099440D01*
X37258000Y-31099440D01*
X37493317Y-31055162D01*
X37709441Y-30916090D01*
X37854431Y-30703890D01*
X37905440Y-30452000D01*
X37905440Y-29129362D01*
X39183401Y-27851401D01*
X39348148Y-27604839D01*
X39406000Y-27314000D01*
X39406000Y-23338000D01*
X39348148Y-23047161D01*
X39183401Y-22800599D01*
X37829883Y-21447081D01*
X37946896Y-21368896D01*
X37952233Y-21360909D01*
X37960466Y-21369142D01*
X38126313Y-21203295D01*
X38184449Y-21531483D01*
X38827503Y-21773370D01*
X39514174Y-21750758D01*
X40043551Y-21531483D01*
X40101687Y-21203293D01*
X39114000Y-20215605D01*
X39099858Y-20229748D01*
X38920252Y-20050142D01*
X38934395Y-20036000D01*
X39293605Y-20036000D01*
X40281293Y-21023687D01*
X40609483Y-20965551D01*
X40851370Y-20322497D01*
X40828758Y-19635826D01*
X40609483Y-19106449D01*
X40281293Y-19048313D01*
X39293605Y-20036000D01*
X38934395Y-20036000D01*
X38920252Y-20021858D01*
X39099858Y-19842252D01*
X39114000Y-19856395D01*
X40101687Y-18868707D01*
X40043551Y-18540517D01*
X39400497Y-18298630D01*
X38713826Y-18321242D01*
X38184449Y-18540517D01*
X38126313Y-18868705D01*
X37960466Y-18702858D01*
X37952233Y-18711091D01*
X37946896Y-18703104D01*
X37229000Y-17985208D01*
X37229000Y-15228792D01*
X39550896Y-12906896D01*
X39959513Y-12295358D01*
X40103000Y-11574000D01*
X40103000Y-5304000D01*
X40103326Y-4930695D01*
X39816957Y-4237628D01*
X39287161Y-3706907D01*
X38594595Y-3419328D01*
X37844695Y-3418674D01*
X37151628Y-3705043D01*
X36620907Y-4234839D01*
X36333328Y-4927405D01*
X36332674Y-5677305D01*
X36333000Y-5678094D01*
X36333000Y-10793208D01*
X34011104Y-13115104D01*
X33602487Y-13726641D01*
X33466328Y-14411161D01*
X33459000Y-14448000D01*
X33459000Y-18766000D01*
X33602487Y-19487359D01*
X34011104Y-20098896D01*
X35281104Y-21368896D01*
X35892641Y-21777513D01*
X36054023Y-21809614D01*
X36076599Y-21843401D01*
X37886000Y-23652802D01*
X37886000Y-23669023D01*
X37783104Y-23566127D01*
X37442392Y-23425000D01*
X36616750Y-23425000D01*
X36385000Y-23656750D01*
X36385000Y-24975000D01*
X36405000Y-24975000D01*
X36405000Y-25229000D01*
X36385000Y-25229000D01*
X36385000Y-25249000D01*
X36131000Y-25249000D01*
X36131000Y-25229000D01*
X36111000Y-25229000D01*
X36111000Y-24975000D01*
X36131000Y-24975000D01*
X36131000Y-23656750D01*
X35899250Y-23425000D01*
X35073608Y-23425000D01*
X34732896Y-23566127D01*
X34577348Y-23721675D01*
X34462090Y-23542559D01*
X34249890Y-23397569D01*
X33998000Y-23346560D01*
X32448000Y-23346560D01*
X32212683Y-23390838D01*
X31996559Y-23529910D01*
X31851569Y-23742110D01*
X31822836Y-23884000D01*
X26982802Y-23884000D01*
X27499401Y-23367401D01*
X27664148Y-23120839D01*
X27722000Y-22830000D01*
X27722000Y-22558939D01*
X27793608Y-22588600D01*
X28635250Y-22588600D01*
X28867000Y-22356850D01*
X28867000Y-20925000D01*
X29121000Y-20925000D01*
X29121000Y-22356850D01*
X29352750Y-22588600D01*
X30194392Y-22588600D01*
X30535104Y-22447473D01*
X30795873Y-22186703D01*
X30937000Y-21845992D01*
X30937000Y-21156750D01*
X30705250Y-20925000D01*
X29121000Y-20925000D01*
X28867000Y-20925000D01*
X28847000Y-20925000D01*
X28847000Y-20671000D01*
X28867000Y-20671000D01*
X28867000Y-20651000D01*
X29121000Y-20651000D01*
X29121000Y-20671000D01*
X30705250Y-20671000D01*
X30937000Y-20439250D01*
X30937000Y-19750008D01*
X30795873Y-19409297D01*
X30535104Y-19148527D01*
X30391248Y-19088940D01*
X30563271Y-18831489D01*
X30677345Y-18258000D01*
X30563271Y-17684511D01*
X30238415Y-17198330D01*
X29923634Y-16988000D01*
X30238415Y-16777670D01*
X30563271Y-16291489D01*
X30677345Y-15718000D01*
X30610682Y-15382860D01*
X30957167Y-15383162D01*
X31300943Y-15241117D01*
X31564192Y-14978327D01*
X31706838Y-14634799D01*
X31706879Y-14587923D01*
X32495401Y-13799401D01*
X32660148Y-13552840D01*
X32718000Y-13262000D01*
X32718000Y-11705334D01*
X32793317Y-11691162D01*
X33009441Y-11552090D01*
X33057134Y-11482289D01*
X33093910Y-11539441D01*
X33306110Y-11684431D01*
X33558000Y-11735440D01*
X34758000Y-11735440D01*
X34993317Y-11691162D01*
X35209441Y-11552090D01*
X35354431Y-11339890D01*
X35405440Y-11088000D01*
X35405440Y-10188000D01*
X35361162Y-9952683D01*
X35222090Y-9736559D01*
X35009890Y-9591569D01*
X34918000Y-9572961D01*
X34918000Y-9559076D01*
X34941777Y-9554602D01*
X35157901Y-9415530D01*
X35302891Y-9203330D01*
X35353900Y-8951440D01*
X35353900Y-7752560D01*
X35309622Y-7517243D01*
X35170550Y-7301119D01*
X34958350Y-7156129D01*
X34706460Y-7105120D01*
X33507580Y-7105120D01*
X33309271Y-7142434D01*
X33172369Y-7005532D01*
X33222597Y-6956827D01*
X33312864Y-6871439D01*
X33313219Y-6870938D01*
X33313739Y-6870610D01*
X33412799Y-6776630D01*
X33413408Y-6775769D01*
X33414297Y-6775205D01*
X33517047Y-6677234D01*
X33627310Y-6576560D01*
X33630762Y-6571870D01*
X33635702Y-6568790D01*
X33754490Y-6457275D01*
X33880771Y-6343137D01*
X33881494Y-6342164D01*
X33882531Y-6341541D01*
X34022231Y-6214541D01*
X34022668Y-6213950D01*
X34023296Y-6213571D01*
X34160678Y-6088241D01*
X34308082Y-5960167D01*
X34310993Y-5956409D01*
X34315092Y-5954006D01*
X34473086Y-5813568D01*
X34631810Y-5674379D01*
X34798288Y-5532383D01*
X34974311Y-5384021D01*
X34974981Y-5383182D01*
X34975917Y-5382663D01*
X35154985Y-5230954D01*
X35339589Y-5078347D01*
X35526978Y-4925477D01*
X35724069Y-4768304D01*
X35724490Y-4767806D01*
X35725066Y-4767507D01*
X35924381Y-4608055D01*
X36124968Y-4451499D01*
X36334509Y-4291849D01*
X36335003Y-4291290D01*
X36335670Y-4290962D01*
X36545448Y-4130544D01*
X36756621Y-3975197D01*
X36979107Y-3815207D01*
X37199159Y-3656968D01*
X37422409Y-3502409D01*
X37650166Y-3346444D01*
X37877916Y-3194610D01*
X38109869Y-3044088D01*
X38337372Y-2898874D01*
X38572499Y-2756818D01*
X38808133Y-2614456D01*
X39039260Y-2482039D01*
X39276843Y-2349777D01*
X39512601Y-2222276D01*
X39746659Y-2102859D01*
X39983400Y-1986903D01*
X40219844Y-1875919D01*
X40452694Y-1771374D01*
X40681803Y-1675524D01*
X40914937Y-1585125D01*
X41140337Y-1501471D01*
X41368699Y-1426904D01*
X41591334Y-1357331D01*
X41807664Y-1299345D01*
X42027100Y-1248528D01*
X42240409Y-1203621D01*
X42442575Y-1171360D01*
X42649073Y-1146936D01*
X42850451Y-1129613D01*
X43041605Y-1123311D01*
X43233159Y-1125440D01*
G36*
X3088000Y-22267537D02*
X3055808Y-22299673D01*
X2913162Y-22643201D01*
X2912838Y-23015167D01*
X3054883Y-23358943D01*
X3317673Y-23622192D01*
X3661201Y-23764838D01*
X4009263Y-23765141D01*
X3942655Y-24100000D01*
X4056729Y-24673489D01*
X4381585Y-25159670D01*
X4696366Y-25370000D01*
X4381585Y-25580330D01*
X4056729Y-26066511D01*
X3942655Y-26640000D01*
X4056729Y-27213489D01*
X4381585Y-27699670D01*
X4867766Y-28024526D01*
X5441255Y-28138600D01*
X5810745Y-28138600D01*
X6384234Y-28024526D01*
X6870415Y-27699670D01*
X7070648Y-27400000D01*
X12433889Y-27400000D01*
X12199808Y-27633673D01*
X12057162Y-27977201D01*
X12056838Y-28349167D01*
X12166000Y-28613360D01*
X12166000Y-30207023D01*
X11951103Y-29992127D01*
X11610392Y-29851000D01*
X11384750Y-29851000D01*
X11153000Y-30082750D01*
X11153000Y-31101000D01*
X11173000Y-31101000D01*
X11173000Y-31355000D01*
X11153000Y-31355000D01*
X11153000Y-31375000D01*
X10899000Y-31375000D01*
X10899000Y-31355000D01*
X9930750Y-31355000D01*
X9699000Y-31586750D01*
X9699000Y-31862392D01*
X9840127Y-32203104D01*
X10100897Y-32463873D01*
X10441608Y-32605000D01*
X10667250Y-32605000D01*
X10898998Y-32373252D01*
X10898998Y-32605000D01*
X10963593Y-32605000D01*
X10928560Y-32778000D01*
X10928560Y-33425152D01*
X10504784Y-33238403D01*
X10074130Y-33039071D01*
X9653643Y-32834976D01*
X9241702Y-32625305D01*
X8837806Y-32412341D01*
X8449204Y-32193753D01*
X8064105Y-31965637D01*
X7689324Y-31735379D01*
X7322262Y-31498012D01*
X6967712Y-31260026D01*
X6626369Y-31015518D01*
X6290075Y-30764516D01*
X5966392Y-30510883D01*
X5652726Y-30250712D01*
X5348293Y-29989770D01*
X5059022Y-29724405D01*
X4829521Y-29502750D01*
X7569000Y-29502750D01*
X7569000Y-29978392D01*
X7710127Y-30319103D01*
X7970896Y-30579873D01*
X8311608Y-30721000D01*
X8912250Y-30721000D01*
X9144000Y-30489250D01*
X9144000Y-29271000D01*
X9398000Y-29271000D01*
X9398000Y-30489250D01*
X9629750Y-30721000D01*
X9699000Y-30721000D01*
X9699000Y-30869250D01*
X9930750Y-31101000D01*
X10899000Y-31101000D01*
X10899000Y-30157044D01*
X10973000Y-29978392D01*
X10973000Y-29502750D01*
X10741250Y-29271000D01*
X9398000Y-29271000D01*
X9144000Y-29271000D01*
X7800750Y-29271000D01*
X7569000Y-29502750D01*
X4829521Y-29502750D01*
X4777271Y-29452287D01*
X4508127Y-29178339D01*
X4250394Y-28901515D01*
X4003890Y-28619111D01*
X3767518Y-28334986D01*
X3747803Y-28309608D01*
X7569000Y-28309608D01*
X7569000Y-28785250D01*
X7800750Y-29017000D01*
X9144000Y-29017000D01*
X9144000Y-27798750D01*
X9398000Y-27798750D01*
X9398000Y-29017000D01*
X10741250Y-29017000D01*
X10973000Y-28785250D01*
X10973000Y-28309608D01*
X10831873Y-27968897D01*
X10571104Y-27708127D01*
X10230392Y-27567000D01*
X9629750Y-27567000D01*
X9398000Y-27798750D01*
X9144000Y-27798750D01*
X8912250Y-27567000D01*
X8311608Y-27567000D01*
X7970896Y-27708127D01*
X7710127Y-27968897D01*
X7569000Y-28309608D01*
X3747803Y-28309608D01*
X3545878Y-28049685D01*
X3335561Y-27759022D01*
X3135409Y-27463559D01*
X2948056Y-27170820D01*
X2775578Y-26872480D01*
X2612171Y-26569347D01*
X2460222Y-26265449D01*
X2324234Y-25963510D01*
X2200774Y-25656025D01*
X2086741Y-25344179D01*
X1988159Y-25034677D01*
X1902727Y-24720658D01*
X1828903Y-24404597D01*
X1768937Y-24086316D01*
X1720502Y-23765724D01*
X1686521Y-23448572D01*
X1668024Y-23120237D01*
X1661060Y-22874186D01*
X1661060Y-22703151D01*
X1667907Y-22429253D01*
X1695465Y-22061825D01*
X1739324Y-21697098D01*
X1798962Y-21336975D01*
X1877551Y-20976392D01*
X1969735Y-20619179D01*
X2079884Y-20270375D01*
X2207499Y-19917693D01*
X2351812Y-19568549D01*
X2510302Y-19223603D01*
X2684950Y-18883620D01*
X2877565Y-18543020D01*
X3085212Y-18205594D01*
X3088000Y-18201412D01*
X3088000Y-22267537D01*
X3088000Y-22267537D01*
G37*
X3088000Y-22267537D02*
X3055808Y-22299673D01*
X2913162Y-22643201D01*
X2912838Y-23015167D01*
X3054883Y-23358943D01*
X3317673Y-23622192D01*
X3661201Y-23764838D01*
X4009263Y-23765141D01*
X3942655Y-24100000D01*
X4056729Y-24673489D01*
X4381585Y-25159670D01*
X4696366Y-25370000D01*
X4381585Y-25580330D01*
X4056729Y-26066511D01*
X3942655Y-26640000D01*
X4056729Y-27213489D01*
X4381585Y-27699670D01*
X4867766Y-28024526D01*
X5441255Y-28138600D01*
X5810745Y-28138600D01*
X6384234Y-28024526D01*
X6870415Y-27699670D01*
X7070648Y-27400000D01*
X12433889Y-27400000D01*
X12199808Y-27633673D01*
X12057162Y-27977201D01*
X12056838Y-28349167D01*
X12166000Y-28613360D01*
X12166000Y-30207023D01*
X11951103Y-29992127D01*
X11610392Y-29851000D01*
X11384750Y-29851000D01*
X11153000Y-30082750D01*
X11153000Y-31101000D01*
X11173000Y-31101000D01*
X11173000Y-31355000D01*
X11153000Y-31355000D01*
X11153000Y-31375000D01*
X10899000Y-31375000D01*
X10899000Y-31355000D01*
X9930750Y-31355000D01*
X9699000Y-31586750D01*
X9699000Y-31862392D01*
X9840127Y-32203104D01*
X10100897Y-32463873D01*
X10441608Y-32605000D01*
X10667250Y-32605000D01*
X10898998Y-32373252D01*
X10898998Y-32605000D01*
X10963593Y-32605000D01*
X10928560Y-32778000D01*
X10928560Y-33425152D01*
X10504784Y-33238403D01*
X10074130Y-33039071D01*
X9653643Y-32834976D01*
X9241702Y-32625305D01*
X8837806Y-32412341D01*
X8449204Y-32193753D01*
X8064105Y-31965637D01*
X7689324Y-31735379D01*
X7322262Y-31498012D01*
X6967712Y-31260026D01*
X6626369Y-31015518D01*
X6290075Y-30764516D01*
X5966392Y-30510883D01*
X5652726Y-30250712D01*
X5348293Y-29989770D01*
X5059022Y-29724405D01*
X4829521Y-29502750D01*
X7569000Y-29502750D01*
X7569000Y-29978392D01*
X7710127Y-30319103D01*
X7970896Y-30579873D01*
X8311608Y-30721000D01*
X8912250Y-30721000D01*
X9144000Y-30489250D01*
X9144000Y-29271000D01*
X9398000Y-29271000D01*
X9398000Y-30489250D01*
X9629750Y-30721000D01*
X9699000Y-30721000D01*
X9699000Y-30869250D01*
X9930750Y-31101000D01*
X10899000Y-31101000D01*
X10899000Y-30157044D01*
X10973000Y-29978392D01*
X10973000Y-29502750D01*
X10741250Y-29271000D01*
X9398000Y-29271000D01*
X9144000Y-29271000D01*
X7800750Y-29271000D01*
X7569000Y-29502750D01*
X4829521Y-29502750D01*
X4777271Y-29452287D01*
X4508127Y-29178339D01*
X4250394Y-28901515D01*
X4003890Y-28619111D01*
X3767518Y-28334986D01*
X3747803Y-28309608D01*
X7569000Y-28309608D01*
X7569000Y-28785250D01*
X7800750Y-29017000D01*
X9144000Y-29017000D01*
X9144000Y-27798750D01*
X9398000Y-27798750D01*
X9398000Y-29017000D01*
X10741250Y-29017000D01*
X10973000Y-28785250D01*
X10973000Y-28309608D01*
X10831873Y-27968897D01*
X10571104Y-27708127D01*
X10230392Y-27567000D01*
X9629750Y-27567000D01*
X9398000Y-27798750D01*
X9144000Y-27798750D01*
X8912250Y-27567000D01*
X8311608Y-27567000D01*
X7970896Y-27708127D01*
X7710127Y-27968897D01*
X7569000Y-28309608D01*
X3747803Y-28309608D01*
X3545878Y-28049685D01*
X3335561Y-27759022D01*
X3135409Y-27463559D01*
X2948056Y-27170820D01*
X2775578Y-26872480D01*
X2612171Y-26569347D01*
X2460222Y-26265449D01*
X2324234Y-25963510D01*
X2200774Y-25656025D01*
X2086741Y-25344179D01*
X1988159Y-25034677D01*
X1902727Y-24720658D01*
X1828903Y-24404597D01*
X1768937Y-24086316D01*
X1720502Y-23765724D01*
X1686521Y-23448572D01*
X1668024Y-23120237D01*
X1661060Y-22874186D01*
X1661060Y-22703151D01*
X1667907Y-22429253D01*
X1695465Y-22061825D01*
X1739324Y-21697098D01*
X1798962Y-21336975D01*
X1877551Y-20976392D01*
X1969735Y-20619179D01*
X2079884Y-20270375D01*
X2207499Y-19917693D01*
X2351812Y-19568549D01*
X2510302Y-19223603D01*
X2684950Y-18883620D01*
X2877565Y-18543020D01*
X3085212Y-18205594D01*
X3088000Y-18201412D01*
X3088000Y-22267537D01*
G36*
X32656198Y-27567000D02*
X32263608Y-27567000D01*
X31922896Y-27708127D01*
X31662127Y-27968897D01*
X31521000Y-28309608D01*
X31521000Y-28785250D01*
X31752750Y-29017000D01*
X33096000Y-29017000D01*
X33096000Y-28997000D01*
X33350000Y-28997000D01*
X33350000Y-29017000D01*
X33370000Y-29017000D01*
X33370000Y-29271000D01*
X33350000Y-29271000D01*
X33350000Y-30489250D01*
X33581750Y-30721000D01*
X33822000Y-30721000D01*
X33822000Y-31997198D01*
X33418638Y-32400560D01*
X32796000Y-32400560D01*
X32560683Y-32444838D01*
X32344559Y-32583910D01*
X32296866Y-32653711D01*
X32260090Y-32596559D01*
X32047890Y-32451569D01*
X31956000Y-32432961D01*
X31956000Y-30593585D01*
X32263608Y-30721000D01*
X32864250Y-30721000D01*
X33096000Y-30489250D01*
X33096000Y-29271000D01*
X31752750Y-29271000D01*
X31591276Y-29432474D01*
X28288802Y-26130000D01*
X31219198Y-26130000D01*
X32656198Y-27567000D01*
X32656198Y-27567000D01*
G37*
X32656198Y-27567000D02*
X32263608Y-27567000D01*
X31922896Y-27708127D01*
X31662127Y-27968897D01*
X31521000Y-28309608D01*
X31521000Y-28785250D01*
X31752750Y-29017000D01*
X33096000Y-29017000D01*
X33096000Y-28997000D01*
X33350000Y-28997000D01*
X33350000Y-29017000D01*
X33370000Y-29017000D01*
X33370000Y-29271000D01*
X33350000Y-29271000D01*
X33350000Y-30489250D01*
X33581750Y-30721000D01*
X33822000Y-30721000D01*
X33822000Y-31997198D01*
X33418638Y-32400560D01*
X32796000Y-32400560D01*
X32560683Y-32444838D01*
X32344559Y-32583910D01*
X32296866Y-32653711D01*
X32260090Y-32596559D01*
X32047890Y-32451569D01*
X31956000Y-32432961D01*
X31956000Y-30593585D01*
X32263608Y-30721000D01*
X32864250Y-30721000D01*
X33096000Y-30489250D01*
X33096000Y-29271000D01*
X31752750Y-29271000D01*
X31591276Y-29432474D01*
X28288802Y-26130000D01*
X31219198Y-26130000D01*
X32656198Y-27567000D01*
G36*
X18116000Y-27567000D02*
X17579750Y-27567000D01*
X17348000Y-27798750D01*
X17348000Y-29017000D01*
X17368000Y-29017000D01*
X17368000Y-29271000D01*
X17348000Y-29271000D01*
X17348000Y-29291000D01*
X17094000Y-29291000D01*
X17094000Y-29271000D01*
X15750750Y-29271000D01*
X15519000Y-29502750D01*
X15519000Y-29897139D01*
X15210799Y-29769162D01*
X14838833Y-29768838D01*
X14495057Y-29910883D01*
X14231808Y-30173673D01*
X14089162Y-30517201D01*
X14088842Y-30884527D01*
X13997569Y-31018110D01*
X13973440Y-31137263D01*
X13973440Y-30778000D01*
X13929162Y-30542683D01*
X13790090Y-30326559D01*
X13686000Y-30255437D01*
X13686000Y-28792348D01*
X13784192Y-28694327D01*
X13926838Y-28350799D01*
X13926873Y-28309608D01*
X15519000Y-28309608D01*
X15519000Y-28785250D01*
X15750750Y-29017000D01*
X17094000Y-29017000D01*
X17094000Y-27798750D01*
X16862250Y-27567000D01*
X16261608Y-27567000D01*
X15920896Y-27708127D01*
X15660127Y-27968897D01*
X15519000Y-28309608D01*
X13926873Y-28309608D01*
X13927162Y-27978833D01*
X13785117Y-27635057D01*
X13550470Y-27400000D01*
X18116000Y-27400000D01*
X18116000Y-27567000D01*
X18116000Y-27567000D01*
G37*
X18116000Y-27567000D02*
X17579750Y-27567000D01*
X17348000Y-27798750D01*
X17348000Y-29017000D01*
X17368000Y-29017000D01*
X17368000Y-29271000D01*
X17348000Y-29271000D01*
X17348000Y-29291000D01*
X17094000Y-29291000D01*
X17094000Y-29271000D01*
X15750750Y-29271000D01*
X15519000Y-29502750D01*
X15519000Y-29897139D01*
X15210799Y-29769162D01*
X14838833Y-29768838D01*
X14495057Y-29910883D01*
X14231808Y-30173673D01*
X14089162Y-30517201D01*
X14088842Y-30884527D01*
X13997569Y-31018110D01*
X13973440Y-31137263D01*
X13973440Y-30778000D01*
X13929162Y-30542683D01*
X13790090Y-30326559D01*
X13686000Y-30255437D01*
X13686000Y-28792348D01*
X13784192Y-28694327D01*
X13926838Y-28350799D01*
X13926873Y-28309608D01*
X15519000Y-28309608D01*
X15519000Y-28785250D01*
X15750750Y-29017000D01*
X17094000Y-29017000D01*
X17094000Y-27798750D01*
X16862250Y-27567000D01*
X16261608Y-27567000D01*
X15920896Y-27708127D01*
X15660127Y-27968897D01*
X15519000Y-28309608D01*
X13926873Y-28309608D01*
X13927162Y-27978833D01*
X13785117Y-27635057D01*
X13550470Y-27400000D01*
X18116000Y-27400000D01*
X18116000Y-27567000D01*
G36*
X20401000Y-26259000D02*
X20421000Y-26259000D01*
X20421000Y-26513000D01*
X20401000Y-26513000D01*
X20401000Y-27531250D01*
X20632750Y-27763000D01*
X21058392Y-27763000D01*
X21399104Y-27621873D01*
X21602170Y-27418806D01*
X21622110Y-27432431D01*
X21874000Y-27483440D01*
X22757758Y-27483440D01*
X22412638Y-27828560D01*
X21874000Y-27828560D01*
X21638683Y-27872838D01*
X21422559Y-28011910D01*
X21374866Y-28081711D01*
X21338090Y-28024559D01*
X21125890Y-27879569D01*
X20874000Y-27828560D01*
X19674000Y-27828560D01*
X19636000Y-27835710D01*
X19636000Y-27763000D01*
X19915250Y-27763000D01*
X20147000Y-27531250D01*
X20147000Y-26513000D01*
X20127000Y-26513000D01*
X20127000Y-26259000D01*
X20147000Y-26259000D01*
X20147000Y-26239000D01*
X20401000Y-26239000D01*
X20401000Y-26259000D01*
X20401000Y-26259000D01*
G37*
X20401000Y-26259000D02*
X20421000Y-26259000D01*
X20421000Y-26513000D01*
X20401000Y-26513000D01*
X20401000Y-27531250D01*
X20632750Y-27763000D01*
X21058392Y-27763000D01*
X21399104Y-27621873D01*
X21602170Y-27418806D01*
X21622110Y-27432431D01*
X21874000Y-27483440D01*
X22757758Y-27483440D01*
X22412638Y-27828560D01*
X21874000Y-27828560D01*
X21638683Y-27872838D01*
X21422559Y-28011910D01*
X21374866Y-28081711D01*
X21338090Y-28024559D01*
X21125890Y-27879569D01*
X20874000Y-27828560D01*
X19674000Y-27828560D01*
X19636000Y-27835710D01*
X19636000Y-27763000D01*
X19915250Y-27763000D01*
X20147000Y-27531250D01*
X20147000Y-26513000D01*
X20127000Y-26513000D01*
X20127000Y-26259000D01*
X20147000Y-26259000D01*
X20147000Y-26239000D01*
X20401000Y-26239000D01*
X20401000Y-26259000D01*
G36*
X21708878Y-20429680D02*
X21708838Y-20475167D01*
X21850883Y-20818943D01*
X22113673Y-21082192D01*
X22457201Y-21224838D01*
X22646000Y-21225002D01*
X22646000Y-22798000D01*
X22428750Y-22798000D01*
X22197000Y-23029750D01*
X22197000Y-23973000D01*
X22217000Y-23973000D01*
X22217000Y-24227000D01*
X22197000Y-24227000D01*
X22197000Y-24247000D01*
X21943000Y-24247000D01*
X21943000Y-24227000D01*
X21923000Y-24227000D01*
X21923000Y-23973000D01*
X21943000Y-23973000D01*
X21943000Y-23029750D01*
X21711250Y-22798000D01*
X21285608Y-22798000D01*
X20944896Y-22939127D01*
X20800323Y-23083701D01*
X20770000Y-23077560D01*
X20664362Y-23077560D01*
X18131401Y-20544599D01*
X17884839Y-20379852D01*
X17594000Y-20322000D01*
X11378917Y-20322000D01*
X11326851Y-20244078D01*
X11084283Y-20082000D01*
X11326851Y-19919922D01*
X11378917Y-19842000D01*
X12676000Y-19842000D01*
X12966839Y-19784148D01*
X13213401Y-19619401D01*
X14291401Y-18541401D01*
X14456148Y-18294840D01*
X14514000Y-18004000D01*
X14514000Y-13234802D01*
X21708878Y-20429680D01*
X21708878Y-20429680D01*
G37*
X21708878Y-20429680D02*
X21708838Y-20475167D01*
X21850883Y-20818943D01*
X22113673Y-21082192D01*
X22457201Y-21224838D01*
X22646000Y-21225002D01*
X22646000Y-22798000D01*
X22428750Y-22798000D01*
X22197000Y-23029750D01*
X22197000Y-23973000D01*
X22217000Y-23973000D01*
X22217000Y-24227000D01*
X22197000Y-24227000D01*
X22197000Y-24247000D01*
X21943000Y-24247000D01*
X21943000Y-24227000D01*
X21923000Y-24227000D01*
X21923000Y-23973000D01*
X21943000Y-23973000D01*
X21943000Y-23029750D01*
X21711250Y-22798000D01*
X21285608Y-22798000D01*
X20944896Y-22939127D01*
X20800323Y-23083701D01*
X20770000Y-23077560D01*
X20664362Y-23077560D01*
X18131401Y-20544599D01*
X17884839Y-20379852D01*
X17594000Y-20322000D01*
X11378917Y-20322000D01*
X11326851Y-20244078D01*
X11084283Y-20082000D01*
X11326851Y-19919922D01*
X11378917Y-19842000D01*
X12676000Y-19842000D01*
X12966839Y-19784148D01*
X13213401Y-19619401D01*
X14291401Y-18541401D01*
X14456148Y-18294840D01*
X14514000Y-18004000D01*
X14514000Y-13234802D01*
X21708878Y-20429680D01*
G36*
X5167993Y-1018494D02*
X5379890Y-1031468D01*
X5594739Y-1055340D01*
X5811590Y-1088196D01*
X6038328Y-1133095D01*
X6266728Y-1185107D01*
X6500011Y-1248523D01*
X6739129Y-1321196D01*
X6981616Y-1400471D01*
X7219468Y-1487378D01*
X7464522Y-1586342D01*
X7713238Y-1691569D01*
X7962340Y-1804144D01*
X8208977Y-1920348D01*
X8458948Y-2047737D01*
X8710606Y-2178406D01*
X8959937Y-2316385D01*
X9055000Y-2369916D01*
X9055000Y-4542000D01*
X9065006Y-4591410D01*
X9093447Y-4633035D01*
X9135841Y-4660315D01*
X9182000Y-4669000D01*
X12392920Y-4669000D01*
X12478520Y-4737276D01*
X12681493Y-4903119D01*
X12881547Y-5068163D01*
X13074490Y-5228949D01*
X13261332Y-5388387D01*
X13262186Y-5388865D01*
X13262796Y-5389634D01*
X13446847Y-5545951D01*
X13618967Y-5693482D01*
X13783215Y-5838118D01*
X13942324Y-5979825D01*
X14093321Y-6115970D01*
X14238542Y-6248672D01*
X14239466Y-6249231D01*
X14240109Y-6250101D01*
X14374493Y-6372267D01*
X14498872Y-6489329D01*
X14503559Y-6492259D01*
X14506829Y-6496721D01*
X14626041Y-6605999D01*
X14731023Y-6703982D01*
X14826178Y-6796758D01*
X14831504Y-6800220D01*
X14835177Y-6805400D01*
X14925443Y-6890787D01*
X15005592Y-6968507D01*
X15006354Y-6968999D01*
X15006872Y-6969746D01*
X15075314Y-7035828D01*
X15133701Y-7094214D01*
X15133703Y-7094217D01*
X15184503Y-7145017D01*
X15225141Y-7185654D01*
X15225143Y-7185657D01*
X15255621Y-7216134D01*
X15255623Y-7216137D01*
X15273401Y-7233914D01*
X15273403Y-7233917D01*
X15278483Y-7238997D01*
X15381930Y-7308119D01*
X15478714Y-7386300D01*
X15514914Y-7396976D01*
X15546294Y-7417943D01*
X15668316Y-7442214D01*
X15787655Y-7477408D01*
X15825186Y-7473418D01*
X15862200Y-7480780D01*
X15984223Y-7456508D01*
X16107943Y-7443354D01*
X16335649Y-7372349D01*
X17028842Y-7172532D01*
X17972868Y-6930979D01*
X18937191Y-6726799D01*
X19924252Y-6554494D01*
X20931629Y-6421490D01*
X21957543Y-6322845D01*
X23005266Y-6263539D01*
X23573580Y-6249420D01*
X23320274Y-6628520D01*
X23230071Y-7082000D01*
X23320274Y-7535480D01*
X23577149Y-7919922D01*
X23819717Y-8082000D01*
X23577149Y-8244078D01*
X23505130Y-8351862D01*
X22379517Y-8349235D01*
X22370360Y-8351034D01*
X22361171Y-8349414D01*
X22225209Y-8379555D01*
X22088544Y-8406408D01*
X22080773Y-8411574D01*
X22071662Y-8413594D01*
X21957582Y-8493472D01*
X21841598Y-8570579D01*
X21836395Y-8578327D01*
X21828751Y-8583679D01*
X21753918Y-8701142D01*
X21676276Y-8816756D01*
X21674434Y-8825903D01*
X21669420Y-8833774D01*
X20096929Y-12877320D01*
X20070800Y-12888116D01*
X19807551Y-13150906D01*
X19664905Y-13494434D01*
X19664581Y-13866400D01*
X19806626Y-14210176D01*
X20069416Y-14473425D01*
X20213814Y-14533384D01*
X19456320Y-15290878D01*
X19410833Y-15290838D01*
X19067057Y-15432883D01*
X18964281Y-15535479D01*
X13973401Y-10544599D01*
X13726839Y-10379852D01*
X13436000Y-10322000D01*
X11378917Y-10322000D01*
X11326851Y-10244078D01*
X11084283Y-10082000D01*
X11287714Y-9946072D01*
X11535201Y-10048838D01*
X11907167Y-10049162D01*
X12250943Y-9907117D01*
X12514192Y-9644327D01*
X12656838Y-9300799D01*
X12657162Y-8928833D01*
X12515117Y-8585057D01*
X12252327Y-8321808D01*
X11908799Y-8179162D01*
X11536833Y-8178838D01*
X11338121Y-8260944D01*
X11326851Y-8244078D01*
X11276129Y-8210187D01*
X11453441Y-8096090D01*
X11598431Y-7883890D01*
X11649440Y-7632000D01*
X11649440Y-6532000D01*
X11605162Y-6296683D01*
X11466090Y-6080559D01*
X11253890Y-5935569D01*
X11002000Y-5884560D01*
X8502000Y-5884560D01*
X8266683Y-5928838D01*
X8050559Y-6067910D01*
X7905569Y-6280110D01*
X7854560Y-6532000D01*
X7854560Y-6826638D01*
X7374599Y-7306599D01*
X7209852Y-7553161D01*
X7152000Y-7844000D01*
X7152000Y-8221751D01*
X6870415Y-7800330D01*
X6555634Y-7590000D01*
X6870415Y-7379670D01*
X7195271Y-6893489D01*
X7309345Y-6320000D01*
X7195271Y-5746511D01*
X7023248Y-5489060D01*
X7167104Y-5429473D01*
X7427873Y-5168703D01*
X7569000Y-4827992D01*
X7569000Y-4138750D01*
X7337250Y-3907000D01*
X5753000Y-3907000D01*
X5753000Y-3927000D01*
X5499000Y-3927000D01*
X5499000Y-3907000D01*
X3914750Y-3907000D01*
X3683000Y-4138750D01*
X3683000Y-4827992D01*
X3824127Y-5168703D01*
X4084896Y-5429473D01*
X4228752Y-5489060D01*
X4056729Y-5746511D01*
X3942655Y-6320000D01*
X4056729Y-6893489D01*
X4381585Y-7379670D01*
X4696366Y-7590000D01*
X4381585Y-7800330D01*
X4056729Y-8286511D01*
X3942655Y-8860000D01*
X4056729Y-9433489D01*
X4381585Y-9919670D01*
X4696366Y-10130000D01*
X4381585Y-10340330D01*
X4056729Y-10826511D01*
X3942655Y-11400000D01*
X4056729Y-11973489D01*
X4381585Y-12459670D01*
X4696366Y-12670000D01*
X4381585Y-12880330D01*
X4056729Y-13366511D01*
X3980759Y-13748439D01*
X3596517Y-14132681D01*
X3581679Y-14021399D01*
X3581274Y-14020212D01*
X3581350Y-14018964D01*
X3543470Y-13741180D01*
X3505542Y-13455453D01*
X3504851Y-13453425D01*
X3504978Y-13451286D01*
X3465049Y-13161798D01*
X3427605Y-12862249D01*
X3427079Y-12860667D01*
X3427193Y-12859000D01*
X3387071Y-12548053D01*
X3349452Y-12232055D01*
X3348812Y-12230091D01*
X3348963Y-12228031D01*
X3308796Y-11904183D01*
X3271258Y-11576350D01*
X3233657Y-11240453D01*
X3198437Y-10900829D01*
X3197726Y-10898529D01*
X3197936Y-10896134D01*
X3160545Y-10554626D01*
X3128133Y-10208070D01*
X3127363Y-10205485D01*
X3127623Y-10202800D01*
X3092645Y-9853024D01*
X3062697Y-9503621D01*
X3032485Y-9148628D01*
X3004794Y-8791164D01*
X2977084Y-8433458D01*
X2952272Y-8081120D01*
X2932274Y-7728658D01*
X2912280Y-7376266D01*
X2897283Y-7026334D01*
X2897252Y-7026208D01*
X2897272Y-7026080D01*
X2882279Y-6678747D01*
X2872371Y-6339374D01*
X2864884Y-5999960D01*
X2859940Y-5668684D01*
X2859940Y-5342790D01*
X2862406Y-5022271D01*
X2869786Y-4709827D01*
X2879607Y-4405367D01*
X2894117Y-4110350D01*
X2913375Y-3828701D01*
X2937659Y-3549440D01*
X2963762Y-3288412D01*
X2996820Y-3038111D01*
X3031897Y-2799592D01*
X3044310Y-2732008D01*
X3683000Y-2732008D01*
X3683000Y-3421250D01*
X3914750Y-3653000D01*
X5499000Y-3653000D01*
X5499000Y-2221150D01*
X5753000Y-2221150D01*
X5753000Y-3653000D01*
X7337250Y-3653000D01*
X7569000Y-3421250D01*
X7569000Y-2732008D01*
X7427873Y-2391297D01*
X7167104Y-2130527D01*
X6826392Y-1989400D01*
X5984750Y-1989400D01*
X5753000Y-2221150D01*
X5499000Y-2221150D01*
X5267250Y-1989400D01*
X4425608Y-1989400D01*
X4084896Y-2130527D01*
X3824127Y-2391297D01*
X3683000Y-2732008D01*
X3044310Y-2732008D01*
X3072540Y-2578311D01*
X3117786Y-2370182D01*
X3166596Y-2174940D01*
X3216374Y-2004865D01*
X3270720Y-1851892D01*
X3327243Y-1713509D01*
X3381687Y-1601108D01*
X3431632Y-1514439D01*
X3476164Y-1453057D01*
X3520744Y-1402905D01*
X3555272Y-1371665D01*
X3567157Y-1363382D01*
X3593664Y-1348803D01*
X3718885Y-1284173D01*
X3879028Y-1213634D01*
X4042459Y-1156623D01*
X4222983Y-1105914D01*
X4399552Y-1066236D01*
X4578031Y-1039076D01*
X4769457Y-1022609D01*
X4966750Y-1014302D01*
X5167993Y-1018494D01*
X5167993Y-1018494D01*
G37*
X5167993Y-1018494D02*
X5379890Y-1031468D01*
X5594739Y-1055340D01*
X5811590Y-1088196D01*
X6038328Y-1133095D01*
X6266728Y-1185107D01*
X6500011Y-1248523D01*
X6739129Y-1321196D01*
X6981616Y-1400471D01*
X7219468Y-1487378D01*
X7464522Y-1586342D01*
X7713238Y-1691569D01*
X7962340Y-1804144D01*
X8208977Y-1920348D01*
X8458948Y-2047737D01*
X8710606Y-2178406D01*
X8959937Y-2316385D01*
X9055000Y-2369916D01*
X9055000Y-4542000D01*
X9065006Y-4591410D01*
X9093447Y-4633035D01*
X9135841Y-4660315D01*
X9182000Y-4669000D01*
X12392920Y-4669000D01*
X12478520Y-4737276D01*
X12681493Y-4903119D01*
X12881547Y-5068163D01*
X13074490Y-5228949D01*
X13261332Y-5388387D01*
X13262186Y-5388865D01*
X13262796Y-5389634D01*
X13446847Y-5545951D01*
X13618967Y-5693482D01*
X13783215Y-5838118D01*
X13942324Y-5979825D01*
X14093321Y-6115970D01*
X14238542Y-6248672D01*
X14239466Y-6249231D01*
X14240109Y-6250101D01*
X14374493Y-6372267D01*
X14498872Y-6489329D01*
X14503559Y-6492259D01*
X14506829Y-6496721D01*
X14626041Y-6605999D01*
X14731023Y-6703982D01*
X14826178Y-6796758D01*
X14831504Y-6800220D01*
X14835177Y-6805400D01*
X14925443Y-6890787D01*
X15005592Y-6968507D01*
X15006354Y-6968999D01*
X15006872Y-6969746D01*
X15075314Y-7035828D01*
X15133701Y-7094214D01*
X15133703Y-7094217D01*
X15184503Y-7145017D01*
X15225141Y-7185654D01*
X15225143Y-7185657D01*
X15255621Y-7216134D01*
X15255623Y-7216137D01*
X15273401Y-7233914D01*
X15273403Y-7233917D01*
X15278483Y-7238997D01*
X15381930Y-7308119D01*
X15478714Y-7386300D01*
X15514914Y-7396976D01*
X15546294Y-7417943D01*
X15668316Y-7442214D01*
X15787655Y-7477408D01*
X15825186Y-7473418D01*
X15862200Y-7480780D01*
X15984223Y-7456508D01*
X16107943Y-7443354D01*
X16335649Y-7372349D01*
X17028842Y-7172532D01*
X17972868Y-6930979D01*
X18937191Y-6726799D01*
X19924252Y-6554494D01*
X20931629Y-6421490D01*
X21957543Y-6322845D01*
X23005266Y-6263539D01*
X23573580Y-6249420D01*
X23320274Y-6628520D01*
X23230071Y-7082000D01*
X23320274Y-7535480D01*
X23577149Y-7919922D01*
X23819717Y-8082000D01*
X23577149Y-8244078D01*
X23505130Y-8351862D01*
X22379517Y-8349235D01*
X22370360Y-8351034D01*
X22361171Y-8349414D01*
X22225209Y-8379555D01*
X22088544Y-8406408D01*
X22080773Y-8411574D01*
X22071662Y-8413594D01*
X21957582Y-8493472D01*
X21841598Y-8570579D01*
X21836395Y-8578327D01*
X21828751Y-8583679D01*
X21753918Y-8701142D01*
X21676276Y-8816756D01*
X21674434Y-8825903D01*
X21669420Y-8833774D01*
X20096929Y-12877320D01*
X20070800Y-12888116D01*
X19807551Y-13150906D01*
X19664905Y-13494434D01*
X19664581Y-13866400D01*
X19806626Y-14210176D01*
X20069416Y-14473425D01*
X20213814Y-14533384D01*
X19456320Y-15290878D01*
X19410833Y-15290838D01*
X19067057Y-15432883D01*
X18964281Y-15535479D01*
X13973401Y-10544599D01*
X13726839Y-10379852D01*
X13436000Y-10322000D01*
X11378917Y-10322000D01*
X11326851Y-10244078D01*
X11084283Y-10082000D01*
X11287714Y-9946072D01*
X11535201Y-10048838D01*
X11907167Y-10049162D01*
X12250943Y-9907117D01*
X12514192Y-9644327D01*
X12656838Y-9300799D01*
X12657162Y-8928833D01*
X12515117Y-8585057D01*
X12252327Y-8321808D01*
X11908799Y-8179162D01*
X11536833Y-8178838D01*
X11338121Y-8260944D01*
X11326851Y-8244078D01*
X11276129Y-8210187D01*
X11453441Y-8096090D01*
X11598431Y-7883890D01*
X11649440Y-7632000D01*
X11649440Y-6532000D01*
X11605162Y-6296683D01*
X11466090Y-6080559D01*
X11253890Y-5935569D01*
X11002000Y-5884560D01*
X8502000Y-5884560D01*
X8266683Y-5928838D01*
X8050559Y-6067910D01*
X7905569Y-6280110D01*
X7854560Y-6532000D01*
X7854560Y-6826638D01*
X7374599Y-7306599D01*
X7209852Y-7553161D01*
X7152000Y-7844000D01*
X7152000Y-8221751D01*
X6870415Y-7800330D01*
X6555634Y-7590000D01*
X6870415Y-7379670D01*
X7195271Y-6893489D01*
X7309345Y-6320000D01*
X7195271Y-5746511D01*
X7023248Y-5489060D01*
X7167104Y-5429473D01*
X7427873Y-5168703D01*
X7569000Y-4827992D01*
X7569000Y-4138750D01*
X7337250Y-3907000D01*
X5753000Y-3907000D01*
X5753000Y-3927000D01*
X5499000Y-3927000D01*
X5499000Y-3907000D01*
X3914750Y-3907000D01*
X3683000Y-4138750D01*
X3683000Y-4827992D01*
X3824127Y-5168703D01*
X4084896Y-5429473D01*
X4228752Y-5489060D01*
X4056729Y-5746511D01*
X3942655Y-6320000D01*
X4056729Y-6893489D01*
X4381585Y-7379670D01*
X4696366Y-7590000D01*
X4381585Y-7800330D01*
X4056729Y-8286511D01*
X3942655Y-8860000D01*
X4056729Y-9433489D01*
X4381585Y-9919670D01*
X4696366Y-10130000D01*
X4381585Y-10340330D01*
X4056729Y-10826511D01*
X3942655Y-11400000D01*
X4056729Y-11973489D01*
X4381585Y-12459670D01*
X4696366Y-12670000D01*
X4381585Y-12880330D01*
X4056729Y-13366511D01*
X3980759Y-13748439D01*
X3596517Y-14132681D01*
X3581679Y-14021399D01*
X3581274Y-14020212D01*
X3581350Y-14018964D01*
X3543470Y-13741180D01*
X3505542Y-13455453D01*
X3504851Y-13453425D01*
X3504978Y-13451286D01*
X3465049Y-13161798D01*
X3427605Y-12862249D01*
X3427079Y-12860667D01*
X3427193Y-12859000D01*
X3387071Y-12548053D01*
X3349452Y-12232055D01*
X3348812Y-12230091D01*
X3348963Y-12228031D01*
X3308796Y-11904183D01*
X3271258Y-11576350D01*
X3233657Y-11240453D01*
X3198437Y-10900829D01*
X3197726Y-10898529D01*
X3197936Y-10896134D01*
X3160545Y-10554626D01*
X3128133Y-10208070D01*
X3127363Y-10205485D01*
X3127623Y-10202800D01*
X3092645Y-9853024D01*
X3062697Y-9503621D01*
X3032485Y-9148628D01*
X3004794Y-8791164D01*
X2977084Y-8433458D01*
X2952272Y-8081120D01*
X2932274Y-7728658D01*
X2912280Y-7376266D01*
X2897283Y-7026334D01*
X2897252Y-7026208D01*
X2897272Y-7026080D01*
X2882279Y-6678747D01*
X2872371Y-6339374D01*
X2864884Y-5999960D01*
X2859940Y-5668684D01*
X2859940Y-5342790D01*
X2862406Y-5022271D01*
X2869786Y-4709827D01*
X2879607Y-4405367D01*
X2894117Y-4110350D01*
X2913375Y-3828701D01*
X2937659Y-3549440D01*
X2963762Y-3288412D01*
X2996820Y-3038111D01*
X3031897Y-2799592D01*
X3044310Y-2732008D01*
X3683000Y-2732008D01*
X3683000Y-3421250D01*
X3914750Y-3653000D01*
X5499000Y-3653000D01*
X5499000Y-2221150D01*
X5753000Y-2221150D01*
X5753000Y-3653000D01*
X7337250Y-3653000D01*
X7569000Y-3421250D01*
X7569000Y-2732008D01*
X7427873Y-2391297D01*
X7167104Y-2130527D01*
X6826392Y-1989400D01*
X5984750Y-1989400D01*
X5753000Y-2221150D01*
X5499000Y-2221150D01*
X5267250Y-1989400D01*
X4425608Y-1989400D01*
X4084896Y-2130527D01*
X3824127Y-2391297D01*
X3683000Y-2732008D01*
X3044310Y-2732008D01*
X3072540Y-2578311D01*
X3117786Y-2370182D01*
X3166596Y-2174940D01*
X3216374Y-2004865D01*
X3270720Y-1851892D01*
X3327243Y-1713509D01*
X3381687Y-1601108D01*
X3431632Y-1514439D01*
X3476164Y-1453057D01*
X3520744Y-1402905D01*
X3555272Y-1371665D01*
X3567157Y-1363382D01*
X3593664Y-1348803D01*
X3718885Y-1284173D01*
X3879028Y-1213634D01*
X4042459Y-1156623D01*
X4222983Y-1105914D01*
X4399552Y-1066236D01*
X4578031Y-1039076D01*
X4769457Y-1022609D01*
X4966750Y-1014302D01*
X5167993Y-1018494D01*
G36*
X32135980Y-8225000D02*
X32155980Y-8225000D01*
X32155980Y-8479000D01*
X32135980Y-8479000D01*
X32135980Y-8499000D01*
X31881980Y-8499000D01*
X31881980Y-8479000D01*
X31861980Y-8479000D01*
X31861980Y-8225000D01*
X31881980Y-8225000D01*
X31881980Y-8205000D01*
X32135980Y-8205000D01*
X32135980Y-8225000D01*
X32135980Y-8225000D01*
G37*
X32135980Y-8225000D02*
X32155980Y-8225000D01*
X32155980Y-8479000D01*
X32135980Y-8479000D01*
X32135980Y-8499000D01*
X31881980Y-8499000D01*
X31881980Y-8479000D01*
X31861980Y-8479000D01*
X31861980Y-8225000D01*
X31881980Y-8225000D01*
X31881980Y-8205000D01*
X32135980Y-8205000D01*
X32135980Y-8225000D01*
M02*
