G04 #@! TF.FileFunction,Soldermask,Top*
%FSLAX46Y46*%
G04 Gerber Fmt 4.6, Leading zero omitted, Abs format (unit mm)*
G04 Created by KiCad (PCBNEW 4.0.7) date Tuesday, December 26, 2017 'AMt' 07:42:27 AM*
%MOMM*%
%LPD*%
G01*
G04 APERTURE LIST*
%ADD10C,0.100000*%
%ADD11R,2.800000X2.800000*%
%ADD12C,2.800000*%
%ADD13R,1.600000X1.150000*%
%ADD14R,2.000000X2.000000*%
%ADD15C,2.000000*%
%ADD16R,1.598880X1.598880*%
%ADD17R,2.900000X2.900000*%
%ADD18C,2.900000*%
%ADD19O,2.100000X4.100000*%
%ADD20R,2.432000X2.127200*%
%ADD21O,2.432000X2.127200*%
%ADD22R,1.200000X1.300000*%
%ADD23R,1.600000X1.300000*%
%ADD24R,1.950000X1.700000*%
%ADD25R,2.400000X4.200000*%
%ADD26R,2.400000X1.900000*%
%ADD27R,2.900000X1.500000*%
%ADD28O,2.900000X1.500000*%
G04 APERTURE END LIST*
D10*
D11*
X35344000Y-16988000D03*
D12*
X40344000Y-16988000D03*
D13*
X20170000Y-24100000D03*
X22070000Y-24100000D03*
D14*
X36614000Y-20036000D03*
D15*
X39114000Y-20036000D03*
D16*
X34107020Y-8352000D03*
X32008980Y-8352000D03*
D17*
X43218000Y-5304000D03*
D18*
X38218000Y-5304000D03*
D19*
X26414000Y-32752000D03*
X23914000Y-32752000D03*
X21414000Y-32752000D03*
D20*
X28994000Y-20798000D03*
D21*
X28994000Y-18258000D03*
X28994000Y-15718000D03*
X28994000Y-13178000D03*
X28994000Y-10638000D03*
X28994000Y-8098000D03*
D20*
X5626000Y-3780000D03*
D21*
X5626000Y-6320000D03*
X5626000Y-8860000D03*
X5626000Y-11400000D03*
X5626000Y-13940000D03*
X5626000Y-16480000D03*
X5626000Y-19020000D03*
X5626000Y-21560000D03*
X5626000Y-24100000D03*
X5626000Y-26640000D03*
D22*
X12926000Y-31228000D03*
X11026000Y-31228000D03*
X11976000Y-33228000D03*
D23*
X15194000Y-31720000D03*
X17394000Y-31720000D03*
X34158000Y-10638000D03*
X31958000Y-10638000D03*
X31196000Y-33498000D03*
X33396000Y-33498000D03*
X20274000Y-26386000D03*
X22474000Y-26386000D03*
X20274000Y-28926000D03*
X22474000Y-28926000D03*
X15194000Y-33752000D03*
X17394000Y-33752000D03*
D24*
X17221000Y-24644000D03*
X17221000Y-29144000D03*
X9271000Y-29144000D03*
X9271000Y-24644000D03*
X33223000Y-24644000D03*
X33223000Y-29144000D03*
X25273000Y-29144000D03*
X25273000Y-24644000D03*
D25*
X42558000Y-27402000D03*
D26*
X36258000Y-27402000D03*
X36258000Y-29702000D03*
X36258000Y-25102000D03*
D27*
X9752000Y-7082000D03*
D28*
X9752000Y-9082000D03*
X9752000Y-11082000D03*
X9752000Y-13082000D03*
X9752000Y-15082000D03*
X9752000Y-17082000D03*
X9752000Y-19082000D03*
X9752000Y-21082000D03*
X25152000Y-21082000D03*
X25052000Y-19082000D03*
X25152000Y-17082000D03*
X25152000Y-15082000D03*
X25152000Y-13082000D03*
X25152000Y-11082000D03*
X25152000Y-9082000D03*
X25152000Y-7082000D03*
M02*
